<?xml version="1.0" encoding="UTF-8" standalone="yes"?>
<svg xmlns="http://www.w3.org/2000/svg" xmlns:xlink="http://www.w3.org/1999/xlink" width="45.706mm" height="33.982mm" version="1.1" viewBox="-4311.950 8550.994 237.529 176.598">
  <!--
	Exported with Concepts: Smarter Sketching
	Version: 1059 on iOS 15.6
	https://concepts.app/
	-->
  <title>类型、逻辑、运算、信息</title>
  <desc>Drawing exported from Concepts: Smarter Sketching</desc>
  <defs></defs>
  <g id="标题引导" opacity="1.000">
    <path id="STROKE_2e3d2d5d-f890-4703-bdc8-a1a0d078f60b" opacity="1.000" fill="none" stroke="#000000" stroke-width="1.285" stroke-opacity="1.000" stroke-linecap="round" stroke-linejoin="round" d="M -4307.898 8559.300 Q -4307.894 8558.993 -4308.260 8558.791 Q -4308.492 8560.391 -4308.104 8564.820 Q -4307.717 8569.250 -4307.671 8569.539 "></path>
    <path id="STROKE_e8ca128a-5626-44f0-be06-fe74b17e9d16" opacity="1.000" fill="none" stroke="#000000" stroke-width="1.133" stroke-opacity="1.000" stroke-linecap="round" stroke-linejoin="round" d="M -4305.520 8562.968 Q -4305.021 8561.689 -4305.209 8562.030 Q -4305.398 8562.371 -4305.246 8562.140 Q -4305.095 8561.908 -4304.962 8561.490 Q -4304.830 8561.073 -4303.812 8560.914 Q -4302.794 8560.754 -4301.747 8560.816 Q -4300.700 8560.879 -4300.246 8562.577 Q -4299.793 8564.275 -4301.698 8566.507 Q -4303.603 8568.738 -4307.536 8570.031 Q -4306.741 8569.590 -4304.768 8568.151 Q -4302.794 8566.713 -4301.699 8565.873 Q -4300.604 8565.032 -4300.115 8564.279 Q -4299.626 8563.526 -4298.250 8562.951 Q -4296.875 8562.375 -4295.730 8561.870 Q -4294.586 8561.365 -4293.554 8561.061 Q -4292.522 8560.755 -4291.996 8560.616 Q -4291.470 8560.478 -4290.690 8560.314 Q -4289.911 8560.150 -4288.226 8560.081 Q -4287.118 8560.633 -4290.090 8563.524 Q -4293.062 8566.416 -4295.670 8568.188 Q -4298.277 8569.961 -4304.953 8571.984 Q -4304.929 8571.902 -4297.512 8568.047 Q -4290.094 8564.190 -4289.845 8563.901 "></path>
    <path id="STROKE_3ceab4b5-0090-4faa-941c-429e0b272d21" opacity="1.000" fill="none" stroke="#000000" stroke-width="0.983" stroke-opacity="1.000" stroke-linecap="round" stroke-linejoin="round" d="M -4293.152 8557.568 Q -4294.259 8557.402 -4294.125 8564.246 Q -4293.992 8571.090 -4293.810 8574.962 Q -4293.628 8578.834 -4293.641 8580.669 Q -4293.653 8582.504 -4294.150 8583.240 Q -4294.647 8583.978 -4296.066 8584.385 Q -4297.485 8584.792 -4298.949 8584.557 Q -4300.412 8584.321 -4301.376 8583.688 Q -4302.340 8583.056 -4302.803 8582.748 Q -4303.267 8582.440 -4303.552 8582.215 Q -4303.837 8581.989 -4303.954 8581.523 Q -4304.071 8581.058 -4304.021 8580.613 Q -4303.971 8580.168 -4303.181 8579.313 Q -4302.391 8578.459 -4300.340 8577.177 Q -4298.290 8575.895 -4294.444 8575.262 Q -4290.598 8574.630 -4287.990 8575.812 Q -4285.383 8576.993 -4285.021 8577.315 "></path>
    <path id="STROKE_a8bc3617-f9ac-481f-bdfa-efc866a93aca" opacity="1.000" fill="none" stroke="#000000" stroke-width="1.181" stroke-opacity="1.000" stroke-linecap="round" stroke-linejoin="round" d="M -4283.797 8556.261 Q -4283.851 8556.357 -4283.862 8556.281 Q -4283.873 8556.205 -4284.131 8556.701 Q -4284.388 8557.197 -4284.059 8557.738 Q -4283.730 8558.278 -4283.294 8558.591 Q -4282.858 8558.903 -4282.856 8558.924 Q -4282.855 8558.944 -4282.458 8559.052 Q -4282.062 8559.159 -4280.350 8559.465 Q -4278.638 8559.770 -4273.423 8554.324 Q -4272.565 8554.936 -4282.846 8566.296 Q -4284.403 8565.853 -4275.915 8559.368 Q -4275.055 8559.587 -4276.795 8562.017 Q -4278.535 8564.446 -4280.767 8565.662 Q -4282.998 8566.879 -4280.729 8580.066 Q -4280.694 8580.066 -4280.626 8580.066 Q -4280.404 8579.083 -4280.055 8576.165 Q -4279.706 8573.247 -4278.985 8571.346 Q -4278.265 8569.445 -4276.900 8568.891 Q -4275.537 8568.336 -4274.848 8568.358 Q -4274.158 8568.381 -4273.762 8569.553 Q -4273.366 8570.725 -4273.475 8571.789 Q -4273.583 8572.854 -4274.076 8573.388 Q -4274.569 8573.922 -4275.632 8573.928 Q -4275.799 8572.349 -4275.733 8572.773 Q -4275.733 8572.629 -4275.733 8572.272 Q -4275.663 8573.163 -4278.248 8577.537 Q -4277.338 8577.238 -4273.650 8575.159 Q -4273.525 8575.539 -4273.678 8574.899 Q -4273.831 8574.260 -4274.012 8573.937 "></path>
    <path id="STROKE_29e8e395-d5d7-4eac-9ca9-9b7f42dad8c7" opacity="1.000" fill="none" stroke="#000000" stroke-width="0.983" stroke-opacity="1.000" stroke-linecap="round" stroke-linejoin="round" d="M -4285.949 8561.898 Q -4285.394 8562.111 -4287.931 8560.658 Q -4288.208 8559.860 -4287.748 8564.658 Q -4287.287 8569.457 -4287.340 8575.715 Q -4287.392 8581.974 -4286.493 8587.377 Q -4285.337 8588.118 -4281.478 8587.227 Q -4277.618 8586.335 -4273.188 8583.863 Q -4268.757 8581.391 -4268.259 8581.068 "></path>
    <path id="STROKE_f81f1900-fe0d-4662-9511-318196ae897f" opacity="1.000" fill="none" stroke="#000000" stroke-width="1.285" stroke-opacity="1.000" stroke-linecap="round" stroke-linejoin="round" d="M -4244.566 8579.557 Q -4244.907 8579.401 -4244.792 8579.048 Q -4244.724 8579.165 -4244.855 8578.852 Q -4244.987 8578.537 -4244.437 8579.752 Q -4243.887 8580.967 -4243.705 8581.510 "></path>
    <path id="STROKE_b4e6c7f6-ba95-4c34-af66-5dc2f5cab068" opacity="1.000" fill="none" stroke="#000000" stroke-width="1.281" stroke-opacity="1.000" stroke-linecap="round" stroke-linejoin="round" d="M -4243.705 8587.266 Q -4244.938 8587.504 -4244.611 8587.453 Q -4244.657 8587.486 -4244.725 8587.486 Q -4244.738 8587.477 -4244.560 8587.537 Q -4244.382 8587.598 -4242.515 8587.631 Q -4240.647 8587.665 -4240.104 8587.707 "></path>
    <path id="STROKE_8813d482-6254-47b4-b48a-279b6c34c55e" opacity="1.000" fill="none" stroke="#000000" stroke-width="0.701" stroke-opacity="1.000" stroke-linecap="round" stroke-linejoin="round" d="M -4177.089 8574.718 Q -4176.597 8575.007 -4179.435 8574.414 Q -4182.273 8573.820 -4183.799 8574.087 Q -4185.325 8574.354 -4187.203 8575.250 Q -4189.081 8576.146 -4192.008 8578.243 Q -4194.935 8580.340 -4198.647 8583.569 Q -4202.360 8586.799 -4204.200 8588.469 Q -4206.041 8590.139 -4209.586 8593.501 Q -4213.130 8596.863 -4216.124 8600.315 Q -4219.117 8603.768 -4222.115 8610.374 Q -4225.112 8616.980 -4226.593 8621.054 Q -4228.074 8625.127 -4229.117 8631.422 Q -4230.159 8637.717 -4230.540 8643.348 Q -4230.920 8648.978 -4230.536 8655.322 Q -4230.152 8661.667 -4229.679 8665.621 Q -4229.206 8669.574 -4228.023 8674.078 Q -4226.841 8678.581 -4222.395 8684.812 Q -4217.948 8691.044 -4215.291 8694.152 Q -4212.634 8697.262 -4207.969 8701.716 Q -4203.304 8706.170 -4199.394 8709.072 Q -4195.483 8711.975 -4190.811 8714.353 Q -4186.137 8716.730 -4178.827 8718.621 Q -4171.517 8720.512 -4166.020 8721.121 Q -4160.522 8721.730 -4153.903 8722.016 Q -4147.284 8722.301 -4141.498 8722.109 Q -4135.712 8721.918 -4132.081 8721.422 Q -4128.451 8720.926 -4122.950 8719.034 Q -4117.449 8717.143 -4113.829 8715.418 Q -4110.208 8713.693 -4105.915 8709.946 Q -4101.622 8706.199 -4099.210 8703.734 Q -4096.797 8701.270 -4093.607 8696.576 Q -4090.417 8691.884 -4088.904 8689.128 Q -4087.391 8686.372 -4086.336 8684.053 Q -4085.281 8681.732 -4083.290 8675.801 Q -4081.298 8669.869 -4079.698 8663.072 Q -4078.098 8656.275 -4077.686 8649.041 Q -4077.274 8641.808 -4077.481 8637.314 Q -4077.688 8632.820 -4079.019 8626.028 Q -4080.350 8619.236 -4081.781 8613.523 Q -4083.213 8607.811 -4086.243 8602.774 Q -4089.272 8597.738 -4091.175 8595.477 Q -4093.078 8593.215 -4094.492 8591.721 Q -4095.907 8590.228 -4096.622 8589.500 Q -4097.337 8588.773 -4098.526 8587.656 Q -4099.715 8586.539 -4102.318 8584.080 Q -4104.922 8581.620 -4108.695 8578.926 Q -4112.468 8576.230 -4116.447 8574.147 Q -4120.426 8572.064 -4129.861 8570.453 Q -4139.296 8568.841 -4144.691 8568.068 Q -4150.087 8567.297 -4153.603 8566.830 Q -4157.118 8566.363 -4164.342 8568.771 Q -4171.565 8571.178 -4177.158 8573.704 Q -4182.751 8576.230 -4187.392 8578.241 Q -4192.032 8580.252 -4200.444 8585.347 Q -4208.856 8590.441 -4210.544 8591.527 "></path>
    <path id="STROKE_b67f81d5-5676-4c98-99ef-ef42dd88328e" opacity="1.000" fill="none" stroke="#000000" stroke-width="0.822" stroke-opacity="1.000" stroke-linecap="round" stroke-linejoin="round" d="M -4177.791 8576.959 Q -4177.429 8576.943 -4175.591 8586.405 Q -4173.752 8595.867 -4172.665 8601.816 Q -4171.579 8607.765 -4169.439 8616.492 Q -4167.300 8625.220 -4165.756 8631.158 Q -4164.212 8637.097 -4163.838 8647.918 Q -4163.951 8647.731 -4164.274 8647.137 Q -4164.597 8646.543 -4164.925 8646.033 "></path>
    <path id="STROKE_fa3cdde4-8855-4f8e-9b8d-d53b91b343b1" opacity="1.000" fill="none" stroke="#000000" stroke-width="0.772" stroke-opacity="1.000" stroke-linecap="round" stroke-linejoin="round" d="M -4165.854 8647.188 Q -4165.974 8647.527 -4157.732 8644.247 Q -4149.492 8640.967 -4143.822 8638.973 Q -4138.152 8636.979 -4129.734 8634.457 Q -4121.317 8631.934 -4111.386 8629.445 Q -4101.455 8626.957 -4096.459 8625.746 Q -4091.464 8624.534 -4087.812 8623.449 Q -4084.161 8622.363 -4078.580 8620.513 Q -4078.764 8620.484 -4079.385 8620.897 Q -4080.007 8621.311 -4080.369 8621.600 "></path>
    <path id="STROKE_47e601f7-91bf-48fb-9a2e-66d3f7374991" opacity="1.000" fill="none" stroke="#000000" stroke-width="0.919" stroke-opacity="1.000" stroke-linecap="round" stroke-linejoin="round" d="M -4160.168 8645.235 Q -4161.867 8645.367 -4161.357 8645.354 Q -4161.450 8644.735 -4171.529 8650.740 Q -4181.608 8656.746 -4191.037 8662.322 Q -4200.465 8667.897 -4219.401 8678.346 Q -4219.274 8679.572 -4219.564 8680.581 Q -4219.854 8681.590 -4220.035 8681.878 "></path>
    <path id="STROKE_374da9cb-1606-41cf-b758-aed870d593f1" opacity="1.000" fill="none" stroke="#000000" stroke-width="0.879" stroke-opacity="1.000" stroke-linecap="round" stroke-linejoin="round" d="M -4161.098 8648.410 Q -4160.590 8648.653 -4154.393 8662.861 Q -4148.196 8677.070 -4143.702 8689.386 Q -4139.208 8701.701 -4137.277 8707.326 Q -4135.346 8712.951 -4134.732 8715.121 Q -4134.120 8717.291 -4133.629 8718.890 Q -4133.139 8720.488 -4132.743 8721.108 Q -4132.348 8721.729 -4132.065 8722.194 Q -4131.783 8722.660 -4131.156 8723.230 Q -4130.530 8723.801 -4130.247 8723.988 "></path>
    <path id="STROKE_2077867b-7dcc-4405-a83c-b12b76936ae0" opacity="1.000" fill="none" stroke="#000000" stroke-width="0.900" stroke-opacity="1.000" stroke-linecap="round" stroke-linejoin="round" d="M -4159.014 8646.611 Q -4159.014 8646.611 -4159.209 8646.659 Q -4159.404 8646.707 -4148.614 8648.221 Q -4137.825 8649.734 -4126.683 8651.295 Q -4115.541 8652.855 -4086.190 8662.080 L -4086.190 8662.113 Q -4086.338 8662.113 -4086.626 8662.113 Q -4086.915 8662.113 -4087.346 8662.113 "></path>
    <path id="STROKE_1d7f3379-69b9-45f0-b215-1a1c8d01d81b" opacity="1.000" fill="none" stroke="#000000" stroke-width="1.285" stroke-opacity="1.000" stroke-linecap="round" stroke-linejoin="round" d="M -4209.026 8627.797 Q -4209.026 8627.797 -4209.021 8627.941 Q -4209.017 8628.085 -4207.476 8627.525 Q -4205.935 8626.965 -4205.493 8626.643 "></path>
    <path id="STROKE_d3093ea7-8022-4019-a001-d9ed2ba63605" opacity="1.000" fill="none" stroke="#000000" stroke-width="1.276" stroke-opacity="1.000" stroke-linecap="round" stroke-linejoin="round" d="M -4197.724 8626.489 Q -4197.810 8626.580 -4199.241 8626.643 Q -4198.832 8626.774 -4197.921 8626.453 Q -4197.010 8626.133 -4196.433 8625.844 "></path>
    <path id="STROKE_098c55ab-d13e-4964-ae4e-e4bf8ca01fe9" opacity="1.000" fill="none" stroke="#000000" stroke-width="1.285" stroke-opacity="1.000" stroke-linecap="round" stroke-linejoin="round" d="M -4188.527 8625.131 Q -4189.145 8626.012 -4191.042 8626.320 Q -4190.542 8626.441 -4190.090 8626.486 Q -4189.638 8626.532 -4189.162 8626.643 "></path>
    <path id="STROKE_1a0cf0b0-9287-46fb-8066-726e7e917d29" opacity="1.000" fill="none" stroke="#000000" stroke-width="1.059" stroke-opacity="1.000" stroke-linecap="round" stroke-linejoin="round" d="M -4175.707 8625.776 Q -4176.398 8625.637 -4180.328 8626.388 L -4180.328 8626.422 Q -4179.544 8626.421 -4179.537 8626.420 Q -4179.529 8626.418 -4178.988 8626.437 Q -4178.448 8626.455 -4177.723 8626.489 "></path>
    <path id="STROKE_fc16cc39-b46b-45c6-9d2d-84686987776d" opacity="1.000" fill="none" stroke="#000000" stroke-width="1.022" stroke-opacity="1.000" stroke-linecap="round" stroke-linejoin="round" d="M -4147.371 8588.064 Q -4147.371 8588.159 -4147.371 8587.486 Q -4147.841 8587.475 -4151.575 8593.721 Q -4155.310 8599.967 -4155.706 8600.544 "></path>
    <path id="STROKE_254d5697-6139-4393-866e-1df3eec37a9b" opacity="1.000" fill="none" stroke="#000000" stroke-width="1.271" stroke-opacity="1.000" stroke-linecap="round" stroke-linejoin="round" d="M -4154.981 8601.546 Q -4154.662 8600.814 -4154.778 8601.037 Q -4154.876 8601.139 -4154.919 8601.136 Q -4154.962 8601.133 -4154.869 8601.040 Q -4154.776 8600.947 -4154.265 8600.584 Q -4153.753 8600.221 -4153.383 8600.048 Q -4153.014 8599.875 -4152.742 8599.768 Q -4152.470 8599.660 -4151.654 8599.252 Q -4150.838 8598.845 -4149.676 8598.086 Q -4148.515 8597.326 -4148.073 8596.928 "></path>
    <path id="STROKE_82c09907-ff8a-4afe-9a75-da192f904486" opacity="1.000" fill="none" stroke="#000000" stroke-width="1.266" stroke-opacity="1.000" stroke-linecap="round" stroke-linejoin="round" d="M -4148.073 8593.396 Q -4147.588 8593.142 -4148.771 8593.871 Q -4149.956 8594.602 -4151.138 8601.117 Q -4152.320 8607.633 -4152.535 8608.100 "></path>
    <path id="STROKE_88059066-56ff-43e7-8704-a35b9b203d86" opacity="1.000" fill="none" stroke="#000000" stroke-width="1.226" stroke-opacity="1.000" stroke-linecap="round" stroke-linejoin="round" d="M -4152.897 8606.810 Q -4152.749 8606.848 -4153.026 8606.043 Q -4153.303 8605.239 -4152.113 8604.176 Q -4150.922 8603.113 -4149.021 8602.521 Q -4147.120 8601.930 -4145.524 8601.902 Q -4145.315 8601.690 -4145.472 8602.943 Q -4145.629 8604.197 -4146.563 8605.195 Q -4147.497 8606.193 -4148.539 8607.081 Q -4149.581 8607.969 -4151.108 8608.542 Q -4150.839 8608.793 -4148.380 8607.041 Q -4145.921 8605.290 -4145.423 8604.857 "></path>
    <path id="STROKE_8401e3a4-bb0f-4c74-9465-d258f76308e4" opacity="1.000" fill="none" stroke="#000000" stroke-width="1.262" stroke-opacity="1.000" stroke-linecap="round" stroke-linejoin="round" d="M -4140.734 8598.082 Q -4140.505 8597.489 -4140.755 8597.594 Q -4141.004 8597.699 -4139.355 8596.663 Q -4137.708 8595.627 -4136.539 8595.295 Q -4135.371 8594.963 -4134.411 8594.697 Q -4133.452 8594.432 -4132.620 8594.096 Q -4131.787 8593.761 -4131.470 8593.549 "></path>
    <path id="STROKE_2cc8437d-155a-4b6d-b1f5-dc60b93feebe" opacity="1.000" fill="none" stroke="#000000" stroke-width="1.183" stroke-opacity="1.000" stroke-linecap="round" stroke-linejoin="round" d="M -4138.152 8591.239 Q -4138.613 8591.254 -4139.456 8593.731 Q -4140.299 8596.209 -4140.448 8597.788 Q -4140.598 8599.367 -4140.580 8600.600 Q -4140.562 8601.832 -4140.674 8602.456 Q -4140.786 8603.080 -4140.386 8604.096 Q -4139.986 8605.111 -4139.737 8605.367 "></path>
    <path id="STROKE_3d50fd53-969f-4e11-a83c-31cf092c3366" opacity="1.000" fill="none" stroke="#000000" stroke-width="1.163" stroke-opacity="1.000" stroke-linecap="round" stroke-linejoin="round" d="M -4133.259 8590.883 Q -4133.259 8590.840 -4133.259 8590.798 L -4133.293 8590.798 Q -4133.477 8590.799 -4133.498 8598.932 Q -4133.520 8607.064 -4133.486 8607.607 "></path>
    <path id="STROKE_6bdca1e2-959d-4e80-9a75-33991bd7a760" opacity="1.000" fill="none" stroke="#000000" stroke-width="1.173" stroke-opacity="1.000" stroke-linecap="round" stroke-linejoin="round" d="M -4137.653 8604.365 Q -4138.290 8603.670 -4138.307 8603.475 Q -4138.324 8603.278 -4138.095 8603.014 Q -4137.866 8602.748 -4137.444 8602.288 Q -4137.022 8601.828 -4136.338 8601.578 Q -4135.655 8601.329 -4135.398 8601.068 Q -4135.142 8600.809 -4132.682 8600.544 Q -4130.415 8601.671 -4138.809 8608.320 Q -4138.859 8608.457 -4134.065 8606.572 Q -4129.272 8604.688 -4128.661 8604.433 "></path>
    <path id="STROKE_84de7637-3740-4da0-b234-355f3ac0530f" opacity="1.000" fill="none" stroke="#000000" stroke-width="1.272" stroke-opacity="1.000" stroke-linecap="round" stroke-linejoin="round" d="M -4114.481 8632.704 Q -4114.381 8632.625 -4114.557 8632.682 Q -4114.733 8632.737 -4114.041 8631.449 Q -4113.348 8630.162 -4109.521 8629.354 Q -4105.693 8628.544 -4105.331 8628.510 "></path>
    <path id="STROKE_f8264f6c-0851-482e-972b-bb927b32c82e" opacity="1.000" fill="none" stroke="#000000" stroke-width="1.196" stroke-opacity="1.000" stroke-linecap="round" stroke-linejoin="round" d="M -4113.621 8635.574 Q -4114.022 8636.026 -4114.336 8636.879 Q -4114.650 8637.732 -4114.634 8637.963 Q -4114.618 8638.193 -4114.996 8639.449 Q -4115.375 8640.704 -4114.984 8645.045 Q -4114.595 8649.387 -4114.414 8649.718 "></path>
    <path id="STROKE_d859769b-1c59-4dc7-98a1-9a6f3bd909bd" opacity="1.000" fill="none" stroke="#000000" stroke-width="1.242" stroke-opacity="1.000" stroke-linecap="round" stroke-linejoin="round" d="M -4114.550 8644.454 Q -4114.529 8643.082 -4114.590 8643.335 Q -4114.651 8643.588 -4114.561 8643.278 Q -4114.470 8642.969 -4114.293 8642.366 Q -4114.116 8641.764 -4113.461 8641.146 Q -4112.805 8640.530 -4111.291 8639.721 Q -4109.776 8638.911 -4108.055 8639.011 Q -4106.333 8639.110 -4105.325 8639.193 Q -4104.318 8639.277 -4103.473 8640.605 Q -4102.627 8641.935 -4102.773 8643.559 Q -4102.919 8645.183 -4103.513 8646.086 Q -4104.107 8646.990 -4104.668 8647.306 Q -4105.229 8647.621 -4105.557 8647.766 "></path>
    <path id="STROKE_9f261647-2407-4bf1-b647-9a6c5b5b02c4" opacity="1.000" fill="none" stroke="#000000" stroke-width="1.285" stroke-opacity="1.000" stroke-linecap="round" stroke-linejoin="round" d="M -4114.550 8637.018 Q -4114.423 8637.352 -4114.854 8636.420 Q -4115.286 8635.488 -4112.041 8634.168 Q -4108.796 8632.849 -4108.502 8632.704 "></path>
    <path id="STROKE_53d76000-6537-4bf1-ba87-9ef564932ec8" opacity="1.000" fill="none" stroke="#000000" stroke-width="0.998" stroke-opacity="1.000" stroke-linecap="round" stroke-linejoin="round" d="M -4108.502 8633.485 Q -4110.014 8633.928 -4111.809 8646.391 Q -4111.308 8646.421 -4110.896 8645.883 Q -4110.484 8645.346 -4110.155 8644.879 "></path>
    <path id="STROKE_4e6c0469-354e-4b60-8f39-5362bacdeb09" opacity="1.000" fill="none" stroke="#000000" stroke-width="1.285" stroke-opacity="1.000" stroke-linecap="round" stroke-linejoin="round" d="M -4107.777 8637.968 Q -4107.777 8637.892 -4107.822 8637.680 Q -4107.747 8636.699 -4108.354 8638.672 Q -4108.961 8640.645 -4108.929 8641.764 Q -4108.896 8642.883 -4108.824 8643.810 Q -4108.751 8644.736 -4108.687 8644.646 Q -4108.623 8644.557 -4108.525 8644.738 Q -4108.428 8644.920 -4107.758 8645.084 Q -4107.088 8645.247 -4106.289 8644.902 Q -4105.489 8644.557 -4105.195 8644.233 "></path>
    <path id="STROKE_2d9e552e-54f1-4dfc-be61-9855b49f485d" opacity="1.000" fill="none" stroke="#000000" stroke-width="1.109" stroke-opacity="1.000" stroke-linecap="round" stroke-linejoin="round" d="M -4107.347 8645.523 Q -4107.239 8646.075 -4112.239 8648.275 Q -4111.605 8648.029 -4108.942 8647.366 Q -4106.279 8646.703 -4104.910 8645.230 Q -4103.541 8643.758 -4102.975 8643.146 "></path>
    <path id="STROKE_95fd2f0e-1650-417d-9696-a1503a19764b" opacity="1.000" fill="none" stroke="#000000" stroke-width="1.178" stroke-opacity="1.000" stroke-linecap="round" stroke-linejoin="round" d="M -4100.234 8632.127 Q -4100.224 8632.059 -4101.145 8632.589 Q -4102.065 8633.119 -4102.347 8633.822 Q -4102.627 8634.525 -4102.681 8634.900 Q -4102.734 8635.275 -4102.749 8635.918 Q -4102.763 8636.562 -4102.764 8636.824 Q -4102.764 8637.088 -4102.705 8637.127 Q -4102.646 8637.166 -4102.655 8637.102 Q -4102.664 8637.037 -4102.346 8637.709 Q -4102.027 8638.381 -4098.581 8633.842 Q -4098.771 8635.244 -4098.864 8635.039 Q -4099.499 8636.533 -4102.681 8640.634 Q -4103.723 8640.928 -4096.168 8638.816 Q -4095.964 8638.633 -4096.314 8639.781 Q -4096.665 8640.930 -4104.470 8646.543 Q -4104.373 8644.907 -4096.633 8642.213 Q -4095.896 8642.609 -4096.339 8644.994 Q -4096.782 8647.379 -4097.937 8648.885 Q -4099.090 8650.392 -4099.774 8651.002 Q -4100.459 8651.611 -4100.882 8651.719 Q -4101.306 8651.827 -4101.948 8651.408 Q -4102.591 8650.988 -4102.500 8650.978 Q -4102.409 8650.967 -4102.509 8650.858 Q -4102.609 8650.750 -4102.681 8649.209 Q -4103.910 8649.108 -4097.610 8650.292 Q -4091.310 8651.476 -4090.743 8651.586 "></path>
    <path id="STROKE_29ac15a8-c00c-403f-a586-7803c4baa2de" opacity="1.000" fill="none" stroke="#000000" stroke-width="1.285" stroke-opacity="1.000" stroke-linecap="round" stroke-linejoin="round" d="M -4221.925 8685.367 L -4221.925 8685.316 Q -4221.900 8685.305 -4221.976 8685.796 Q -4221.867 8685.896 -4221.370 8685.545 Q -4220.873 8685.192 -4220.312 8684.623 Q -4219.752 8684.054 -4219.618 8683.864 "></path>
    <path id="STROKE_714138fe-35ab-4bc3-9a6f-7151a7d3d879" opacity="1.000" fill="none" stroke="#000000" stroke-width="1.115" stroke-opacity="1.000" stroke-linecap="round" stroke-linejoin="round" d="M -4219.197 8682.689 Q -4219.163 8682.689 -4219.129 8682.689 Q -4219.616 8682.045 -4219.567 8682.153 Q -4219.830 8681.496 -4219.843 8681.396 Q -4219.855 8681.298 -4219.827 8681.279 Q -4219.798 8681.260 -4219.926 8681.364 Q -4220.054 8681.469 -4219.217 8680.266 Q -4218.379 8679.062 -4215.563 8676.678 Q -4212.747 8674.295 -4212.292 8673.840 "></path>
    <path id="STROKE_0bae4453-fe7b-4c28-a3a3-58ea74d1e698" opacity="1.000" fill="none" stroke="#000000" stroke-width="1.285" stroke-opacity="1.000" stroke-linecap="round" stroke-linejoin="round" d="M -4192.604 8682.576 Q -4193.093 8681.474 -4191.772 8680.197 Q -4190.453 8678.921 -4188.704 8677.912 Q -4186.955 8676.904 -4185.695 8677.007 Q -4184.436 8677.109 -4184.250 8677.273 "></path>
    <path id="STROKE_ac3f4213-d13d-4f51-b8fe-b353c68de9a7" opacity="1.000" fill="none" stroke="#000000" stroke-width="1.285" stroke-opacity="1.000" stroke-linecap="round" stroke-linejoin="round" d="M -4188.966 8674.534 Q -4188.991 8674.534 -4189.235 8674.270 Q -4188.986 8674.270 -4187.502 8674.244 Q -4186.019 8674.219 -4185.800 8674.219 "></path>
    <path id="STROKE_e05b0988-a20c-4967-9aad-95fa8dae0fd9" opacity="1.000" fill="none" stroke="#000000" stroke-width="1.143" stroke-opacity="1.000" stroke-linecap="round" stroke-linejoin="round" d="M -4191.745 8681.238 Q -4191.793 8681.507 -4192.486 8680.758 Q -4192.094 8680.098 -4186.583 8679.369 Q -4186.084 8679.655 -4187.917 8680.830 Q -4189.751 8682.004 -4190.810 8685.846 Q -4189.435 8686.322 -4182.600 8679.307 Q -4182.562 8679.436 -4183.086 8680.214 Q -4183.609 8680.992 -4186.219 8684.353 Q -4188.828 8687.713 -4193.614 8690.896 Q -4193.978 8690.527 -4190.759 8688.601 Q -4187.541 8686.674 -4185.832 8685.285 Q -4184.124 8683.896 -4184.048 8683.649 "></path>
    <path id="STROKE_5c8acd47-6b83-4785-8a20-1a242e4370f1" opacity="1.000" fill="none" stroke="#000000" stroke-width="1.029" stroke-opacity="1.000" stroke-linecap="round" stroke-linejoin="round" d="M -4185.698 8681.883 Q -4186.681 8681.883 -4186.499 8681.883 Q -4187.892 8682.381 -4186.827 8695.239 Q -4186.802 8695.133 -4186.734 8694.688 Q -4186.667 8694.242 -4186.558 8693.838 "></path>
    <path id="STROKE_58f14467-28b5-448f-8b32-680ebb98ab9a" opacity="1.000" fill="none" stroke="#000000" stroke-width="1.285" stroke-opacity="1.000" stroke-linecap="round" stroke-linejoin="round" d="M -4180.411 8678.448 Q -4180.275 8678.111 -4180.216 8677.563 Q -4180.157 8677.016 -4179.864 8676.742 Q -4179.571 8676.469 -4177.671 8676.578 Q -4175.771 8676.688 -4175.526 8676.845 "></path>
    <path id="STROKE_55915c1c-ef58-4f68-9fd2-61a18634ead8" opacity="1.000" fill="none" stroke="#000000" stroke-width="1.238" stroke-opacity="1.000" stroke-linecap="round" stroke-linejoin="round" d="M -4179.063 8680.544 Q -4179.552 8681.204 -4179.518 8681.105 Q -4179.627 8681.238 -4179.753 8681.352 Q -4178.970 8681.027 -4178.255 8680.372 Q -4177.540 8679.717 -4175.593 8678.233 Q -4175.169 8679.098 -4178.987 8685.846 L -4179.012 8685.846 Q -4179.974 8685.960 -4176.230 8683.545 Q -4172.486 8681.131 -4172.377 8681.074 "></path>
    <path id="STROKE_d3768bda-0489-450d-b532-d82717de5741" opacity="1.000" fill="none" stroke="#000000" stroke-width="1.069" stroke-opacity="1.000" stroke-linecap="round" stroke-linejoin="round" d="M -4178.204 8673.246 Q -4178.398 8673.007 -4179.383 8671.757 Q -4179.592 8672.113 -4178.235 8677.851 Q -4176.878 8683.588 -4176.233 8692.815 Q -4176.289 8693.379 -4177.631 8692.062 Q -4178.972 8690.744 -4179.500 8689.745 Q -4180.027 8688.746 -4180.008 8688.478 Q -4179.988 8688.209 -4179.549 8687.597 Q -4179.110 8686.984 -4177.937 8686.191 Q -4176.763 8685.398 -4175.018 8684.688 Q -4173.272 8683.976 -4171.367 8683.680 Q -4169.462 8683.384 -4167.949 8683.562 Q -4166.437 8683.740 -4165.634 8684.298 Q -4164.832 8684.855 -4164.562 8685.152 "></path>
    <path id="STROKE_5a39f32b-e759-4f57-b9a2-0b89dd051004" opacity="1.000" fill="none" stroke="#000000" stroke-width="1.212" stroke-opacity="1.000" stroke-linecap="round" stroke-linejoin="round" d="M -4126.128 8673.092 Q -4126.177 8672.846 -4126.154 8672.768 Q -4125.569 8673.311 -4121.450 8671.280 Q -4117.331 8669.250 -4117.193 8669.082 "></path>
    <path id="STROKE_47635401-5947-42cc-a333-f7e436e0d697" opacity="1.000" fill="none" stroke="#000000" stroke-width="1.199" stroke-opacity="1.000" stroke-linecap="round" stroke-linejoin="round" d="M -4121.626 8667.053 Q -4122.359 8667.350 -4123.367 8670.148 Q -4124.374 8672.948 -4122.998 8676.414 Q -4121.789 8676.282 -4121.966 8676.328 Q -4122.144 8676.375 -4121.531 8675.079 Q -4120.919 8673.783 -4120.695 8673.260 "></path>
    <path id="STROKE_7d3b6483-ddb9-4414-a034-ba7da3f7fb47" opacity="1.000" fill="none" stroke="#000000" stroke-width="1.278" stroke-opacity="1.000" stroke-linecap="round" stroke-linejoin="round" d="M -4119.608 8668.488 Q -4119.608 8668.488 -4119.617 8668.762 Q -4119.625 8669.035 -4120.000 8672.411 Q -4120.375 8675.787 -4120.591 8676.285 "></path>
    <path id="STROKE_cfffd274-0b14-4715-b867-90fb099265da" opacity="1.000" fill="none" stroke="#000000" stroke-width="1.061" stroke-opacity="1.000" stroke-linecap="round" stroke-linejoin="round" d="M -4128.043 8683.694 Q -4128.108 8683.755 -4128.511 8683.290 Q -4128.914 8682.825 -4128.896 8682.627 Q -4128.878 8682.428 -4128.842 8682.163 Q -4128.805 8681.898 -4128.534 8681.746 Q -4128.263 8681.593 -4127.643 8680.924 Q -4127.023 8680.256 -4120.780 8678.652 Q -4114.537 8677.048 -4114.398 8676.880 "></path>
    <path id="STROKE_598b1923-b4c0-4376-9e81-44c37b1d2a6e" opacity="1.000" fill="none" stroke="#000000" stroke-width="1.203" stroke-opacity="1.000" stroke-linecap="round" stroke-linejoin="round" d="M -4117.849 8672.108 Q -4117.967 8672.330 -4117.952 8672.107 Q -4117.937 8671.884 -4119.167 8672.518 Q -4120.396 8673.150 -4120.614 8679.547 Q -4120.833 8685.944 -4120.971 8686.216 "></path>
    <path id="STROKE_b79c9aa1-c1b3-4af1-88b5-d7e15a2f54f5" opacity="1.000" fill="none" stroke="#000000" stroke-width="1.246" stroke-opacity="1.000" stroke-linecap="round" stroke-linejoin="round" d="M -4121.247 8684.134 Q -4121.247 8684.134 -4121.477 8684.252 Q -4121.707 8684.371 -4121.324 8689.682 Q -4121.363 8689.395 -4120.541 8687.113 Q -4119.719 8684.831 -4119.158 8684.108 Q -4118.598 8683.386 -4118.010 8682.434 Q -4117.422 8681.482 -4114.648 8681.521 Q -4114.460 8682.194 -4114.404 8683.775 Q -4114.349 8685.356 -4115.337 8687.195 Q -4116.325 8689.033 -4119.332 8690.004 Q -4119.549 8689.379 -4114.697 8687.662 Q -4109.845 8685.944 -4109.517 8685.725 "></path>
    <path id="STROKE_31ad6bc6-bbe2-4867-b03a-99ec45da0540" opacity="1.000" fill="none" stroke="#000000" stroke-width="1.063" stroke-opacity="1.000" stroke-linecap="round" stroke-linejoin="round" d="M -4120.540 8672.432 Q -4120.753 8672.490 -4121.695 8672.496 Q -4121.707 8672.595 -4118.764 8670.848 Q -4115.820 8669.100 -4112.234 8668.268 Q -4112.208 8668.320 -4112.208 8668.371 "></path>
    <path id="STROKE_726c3815-c22e-4ef4-b567-8f0e78de249b" opacity="1.000" fill="none" stroke="#000000" stroke-width="1.285" stroke-opacity="1.000" stroke-linecap="round" stroke-linejoin="round" d="M -4115.606 8667.828 Q -4115.606 8667.796 -4115.882 8667.608 Q -4115.882 8668.361 -4115.964 8671.246 Q -4116.046 8674.132 -4116.210 8674.462 "></path>
    <path id="STROKE_5825697f-640b-4c43-90cf-5a4b686ac6c9" opacity="1.000" fill="none" stroke="#000000" stroke-width="1.239" stroke-opacity="1.000" stroke-linecap="round" stroke-linejoin="round" d="M -4118.401 8678.096 Q -4118.427 8678.096 -4118.556 8678.062 Q -4118.556 8678.005 -4118.556 8677.979 Q -4118.465 8678.874 -4113.090 8676.713 Q -4107.714 8674.553 -4107.326 8674.358 "></path>
  </g>
</svg>