<?xml version="1.0" encoding="UTF-8" standalone="yes"?>
<svg xmlns="http://www.w3.org/2000/svg" xmlns:xlink="http://www.w3.org/1999/xlink" width="34.505mm" height="29.171mm" version="1.1" viewBox="-4343.584 8346.440 179.315 151.595">
  <!--
	Exported with Concepts: Smarter Sketching
	Version: 1059 on iOS 15.6
	https://concepts.app/
	-->
  <title>类型、逻辑、运算、信息</title>
  <desc>Drawing exported from Concepts: Smarter Sketching</desc>
  <defs></defs>
  <g id="标题引导" opacity="1.000">
    <path id="STROKE_c196bb9e-98b9-4ec0-a44e-79ade96b7436" opacity="1.000" fill="none" stroke="#000000" stroke-width="0.716" stroke-opacity="1.000" stroke-linecap="round" stroke-linejoin="round" d="M -4313.250 8367.198 Q -4313.894 8367.000 -4318.874 8368.218 Q -4323.854 8369.436 -4327.522 8372.602 Q -4331.190 8375.768 -4333.556 8379.082 Q -4335.922 8382.397 -4336.989 8397.455 Q -4338.057 8412.514 -4338.101 8421.793 Q -4338.145 8431.072 -4338.334 8436.725 Q -4338.523 8442.377 -4337.785 8447.619 Q -4337.046 8452.862 -4334.038 8458.073 Q -4331.031 8463.284 -4325.522 8469.438 Q -4320.014 8475.591 -4313.797 8480.289 Q -4307.579 8484.986 -4301.830 8488.062 Q -4296.080 8491.139 -4289.696 8492.660 Q -4283.313 8494.182 -4278.991 8494.753 Q -4274.670 8495.324 -4265.409 8495.597 Q -4256.147 8495.869 -4245.445 8493.404 Q -4234.742 8490.939 -4228.792 8488.770 Q -4222.841 8486.599 -4219.940 8485.326 Q -4217.040 8484.054 -4215.428 8483.278 Q -4213.815 8482.503 -4212.712 8481.979 Q -4211.609 8481.454 -4210.457 8480.689 Q -4209.304 8479.926 -4208.051 8479.293 Q -4206.799 8478.661 -4200.984 8474.350 Q -4195.170 8470.037 -4187.968 8462.073 Q -4180.765 8454.109 -4176.502 8447.880 Q -4172.240 8441.650 -4169.958 8436.357 Q -4167.675 8431.063 -4166.880 8422.900 Q -4166.086 8414.738 -4168.484 8405.113 Q -4170.882 8395.487 -4173.707 8389.203 Q -4176.532 8382.918 -4179.455 8378.211 Q -4182.377 8373.503 -4189.531 8368.682 Q -4196.685 8363.861 -4205.298 8359.311 Q -4213.912 8354.759 -4224.312 8352.450 Q -4234.713 8350.142 -4240.857 8349.648 Q -4247.001 8349.156 -4251.517 8349.282 Q -4256.031 8349.408 -4260.573 8348.979 Q -4265.115 8348.550 -4272.870 8350.445 Q -4280.624 8352.342 -4286.452 8354.920 Q -4292.281 8357.498 -4296.495 8359.750 Q -4300.709 8362.003 -4304.903 8364.881 Q -4309.098 8367.760 -4313.501 8371.994 Q -4317.904 8376.229 -4321.238 8380.272 Q -4324.573 8384.316 -4327.080 8387.162 Q -4329.587 8390.008 -4334.985 8399.097 Q -4340.383 8408.186 -4341.246 8409.494 "></path>
    <path id="STROKE_68ec3c4b-cc06-4a27-8fa2-0b360ed5312e" opacity="1.000" fill="none" stroke="#000000" stroke-width="0.807" stroke-opacity="1.000" stroke-linecap="round" stroke-linejoin="round" d="M -4321.188 8379.288 Q -4321.886 8378.869 -4321.846 8378.784 Q -4321.944 8378.700 -4322.084 8378.658 Q -4322.502 8378.393 -4314.563 8382.398 Q -4306.625 8386.405 -4295.042 8390.007 Q -4283.459 8393.608 -4277.067 8395.875 "></path>
    <path id="STROKE_e55307b5-cc55-406d-b5bd-52bab18ffb8a" opacity="1.000" fill="none" stroke="#000000" stroke-width="0.880" stroke-opacity="1.000" stroke-linecap="round" stroke-linejoin="round" d="M -4241.748 8385.321 Q -4238.148 8374.685 -4236.921 8371.401 Q -4235.694 8368.118 -4234.917 8364.605 Q -4234.141 8361.094 -4234.394 8357.355 Q -4234.478 8357.848 -4234.562 8358.342 "></path>
    <path id="STROKE_6b413e9c-c3fa-4923-86b2-51423aa44c9d" opacity="1.000" fill="none" stroke="#000000" stroke-width="0.861" stroke-opacity="1.000" stroke-linecap="round" stroke-linejoin="round" d="M -4239.459 8439.197 Q -4239.205 8440.108 -4237.431 8445.739 Q -4235.657 8451.370 -4233.806 8456.947 Q -4231.954 8462.525 -4225.938 8488.197 Q -4225.900 8487.824 -4226.031 8486.248 Q -4226.162 8484.671 -4226.386 8483.559 "></path>
    <path id="STROKE_e2211157-ee8f-41f6-87ca-45e4dbe3fef9" opacity="1.000" fill="none" stroke="#000000" stroke-width="0.828" stroke-opacity="1.000" stroke-linecap="round" stroke-linejoin="round" d="M -4238.298 8428.140 Q -4216.667 8420.357 -4206.152 8417.400 Q -4195.636 8414.444 -4190.623 8413.406 Q -4185.610 8412.367 -4182.476 8411.780 Q -4179.341 8411.193 -4177.062 8410.716 Q -4174.783 8410.238 -4173.874 8409.686 Q -4172.965 8409.133 -4172.825 8408.860 "></path>
    <path id="STROKE_90652b9d-aaa4-4142-88fe-d471ef96bdcc" opacity="1.000" fill="none" stroke="#000000" stroke-width="0.873" stroke-opacity="1.000" stroke-linecap="round" stroke-linejoin="round" d="M -4282.410 8399.332 Q -4282.410 8399.332 -4283.326 8400.522 Q -4284.242 8401.713 -4284.246 8401.781 Q -4284.251 8401.851 -4285.399 8404.793 Q -4286.548 8407.736 -4287.567 8410.439 Q -4288.587 8413.144 -4290.076 8417.301 Q -4291.565 8421.459 -4292.921 8426.607 Q -4294.277 8431.756 -4296.438 8443.793 Q -4298.601 8455.831 -4299.291 8463.727 Q -4299.982 8471.621 -4300.005 8475.322 Q -4300.028 8479.023 -4299.754 8482.690 Q -4299.480 8486.357 -4299.405 8489.624 Q -4299.363 8489.624 -4299.321 8489.624 Q -4299.321 8489.488 -4299.223 8488.686 Q -4299.125 8487.882 -4299.041 8487.211 "></path>
    <path id="STROKE_4f3711b9-8964-41d5-9c68-80547753842e" opacity="1.000" fill="none" stroke="#000000" stroke-width="1.260" stroke-opacity="1.000" stroke-linecap="round" stroke-linejoin="round" d="M -4219.354 8438.881 Q -4219.399 8438.881 -4219.685 8438.746 Q -4219.547 8438.510 -4214.446 8436.547 Q -4209.345 8434.583 -4209.149 8434.392 "></path>
    <path id="STROKE_61e97dbd-2dd8-4977-9ec8-c65d24a62881" opacity="1.000" fill="none" stroke="#000000" stroke-width="1.220" stroke-opacity="1.000" stroke-linecap="round" stroke-linejoin="round" d="M -4214.117 8432.007 Q -4214.457 8432.184 -4215.231 8434.229 Q -4216.006 8436.275 -4216.057 8437.329 Q -4216.107 8438.383 -4216.195 8439.212 Q -4216.283 8440.041 -4216.080 8440.319 Q -4215.877 8440.598 -4215.495 8440.673 Q -4215.113 8440.748 -4214.660 8440.450 Q -4214.207 8440.152 -4213.967 8439.837 "></path>
    <path id="STROKE_4cb36725-3ac9-4289-b4b3-e9842e574ddd" opacity="1.000" fill="none" stroke="#000000" stroke-width="1.075" stroke-opacity="1.000" stroke-linecap="round" stroke-linejoin="round" d="M -4211.446 8434.685 Q -4211.303 8434.297 -4211.146 8434.200 Q -4210.990 8434.104 -4211.281 8436.891 Q -4211.573 8439.677 -4212.293 8441.467 Q -4213.014 8443.258 -4213.247 8443.707 "></path>
    <path id="STROKE_37d47e6b-8b7f-4c8b-b83b-6cbaca307402" opacity="1.000" fill="none" stroke="#000000" stroke-width="1.104" stroke-opacity="1.000" stroke-linecap="round" stroke-linejoin="round" d="M -4216.308 8444.337 Q -4217.196 8444.416 -4217.021 8444.404 Q -4217.186 8444.428 -4217.539 8444.428 Q -4216.612 8443.988 -4215.505 8443.109 Q -4214.399 8442.231 -4209.795 8440.410 Q -4209.765 8440.461 -4209.765 8440.512 "></path>
    <path id="STROKE_7cfaeb66-83e9-464c-ac89-58e3f21a8a35" opacity="1.000" fill="none" stroke="#000000" stroke-width="1.259" stroke-opacity="1.000" stroke-linecap="round" stroke-linejoin="round" d="M -4214.732 8445.574 Q -4214.753 8445.705 -4215.452 8447.471 Q -4216.152 8449.236 -4216.684 8451.357 Q -4216.622 8451.201 -4215.717 8449.451 Q -4214.812 8447.702 -4213.436 8446.619 Q -4212.060 8445.535 -4211.096 8444.954 Q -4210.132 8444.373 -4208.174 8444.742 Q -4207.259 8445.932 -4208.291 8448.094 Q -4209.322 8450.255 -4209.630 8450.683 "></path>
    <path id="STROKE_6d6c32ac-f5af-43a0-8414-7b6ebf85d59f" opacity="1.000" fill="none" stroke="#000000" stroke-width="1.285" stroke-opacity="1.000" stroke-linecap="round" stroke-linejoin="round" d="M -4212.541 8447.960 Q -4212.475 8447.580 -4212.917 8444.428 Q -4212.812 8444.269 -4212.293 8444.328 Q -4211.775 8444.389 -4211.486 8445.646 Q -4211.197 8446.903 -4213.396 8449.682 Q -4213.635 8449.873 -4212.601 8449.232 Q -4211.565 8448.592 -4209.960 8447.150 Q -4209.941 8446.809 -4211.307 8448.871 Q -4212.672 8450.935 -4213.797 8452.129 Q -4214.922 8453.324 -4215.798 8453.823 Q -4216.673 8454.322 -4216.684 8456.318 Q -4216.387 8456.363 -4215.837 8455.574 Q -4215.288 8454.785 -4214.644 8454.205 Q -4213.999 8453.626 -4213.439 8453.248 Q -4212.879 8452.869 -4211.809 8452.778 Q -4210.738 8452.688 -4209.946 8452.932 Q -4209.153 8453.176 -4208.144 8454.316 Q -4207.135 8455.457 -4206.193 8457.422 Q -4206.170 8457.422 -4206.148 8457.422 "></path>
    <path id="STROKE_c39d4f73-deee-4fa6-bfa7-663758fa8f1e" opacity="1.000" fill="none" stroke="#000000" stroke-width="1.285" stroke-opacity="1.000" stroke-linecap="round" stroke-linejoin="round" d="M -4237.880 8431.085 L -4237.687 8431.096 Q -4237.664 8430.955 -4237.664 8430.814 "></path>
    <path id="STROKE_223b00f8-5117-43ff-8315-8a3e526a883c" opacity="1.000" fill="none" stroke="#000000" stroke-width="1.139" stroke-opacity="1.000" stroke-linecap="round" stroke-linejoin="round" d="M -4278.951 8398.132 Q -4278.869 8398.133 -4279.580 8397.919 Q -4280.292 8397.705 -4280.765 8398.037 Q -4281.237 8398.369 -4282.444 8401.029 Q -4283.650 8403.689 -4284.904 8408.875 "></path>
    <path id="STROKE_3af4ce79-ca50-452b-892f-13578040ed7d" opacity="1.000" fill="none" stroke="#000000" stroke-width="1.157" stroke-opacity="1.000" stroke-linecap="round" stroke-linejoin="round" d="M -4278.906 8396.320 Q -4279.539 8396.130 -4279.326 8396.152 Q -4279.426 8395.303 -4275.974 8394.281 Q -4272.522 8393.261 -4268.889 8391.670 Q -4265.255 8390.078 -4260.771 8388.550 Q -4256.286 8387.021 -4252.999 8386.390 Q -4249.712 8385.758 -4248.064 8385.347 Q -4246.417 8384.936 -4246.272 8384.952 Q -4246.127 8384.969 -4245.352 8384.368 Q -4244.576 8383.768 -4244.067 8383.428 Q -4243.559 8383.088 -4243.174 8382.948 Q -4242.790 8382.809 -4242.818 8382.806 Q -4242.848 8382.803 -4242.663 8382.789 Q -4242.479 8382.775 -4238.955 8381.076 Q -4238.766 8380.922 -4240.711 8381.459 Q -4241.068 8381.541 -4241.055 8382.324 Q -4241.042 8383.107 -4240.882 8383.661 Q -4240.721 8384.215 -4240.394 8384.503 Q -4240.067 8384.791 -4240.018 8384.842 Q -4239.968 8384.892 -4239.741 8385.113 Q -4239.515 8385.335 -4239.520 8385.328 Q -4239.524 8385.322 -4239.088 8385.703 Q -4238.652 8386.083 -4237.978 8386.699 Q -4237.303 8387.316 -4236.356 8388.414 Q -4235.410 8389.511 -4234.912 8390.232 Q -4234.414 8390.953 -4233.143 8392.702 Q -4231.872 8394.451 -4228.774 8397.123 Q -4225.678 8399.795 -4224.035 8400.854 Q -4222.393 8401.912 -4220.361 8404.433 Q -4218.329 8406.953 -4217.022 8408.830 Q -4215.715 8410.708 -4215.053 8411.801 Q -4214.391 8412.893 -4213.066 8417.336 Q -4213.254 8417.389 -4213.490 8417.438 Q -4213.727 8417.488 -4214.012 8417.584 "></path>
    <path id="STROKE_60eb8c89-3b8e-4428-a7cb-b384aeefcca2" opacity="1.000" fill="none" stroke="#000000" stroke-width="1.135" stroke-opacity="1.000" stroke-linecap="round" stroke-linejoin="round" d="M -4244.868 8433.008 Q -4245.020 8431.974 -4244.958 8432.339 Q -4244.372 8431.787 -4244.380 8431.889 Q -4244.749 8432.160 -4241.687 8430.264 Q -4238.625 8428.367 -4236.546 8428.098 Q -4234.468 8427.827 -4234.377 8427.945 "></path>
    <path id="STROKE_87b25c21-a7ca-4eb1-be00-144abeb2e42e" opacity="1.000" fill="none" stroke="#000000" stroke-width="1.022" stroke-opacity="1.000" stroke-linecap="round" stroke-linejoin="round" d="M -4242.662 8430.770 Q -4242.692 8430.770 -4242.722 8430.770 Q -4242.585 8430.592 -4240.936 8433.448 Q -4239.286 8436.305 -4237.736 8440.281 Q -4236.186 8444.258 -4236.133 8444.428 "></path>
    <path id="STROKE_990a794a-0427-4b86-94d0-03fb127853ee" opacity="1.000" fill="none" stroke="#000000" stroke-width="1.271" stroke-opacity="1.000" stroke-linecap="round" stroke-linejoin="round" d="M -4242.572 8432.152 Q -4242.942 8432.188 -4242.857 8432.175 Q -4242.773 8432.162 -4242.913 8432.187 Q -4243.053 8432.211 -4243.600 8432.921 Q -4244.146 8433.631 -4244.559 8434.190 Q -4244.971 8434.750 -4245.088 8435.108 Q -4245.206 8435.467 -4247.086 8436.849 Q -4248.966 8438.230 -4250.196 8438.966 Q -4251.427 8439.701 -4252.099 8440.137 Q -4252.771 8440.572 -4253.440 8441.055 Q -4254.110 8441.537 -4256.331 8443.317 Q -4258.553 8445.098 -4260.223 8446.171 Q -4261.894 8447.244 -4262.936 8447.647 Q -4263.978 8448.051 -4266.272 8448.428 Q -4268.568 8448.805 -4270.057 8448.713 Q -4271.546 8448.620 -4272.462 8448.506 Q -4273.379 8448.393 -4276.666 8447.373 Q -4279.954 8446.354 -4282.859 8444.897 Q -4285.765 8443.441 -4287.702 8442.361 Q -4289.638 8441.280 -4290.689 8440.818 Q -4291.740 8440.357 -4291.988 8440.274 Q -4292.237 8440.191 -4292.729 8439.909 Q -4293.221 8439.627 -4293.376 8439.530 Q -4293.531 8439.434 -4293.781 8439.286 Q -4294.032 8439.139 -4294.038 8439.158 Q -4294.045 8439.179 -4294.444 8438.760 Q -4294.844 8438.341 -4294.964 8438.172 "></path>
    <path id="STROKE_79ad179c-d2a2-4e2b-9f08-6ce2596e40a3" opacity="1.000" fill="none" stroke="#000000" stroke-width="1.179" stroke-opacity="1.000" stroke-linecap="round" stroke-linejoin="round" d="M -4278.561 8396.658 Q -4278.561 8396.658 -4278.270 8396.451 Q -4277.979 8396.244 -4278.140 8396.410 Q -4277.008 8396.410 -4277.322 8396.410 Q -4277.211 8396.406 -4274.115 8397.604 Q -4271.020 8398.801 -4268.209 8401.115 Q -4265.398 8403.430 -4263.273 8406.043 Q -4261.148 8408.655 -4260.300 8409.803 Q -4259.451 8410.950 -4258.958 8411.395 Q -4258.465 8411.840 -4256.966 8413.051 Q -4255.466 8414.263 -4254.499 8415.035 Q -4253.532 8415.809 -4252.715 8416.707 Q -4251.897 8417.605 -4251.472 8418.258 Q -4251.046 8418.909 -4250.796 8419.295 Q -4250.547 8419.680 -4250.353 8419.965 Q -4250.158 8420.250 -4250.124 8420.335 Q -4250.089 8420.420 -4249.938 8420.536 Q -4249.786 8420.652 -4248.283 8422.373 Q -4246.780 8424.095 -4245.456 8426.094 Q -4244.131 8428.094 -4243.317 8428.946 Q -4242.502 8429.799 -4241.961 8430.569 Q -4241.420 8431.340 -4241.350 8431.577 Q -4241.279 8431.814 -4241.311 8431.773 Q -4241.341 8431.732 -4241.277 8431.807 Q -4241.212 8431.881 -4241.213 8432.470 Q -4241.213 8433.059 -4241.236 8433.154 "></path>
    <path id="STROKE_6377ae26-02ee-462f-a7f7-50868aa186df" opacity="1.000" fill="none" stroke="#000000" stroke-width="1.107" stroke-opacity="1.000" stroke-linecap="round" stroke-linejoin="round" d="M -4267.455 8416.099 Q -4267.922 8415.037 -4268.869 8416.479 Q -4269.817 8417.922 -4271.539 8420.182 Q -4273.261 8422.441 -4274.819 8423.939 Q -4276.377 8425.438 -4278.358 8426.033 Q -4278.396 8426.245 -4278.387 8425.605 Q -4278.378 8424.966 -4277.804 8424.562 Q -4277.230 8424.158 -4276.679 8423.973 Q -4276.127 8423.787 -4275.462 8425.215 Q -4274.798 8426.643 -4274.504 8427.822 Q -4274.209 8429.002 -4274.174 8429.682 Q -4274.138 8430.361 -4273.323 8432.727 Q -4273.255 8432.727 -4273.195 8432.690 Q -4273.135 8432.654 -4273.038 8432.580 "></path>
    <path id="STROKE_6bb46dc2-5cdf-41bf-a3b6-05e4d57e3463" opacity="1.000" fill="none" stroke="#000000" stroke-width="1.285" stroke-opacity="1.000" stroke-linecap="round" stroke-linejoin="round" d="M -4274.749 8426.180 Q -4275.694 8425.758 -4275.400 8424.896 Q -4275.107 8424.035 -4274.634 8423.693 Q -4274.161 8423.352 -4274.026 8423.220 Q -4273.892 8423.088 -4273.139 8422.733 Q -4272.385 8422.379 -4271.781 8422.342 Q -4271.177 8422.305 -4269.959 8422.544 Q -4268.741 8422.783 -4267.992 8425.008 Q -4267.243 8427.232 -4267.529 8429.060 Q -4267.815 8430.887 -4268.025 8431.152 "></path>
    <path id="STROKE_d4a61cd4-2c6f-492a-af62-8496be8be64f" opacity="1.000" fill="none" stroke="#000000" stroke-width="1.269" stroke-opacity="1.000" stroke-linecap="round" stroke-linejoin="round" d="M -4272.227 8430.004 Q -4272.228 8429.219 -4272.227 8429.380 Q -4272.176 8428.330 -4272.107 8428.451 Q -4272.072 8427.098 -4269.008 8427.113 Q -4269.111 8426.705 -4268.667 8428.569 Q -4268.224 8430.434 -4269.241 8432.384 Q -4270.259 8434.334 -4272.940 8434.561 Q -4273.018 8433.522 -4272.970 8433.750 Q -4273.108 8432.306 -4269.081 8431.285 Q -4265.054 8430.264 -4264.738 8430.049 "></path>
    <path id="STROKE_b89158a4-a86a-45ed-a95e-fec59176e676" opacity="1.000" fill="none" stroke="#000000" stroke-width="1.285" stroke-opacity="1.000" stroke-linecap="round" stroke-linejoin="round" d="M -4251.727 8400.000 Q -4251.727 8400.000 -4251.727 8400.584 Q -4251.727 8401.167 -4251.727 8400.934 Q -4251.834 8401.447 -4251.634 8402.743 Q -4251.434 8404.039 -4251.292 8404.252 "></path>
    <path id="STROKE_bc743e84-d274-4e72-b565-45d18ac86dd0" opacity="1.000" fill="none" stroke="#000000" stroke-width="1.269" stroke-opacity="1.000" stroke-linecap="round" stroke-linejoin="round" d="M -4250.016 8400.090 Q -4249.995 8400.092 -4249.982 8400.100 Q -4249.971 8400.107 -4251.051 8400.021 Q -4251.197 8400.378 -4250.979 8399.588 Q -4250.761 8398.799 -4249.413 8397.819 Q -4248.065 8396.840 -4246.836 8396.418 Q -4245.607 8395.996 -4244.893 8395.914 Q -4244.177 8395.833 -4243.885 8396.139 Q -4243.592 8396.444 -4243.362 8397.014 Q -4243.133 8397.584 -4243.554 8399.329 Q -4243.975 8401.074 -4244.238 8401.383 "></path>
    <path id="STROKE_f212289a-7797-46e6-9416-164afa07eb1b" opacity="1.000" fill="none" stroke="#000000" stroke-width="1.285" stroke-opacity="1.000" stroke-linecap="round" stroke-linejoin="round" d="M -4249.490 8401.102 Q -4249.990 8401.272 -4249.963 8401.266 Q -4250.016 8401.293 -4250.061 8401.316 L -4250.061 8401.338 Q -4248.702 8401.302 -4249.055 8401.287 Q -4248.650 8401.119 -4248.042 8400.641 Q -4247.435 8400.162 -4247.194 8399.898 "></path>
    <path id="STROKE_7fea13db-3fb7-43a4-b301-2737b0118ac9" opacity="1.000" fill="none" stroke="#000000" stroke-width="1.285" stroke-opacity="1.000" stroke-linecap="round" stroke-linejoin="round" d="M -4245.858 8399.189 Q -4246.015 8398.785 -4245.624 8399.684 Q -4245.232 8400.583 -4246.776 8402.524 Q -4248.320 8404.466 -4248.440 8404.590 "></path>
    <path id="STROKE_cff0094e-f96e-48e0-a39b-87211fefaa1d" opacity="1.000" fill="none" stroke="#000000" stroke-width="1.248" stroke-opacity="1.000" stroke-linecap="round" stroke-linejoin="round" d="M -4248.485 8404.207 Q -4248.485 8404.180 -4248.485 8404.105 Q -4247.285 8403.881 -4244.763 8403.487 Q -4244.382 8404.029 -4245.006 8405.508 Q -4245.631 8406.986 -4247.697 8407.594 Q -4248.049 8407.203 -4247.117 8406.242 Q -4246.184 8405.281 -4244.763 8400.934 Q -4244.954 8400.977 -4244.966 8400.758 Q -4244.979 8400.539 -4245.494 8401.234 Q -4246.009 8401.930 -4246.129 8402.497 Q -4246.250 8403.064 -4246.405 8403.794 Q -4246.561 8404.523 -4246.969 8405.941 Q -4247.377 8407.360 -4248.050 8409.506 Q -4248.099 8409.553 -4247.811 8409.265 Q -4247.522 8408.977 -4247.207 8408.649 Q -4246.891 8408.322 -4246.793 8408.266 Q -4246.696 8408.209 -4246.537 8407.848 Q -4246.378 8407.486 -4244.535 8406.466 Q -4242.692 8405.445 -4242.572 8405.400 "></path>
    <path id="STROKE_3a3eb520-bcb2-44b4-b550-83f08118ebe0" opacity="1.000" fill="none" stroke="#000000" stroke-width="1.285" stroke-opacity="1.000" stroke-linecap="round" stroke-linejoin="round" d="M -4247.915 8412.758 Q -4247.689 8412.518 -4248.770 8413.567 Q -4248.992 8413.748 -4247.635 8412.445 Q -4246.278 8411.144 -4245.159 8410.674 Q -4244.041 8410.204 -4243.395 8410.150 Q -4242.749 8410.096 -4242.712 8409.911 Q -4242.674 8409.727 -4241.862 8409.432 Q -4241.049 8409.138 -4240.672 8409.076 Q -4240.295 8409.015 -4239.957 8409.021 Q -4239.619 8409.027 -4239.292 8409.054 Q -4238.966 8409.080 -4239.130 8409.033 Q -4239.295 8408.987 -4239.014 8409.107 Q -4238.732 8409.227 -4238.578 8409.453 Q -4238.423 8409.679 -4237.421 8409.400 Q -4236.418 8409.123 -4236.133 8408.887 "></path>
    <path id="STROKE_68053c44-c39b-4334-9e70-59085f62bea7" opacity="1.000" fill="none" stroke="#000000" stroke-width="1.105" stroke-opacity="1.000" stroke-linecap="round" stroke-linejoin="round" d="M -4268.835 8457.658 Q -4268.828 8457.857 -4268.865 8457.039 Q -4268.971 8456.938 -4269.480 8458.383 Q -4269.989 8459.828 -4270.434 8461.570 Q -4270.879 8463.312 -4274.283 8468.795 Q -4274.333 8468.373 -4273.238 8466.809 Q -4272.143 8465.244 -4271.163 8464.373 Q -4270.184 8463.502 -4268.865 8463.536 Q -4267.317 8464.761 -4270.411 8472.182 Q -4270.565 8471.996 -4268.010 8470.078 Q -4267.202 8470.577 -4268.985 8476.535 Q -4268.388 8476.444 -4266.529 8472.822 Q -4264.671 8469.200 -4264.318 8468.559 "></path>
    <path id="STROKE_8fb22190-81a5-4de6-ac88-2230e2527200" opacity="1.000" fill="none" stroke="#000000" stroke-width="1.285" stroke-opacity="1.000" stroke-linecap="round" stroke-linejoin="round" d="M -4263.072 8466.017 Q -4262.836 8465.430 -4262.877 8465.499 Q -4262.877 8465.426 -4262.900 8465.354 Q -4262.739 8465.430 -4263.733 8465.234 Q -4264.956 8465.227 -4261.774 8462.854 Q -4258.593 8460.481 -4258.360 8460.335 "></path>
    <path id="STROKE_38baff06-e2b1-4f1e-ba51-d8ee025f1e88" opacity="1.000" fill="none" stroke="#000000" stroke-width="1.029" stroke-opacity="1.000" stroke-linecap="round" stroke-linejoin="round" d="M -4259.456 8464.689 Q -4259.418 8464.697 -4260.836 8465.117 Q -4260.928 8465.147 -4260.743 8465.283 Q -4260.559 8465.418 -4260.048 8467.057 Q -4259.537 8468.696 -4259.901 8470.396 Q -4260.266 8472.095 -4260.651 8472.869 Q -4261.038 8473.643 -4261.429 8474.438 Q -4261.819 8475.234 -4264.190 8475.314 Q -4263.792 8474.385 -4263.620 8474.572 Q -4262.252 8473.883 -4255.478 8471.016 Q -4248.703 8468.148 -4248.200 8467.885 "></path>
    <path id="STROKE_c740a4f1-472c-4d93-9452-a8f0bad2fb8b" opacity="1.000" fill="none" stroke="#000000" stroke-width="1.285" stroke-opacity="1.000" stroke-linecap="round" stroke-linejoin="round" d="M -4326.045 8422.207 Q -4326.227 8422.207 -4326.630 8422.207 Q -4326.825 8422.602 -4325.635 8422.660 Q -4324.445 8422.719 -4323.688 8422.180 Q -4322.931 8421.640 -4322.668 8421.397 "></path>
    <path id="STROKE_8d7c4830-c81a-4370-9327-fae8d133e583" opacity="1.000" fill="none" stroke="#000000" stroke-width="1.285" stroke-opacity="1.000" stroke-linecap="round" stroke-linejoin="round" d="M -4318.571 8422.017 Q -4318.549 8422.017 -4318.466 8422.117 Q -4317.899 8421.531 -4317.103 8421.085 Q -4316.305 8420.639 -4315.990 8420.396 "></path>
    <path id="STROKE_2f3d8df8-8092-481f-b701-5f7b86704ca5" opacity="1.000" fill="none" stroke="#000000" stroke-width="1.280" stroke-opacity="1.000" stroke-linecap="round" stroke-linejoin="round" d="M -4310.602 8420.441 Q -4310.604 8420.675 -4312.178 8421.544 Q -4312.333 8421.739 -4311.220 8421.369 Q -4310.107 8420.998 -4309.657 8420.689 "></path>
    <path id="STROKE_18768637-9f40-4a92-92cc-e28013881c96" opacity="1.000" fill="none" stroke="#000000" stroke-width="1.285" stroke-opacity="1.000" stroke-linecap="round" stroke-linejoin="round" d="M -4301.357 8416.335 Q -4301.294 8416.507 -4304.644 8418.866 Q -4303.774 8418.866 -4303.268 8418.748 Q -4302.761 8418.630 -4302.303 8418.395 "></path>
    <path id="STROKE_c63b6466-a136-4354-b762-9e004093b90e" opacity="1.000" fill="none" stroke="#000000" stroke-width="1.131" stroke-opacity="1.000" stroke-linecap="round" stroke-linejoin="round" d="M -4213.637 8370.096 Q -4213.637 8370.096 -4213.731 8370.101 Q -4213.825 8370.105 -4215.071 8372.881 Q -4216.317 8375.656 -4216.955 8377.179 Q -4217.593 8378.701 -4217.872 8379.350 Q -4218.151 8379.998 -4218.304 8380.502 Q -4218.225 8380.396 -4217.860 8380.038 Q -4217.496 8379.680 -4217.111 8379.354 Q -4216.727 8379.027 -4216.730 8378.961 Q -4216.734 8378.895 -4215.325 8378.236 Q -4213.993 8378.342 -4218.349 8385.521 Q -4217.594 8384.998 -4216.644 8384.234 Q -4215.692 8383.471 -4214.417 8383.422 Q -4214.255 8383.649 -4214.026 8385.328 Q -4213.798 8387.008 -4215.258 8390.493 Q -4215.263 8390.218 -4214.472 8388.002 Q -4213.682 8385.785 -4213.487 8385.183 "></path>
    <path id="STROKE_c4d4335f-2e3b-48e0-bd5e-5c7455958790" opacity="1.000" fill="none" stroke="#000000" stroke-width="1.285" stroke-opacity="1.000" stroke-linecap="round" stroke-linejoin="round" d="M -4212.061 8377.645 Q -4212.074 8377.979 -4212.046 8377.326 Q -4212.019 8376.672 -4211.905 8375.938 Q -4211.792 8375.205 -4210.671 8374.936 Q -4209.550 8374.666 -4208.750 8374.953 Q -4207.950 8375.240 -4207.859 8376.786 Q -4207.769 8378.332 -4207.813 8378.646 "></path>
    <path id="STROKE_ff1f8879-f8ca-4d8f-82b5-6a1104ef52b0" opacity="1.000" fill="none" stroke="#000000" stroke-width="1.211" stroke-opacity="1.000" stroke-linecap="round" stroke-linejoin="round" d="M -4210.635 8379.738 Q -4211.454 8379.738 -4211.438 8379.738 Q -4211.309 8377.803 -4206.936 8377.071 Q -4206.471 8377.058 -4206.889 8378.631 Q -4207.307 8380.205 -4208.512 8381.706 Q -4209.716 8383.207 -4211.821 8384.520 Q -4212.101 8383.861 -4209.244 8381.526 Q -4206.388 8379.191 -4206.193 8379.029 "></path>
    <path id="STROKE_8a39d737-6d7e-4594-91d5-c441053e96d8" opacity="1.000" fill="none" stroke="#000000" stroke-width="1.244" stroke-opacity="1.000" stroke-linecap="round" stroke-linejoin="round" d="M -4208.339 8380.457 Q -4209.111 8379.990 -4208.404 8383.091 Q -4207.696 8386.191 -4206.885 8388.230 Q -4206.073 8390.271 -4206.193 8391.350 Q -4206.313 8392.428 -4206.478 8392.597 "></path>
    <path id="STROKE_94671a60-8c9f-44d0-b7e2-1859a914e749" opacity="1.000" fill="none" stroke="#000000" stroke-width="1.130" stroke-opacity="1.000" stroke-linecap="round" stroke-linejoin="round" d="M -4210.530 8389.109 Q -4210.934 8388.023 -4210.771 8388.338 Q -4210.306 8387.072 -4210.320 8387.461 Q -4209.250 8386.934 -4208.607 8386.817 Q -4207.965 8386.701 -4207.706 8387.796 Q -4207.446 8388.891 -4207.714 8390.375 Q -4207.981 8391.859 -4210.155 8393.834 Q -4210.225 8393.682 -4208.366 8390.535 Q -4206.508 8387.388 -4206.058 8386.623 "></path>
    <path id="STROKE_77f1c23a-41bf-43a9-bbd0-17cbe1779556" opacity="1.000" fill="none" stroke="#000000" stroke-width="1.144" stroke-opacity="1.000" stroke-linecap="round" stroke-linejoin="round" d="M -4202.816 8381.178 Q -4202.764 8381.082 -4202.711 8380.941 Q -4203.487 8381.311 -4208.009 8388.699 Q -4207.298 8388.910 -4203.553 8388.256 Q -4199.807 8387.602 -4199.515 8387.433 "></path>
    <path id="STROKE_2ce7b99f-fc59-47f4-94b2-7659501a60e0" opacity="1.000" fill="none" stroke="#000000" stroke-width="1.240" stroke-opacity="1.000" stroke-linecap="round" stroke-linejoin="round" d="M -4284.338 8366.463 Q -4284.338 8366.463 -4284.334 8366.455 Q -4284.329 8366.448 -4284.018 8366.212 Q -4283.707 8365.976 -4283.719 8366.034 Q -4283.731 8366.093 -4283.652 8365.893 Q -4283.573 8365.693 -4278.722 8363.363 Q -4273.871 8361.033 -4273.758 8360.916 "></path>
    <path id="STROKE_e17e245d-bb9e-459d-b6f5-2b472128240a" opacity="1.000" fill="none" stroke="#000000" stroke-width="1.285" stroke-opacity="1.000" stroke-linecap="round" stroke-linejoin="round" d="M -4279.371 8362.355 Q -4279.757 8362.391 -4280.104 8364.132 Q -4280.452 8365.873 -4280.436 8367.001 Q -4280.419 8368.129 -4280.120 8368.502 Q -4279.822 8368.874 -4279.830 8368.926 Q -4279.838 8368.979 -4279.368 8368.975 Q -4278.898 8368.971 -4278.710 8368.949 "></path>
    <path id="STROKE_7f2a3b07-a525-492c-8756-75495c318706" opacity="1.000" fill="none" stroke="#000000" stroke-width="1.285" stroke-opacity="1.000" stroke-linecap="round" stroke-linejoin="round" d="M -4276.714 8361.591 Q -4277.040 8361.976 -4277.519 8364.984 Q -4277.998 8367.992 -4278.140 8368.229 "></path>
    <path id="STROKE_fb2f0908-709c-4313-bc1e-66d61c590ade" opacity="1.000" fill="none" stroke="#000000" stroke-width="1.285" stroke-opacity="1.000" stroke-linecap="round" stroke-linejoin="round" d="M -4283.243 8371.525 Q -4284.057 8372.104 -4284.188 8373.690 Q -4284.318 8375.277 -4283.937 8376.459 Q -4283.555 8377.641 -4282.885 8377.795 Q -4282.215 8377.949 -4281.997 8377.926 "></path>
    <path id="STROKE_2f3ee71f-ed9e-430b-b172-257cd4731564" opacity="1.000" fill="none" stroke="#000000" stroke-width="1.285" stroke-opacity="1.000" stroke-linecap="round" stroke-linejoin="round" d="M -4279.611 8368.420 Q -4279.720 8368.260 -4279.838 8372.125 Q -4279.956 8375.991 -4279.956 8376.250 "></path>
    <path id="STROKE_eee12c10-6762-49cb-96bc-a13bcba99540" opacity="1.000" fill="none" stroke="#000000" stroke-width="1.188" stroke-opacity="1.000" stroke-linecap="round" stroke-linejoin="round" d="M -4276.369 8365.697 Q -4276.091 8365.303 -4277.570 8374.585 Q -4277.615 8374.562 -4277.660 8374.540 "></path>
    <path id="STROKE_755af984-6ae5-421e-9bf9-7825f0cec90a" opacity="1.000" fill="none" stroke="#000000" stroke-width="1.285" stroke-opacity="1.000" stroke-linecap="round" stroke-linejoin="round" d="M -4276.895 8371.424 Q -4276.813 8370.697 -4276.304 8369.736 Q -4275.793 8368.775 -4275.219 8368.406 Q -4274.644 8368.037 -4273.921 8368.029 Q -4273.199 8368.021 -4272.779 8367.956 Q -4272.359 8367.891 -4272.207 8368.193 Q -4272.054 8368.496 -4271.946 8368.828 Q -4271.838 8369.159 -4271.868 8369.576 Q -4271.898 8369.994 -4272.645 8370.700 Q -4273.390 8371.406 -4273.698 8371.671 "></path>
    <path id="STROKE_e82e0b76-3d31-425a-8a25-e828a15de898" opacity="1.000" fill="none" stroke="#000000" stroke-width="1.285" stroke-opacity="1.000" stroke-linecap="round" stroke-linejoin="round" d="M -4275.274 8372.526 Q -4275.192 8372.482 -4276.084 8372.791 L -4276.084 8372.818 Q -4276.975 8373.677 -4274.530 8372.219 Q -4272.084 8370.760 -4271.987 8370.613 "></path>
    <path id="STROKE_ae208ea1-fd27-4b18-ae3d-1b2beb47e7ef" opacity="1.000" fill="none" stroke="#000000" stroke-width="1.226" stroke-opacity="1.000" stroke-linecap="round" stroke-linejoin="round" d="M -4278.951 8378.207 Q -4279.939 8378.939 -4280.399 8382.297 Q -4280.331 8382.311 -4280.362 8382.302 Q -4280.395 8382.293 -4280.261 8382.430 Q -4280.127 8382.565 -4279.780 8381.256 Q -4279.433 8379.947 -4279.320 8378.915 Q -4279.208 8377.883 -4278.818 8377.303 Q -4278.428 8376.723 -4277.456 8375.854 Q -4276.483 8374.986 -4275.227 8374.755 Q -4273.970 8374.523 -4273.318 8374.695 Q -4272.667 8374.867 -4272.248 8375.421 Q -4271.828 8375.975 -4272.062 8377.367 Q -4272.295 8378.759 -4272.558 8379.119 "></path>
    <path id="STROKE_d5a45964-e27a-42d6-938a-6c29c234ffe8" opacity="1.000" fill="none" stroke="#000000" stroke-width="1.121" stroke-opacity="1.000" stroke-linecap="round" stroke-linejoin="round" d="M -4276.895 8378.309 Q -4277.669 8379.044 -4277.833 8380.648 Q -4276.795 8381.069 -4274.418 8377.397 Q -4274.359 8377.279 -4275.061 8379.520 Q -4275.762 8381.760 -4276.998 8383.634 Q -4278.234 8385.508 -4284.338 8388.242 Q -4284.288 8388.333 -4282.909 8387.146 Q -4281.531 8385.960 -4277.732 8383.787 Q -4273.934 8381.614 -4269.133 8381.382 Q -4264.333 8381.149 -4264.168 8381.223 "></path>
  </g>
</svg>