<?xml version="1.0" encoding="UTF-8" standalone="yes"?>
<svg xmlns="http://www.w3.org/2000/svg" xmlns:xlink="http://www.w3.org/1999/xlink" width="38.675mm" height="33.579mm" version="1.1" viewBox="46.358 180.128 200.986 174.505">
  <!--
	Exported with Concepts: Smarter Sketching
	Version: 1044 on iOS 15.1
	https://concepts.app/
	-->
  <title>咬文嚼字</title>
  <desc>Drawing exported from Concepts: Smarter Sketching</desc>
  <defs></defs>
  <g id="主体" opacity="1.000">
    <path id="STROKE_80b61c9e-d4eb-4b07-9c8e-d2bf3449def3" opacity="1.000" fill="none" stroke="#000000" stroke-width="0.487" stroke-opacity="1.000" stroke-linecap="round" stroke-linejoin="round" d="M 69.020 242.734 Q 69.046 242.668 71.401 253.339 Q 71.588 252.502 71.425 251.757 Q 71.261 251.011 70.847 248.509 Q 70.433 246.007 70.728 244.316 Q 71.024 242.624 71.917 241.789 Q 72.811 240.953 73.554 240.488 Q 74.297 240.023 74.374 239.888 Q 74.451 239.752 75.482 239.538 Q 76.513 239.324 77.011 239.449 Q 77.508 239.574 77.805 239.968 Q 78.101 240.361 78.335 240.894 Q 78.570 241.427 78.545 241.760 Q 78.520 242.093 78.652 242.484 Q 78.784 242.874 78.790 244.888 Q 78.796 246.902 77.486 249.093 Q 76.177 251.283 71.945 251.425 Q 71.713 251.287 79.105 250.952 "></path>
    <path id="STROKE_26345c23-ab68-4819-a9c3-afa6c88588c8" opacity="1.000" fill="none" stroke="#000000" stroke-width="0.913" stroke-opacity="1.000" stroke-linecap="round" stroke-linejoin="round" d="M 88.155 229.627 Q 88.606 230.599 86.655 236.732 Q 84.703 242.865 81.512 248.509 Q 81.481 248.508 81.418 248.508 Q 81.060 247.963 81.668 245.652 Q 82.276 243.341 83.667 241.849 Q 85.058 240.357 86.743 239.306 Q 88.428 238.254 91.438 237.592 Q 94.449 236.930 97.617 237.695 Q 98.649 239.536 95.598 240.378 Q 92.546 241.221 90.298 241.239 Q 88.050 241.257 82.670 246.036 Q 83.814 246.107 83.795 246.044 Q 83.600 246.204 85.108 245.747 Q 86.617 245.290 88.690 244.867 Q 90.764 244.444 91.167 246.599 Q 91.570 248.755 90.885 251.349 Q 90.200 253.944 89.748 255.356 Q 89.296 256.768 89.596 258.055 Q 89.896 259.342 93.562 259.578 Q 97.228 259.813 101.018 259.229 Q 101.011 257.987 100.993 258.312 Q 101.016 258.274 98.662 254.127 "></path>
    <path id="STROKE_4f8bcf79-60fe-4703-a20f-90c837b8858e" opacity="1.000" fill="none" stroke="#000000" stroke-width="0.578" stroke-opacity="1.000" stroke-linecap="round" stroke-linejoin="round" d="M 134.306 202.779 Q 134.108 202.508 132.824 202.453 Q 131.540 202.399 131.126 203.580 Q 130.712 204.762 130.555 208.402 Q 130.398 212.042 131.624 218.933 Q 132.850 225.823 133.577 230.055 Q 134.304 234.287 134.355 236.062 Q 134.406 237.838 134.150 240.377 Q 133.893 242.915 132.078 245.590 Q 130.262 248.264 128.104 250.392 Q 125.945 252.519 123.354 253.564 Q 124.296 252.313 125.521 251.755 Q 126.747 251.198 128.074 250.968 Q 129.401 250.739 130.458 250.991 Q 131.516 251.243 132.044 252.303 Q 132.572 253.364 133.321 254.710 Q 134.070 256.055 134.172 263.566 Q 134.274 271.077 133.558 277.897 Q 132.841 284.718 132.150 292.214 Q 131.458 299.711 131.046 311.197 Q 130.634 322.683 130.583 329.119 Q 130.532 335.554 130.667 338.945 Q 130.803 342.337 131.651 345.334 Q 132.500 348.330 137.493 351.126 "></path>
    <path id="STROKE_a947c2b6-b053-43c5-9b3d-d93cfa2d2632" opacity="1.000" fill="none" stroke="#000000" stroke-width="0.492" stroke-opacity="1.000" stroke-linecap="round" stroke-linejoin="round" d="M 156.232 200.817 Q 156.249 200.801 156.301 200.708 Q 156.582 200.674 152.398 211.690 Q 152.398 211.597 152.399 211.504 "></path>
    <path id="STROKE_66f1addb-3f45-4a21-bae1-b41f1b4f1cd9" opacity="1.000" fill="none" stroke="#000000" stroke-width="0.618" stroke-opacity="1.000" stroke-linecap="round" stroke-linejoin="round" d="M 154.510 205.719 Q 154.550 205.647 154.709 205.467 Q 155.442 206.025 155.307 214.470 "></path>
    <path id="STROKE_93d7bece-df5c-42cf-b3c3-f722ef66aaae" opacity="1.000" fill="none" stroke="#000000" stroke-width="0.397" stroke-opacity="1.000" stroke-linecap="round" stroke-linejoin="round" d="M 158.114 207.280 Q 158.340 207.615 164.451 206.174 "></path>
    <path id="STROKE_bc52330c-e623-4132-b364-9a23c9ffe0c6" opacity="1.000" fill="none" stroke="#000000" stroke-width="0.405" stroke-opacity="1.000" stroke-linecap="round" stroke-linejoin="round" d="M 163.557 201.728 Q 163.297 201.488 163.345 201.524 Q 163.328 201.490 163.311 201.473 Q 163.229 201.473 163.288 208.777 Q 163.348 216.082 163.348 216.103 "></path>
    <path id="STROKE_19be5926-8ea5-4ab6-a9a5-2b69de9de4a2" opacity="1.000" fill="none" stroke="#000000" stroke-width="0.403" stroke-opacity="1.000" stroke-linecap="round" stroke-linejoin="round" d="M 162.300 207.848 Q 162.399 207.992 162.066 207.653 Q 161.733 207.313 158.688 212.450 "></path>
    <path id="STROKE_8cfd2efa-4753-4c7c-9e3f-202e1fefc3f8" opacity="1.000" fill="none" stroke="#000000" stroke-width="0.660" stroke-opacity="1.000" stroke-linecap="round" stroke-linejoin="round" d="M 164.014 207.429 Q 164.126 207.402 165.026 207.230 Q 165.926 207.057 166.785 207.417 Q 167.645 207.777 167.746 208.601 Q 167.846 209.426 167.828 209.607 "></path>
    <path id="STROKE_b05898fa-8fa6-4a57-8f5f-9fcf691e2c4f" opacity="1.000" fill="none" stroke="#000000" stroke-width="0.533" stroke-opacity="1.000" stroke-linecap="round" stroke-linejoin="round" d="M 161.016 212.896 Q 160.870 212.564 160.833 212.460 Q 160.796 212.356 160.839 212.333 Q 161.389 211.644 165.957 211.562 "></path>
    <path id="STROKE_9e5b3d7b-9e01-44a9-8dba-b19e74ed2f05" opacity="1.000" fill="none" stroke="#000000" stroke-width="0.407" stroke-opacity="1.000" stroke-linecap="round" stroke-linejoin="round" d="M 142.663 202.482 Q 142.316 202.243 143.995 202.856 Q 145.674 203.469 145.764 203.541 "></path>
    <path id="STROKE_9769a789-1913-4caf-92b2-eae353a9b57c" opacity="1.000" fill="none" stroke="#000000" stroke-width="0.410" stroke-opacity="1.000" stroke-linecap="round" stroke-linejoin="round" d="M 142.414 205.992 Q 142.412 205.691 143.575 205.393 Q 144.737 205.095 145.429 205.189 Q 146.120 205.284 146.398 205.539 Q 146.677 205.793 146.757 206.517 Q 146.837 207.241 146.460 207.977 Q 146.083 208.714 145.150 209.435 Q 144.217 210.156 142.677 210.333 Q 141.967 210.395 146.580 209.354 "></path>
    <path id="STROKE_c0a61d91-a41e-4bdf-9459-4691ac0effbe" opacity="1.000" fill="none" stroke="#000000" stroke-width="0.441" stroke-opacity="1.000" stroke-linecap="round" stroke-linejoin="round" d="M 146.131 207.452 Q 146.156 207.502 145.739 207.128 Q 145.348 208.399 145.415 208.164 Q 145.482 207.930 145.128 209.243 Q 144.773 210.557 144.350 211.463 Q 143.927 212.368 143.545 212.734 Q 143.163 213.099 142.568 213.396 Q 141.973 213.693 141.505 213.803 Q 141.650 213.772 144.753 213.330 Q 147.856 212.888 149.695 212.932 Q 151.533 212.975 151.713 212.977 "></path>
    <path id="STROKE_56241feb-9a9f-4fdf-9494-8fa10bd3b141" opacity="1.000" fill="none" stroke="#000000" stroke-width="0.472" stroke-opacity="1.000" stroke-linecap="round" stroke-linejoin="round" d="M 163.557 233.519 Q 163.215 233.898 163.952 238.949 Q 164.688 244.000 165.037 246.929 Q 165.385 249.858 165.425 251.597 Q 165.464 253.335 165.501 255.082 Q 165.538 256.830 165.559 265.477 Q 165.050 265.482 165.109 265.436 Q 165.171 265.495 164.966 265.348 Q 164.760 265.200 164.222 264.535 Q 163.684 263.869 163.245 263.126 Q 162.807 262.382 160.983 259.494 Q 161.316 259.192 162.141 260.168 Q 162.967 261.145 163.779 263.022 Q 164.591 264.899 164.987 265.909 Q 165.383 266.919 165.638 267.383 Q 165.893 267.847 166.087 268.053 Q 166.282 268.259 166.216 268.178 Q 166.150 268.096 166.398 268.198 Q 166.646 268.299 167.109 267.434 Q 167.572 266.568 168.016 264.860 Q 168.461 263.151 168.509 261.655 Q 168.558 260.159 168.517 258.651 Q 168.476 257.143 168.412 256.674 "></path>
    <path id="STROKE_ddc7a06d-e275-4c1b-b76d-851250b7f7d5" opacity="1.000" fill="none" stroke="#000000" stroke-width="0.392" stroke-opacity="1.000" stroke-linecap="round" stroke-linejoin="round" d="M 162.064 289.504 Q 161.810 289.502 163.190 289.469 Q 164.570 289.436 164.711 289.420 "></path>
    <path id="STROKE_9e49bef5-b35e-43d6-adfd-b3bb87e55a64" opacity="1.000" fill="none" stroke="#000000" stroke-width="0.445" stroke-opacity="1.000" stroke-linecap="round" stroke-linejoin="round" d="M 160.912 291.724 Q 160.681 291.347 161.323 294.201 "></path>
    <path id="STROKE_3f37964e-565a-44d0-8121-fc9a6c1e96d2" opacity="1.000" fill="none" stroke="#000000" stroke-width="0.488" stroke-opacity="1.000" stroke-linecap="round" stroke-linejoin="round" d="M 162.660 291.339 Q 162.628 291.265 164.454 290.501 Q 166.280 289.737 168.862 290.111 Q 169.007 290.115 168.909 290.936 Q 168.811 291.757 168.703 291.921 "></path>
    <path id="STROKE_0423b386-438f-4156-ba14-1de43bf475cf" opacity="1.000" fill="none" stroke="#000000" stroke-width="0.463" stroke-opacity="1.000" stroke-linecap="round" stroke-linejoin="round" d="M 165.773 292.289 Q 165.308 292.599 165.337 292.628 Q 164.958 292.934 163.391 294.856 Q 162.951 294.523 167.663 292.538 Q 168.125 292.696 167.147 294.462 Q 166.169 296.229 165.152 297.483 Q 164.135 298.737 162.827 299.115 Q 162.788 299.027 162.789 298.902 Q 162.790 298.778 162.791 298.617 "></path>
    <path id="STROKE_25165d92-97e5-44cc-b85c-75e1db3eb92c" opacity="1.000" fill="none" stroke="#000000" stroke-width="0.392" stroke-opacity="1.000" stroke-linecap="round" stroke-linejoin="round" d="M 165.538 295.411 Q 166.130 295.718 167.689 295.997 Q 169.248 296.276 169.315 296.297 "></path>
    <path id="STROKE_90b2ad5c-2520-4a81-8abb-bb5866ea8a26" opacity="1.000" fill="none" stroke="#000000" stroke-width="0.439" stroke-opacity="1.000" stroke-linecap="round" stroke-linejoin="round" d="M 165.005 299.240 Q 164.979 299.285 165.041 299.226 Q 165.103 299.167 165.263 299.037 Q 165.424 298.906 165.612 298.776 Q 165.800 298.645 165.812 298.665 Q 165.824 298.685 165.743 298.717 Q 165.662 298.749 166.116 298.542 Q 166.569 298.335 167.000 298.520 Q 167.432 298.705 167.575 298.851 Q 167.719 298.998 167.988 299.597 Q 168.258 300.196 168.264 300.616 Q 168.270 301.036 168.283 301.086 Q 168.295 301.136 168.155 301.430 Q 168.015 301.723 167.878 301.714 Q 167.742 301.704 167.835 301.731 Q 167.928 301.758 167.280 301.861 Q 166.631 301.963 165.313 301.935 Q 165.105 302.294 166.732 301.800 Q 168.358 301.305 168.539 301.197 "></path>
    <path id="STROKE_f59b1951-8e24-4659-9dbf-6f2cc7689813" opacity="1.000" fill="none" stroke="#000000" stroke-width="0.509" stroke-opacity="1.000" stroke-linecap="round" stroke-linejoin="round" d="M 175.189 290.343 Q 175.090 290.792 171.179 297.129 Q 171.288 296.786 171.195 296.882 Q 171.101 296.977 171.583 296.453 Q 172.064 295.928 172.891 295.705 Q 173.719 295.482 174.714 302.264 Q 174.834 302.295 174.918 302.281 Q 175.001 302.266 175.075 302.246 "></path>
    <path id="STROKE_4b2c6d0a-4bde-404b-9f67-34725610efe7" opacity="1.000" fill="none" stroke="#000000" stroke-width="0.504" stroke-opacity="1.000" stroke-linecap="round" stroke-linejoin="round" d="M 174.904 295.795 Q 174.902 294.898 180.141 294.074 "></path>
    <path id="STROKE_8c5b292b-673a-4031-bd71-5bb0038fb67e" opacity="1.000" fill="none" stroke="#000000" stroke-width="0.576" stroke-opacity="1.000" stroke-linecap="round" stroke-linejoin="round" d="M 178.370 291.158 Q 178.354 291.141 178.280 291.141 Q 178.107 291.190 178.290 296.902 Q 178.473 302.615 178.472 302.775 "></path>
    <path id="STROKE_8c3e0a2e-9b6e-46fd-b98f-746c2a25aada" opacity="1.000" fill="none" stroke="#000000" stroke-width="0.526" stroke-opacity="1.000" stroke-linecap="round" stroke-linejoin="round" d="M 175.731 300.106 Q 175.677 300.105 174.875 300.100 Q 174.963 299.868 176.040 298.867 Q 177.117 297.865 178.097 297.228 Q 179.077 296.591 179.835 296.575 Q 180.593 296.560 180.838 296.655 Q 181.083 296.750 181.103 296.789 Q 181.124 296.828 181.331 297.636 Q 181.538 298.444 180.980 299.090 Q 180.423 299.736 179.915 299.956 Q 179.407 300.176 179.090 300.234 Q 178.774 300.292 178.517 300.315 Q 178.261 300.339 176.484 300.322 Q 176.706 300.017 180.137 299.705 "></path>
    <path id="STROKE_0430ad73-e822-41f7-acc1-35511621002d" opacity="1.000" fill="none" stroke="#000000" stroke-width="0.510" stroke-opacity="1.000" stroke-linecap="round" stroke-linejoin="round" d="M 164.902 299.492 Q 164.899 300.264 164.931 300.244 Q 164.993 300.688 165.269 301.329 Q 165.544 301.970 165.561 302.004 "></path>
    <path id="STROKE_a99be5f3-152a-4de2-a093-41dcf2055bdf" opacity="1.000" fill="none" stroke="#000000" stroke-width="0.393" stroke-opacity="1.000" stroke-linecap="round" stroke-linejoin="round" d="M 182.173 241.639 Q 182.224 241.612 182.639 241.573 Q 183.054 241.534 185.253 240.841 "></path>
    <path id="STROKE_6fca3302-d5b8-4fd2-a466-55e55264ed42" opacity="1.000" fill="none" stroke="#000000" stroke-width="0.465" stroke-opacity="1.000" stroke-linecap="round" stroke-linejoin="round" d="M 184.227 239.290 Q 184.075 239.569 184.441 242.169 Q 184.808 244.770 184.924 246.031 Q 185.040 247.292 185.167 248.052 Q 185.295 248.812 184.980 249.121 Q 184.664 249.430 184.239 249.508 Q 183.813 249.586 183.427 249.593 Q 183.041 249.601 182.884 249.506 Q 182.726 249.411 182.545 249.255 Q 182.364 249.100 182.237 248.870 Q 182.110 248.640 182.010 248.297 Q 181.911 247.954 182.038 247.495 Q 182.165 247.036 182.390 246.808 Q 182.614 246.581 185.519 244.709 "></path>
    <path id="STROKE_fc873614-cfec-4f82-a64e-3bb6fb42ac54" opacity="1.000" fill="none" stroke="#000000" stroke-width="0.586" stroke-opacity="1.000" stroke-linecap="round" stroke-linejoin="round" d="M 186.693 239.382 Q 186.710 239.169 188.224 239.258 Q 189.739 239.348 189.778 239.403 "></path>
    <path id="STROKE_61701610-7a12-4fc9-abce-b7a2f5f426b2" opacity="1.000" fill="none" stroke="#000000" stroke-width="0.447" stroke-opacity="1.000" stroke-linecap="round" stroke-linejoin="round" d="M 186.324 242.317 Q 187.212 241.595 190.137 241.301 Q 191.056 242.678 187.127 245.117 "></path>
    <path id="STROKE_4ca12c67-8591-496f-82de-5a6816bc399e" opacity="1.000" fill="none" stroke="#000000" stroke-width="0.576" stroke-opacity="1.000" stroke-linecap="round" stroke-linejoin="round" d="M 188.245 243.006 Q 188.358 242.643 192.639 244.259 "></path>
    <path id="STROKE_c1d5f599-5453-45f8-8515-670552989948" opacity="1.000" fill="none" stroke="#000000" stroke-width="0.490" stroke-opacity="1.000" stroke-linecap="round" stroke-linejoin="round" d="M 188.163 245.048 Q 187.842 245.034 187.825 247.203 Q 187.808 249.372 187.807 249.427 "></path>
    <path id="STROKE_b5865645-1d2f-4aab-a805-a047b2c40920" opacity="1.000" fill="none" stroke="#000000" stroke-width="0.412" stroke-opacity="1.000" stroke-linecap="round" stroke-linejoin="round" d="M 190.264 245.822 Q 190.263 245.999 190.433 247.478 Q 190.603 248.956 190.636 249.083 "></path>
    <path id="STROKE_dfa497f0-4c9b-474f-ad06-1c96d8cb5faf" opacity="1.000" fill="none" stroke="#000000" stroke-width="0.495" stroke-opacity="1.000" stroke-linecap="round" stroke-linejoin="round" d="M 197.511 238.307 Q 197.589 238.368 197.583 242.604 "></path>
    <path id="STROKE_7e67b480-f12b-478d-b2a7-bc58a0ba2531" opacity="1.000" fill="none" stroke="#000000" stroke-width="0.506" stroke-opacity="1.000" stroke-linecap="round" stroke-linejoin="round" d="M 198.344 241.647 Q 198.060 241.514 200.211 240.326 Q 200.160 240.347 200.109 240.368 "></path>
    <path id="STROKE_072e596d-c119-48bf-bc28-446d0bfadc21" opacity="1.000" fill="none" stroke="#000000" stroke-width="0.438" stroke-opacity="1.000" stroke-linecap="round" stroke-linejoin="round" d="M 195.351 244.565 Q 194.828 245.060 195.431 246.929 Q 195.465 246.929 195.482 246.929 Q 195.532 247.040 195.576 246.380 Q 195.619 245.719 196.311 244.824 Q 197.002 243.930 198.864 243.799 Q 198.735 243.680 198.932 243.978 Q 199.130 244.277 198.549 245.414 Q 197.969 246.551 195.443 247.680 Q 196.081 247.569 196.069 247.524 Q 195.860 247.329 200.674 246.753 "></path>
    <path id="STROKE_9fb65d37-1483-48a4-8345-8026a43fe303" opacity="1.000" fill="none" stroke="#000000" stroke-width="0.550" stroke-opacity="1.000" stroke-linecap="round" stroke-linejoin="round" d="M 206.679 246.363 Q 206.827 246.666 209.167 249.816 "></path>
    <path id="STROKE_2aff97bb-639d-4586-8b0d-9078dc2d72bb" opacity="1.000" fill="none" stroke="#000000" stroke-width="0.482" stroke-opacity="1.000" stroke-linecap="round" stroke-linejoin="round" d="M 217.800 237.152 Q 217.798 237.425 218.085 243.351 "></path>
    <path id="STROKE_afc5d111-63a4-473a-8dd7-2d827444e825" opacity="1.000" fill="none" stroke="#000000" stroke-width="0.401" stroke-opacity="1.000" stroke-linecap="round" stroke-linejoin="round" d="M 219.317 240.928 Q 219.868 240.443 220.002 240.370 Q 220.135 240.297 220.653 240.119 Q 221.171 239.942 221.644 239.897 Q 221.643 239.951 221.643 240.006 "></path>
    <path id="STROKE_b84855bb-60fa-41ce-957d-8bd88e382452" opacity="1.000" fill="none" stroke="#000000" stroke-width="0.443" stroke-opacity="1.000" stroke-linecap="round" stroke-linejoin="round" d="M 216.128 246.317 Q 216.335 247.356 216.327 247.175 Q 216.320 246.995 216.480 247.124 Q 216.640 247.254 216.540 247.203 Q 216.440 247.151 216.747 247.166 Q 216.959 246.461 216.897 246.610 Q 216.862 246.467 217.026 246.016 Q 217.190 245.564 217.501 245.307 Q 217.811 245.050 217.993 244.970 Q 218.175 244.890 218.294 244.788 Q 218.412 244.686 219.264 244.419 Q 220.116 244.151 221.598 244.185 Q 221.594 245.138 221.520 244.881 Q 221.918 245.408 217.057 247.151 Q 217.057 247.168 217.056 247.311 Q 216.982 247.463 218.514 247.349 Q 220.046 247.236 221.812 246.710 "></path>
    <path id="STROKE_a031a139-4306-4bfe-aa97-4fcbe1831d59" opacity="1.000" fill="none" stroke="#000000" stroke-width="0.557" stroke-opacity="1.000" stroke-linecap="round" stroke-linejoin="round" d="M 230.754 236.632 Q 230.929 237.039 227.226 242.880 Q 227.252 242.824 227.239 242.295 Q 227.227 241.766 227.177 241.302 Q 227.128 240.837 227.457 240.446 Q 227.787 240.055 228.532 239.568 Q 229.277 239.081 229.705 238.903 Q 230.132 238.725 230.264 238.632 Q 230.396 238.539 231.534 238.504 Q 232.673 238.468 232.712 238.469 "></path>
    <path id="STROKE_96c7c164-8751-4518-a888-d2cb887c005e" opacity="1.000" fill="none" stroke="#000000" stroke-width="0.757" stroke-opacity="1.000" stroke-linecap="round" stroke-linejoin="round" d="M 230.685 236.775 Q 230.709 236.967 230.677 239.328 Q 230.645 241.689 230.664 243.154 Q 230.683 244.619 230.247 245.360 Q 229.811 246.102 229.721 246.190 "></path>
    <path id="STROKE_bb21d039-38cf-4c69-84fe-fd06d971b1b1" opacity="1.000" fill="none" stroke="#000000" stroke-width="0.430" stroke-opacity="1.000" stroke-linecap="round" stroke-linejoin="round" d="M 227.591 244.782 Q 227.561 245.015 227.550 244.448 Q 227.540 243.882 227.675 243.502 Q 227.811 243.123 228.621 242.412 Q 229.431 241.701 230.061 241.221 Q 230.692 240.742 231.268 239.816 Q 231.844 238.891 232.259 238.506 Q 232.674 238.121 233.010 237.777 Q 233.345 237.433 234.457 236.789 Q 235.569 236.146 237.215 236.152 Q 237.222 237.021 237.370 236.956 Q 237.519 236.890 237.153 237.539 Q 236.787 238.189 236.493 238.514 Q 236.199 238.839 235.938 239.062 Q 235.676 239.286 235.551 239.361 Q 235.425 239.435 235.300 239.514 Q 235.175 239.593 234.709 239.630 Q 234.332 239.537 235.328 238.433 Q 236.323 237.328 236.324 237.277 "></path>
    <path id="STROKE_87cc3f7c-4551-48a9-97a8-56df9dc0ab2d" opacity="1.000" fill="none" stroke="#000000" stroke-width="0.479" stroke-opacity="1.000" stroke-linecap="round" stroke-linejoin="round" d="M 234.934 237.943 Q 235.016 238.257 231.973 246.137 Q 232.035 245.857 232.648 244.614 Q 233.262 243.370 234.007 242.307 Q 234.751 241.244 237.060 240.001 Q 236.642 240.235 235.886 241.392 Q 235.130 242.548 234.371 246.331 Q 234.558 246.121 234.473 246.237 Q 234.388 246.353 234.579 246.079 Q 234.771 245.805 234.997 245.471 Q 235.223 245.136 235.245 245.142 Q 235.266 245.147 235.637 244.471 Q 236.008 243.794 238.101 242.625 Q 238.410 242.948 237.460 244.419 Q 236.511 245.891 235.043 246.766 Q 236.078 246.375 235.783 246.446 Q 235.565 246.514 238.602 245.034 "></path>
    <path id="STROKE_9f42785f-20be-4b3a-a02d-d521d98cbea7" opacity="1.000" fill="none" stroke="#000000" stroke-width="0.422" stroke-opacity="1.000" stroke-linecap="round" stroke-linejoin="round" d="M 192.297 289.995 Q 191.983 290.202 192.941 289.610 Q 193.899 289.018 195.304 289.175 Q 195.527 289.370 195.361 290.659 Q 195.195 291.949 194.502 292.552 Q 193.810 293.156 193.283 293.415 Q 192.756 293.674 191.845 293.579 Q 191.918 292.702 196.387 293.015 Q 196.414 292.826 196.439 293.495 Q 196.464 294.163 194.810 296.036 Q 193.156 297.908 190.515 298.728 Q 191.618 296.756 196.405 296.742 Q 201.193 296.728 201.227 296.656 "></path>
    <path id="STROKE_92b4926c-d11b-472e-a0c5-d4befe713676" opacity="1.000" fill="none" stroke="#000000" stroke-width="0.487" stroke-opacity="1.000" stroke-linecap="round" stroke-linejoin="round" d="M 210.905 282.599 Q 210.475 282.452 209.680 282.994 Q 208.885 283.536 208.596 285.129 Q 208.307 286.722 208.800 288.557 Q 209.294 290.392 209.653 292.333 Q 210.013 294.274 209.881 296.183 Q 209.750 298.093 209.044 299.803 Q 208.339 301.513 207.795 302.443 Q 207.250 303.373 206.692 303.832 Q 206.135 304.290 205.506 304.245 Q 205.354 303.937 205.474 303.474 Q 205.594 303.010 206.032 302.768 Q 206.470 302.526 206.928 302.838 Q 207.387 303.150 207.711 304.282 Q 208.036 305.414 208.373 306.727 Q 208.711 308.040 208.450 313.976 Q 208.189 319.911 207.842 322.972 Q 207.495 326.033 207.540 327.678 Q 207.585 329.323 207.574 330.267 Q 207.563 331.210 207.791 331.919 Q 208.019 332.629 208.626 333.200 Q 209.234 333.771 209.872 333.775 Q 210.509 333.778 210.706 333.780 "></path>
    <path id="STROKE_40f6423b-83a9-4060-b449-ba3a640ab64d" opacity="1.000" fill="none" stroke="#000000" stroke-width="0.425" stroke-opacity="1.000" stroke-linecap="round" stroke-linejoin="round" d="M 219.852 283.410 Q 219.872 283.451 219.779 283.470 Q 219.686 283.489 220.112 283.896 Q 220.538 284.303 220.928 284.372 Q 221.318 284.441 221.632 284.883 Q 221.945 285.324 221.945 285.434 "></path>
    <path id="STROKE_3f72b8c9-ee78-4eab-8387-18c88954f242" opacity="1.000" fill="none" stroke="#000000" stroke-width="0.400" stroke-opacity="1.000" stroke-linecap="round" stroke-linejoin="round" d="M 218.272 288.954 Q 217.701 289.264 222.911 285.685 "></path>
    <path id="STROKE_77958b11-ea86-4237-8afe-494a0f076efd" opacity="1.000" fill="none" stroke="#000000" stroke-width="0.402" stroke-opacity="1.000" stroke-linecap="round" stroke-linejoin="round" d="M 223.977 281.252 Q 223.977 281.302 223.975 281.589 Q 223.929 281.932 224.833 281.332 Q 225.737 280.732 226.335 280.516 Q 226.932 280.301 227.169 280.300 Q 227.405 280.299 227.499 280.258 Q 227.593 280.217 227.710 280.350 Q 227.827 280.483 227.886 280.653 Q 227.945 280.822 228.076 281.248 Q 228.206 281.674 228.075 282.601 Q 227.944 283.528 226.605 283.971 Q 226.362 283.520 226.411 283.522 Q 226.397 283.247 226.352 283.100 Q 226.308 282.952 226.257 282.906 Q 226.206 282.860 225.928 282.748 Q 225.649 282.635 225.302 282.894 Q 224.955 283.152 223.437 286.195 Q 224.432 285.744 225.248 284.979 Q 226.065 284.213 227.335 284.318 Q 227.796 284.610 227.195 286.701 Q 227.122 286.718 227.015 286.681 Q 226.908 286.645 226.869 286.573 "></path>
    <path id="STROKE_2274da0c-f5ef-4f2d-a023-b95325ef6774" opacity="1.000" fill="none" stroke="#000000" stroke-width="0.390" stroke-opacity="1.000" stroke-linecap="round" stroke-linejoin="round" d="M 225.000 278.211 Q 224.851 278.478 223.840 281.526 Q 222.829 284.574 222.772 284.646 "></path>
    <path id="STROKE_3aa00dca-6bcf-411a-bb15-6a178de91147" opacity="1.000" fill="none" stroke="#000000" stroke-width="0.390" stroke-opacity="1.000" stroke-linecap="round" stroke-linejoin="round" d="M 220.958 288.111 Q 220.958 288.185 221.004 293.059 "></path>
    <path id="STROKE_bbb1d7fa-02a8-44fc-9c8e-81e827f5b15b" opacity="1.000" fill="none" stroke="#000000" stroke-width="0.509" stroke-opacity="1.000" stroke-linecap="round" stroke-linejoin="round" d="M 222.893 288.445 Q 223.056 288.265 223.579 288.095 Q 224.103 287.926 224.826 288.650 Q 225.548 289.375 225.829 289.748 Q 226.110 290.122 226.238 290.444 Q 226.366 290.766 226.250 291.553 Q 226.070 291.590 225.980 291.589 "></path>
    <path id="STROKE_332620f6-6998-4ad9-aeee-4f56ea8d3524" opacity="1.000" fill="none" stroke="#000000" stroke-width="0.464" stroke-opacity="1.000" stroke-linecap="round" stroke-linejoin="round" d="M 223.275 290.246 Q 222.367 290.556 220.198 295.636 Q 220.487 295.575 221.433 294.257 Q 222.380 292.940 222.973 292.169 Q 223.565 291.398 224.082 291.292 Q 224.599 291.187 225.418 292.311 Q 226.237 293.436 228.903 293.897 "></path>
    <path id="STROKE_a42ba0d7-823a-4508-b006-39dfe28dd4a7" opacity="1.000" fill="none" stroke="#000000" stroke-width="0.393" stroke-opacity="1.000" stroke-linecap="round" stroke-linejoin="round" d="M 232.723 283.598 Q 233.056 283.739 233.523 285.286 Q 233.989 286.834 231.189 288.932 Q 231.132 288.527 232.115 287.831 Q 233.099 287.134 233.172 287.079 "></path>
    <path id="STROKE_464f38ab-e81d-4abc-b70f-4602c53b33ac" opacity="1.000" fill="none" stroke="#000000" stroke-width="0.390" stroke-opacity="1.000" stroke-linecap="round" stroke-linejoin="round" d="M 234.076 279.952 Q 234.234 279.777 234.378 281.997 "></path>
    <path id="STROKE_aeaa10fe-a295-48e8-922b-8d5d06eba11a" opacity="1.000" fill="none" stroke="#000000" stroke-width="0.390" stroke-opacity="1.000" stroke-linecap="round" stroke-linejoin="round" d="M 233.142 284.935 Q 233.918 285.321 234.145 286.469 Q 234.372 287.616 233.873 288.945 Q 233.375 290.275 233.019 290.920 Q 232.663 291.564 231.988 292.305 Q 231.864 292.505 232.308 291.590 "></path>
    <path id="STROKE_b828c77b-ee58-41d2-a96b-322b621fcc6b" opacity="1.000" fill="none" stroke="#000000" stroke-width="0.508" stroke-opacity="1.000" stroke-linecap="round" stroke-linejoin="round" d="M 236.145 280.507 Q 236.013 280.611 236.234 280.394 Q 236.454 280.178 236.784 279.896 Q 237.113 279.614 237.597 279.393 Q 238.081 279.171 238.037 279.107 Q 237.993 279.043 239.400 278.874 Q 240.808 278.706 240.920 278.707 "></path>
    <path id="STROKE_c7bbede4-90ca-4890-8e96-0135a4a400cf" opacity="1.000" fill="none" stroke="#000000" stroke-width="0.390" stroke-opacity="1.000" stroke-linecap="round" stroke-linejoin="round" d="M 238.208 281.736 Q 237.653 282.166 236.505 290.479 "></path>
    <path id="STROKE_d9293dcd-d15e-427e-8e15-6545f24e55a0" opacity="1.000" fill="none" stroke="#000000" stroke-width="0.448" stroke-opacity="1.000" stroke-linecap="round" stroke-linejoin="round" d="M 242.263 280.008 Q 242.404 279.621 241.127 280.428 Q 239.851 281.236 239.306 281.812 Q 238.761 282.388 238.723 282.602 Q 238.685 282.816 238.704 283.068 Q 238.723 283.321 238.721 283.399 Q 238.718 283.476 239.455 285.619 Q 239.494 285.619 239.562 285.620 Q 239.566 285.153 239.631 283.985 Q 239.696 282.817 242.774 281.767 Q 242.961 281.954 242.809 282.870 Q 242.657 283.786 241.180 284.415 Q 241.031 284.420 241.366 283.555 Q 241.868 283.712 241.651 288.859 Q 242.028 288.984 239.125 289.365 Q 238.808 288.285 239.804 287.428 Q 240.801 286.571 241.604 286.377 Q 242.406 286.183 243.024 286.192 Q 243.641 286.200 243.695 286.269 Q 243.749 286.338 243.721 286.242 Q 243.692 286.146 244.074 286.887 Q 244.007 286.908 243.939 286.907 "></path>
    <path id="STROKE_be4856f2-52ba-4089-adcb-f167452d3ab1" opacity="1.000" fill="none" stroke="#000000" stroke-width="0.464" stroke-opacity="1.000" stroke-linecap="round" stroke-linejoin="round" d="M 236.936 280.014 Q 237.313 280.341 236.134 292.013 "></path>
    <path id="STROKE_74b84138-f710-4973-98fb-41299c02b56c" opacity="1.000" fill="none" stroke="#000000" stroke-width="0.423" stroke-opacity="1.000" stroke-linecap="round" stroke-linejoin="round" d="M 175.557 199.006 Q 175.786 198.672 178.447 199.743 "></path>
    <path id="STROKE_7694c3c7-7bd0-47f4-a36d-6e0d4f759667" opacity="1.000" fill="none" stroke="#000000" stroke-width="0.413" stroke-opacity="1.000" stroke-linecap="round" stroke-linejoin="round" d="M 175.131 203.773 Q 175.451 203.360 176.300 203.079 Q 177.149 202.797 178.014 202.935 Q 179.161 203.390 174.659 210.371 Q 175.185 210.089 176.342 209.121 Q 177.499 208.154 181.578 207.978 "></path>
    <path id="STROKE_035107dc-ed39-4c44-8f77-57a2c154c85f" opacity="1.000" fill="none" stroke="#000000" stroke-width="0.446" stroke-opacity="1.000" stroke-linecap="round" stroke-linejoin="round" d="M 192.509 183.461 Q 191.928 183.401 192.048 183.424 Q 191.412 183.540 190.694 186.137 Q 189.976 188.734 190.247 191.712 Q 190.517 194.689 190.865 196.202 Q 191.213 197.716 190.922 198.767 Q 190.631 199.817 190.352 200.165 Q 190.073 200.512 189.906 200.723 Q 189.740 200.933 189.498 201.142 Q 189.255 201.351 189.182 201.381 Q 189.109 201.411 189.262 201.385 Q 189.415 201.358 188.378 201.566 Q 188.243 201.503 189.222 202.511 Q 190.202 203.520 190.954 205.932 Q 191.705 208.344 191.908 210.987 Q 192.112 213.630 192.119 216.560 Q 192.126 219.490 192.137 221.137 Q 192.149 222.784 192.429 223.666 Q 192.710 224.549 193.490 225.283 Q 194.271 226.017 195.034 225.951 Q 195.798 225.886 196.085 225.888 "></path>
    <path id="STROKE_2bbe0825-e166-45ec-a9c1-293de57f8e16" opacity="1.000" fill="none" stroke="#000000" stroke-width="0.394" stroke-opacity="1.000" stroke-linecap="round" stroke-linejoin="round" d="M 198.199 187.982 Q 198.256 187.826 198.794 187.949 Q 199.332 188.072 199.599 188.305 Q 199.865 188.539 199.943 188.828 Q 200.022 189.117 200.060 189.278 "></path>
    <path id="STROKE_a1d566d1-f93a-475e-b2c0-f7044a190854" opacity="1.000" fill="none" stroke="#000000" stroke-width="0.394" stroke-opacity="1.000" stroke-linecap="round" stroke-linejoin="round" d="M 197.669 193.212 Q 197.779 193.146 198.666 192.529 Q 199.552 191.912 199.716 191.791 "></path>
    <path id="STROKE_22b91988-fef5-497b-a962-7b0def9a1aa8" opacity="1.000" fill="none" stroke="#000000" stroke-width="0.401" stroke-opacity="1.000" stroke-linecap="round" stroke-linejoin="round" d="M 202.138 188.397 Q 202.024 188.839 201.932 189.260 Q 201.839 189.681 201.730 190.369 Q 201.985 189.345 205.592 188.049 Q 205.813 188.247 205.844 188.853 Q 205.874 189.460 205.684 190.053 Q 205.494 190.646 204.639 190.731 Q 204.603 190.363 204.363 189.909 Q 204.123 189.456 203.952 189.428 Q 203.781 189.401 203.849 189.403 Q 203.916 189.406 203.660 189.419 Q 203.404 189.432 202.514 190.481 Q 201.623 191.530 200.923 193.192 Q 201.272 193.356 202.069 192.711 Q 202.865 192.067 203.998 191.730 Q 205.131 191.394 205.933 193.369 "></path>
    <path id="STROKE_284736f6-fb8b-4087-9d6b-da5b2ed312d6" opacity="1.000" fill="none" stroke="#000000" stroke-width="0.460" stroke-opacity="1.000" stroke-linecap="round" stroke-linejoin="round" d="M 202.984 184.781 Q 203.544 185.134 201.837 191.265 "></path>
    <path id="STROKE_331fa834-d8a1-4a73-aa18-c066b165f540" opacity="1.000" fill="none" stroke="#000000" stroke-width="0.509" stroke-opacity="1.000" stroke-linecap="round" stroke-linejoin="round" d="M 198.596 194.257 Q 198.676 194.172 198.848 195.809 Q 199.019 197.446 199.036 197.552 "></path>
    <path id="STROKE_051d2121-3065-4ad8-93f8-29a74d5d434d" opacity="1.000" fill="none" stroke="#000000" stroke-width="0.545" stroke-opacity="1.000" stroke-linecap="round" stroke-linejoin="round" d="M 200.554 194.481 Q 200.587 194.349 201.356 194.025 Q 202.125 193.700 202.691 193.780 Q 203.257 193.860 203.520 195.965 Q 203.784 198.070 203.783 198.268 "></path>
    <path id="STROKE_4370eeb3-ca9a-4d8b-b767-7ac92a6eadbd" opacity="1.000" fill="none" stroke="#000000" stroke-width="0.481" stroke-opacity="1.000" stroke-linecap="round" stroke-linejoin="round" d="M 201.329 196.386 Q 201.594 195.755 199.337 199.597 Q 199.375 199.551 199.835 199.232 Q 200.296 198.913 200.793 198.705 Q 201.290 198.498 202.244 199.238 Q 203.198 199.978 203.909 200.599 Q 204.621 201.220 205.392 201.105 Q 206.163 200.990 206.344 200.902 "></path>
    <path id="STROKE_e8b4ea5e-b028-4448-9618-b2681bbe06c3" opacity="1.000" fill="none" stroke="#000000" stroke-width="0.483" stroke-opacity="1.000" stroke-linecap="round" stroke-linejoin="round" d="M 210.434 188.926 Q 210.583 188.278 210.579 188.331 Q 210.161 188.175 211.582 188.123 Q 211.804 188.355 211.749 189.495 Q 211.695 190.635 211.603 190.867 "></path>
    <path id="STROKE_ce41c5d5-a709-411b-af3a-1815687851ee" opacity="1.000" fill="none" stroke="#000000" stroke-width="0.435" stroke-opacity="1.000" stroke-linecap="round" stroke-linejoin="round" d="M 210.761 193.799 Q 210.986 193.643 211.399 194.635 Q 211.812 195.627 211.668 196.574 Q 211.523 197.521 211.155 198.331 Q 210.786 199.141 210.076 200.210 Q 210.434 199.743 210.501 199.672 Q 210.569 199.601 210.726 199.425 Q 210.882 199.249 210.967 199.142 Q 211.052 199.035 211.212 198.843 Q 211.372 198.650 211.472 198.533 Q 211.572 198.416 211.703 198.205 Q 211.833 197.994 212.329 197.243 Q 212.825 196.492 213.311 194.944 Q 213.797 193.395 213.990 192.410 Q 214.184 191.425 214.449 190.814 Q 214.715 190.202 216.269 189.817 Q 217.824 189.432 220.015 189.168 "></path>
    <path id="STROKE_49a74e02-3265-4d91-8d39-09ee78022e08" opacity="1.000" fill="none" stroke="#000000" stroke-width="0.587" stroke-opacity="1.000" stroke-linecap="round" stroke-linejoin="round" d="M 215.537 190.319 Q 216.031 191.084 213.357 201.346 "></path>
    <path id="STROKE_40dad037-9de2-4710-b202-c7c184087342" opacity="1.000" fill="none" stroke="#000000" stroke-width="0.483" stroke-opacity="1.000" stroke-linecap="round" stroke-linejoin="round" d="M 218.282 192.347 Q 218.283 192.254 218.268 191.933 Q 218.030 191.723 215.277 194.686 Q 215.214 194.923 216.141 196.739 Q 216.238 196.778 216.240 196.752 Q 216.241 196.726 216.217 196.819 Q 216.194 196.912 216.217 196.855 Q 216.240 196.798 216.433 196.483 Q 216.626 196.167 216.738 195.847 Q 216.851 195.528 216.854 195.492 Q 216.857 195.456 216.892 195.388 Q 216.927 195.320 216.993 194.928 Q 217.059 194.535 217.473 193.950 Q 217.888 193.364 218.203 193.255 Q 218.518 193.146 218.496 193.166 Q 218.475 193.186 218.901 193.073 Q 219.327 192.960 219.798 193.044 Q 220.270 193.128 220.126 193.102 Q 219.982 193.076 220.293 193.483 Q 220.604 193.891 220.225 194.569 Q 219.846 195.247 219.117 195.554 Q 218.389 195.862 217.290 195.818 Q 217.399 195.321 217.473 195.439 Q 217.978 195.087 217.903 195.172 Q 217.841 195.131 218.580 194.966 Q 218.549 195.808 218.542 195.552 Q 218.229 196.157 218.291 196.019 Q 217.820 196.380 217.974 197.500 Q 218.127 198.619 218.048 202.897 Q 218.082 202.999 217.299 202.855 Q 216.515 202.710 215.862 202.082 Q 215.209 201.454 214.903 201.060 Q 214.598 200.665 214.612 200.493 Q 214.627 200.320 214.560 200.212 Q 214.492 200.104 214.951 199.663 Q 215.409 199.222 216.504 198.789 Q 217.599 198.356 218.937 198.271 Q 220.275 198.185 220.900 198.240 Q 221.525 198.295 221.977 198.446 Q 222.429 198.596 222.835 198.918 Q 223.241 199.239 223.314 199.328 "></path>
    <path id="STROKE_155772c6-90b5-41fa-a078-6f56865ee435" opacity="1.000" fill="none" stroke="#000000" stroke-width="0.428" stroke-opacity="1.000" stroke-linecap="round" stroke-linejoin="round" d="M 49.957 306.154 Q 50.135 306.007 55.611 304.394 "></path>
    <path id="STROKE_ff2a4699-3700-4201-93e0-dc4a9fe782e4" opacity="1.000" fill="none" stroke="#000000" stroke-width="0.392" stroke-opacity="1.000" stroke-linecap="round" stroke-linejoin="round" d="M 49.575 309.342 Q 49.760 309.311 55.422 307.407 "></path>
    <path id="STROKE_b80f9976-94c0-41b9-8ed5-25dbba63c43e" opacity="1.000" fill="none" stroke="#000000" stroke-width="0.470" stroke-opacity="1.000" stroke-linecap="round" stroke-linejoin="round" d="M 53.973 308.401 Q 53.477 308.818 53.067 309.571 Q 52.656 310.324 52.402 311.036 Q 52.148 311.749 51.439 313.508 Q 51.700 313.818 53.311 312.932 Q 54.923 312.046 55.064 311.920 "></path>
    <path id="STROKE_e0af28df-0e70-4a1c-aa25-b1598a070b42" opacity="1.000" fill="none" stroke="#000000" stroke-width="0.397" stroke-opacity="1.000" stroke-linecap="round" stroke-linejoin="round" d="M 55.324 310.133 Q 55.145 310.218 57.767 313.551 "></path>
    <path id="STROKE_b117c431-de7d-409a-be64-d9f38aa2825c" opacity="1.000" fill="none" stroke="#000000" stroke-width="0.393" stroke-opacity="1.000" stroke-linecap="round" stroke-linejoin="round" d="M 60.475 304.503 Q 60.498 304.760 60.486 308.224 Q 60.473 311.689 59.389 315.267 Q 59.442 315.288 58.871 315.281 "></path>
    <path id="STROKE_0eb985d5-5b71-42e0-98f1-6e10d7bcc6b5" opacity="1.000" fill="none" stroke="#000000" stroke-width="0.480" stroke-opacity="1.000" stroke-linecap="round" stroke-linejoin="round" d="M 58.307 308.642 Q 58.627 308.289 59.545 307.684 Q 60.462 307.078 61.214 306.902 Q 61.967 306.726 62.925 307.018 Q 63.884 307.311 64.607 309.185 Q 65.330 311.059 64.600 314.028 Q 63.960 314.049 64.003 313.705 Q 64.047 313.361 64.031 313.239 "></path>
    <path id="STROKE_35ee606f-0a9e-4c0a-9747-c0ea67d4bb0d" opacity="1.000" fill="none" stroke="#000000" stroke-width="0.432" stroke-opacity="1.000" stroke-linecap="round" stroke-linejoin="round" d="M 68.110 302.866 Q 68.934 303.040 68.815 303.020 Q 68.695 302.999 68.805 303.164 Q 68.915 303.330 69.004 303.809 "></path>
    <path id="STROKE_5cf6d33d-f705-4340-8611-7ceb3065572e" opacity="1.000" fill="none" stroke="#000000" stroke-width="0.621" stroke-opacity="1.000" stroke-linecap="round" stroke-linejoin="round" d="M 68.692 306.711 Q 69.518 306.892 70.467 314.067 Q 70.941 314.317 71.798 313.667 Q 72.655 313.017 73.193 311.995 Q 73.731 310.974 73.856 310.688 "></path>
    <path id="STROKE_f841a035-ac04-43fd-bfb3-30ec4232d2df" opacity="1.000" fill="none" stroke="#000000" stroke-width="0.697" stroke-opacity="1.000" stroke-linecap="round" stroke-linejoin="round" d="M 71.919 305.728 Q 72.116 305.149 73.273 304.229 Q 74.429 303.309 75.246 302.979 Q 76.062 302.650 77.028 302.589 Q 77.994 302.528 78.640 304.618 Q 79.285 306.709 79.724 308.679 Q 80.162 310.649 80.339 311.712 Q 80.516 312.776 79.893 313.987 Q 79.117 313.982 79.251 313.983 Q 78.729 313.980 78.767 313.980 "></path>
    <path id="STROKE_a1ea50e9-5c8e-4034-a26f-205ce238aa68" opacity="1.000" fill="none" stroke="#000000" stroke-width="0.581" stroke-opacity="1.000" stroke-linecap="round" stroke-linejoin="round" d="M 74.409 307.248 Q 74.413 306.656 74.412 306.779 Q 74.803 305.968 76.837 306.293 Q 77.011 306.686 77.010 307.659 Q 77.009 308.631 76.458 309.302 Q 75.906 309.972 74.572 309.777 Q 74.270 309.488 74.758 308.898 Q 75.247 308.309 75.858 308.220 Q 76.469 308.131 76.693 308.297 Q 76.916 308.462 76.911 308.550 Q 76.906 308.638 76.903 308.727 Q 76.900 308.815 77.026 309.118 Q 77.152 309.421 76.833 310.005 Q 76.515 310.589 76.052 311.077 Q 75.590 311.564 74.919 311.767 Q 74.783 311.927 77.150 309.917 "></path>
    <path id="STROKE_8f1837a7-0f47-4c8c-8c5f-a891b8cf3754" opacity="1.000" fill="none" stroke="#000000" stroke-width="0.529" stroke-opacity="1.000" stroke-linecap="round" stroke-linejoin="round" d="M 74.790 309.116 Q 74.651 309.725 74.929 310.756 Q 75.206 311.786 75.278 311.947 "></path>
    <path id="STROKE_edfbc4c4-6607-4043-bf12-fa7f6f0f90f6" opacity="1.000" fill="none" stroke="#000000" stroke-width="0.679" stroke-opacity="1.000" stroke-linecap="round" stroke-linejoin="round" d="M 55.238 327.978 Q 55.648 328.145 58.724 327.100 Q 61.799 326.055 61.872 326.022 "></path>
    <path id="STROKE_7e6e39ae-2b31-482b-a9ec-e6b3fd2cf3cc" opacity="1.000" fill="none" stroke="#000000" stroke-width="0.520" stroke-opacity="1.000" stroke-linecap="round" stroke-linejoin="round" d="M 58.910 324.390 Q 58.803 324.893 59.035 326.862 Q 59.267 328.831 59.250 330.212 Q 59.233 331.592 59.007 332.265 Q 58.781 332.938 58.481 332.999 Q 58.181 333.060 57.839 332.952 Q 57.496 332.844 57.361 332.635 Q 57.226 332.426 57.083 332.053 Q 56.940 331.680 56.893 331.501 Q 56.846 331.322 56.815 331.013 Q 56.785 330.704 56.792 330.569 Q 56.799 330.433 56.797 330.483 Q 57.021 330.332 57.440 330.179 Q 57.859 330.026 57.949 329.972 "></path>
    <path id="STROKE_757aadec-7acc-4146-8067-368555a2c811" opacity="1.000" fill="none" stroke="#000000" stroke-width="0.394" stroke-opacity="1.000" stroke-linecap="round" stroke-linejoin="round" d="M 52.040 324.554 Q 52.039 324.643 52.039 324.732 "></path>
    <path id="STROKE_792c72ae-8715-44c1-9ef5-407d4f05b144" opacity="1.000" fill="none" stroke="#000000" stroke-width="0.618" stroke-opacity="1.000" stroke-linecap="round" stroke-linejoin="round" d="M 52.810 327.210 Q 52.397 327.286 54.600 335.723 Q 54.701 335.864 55.677 335.586 Q 56.653 335.308 61.104 335.265 Q 65.555 335.223 65.752 335.191 "></path>
    <path id="STROKE_75d73924-f855-4464-85d7-74b33cff6e0c" opacity="1.000" fill="none" stroke="#000000" stroke-width="0.471" stroke-opacity="1.000" stroke-linecap="round" stroke-linejoin="round" d="M 67.614 322.903 Q 67.658 322.683 65.190 328.298 Q 65.196 328.084 65.291 327.662 Q 65.387 327.239 65.124 326.382 Q 65.115 326.309 65.382 326.250 Q 65.649 326.191 65.666 326.191 "></path>
    <path id="STROKE_64babd03-e6d9-4747-ae59-73cf80e5f438" opacity="1.000" fill="none" stroke="#000000" stroke-width="0.768" stroke-opacity="1.000" stroke-linecap="round" stroke-linejoin="round" d="M 64.997 330.239 Q 65.124 330.090 69.761 328.439 "></path>
    <path id="STROKE_52127506-9ae1-4fd7-a4ef-f205f861fa8c" opacity="1.000" fill="none" stroke="#000000" stroke-width="0.559" stroke-opacity="1.000" stroke-linecap="round" stroke-linejoin="round" d="M 67.876 327.455 Q 67.779 327.615 67.666 334.393 Q 67.241 334.418 67.272 334.407 Q 66.603 334.198 66.739 334.172 Q 66.707 334.126 66.339 333.733 Q 65.972 333.340 65.656 332.924 Q 65.340 332.508 65.968 331.982 Q 66.595 331.456 67.836 330.501 Q 69.076 329.546 69.598 328.787 Q 70.119 328.028 70.227 327.834 "></path>
    <path id="STROKE_038c179e-1351-45de-b1c3-5cc644ef9d44" opacity="1.000" fill="none" stroke="#000000" stroke-width="0.452" stroke-opacity="1.000" stroke-linecap="round" stroke-linejoin="round" d="M 71.152 324.253 Q 70.978 324.624 71.845 323.474 Q 72.711 322.325 73.350 321.848 Q 73.989 321.372 74.383 321.300 Q 74.777 321.228 74.996 321.277 Q 75.215 321.326 75.365 322.086 Q 75.515 322.846 75.165 323.636 Q 74.815 324.425 74.581 324.963 Q 74.347 325.500 73.048 326.131 Q 72.869 325.918 73.326 325.205 Q 73.784 324.492 74.785 323.834 Q 75.786 323.176 76.812 323.269 Q 76.845 323.430 76.843 323.700 Q 76.841 323.970 76.840 324.114 "></path>
    <path id="STROKE_ddbd6781-c0a1-4b04-b41e-588bea96d36e" opacity="1.000" fill="none" stroke="#000000" stroke-width="0.579" stroke-opacity="1.000" stroke-linecap="round" stroke-linejoin="round" d="M 73.380 327.923 Q 73.549 327.815 73.123 328.118 Q 72.697 328.420 72.091 328.708 Q 72.062 328.501 75.511 327.456 Q 75.543 328.030 75.507 328.030 Q 75.358 328.606 73.756 330.576 Q 74.260 330.438 75.530 328.013 Q 75.396 328.602 75.363 328.582 Q 75.268 328.719 74.944 329.781 Q 74.621 330.844 72.232 332.862 Q 73.135 332.862 73.099 332.834 Q 73.645 332.781 76.437 331.691 Q 79.229 330.601 79.229 330.546 "></path>
    <path id="STROKE_f32d8b44-b108-425c-bc39-a520dc85ec59" opacity="1.000" fill="none" stroke="#000000" stroke-width="0.541" stroke-opacity="1.000" stroke-linecap="round" stroke-linejoin="round" d="M 73.466 325.096 Q 73.146 324.970 73.794 327.016 Q 74.442 329.061 74.475 329.188 "></path>
    <path id="STROKE_9bc682a0-eb81-4229-a43a-8bc23f43fd76" opacity="1.000" fill="none" stroke="#000000" stroke-width="0.410" stroke-opacity="1.000" stroke-linecap="round" stroke-linejoin="round" d="M 54.341 324.072 Q 54.129 323.795 56.225 325.157 "></path>
    <path id="STROKE_aceb48d8-d192-41be-8c18-5df89c9ad8d1" opacity="1.000" fill="none" stroke="#000000" stroke-width="0.432" stroke-opacity="1.000" stroke-linecap="round" stroke-linejoin="round" d="M 51.769 327.997 Q 51.782 327.830 52.835 327.932 Q 53.889 328.034 55.275 329.092 "></path>
  </g>
</svg>