<?xml version="1.0" encoding="UTF-8" standalone="yes"?>
<svg xmlns="http://www.w3.org/2000/svg" xmlns:xlink="http://www.w3.org/1999/xlink" width="91.574mm" height="130.505mm" version="1.1" viewBox="2006.229 3676.174 475.899 678.217">
  <!--
	Exported with Concepts: Smarter Sketching
	Version: 1044 on iOS 15.1
	https://concepts.app/
	-->
  <title>思维逻缉与语言结构</title>
  <desc>Drawing exported from Concepts: Smarter Sketching</desc>
  <defs></defs>
  <g id="主体" opacity="1.000">
    <path id="STROKE_853b6bcd-9266-4ec6-84b1-be15c8dd911c" opacity="1.000" fill="none" stroke="#000000" stroke-width="1.591" stroke-opacity="1.000" stroke-linecap="round" stroke-linejoin="round" d="M 2143.122 3686.574 Q 2143.905 3686.580 2141.209 3686.561 Q 2143.474 3688.174 2142.987 3687.812 Q 2148.241 3688.784 2148.986 3693.333 Q 2149.730 3697.881 2149.597 3698.782 "></path>
    <path id="STROKE_754d2150-fc7c-41e7-be95-1901735c54dc" opacity="1.000" fill="none" stroke="#000000" stroke-width="1.406" stroke-opacity="1.000" stroke-linecap="round" stroke-linejoin="round" d="M 2134.787 3716.552 Q 2134.730 3716.552 2134.674 3716.551 Q 2134.446 3714.885 2135.956 3713.261 Q 2137.465 3711.637 2142.887 3711.069 Q 2144.966 3711.258 2144.755 3736.498 Q 2146.466 3736.598 2146.360 3736.452 Q 2148.726 3736.823 2153.036 3728.650 Q 2157.345 3720.477 2158.188 3718.625 "></path>
    <path id="STROKE_89daf9d8-dbe9-4213-b68d-9081c797082c" opacity="1.000" fill="none" stroke="#000000" stroke-width="1.591" stroke-opacity="1.000" stroke-linecap="round" stroke-linejoin="round" d="M 2165.173 3692.692 Q 2165.090 3691.640 2164.885 3691.658 Q 2166.659 3690.145 2166.572 3690.387 Q 2166.485 3690.629 2167.227 3690.501 Q 2167.968 3690.374 2168.023 3690.463 Q 2168.079 3690.553 2170.287 3690.296 Q 2172.494 3690.039 2172.736 3689.740 "></path>
    <path id="STROKE_781bb871-55f4-462e-a8da-e193982a818e" opacity="1.000" fill="none" stroke="#000000" stroke-width="1.254" stroke-opacity="1.000" stroke-linecap="round" stroke-linejoin="round" d="M 2172.482 3689.851 Q 2170.186 3690.249 2170.296 3707.284 Q 2170.406 3724.320 2170.332 3724.788 "></path>
    <path id="STROKE_90911172-3458-4633-b156-3455421c6450" opacity="1.000" fill="none" stroke="#000000" stroke-width="1.388" stroke-opacity="1.000" stroke-linecap="round" stroke-linejoin="round" d="M 2166.757 3708.321 Q 2166.461 3708.298 2165.435 3708.199 Q 2165.454 3708.667 2168.586 3707.082 Q 2171.718 3705.498 2177.876 3705.824 Q 2179.823 3709.270 2176.761 3715.066 Q 2173.698 3720.862 2170.516 3724.376 Q 2167.334 3727.890 2161.779 3728.616 Q 2160.535 3726.593 2165.097 3722.111 Q 2169.659 3717.628 2174.212 3714.799 Q 2178.765 3711.970 2187.109 3711.743 Q 2187.163 3712.100 2186.827 3712.896 Q 2186.491 3713.691 2185.825 3714.269 "></path>
    <path id="STROKE_07bfd7e1-08b8-4049-906b-95ec5585b1d3" opacity="1.000" fill="none" stroke="#000000" stroke-width="1.496" stroke-opacity="1.000" stroke-linecap="round" stroke-linejoin="round" d="M 2172.330 3728.969 Q 2171.131 3729.686 2162.920 3742.984 Q 2162.174 3742.207 2164.516 3738.423 Q 2166.859 3734.639 2168.582 3732.374 Q 2170.304 3730.108 2171.166 3729.461 Q 2172.028 3728.814 2173.417 3727.978 Q 2174.807 3727.141 2176.185 3726.994 Q 2177.564 3726.847 2179.293 3727.233 Q 2182.982 3731.358 2167.244 3740.385 Q 2168.001 3740.127 2175.953 3737.131 Q 2183.904 3734.134 2184.738 3733.595 "></path>
    <path id="STROKE_4fcfd866-2b99-4833-b8b6-52ff8beb4e38" opacity="1.000" fill="none" stroke="#000000" stroke-width="1.217" stroke-opacity="1.000" stroke-linecap="round" stroke-linejoin="round" d="M 2210.524 3686.654 Q 2210.582 3686.485 2210.642 3685.941 Q 2210.969 3686.264 2203.528 3706.270 Q 2196.087 3726.276 2195.530 3727.586 "></path>
    <path id="STROKE_8b58a0d5-4f5a-4da5-ae81-b011fa220785" opacity="1.000" fill="none" stroke="#000000" stroke-width="1.402" stroke-opacity="1.000" stroke-linecap="round" stroke-linejoin="round" d="M 2201.043 3707.125 Q 2200.450 3707.124 2199.970 3707.569 Q 2199.912 3707.921 2204.142 3705.260 Q 2208.373 3702.599 2212.232 3701.572 Q 2216.091 3700.545 2218.025 3701.085 Q 2219.958 3701.625 2222.956 3706.598 Q 2225.954 3711.571 2227.473 3719.285 Q 2228.992 3727.000 2228.964 3732.936 Q 2228.936 3738.872 2228.725 3741.411 Q 2228.513 3743.949 2228.141 3744.702 Q 2227.769 3745.454 2226.556 3746.307 Q 2225.343 3747.160 2224.140 3746.028 Q 2222.938 3744.896 2221.211 3742.019 Q 2219.486 3739.142 2218.651 3737.766 "></path>
    <path id="STROKE_61b9beed-bf06-4744-a8a6-5491303ebdb3" opacity="1.000" fill="none" stroke="#000000" stroke-width="1.499" stroke-opacity="1.000" stroke-linecap="round" stroke-linejoin="round" d="M 2209.112 3716.603 Q 2208.009 3716.572 2207.173 3737.088 Q 2207.515 3737.283 2207.243 3733.697 Q 2206.970 3730.110 2206.873 3727.734 Q 2206.775 3725.358 2208.023 3723.372 Q 2209.272 3721.386 2216.812 3718.307 Q 2218.289 3720.607 2210.062 3734.254 Q 2212.025 3733.174 2219.076 3730.896 Q 2226.128 3728.619 2227.216 3728.025 "></path>
    <path id="STROKE_01968136-25e4-44f7-87fb-ba592c7ca6d2" opacity="1.000" fill="none" stroke="#000000" stroke-width="1.591" stroke-opacity="1.000" stroke-linecap="round" stroke-linejoin="round" d="M 2256.796 3698.529 Q 2256.807 3696.883 2256.808 3696.749 Q 2256.809 3696.615 2256.807 3696.934 Q 2256.808 3696.821 2256.808 3696.764 Q 2257.132 3697.178 2257.582 3698.298 Q 2258.031 3699.418 2257.895 3699.110 Q 2257.759 3698.802 2257.906 3699.128 Q 2258.052 3699.455 2258.199 3699.777 Q 2258.346 3700.100 2258.364 3700.076 Q 2258.382 3700.051 2258.440 3700.138 Q 2258.499 3700.225 2258.655 3700.576 Q 2258.810 3700.927 2258.945 3701.528 Q 2259.079 3702.130 2259.048 3701.733 Q 2259.017 3701.336 2259.312 3707.350 Q 2259.606 3713.364 2258.477 3718.037 Q 2257.348 3722.709 2256.044 3725.495 Q 2254.740 3728.281 2252.623 3733.115 Q 2252.604 3733.181 2252.551 3733.200 Q 2252.498 3733.219 2253.531 3731.109 Q 2254.564 3728.999 2255.049 3728.101 "></path>
    <path id="STROKE_3372fab4-7aaf-42f2-a1da-ef2c48d42c84" opacity="1.000" fill="none" stroke="#000000" stroke-width="1.317" stroke-opacity="1.000" stroke-linecap="round" stroke-linejoin="round" d="M 2268.885 3696.245 Q 2268.885 3696.189 2268.888 3695.757 Q 2269.464 3695.272 2267.737 3724.620 Q 2267.681 3724.465 2268.438 3722.811 Q 2269.195 3721.157 2269.793 3720.091 "></path>
    <path id="STROKE_31ef673b-1d4a-4ee4-9a58-372b89d420e7" opacity="1.000" fill="none" stroke="#000000" stroke-width="1.222" stroke-opacity="1.000" stroke-linecap="round" stroke-linejoin="round" d="M 2279.668 3691.438 Q 2279.830 3692.700 2275.096 3730.864 Q 2275.279 3730.809 2275.612 3730.482 Q 2275.945 3730.156 2276.427 3729.559 "></path>
    <path id="STROKE_a4374b56-eb02-4b7d-bc59-169c89037f34" opacity="1.000" fill="none" stroke="#000000" stroke-width="1.591" stroke-opacity="1.000" stroke-linecap="round" stroke-linejoin="round" d="M 2283.228 3697.656 Q 2283.213 3696.965 2287.097 3693.986 Q 2290.981 3691.006 2295.751 3691.584 Q 2295.472 3691.332 2296.115 3692.773 Q 2296.759 3694.215 2292.550 3697.069 Q 2288.342 3699.923 2285.915 3702.208 Q 2283.488 3704.492 2282.410 3704.957 Q 2281.332 3705.422 2281.310 3708.678 Q 2281.287 3711.933 2281.307 3715.401 Q 2281.260 3716.037 2282.917 3712.909 Q 2284.573 3709.781 2285.513 3707.936 Q 2286.453 3706.090 2287.495 3705.376 Q 2288.537 3704.662 2289.574 3704.916 Q 2290.611 3705.170 2290.516 3705.256 Q 2290.422 3705.342 2290.299 3704.811 Q 2290.176 3704.280 2292.097 3707.241 Q 2294.019 3710.203 2294.151 3715.919 Q 2294.015 3715.982 2293.428 3715.975 Q 2292.842 3715.967 2292.308 3715.963 "></path>
    <path id="STROKE_39fc6dba-97ca-4a6c-b175-da0118a3ee11" opacity="1.000" fill="none" stroke="#000000" stroke-width="1.421" stroke-opacity="1.000" stroke-linecap="round" stroke-linejoin="round" d="M 2290.067 3710.204 Q 2290.068 3710.091 2290.070 3709.753 Q 2286.863 3714.223 2281.216 3728.878 Q 2281.663 3728.109 2292.822 3716.905 Q 2293.766 3716.814 2294.154 3719.998 Q 2294.541 3723.182 2295.135 3725.123 Q 2295.730 3727.064 2296.528 3728.659 Q 2297.326 3730.253 2298.499 3729.984 Q 2299.673 3729.716 2300.321 3729.607 "></path>
    <path id="STROKE_5780ce99-bfa7-40cb-8aae-448a683ebd60" opacity="1.000" fill="none" stroke="#000000" stroke-width="1.591" stroke-opacity="1.000" stroke-linecap="round" stroke-linejoin="round" d="M 2318.409 3688.958 Q 2320.122 3687.639 2319.572 3687.901 Q 2319.021 3688.164 2320.000 3687.808 Q 2320.980 3687.452 2321.955 3687.597 Q 2322.930 3687.741 2322.983 3687.708 Q 2323.036 3687.674 2323.659 3688.485 Q 2324.283 3689.297 2324.363 3690.331 Q 2324.444 3691.364 2324.496 3691.965 "></path>
    <path id="STROKE_b343117a-b35e-47a0-9a53-0392411830db" opacity="1.000" fill="none" stroke="#000000" stroke-width="1.475" stroke-opacity="1.000" stroke-linecap="round" stroke-linejoin="round" d="M 2317.017 3699.311 Q 2315.749 3699.728 2316.015 3699.717 Q 2315.944 3699.848 2315.944 3699.904 Q 2315.764 3699.999 2325.054 3696.166 Q 2334.344 3692.332 2334.653 3692.409 "></path>
    <path id="STROKE_ad377991-8925-49b8-acb1-86d3b3d45179" opacity="1.000" fill="none" stroke="#000000" stroke-width="1.259" stroke-opacity="1.000" stroke-linecap="round" stroke-linejoin="round" d="M 2323.490 3699.354 Q 2321.725 3699.830 2318.527 3708.064 Q 2315.330 3716.299 2313.951 3730.300 Q 2314.430 3730.303 2314.910 3730.100 Q 2315.389 3729.897 2315.997 3729.488 "></path>
    <path id="STROKE_ecd537b6-1b31-45e8-843e-c22e9a1e4ec7" opacity="1.000" fill="none" stroke="#000000" stroke-width="1.535" stroke-opacity="1.000" stroke-linecap="round" stroke-linejoin="round" d="M 2324.290 3705.817 Q 2323.101 3704.165 2333.223 3699.908 Q 2335.165 3703.542 2323.297 3711.142 Q 2322.134 3709.692 2331.575 3704.290 Q 2332.364 3703.626 2331.423 3707.339 Q 2330.482 3711.052 2324.565 3715.092 Q 2325.649 3712.562 2328.414 3712.772 Q 2331.179 3712.982 2333.404 3714.814 Q 2333.406 3714.513 2333.353 3714.091 Q 2333.299 3713.668 2333.190 3713.123 "></path>
    <path id="STROKE_f5053ae8-2994-4c96-8017-7e8e790b8edd" opacity="1.000" fill="none" stroke="#000000" stroke-width="1.477" stroke-opacity="1.000" stroke-linecap="round" stroke-linejoin="round" d="M 2332.970 3712.408 Q 2331.444 3712.079 2331.649 3712.174 Q 2330.767 3714.473 2330.973 3714.365 Q 2331.446 3712.897 2328.685 3734.342 Q 2328.756 3735.373 2325.120 3733.604 Q 2321.483 3731.834 2320.770 3731.172 "></path>
    <path id="STROKE_3f86c5a6-eb4f-47fc-a0ae-e810f6f09f7c" opacity="1.000" fill="none" stroke="#000000" stroke-width="1.234" stroke-opacity="1.000" stroke-linecap="round" stroke-linejoin="round" d="M 2021.194 3688.379 Q 2021.195 3688.248 2021.199 3687.666 Q 2022.098 3688.128 2022.038 3705.188 Q 2021.979 3722.248 2021.921 3722.473 "></path>
    <path id="STROKE_8adc6bd7-d301-467b-8fdc-bcc1fc8d8d8a" opacity="1.000" fill="none" stroke="#000000" stroke-width="1.385" stroke-opacity="1.000" stroke-linecap="round" stroke-linejoin="round" d="M 2018.306 3690.988 Q 2017.990 3689.485 2021.771 3688.159 Q 2025.552 3686.833 2027.900 3686.116 Q 2030.248 3685.399 2032.416 3685.632 Q 2034.583 3685.864 2036.740 3692.405 Q 2038.898 3698.945 2038.877 3705.881 Q 2038.857 3712.816 2038.907 3717.123 Q 2038.957 3721.430 2037.425 3723.050 Q 2035.893 3724.669 2035.300 3725.079 "></path>
    <path id="STROKE_2e42cdfb-8269-495d-a29d-a17ebc9772c7" opacity="1.000" fill="none" stroke="#000000" stroke-width="1.484" stroke-opacity="1.000" stroke-linecap="round" stroke-linejoin="round" d="M 2026.514 3696.637 Q 2026.356 3695.408 2026.388 3695.398 Q 2026.420 3695.388 2026.386 3695.403 Q 2026.352 3695.419 2026.293 3695.427 Q 2026.233 3695.436 2026.121 3695.357 Q 2026.009 3695.279 2026.153 3695.272 Q 2026.298 3695.265 2027.216 3694.797 Q 2028.133 3694.330 2029.383 3694.209 Q 2030.632 3694.088 2030.966 3694.133 Q 2031.300 3694.177 2031.273 3694.158 Q 2031.245 3694.138 2031.439 3694.157 Q 2031.632 3694.176 2032.709 3694.510 Q 2033.787 3694.843 2033.666 3695.029 Q 2033.545 3695.215 2033.454 3694.986 Q 2033.363 3694.758 2034.043 3696.619 Q 2034.724 3698.479 2032.318 3701.674 Q 2029.911 3704.870 2028.133 3706.086 Q 2026.356 3707.303 2024.521 3708.299 Q 2023.514 3706.233 2035.995 3701.244 Q 2037.646 3703.438 2024.141 3714.642 Q 2026.520 3711.172 2039.297 3708.174 Q 2040.436 3710.759 2035.414 3715.093 Q 2030.392 3719.427 2019.791 3721.145 Q 2019.300 3723.307 2040.640 3713.552 Q 2040.786 3714.063 2034.554 3719.860 Q 2028.321 3725.656 2023.902 3729.469 Q 2019.482 3733.281 2014.431 3735.562 Q 2013.491 3736.324 2016.532 3733.043 Q 2019.573 3729.762 2022.242 3727.719 Q 2024.912 3725.676 2026.058 3725.304 Q 2027.205 3724.932 2028.217 3724.917 Q 2029.229 3724.902 2030.309 3725.260 Q 2031.389 3725.618 2034.008 3727.298 Q 2036.627 3728.978 2039.013 3729.870 Q 2041.399 3730.762 2043.589 3730.283 Q 2045.779 3729.804 2046.614 3729.209 "></path>
    <path id="STROKE_205c22d5-3bed-4bad-9fed-f7f4d5fed049" opacity="1.000" fill="none" stroke="#000000" stroke-width="1.274" stroke-opacity="1.000" stroke-linecap="round" stroke-linejoin="round" d="M 2069.035 3684.535 Q 2069.435 3684.382 2068.711 3684.415 Q 2067.988 3684.447 2065.802 3687.950 Q 2063.615 3691.452 2048.614 3716.346 Q 2048.856 3715.859 2049.647 3714.438 Q 2050.438 3713.017 2051.035 3712.082 "></path>
    <path id="STROKE_171f17ab-08ae-4a20-92e2-ccffbd100bbd" opacity="1.000" fill="none" stroke="#000000" stroke-width="1.274" stroke-opacity="1.000" stroke-linecap="round" stroke-linejoin="round" d="M 2054.636 3708.052 Q 2055.061 3707.680 2057.289 3706.925 Q 2057.732 3705.987 2057.777 3712.686 Q 2057.822 3719.385 2057.231 3725.729 Q 2056.641 3732.074 2056.753 3732.131 "></path>
    <path id="STROKE_bee82d55-82a0-4ef9-a096-ca1d7b2974e4" opacity="1.000" fill="none" stroke="#000000" stroke-width="1.349" stroke-opacity="1.000" stroke-linecap="round" stroke-linejoin="round" d="M 2060.381 3707.490 Q 2060.264 3708.005 2060.146 3708.915 Q 2062.220 3708.194 2070.197 3705.265 Q 2078.174 3702.335 2078.486 3701.981 "></path>
    <path id="STROKE_f97ae17d-205d-4212-990d-31a131390730" opacity="1.000" fill="none" stroke="#000000" stroke-width="1.207" stroke-opacity="1.000" stroke-linecap="round" stroke-linejoin="round" d="M 2074.466 3693.019 Q 2074.355 3694.452 2070.855 3731.776 Q 2070.688 3731.643 2070.520 3731.511 "></path>
    <path id="STROKE_0bc4c2ef-d0f6-4a3f-93be-f78464a7767d" opacity="1.000" fill="none" stroke="#000000" stroke-width="1.457" stroke-opacity="1.000" stroke-linecap="round" stroke-linejoin="round" d="M 2066.183 3715.263 Q 2065.404 3715.971 2057.057 3724.625 Q 2057.109 3725.239 2060.841 3720.744 Q 2064.573 3716.249 2067.362 3713.779 Q 2070.151 3711.309 2071.573 3710.573 Q 2072.994 3709.837 2075.752 3709.314 Q 2078.511 3708.791 2079.431 3716.430 Q 2080.350 3724.069 2080.219 3724.556 "></path>
    <path id="STROKE_81b2a473-73b2-401a-b516-c00e1dd30dc5" opacity="1.000" fill="none" stroke="#000000" stroke-width="1.568" stroke-opacity="1.000" stroke-linecap="round" stroke-linejoin="round" d="M 2070.192 3725.802 Q 2069.864 3725.742 2066.252 3725.888 Q 2065.909 3726.612 2074.699 3723.051 Q 2083.490 3719.491 2084.338 3718.952 "></path>
    <path id="STROKE_44a48330-ec24-4dae-94e6-86624a4f9342" opacity="1.000" fill="none" stroke="#000000" stroke-width="1.352" stroke-opacity="1.000" stroke-linecap="round" stroke-linejoin="round" d="M 2016.059 3723.747 Q 2017.657 3722.473 2032.776 3719.585 Q 2047.894 3716.698 2049.460 3716.126 "></path>
    <path id="STROKE_3e70d928-c495-4461-8782-4f1842db4193" opacity="1.000" fill="none" stroke="#000000" stroke-width="1.128" stroke-opacity="1.000" stroke-linecap="round" stroke-linejoin="round" d="M 2159.794 3801.754 Q 2159.278 3803.913 2159.649 3828.960 Q 2160.021 3854.007 2160.619 3873.291 Q 2161.217 3892.575 2161.097 3908.984 Q 2160.452 3907.947 2160.391 3907.663 Q 2160.329 3907.379 2160.291 3907.260 Q 2160.252 3907.140 2160.036 3906.151 Q 2159.821 3905.162 2159.168 3903.282 Q 2158.516 3901.402 2158.168 3900.855 "></path>
    <path id="STROKE_d3516655-5b62-4b2e-a009-c15290a3dca4" opacity="1.000" fill="none" stroke="#000000" stroke-width="1.500" stroke-opacity="1.000" stroke-linecap="round" stroke-linejoin="round" d="M 2153.526 3896.544 Q 2155.449 3899.033 2154.999 3898.245 Q 2154.549 3897.457 2155.998 3902.004 Q 2157.447 3906.551 2158.592 3908.901 Q 2159.737 3911.251 2160.370 3912.165 Q 2161.003 3913.079 2162.125 3913.343 Q 2163.248 3913.606 2163.195 3913.678 Q 2163.142 3913.750 2164.370 3912.688 Q 2165.598 3911.627 2166.847 3909.348 Q 2168.097 3907.070 2169.010 3905.142 Q 2169.924 3903.215 2170.218 3902.468 Q 2170.512 3901.720 2171.341 3899.351 Q 2172.170 3896.982 2173.430 3893.061 Q 2174.689 3889.140 2175.202 3886.657 Q 2175.716 3884.173 2175.961 3883.218 "></path>
    <path id="STROKE_fe14f837-3248-4da9-abff-7ad28b003bc8" opacity="1.000" fill="none" stroke="#000000" stroke-width="1.413" stroke-opacity="1.000" stroke-linecap="round" stroke-linejoin="round" d="M 2227.072 3820.229 Q 2225.834 3821.317 2219.321 3832.860 Q 2212.809 3844.404 2212.327 3844.945 "></path>
    <path id="STROKE_4f1f7cfe-bfb7-4794-a0da-82302d750edf" opacity="1.000" fill="none" stroke="#000000" stroke-width="1.591" stroke-opacity="1.000" stroke-linecap="round" stroke-linejoin="round" d="M 2229.715 3833.124 Q 2228.668 3830.752 2240.419 3839.953 Q 2240.245 3840.722 2240.073 3841.190 "></path>
    <path id="STROKE_8ddf3f21-e9d7-4643-8b72-f873f7036e1b" opacity="1.000" fill="none" stroke="#000000" stroke-width="1.345" stroke-opacity="1.000" stroke-linecap="round" stroke-linejoin="round" d="M 2229.169 3843.144 Q 2228.390 3842.379 2220.398 3860.392 Q 2219.977 3860.257 2219.626 3860.124 "></path>
    <path id="STROKE_d29858ca-1be4-4d76-9ac8-74ed7b701ce3" opacity="1.000" fill="none" stroke="#000000" stroke-width="1.591" stroke-opacity="1.000" stroke-linecap="round" stroke-linejoin="round" d="M 2223.417 3844.644 Q 2223.405 3844.964 2223.383 3844.901 Q 2223.361 3844.837 2223.377 3843.641 Q 2223.393 3842.445 2224.999 3841.946 Q 2226.604 3841.447 2228.620 3841.219 Q 2230.636 3840.992 2232.960 3841.265 Q 2235.284 3841.538 2237.140 3843.390 Q 2238.995 3845.242 2239.785 3849.012 Q 2240.574 3852.783 2240.620 3855.830 Q 2240.665 3858.878 2239.435 3859.272 Q 2238.204 3859.667 2237.782 3859.533 "></path>
    <path id="STROKE_32ff9a57-e6bc-44a8-acc3-2e8ca00de54c" opacity="1.000" fill="none" stroke="#000000" stroke-width="1.591" stroke-opacity="1.000" stroke-linecap="round" stroke-linejoin="round" d="M 2245.558 3841.603 Q 2245.001 3842.107 2249.972 3840.971 Q 2254.943 3839.835 2257.599 3837.061 Q 2260.256 3834.287 2260.442 3833.819 "></path>
    <path id="STROKE_8d0fce4a-c425-4152-878d-a02c1740585f" opacity="1.000" fill="none" stroke="#000000" stroke-width="1.456" stroke-opacity="1.000" stroke-linecap="round" stroke-linejoin="round" d="M 2257.377 3825.088 Q 2257.359 3827.818 2257.360 3827.604 Q 2257.379 3828.639 2252.280 3854.863 Q 2251.346 3854.312 2251.096 3844.605 Q 2249.025 3847.037 2256.425 3841.002 Q 2263.826 3834.968 2264.718 3834.073 "></path>
    <path id="STROKE_102e4b67-4c8a-4415-b0d9-70daa5ed9666" opacity="1.000" fill="none" stroke="#000000" stroke-width="1.591" stroke-opacity="1.000" stroke-linecap="round" stroke-linejoin="round" d="M 2273.768 3823.397 Q 2274.235 3823.415 2272.806 3823.542 Q 2271.377 3823.669 2269.943 3826.615 Q 2268.509 3829.562 2268.011 3834.382 Q 2267.514 3839.203 2267.055 3842.222 Q 2266.596 3845.241 2265.943 3847.167 Q 2265.290 3849.092 2263.729 3851.373 Q 2263.673 3851.317 2263.738 3850.060 Q 2263.803 3848.802 2263.921 3848.033 "></path>
    <path id="STROKE_ab31560b-1dfb-40ed-a104-535283346fbc" opacity="1.000" fill="none" stroke="#000000" stroke-width="1.591" stroke-opacity="1.000" stroke-linecap="round" stroke-linejoin="round" d="M 2266.723 3841.482 Q 2267.034 3840.690 2268.892 3837.730 Q 2270.751 3834.771 2277.635 3834.216 Q 2277.634 3834.404 2277.604 3834.648 Q 2277.574 3834.892 2277.515 3835.248 "></path>
    <path id="STROKE_0bfa8ec0-6bc3-4b8a-b5d0-58ea6eedccf1" opacity="1.000" fill="none" stroke="#000000" stroke-width="1.591" stroke-opacity="1.000" stroke-linecap="round" stroke-linejoin="round" d="M 2274.634 3836.880 Q 2274.316 3836.187 2271.965 3845.649 Q 2269.614 3855.111 2269.247 3855.353 "></path>
    <path id="STROKE_983c349c-15ef-45f4-a980-e31ff08a9068" opacity="1.000" fill="none" stroke="#000000" stroke-width="1.591" stroke-opacity="1.000" stroke-linecap="round" stroke-linejoin="round" d="M 2255.958 3843.550 Q 2254.743 3844.754 2255.051 3844.576 Q 2254.889 3844.889 2254.855 3845.811 Q 2254.820 3846.732 2254.880 3846.733 Q 2254.939 3846.734 2254.839 3846.711 Q 2254.739 3846.689 2254.920 3847.562 Q 2255.102 3848.435 2257.151 3848.631 Q 2259.201 3848.828 2259.498 3848.717 "></path>
    <path id="STROKE_c091a287-3124-46aa-ab10-215be79930e9" opacity="1.000" fill="none" stroke="#000000" stroke-width="1.591" stroke-opacity="1.000" stroke-linecap="round" stroke-linejoin="round" d="M 2254.759 3841.890 Q 2253.010 3841.984 2253.083 3842.104 Q 2252.634 3840.889 2248.023 3845.978 Q 2243.412 3851.067 2242.873 3851.721 "></path>
    <path id="STROKE_0dc4f5bb-5626-491f-90e8-59fe1c99766e" opacity="1.000" fill="none" stroke="#000000" stroke-width="1.591" stroke-opacity="1.000" stroke-linecap="round" stroke-linejoin="round" d="M 2054.005 3943.439 Q 2053.836 3943.438 2053.189 3943.433 Q 2054.866 3943.244 2060.925 3942.972 Q 2066.984 3942.700 2067.519 3942.704 "></path>
    <path id="STROKE_48c30041-19d7-4bf1-82b4-234cc9b2526b" opacity="1.000" fill="none" stroke="#000000" stroke-width="1.505" stroke-opacity="1.000" stroke-linecap="round" stroke-linejoin="round" d="M 2056.798 3954.908 Q 2058.703 3954.925 2058.472 3955.051 Q 2061.555 3954.125 2063.154 3972.258 Q 2064.252 3972.542 2068.783 3967.216 Q 2073.313 3961.890 2074.207 3960.770 "></path>
    <path id="STROKE_495f6240-8bad-4317-8add-8b9125092cc9" opacity="1.000" fill="none" stroke="#000000" stroke-width="1.591" stroke-opacity="1.000" stroke-linecap="round" stroke-linejoin="round" d="M 2080.222 3936.821 Q 2079.870 3936.893 2078.673 3937.017 Q 2078.121 3938.172 2080.913 3938.043 Q 2083.705 3937.914 2084.186 3937.561 "></path>
    <path id="STROKE_0a693f86-0f52-4c55-9da9-1368733cd1e1" opacity="1.000" fill="none" stroke="#000000" stroke-width="1.448" stroke-opacity="1.000" stroke-linecap="round" stroke-linejoin="round" d="M 2083.090 3937.215 Q 2080.588 3939.181 2079.546 3946.555 Q 2078.503 3953.928 2078.078 3954.338 "></path>
    <path id="STROKE_f9b96135-8a07-4f3c-b06c-e550e6e0a9ae" opacity="1.000" fill="none" stroke="#000000" stroke-width="1.563" stroke-opacity="1.000" stroke-linecap="round" stroke-linejoin="round" d="M 2077.523 3948.966 Q 2078.104 3947.005 2078.013 3947.299 Q 2077.123 3945.534 2086.481 3941.406 Q 2087.796 3943.046 2086.198 3947.034 Q 2084.599 3951.023 2081.751 3954.376 Q 2078.903 3957.729 2073.759 3958.364 Q 2072.902 3957.703 2074.708 3954.102 Q 2076.513 3950.500 2083.663 3948.285 Q 2090.812 3946.071 2091.167 3945.717 "></path>
    <path id="STROKE_7b076da6-4565-4e1d-a0e9-63025b06fb43" opacity="1.000" fill="none" stroke="#000000" stroke-width="1.460" stroke-opacity="1.000" stroke-linecap="round" stroke-linejoin="round" d="M 2080.508 3965.355 Q 2081.203 3965.068 2072.690 3972.923 Q 2072.766 3972.245 2076.388 3966.688 Q 2080.011 3961.131 2082.630 3958.240 Q 2085.248 3955.349 2088.142 3953.955 Q 2091.035 3952.560 2091.569 3955.253 Q 2092.103 3957.947 2090.932 3962.690 Q 2089.760 3967.434 2075.927 3972.832 Q 2076.023 3974.224 2082.875 3969.717 Q 2089.726 3965.210 2090.562 3964.447 "></path>
    <path id="STROKE_248cf2b9-92fb-4c27-a54d-84d114624e9a" opacity="1.000" fill="none" stroke="#000000" stroke-width="1.572" stroke-opacity="1.000" stroke-linecap="round" stroke-linejoin="round" d="M 2109.594 3942.387 Q 2108.750 3942.934 2108.817 3942.927 Q 2109.949 3944.523 2110.087 3947.627 Q 2110.225 3950.731 2109.000 3953.142 Q 2107.775 3955.552 2107.107 3956.562 "></path>
    <path id="STROKE_163f9b7d-1bd0-48fd-8cf4-582fe8d30895" opacity="1.000" fill="none" stroke="#000000" stroke-width="1.433" stroke-opacity="1.000" stroke-linecap="round" stroke-linejoin="round" d="M 2105.767 3959.068 Q 2105.469 3959.366 2104.464 3960.260 Q 2105.367 3958.514 2111.705 3957.081 Q 2112.331 3959.134 2112.546 3962.968 Q 2112.762 3966.803 2103.500 3978.012 Q 2103.503 3977.599 2103.985 3976.110 Q 2104.466 3974.621 2105.191 3973.480 "></path>
    <path id="STROKE_1260e095-5928-4b0c-8fbc-4be9ffaf80a4" opacity="1.000" fill="none" stroke="#000000" stroke-width="1.591" stroke-opacity="1.000" stroke-linecap="round" stroke-linejoin="round" d="M 2115.863 3951.853 Q 2116.255 3952.024 2114.431 3951.393 Q 2114.945 3950.576 2119.624 3949.543 Q 2124.302 3948.511 2126.352 3946.977 Q 2128.402 3945.443 2128.461 3945.030 "></path>
    <path id="STROKE_745363ab-973d-45d3-955f-79c190fb6c5f" opacity="1.000" fill="none" stroke="#000000" stroke-width="1.591" stroke-opacity="1.000" stroke-linecap="round" stroke-linejoin="round" d="M 2124.440 3940.348 Q 2124.242 3939.897 2122.601 3944.937 Q 2120.960 3949.977 2119.902 3952.862 Q 2118.844 3955.747 2117.182 3957.068 Q 2115.520 3958.388 2111.035 3958.278 Q 2111.948 3958.591 2117.532 3955.924 Q 2123.116 3953.257 2126.324 3953.146 Q 2129.532 3953.034 2129.955 3952.924 "></path>
    <path id="STROKE_630aa85c-f5df-4378-a78f-08b7c6e5e287" opacity="1.000" fill="none" stroke="#000000" stroke-width="1.547" stroke-opacity="1.000" stroke-linecap="round" stroke-linejoin="round" d="M 2128.158 3956.478 Q 2128.343 3956.609 2128.061 3956.455 Q 2127.778 3956.300 2124.169 3959.498 Q 2120.560 3962.695 2113.933 3970.949 Q 2116.234 3970.964 2115.804 3970.961 Q 2116.045 3971.324 2121.942 3968.875 Q 2127.838 3966.425 2128.319 3966.015 "></path>
    <path id="STROKE_fb51c2d2-5e93-4f08-b71e-173a277c8d52" opacity="1.000" fill="none" stroke="#000000" stroke-width="1.591" stroke-opacity="1.000" stroke-linecap="round" stroke-linejoin="round" d="M 2126.924 3960.037 Q 2126.685 3959.979 2125.855 3959.917 Q 2124.384 3961.962 2129.697 3968.638 Q 2135.011 3975.315 2135.432 3975.486 "></path>
    <path id="STROKE_6d4a8b2d-9f55-430f-af05-93ece3b5afda" opacity="1.000" fill="none" stroke="#000000" stroke-width="1.589" stroke-opacity="1.000" stroke-linecap="round" stroke-linejoin="round" d="M 2053.681 3958.003 Q 2052.892 3958.011 2051.881 3957.935 Q 2051.701 3957.149 2056.381 3955.030 Q 2061.061 3952.910 2062.078 3952.316 "></path>
    <path id="STROKE_99190198-6f48-40ba-b2a5-43611c4650b1" opacity="1.000" fill="none" stroke="#000000" stroke-width="1.591" stroke-opacity="1.000" stroke-linecap="round" stroke-linejoin="round" d="M 2165.876 3943.030 Q 2164.626 3943.021 2163.597 3943.015 Q 2164.887 3944.208 2173.320 3941.223 Q 2181.753 3938.238 2182.291 3937.772 "></path>
    <path id="STROKE_5b774ff9-d4fa-40a5-996b-26362f4a40b4" opacity="1.000" fill="none" stroke="#000000" stroke-width="1.591" stroke-opacity="1.000" stroke-linecap="round" stroke-linejoin="round" d="M 2171.134 3943.779 Q 2168.316 3945.162 2168.141 3945.298 Q 2170.879 3946.138 2175.356 3942.594 Q 2179.834 3939.051 2180.259 3938.584 "></path>
    <path id="STROKE_d3a2ef3d-c056-42bb-b436-f17e8a1746ca" opacity="1.000" fill="none" stroke="#000000" stroke-width="1.481" stroke-opacity="1.000" stroke-linecap="round" stroke-linejoin="round" d="M 2177.636 3935.225 Q 2177.524 3935.225 2176.678 3935.388 Q 2176.580 3936.388 2176.672 3935.801 Q 2176.764 3935.214 2176.621 3937.796 Q 2176.478 3940.379 2176.065 3942.538 Q 2175.652 3944.697 2175.306 3945.995 Q 2174.961 3947.293 2174.464 3949.351 Q 2173.966 3951.410 2165.575 3954.328 Q 2167.455 3954.310 2171.937 3952.737 Q 2176.419 3951.164 2180.889 3949.551 Q 2181.349 3950.474 2158.206 3966.217 Q 2157.809 3965.356 2166.898 3960.569 Q 2167.932 3961.706 2167.033 3975.925 Q 2168.875 3977.988 2186.857 3953.420 Q 2185.882 3954.537 2182.383 3957.575 Q 2178.885 3960.614 2176.646 3962.327 Q 2174.408 3964.039 2172.992 3964.701 Q 2171.577 3965.364 2171.497 3965.357 Q 2171.417 3965.350 2171.428 3965.337 Q 2171.438 3965.323 2171.531 3965.354 Q 2171.624 3965.384 2170.087 3965.471 Q 2169.827 3964.805 2170.347 3962.357 Q 2171.131 3961.240 2173.758 3963.918 Q 2176.386 3966.596 2179.002 3967.869 Q 2181.619 3969.143 2183.774 3969.890 Q 2185.929 3970.638 2189.477 3968.930 Q 2193.026 3967.222 2194.058 3966.459 "></path>
    <path id="STROKE_503b8ee2-5ec7-4b8b-9c25-62ba86e67cba" opacity="1.000" fill="none" stroke="#000000" stroke-width="1.591" stroke-opacity="1.000" stroke-linecap="round" stroke-linejoin="round" d="M 2203.143 3946.472 Q 2204.524 3947.088 2204.449 3946.857 Q 2206.563 3946.618 2206.309 3946.513 Q 2208.478 3945.910 2210.837 3944.648 Q 2213.197 3943.387 2213.438 3942.976 "></path>
    <path id="STROKE_e0461488-a4b2-4385-873d-3529d28c4f96" opacity="1.000" fill="none" stroke="#000000" stroke-width="1.591" stroke-opacity="1.000" stroke-linecap="round" stroke-linejoin="round" d="M 2202.413 3950.410 Q 2204.551 3948.248 2204.346 3948.444 Q 2204.142 3948.640 2205.320 3947.794 Q 2206.498 3946.949 2206.751 3946.652 Q 2207.005 3946.355 2211.126 3944.590 Q 2215.247 3942.825 2219.021 3940.848 Q 2222.796 3938.872 2223.151 3938.386 "></path>
    <path id="STROKE_bc382647-3b56-4231-a32b-929848dca791" opacity="1.000" fill="none" stroke="#000000" stroke-width="1.399" stroke-opacity="1.000" stroke-linecap="round" stroke-linejoin="round" d="M 2214.707 3934.387 Q 2214.524 3934.385 2213.497 3934.266 Q 2213.098 3935.197 2214.828 3966.374 Q 2214.783 3966.768 2212.715 3964.192 Q 2210.647 3961.617 2205.959 3954.488 Q 2208.916 3954.508 2208.351 3954.504 Q 2210.289 3954.629 2214.900 3954.194 Q 2219.510 3953.760 2221.812 3955.030 Q 2224.113 3956.300 2224.464 3956.415 "></path>
    <path id="STROKE_a0e5cd04-077a-42bf-b28f-722f88ccb455" opacity="1.000" fill="none" stroke="#000000" stroke-width="1.591" stroke-opacity="1.000" stroke-linecap="round" stroke-linejoin="round" d="M 2222.804 3935.530 Q 2222.618 3935.021 2221.989 3934.132 Q 2221.359 3933.243 2220.931 3932.740 Q 2220.503 3932.236 2220.453 3932.686 Q 2220.402 3933.135 2220.479 3932.676 Q 2220.556 3932.217 2220.411 3933.180 Q 2220.267 3934.143 2220.081 3934.573 "></path>
    <path id="STROKE_7da7d31a-baa3-453b-85d2-37a4b0d7da90" opacity="1.000" fill="none" stroke="#000000" stroke-width="1.502" stroke-opacity="1.000" stroke-linecap="round" stroke-linejoin="round" d="M 2199.749 3936.463 Q 2198.596 3936.944 2198.254 3937.447 Q 2197.913 3937.949 2198.021 3938.331 Q 2198.130 3938.713 2198.159 3939.362 Q 2198.188 3940.011 2198.248 3939.568 Q 2198.309 3939.125 2199.439 3942.389 Q 2200.569 3945.653 2200.939 3947.845 Q 2201.310 3950.036 2201.158 3953.254 Q 2201.006 3956.471 2200.679 3958.571 Q 2200.352 3960.670 2200.711 3971.103 Q 2203.704 3971.410 2202.919 3971.287 Q 2203.854 3971.340 2215.119 3967.667 Q 2226.383 3963.993 2227.879 3963.346 "></path>
    <path id="STROKE_1f5c465d-4072-41ff-a101-22b1076c5542" opacity="1.000" fill="none" stroke="#000000" stroke-width="1.465" stroke-opacity="1.000" stroke-linecap="round" stroke-linejoin="round" d="M 2249.901 3940.481 Q 2250.686 3939.246 2256.035 3936.355 Q 2258.411 3936.512 2242.404 3954.509 Q 2241.821 3953.976 2252.670 3947.182 Q 2255.766 3946.245 2245.567 3965.380 Q 2246.292 3963.832 2255.057 3958.348 Q 2256.656 3960.139 2251.105 3974.728 Q 2251.401 3975.159 2253.417 3973.250 Q 2255.434 3971.341 2256.397 3970.333 "></path>
    <path id="STROKE_fb4bfea6-6882-49ca-b44f-f3db513437d6" opacity="1.000" fill="none" stroke="#000000" stroke-width="1.591" stroke-opacity="1.000" stroke-linecap="round" stroke-linejoin="round" d="M 2264.426 3948.350 Q 2263.281 3948.343 2263.244 3948.342 Q 2263.525 3948.016 2268.696 3944.029 Q 2273.867 3940.042 2274.533 3939.333 "></path>
    <path id="STROKE_db68e35b-0a93-4322-806c-7a5dbc659e7b" opacity="1.000" fill="none" stroke="#000000" stroke-width="1.546" stroke-opacity="1.000" stroke-linecap="round" stroke-linejoin="round" d="M 2271.446 3938.111 Q 2270.587 3939.486 2268.720 3944.261 Q 2266.853 3949.035 2265.751 3951.704 Q 2264.649 3954.373 2260.423 3957.596 Q 2260.595 3955.968 2262.990 3954.258 Q 2265.384 3952.547 2271.593 3951.777 Q 2272.526 3952.935 2271.979 3957.548 Q 2271.433 3962.161 2263.358 3966.814 Q 2262.241 3965.614 2264.366 3962.924 Q 2266.491 3960.235 2268.152 3959.592 Q 2269.813 3958.948 2271.360 3959.228 Q 2273.374 3959.314 2268.270 3966.734 Q 2268.284 3966.626 2271.545 3964.103 Q 2274.806 3961.579 2275.598 3960.927 "></path>
    <path id="STROKE_c208ef6b-d00f-4a77-acf6-197206f2ca6b" opacity="1.000" fill="none" stroke="#000000" stroke-width="1.591" stroke-opacity="1.000" stroke-linecap="round" stroke-linejoin="round" d="M 2294.808 3946.040 Q 2294.896 3945.837 2292.887 3947.078 Q 2293.113 3947.220 2294.301 3946.784 Q 2295.488 3946.349 2298.019 3944.319 Q 2300.550 3942.290 2301.828 3940.373 Q 2303.105 3938.456 2303.476 3937.727 "></path>
    <path id="STROKE_ee596669-bef2-4baa-8392-933d7f8b3f4e" opacity="1.000" fill="none" stroke="#000000" stroke-width="1.525" stroke-opacity="1.000" stroke-linecap="round" stroke-linejoin="round" d="M 2300.747 3933.315 Q 2299.043 3932.985 2294.316 3964.620 Q 2294.121 3964.439 2294.309 3964.595 Q 2294.497 3964.750 2293.917 3964.729 Q 2293.336 3964.709 2292.005 3962.884 Q 2290.674 3961.058 2289.680 3959.353 Q 2288.686 3957.648 2288.853 3956.794 Q 2289.020 3955.941 2293.659 3953.001 Q 2298.298 3950.062 2299.317 3949.299 "></path>
    <path id="STROKE_d71b69c9-1615-4254-b2bb-5c177c2c2e8f" opacity="1.000" fill="none" stroke="#000000" stroke-width="1.424" stroke-opacity="1.000" stroke-linecap="round" stroke-linejoin="round" d="M 2315.224 3931.611 Q 2312.210 3935.517 2312.522 3935.097 Q 2312.835 3934.677 2302.663 3949.659 Q 2302.699 3949.499 2305.342 3946.481 Q 2307.985 3943.463 2310.260 3941.468 Q 2312.535 3939.472 2314.649 3939.746 Q 2316.763 3940.019 2317.360 3941.758 Q 2317.957 3943.496 2319.288 3946.755 Q 2320.619 3950.015 2320.626 3965.286 Q 2320.265 3965.292 2319.679 3964.672 Q 2319.093 3964.051 2319.202 3964.094 Q 2319.310 3964.137 2319.002 3963.752 Q 2318.694 3963.367 2317.414 3959.271 Q 2316.135 3955.175 2315.665 3953.915 "></path>
    <path id="STROKE_e2730654-b518-4abb-b483-c090e2acc4b6" opacity="1.000" fill="none" stroke="#000000" stroke-width="1.562" stroke-opacity="1.000" stroke-linecap="round" stroke-linejoin="round" d="M 2313.937 3947.220 Q 2312.072 3946.999 2311.819 3947.521 Q 2311.566 3948.044 2310.292 3949.680 Q 2309.018 3951.316 2309.089 3951.222 Q 2309.161 3951.127 2307.346 3953.810 Q 2305.531 3956.494 2303.669 3963.200 Q 2303.086 3963.241 2304.454 3963.402 Q 2305.823 3963.564 2316.207 3952.867 Q 2315.347 3950.685 2316.910 3956.899 Q 2318.473 3963.112 2318.837 3963.471 "></path>
    <path id="STROKE_1426c137-b5be-4bfa-bbe0-f0d5c99c66b6" opacity="1.000" fill="none" stroke="#000000" stroke-width="1.550" stroke-opacity="1.000" stroke-linecap="round" stroke-linejoin="round" d="M 2296.309 3832.034 Q 2296.115 3829.845 2296.178 3830.494 Q 2296.122 3830.493 2296.010 3830.492 Q 2295.984 3831.472 2295.579 3834.353 Q 2295.174 3837.234 2295.697 3839.402 Q 2296.219 3841.570 2298.067 3842.314 Q 2299.915 3843.059 2300.610 3842.987 Q 2301.305 3842.915 2301.658 3843.268 Q 2302.011 3843.621 2306.389 3842.326 Q 2310.766 3841.031 2314.996 3836.938 Q 2319.226 3832.845 2319.949 3831.968 "></path>
    <path id="STROKE_d053a0d6-445f-4f75-a5ba-c5d8b8302963" opacity="1.000" fill="none" stroke="#000000" stroke-width="1.551" stroke-opacity="1.000" stroke-linecap="round" stroke-linejoin="round" d="M 2323.336 3826.359 Q 2321.459 3825.994 2320.348 3845.843 Q 2320.221 3845.898 2320.074 3845.841 Q 2319.926 3845.783 2319.632 3845.669 "></path>
    <path id="STROKE_4231c951-5cf0-4fbd-bed4-ab61d07681a9" opacity="1.000" fill="none" stroke="#000000" stroke-width="1.419" stroke-opacity="1.000" stroke-linecap="round" stroke-linejoin="round" d="M 2314.985 3825.252 Q 2315.451 3825.009 2312.471 3824.559 Q 2309.595 3824.506 2306.751 3859.003 Q 2306.454 3859.114 2306.187 3859.140 Q 2305.919 3859.167 2305.553 3859.164 "></path>
    <path id="STROKE_eb6e7792-0e85-45c1-8b1a-46461c76838a" opacity="1.000" fill="none" stroke="#000000" stroke-width="1.419" stroke-opacity="1.000" stroke-linecap="round" stroke-linejoin="round" d="M 2292.224 3849.275 Q 2291.351 3849.997 2291.223 3850.141 Q 2291.094 3850.286 2291.277 3850.144 Q 2291.460 3850.003 2290.623 3851.311 Q 2289.785 3852.619 2289.364 3855.568 Q 2288.943 3858.517 2289.301 3861.318 Q 2289.659 3864.120 2292.710 3865.346 Q 2295.761 3866.571 2303.312 3863.157 Q 2310.862 3859.744 2326.057 3848.565 Q 2325.870 3849.000 2326.235 3857.466 Q 2326.601 3865.933 2327.145 3866.593 "></path>
    <path id="STROKE_f1d513fb-7b5e-4273-b3ac-ede18944688e" opacity="1.000" fill="none" stroke="#000000" stroke-width="1.385" stroke-opacity="1.000" stroke-linecap="round" stroke-linejoin="round" d="M 2346.445 3838.341 Q 2345.343 3838.000 2345.378 3837.958 Q 2345.196 3837.901 2345.013 3837.844 Q 2345.315 3837.703 2356.976 3837.624 Q 2358.705 3839.549 2354.253 3845.995 Q 2349.802 3852.442 2340.706 3856.886 Q 2340.478 3856.251 2340.599 3855.527 Q 2340.719 3854.803 2340.851 3854.034 "></path>
    <path id="STROKE_70d8da2f-a392-4660-87df-329b826692ff" opacity="1.000" fill="none" stroke="#000000" stroke-width="1.591" stroke-opacity="1.000" stroke-linecap="round" stroke-linejoin="round" d="M 2346.041 3844.045 Q 2346.042 3843.932 2346.043 3843.707 Q 2346.259 3847.333 2346.155 3846.689 Q 2346.051 3846.046 2346.141 3848.112 Q 2346.230 3850.178 2348.085 3853.127 Q 2349.940 3856.077 2354.285 3856.692 Q 2358.630 3857.307 2359.236 3857.124 "></path>
    <path id="STROKE_0de4f26c-c1b5-4f7b-a5a0-bc1cfd8bddc2" opacity="1.000" fill="none" stroke="#000000" stroke-width="1.367" stroke-opacity="1.000" stroke-linecap="round" stroke-linejoin="round" d="M 2357.230 3854.144 Q 2357.047 3854.143 2356.386 3854.139 Q 2356.295 3854.527 2364.184 3851.646 Q 2372.073 3848.766 2375.854 3845.956 Q 2379.636 3843.145 2379.878 3842.621 "></path>
    <path id="STROKE_e9121123-90f2-4aa3-b6d5-3fe1332af7a1" opacity="1.000" fill="none" stroke="#000000" stroke-width="1.354" stroke-opacity="1.000" stroke-linecap="round" stroke-linejoin="round" d="M 2377.323 3833.406 Q 2375.545 3834.942 2368.763 3869.558 Q 2368.903 3869.335 2367.773 3870.028 Q 2366.643 3870.722 2363.473 3856.871 Q 2365.929 3856.308 2365.869 3856.343 Q 2367.250 3855.995 2368.810 3855.386 Q 2370.368 3854.777 2371.329 3854.239 "></path>
    <path id="STROKE_a0a665e0-87e3-460d-95a5-ff30c98a891e" opacity="1.000" fill="none" stroke="#000000" stroke-width="1.591" stroke-opacity="1.000" stroke-linecap="round" stroke-linejoin="round" d="M 2395.262 3831.613 Q 2395.397 3831.836 2396.665 3832.097 Q 2397.932 3832.358 2397.826 3832.269 Q 2397.720 3832.179 2397.978 3832.223 Q 2398.235 3832.267 2403.030 3831.665 Q 2402.787 3832.208 2402.544 3832.750 "></path>
    <path id="STROKE_9961c1ce-1d7d-40db-b39d-80b4cdd989d4" opacity="1.000" fill="none" stroke="#000000" stroke-width="1.515" stroke-opacity="1.000" stroke-linecap="round" stroke-linejoin="round" d="M 2396.987 3838.795 Q 2396.336 3839.391 2390.147 3843.141 Q 2389.462 3843.358 2398.351 3839.403 Q 2407.240 3835.448 2407.425 3835.149 "></path>
    <path id="STROKE_5605caba-089d-4c43-8801-d3e9cd116a56" opacity="1.000" fill="none" stroke="#000000" stroke-width="1.398" stroke-opacity="1.000" stroke-linecap="round" stroke-linejoin="round" d="M 2393.969 3844.031 Q 2392.855 3844.837 2388.925 3849.132 Q 2384.994 3853.428 2383.581 3861.174 Q 2385.855 3862.051 2390.296 3857.624 Q 2394.738 3853.197 2396.826 3845.927 Q 2394.981 3844.168 2391.827 3852.782 Q 2390.908 3852.693 2393.120 3853.127 Q 2395.332 3853.561 2404.376 3844.814 Q 2404.430 3845.174 2404.299 3846.531 Q 2404.168 3847.887 2405.466 3849.128 Q 2406.764 3850.369 2410.195 3849.959 Q 2409.573 3849.205 2402.677 3853.651 Q 2395.782 3858.096 2386.925 3861.853 Q 2388.367 3855.576 2407.856 3856.083 Q 2427.346 3856.589 2428.670 3856.428 "></path>
    <path id="STROKE_72c2799d-6fbf-452e-a42f-687423e5ca19" opacity="1.000" fill="none" stroke="#000000" stroke-width="1.505" stroke-opacity="1.000" stroke-linecap="round" stroke-linejoin="round" d="M 2460.560 3822.518 Q 2460.215 3823.095 2440.703 3835.317 Q 2440.577 3835.203 2440.043 3835.031 Q 2437.991 3838.323 2438.291 3838.173 Q 2437.848 3838.904 2435.919 3844.151 Q 2433.989 3849.398 2434.862 3858.441 Q 2436.905 3860.199 2438.021 3856.011 Q 2439.135 3851.823 2439.466 3849.127 Q 2439.796 3846.431 2441.404 3844.807 Q 2443.013 3843.183 2448.989 3839.747 Q 2448.853 3841.494 2440.284 3853.503 Q 2439.465 3854.261 2446.149 3851.891 Q 2446.167 3853.326 2442.640 3859.000 Q 2441.978 3859.322 2443.527 3857.197 Q 2445.077 3855.072 2446.555 3853.341 Q 2448.034 3851.610 2449.205 3850.264 Q 2450.375 3848.917 2452.397 3846.866 Q 2454.419 3844.815 2456.596 3843.410 Q 2458.772 3842.005 2459.424 3841.645 Q 2460.076 3841.284 2461.723 3842.267 Q 2463.370 3843.250 2464.064 3844.577 Q 2464.758 3845.904 2465.402 3847.501 Q 2466.046 3849.098 2466.562 3852.764 Q 2467.077 3856.431 2465.488 3858.150 Q 2463.899 3859.870 2462.248 3860.472 Q 2460.596 3861.075 2459.211 3861.111 Q 2457.827 3861.147 2457.267 3861.424 Q 2456.707 3861.702 2455.501 3860.532 Q 2454.295 3859.361 2454.296 3857.688 Q 2454.297 3856.015 2454.548 3855.130 Q 2454.799 3854.244 2455.611 3853.485 Q 2456.423 3852.727 2456.372 3852.731 Q 2456.320 3852.735 2459.556 3849.478 Q 2462.792 3846.222 2463.642 3845.326 "></path>
    <path id="STROKE_a8f7827f-d101-4ef5-9b5b-c2bbf2fb97ef" opacity="1.000" fill="none" stroke="#000000" stroke-width="1.273" stroke-opacity="1.000" stroke-linecap="round" stroke-linejoin="round" d="M 2474.316 3823.324 Q 2473.662 3823.942 2473.181 3824.371 Q 2472.700 3824.800 2472.283 3825.342 Q 2471.865 3825.884 2467.195 3831.189 Q 2462.525 3836.495 2455.892 3844.204 Q 2449.259 3851.912 2448.536 3852.620 "></path>
    <path id="STROKE_a576a668-9e96-413f-8024-1d6bb9213f55" opacity="1.000" fill="none" stroke="#000000" stroke-width="1.146" stroke-opacity="1.000" stroke-linecap="round" stroke-linejoin="round" d="M 2174.493 4029.886 Q 2175.043 4030.990 2173.446 4026.538 Q 2173.498 4025.604 2173.421 4035.585 Q 2173.344 4045.567 2173.859 4061.608 Q 2174.374 4077.650 2176.355 4091.806 Q 2176.535 4091.050 2174.549 4088.740 Q 2172.563 4086.431 2172.088 4086.071 "></path>
    <path id="STROKE_81a99bec-804f-4192-9334-f558cf3d8f7a" opacity="1.000" fill="none" stroke="#000000" stroke-width="1.514" stroke-opacity="1.000" stroke-linecap="round" stroke-linejoin="round" d="M 2169.820 4084.254 Q 2169.600 4084.018 2170.257 4082.117 Q 2170.604 4081.511 2171.607 4082.325 Q 2172.610 4083.140 2173.139 4084.599 Q 2173.669 4086.058 2174.263 4087.310 Q 2174.858 4088.561 2175.199 4089.140 Q 2175.540 4089.719 2175.343 4089.584 Q 2175.146 4089.450 2176.784 4090.720 Q 2177.439 4091.748 2180.633 4082.323 Q 2183.828 4072.898 2184.371 4071.587 "></path>
    <path id="STROKE_16e5cc56-0eb9-4b09-9f65-d6735178ab7e" opacity="1.000" fill="none" stroke="#000000" stroke-width="1.591" stroke-opacity="1.000" stroke-linecap="round" stroke-linejoin="round" d="M 2221.552 4036.906 Q 2221.552 4036.906 2222.085 4036.903 Q 2222.617 4036.899 2218.765 4043.005 Q 2214.913 4049.110 2214.757 4049.267 "></path>
    <path id="STROKE_be94e37a-517d-4dff-9ed5-4c4be2127663" opacity="1.000" fill="none" stroke="#000000" stroke-width="1.591" stroke-opacity="1.000" stroke-linecap="round" stroke-linejoin="round" d="M 2222.511 4043.796 Q 2221.848 4043.280 2224.967 4045.130 Q 2228.086 4046.980 2228.270 4047.168 "></path>
    <path id="STROKE_4cc5100a-e23e-4708-a662-1461762698f2" opacity="1.000" fill="none" stroke="#000000" stroke-width="1.591" stroke-opacity="1.000" stroke-linecap="round" stroke-linejoin="round" d="M 2221.784 4050.813 Q 2221.625 4050.688 2219.978 4053.198 Q 2218.330 4055.709 2217.219 4057.551 Q 2216.108 4059.394 2215.885 4059.550 "></path>
    <path id="STROKE_fcdf3caf-5ef6-4478-8b8e-f4aabcf5b027" opacity="1.000" fill="none" stroke="#000000" stroke-width="1.591" stroke-opacity="1.000" stroke-linecap="round" stroke-linejoin="round" d="M 2216.193 4051.091 Q 2216.193 4051.061 2216.195 4050.805 Q 2216.270 4050.772 2218.030 4050.524 Q 2219.790 4050.276 2221.485 4051.070 Q 2223.181 4051.865 2224.064 4053.684 Q 2224.947 4055.503 2225.044 4056.688 Q 2225.142 4057.873 2225.152 4058.805 Q 2225.163 4059.738 2224.053 4059.698 Q 2222.944 4059.657 2222.657 4059.398 "></path>
    <path id="STROKE_1f850d9e-bcad-423d-8060-4655878106c0" opacity="1.000" fill="none" stroke="#000000" stroke-width="1.591" stroke-opacity="1.000" stroke-linecap="round" stroke-linejoin="round" d="M 2234.308 4046.262 Q 2234.403 4046.145 2235.135 4045.938 Q 2235.868 4045.731 2236.554 4045.598 Q 2237.240 4045.464 2237.983 4045.326 Q 2238.727 4045.187 2238.858 4045.145 Q 2238.989 4045.103 2238.876 4045.193 Q 2238.763 4045.284 2239.521 4044.807 Q 2240.280 4044.330 2240.533 4044.056 "></path>
    <path id="STROKE_ae66faec-c3da-40de-bb0f-8067d0686237" opacity="1.000" fill="none" stroke="#000000" stroke-width="1.461" stroke-opacity="1.000" stroke-linecap="round" stroke-linejoin="round" d="M 2239.946 4039.042 Q 2239.660 4039.671 2236.060 4056.264 Q 2235.130 4056.473 2234.564 4054.624 Q 2233.999 4052.775 2233.548 4051.972 Q 2233.098 4051.168 2233.477 4050.668 Q 2233.855 4050.167 2234.304 4049.722 Q 2234.754 4049.277 2236.568 4048.242 Q 2238.383 4047.207 2238.888 4046.865 "></path>
    <path id="STROKE_23012b1e-c834-4cd6-ae21-8cb8bb9bbb68" opacity="1.000" fill="none" stroke="#000000" stroke-width="1.591" stroke-opacity="1.000" stroke-linecap="round" stroke-linejoin="round" d="M 2247.983 4037.775 Q 2245.694 4038.552 2244.353 4043.662 Q 2243.012 4048.773 2242.351 4051.945 Q 2241.689 4055.117 2241.168 4056.910 Q 2240.648 4058.702 2240.192 4059.428 Q 2239.737 4060.155 2239.551 4060.282 "></path>
    <path id="STROKE_2afeb8c2-499c-4f77-ab0a-c4ebbea293da" opacity="1.000" fill="none" stroke="#000000" stroke-width="1.591" stroke-opacity="1.000" stroke-linecap="round" stroke-linejoin="round" d="M 2243.453 4049.519 Q 2243.122 4049.815 2244.404 4048.200 Q 2245.687 4046.584 2248.961 4046.144 Q 2249.020 4046.497 2248.974 4046.666 Q 2248.927 4046.834 2248.867 4047.051 "></path>
    <path id="STROKE_9de0f758-3423-489b-b95a-11188808b2aa" opacity="1.000" fill="none" stroke="#000000" stroke-width="1.591" stroke-opacity="1.000" stroke-linecap="round" stroke-linejoin="round" d="M 2247.292 4048.046 Q 2247.219 4047.190 2245.707 4059.554 Q 2245.737 4059.525 2245.849 4059.323 Q 2245.961 4059.122 2246.156 4058.748 "></path>
    <path id="STROKE_cdb8fedf-57e1-45a3-b364-994f5aaf6d2c" opacity="1.000" fill="none" stroke="#000000" stroke-width="1.591" stroke-opacity="1.000" stroke-linecap="round" stroke-linejoin="round" d="M 2262.430 4037.438 Q 2261.526 4038.115 2261.638 4047.581 Q 2261.559 4047.814 2264.095 4048.063 Q 2266.631 4048.312 2269.331 4046.643 Q 2272.032 4044.973 2273.246 4042.671 Q 2274.461 4040.370 2274.715 4039.967 "></path>
    <path id="STROKE_c3307386-6418-4ef0-9052-22b6568cf81d" opacity="1.000" fill="none" stroke="#000000" stroke-width="1.531" stroke-opacity="1.000" stroke-linecap="round" stroke-linejoin="round" d="M 2275.168 4038.530 Q 2275.228 4038.403 2275.453 4037.901 L 2275.483 4037.901 Q 2275.646 4037.386 2275.400 4038.716 Q 2275.155 4040.046 2274.550 4042.249 Q 2273.945 4044.452 2273.488 4046.121 Q 2273.030 4047.789 2272.772 4049.540 Q 2273.576 4049.255 2271.319 4037.045 L 2271.253 4037.044 Q 2271.356 4036.989 2269.207 4056.488 Q 2268.354 4055.815 2267.214 4053.866 Q 2266.074 4051.917 2265.300 4051.178 Q 2264.525 4050.440 2264.028 4050.354 Q 2263.530 4050.269 2263.518 4050.241 Q 2263.506 4050.214 2262.838 4050.811 Q 2262.170 4051.407 2262.046 4053.178 Q 2261.922 4054.950 2261.845 4056.080 Q 2261.768 4057.210 2262.042 4057.725 Q 2262.317 4058.240 2263.964 4058.678 Q 2265.612 4059.115 2278.489 4049.204 Q 2278.693 4049.688 2278.494 4054.563 Q 2278.295 4059.439 2278.351 4059.853 "></path>
    <path id="STROKE_4aa4efdd-4001-4255-8692-1c16a9642e78" opacity="1.000" fill="none" stroke="#000000" stroke-width="1.591" stroke-opacity="1.000" stroke-linecap="round" stroke-linejoin="round" d="M 2294.682 4041.167 Q 2294.580 4040.102 2294.609 4040.177 Q 2294.639 4040.252 2294.736 4039.953 Q 2294.833 4039.654 2294.845 4039.485 Q 2294.856 4039.316 2296.417 4038.910 Q 2297.979 4038.504 2299.349 4038.405 Q 2300.719 4038.307 2301.137 4038.905 Q 2301.554 4039.502 2301.527 4039.938 Q 2301.500 4040.374 2301.226 4041.371 Q 2300.952 4042.368 2300.060 4043.534 Q 2299.168 4044.699 2297.464 4046.953 Q 2295.760 4049.207 2293.567 4050.274 Q 2291.375 4051.342 2291.094 4051.340 "></path>
    <path id="STROKE_d70efbc6-c4cb-42ba-913c-d46e91b122f9" opacity="1.000" fill="none" stroke="#000000" stroke-width="1.591" stroke-opacity="1.000" stroke-linecap="round" stroke-linejoin="round" d="M 2295.045 4042.156 Q 2295.113 4041.969 2295.241 4041.545 Q 2295.395 4042.138 2294.843 4044.287 Q 2294.292 4046.436 2296.589 4048.337 Q 2298.886 4050.239 2299.321 4050.468 "></path>
    <path id="STROKE_40cbb47c-debc-4651-9142-9a44e885ba98" opacity="1.000" fill="none" stroke="#000000" stroke-width="1.591" stroke-opacity="1.000" stroke-linecap="round" stroke-linejoin="round" d="M 2303.688 4045.291 Q 2303.658 4045.291 2303.496 4045.290 Q 2304.564 4044.992 2308.181 4043.889 Q 2311.798 4042.786 2313.349 4041.542 Q 2314.899 4040.297 2315.153 4039.984 "></path>
    <path id="STROKE_8308121a-d41b-47ce-aebf-2bb581776464" opacity="1.000" fill="none" stroke="#000000" stroke-width="1.450" stroke-opacity="1.000" stroke-linecap="round" stroke-linejoin="round" d="M 2313.876 4034.137 Q 2313.298 4033.826 2312.396 4035.287 Q 2311.493 4036.749 2311.063 4040.337 Q 2310.633 4043.926 2309.393 4056.552 Q 2308.306 4055.060 2308.636 4055.832 Q 2308.967 4056.604 2306.852 4050.707 Q 2307.172 4050.393 2307.964 4049.772 Q 2308.755 4049.151 2309.135 4048.838 "></path>
    <path id="STROKE_1f0f6bc5-398a-4c86-a174-66bfe7208a34" opacity="1.000" fill="none" stroke="#000000" stroke-width="1.591" stroke-opacity="1.000" stroke-linecap="round" stroke-linejoin="round" d="M 2334.798 4031.911 Q 2334.702 4031.911 2334.547 4031.850 Q 2334.547 4031.811 2334.577 4031.712 Q 2334.126 4031.845 2335.654 4031.632 Q 2337.181 4031.420 2338.125 4031.702 Q 2339.069 4031.984 2339.424 4032.650 Q 2339.779 4033.316 2339.873 4033.622 "></path>
    <path id="STROKE_5c9d8e0d-0340-4c15-95e0-45f9bf4a931e" opacity="1.000" fill="none" stroke="#000000" stroke-width="1.591" stroke-opacity="1.000" stroke-linecap="round" stroke-linejoin="round" d="M 2330.208 4041.643 Q 2329.986 4041.671 2329.083 4041.774 Q 2328.112 4041.845 2330.690 4040.366 Q 2333.268 4038.887 2335.380 4038.196 Q 2337.492 4037.504 2340.657 4035.897 Q 2343.823 4034.290 2344.009 4034.104 "></path>
    <path id="STROKE_3308779b-236b-4514-ae7c-d79c079efc99" opacity="1.000" fill="none" stroke="#000000" stroke-width="1.591" stroke-opacity="1.000" stroke-linecap="round" stroke-linejoin="round" d="M 2331.461 4042.224 Q 2330.821 4042.239 2329.506 4045.637 Q 2328.190 4049.036 2328.121 4052.882 Q 2328.217 4052.912 2328.406 4052.804 Q 2328.596 4052.697 2328.878 4052.482 "></path>
    <path id="STROKE_f85b9e4f-90d2-4817-ad45-9cb219f9045e" opacity="1.000" fill="none" stroke="#000000" stroke-width="1.568" stroke-opacity="1.000" stroke-linecap="round" stroke-linejoin="round" d="M 2334.042 4040.861 L 2334.043 4040.831 Q 2333.510 4040.556 2333.217 4042.405 Q 2332.925 4044.254 2332.850 4045.941 Q 2332.776 4047.629 2333.208 4048.546 Q 2333.640 4049.462 2334.188 4049.617 Q 2334.737 4049.772 2335.893 4049.512 Q 2337.049 4049.253 2338.539 4045.033 Q 2339.792 4045.227 2339.543 4045.217 Q 2339.904 4045.414 2341.639 4045.609 Q 2343.374 4045.803 2346.269 4043.191 Q 2345.557 4043.588 2342.732 4046.698 Q 2339.907 4049.808 2336.904 4052.702 Q 2333.901 4055.597 2329.791 4057.380 Q 2330.087 4056.659 2332.379 4054.965 Q 2334.671 4053.271 2340.012 4051.395 Q 2345.353 4049.520 2349.876 4049.159 Q 2354.400 4048.799 2355.088 4048.714 "></path>
    <path id="STROKE_fd2ad153-8d8c-464e-be7e-1f08c9504d03" opacity="1.000" fill="none" stroke="#000000" stroke-width="1.491" stroke-opacity="1.000" stroke-linecap="round" stroke-linejoin="round" d="M 2377.366 4022.988 Q 2377.411 4023.104 2377.267 4022.297 Q 2377.037 4022.047 2374.435 4025.040 Q 2371.833 4028.031 2369.331 4030.585 Q 2366.830 4033.140 2363.351 4033.721 Q 2363.263 4033.602 2363.162 4033.286 Q 2363.396 4034.015 2363.705 4039.843 Q 2364.014 4045.671 2364.768 4051.630 Q 2365.108 4051.632 2365.359 4051.604 "></path>
    <path id="STROKE_92257668-d6b5-4f33-ab01-47a62b402443" opacity="1.000" fill="none" stroke="#000000" stroke-width="1.533" stroke-opacity="1.000" stroke-linecap="round" stroke-linejoin="round" d="M 2366.948 4039.702 Q 2366.955 4038.681 2366.954 4038.765 Q 2366.488 4037.699 2372.765 4034.416 Q 2373.417 4034.696 2371.727 4038.617 Q 2370.037 4042.538 2366.639 4048.220 Q 2366.730 4047.748 2370.886 4043.239 L 2370.975 4043.270 Q 2371.872 4044.017 2368.493 4053.874 Q 2369.013 4053.793 2371.612 4049.354 Q 2374.212 4044.916 2375.302 4042.452 Q 2376.392 4039.989 2377.375 4038.740 Q 2378.358 4037.491 2379.688 4037.125 Q 2380.099 4037.539 2381.426 4041.783 Q 2382.753 4046.027 2383.120 4048.626 Q 2383.486 4051.226 2383.597 4052.492 Q 2383.708 4053.758 2381.486 4054.218 Q 2379.265 4054.677 2377.639 4054.667 Q 2376.013 4054.656 2374.937 4053.212 Q 2373.860 4051.769 2374.018 4049.148 Q 2373.631 4049.673 2375.668 4048.451 Q 2377.706 4047.230 2378.955 4045.547 Q 2380.205 4043.864 2380.749 4043.109 "></path>
    <path id="STROKE_9f6f7f79-94af-4b18-b28d-2e1331135eda" opacity="1.000" fill="none" stroke="#000000" stroke-width="1.383" stroke-opacity="1.000" stroke-linecap="round" stroke-linejoin="round" d="M 2388.546 4022.688 Q 2387.301 4023.246 2387.512 4022.985 Q 2387.723 4022.724 2384.138 4027.246 Q 2380.553 4031.769 2377.905 4035.263 Q 2375.257 4038.756 2373.997 4040.782 Q 2372.738 4042.808 2372.320 4043.367 "></path>
    <path id="STROKE_a420c8ed-08cf-4dff-b8f9-9a75068bdc75" opacity="1.000" fill="none" stroke="#000000" stroke-width="1.591" stroke-opacity="1.000" stroke-linecap="round" stroke-linejoin="round" d="M 2106.521 4122.598 Q 2106.491 4122.598 2106.269 4122.596 Q 2107.188 4121.686 2113.297 4121.076 Q 2119.406 4120.466 2119.724 4120.438 "></path>
    <path id="STROKE_ae2a44c8-65ab-40de-8505-9580a25e892c" opacity="1.000" fill="none" stroke="#000000" stroke-width="1.446" stroke-opacity="1.000" stroke-linecap="round" stroke-linejoin="round" d="M 2111.613 4130.403 Q 2111.337 4129.980 2112.088 4129.301 Q 2112.839 4128.623 2113.692 4128.465 Q 2114.545 4128.307 2114.621 4128.334 Q 2114.696 4128.361 2115.568 4128.590 Q 2116.439 4128.818 2117.068 4134.068 Q 2117.697 4139.318 2116.429 4148.542 Q 2118.084 4149.867 2123.314 4142.214 Q 2128.544 4134.561 2129.112 4133.657 "></path>
    <path id="STROKE_77cff1f6-120a-4cfe-9324-eab9854337d3" opacity="1.000" fill="none" stroke="#000000" stroke-width="1.591" stroke-opacity="1.000" stroke-linecap="round" stroke-linejoin="round" d="M 2127.572 4120.925 Q 2127.572 4120.925 2127.740 4120.808 Q 2127.909 4120.690 2131.988 4119.110 Q 2136.066 4117.531 2136.260 4117.414 "></path>
    <path id="STROKE_0719079f-e3bd-456c-a458-b5ce76abbe27" opacity="1.000" fill="none" stroke="#000000" stroke-width="1.591" stroke-opacity="1.000" stroke-linecap="round" stroke-linejoin="round" d="M 2134.427 4119.473 Q 2134.043 4118.911 2132.577 4121.473 Q 2131.110 4124.035 2130.575 4126.525 Q 2130.041 4129.017 2130.208 4131.494 Q 2130.374 4133.972 2130.498 4134.219 "></path>
    <path id="STROKE_c8615bad-f344-4db8-b42b-c65c8359489b" opacity="1.000" fill="none" stroke="#000000" stroke-width="1.497" stroke-opacity="1.000" stroke-linecap="round" stroke-linejoin="round" d="M 2131.458 4130.024 Q 2130.501 4129.596 2130.618 4129.644 Q 2130.339 4129.749 2129.957 4128.929 Q 2130.510 4128.472 2131.982 4127.641 Q 2133.454 4126.809 2134.906 4126.572 Q 2136.358 4126.334 2137.609 4126.331 Q 2138.861 4126.328 2139.458 4127.490 Q 2140.054 4128.652 2138.843 4130.495 Q 2137.632 4132.338 2136.478 4133.329 Q 2135.323 4134.320 2133.901 4135.312 Q 2132.479 4136.305 2129.603 4137.621 Q 2126.727 4138.937 2122.107 4139.685 Q 2122.165 4139.082 2123.005 4138.392 Q 2123.845 4137.701 2124.285 4137.447 Q 2124.725 4137.193 2126.370 4136.107 Q 2128.014 4135.022 2133.381 4132.255 Q 2138.749 4129.488 2146.661 4128.312 Q 2146.881 4128.600 2146.975 4128.886 "></path>
    <path id="STROKE_5bc00855-a26d-4f9d-b9a9-de655696ce97" opacity="1.000" fill="none" stroke="#000000" stroke-width="1.591" stroke-opacity="1.000" stroke-linecap="round" stroke-linejoin="round" d="M 2131.873 4142.946 Q 2131.495 4142.877 2129.674 4144.548 Q 2129.796 4144.744 2130.333 4143.896 Q 2130.872 4143.048 2132.222 4141.041 Q 2133.572 4139.033 2135.106 4137.593 Q 2136.641 4136.153 2138.198 4135.833 Q 2139.755 4135.513 2140.642 4135.463 Q 2141.529 4135.413 2141.903 4136.309 Q 2142.276 4137.204 2142.014 4138.491 Q 2141.752 4139.779 2141.202 4140.589 Q 2140.651 4141.399 2140.069 4141.978 Q 2139.486 4142.557 2139.222 4143.292 Q 2138.958 4144.026 2131.472 4147.578 Q 2131.048 4147.017 2137.870 4144.521 Q 2144.691 4142.026 2145.381 4141.656 "></path>
    <path id="STROKE_ad8ee768-0567-4d21-8aa2-4c47c2efa135" opacity="1.000" fill="none" stroke="#000000" stroke-width="1.591" stroke-opacity="1.000" stroke-linecap="round" stroke-linejoin="round" d="M 2160.361 4128.227 Q 2160.361 4128.198 2160.361 4128.168 Q 2160.430 4128.561 2161.671 4129.827 Q 2162.911 4131.093 2164.164 4131.363 Q 2165.417 4131.634 2165.852 4131.696 "></path>
    <path id="STROKE_07796776-c621-4a5a-add8-165b9d48a339" opacity="1.000" fill="none" stroke="#000000" stroke-width="1.203" stroke-opacity="1.000" stroke-linecap="round" stroke-linejoin="round" d="M 2174.137 4124.296 Q 2173.414 4124.069 2170.368 4129.504 Q 2167.323 4134.940 2163.984 4140.148 Q 2160.646 4145.357 2158.464 4147.503 Q 2156.283 4149.649 2155.808 4149.932 "></path>
    <path id="STROKE_01c81c71-7517-405d-8908-8b7c8fe8fc3e" opacity="1.000" fill="none" stroke="#000000" stroke-width="1.420" stroke-opacity="1.000" stroke-linecap="round" stroke-linejoin="round" d="M 2151.006 4136.310 Q 2150.823 4136.082 2150.139 4135.476 Q 2150.244 4135.819 2153.154 4137.580 Q 2156.065 4139.340 2158.818 4140.576 Q 2161.571 4141.812 2164.537 4143.079 Q 2167.504 4144.346 2171.308 4145.688 Q 2175.111 4147.031 2178.876 4147.009 Q 2182.641 4146.987 2183.330 4146.863 "></path>
    <path id="STROKE_5fb5b4b6-7f50-42f0-8f51-98c4bec36e6c" opacity="1.000" fill="none" stroke="#000000" stroke-width="1.591" stroke-opacity="1.000" stroke-linecap="round" stroke-linejoin="round" d="M 2199.418 4126.913 Q 2199.232 4126.020 2199.747 4125.698 Q 2200.261 4125.377 2201.932 4125.144 Q 2203.603 4124.910 2210.000 4123.858 Q 2216.397 4122.807 2216.834 4122.593 "></path>
    <path id="STROKE_c4c8a37e-136e-427c-a248-fdae3e3e2389" opacity="1.000" fill="none" stroke="#000000" stroke-width="1.591" stroke-opacity="1.000" stroke-linecap="round" stroke-linejoin="round" d="M 2200.183 4133.939 Q 2199.255 4133.933 2199.489 4133.935 Q 2198.690 4132.704 2205.720 4130.109 Q 2212.750 4127.516 2213.225 4127.203 "></path>
    <path id="STROKE_b5e632b0-149d-42d1-80c9-9a8364ebe099" opacity="1.000" fill="none" stroke="#000000" stroke-width="1.591" stroke-opacity="1.000" stroke-linecap="round" stroke-linejoin="round" d="M 2212.524 4119.309 Q 2212.038 4119.115 2209.989 4119.312 Q 2209.595 4118.462 2209.764 4125.263 Q 2209.932 4132.062 2209.744 4132.564 "></path>
    <path id="STROKE_f4e8129c-6a43-4f5a-baa3-37715aeed80d" opacity="1.000" fill="none" stroke="#000000" stroke-width="1.475" stroke-opacity="1.000" stroke-linecap="round" stroke-linejoin="round" d="M 2199.472 4136.321 Q 2199.258 4136.320 2198.541 4136.374 Q 2198.828 4136.514 2203.678 4134.359 Q 2208.529 4132.204 2212.487 4130.403 Q 2216.446 4128.602 2221.880 4128.632 Q 2222.754 4130.383 2217.706 4133.096 Q 2212.657 4135.809 2208.451 4137.516 Q 2204.245 4139.223 2200.496 4139.139 Q 2199.997 4138.470 2201.246 4137.495 Q 2202.495 4136.519 2203.074 4136.317 Q 2203.652 4136.115 2205.917 4136.032 Q 2208.181 4135.949 2208.802 4140.626 Q 2209.423 4145.303 2207.962 4153.479 Q 2207.522 4153.848 2208.687 4152.953 Q 2209.852 4152.058 2212.674 4147.870 Q 2215.496 4143.683 2217.094 4140.313 Q 2218.691 4136.945 2220.417 4132.893 Q 2220.083 4133.230 2217.236 4136.203 Q 2214.390 4139.176 2210.556 4141.465 Q 2211.543 4140.488 2215.038 4142.302 Q 2218.533 4144.117 2220.486 4145.534 Q 2222.438 4146.951 2224.939 4147.820 Q 2227.441 4148.689 2230.598 4147.823 Q 2233.755 4146.957 2234.638 4146.460 "></path>
    <path id="STROKE_c852340d-89d2-4b57-9776-0f7c79ec19a9" opacity="1.000" fill="none" stroke="#000000" stroke-width="1.521" stroke-opacity="1.000" stroke-linecap="round" stroke-linejoin="round" d="M 2239.002 4130.691 Q 2238.675 4130.619 2237.256 4130.965 Q 2237.483 4131.924 2241.562 4130.582 Q 2245.640 4129.239 2248.083 4127.909 Q 2250.527 4126.579 2251.850 4125.711 Q 2253.173 4124.843 2253.055 4122.810 Q 2252.937 4120.777 2249.823 4118.930 Q 2248.902 4119.124 2248.642 4127.528 Q 2248.382 4135.932 2247.045 4144.936 Q 2247.238 4144.677 2246.825 4145.042 Q 2246.413 4145.407 2244.799 4144.071 Q 2243.186 4142.735 2242.249 4140.959 Q 2241.312 4139.182 2240.777 4137.958 Q 2240.242 4136.733 2240.291 4135.835 Q 2240.340 4134.937 2240.760 4134.506 Q 2241.179 4134.076 2241.815 4133.912 Q 2242.450 4133.749 2243.049 4133.563 Q 2243.648 4133.377 2244.328 4133.282 Q 2245.008 4133.188 2245.457 4133.175 Q 2245.906 4133.162 2246.673 4133.084 Q 2247.440 4133.006 2250.702 4132.996 Q 2253.963 4132.985 2255.798 4133.405 Q 2257.633 4133.824 2258.009 4133.955 "></path>
    <path id="STROKE_8cb1cecb-d0a7-4ab8-bb7b-c984e3e0f69d" opacity="1.000" fill="none" stroke="#000000" stroke-width="1.591" stroke-opacity="1.000" stroke-linecap="round" stroke-linejoin="round" d="M 2256.368 4125.167 Q 2255.946 4124.469 2254.145 4121.523 Q 2254.224 4121.764 2254.577 4122.184 Q 2254.929 4122.604 2255.018 4122.706 Q 2255.107 4122.809 2255.285 4123.044 Q 2255.462 4123.280 2255.797 4123.675 Q 2256.131 4124.071 2256.373 4124.358 "></path>
    <path id="STROKE_f0c1cb9a-b634-4d77-84c2-dd5aeb42a8b7" opacity="1.000" fill="none" stroke="#000000" stroke-width="1.591" stroke-opacity="1.000" stroke-linecap="round" stroke-linejoin="round" d="M 2234.499 4118.767 Q 2234.201 4118.842 2233.725 4119.253 Q 2233.249 4119.664 2233.452 4119.546 Q 2233.656 4119.429 2233.430 4119.389 Q 2233.204 4119.348 2233.755 4120.196 Q 2234.306 4121.044 2234.556 4121.272 "></path>
    <path id="STROKE_8dca3c2d-23cc-48e6-bf00-9f8ab5d328e9" opacity="1.000" fill="none" stroke="#000000" stroke-width="1.313" stroke-opacity="1.000" stroke-linecap="round" stroke-linejoin="round" d="M 2235.018 4127.291 Q 2234.491 4127.578 2234.473 4127.946 Q 2234.456 4128.314 2234.446 4128.568 Q 2234.435 4128.822 2234.407 4129.295 Q 2234.378 4129.768 2234.444 4130.920 Q 2234.510 4132.072 2234.710 4136.457 Q 2234.909 4140.841 2234.944 4143.070 Q 2234.979 4145.298 2234.969 4146.447 Q 2234.958 4147.596 2235.318 4148.250 Q 2235.678 4148.903 2238.575 4148.909 Q 2241.471 4148.915 2246.489 4148.997 Q 2251.507 4149.078 2256.897 4148.785 Q 2262.288 4148.493 2269.906 4146.822 Q 2277.524 4145.151 2278.976 4144.688 "></path>
    <path id="STROKE_5f3f77e1-fae2-4112-a2b1-0c3900308593" opacity="1.000" fill="none" stroke="#000000" stroke-width="1.428" stroke-opacity="1.000" stroke-linecap="round" stroke-linejoin="round" d="M 2306.268 4109.962 Q 2306.269 4109.774 2306.176 4109.379 Q 2305.990 4108.871 2305.339 4109.684 Q 2304.688 4110.496 2300.976 4115.344 Q 2297.264 4120.191 2294.366 4123.401 Q 2291.468 4126.612 2288.369 4128.716 Q 2288.263 4127.967 2290.431 4126.216 Q 2292.598 4124.465 2294.525 4123.339 Q 2296.453 4122.213 2297.746 4121.935 Q 2299.040 4121.656 2299.349 4121.702 Q 2299.658 4121.748 2300.439 4122.161 Q 2301.221 4122.574 2300.947 4124.317 Q 2300.673 4126.062 2299.314 4128.272 Q 2297.954 4130.483 2295.991 4134.123 Q 2296.174 4134.335 2301.508 4131.773 Q 2302.240 4132.427 2299.861 4136.691 Q 2297.481 4140.955 2295.763 4146.083 Q 2296.116 4146.413 2297.385 4145.646 Q 2298.654 4144.880 2299.250 4144.312 "></path>
    <path id="STROKE_e0ea2fc6-7d45-4ba3-843d-7cd411378c6f" opacity="1.000" fill="none" stroke="#000000" stroke-width="1.591" stroke-opacity="1.000" stroke-linecap="round" stroke-linejoin="round" d="M 2304.541 4133.638 Q 2304.705 4133.194 2304.212 4132.395 Q 2303.719 4131.595 2301.984 4131.313 Q 2301.876 4131.469 2301.974 4131.152 Q 2302.071 4130.836 2302.374 4130.429 Q 2302.677 4130.022 2302.865 4129.783 Q 2303.054 4129.544 2305.965 4127.912 Q 2308.877 4126.279 2310.997 4125.446 Q 2313.118 4124.612 2313.602 4123.615 Q 2314.085 4122.618 2314.213 4122.303 "></path>
    <path id="STROKE_7445d44d-d2ce-4311-82a9-329bc4ed61ab" opacity="1.000" fill="none" stroke="#000000" stroke-width="1.557" stroke-opacity="1.000" stroke-linecap="round" stroke-linejoin="round" d="M 2314.115 4119.226 Q 2314.185 4119.464 2313.896 4118.465 Q 2313.606 4117.465 2312.827 4117.165 Q 2312.049 4116.864 2310.785 4119.717 Q 2309.521 4122.570 2305.473 4133.585 Q 2305.564 4132.749 2307.375 4131.615 Q 2309.186 4130.481 2311.263 4129.473 Q 2313.339 4128.465 2314.565 4128.101 Q 2315.790 4127.737 2316.654 4128.127 Q 2317.518 4128.517 2317.339 4129.981 Q 2317.160 4131.446 2315.665 4134.054 Q 2314.169 4136.663 2312.196 4139.096 Q 2310.223 4141.530 2305.898 4141.704 Q 2305.534 4141.616 2305.638 4140.479 Q 2305.742 4139.342 2306.352 4138.816 Q 2306.961 4138.290 2307.324 4138.025 Q 2307.688 4137.761 2308.039 4137.621 Q 2308.391 4137.481 2308.817 4136.947 Q 2309.243 4136.414 2315.635 4136.070 Q 2317.715 4138.136 2309.305 4144.084 Q 2309.461 4143.957 2313.101 4141.378 Q 2316.741 4138.799 2317.373 4138.300 "></path>
    <path id="STROKE_5fcf36d6-0089-4176-80fe-c6bf16eda7f5" opacity="1.000" fill="none" stroke="#000000" stroke-width="1.507" stroke-opacity="1.000" stroke-linecap="round" stroke-linejoin="round" d="M 2331.190 4128.374 Q 2330.981 4128.252 2327.808 4127.779 Q 2327.562 4128.155 2331.533 4126.507 Q 2335.504 4124.858 2337.914 4123.713 Q 2340.324 4122.567 2340.963 4121.418 Q 2341.602 4120.269 2341.729 4119.984 "></path>
    <path id="STROKE_6bd8ee01-b5be-473c-9042-547a1b0b4a2f" opacity="1.000" fill="none" stroke="#000000" stroke-width="1.462" stroke-opacity="1.000" stroke-linecap="round" stroke-linejoin="round" d="M 2339.935 4116.402 Q 2340.859 4116.639 2337.341 4115.132 Q 2336.612 4114.543 2336.355 4122.564 Q 2336.099 4130.584 2335.687 4135.896 Q 2335.275 4141.207 2334.101 4145.030 Q 2333.881 4145.855 2331.433 4143.573 Q 2328.985 4141.292 2328.152 4137.121 Q 2328.047 4137.050 2331.708 4135.216 Q 2335.370 4133.382 2336.127 4132.924 "></path>
    <path id="STROKE_b3318567-0d6b-4248-834e-0c4c3062623f" opacity="1.000" fill="none" stroke="#000000" stroke-width="1.493" stroke-opacity="1.000" stroke-linecap="round" stroke-linejoin="round" d="M 2349.417 4115.657 Q 2349.552 4115.263 2350.379 4113.336 Q 2350.428 4114.216 2341.255 4126.805 Q 2341.665 4126.142 2343.756 4124.521 Q 2345.847 4122.901 2347.059 4122.262 Q 2348.271 4121.623 2350.197 4121.488 Q 2352.123 4121.354 2353.499 4123.922 Q 2354.875 4126.490 2355.546 4128.755 Q 2356.218 4131.021 2356.459 4134.240 Q 2356.701 4137.459 2355.887 4140.157 Q 2355.073 4142.854 2354.471 4143.999 Q 2353.868 4145.143 2352.860 4146.220 Q 2351.852 4147.297 2350.025 4147.140 Q 2349.862 4146.685 2349.746 4146.177 Q 2349.629 4145.668 2349.470 4145.104 "></path>
    <path id="STROKE_98b9a00e-1d0e-415e-82b1-9fed5fa7e21d" opacity="1.000" fill="none" stroke="#000000" stroke-width="1.521" stroke-opacity="1.000" stroke-linecap="round" stroke-linejoin="round" d="M 2349.566 4130.885 Q 2349.432 4130.018 2349.216 4129.499 Q 2349.000 4128.979 2348.560 4128.793 Q 2348.119 4128.606 2347.862 4128.793 Q 2347.606 4128.980 2347.499 4129.110 Q 2347.393 4129.239 2346.981 4129.732 Q 2346.569 4130.226 2344.998 4133.334 Q 2343.428 4136.443 2342.311 4139.280 Q 2341.194 4142.118 2340.681 4146.081 Q 2340.766 4146.126 2341.216 4146.047 Q 2341.667 4145.968 2341.852 4145.785 Q 2342.037 4145.601 2342.552 4145.171 Q 2343.067 4144.741 2344.254 4143.438 Q 2345.441 4142.133 2347.030 4140.159 Q 2348.619 4138.185 2351.581 4130.326 Q 2351.685 4129.905 2351.442 4134.502 Q 2351.199 4139.098 2352.145 4141.719 Q 2353.090 4144.340 2353.433 4144.993 "></path>
    <path id="STROKE_9f07badb-8c02-4bd0-b8c4-aafef5b578d3" opacity="1.000" fill="none" stroke="#000000" stroke-width="1.591" stroke-opacity="1.000" stroke-linecap="round" stroke-linejoin="round" d="M 2331.490 4132.143 Q 2331.490 4132.104 2331.521 4131.857 Q 2333.145 4130.537 2336.350 4133.478 Q 2339.556 4136.418 2339.989 4136.895 "></path>
    <path id="STROKE_b49c4bc9-43ac-4c1c-9a52-5447dc3bc16c" opacity="1.000" fill="none" stroke="#000000" stroke-width="1.298" stroke-opacity="1.000" stroke-linecap="round" stroke-linejoin="round" d="M 2190.380 4190.953 Q 2190.348 4190.736 2189.697 4189.331 Q 2190.752 4189.988 2191.745 4204.350 Q 2192.738 4218.710 2193.223 4226.661 Q 2193.709 4234.611 2194.051 4239.500 Q 2194.392 4244.389 2194.389 4247.085 Q 2194.386 4249.781 2194.524 4253.383 Q 2194.663 4256.985 2193.503 4262.847 Q 2193.005 4261.350 2192.948 4259.820 Q 2192.890 4258.291 2191.656 4257.189 Q 2190.423 4256.087 2189.253 4253.369 Q 2188.083 4250.651 2187.677 4247.581 Q 2187.647 4247.581 2187.618 4247.580 Q 2187.359 4248.338 2187.701 4251.032 Q 2188.043 4253.726 2189.265 4255.650 Q 2190.486 4257.574 2191.508 4258.856 Q 2192.530 4260.140 2193.811 4260.787 Q 2195.092 4261.435 2196.342 4259.395 Q 2197.593 4257.354 2198.934 4252.762 Q 2200.274 4248.169 2200.879 4243.661 Q 2201.484 4239.153 2201.745 4237.833 "></path>
    <path id="STROKE_201b8f23-0163-4d94-8de2-6912edba727a" opacity="1.000" fill="none" stroke="#000000" stroke-width="1.565" stroke-opacity="1.000" stroke-linecap="round" stroke-linejoin="round" d="M 2248.506 4212.272 Q 2248.506 4212.242 2248.507 4212.094 Q 2248.682 4212.114 2246.910 4217.433 Q 2245.138 4222.752 2244.792 4223.529 "></path>
    <path id="STROKE_dcf656e2-f5bb-469e-8e52-5219f3b3a980" opacity="1.000" fill="none" stroke="#000000" stroke-width="1.591" stroke-opacity="1.000" stroke-linecap="round" stroke-linejoin="round" d="M 2254.810 4218.015 Q 2254.455 4217.745 2255.971 4219.207 Q 2257.487 4220.669 2258.646 4221.237 Q 2259.804 4221.806 2260.121 4221.995 "></path>
    <path id="STROKE_00bb4e4e-805c-4862-9bd0-979cd95a9e62" opacity="1.000" fill="none" stroke="#000000" stroke-width="1.591" stroke-opacity="1.000" stroke-linecap="round" stroke-linejoin="round" d="M 2253.426 4228.104 Q 2252.817 4227.704 2250.672 4232.665 Q 2248.527 4237.626 2248.273 4237.970 "></path>
    <path id="STROKE_3a5d96d9-ddcd-4596-98f6-647b66506099" opacity="1.000" fill="none" stroke="#000000" stroke-width="1.591" stroke-opacity="1.000" stroke-linecap="round" stroke-linejoin="round" d="M 2248.448 4229.510 Q 2248.678 4229.199 2248.646 4227.750 Q 2248.613 4226.300 2249.134 4225.070 Q 2249.656 4223.840 2250.645 4223.620 Q 2251.634 4223.400 2253.504 4223.480 Q 2255.374 4223.560 2255.844 4227.548 Q 2256.315 4231.535 2256.284 4231.752 "></path>
    <path id="STROKE_702ced26-bcde-4d50-a825-7fd4b1fe60d4" opacity="1.000" fill="none" stroke="#000000" stroke-width="1.591" stroke-opacity="1.000" stroke-linecap="round" stroke-linejoin="round" d="M 2262.255 4221.201 Q 2262.228 4219.981 2266.937 4217.758 Q 2271.645 4215.535 2272.024 4215.192 "></path>
    <path id="STROKE_00702cdf-dd34-4aae-bac1-3176ab5d59e8" opacity="1.000" fill="none" stroke="#000000" stroke-width="1.399" stroke-opacity="1.000" stroke-linecap="round" stroke-linejoin="round" d="M 2270.475 4212.558 Q 2269.472 4211.766 2267.279 4234.824 Q 2266.601 4234.930 2265.971 4233.110 Q 2265.341 4231.291 2264.647 4229.830 Q 2263.953 4228.370 2266.268 4225.951 Q 2268.582 4223.532 2269.089 4222.943 "></path>
    <path id="STROKE_4be4dbb9-46e5-45af-a464-ad52bd773192" opacity="1.000" fill="none" stroke="#000000" stroke-width="1.591" stroke-opacity="1.000" stroke-linecap="round" stroke-linejoin="round" d="M 2278.256 4214.169 Q 2277.888 4213.587 2276.616 4217.893 Q 2275.344 4222.198 2275.070 4224.296 Q 2274.796 4226.395 2274.470 4227.472 Q 2274.145 4228.548 2274.054 4228.917 Q 2273.964 4229.286 2273.238 4230.309 Q 2273.171 4229.440 2273.328 4227.658 Q 2273.484 4225.875 2273.722 4225.094 Q 2273.960 4224.312 2274.335 4223.849 Q 2274.710 4223.386 2275.124 4222.974 Q 2275.537 4222.561 2275.949 4222.235 Q 2276.361 4221.910 2277.020 4221.439 Q 2277.679 4220.969 2279.503 4220.005 Q 2281.328 4219.042 2281.670 4218.768 "></path>
    <path id="STROKE_51bd98b9-b6b6-48ac-82ff-9f6547109284" opacity="1.000" fill="none" stroke="#000000" stroke-width="1.591" stroke-opacity="1.000" stroke-linecap="round" stroke-linejoin="round" d="M 2280.854 4219.078 Q 2280.747 4219.161 2279.751 4220.142 Q 2278.755 4221.122 2278.559 4225.619 Q 2278.363 4230.116 2278.323 4230.461 "></path>
    <path id="STROKE_bead4c5b-a936-4a96-a70e-59ad4cc1a03c" opacity="1.000" fill="none" stroke="#000000" stroke-width="1.471" stroke-opacity="1.000" stroke-linecap="round" stroke-linejoin="round" d="M 2290.875 4213.189 Q 2291.169 4212.877 2291.409 4212.907 Q 2291.624 4213.296 2291.930 4215.798 Q 2292.236 4218.300 2292.749 4219.772 Q 2293.262 4221.245 2294.371 4222.167 Q 2295.479 4223.090 2298.088 4221.705 Q 2300.696 4220.319 2303.645 4217.536 Q 2306.594 4214.753 2309.663 4207.182 Q 2309.719 4208.290 2307.812 4225.078 Q 2307.719 4224.673 2307.625 4224.269 "></path>
    <path id="STROKE_36f571f3-e19f-428b-b84f-25a083eb8a54" opacity="1.000" fill="none" stroke="#000000" stroke-width="1.545" stroke-opacity="1.000" stroke-linecap="round" stroke-linejoin="round" d="M 2307.476 4220.185 Q 2308.103 4219.834 2303.919 4211.521 Q 2303.711 4211.601 2303.505 4212.177 Q 2303.298 4212.753 2303.264 4213.202 Q 2303.230 4213.650 2303.213 4214.064 Q 2303.195 4214.479 2301.867 4221.386 Q 2300.538 4228.293 2300.323 4228.479 "></path>
    <path id="STROKE_7956c55c-be37-492f-b8e8-58b141d230e6" opacity="1.000" fill="none" stroke="#000000" stroke-width="1.492" stroke-opacity="1.000" stroke-linecap="round" stroke-linejoin="round" d="M 2298.456 4224.700 Q 2297.608 4223.676 2296.733 4222.997 Q 2295.858 4222.318 2294.481 4222.140 Q 2293.104 4221.961 2292.610 4223.490 Q 2292.115 4225.019 2291.896 4226.949 Q 2291.675 4228.878 2291.721 4230.144 Q 2291.767 4231.410 2292.091 4232.083 Q 2292.414 4232.757 2293.268 4233.344 Q 2294.121 4233.930 2296.068 4233.791 Q 2298.015 4233.651 2301.872 4230.931 Q 2305.730 4228.210 2312.234 4220.591 Q 2311.509 4221.138 2311.325 4225.737 Q 2311.140 4230.337 2311.292 4230.802 "></path>
    <path id="STROKE_056fd056-02e2-4646-8755-661f097c693a" opacity="1.000" fill="none" stroke="#000000" stroke-width="1.591" stroke-opacity="1.000" stroke-linecap="round" stroke-linejoin="round" d="M 2325.783 4213.168 Q 2325.957 4213.540 2325.378 4212.406 Q 2324.800 4211.272 2324.782 4209.217 Q 2324.693 4209.056 2325.321 4209.007 Q 2325.948 4208.957 2326.644 4209.166 Q 2327.340 4209.374 2327.374 4210.659 Q 2327.408 4211.943 2327.423 4212.740 Q 2327.438 4213.537 2327.436 4214.486 Q 2327.434 4215.435 2326.670 4217.181 Q 2325.906 4218.927 2325.264 4220.179 Q 2324.622 4221.431 2322.809 4221.166 Q 2322.592 4220.504 2321.504 4216.216 Q 2321.751 4216.586 2324.002 4217.905 Q 2326.253 4219.224 2328.230 4219.174 Q 2330.208 4219.125 2330.652 4219.039 "></path>
    <path id="STROKE_00f89744-3d43-40e4-b129-b2b5ed9ae59a" opacity="1.000" fill="none" stroke="#000000" stroke-width="1.591" stroke-opacity="1.000" stroke-linecap="round" stroke-linejoin="round" d="M 2332.794 4217.101 Q 2332.795 4217.012 2332.768 4216.637 Q 2332.588 4216.566 2332.488 4216.547 Q 2333.144 4216.322 2337.140 4214.795 Q 2341.137 4213.268 2343.754 4212.142 Q 2346.372 4211.016 2347.240 4209.929 Q 2348.108 4208.842 2348.363 4208.370 "></path>
    <path id="STROKE_1b59d3dc-973b-4ba0-ad5a-273cb65a1779" opacity="1.000" fill="none" stroke="#000000" stroke-width="1.427" stroke-opacity="1.000" stroke-linecap="round" stroke-linejoin="round" d="M 2348.152 4202.353 Q 2348.201 4202.164 2348.043 4202.104 Q 2347.885 4202.043 2347.566 4202.071 Q 2347.247 4202.100 2346.875 4202.377 Q 2346.504 4202.654 2346.496 4203.013 Q 2346.488 4203.372 2346.185 4203.632 Q 2345.883 4203.892 2345.189 4212.383 Q 2344.496 4220.875 2343.604 4230.053 Q 2342.360 4230.625 2339.046 4220.782 Q 2339.269 4220.616 2340.576 4219.767 Q 2341.882 4218.918 2342.455 4218.488 "></path>
    <path id="STROKE_935b9a98-f68b-4090-91bd-2e84fdced209" opacity="1.000" fill="none" stroke="#000000" stroke-width="1.591" stroke-opacity="1.000" stroke-linecap="round" stroke-linejoin="round" d="M 2370.273 4199.879 Q 2369.307 4199.873 2369.393 4199.873 Q 2369.231 4199.872 2369.075 4199.871 Q 2369.540 4200.031 2372.593 4199.579 Q 2375.645 4199.126 2375.927 4199.029 "></path>
    <path id="STROKE_52de811a-8e38-4d72-a604-732e492b9727" opacity="1.000" fill="none" stroke="#000000" stroke-width="1.565" stroke-opacity="1.000" stroke-linecap="round" stroke-linejoin="round" d="M 2371.921 4205.393 Q 2371.750 4205.627 2370.113 4207.280 Q 2368.475 4208.933 2365.037 4211.185 Q 2366.091 4210.729 2375.337 4203.167 Q 2374.706 4202.575 2371.438 4206.129 Q 2368.169 4209.684 2365.983 4213.148 Q 2363.797 4216.612 2362.394 4221.590 Q 2362.510 4222.151 2363.873 4220.599 Q 2365.235 4219.046 2365.742 4218.389 "></path>
    <path id="STROKE_e0209862-58eb-458c-bb21-677d849ee061" opacity="1.000" fill="none" stroke="#000000" stroke-width="1.423" stroke-opacity="1.000" stroke-linecap="round" stroke-linejoin="round" d="M 2369.297 4213.028 Q 2369.253 4213.185 2369.809 4211.710 Q 2369.680 4211.824 2369.345 4213.628 Q 2369.011 4215.433 2368.982 4216.673 Q 2368.953 4217.913 2369.239 4218.668 Q 2369.524 4219.424 2370.819 4219.622 Q 2372.115 4219.819 2374.159 4218.022 Q 2376.204 4216.226 2378.786 4211.277 Q 2378.370 4213.244 2378.467 4212.961 Q 2378.563 4212.678 2377.460 4215.020 Q 2376.356 4217.361 2373.946 4219.830 Q 2371.535 4222.298 2359.787 4226.632 Q 2359.561 4226.906 2364.076 4224.502 Q 2368.592 4222.098 2371.608 4220.767 Q 2374.625 4219.436 2377.942 4218.178 Q 2381.260 4216.919 2387.507 4216.160 Q 2393.754 4215.401 2398.692 4215.188 Q 2403.631 4214.976 2404.327 4214.763 "></path>
    <path id="STROKE_8ef4f0a2-934b-4fe3-a8c7-f40635f03d93" opacity="1.000" fill="none" stroke="#000000" stroke-width="1.553" stroke-opacity="1.000" stroke-linecap="round" stroke-linejoin="round" d="M 2407.415 4201.885 Q 2407.231 4200.698 2406.779 4195.431 Q 2406.810 4195.021 2406.036 4195.678 Q 2405.263 4196.336 2403.382 4198.540 Q 2401.501 4200.745 2398.572 4202.141 Q 2398.353 4203.088 2397.536 4215.378 Q 2398.693 4215.784 2399.486 4212.817 Q 2400.279 4209.850 2400.422 4206.216 Q 2401.034 4206.566 2401.752 4207.869 Q 2402.470 4209.171 2400.993 4212.481 Q 2399.515 4215.792 2397.510 4219.293 Q 2397.449 4220.001 2400.387 4215.066 Q 2403.325 4210.131 2404.921 4206.827 Q 2406.517 4203.523 2408.585 4201.577 Q 2409.580 4202.085 2410.869 4204.417 Q 2412.158 4206.749 2412.488 4209.507 Q 2412.818 4212.265 2412.527 4214.171 Q 2412.236 4216.078 2411.490 4217.301 Q 2410.743 4218.524 2409.599 4219.343 Q 2408.455 4220.161 2406.169 4220.541 Q 2403.883 4220.921 2402.757 4212.997 Q 2403.244 4213.116 2403.949 4212.644 Q 2404.655 4212.172 2405.101 4211.830 "></path>
    <path id="STROKE_a6834f40-2a8a-4f9e-a73c-6c5ea595edc0" opacity="1.000" fill="none" stroke="#000000" stroke-width="1.591" stroke-opacity="1.000" stroke-linecap="round" stroke-linejoin="round" d="M 2414.772 4191.836 Q 2412.444 4189.627 2408.445 4197.733 Q 2404.446 4205.839 2404.131 4206.498 "></path>
    <path id="STROKE_8caf9578-a2a4-4b2f-bac2-f055ded1fddd" opacity="1.000" fill="none" stroke="#000000" stroke-width="1.591" stroke-opacity="1.000" stroke-linecap="round" stroke-linejoin="round" d="M 2403.534 4209.492 Q 2403.535 4209.403 2403.537 4209.117 Q 2404.486 4209.122 2404.456 4209.127 Q 2404.426 4209.133 2404.421 4209.130 Q 2404.417 4209.127 2404.371 4209.099 Q 2404.325 4209.070 2404.895 4209.132 Q 2405.463 4209.193 2406.503 4210.312 Q 2407.543 4211.432 2407.734 4211.650 "></path>
    <path id="STROKE_372e703f-0a7d-469a-a39e-37d878920851" opacity="1.000" fill="none" stroke="#000000" stroke-width="1.591" stroke-opacity="1.000" stroke-linecap="round" stroke-linejoin="round" d="M 2114.044 4320.140 Q 2113.948 4320.139 2113.697 4320.137 Q 2113.524 4321.677 2113.590 4321.665 Q 2113.209 4322.369 2113.688 4328.005 Q 2114.167 4333.641 2114.321 4333.928 "></path>
    <path id="STROKE_0a8fad1f-34e4-4e1c-842c-617daf5afbcf" opacity="1.000" fill="none" stroke="#000000" stroke-width="1.591" stroke-opacity="1.000" stroke-linecap="round" stroke-linejoin="round" d="M 2114.628 4325.666 Q 2114.438 4325.478 2113.889 4324.171 Q 2113.340 4322.865 2113.660 4321.806 Q 2113.980 4320.747 2115.541 4319.777 Q 2117.101 4318.808 2120.314 4318.295 Q 2123.527 4317.782 2125.748 4317.980 Q 2127.969 4318.180 2129.410 4319.418 Q 2130.851 4320.656 2131.098 4321.975 Q 2131.344 4323.294 2131.466 4323.827 "></path>
    <path id="STROKE_7275a549-5075-4d30-b828-57acbc6887d9" opacity="1.000" fill="none" stroke="#000000" stroke-width="1.591" stroke-opacity="1.000" stroke-linecap="round" stroke-linejoin="round" d="M 2119.378 4329.445 Q 2118.846 4329.055 2119.061 4328.082 Q 2119.276 4327.109 2122.190 4325.229 Q 2125.104 4323.350 2125.513 4322.979 "></path>
    <path id="STROKE_c425a293-ca44-4e9f-a3c1-aa56ca9c676c" opacity="1.000" fill="none" stroke="#000000" stroke-width="1.585" stroke-opacity="1.000" stroke-linecap="round" stroke-linejoin="round" d="M 2124.828 4321.475 Q 2124.967 4321.677 2123.896 4322.370 Q 2122.824 4323.062 2122.108 4330.243 Q 2123.137 4329.083 2126.964 4327.021 Q 2126.794 4328.603 2123.920 4331.670 Q 2121.046 4334.738 2117.919 4337.782 Q 2114.791 4340.827 2109.684 4342.851 Q 2110.083 4340.696 2109.967 4341.045 Q 2109.851 4341.394 2110.599 4340.292 Q 2111.347 4339.190 2111.920 4338.755 Q 2112.493 4338.321 2112.791 4338.175 Q 2113.089 4338.028 2113.292 4338.264 Q 2113.495 4338.499 2113.862 4338.913 Q 2114.230 4339.327 2114.231 4339.499 Q 2114.232 4339.670 2114.547 4340.154 Q 2114.863 4340.639 2115.605 4342.128 Q 2116.347 4343.617 2118.637 4344.510 Q 2120.926 4345.403 2123.099 4345.418 Q 2125.271 4345.433 2127.521 4344.242 Q 2129.770 4343.051 2131.101 4341.795 Q 2132.433 4340.540 2132.939 4340.010 "></path>
    <path id="STROKE_d8660c47-bc07-4a9a-bd0e-2ff10a267f02" opacity="1.000" fill="none" stroke="#000000" stroke-width="1.591" stroke-opacity="1.000" stroke-linecap="round" stroke-linejoin="round" d="M 2132.979 4333.995 Q 2132.336 4333.828 2130.251 4334.336 Q 2128.166 4334.845 2126.915 4336.057 Q 2125.664 4337.268 2125.655 4339.172 Q 2125.994 4339.303 2126.372 4339.305 Q 2126.749 4339.308 2127.222 4339.281 "></path>
    <path id="STROKE_b119d824-6fe2-4da1-a835-2fec84762234" opacity="1.000" fill="none" stroke="#000000" stroke-width="1.591" stroke-opacity="1.000" stroke-linecap="round" stroke-linejoin="round" d="M 2141.651 4332.850 Q 2142.198 4332.980 2142.360 4333.334 Q 2142.523 4333.688 2142.477 4333.768 Q 2142.431 4333.848 2142.455 4333.540 Q 2142.478 4333.232 2142.370 4336.997 Q 2142.812 4337.217 2143.129 4337.318 "></path>
    <path id="STROKE_1f957787-a302-4a1e-aeec-9a7e8c8d895f" opacity="1.000" fill="none" stroke="#000000" stroke-width="1.496" stroke-opacity="1.000" stroke-linecap="round" stroke-linejoin="round" d="M 2163.835 4310.081 Q 2163.865 4310.013 2163.896 4309.884 Q 2164.071 4309.666 2162.120 4313.202 Q 2160.170 4316.739 2158.181 4319.924 Q 2156.191 4323.110 2153.655 4325.476 Q 2152.687 4323.753 2158.963 4321.163 Q 2159.791 4320.544 2157.938 4327.290 Q 2159.616 4326.189 2162.165 4325.356 Q 2162.781 4326.007 2161.598 4330.378 Q 2160.414 4334.750 2156.728 4340.092 Q 2156.640 4339.789 2159.150 4337.142 Q 2161.661 4334.495 2163.640 4329.260 Q 2165.620 4324.025 2166.364 4321.198 Q 2167.107 4318.371 2168.297 4316.428 Q 2169.488 4314.485 2171.312 4314.017 Q 2172.036 4314.514 2170.895 4317.454 Q 2169.753 4320.394 2168.292 4322.547 Q 2166.830 4324.699 2165.895 4325.946 Q 2164.959 4327.192 2163.687 4327.733 Q 2163.585 4327.264 2163.712 4326.514 Q 2163.839 4325.764 2163.873 4325.802 Q 2163.908 4325.840 2164.470 4325.599 Q 2165.032 4325.358 2165.971 4326.370 Q 2166.910 4327.381 2167.724 4333.591 Q 2168.538 4339.802 2169.266 4342.989 Q 2169.994 4346.177 2170.244 4346.278 "></path>
    <path id="STROKE_671e86ac-4e93-45be-9671-2f315bdafd86" opacity="1.000" fill="none" stroke="#000000" stroke-width="1.591" stroke-opacity="1.000" stroke-linecap="round" stroke-linejoin="round" d="M 2172.491 4320.100 Q 2172.279 4319.783 2170.995 4318.334 Q 2170.953 4318.240 2174.816 4316.981 Q 2178.679 4315.724 2179.116 4315.510 "></path>
    <path id="STROKE_fe41c623-105b-46ac-9633-d0a4a9b1a981" opacity="1.000" fill="none" stroke="#000000" stroke-width="1.588" stroke-opacity="1.000" stroke-linecap="round" stroke-linejoin="round" d="M 2175.227 4324.379 Q 2174.946 4324.406 2173.379 4324.366 Q 2173.222 4323.008 2173.258 4323.202 Q 2173.293 4323.396 2173.313 4323.279 Q 2173.334 4323.163 2173.427 4323.038 Q 2173.520 4322.913 2174.784 4321.945 Q 2176.047 4320.978 2180.904 4321.153 Q 2181.510 4321.979 2180.049 4324.019 Q 2178.587 4326.059 2174.641 4328.004 Q 2174.152 4326.700 2178.898 4325.873 Q 2180.108 4326.632 2175.049 4333.214 Q 2176.013 4332.802 2177.921 4331.442 Q 2179.828 4330.083 2180.544 4328.085 Q 2181.261 4326.088 2180.917 4323.589 Q 2180.851 4323.588 2180.792 4323.588 Q 2180.510 4324.410 2180.625 4327.603 Q 2180.742 4330.795 2180.799 4332.749 Q 2180.856 4334.703 2180.493 4336.082 Q 2180.131 4337.460 2178.960 4337.940 Q 2177.789 4338.420 2173.805 4340.148 Q 2174.783 4339.829 2176.747 4338.354 Q 2178.711 4336.879 2185.086 4335.003 Q 2191.461 4333.127 2192.188 4332.876 "></path>
    <path id="STROKE_45efd9c4-7e2d-469a-a9cb-9ccd31fbc2df" opacity="1.000" fill="none" stroke="#000000" stroke-width="1.591" stroke-opacity="1.000" stroke-linecap="round" stroke-linejoin="round" d="M 2198.910 4313.888 Q 2198.910 4313.858 2198.910 4313.829 Q 2199.097 4313.724 2199.173 4313.779 Q 2199.248 4313.833 2199.758 4314.030 Q 2200.268 4314.227 2200.290 4314.812 Q 2200.312 4315.396 2200.347 4315.712 "></path>
    <path id="STROKE_d4aa2782-129e-4858-ac86-99fa534d0fa3" opacity="1.000" fill="none" stroke="#000000" stroke-width="1.363" stroke-opacity="1.000" stroke-linecap="round" stroke-linejoin="round" d="M 2196.469 4322.826 Q 2196.634 4322.791 2195.833 4322.881 Q 2196.921 4322.142 2196.842 4322.326 Q 2196.785 4322.070 2197.588 4322.103 Q 2198.392 4322.134 2198.735 4322.041 Q 2199.079 4321.948 2199.880 4322.659 Q 2200.681 4323.370 2200.697 4323.875 Q 2200.712 4324.379 2200.819 4325.064 Q 2200.926 4325.749 2200.928 4326.377 Q 2200.930 4327.006 2200.953 4329.790 Q 2200.975 4332.573 2200.393 4340.672 Q 2200.933 4340.798 2203.560 4337.707 Q 2206.187 4334.616 2207.629 4329.033 Q 2209.072 4323.450 2209.474 4319.361 Q 2209.875 4315.272 2212.640 4311.476 Q 2212.676 4311.799 2213.020 4313.098 Q 2213.364 4314.396 2211.363 4322.718 Q 2209.362 4331.040 2207.457 4335.375 Q 2205.552 4339.711 2205.268 4340.124 "></path>
    <path id="STROKE_6c664878-b8fb-43d3-a07e-8a5ca16abb93" opacity="1.000" fill="none" stroke="#000000" stroke-width="1.591" stroke-opacity="1.000" stroke-linecap="round" stroke-linejoin="round" d="M 2209.212 4331.866 Q 2209.172 4331.675 2209.913 4329.998 Q 2210.889 4330.169 2213.273 4331.794 Q 2215.658 4333.418 2218.468 4333.704 Q 2221.278 4333.989 2222.061 4334.083 "></path>
    <path id="STROKE_d7523683-5b9d-4feb-98f7-dbf58b9d57fb" opacity="1.000" fill="none" stroke="#000000" stroke-width="1.591" stroke-opacity="1.000" stroke-linecap="round" stroke-linejoin="round" d="M 2233.821 4313.551 Q 2233.062 4313.099 2232.455 4312.103 Q 2232.836 4310.902 2235.357 4311.787 Q 2237.878 4312.672 2238.156 4313.088 "></path>
    <path id="STROKE_b2112f6d-2cd2-46bd-be4e-96bdcac282c3" opacity="1.000" fill="none" stroke="#000000" stroke-width="1.445" stroke-opacity="1.000" stroke-linecap="round" stroke-linejoin="round" d="M 2234.123 4323.573 Q 2233.173 4323.560 2233.310 4323.449 Q 2233.271 4323.304 2233.104 4322.274 Q 2232.936 4321.246 2233.591 4320.811 Q 2234.246 4320.376 2234.712 4320.307 Q 2235.179 4320.237 2236.299 4320.309 Q 2237.420 4320.381 2237.285 4339.196 Q 2238.837 4339.544 2240.989 4332.282 Q 2243.141 4325.020 2244.183 4319.789 Q 2245.225 4314.558 2247.018 4311.195 L 2247.114 4311.195 Q 2247.738 4311.247 2246.895 4317.549 Q 2246.052 4323.851 2245.857 4324.343 "></path>
    <path id="STROKE_5aec3596-7cad-4bbb-b91a-6bf4a44b9631" opacity="1.000" fill="none" stroke="#000000" stroke-width="1.591" stroke-opacity="1.000" stroke-linecap="round" stroke-linejoin="round" d="M 2248.099 4318.599 Q 2247.967 4319.233 2248.589 4316.801 Q 2249.211 4314.369 2250.569 4312.515 Q 2251.927 4310.660 2252.771 4310.108 Q 2253.615 4309.557 2254.613 4309.279 Q 2255.611 4309.002 2256.207 4309.073 Q 2256.802 4309.144 2256.976 4309.132 Q 2257.149 4309.120 2257.660 4310.666 Q 2258.171 4312.212 2257.418 4314.913 Q 2256.665 4317.613 2255.745 4318.867 Q 2254.824 4320.121 2253.601 4321.832 Q 2252.377 4323.543 2247.117 4323.917 Q 2246.352 4323.747 2253.548 4321.771 Q 2253.548 4321.801 2253.510 4321.948 Q 2253.339 4321.947 2253.044 4321.916 Q 2253.002 4321.813 2252.882 4321.415 Q 2252.762 4321.017 2252.779 4321.070 Q 2252.797 4321.124 2252.787 4321.102 Q 2252.776 4321.080 2252.644 4320.953 Q 2252.512 4320.827 2252.358 4320.698 "></path>
    <path id="STROKE_8785dddb-6545-4a0f-8a1b-7c83ac84bff8" opacity="1.000" fill="none" stroke="#000000" stroke-width="1.495" stroke-opacity="1.000" stroke-linecap="round" stroke-linejoin="round" d="M 2236.146 4321.772 Q 2235.777 4321.603 2235.369 4322.584 Q 2234.960 4323.565 2234.978 4324.322 Q 2234.996 4325.078 2235.708 4325.552 Q 2236.421 4326.025 2237.728 4326.166 Q 2239.035 4326.306 2240.299 4326.074 Q 2241.562 4325.843 2243.327 4324.317 Q 2245.092 4322.792 2246.278 4321.432 Q 2247.465 4320.071 2248.125 4317.995 Q 2248.785 4315.919 2248.103 4313.786 Q 2247.420 4311.653 2246.368 4310.941 Q 2245.315 4310.230 2243.863 4309.653 Q 2242.412 4309.076 2240.714 4310.221 Q 2239.017 4311.367 2237.247 4313.930 Q 2235.477 4316.493 2234.449 4319.559 Q 2233.422 4322.624 2233.175 4324.039 Q 2232.928 4325.454 2233.298 4326.745 Q 2233.668 4328.037 2234.325 4328.577 Q 2234.982 4329.116 2235.618 4329.447 Q 2236.255 4329.777 2237.977 4329.817 Q 2239.699 4329.857 2241.205 4329.532 Q 2242.710 4329.207 2245.171 4327.240 Q 2247.632 4325.273 2249.455 4323.131 Q 2251.277 4320.989 2251.874 4318.448 Q 2252.471 4315.908 2252.063 4313.399 Q 2251.656 4310.891 2250.891 4309.592 Q 2250.125 4308.292 2249.268 4307.385 Q 2248.410 4306.479 2246.774 4306.389 Q 2245.138 4306.299 2242.510 4310.230 Q 2239.881 4314.163 2238.387 4317.062 Q 2236.893 4319.963 2236.332 4322.148 Q 2235.770 4324.334 2235.904 4326.378 Q 2236.038 4328.421 2237.240 4329.602 Q 2238.443 4330.782 2239.097 4331.318 "></path>
    <path id="STROKE_e820e3a9-d38e-4e1a-8ff3-26d87b10b433" opacity="1.000" fill="none" stroke="#000000" stroke-width="1.525" stroke-opacity="1.000" stroke-linecap="round" stroke-linejoin="round" d="M 2273.807 4305.932 Q 2273.972 4305.963 2273.367 4305.416 Q 2273.563 4305.572 2270.755 4311.585 Q 2267.948 4317.598 2267.380 4318.472 "></path>
    <path id="STROKE_5075859e-02c8-4fca-801a-39c7df9218b1" opacity="1.000" fill="none" stroke="#000000" stroke-width="1.591" stroke-opacity="1.000" stroke-linecap="round" stroke-linejoin="round" d="M 2267.492 4319.419 Q 2267.317 4319.687 2267.512 4319.459 Q 2267.706 4319.231 2268.679 4317.884 Q 2269.652 4316.537 2272.009 4315.338 Q 2274.366 4314.139 2276.395 4314.232 Q 2278.423 4314.326 2278.644 4314.485 "></path>
    <path id="STROKE_b75d5032-95da-4734-8136-8d51a671cee1" opacity="1.000" fill="none" stroke="#000000" stroke-width="1.591" stroke-opacity="1.000" stroke-linecap="round" stroke-linejoin="round" d="M 2265.690 4325.680 Q 2265.953 4325.665 2263.811 4325.903 Q 2263.026 4325.574 2266.583 4324.478 Q 2270.141 4323.382 2270.616 4323.129 "></path>
    <path id="STROKE_c3c090bf-359d-4a72-a8ff-2874582c3730" opacity="1.000" fill="none" stroke="#000000" stroke-width="1.552" stroke-opacity="1.000" stroke-linecap="round" stroke-linejoin="round" d="M 2274.233 4317.276 Q 2274.541 4316.939 2272.794 4318.117 Q 2271.048 4319.295 2265.974 4331.815 Q 2265.795 4332.246 2267.102 4330.691 Q 2268.408 4329.136 2269.791 4328.116 Q 2271.175 4327.096 2272.050 4326.756 Q 2272.925 4326.416 2274.194 4326.953 Q 2275.463 4327.490 2275.580 4328.029 Q 2275.696 4328.568 2275.893 4329.195 Q 2276.089 4329.822 2276.839 4330.152 Q 2277.589 4330.483 2277.841 4330.456 "></path>
    <path id="STROKE_94829ea2-787a-4591-b4f6-bb787d862e98" opacity="1.000" fill="none" stroke="#000000" stroke-width="1.591" stroke-opacity="1.000" stroke-linecap="round" stroke-linejoin="round" d="M 2278.414 4320.065 Q 2278.439 4320.065 2277.157 4320.057 Q 2276.984 4319.709 2286.770 4315.290 Q 2288.595 4316.157 2280.384 4326.015 Q 2281.656 4325.797 2283.038 4324.391 Q 2284.419 4322.985 2284.547 4322.671 "></path>
    <path id="STROKE_fcdd0b51-28bd-451a-8332-27c476cba286" opacity="1.000" fill="none" stroke="#000000" stroke-width="1.591" stroke-opacity="1.000" stroke-linecap="round" stroke-linejoin="round" d="M 2281.885 4318.333 Q 2281.525 4318.382 2280.948 4318.304 Q 2280.371 4318.226 2279.680 4321.611 Q 2278.989 4324.996 2279.208 4326.839 Q 2279.427 4328.682 2279.550 4329.146 "></path>
    <path id="STROKE_47b55c28-1d32-4533-91b1-e98934e2cdd8" opacity="1.000" fill="none" stroke="#000000" stroke-width="1.591" stroke-opacity="1.000" stroke-linecap="round" stroke-linejoin="round" d="M 2307.769 4314.682 Q 2307.694 4314.763 2307.095 4313.799 Q 2306.489 4313.603 2310.578 4312.654 Q 2314.667 4311.705 2318.626 4311.532 Q 2322.585 4311.359 2323.184 4311.334 "></path>
    <path id="STROKE_acfbc5c9-116c-4694-962c-1692e57b9457" opacity="1.000" fill="none" stroke="#000000" stroke-width="1.588" stroke-opacity="1.000" stroke-linecap="round" stroke-linejoin="round" d="M 2305.387 4323.679 Q 2305.600 4323.679 2303.687 4323.747 Q 2304.112 4324.492 2314.171 4321.442 Q 2324.230 4318.392 2324.898 4318.052 "></path>
    <path id="STROKE_a3afaa43-fb77-413b-8f64-264b9ba4c321" opacity="1.000" fill="none" stroke="#000000" stroke-width="1.389" stroke-opacity="1.000" stroke-linecap="round" stroke-linejoin="round" d="M 2322.500 4318.410 Q 2323.087 4318.502 2321.695 4318.410 Q 2320.302 4318.319 2317.906 4322.411 Q 2315.510 4326.503 2312.775 4331.941 Q 2310.041 4337.379 2309.818 4337.634 "></path>
    <path id="STROKE_16a55584-3a5c-4800-b726-0ada12757fab" opacity="1.000" fill="none" stroke="#000000" stroke-width="1.591" stroke-opacity="1.000" stroke-linecap="round" stroke-linejoin="round" d="M 2323.112 4321.925 Q 2323.113 4321.768 2323.115 4321.432 L 2323.078 4321.432 Q 2322.898 4321.116 2322.878 4323.808 Q 2322.858 4326.499 2322.942 4328.264 Q 2323.025 4330.029 2323.615 4331.096 Q 2324.206 4332.163 2326.780 4332.818 Q 2329.354 4333.474 2332.431 4332.589 Q 2335.508 4331.705 2337.350 4331.102 Q 2339.191 4330.499 2340.010 4328.804 Q 2340.025 4328.813 2339.636 4328.445 Q 2339.246 4328.077 2339.265 4328.118 Q 2339.284 4328.160 2339.320 4328.206 Q 2339.356 4328.252 2338.704 4327.397 Q 2338.051 4326.542 2337.840 4326.107 "></path>
    <path id="STROKE_44f6a0cc-043a-471b-b74e-735f9b4f2b2c" opacity="1.000" fill="none" stroke="#000000" stroke-width="1.591" stroke-opacity="1.000" stroke-linecap="round" stroke-linejoin="round" d="M 2322.739 4320.226 Q 2323.123 4320.145 2328.909 4318.367 Q 2334.696 4316.589 2335.393 4316.249 "></path>
    <path id="STROKE_f57db794-e33a-44b8-ab9b-c8a7de6d66c1" opacity="1.000" fill="none" stroke="#000000" stroke-width="1.591" stroke-opacity="1.000" stroke-linecap="round" stroke-linejoin="round" d="M 2364.334 4306.483 Q 2365.368 4305.134 2365.072 4305.517 Q 2364.776 4305.898 2365.738 4304.541 Q 2366.181 4304.735 2357.714 4319.082 Q 2357.760 4319.281 2362.002 4316.921 Q 2362.196 4315.499 2361.247 4322.498 Q 2361.730 4322.576 2366.889 4323.443 Q 2369.022 4324.987 2363.580 4334.979 Q 2363.478 4335.241 2364.209 4334.582 Q 2364.940 4333.923 2365.350 4333.492 "></path>
    <path id="STROKE_5470e635-797d-4ec7-9a29-5a000f480cba" opacity="1.000" fill="none" stroke="#000000" stroke-width="1.569" stroke-opacity="1.000" stroke-linecap="round" stroke-linejoin="round" d="M 2371.603 4318.308 Q 2371.347 4318.255 2372.203 4315.219 Q 2373.060 4312.182 2375.552 4309.301 Q 2375.728 4310.236 2367.637 4318.774 Q 2367.337 4318.282 2370.976 4316.251 Q 2374.614 4314.219 2377.327 4313.203 Q 2380.040 4312.187 2380.779 4310.803 Q 2381.517 4309.420 2381.646 4309.046 "></path>
    <path id="STROKE_62dc8c98-e8bd-4c18-be34-b750f5bf7292" opacity="1.000" fill="none" stroke="#000000" stroke-width="1.556" stroke-opacity="1.000" stroke-linecap="round" stroke-linejoin="round" d="M 2379.788 4306.134 Q 2377.451 4304.975 2376.358 4309.747 Q 2375.266 4314.519 2375.029 4317.296 Q 2374.791 4320.072 2374.167 4321.839 Q 2373.543 4323.606 2373.000 4324.555 Q 2372.458 4325.503 2371.304 4325.416 Q 2370.317 4324.121 2378.184 4320.226 Q 2378.923 4320.252 2377.148 4324.864 Q 2375.374 4329.477 2372.059 4333.971 Q 2371.779 4333.990 2374.326 4331.292 Q 2376.872 4328.594 2381.399 4327.013 Q 2382.033 4327.962 2380.670 4330.639 Q 2379.307 4333.315 2375.412 4334.506 Q 2374.722 4334.198 2377.488 4331.573 Q 2380.255 4328.948 2380.820 4328.389 "></path>
    <path id="STROKE_c45d64b8-24e5-4585-9989-60c7f8e9f776" opacity="1.000" fill="none" stroke="#000000" stroke-width="1.574" stroke-opacity="1.000" stroke-linecap="round" stroke-linejoin="round" d="M 2387.092 4321.410 Q 2387.910 4320.710 2389.685 4318.414 Q 2391.460 4316.118 2395.419 4315.502 Q 2399.378 4314.886 2399.823 4314.672 "></path>
    <path id="STROKE_8974b238-2f13-4e79-9df9-2128c3634c34" opacity="1.000" fill="none" stroke="#000000" stroke-width="1.539" stroke-opacity="1.000" stroke-linecap="round" stroke-linejoin="round" d="M 2401.551 4308.352 Q 2401.250 4308.188 2400.862 4308.493 Q 2400.474 4308.798 2400.104 4310.738 Q 2399.734 4312.678 2399.626 4315.077 Q 2399.518 4317.475 2399.392 4320.127 Q 2399.265 4322.780 2399.001 4326.382 Q 2398.737 4329.985 2398.322 4331.848 Q 2397.906 4333.711 2397.397 4334.693 Q 2396.889 4335.676 2396.444 4335.883 Q 2395.999 4336.091 2395.203 4335.954 Q 2394.407 4335.818 2393.035 4333.975 Q 2391.662 4332.131 2391.423 4329.511 Q 2391.184 4326.891 2390.878 4324.973 Q 2390.573 4323.054 2394.292 4320.094 Q 2398.010 4317.135 2398.553 4316.675 "></path>
    <path id="STROKE_2b8e0b18-0563-421b-bcf5-4b10fd839673" opacity="1.000" fill="none" stroke="#000000" stroke-width="1.472" stroke-opacity="1.000" stroke-linecap="round" stroke-linejoin="round" d="M 2409.429 4304.342 L 2409.459 4304.342 Q 2410.025 4305.143 2400.535 4320.889 Q 2400.851 4321.204 2403.608 4318.721 Q 2406.365 4316.238 2407.954 4314.956 Q 2409.543 4313.674 2410.728 4313.458 Q 2411.913 4313.243 2412.642 4313.414 Q 2413.371 4313.585 2414.686 4316.488 Q 2416.001 4319.391 2416.414 4323.276 Q 2416.826 4327.162 2416.769 4329.389 Q 2416.712 4331.615 2416.288 4332.849 Q 2415.864 4334.083 2414.856 4334.104 Q 2413.849 4334.125 2413.502 4333.994 "></path>
    <path id="STROKE_21d11a71-6c1a-4165-b3f2-4da608b99252" opacity="1.000" fill="none" stroke="#000000" stroke-width="1.591" stroke-opacity="1.000" stroke-linecap="round" stroke-linejoin="round" d="M 2408.865 4322.247 Q 2409.001 4322.137 2408.527 4321.563 Q 2408.052 4320.989 2407.312 4320.456 Q 2406.572 4319.923 2406.230 4320.337 Q 2405.888 4320.751 2404.808 4322.313 Q 2403.727 4323.875 2403.948 4330.084 Q 2404.742 4331.066 2406.295 4330.184 Q 2407.849 4329.301 2408.511 4328.714 "></path>
    <path id="STROKE_46d6e9e3-73df-4c4e-8a77-c2166383870f" opacity="1.000" fill="none" stroke="#000000" stroke-width="1.591" stroke-opacity="1.000" stroke-linecap="round" stroke-linejoin="round" d="M 2412.821 4323.280 Q 2412.881 4323.063 2413.078 4322.414 Q 2412.887 4322.546 2412.880 4325.625 Q 2412.873 4328.704 2412.898 4329.296 "></path>
  </g>
</svg>