<?xml version="1.0" encoding="UTF-8" standalone="yes"?>
<svg xmlns="http://www.w3.org/2000/svg" xmlns:xlink="http://www.w3.org/1999/xlink" width="82.646mm" height="81.673mm" version="1.1" viewBox="-9895.984 12688.352 429.500 424.441">
  <!--
	Exported with Concepts: Smarter Sketching
	Version: 1059 on iOS 15.6
	https://concepts.app/
	-->
  <title>意象、概念、构式、语言</title>
  <desc>Drawing exported from Concepts: Smarter Sketching</desc>
  <defs></defs>
  <g id="主体" opacity="1.000">
    <path id="STROKE_88fe406d-a337-4602-8c57-a149e0f06d9f" opacity="1.000" fill="none" stroke="#000000" stroke-width="0.752" stroke-opacity="1.000" stroke-linecap="round" stroke-linejoin="round" d="M -9886.832 12748.070 Q -9886.313 12748.838 -9884.603 12747.928 Q -9882.892 12747.018 -9882.583 12746.828 "></path>
    <path id="STROKE_a6a80d8e-bdb6-44b0-a18b-4ca9bf8c1b4a" opacity="1.000" fill="none" stroke="#000000" stroke-width="0.736" stroke-opacity="1.000" stroke-linecap="round" stroke-linejoin="round" d="M -9879.813 12745.947 Q -9879.753 12745.959 -9879.594 12746.008 Q -9879.662 12746.347 -9881.328 12747.588 Q -9882.995 12748.829 -9883.989 12749.354 Q -9884.983 12749.878 -9885.535 12750.018 Q -9886.087 12750.157 -9886.514 12750.124 Q -9886.629 12750.099 -9886.395 12750.943 Q -9886.160 12751.788 -9885.022 12756.347 Q -9884.941 12756.363 -9884.811 12756.307 Q -9884.681 12756.250 -9884.552 12756.110 "></path>
    <path id="STROKE_06a224f8-771c-4130-ae70-e16cc7838361" opacity="1.000" fill="none" stroke="#000000" stroke-width="0.696" stroke-opacity="1.000" stroke-linecap="round" stroke-linejoin="round" d="M -9884.833 12752.386 Q -9884.719 12752.464 -9885.462 12752.051 Q -9885.410 12752.114 -9885.521 12751.936 Q -9885.634 12751.756 -9884.854 12751.188 Q -9884.074 12750.621 -9883.451 12750.476 Q -9882.828 12750.330 -9882.486 12750.347 Q -9882.144 12750.363 -9881.588 12750.394 Q -9881.033 12750.424 -9880.693 12750.678 Q -9880.353 12750.933 -9880.216 12751.723 Q -9880.079 12752.514 -9880.908 12753.456 Q -9881.738 12754.398 -9882.028 12754.577 "></path>
    <path id="STROKE_698b0b31-532a-4253-831e-e992c905f785" opacity="1.000" fill="none" stroke="#000000" stroke-width="0.639" stroke-opacity="1.000" stroke-linecap="round" stroke-linejoin="round" d="M -9885.452 12754.579 Q -9885.729 12754.313 -9885.887 12753.814 Q -9886.045 12753.314 -9885.049 12752.740 Q -9884.052 12752.166 -9883.088 12751.938 Q -9882.124 12751.710 -9881.116 12752.190 Q -9880.848 12752.733 -9881.585 12753.851 Q -9882.322 12754.968 -9883.020 12755.482 Q -9883.716 12755.997 -9884.513 12756.150 Q -9884.611 12755.745 -9883.769 12755.031 Q -9882.926 12754.317 -9882.197 12753.895 Q -9881.469 12753.473 -9880.122 12753.809 Q -9879.463 12755.006 -9883.018 12757.779 Q -9886.573 12760.552 -9891.107 12762.670 Q -9890.920 12763.018 -9887.256 12761.976 Q -9883.592 12760.934 -9881.152 12759.909 Q -9878.713 12758.885 -9878.401 12758.680 "></path>
    <path id="STROKE_fc50c827-816f-47e8-830b-4be99e71af38" opacity="1.000" fill="none" stroke="#000000" stroke-width="0.551" stroke-opacity="1.000" stroke-linecap="round" stroke-linejoin="round" d="M -9883.833 12753.431 Q -9883.946 12753.392 -9884.344 12753.294 Q -9884.581 12753.721 -9884.619 12757.146 Q -9884.656 12760.571 -9884.614 12762.732 Q -9884.572 12764.894 -9884.084 12765.973 Q -9883.597 12767.051 -9883.484 12767.229 "></path>
    <path id="STROKE_874ed77b-5fef-4dc0-977b-0eff5aad4e65" opacity="1.000" fill="none" stroke="#000000" stroke-width="0.525" stroke-opacity="1.000" stroke-linecap="round" stroke-linejoin="round" d="M -9868.495 12750.623 Q -9868.754 12750.850 -9870.381 12753.239 Q -9872.008 12755.629 -9873.360 12756.921 Q -9874.713 12758.213 -9874.937 12758.322 "></path>
    <path id="STROKE_cfaf8739-0825-44fe-a6dc-841ba098b2f7" opacity="1.000" fill="none" stroke="#000000" stroke-width="0.696" stroke-opacity="1.000" stroke-linecap="round" stroke-linejoin="round" d="M -9873.038 12754.941 Q -9872.789 12754.846 -9872.121 12753.900 Q -9871.453 12752.955 -9868.227 12753.662 Q -9865.001 12754.369 -9864.948 12754.447 "></path>
    <path id="STROKE_2dcf1c45-805e-4187-8a0a-ca837cc41c21" opacity="1.000" fill="none" stroke="#000000" stroke-width="0.583" stroke-opacity="1.000" stroke-linecap="round" stroke-linejoin="round" d="M -9869.144 12751.670 Q -9869.483 12753.221 -9869.545 12752.910 Q -9869.606 12752.600 -9869.748 12754.865 Q -9869.889 12757.130 -9869.879 12758.777 Q -9869.868 12760.425 -9869.434 12761.990 Q -9869.000 12763.557 -9868.909 12763.757 "></path>
    <path id="STROKE_3c1f83cc-dff6-47d9-b8ad-b62fb3be8f4d" opacity="1.000" fill="none" stroke="#000000" stroke-width="0.756" stroke-opacity="1.000" stroke-linecap="round" stroke-linejoin="round" d="M -9856.974 12754.199 Q -9857.266 12753.938 -9855.359 12753.137 Q -9853.452 12752.336 -9853.200 12752.187 "></path>
    <path id="STROKE_3a21e349-424d-44f8-9946-90716154bd04" opacity="1.000" fill="none" stroke="#000000" stroke-width="0.596" stroke-opacity="1.000" stroke-linecap="round" stroke-linejoin="round" d="M -9854.679 12747.914 Q -9855.816 12747.750 -9854.989 12754.923 Q -9854.162 12762.096 -9854.095 12762.260 "></path>
    <path id="STROKE_3cebf7ba-5c5b-4af6-983d-f0d76817e604" opacity="1.000" fill="none" stroke="#000000" stroke-width="0.721" stroke-opacity="1.000" stroke-linecap="round" stroke-linejoin="round" d="M -9855.274 12757.043 Q -9855.261 12757.039 -9855.252 12757.025 Q -9855.243 12757.013 -9855.471 12757.178 Q -9855.699 12757.344 -9855.905 12757.502 Q -9856.111 12757.660 -9856.195 12757.733 Q -9856.278 12757.807 -9856.375 12757.865 Q -9856.471 12757.924 -9857.462 12758.844 Q -9857.651 12758.631 -9856.908 12757.620 Q -9856.166 12756.609 -9855.598 12756.025 Q -9855.028 12755.441 -9854.350 12755.200 Q -9853.670 12754.959 -9852.896 12755.043 Q -9852.124 12755.127 -9851.316 12756.582 Q -9850.508 12758.038 -9850.435 12758.172 "></path>
    <path id="STROKE_a004be26-bc55-495f-98f0-2c4834f73cc0" opacity="1.000" fill="none" stroke="#000000" stroke-width="0.777" stroke-opacity="1.000" stroke-linecap="round" stroke-linejoin="round" d="M -9850.796 12753.188 Q -9850.839 12753.104 -9851.166 12752.849 Q -9851.493 12752.594 -9851.528 12751.852 Q -9851.563 12751.108 -9851.086 12750.463 Q -9850.607 12749.817 -9850.234 12749.632 Q -9849.862 12749.446 -9849.653 12749.350 Q -9849.444 12749.254 -9849.082 12749.250 Q -9848.719 12749.246 -9848.479 12749.396 Q -9848.237 12749.545 -9848.123 12749.963 Q -9848.010 12750.382 -9848.158 12751.225 Q -9848.306 12752.067 -9848.654 12752.681 Q -9849.002 12753.294 -9849.954 12753.668 Q -9850.906 12754.043 -9851.191 12751.720 Q -9851.235 12751.398 -9851.338 12753.677 Q -9851.441 12755.955 -9851.318 12757.385 Q -9851.195 12758.814 -9851.156 12759.203 Q -9851.117 12759.591 -9850.812 12759.893 Q -9850.506 12760.193 -9850.381 12760.182 Q -9850.256 12760.170 -9849.811 12759.654 Q -9849.365 12759.140 -9849.236 12757.455 Q -9849.423 12756.654 -9850.290 12759.964 Q -9849.745 12760.064 -9849.751 12760.037 Q -9849.757 12760.011 -9849.750 12759.977 Q -9849.744 12759.942 -9849.522 12760.019 Q -9849.301 12760.095 -9848.742 12758.051 Q -9848.184 12756.008 -9848.178 12755.672 "></path>
    <path id="STROKE_abbb9be3-31a8-48ab-9136-8c31aec58e8d" opacity="1.000" fill="none" stroke="#000000" stroke-width="0.691" stroke-opacity="1.000" stroke-linecap="round" stroke-linejoin="round" d="M -9847.943 12751.080 Q -9847.892 12751.352 -9844.052 12748.076 Q -9843.703 12748.729 -9844.734 12750.995 Q -9845.766 12753.262 -9848.038 12755.297 Q -9848.208 12755.393 -9847.768 12754.525 Q -9847.326 12753.659 -9846.638 12752.678 Q -9845.949 12751.697 -9844.712 12751.758 Q -9844.582 12751.996 -9844.697 12753.266 Q -9844.813 12754.534 -9845.268 12756.218 Q -9845.722 12757.901 -9847.367 12759.467 Q -9847.646 12759.309 -9846.428 12756.385 Q -9845.875 12756.470 -9845.995 12756.489 Q -9845.946 12757.131 -9845.037 12757.514 Q -9844.128 12757.897 -9843.505 12758.064 Q -9842.882 12758.232 -9841.314 12757.496 Q -9839.746 12756.760 -9838.824 12755.639 Q -9837.903 12754.519 -9837.668 12754.194 "></path>
    <path id="STROKE_131f90d3-a392-4635-8c2b-1b6ec84e2042" opacity="1.000" fill="none" stroke="#000000" stroke-width="0.692" stroke-opacity="1.000" stroke-linecap="round" stroke-linejoin="round" d="M -9834.495 12747.385 Q -9834.479 12747.388 -9834.465 12747.391 Q -9834.760 12748.062 -9834.837 12748.047 Q -9835.463 12748.783 -9838.392 12753.911 Q -9838.236 12753.631 -9837.380 12752.443 Q -9836.523 12751.256 -9835.713 12750.508 Q -9834.903 12749.759 -9834.254 12749.660 Q -9833.605 12749.561 -9833.061 12749.563 Q -9832.517 12749.566 -9832.390 12750.260 Q -9832.263 12750.953 -9832.506 12751.676 Q -9832.748 12752.398 -9836.729 12754.822 Q -9836.854 12754.805 -9835.367 12753.922 Q -9833.881 12753.038 -9832.001 12752.403 Q -9831.892 12752.408 -9832.014 12753.631 Q -9832.135 12754.853 -9832.941 12756.193 Q -9833.748 12757.533 -9834.544 12758.350 Q -9835.340 12759.166 -9836.034 12759.450 Q -9836.729 12759.734 -9837.174 12759.598 Q -9837.618 12759.461 -9837.685 12759.419 Q -9837.751 12759.377 -9837.717 12758.667 Q -9837.684 12757.957 -9837.611 12757.643 Q -9837.538 12757.327 -9837.351 12757.037 Q -9837.163 12756.748 -9837.010 12756.767 Q -9836.857 12756.785 -9836.646 12756.849 Q -9836.436 12756.912 -9836.377 12756.963 Q -9836.317 12757.014 -9835.854 12757.707 Q -9835.391 12758.400 -9834.881 12759.014 Q -9834.372 12759.628 -9833.236 12760.033 Q -9832.102 12760.438 -9831.573 12760.451 Q -9831.045 12760.464 -9830.317 12759.985 Q -9829.590 12759.507 -9829.237 12758.941 Q -9828.885 12758.376 -9828.720 12757.096 Q -9828.555 12755.816 -9828.617 12755.554 "></path>
    <path id="STROKE_01f315fa-37e5-4c17-af28-6435e8388072" opacity="1.000" fill="none" stroke="#000000" stroke-width="0.964" stroke-opacity="1.000" stroke-linecap="round" stroke-linejoin="round" d="M -9828.850 12754.729 Q -9828.936 12754.676 -9829.151 12754.632 Q -9829.165 12754.672 -9829.256 12754.997 Q -9829.347 12755.322 -9829.433 12755.834 Q -9829.519 12756.346 -9829.381 12756.555 Q -9829.243 12756.763 -9829.207 12756.854 Q -9829.170 12756.943 -9829.133 12756.958 Q -9829.096 12756.973 -9828.797 12757.131 Q -9828.499 12757.289 -9828.218 12757.248 Q -9827.937 12757.206 -9827.732 12757.113 "></path>
    <path id="STROKE_9fb5832a-f39c-4a80-874d-c7eac38ed471" opacity="1.000" fill="none" stroke="#000000" stroke-width="0.825" stroke-opacity="1.000" stroke-linecap="round" stroke-linejoin="round" d="M -9823.091 12755.912 Q -9822.366 12756.506 -9822.421 12756.414 Q -9822.476 12756.322 -9822.068 12756.922 Q -9821.660 12757.522 -9821.769 12758.939 Q -9821.510 12759.068 -9822.094 12758.810 Q -9822.677 12758.551 -9822.851 12758.346 "></path>
    <path id="STROKE_4293f2f3-0079-4a7b-80b8-c8bae47af81e" opacity="1.000" fill="none" stroke="#000000" stroke-width="0.607" stroke-opacity="1.000" stroke-linecap="round" stroke-linejoin="round" d="M -9831.713 12747.885 Q -9832.347 12747.758 -9832.268 12747.807 Q -9832.662 12748.089 -9832.541 12748.758 Q -9832.421 12749.428 -9831.693 12750.383 Q -9830.967 12751.338 -9829.090 12751.738 Q -9827.214 12752.139 -9826.979 12752.151 "></path>
    <path id="STROKE_99378be7-6c87-4fdd-b593-7fda339b6eab" opacity="1.000" fill="none" stroke="#000000" stroke-width="0.816" stroke-opacity="1.000" stroke-linecap="round" stroke-linejoin="round" d="M -9816.043 12761.160 Q -9816.109 12761.147 -9816.300 12761.124 Q -9816.274 12761.142 -9816.345 12761.089 Q -9816.415 12761.036 -9816.125 12761.851 Q -9815.834 12762.665 -9815.735 12762.903 "></path>
    <path id="STROKE_1f333c8d-745a-4677-9762-04e0fe7cb567" opacity="1.000" fill="none" stroke="#000000" stroke-width="0.855" stroke-opacity="1.000" stroke-linecap="round" stroke-linejoin="round" d="M -9815.310 12768.036 Q -9815.468 12767.912 -9816.512 12768.026 Q -9816.516 12768.042 -9816.514 12768.109 Q -9816.026 12768.302 -9815.748 12768.238 Q -9815.470 12768.174 -9815.208 12768.057 "></path>
    <path id="STROKE_422c00bb-9fca-47a0-bcb9-3d58a03eb78b" opacity="1.000" fill="none" stroke="#000000" stroke-width="0.525" stroke-opacity="1.000" stroke-linecap="round" stroke-linejoin="round" d="M -9710.000 12757.492 Q -9709.986 12763.854 -9710.807 12769.087 Q -9711.626 12774.320 -9712.078 12777.586 Q -9712.531 12780.851 -9712.704 12783.754 Q -9712.877 12786.656 -9712.590 12789.117 Q -9712.304 12791.579 -9711.903 12793.181 Q -9711.503 12794.782 -9710.254 12796.357 Q -9709.004 12797.932 -9707.660 12798.620 Q -9706.316 12799.309 -9706.060 12799.445 "></path>
    <path id="STROKE_835eb5b5-fad0-4ac5-9c75-7af58da84246" opacity="1.000" fill="none" stroke="#000000" stroke-width="0.528" stroke-opacity="1.000" stroke-linecap="round" stroke-linejoin="round" d="M -9712.875 12788.795 Q -9712.893 12788.775 -9713.031 12788.731 Q -9713.555 12789.173 -9713.437 12794.525 Q -9713.318 12799.877 -9712.709 12805.971 Q -9712.101 12812.063 -9711.871 12816.046 Q -9711.641 12820.028 -9711.684 12823.603 Q -9711.727 12827.177 -9711.814 12829.025 Q -9711.902 12830.875 -9711.986 12834.899 Q -9712.071 12838.924 -9711.994 12841.129 Q -9711.917 12843.334 -9711.840 12844.364 Q -9711.763 12845.395 -9711.369 12848.150 Q -9710.976 12850.905 -9710.549 12854.605 Q -9710.123 12858.305 -9709.734 12860.594 Q -9709.347 12862.883 -9708.943 12864.190 Q -9708.539 12865.498 -9708.232 12866.232 Q -9707.927 12866.968 -9707.123 12867.994 Q -9706.320 12869.021 -9705.072 12869.965 Q -9703.824 12870.908 -9702.002 12871.582 Q -9700.181 12872.257 -9699.125 12872.199 Q -9698.070 12872.142 -9697.539 12871.997 "></path>
    <path id="STROKE_d2d306ce-435e-4bbc-8b57-76494561a12e" opacity="1.000" fill="none" stroke="#000000" stroke-width="0.667" stroke-opacity="1.000" stroke-linecap="round" stroke-linejoin="round" d="M -9713.093 12693.877 Q -9713.024 12693.900 -9713.626 12693.726 Q -9714.228 12693.551 -9714.626 12693.553 Q -9715.024 12693.555 -9715.163 12693.616 Q -9715.302 12693.678 -9715.459 12693.806 Q -9715.617 12693.934 -9715.662 12693.974 Q -9715.708 12694.014 -9715.771 12694.088 Q -9715.834 12694.162 -9715.881 12694.238 Q -9715.929 12694.315 -9716.067 12694.930 Q -9716.206 12695.543 -9716.346 12696.100 Q -9716.485 12696.655 -9716.307 12697.914 Q -9716.128 12699.174 -9715.569 12701.262 Q -9715.011 12703.351 -9714.368 12706.500 Q -9713.726 12709.648 -9713.513 12712.338 Q -9713.300 12715.028 -9713.320 12717.807 Q -9713.340 12720.586 -9713.618 12722.647 Q -9713.896 12724.709 -9714.170 12725.724 Q -9714.444 12726.738 -9714.404 12728.197 Q -9714.364 12729.657 -9714.297 12729.936 "></path>
    <path id="STROKE_8fca6a18-55ae-4f26-8790-146c1bd4c4db" opacity="1.000" fill="none" stroke="#000000" stroke-width="0.755" stroke-opacity="1.000" stroke-linecap="round" stroke-linejoin="round" d="M -9713.766 12725.928 Q -9714.175 12726.355 -9714.053 12726.270 Q -9714.039 12726.172 -9714.247 12726.896 Q -9714.455 12727.619 -9714.628 12728.449 Q -9714.801 12729.279 -9714.893 12729.986 Q -9714.984 12730.694 -9714.105 12732.893 "></path>
    <path id="STROKE_87b88e77-017c-4c39-ad1c-1a4f0d693905" opacity="1.000" fill="none" stroke="#000000" stroke-width="0.737" stroke-opacity="1.000" stroke-linecap="round" stroke-linejoin="round" d="M -9711.889 12746.040 Q -9712.047 12747.297 -9712.141 12748.329 Q -9712.235 12749.361 -9712.781 12749.871 Q -9713.327 12750.381 -9713.848 12750.567 Q -9714.367 12750.754 -9714.596 12750.822 Q -9714.825 12750.891 -9714.934 12750.943 Q -9715.041 12750.996 -9715.216 12750.998 Q -9715.391 12751.001 -9717.499 12752.298 Q -9717.424 12751.835 -9716.732 12751.242 Q -9716.041 12750.648 -9714.953 12750.700 Q -9713.865 12750.752 -9713.223 12750.947 Q -9712.580 12751.143 -9712.236 12751.484 Q -9711.893 12751.826 -9711.834 12751.896 Q -9711.776 12751.968 -9711.845 12751.859 Q -9711.913 12751.750 -9711.214 12752.591 Q -9710.515 12753.432 -9710.123 12754.143 Q -9709.732 12754.854 -9709.686 12757.397 Q -9709.640 12759.941 -9709.646 12761.969 Q -9709.654 12763.996 -9709.646 12765.628 Q -9709.638 12767.260 -9709.660 12768.422 Q -9709.682 12769.585 -9709.478 12770.413 Q -9709.273 12771.241 -9709.156 12771.464 "></path>
    <path id="STROKE_0307d921-f1cb-4922-a2cc-9116623a14eb" opacity="1.000" fill="none" stroke="#000000" stroke-width="0.532" stroke-opacity="1.000" stroke-linecap="round" stroke-linejoin="round" d="M -9710.366 12782.861 Q -9710.296 12782.962 -9710.387 12782.902 Q -9710.477 12782.843 -9711.287 12783.806 Q -9712.098 12784.769 -9712.545 12789.859 Q -9712.991 12794.949 -9713.140 12797.740 Q -9713.288 12800.531 -9713.456 12802.379 Q -9713.624 12804.228 -9713.752 12805.516 Q -9713.881 12806.804 -9713.763 12810.068 Q -9713.645 12813.332 -9713.329 12817.239 Q -9713.014 12821.146 -9712.861 12823.426 Q -9712.708 12825.705 -9712.529 12828.792 Q -9712.350 12831.879 -9712.040 12833.809 Q -9711.730 12835.739 -9710.254 12844.799 Q -9708.778 12853.857 -9708.066 12858.592 Q -9707.354 12863.327 -9707.107 12865.479 Q -9706.860 12867.632 -9706.770 12868.550 Q -9706.679 12869.468 -9706.562 12870.668 Q -9706.446 12871.869 -9706.389 12872.564 Q -9706.332 12873.261 -9706.046 12875.389 Q -9705.760 12877.518 -9705.309 12884.443 Q -9704.856 12891.369 -9704.594 12895.055 Q -9704.330 12898.740 -9704.066 12900.913 Q -9703.802 12903.086 -9703.459 12904.596 Q -9703.117 12906.105 -9702.593 12909.066 Q -9702.068 12912.027 -9701.690 12913.696 Q -9701.312 12915.365 -9700.908 12916.501 Q -9700.503 12917.637 -9699.150 12919.010 Q -9697.799 12920.384 -9696.188 12921.613 Q -9694.575 12922.844 -9692.521 12923.547 Q -9690.469 12924.249 -9689.234 12924.189 Q -9687.999 12924.129 -9687.394 12924.035 "></path>
    <path id="STROKE_28a04e08-df89-42e6-8abe-13089e9440f1" opacity="1.000" fill="none" stroke="#000000" stroke-width="0.525" stroke-opacity="1.000" stroke-linecap="round" stroke-linejoin="round" d="M -9765.019 12748.368 Q -9764.816 12748.394 -9764.457 12748.447 "></path>
    <path id="STROKE_d3140ba3-9552-462b-984e-4700a810f7c9" opacity="1.000" fill="none" stroke="#000000" stroke-width="0.924" stroke-opacity="1.000" stroke-linecap="round" stroke-linejoin="round" d="M -9761.896 12749.044 L -9761.900 12749.060 Q -9761.934 12749.068 -9762.035 12749.048 Q -9762.062 12749.393 -9761.844 12749.707 Q -9761.627 12750.022 -9761.537 12750.228 "></path>
    <path id="STROKE_dd8ffd3b-e8e0-4bce-8684-a084f9bb9edc" opacity="1.000" fill="none" stroke="#000000" stroke-width="0.840" stroke-opacity="1.000" stroke-linecap="round" stroke-linejoin="round" d="M -9761.500 12752.824 Q -9761.471 12753.222 -9762.206 12753.639 Q -9761.856 12753.857 -9761.400 12753.869 Q -9760.945 12753.881 -9760.732 12753.822 "></path>
    <path id="STROKE_02a9435f-54bd-4026-97a4-b067b7cd634d" opacity="1.000" fill="none" stroke="#000000" stroke-width="0.979" stroke-opacity="1.000" stroke-linecap="round" stroke-linejoin="round" d="M -9723.004 12748.586 Q -9723.070 12748.572 -9723.196 12748.546 Q -9722.938 12748.724 -9722.594 12748.824 Q -9722.250 12748.926 -9722.118 12749.005 "></path>
    <path id="STROKE_e3e08821-abb4-4efc-997f-a9e771dc369a" opacity="1.000" fill="none" stroke="#000000" stroke-width="0.822" stroke-opacity="1.000" stroke-linecap="round" stroke-linejoin="round" d="M -9721.926 12751.364 Q -9721.988 12751.020 -9723.017 12752.250 Q -9722.983 12752.319 -9722.578 12752.480 Q -9722.173 12752.641 -9722.005 12752.727 "></path>
    <path id="STROKE_197ddb1a-ff10-45a8-8b5e-4013c646b8d3" opacity="1.000" fill="none" stroke="#000000" stroke-width="0.624" stroke-opacity="1.000" stroke-linecap="round" stroke-linejoin="round" d="M -9758.615 12750.558 Q -9758.744 12750.553 -9759.841 12751.004 Q -9760.938 12751.455 -9761.727 12752.262 Q -9762.517 12753.068 -9763.041 12754.205 Q -9763.564 12755.341 -9763.791 12756.729 Q -9764.018 12758.115 -9763.093 12762.467 Q -9762.168 12766.817 -9761.681 12769.869 Q -9761.193 12772.922 -9760.787 12776.406 Q -9760.380 12779.891 -9759.969 12782.863 Q -9759.559 12785.837 -9758.833 12789.250 Q -9758.107 12792.664 -9757.715 12795.414 Q -9757.323 12798.164 -9757.039 12800.455 Q -9756.756 12802.747 -9756.793 12806.342 Q -9756.829 12809.937 -9757.145 12812.602 Q -9757.461 12815.266 -9758.104 12817.514 Q -9758.748 12819.761 -9759.854 12821.450 Q -9760.961 12823.140 -9762.747 12825.820 Q -9764.533 12828.500 -9766.016 12831.311 L -9766.031 12831.308 Q -9766.221 12831.210 -9765.688 12831.086 Q -9765.156 12830.962 -9764.762 12831.141 Q -9764.366 12831.318 -9763.773 12832.078 Q -9763.182 12832.837 -9762.869 12833.398 Q -9762.556 12833.959 -9762.373 12834.262 Q -9762.189 12834.563 -9762.074 12834.896 Q -9761.958 12835.230 -9761.971 12835.197 Q -9761.984 12835.164 -9761.988 12835.143 Q -9761.992 12835.120 -9761.878 12835.418 Q -9761.764 12835.717 -9761.663 12836.202 Q -9761.562 12836.688 -9761.496 12837.088 Q -9761.430 12837.487 -9761.396 12837.750 Q -9761.363 12838.014 -9761.338 12838.300 Q -9761.312 12838.586 -9761.301 12838.797 Q -9761.290 12839.009 -9761.270 12839.314 Q -9761.248 12839.621 -9761.248 12839.564 Q -9761.248 12839.509 -9761.270 12839.728 Q -9761.290 12839.946 -9761.209 12842.160 Q -9761.128 12844.373 -9760.906 12846.904 Q -9760.686 12849.437 -9760.512 12850.721 Q -9760.337 12852.006 -9760.330 12852.616 Q -9760.322 12853.227 -9760.289 12853.682 Q -9760.257 12854.138 -9760.233 12854.334 Q -9760.210 12854.530 -9760.205 12854.568 Q -9760.201 12854.605 -9760.182 12854.799 Q -9760.162 12854.991 -9760.080 12855.686 Q -9759.997 12856.379 -9759.943 12856.968 Q -9759.891 12857.557 -9759.883 12857.696 Q -9759.876 12857.836 -9759.870 12857.850 Q -9759.864 12857.862 -9759.859 12857.791 Q -9759.855 12857.721 -9759.846 12858.058 Q -9759.836 12858.395 -9759.852 12858.699 Q -9759.867 12859.004 -9759.881 12859.219 Q -9759.895 12859.434 -9759.895 12859.540 Q -9759.894 12859.646 -9759.896 12859.688 Q -9759.898 12859.729 -9759.898 12859.689 Q -9759.898 12859.649 -9759.904 12859.825 Q -9759.911 12860.001 -9759.922 12860.393 Q -9759.932 12860.783 -9759.930 12860.873 Q -9759.928 12860.964 -9759.924 12861.051 Q -9759.920 12861.137 -9759.918 12861.393 Q -9759.915 12861.649 -9759.936 12861.459 Q -9759.957 12861.270 -9759.807 12863.200 Q -9759.656 12865.131 -9759.568 12866.342 Q -9759.479 12867.554 -9759.457 12868.223 Q -9759.436 12868.891 -9759.430 12869.396 Q -9759.424 12869.902 -9759.438 12870.178 Q -9759.451 12870.452 -9759.466 12871.508 Q -9759.480 12872.562 -9759.510 12874.575 Q -9759.538 12876.588 -9759.824 12879.084 Q -9760.111 12881.579 -9760.154 12883.064 Q -9760.197 12884.549 -9760.134 12885.283 Q -9760.070 12886.018 -9760.000 12886.482 Q -9759.929 12886.947 -9759.924 12887.009 Q -9759.918 12887.070 -9759.873 12887.262 Q -9759.828 12887.454 -9759.738 12888.090 Q -9759.649 12888.727 -9759.602 12889.143 Q -9759.553 12889.559 -9759.521 12889.756 Q -9759.490 12889.952 -9759.482 12890.057 Q -9759.474 12890.161 -9759.463 12890.256 Q -9759.452 12890.352 -9759.471 12890.332 Q -9759.488 12890.312 -9759.424 12890.496 Q -9759.359 12890.682 -9758.975 12893.128 Q -9758.591 12895.574 -9758.520 12898.387 Q -9758.448 12901.198 -9758.500 12904.490 Q -9758.552 12907.781 -9758.411 12911.117 Q -9758.271 12914.452 -9758.354 12917.209 Q -9758.437 12919.965 -9758.469 12923.806 Q -9758.500 12927.646 -9758.410 12932.272 Q -9758.319 12936.898 -9758.344 12942.600 Q -9758.367 12948.301 -9758.308 12951.062 Q -9758.248 12953.822 -9758.178 12955.088 Q -9758.106 12956.354 -9758.066 12957.104 Q -9758.026 12957.853 -9757.695 12962.811 Q -9757.364 12967.770 -9757.177 12971.133 Q -9756.989 12974.497 -9756.958 12977.178 Q -9756.927 12979.857 -9756.870 12981.645 Q -9756.813 12983.433 -9756.773 12985.309 Q -9756.733 12987.184 -9756.232 12991.820 Q -9755.732 12996.456 -9755.272 12998.878 Q -9754.812 13001.300 -9754.467 13002.847 Q -9754.120 13004.394 -9753.506 13006.182 Q -9752.893 13007.971 -9752.146 13009.547 Q -9751.400 13011.123 -9750.741 13012.314 Q -9750.082 13013.506 -9748.816 13014.445 Q -9747.550 13015.385 -9746.278 13015.536 Q -9745.007 13015.688 -9744.504 13015.707 "></path>
    <path id="STROKE_c0dc2898-6771-4e3f-8558-f67f21114571" opacity="1.000" fill="none" stroke="#000000" stroke-width="0.695" stroke-opacity="1.000" stroke-linecap="round" stroke-linejoin="round" d="M -9741.659 12767.148 Q -9741.684 12766.072 -9740.286 12764.540 Q -9738.889 12763.008 -9737.527 12762.193 Q -9736.166 12761.379 -9734.248 12761.713 Q -9733.943 12762.325 -9734.923 12764.180 Q -9735.902 12766.033 -9739.166 12767.297 Q -9738.559 12767.751 -9736.365 12765.811 Q -9734.173 12763.870 -9734.050 12763.664 "></path>
    <path id="STROKE_399b1709-58f1-4c03-a071-e73ea4680d30" opacity="1.000" fill="none" stroke="#000000" stroke-width="0.728" stroke-opacity="1.000" stroke-linecap="round" stroke-linejoin="round" d="M -9736.856 12764.326 Q -9738.551 12764.239 -9744.312 12781.806 Q -9744.057 12781.879 -9741.834 12777.117 Q -9739.611 12772.356 -9734.779 12766.705 L -9734.702 12766.722 Q -9734.549 12766.346 -9735.138 12769.150 Q -9735.727 12771.954 -9738.784 12774.072 Q -9738.960 12773.800 -9738.320 12771.863 Q -9737.682 12769.927 -9734.499 12769.596 Q -9734.508 12769.411 -9734.352 12769.859 Q -9734.194 12770.309 -9734.354 12771.317 Q -9734.512 12772.326 -9734.758 12773.041 Q -9735.003 12773.756 -9735.014 12773.757 Q -9735.023 12773.758 -9735.609 12774.168 Q -9736.196 12774.577 -9736.684 12774.699 Q -9737.171 12774.821 -9737.624 12775.287 Q -9738.077 12775.754 -9738.678 12777.159 Q -9739.277 12778.564 -9739.808 12781.384 Q -9739.193 12781.493 -9737.785 12778.904 Q -9736.377 12776.314 -9735.509 12774.578 Q -9734.641 12772.841 -9732.524 12771.961 Q -9732.212 12771.909 -9732.013 12773.467 Q -9731.813 12775.025 -9731.521 12778.147 Q -9730.923 12778.359 -9733.267 12773.094 Q -9733.646 12772.668 -9733.849 12778.567 Q -9733.509 12778.726 -9733.412 12778.586 Q -9733.314 12778.447 -9733.140 12778.228 "></path>
    <path id="STROKE_e5752900-6413-4973-95f6-1b72d4076451" opacity="1.000" fill="none" stroke="#000000" stroke-width="0.992" stroke-opacity="1.000" stroke-linecap="round" stroke-linejoin="round" d="M -9741.238 12797.893 Q -9741.172 12797.771 -9741.411 12798.333 Q -9741.650 12798.895 -9741.277 12799.508 Q -9740.903 12800.121 -9740.788 12800.193 "></path>
    <path id="STROKE_f172f21e-301c-4e77-9e11-fdb5ff58c7fd" opacity="1.000" fill="none" stroke="#000000" stroke-width="0.596" stroke-opacity="1.000" stroke-linecap="round" stroke-linejoin="round" d="M -9737.506 12786.490 Q -9737.797 12786.615 -9737.623 12795.873 Q -9737.448 12805.131 -9737.350 12805.279 "></path>
    <path id="STROKE_fff2f312-c52a-4a4e-b46d-4586b56644f4" opacity="1.000" fill="none" stroke="#000000" stroke-width="0.819" stroke-opacity="1.000" stroke-linecap="round" stroke-linejoin="round" d="M -9735.426 12795.119 Q -9734.604 12794.313 -9734.590 12794.580 Q -9734.574 12794.846 -9734.562 12794.846 Q -9734.551 12794.845 -9734.458 12795.028 Q -9734.365 12795.212 -9733.921 12795.937 Q -9733.477 12796.661 -9732.810 12796.922 Q -9732.143 12797.182 -9731.931 12797.171 "></path>
    <path id="STROKE_921bb176-ced6-4a43-957f-0272b2476344" opacity="1.000" fill="none" stroke="#000000" stroke-width="0.732" stroke-opacity="1.000" stroke-linecap="round" stroke-linejoin="round" d="M -9730.335 12788.848 Q -9730.328 12788.837 -9731.023 12789.627 Q -9731.718 12790.418 -9733.308 12795.603 Q -9732.641 12794.888 -9730.970 12792.990 Q -9729.299 12791.092 -9725.947 12790.416 Q -9725.239 12791.279 -9729.590 12796.729 Q -9729.062 12797.105 -9728.234 12795.246 Q -9727.407 12793.387 -9727.277 12793.031 "></path>
    <path id="STROKE_a3eb48b2-0bb7-42b0-a863-885bb811b8eb" opacity="1.000" fill="none" stroke="#000000" stroke-width="0.596" stroke-opacity="1.000" stroke-linecap="round" stroke-linejoin="round" d="M -9728.106 12789.815 Q -9728.342 12790.248 -9728.815 12792.639 Q -9729.289 12795.029 -9729.514 12796.629 Q -9729.737 12798.229 -9730.436 12798.892 Q -9731.133 12799.555 -9732.612 12801.204 Q -9732.143 12801.778 -9728.497 12800.452 Q -9724.852 12799.126 -9722.830 12797.846 Q -9720.810 12796.566 -9720.497 12796.267 "></path>
    <path id="STROKE_66b8faf6-b233-43d2-9029-f01faceb95c8" opacity="1.000" fill="none" stroke="#000000" stroke-width="0.673" stroke-opacity="1.000" stroke-linecap="round" stroke-linejoin="round" d="M -9729.248 12796.326 Q -9729.271 12796.321 -9729.435 12796.288 Q -9729.317 12796.355 -9728.705 12796.428 Q -9728.093 12796.501 -9727.016 12795.622 Q -9725.938 12794.743 -9725.729 12794.477 "></path>
    <path id="STROKE_f5f19725-ba1d-4ed6-837e-9472c59b36e4" opacity="1.000" fill="none" stroke="#000000" stroke-width="0.477" stroke-opacity="1.000" stroke-linecap="round" stroke-linejoin="round" d="M -9643.604 12940.480 Q -9644.013 12940.137 -9644.910 12940.523 Q -9645.808 12940.911 -9646.317 12941.392 Q -9646.827 12941.872 -9647.510 12943.457 Q -9648.191 12945.042 -9648.573 12947.049 Q -9648.955 12949.055 -9648.873 12951.533 Q -9648.791 12954.013 -9647.605 12957.378 Q -9646.419 12960.743 -9645.602 12962.521 Q -9644.784 12964.300 -9644.429 12965.475 Q -9644.073 12966.649 -9643.936 12967.840 Q -9643.798 12969.031 -9644.165 12970.477 Q -9644.532 12971.923 -9644.796 12972.867 Q -9645.060 12973.812 -9645.532 12975.031 Q -9646.005 12976.251 -9646.863 12977.305 Q -9647.721 12978.359 -9648.743 12979.138 Q -9649.766 12979.916 -9650.924 12980.173 Q -9652.081 12980.430 -9653.617 12979.939 Q -9653.611 12979.834 -9653.434 12979.665 Q -9653.256 12979.496 -9653.115 12979.546 Q -9652.975 12979.596 -9652.797 12979.591 Q -9652.620 12979.586 -9651.899 12979.764 Q -9651.179 12979.941 -9650.299 12981.170 Q -9649.419 12982.399 -9648.914 12983.650 Q -9648.408 12984.901 -9647.709 12988.639 Q -9647.011 12992.376 -9646.752 12994.562 Q -9646.494 12996.749 -9646.324 12997.679 Q -9646.154 12998.608 -9645.988 13002.506 Q -9645.823 13006.404 -9645.800 13010.040 Q -9645.776 13013.676 -9645.738 13016.951 Q -9645.701 13020.226 -9645.716 13021.994 Q -9645.730 13023.763 -9645.701 13025.945 Q -9645.672 13028.127 -9645.668 13029.733 Q -9645.664 13031.340 -9645.693 13033.396 Q -9645.724 13035.452 -9645.889 13038.643 Q -9646.055 13041.832 -9646.082 13045.251 Q -9646.110 13048.670 -9646.116 13050.639 Q -9646.122 13052.608 -9645.816 13056.846 Q -9645.510 13061.082 -9645.075 13063.823 Q -9644.641 13066.564 -9644.280 13068.523 Q -9643.920 13070.483 -9643.686 13071.977 Q -9643.450 13073.469 -9642.926 13077.779 Q -9642.401 13082.090 -9641.867 13084.900 Q -9641.334 13087.711 -9640.873 13089.037 Q -9640.411 13090.362 -9640.070 13091.506 Q -9639.730 13092.648 -9638.475 13095.091 Q -9637.219 13097.533 -9636.436 13098.925 Q -9635.652 13100.316 -9634.394 13101.793 Q -9633.135 13103.270 -9632.344 13104.076 Q -9631.552 13104.884 -9629.875 13105.875 Q -9628.198 13106.866 -9626.426 13107.564 Q -9624.653 13108.263 -9622.424 13108.108 Q -9620.193 13107.954 -9619.203 13107.745 "></path>
    <path id="STROKE_5ebac6f6-a8ee-412a-ae2b-af45f5a8b684" opacity="1.000" fill="none" stroke="#000000" stroke-width="0.619" stroke-opacity="1.000" stroke-linecap="round" stroke-linejoin="round" d="M -9621.928 12939.285 Q -9621.763 12939.225 -9622.169 12939.109 Q -9622.402 12939.094 -9623.151 12941.191 Q -9623.900 12943.289 -9624.711 12944.750 Q -9625.521 12946.210 -9626.087 12946.876 Q -9626.652 12947.542 -9627.225 12947.794 L -9627.252 12947.770 Q -9627.320 12947.646 -9626.805 12946.782 Q -9626.289 12945.919 -9625.631 12945.316 Q -9624.972 12944.715 -9624.549 12944.383 Q -9624.126 12944.052 -9623.540 12944.287 Q -9622.854 12944.993 -9626.321 12949.871 L -9626.335 12949.866 Q -9626.201 12949.454 -9624.845 12949.452 Q -9623.488 12949.450 -9624.127 12949.676 Q -9624.766 12949.902 -9624.503 12949.883 Q -9624.240 12949.864 -9624.311 12950.068 Q -9624.382 12950.271 -9624.377 12950.516 Q -9624.373 12950.761 -9624.329 12950.902 Q -9624.285 12951.043 -9625.281 12953.477 L -9625.295 12953.472 Q -9625.483 12953.697 -9624.844 12952.449 Q -9624.204 12951.201 -9622.770 12949.499 Q -9621.336 12947.797 -9621.088 12947.515 "></path>
    <path id="STROKE_f13009bd-041a-4ad3-b791-d2bef98b696d" opacity="1.000" fill="none" stroke="#000000" stroke-width="0.640" stroke-opacity="1.000" stroke-linecap="round" stroke-linejoin="round" d="M -9617.400 12939.020 Q -9617.404 12939.033 -9617.456 12939.102 Q -9617.460 12938.906 -9616.889 12938.756 Q -9616.316 12938.604 -9615.949 12938.631 Q -9615.581 12938.658 -9615.473 12938.700 Q -9615.365 12938.742 -9615.248 12939.095 Q -9615.131 12939.447 -9615.256 12939.949 Q -9615.382 12940.452 -9615.664 12941.180 Q -9615.946 12941.908 -9616.655 12942.693 Q -9617.364 12943.479 -9618.524 12943.674 Q -9618.599 12943.508 -9618.055 12942.772 Q -9617.511 12942.037 -9616.715 12941.465 Q -9615.918 12940.893 -9614.749 12940.996 Q -9614.652 12941.244 -9614.975 12942.321 Q -9615.296 12943.398 -9617.563 12944.367 Q -9617.628 12944.450 -9616.072 12943.311 Q -9614.517 12942.172 -9614.400 12942.048 "></path>
    <path id="STROKE_a813ac09-7ee6-4d4e-88f0-a32eae663310" opacity="1.000" fill="none" stroke="#000000" stroke-width="0.682" stroke-opacity="1.000" stroke-linecap="round" stroke-linejoin="round" d="M -9615.636 12941.850 Q -9615.808 12941.904 -9622.755 12950.956 Q -9622.713 12950.657 -9621.938 12949.680 Q -9621.161 12948.701 -9620.484 12948.172 Q -9619.809 12947.642 -9619.469 12947.797 Q -9619.128 12947.953 -9618.990 12948.549 Q -9618.852 12949.145 -9618.509 12951.367 Q -9618.166 12953.590 -9618.082 12953.631 "></path>
    <path id="STROKE_5fed1817-aed8-40c8-b436-07c024a05fbc" opacity="1.000" fill="none" stroke="#000000" stroke-width="0.502" stroke-opacity="1.000" stroke-linecap="round" stroke-linejoin="round" d="M -9617.325 12947.827 Q -9617.248 12947.724 -9617.124 12947.045 Q -9617.000 12946.367 -9616.169 12945.785 Q -9615.338 12945.204 -9614.787 12944.930 Q -9614.235 12944.655 -9613.702 12944.768 Q -9613.169 12944.881 -9612.764 12944.986 Q -9612.359 12945.093 -9612.078 12946.504 Q -9611.798 12947.916 -9612.518 12949.424 Q -9613.236 12950.931 -9613.460 12951.121 "></path>
    <path id="STROKE_472af41e-674d-4061-b07f-98d85cc6b83a" opacity="1.000" fill="none" stroke="#000000" stroke-width="0.645" stroke-opacity="1.000" stroke-linecap="round" stroke-linejoin="round" d="M -9617.252 12949.766 Q -9617.229 12949.736 -9617.502 12949.847 Q -9617.643 12950.129 -9616.758 12949.770 Q -9615.873 12949.409 -9615.281 12948.926 Q -9614.689 12948.443 -9614.498 12948.258 "></path>
    <path id="STROKE_68d77538-8234-4481-a0c9-93665ab76188" opacity="1.000" fill="none" stroke="#000000" stroke-width="0.580" stroke-opacity="1.000" stroke-linecap="round" stroke-linejoin="round" d="M -9614.674 12946.220 Q -9614.704 12946.286 -9615.137 12947.354 Q -9615.568 12948.422 -9615.823 12949.265 Q -9616.078 12950.107 -9615.972 12950.678 Q -9615.865 12951.248 -9615.496 12951.342 Q -9615.128 12951.437 -9614.703 12950.801 Q -9614.277 12950.166 -9614.083 12949.921 "></path>
    <path id="STROKE_6aca01f2-20ff-4d0b-91a3-11baa512f5a6" opacity="1.000" fill="none" stroke="#000000" stroke-width="0.768" stroke-opacity="1.000" stroke-linecap="round" stroke-linejoin="round" d="M -9613.244 12948.493 Q -9613.150 12948.342 -9612.561 12947.605 L -9612.533 12947.614 Q -9612.480 12947.426 -9612.801 12949.174 Q -9613.121 12950.922 -9613.097 12951.105 "></path>
    <path id="STROKE_1a297d30-9e67-4b69-9998-0abbd75ceb0b" opacity="1.000" fill="none" stroke="#000000" stroke-width="0.570" stroke-opacity="1.000" stroke-linecap="round" stroke-linejoin="round" d="M -9603.375 12940.743 Q -9603.549 12941.294 -9603.529 12941.231 Q -9603.820 12941.701 -9603.668 12942.779 Q -9603.517 12943.856 -9603.359 12944.741 Q -9603.203 12945.626 -9603.008 12946.158 Q -9602.812 12946.691 -9602.795 12946.747 "></path>
    <path id="STROKE_8ffbb6e3-9a7d-4752-b9af-5669d07553ed" opacity="1.000" fill="none" stroke="#000000" stroke-width="0.624" stroke-opacity="1.000" stroke-linecap="round" stroke-linejoin="round" d="M -9602.419 12943.059 Q -9602.419 12943.169 -9602.188 12942.311 Q -9601.958 12941.452 -9601.316 12940.940 Q -9600.674 12940.429 -9600.325 12940.311 Q -9599.977 12940.191 -9599.760 12940.238 Q -9599.543 12940.285 -9599.456 12940.327 Q -9599.369 12940.369 -9599.146 12940.383 Q -9598.922 12940.397 -9599.004 12941.080 Q -9599.085 12941.764 -9599.405 12942.344 Q -9599.726 12942.925 -9600.278 12943.453 Q -9600.831 12943.981 -9602.634 12945.006 Q -9602.643 12944.967 -9601.336 12944.117 Q -9600.030 12943.269 -9599.174 12942.891 Q -9598.318 12942.513 -9597.440 12942.771 Q -9597.189 12943.260 -9599.376 12945.344 Q -9601.562 12947.427 -9604.432 12948.957 Q -9603.777 12948.491 -9600.683 12946.302 Q -9600.395 12945.339 -9602.139 12950.580 Q -9602.311 12951.374 -9597.270 12949.752 Q -9597.197 12949.873 -9597.848 12950.862 Q -9598.499 12951.852 -9600.040 12952.000 Q -9601.581 12952.149 -9601.804 12952.129 "></path>
    <path id="STROKE_10385309-5d7f-4876-854a-0f5366de4dd1" opacity="1.000" fill="none" stroke="#000000" stroke-width="0.553" stroke-opacity="1.000" stroke-linecap="round" stroke-linejoin="round" d="M -9603.754 12948.949 Q -9603.874 12948.831 -9604.007 12948.332 Q -9604.140 12947.832 -9603.937 12947.424 Q -9603.733 12947.017 -9602.576 12946.170 Q -9601.420 12945.323 -9598.283 12944.760 Q -9595.146 12944.195 -9594.826 12944.119 "></path>
    <path id="STROKE_e4a4694e-c4f6-4b65-8479-2195fe209b0b" opacity="1.000" fill="none" stroke="#000000" stroke-width="0.788" stroke-opacity="1.000" stroke-linecap="round" stroke-linejoin="round" d="M -9582.531 12949.065 Q -9582.546 12949.062 -9582.625 12949.036 Q -9582.514 12949.010 -9582.266 12949.092 Q -9582.018 12949.175 -9581.823 12949.428 Q -9581.629 12949.681 -9581.604 12950.004 Q -9581.580 12950.326 -9581.566 12950.541 "></path>
    <path id="STROKE_e0c8c42c-d303-4852-b950-1e17c8c31151" opacity="1.000" fill="none" stroke="#000000" stroke-width="0.802" stroke-opacity="1.000" stroke-linecap="round" stroke-linejoin="round" d="M -9582.479 12952.207 Q -9582.764 12952.667 -9582.707 12952.556 Q -9582.760 12952.516 -9582.842 12953.096 Q -9583.027 12953.055 -9582.602 12953.234 Q -9582.176 12953.415 -9581.754 12953.453 Q -9581.331 12953.491 -9581.140 12953.402 "></path>
    <path id="STROKE_4265669b-6a00-4efb-868b-dab6c4e3810e" opacity="1.000" fill="none" stroke="#000000" stroke-width="0.556" stroke-opacity="1.000" stroke-linecap="round" stroke-linejoin="round" d="M -9571.234 12945.764 Q -9571.234 12945.764 -9570.918 12945.765 Q -9570.603 12945.766 -9568.422 12950.429 Q -9566.241 12955.092 -9566.129 12955.207 "></path>
    <path id="STROKE_5d911361-e086-4532-9fd9-39d75cb0a766" opacity="1.000" fill="none" stroke="#000000" stroke-width="0.559" stroke-opacity="1.000" stroke-linecap="round" stroke-linejoin="round" d="M -9565.973 12946.150 Q -9566.528 12946.565 -9568.077 12948.496 Q -9569.626 12950.426 -9570.292 12952.211 Q -9570.958 12953.996 -9570.953 12954.047 "></path>
    <path id="STROKE_cfe8e580-af1a-4c71-8bac-4f542490f5e8" opacity="1.000" fill="none" stroke="#000000" stroke-width="0.608" stroke-opacity="1.000" stroke-linecap="round" stroke-linejoin="round" d="M -9564.404 12948.598 Q -9564.430 12948.320 -9559.993 12954.215 Q -9559.822 12954.189 -9559.725 12954.140 "></path>
    <path id="STROKE_4e4a0858-9c39-46f9-857e-1da66b1f71be" opacity="1.000" fill="none" stroke="#000000" stroke-width="0.642" stroke-opacity="1.000" stroke-linecap="round" stroke-linejoin="round" d="M -9559.484 12947.414 Q -9559.894 12947.429 -9566.306 12955.442 Q -9566.186 12955.319 -9566.014 12955.139 Q -9565.841 12954.957 -9565.617 12954.717 "></path>
    <path id="STROKE_cdac3f84-6b00-476b-a182-51746fc8cf72" opacity="1.000" fill="none" stroke="#000000" stroke-width="0.613" stroke-opacity="1.000" stroke-linecap="round" stroke-linejoin="round" d="M -9559.805 12949.335 Q -9558.970 12949.681 -9559.154 12949.533 Q -9559.338 12949.385 -9557.832 12951.155 Q -9556.325 12952.926 -9555.501 12953.945 Q -9554.677 12954.964 -9554.556 12955.049 "></path>
    <path id="STROKE_778d6962-fdac-4cdb-87be-fb28c72a65e6" opacity="1.000" fill="none" stroke="#000000" stroke-width="0.601" stroke-opacity="1.000" stroke-linecap="round" stroke-linejoin="round" d="M -9553.687 12947.427 Q -9554.843 12947.023 -9557.734 12951.056 Q -9560.626 12955.088 -9560.765 12955.075 "></path>
    <path id="STROKE_2a350718-d729-4a36-bace-bdb6163b9aa9" opacity="1.000" fill="none" stroke="#000000" stroke-width="0.776" stroke-opacity="1.000" stroke-linecap="round" stroke-linejoin="round" d="M -9871.638 12786.966 Q -9872.045 12786.742 -9870.043 12786.397 Q -9868.041 12786.053 -9866.984 12785.475 Q -9865.927 12784.896 -9865.776 12784.754 "></path>
    <path id="STROKE_da95052b-e0e9-4043-aa25-2e7e0aadf9ca" opacity="1.000" fill="none" stroke="#000000" stroke-width="0.697" stroke-opacity="1.000" stroke-linecap="round" stroke-linejoin="round" d="M -9870.161 12785.752 Q -9870.192 12786.008 -9870.342 12786.658 Q -9870.491 12787.309 -9870.492 12787.767 Q -9870.494 12788.225 -9870.185 12788.567 Q -9869.875 12788.910 -9869.432 12788.622 Q -9868.988 12788.334 -9868.788 12788.114 "></path>
    <path id="STROKE_e8372588-63c9-4649-9ab8-e297ba1e2da3" opacity="1.000" fill="none" stroke="#000000" stroke-width="0.682" stroke-opacity="1.000" stroke-linecap="round" stroke-linejoin="round" d="M -9867.393 12783.360 Q -9867.331 12783.046 -9867.955 12785.043 Q -9868.579 12787.039 -9868.469 12788.427 Q -9868.357 12789.814 -9868.299 12790.039 "></path>
    <path id="STROKE_b1090c75-9fce-4d60-bd23-30c02b30b691" opacity="1.000" fill="none" stroke="#000000" stroke-width="0.667" stroke-opacity="1.000" stroke-linecap="round" stroke-linejoin="round" d="M -9871.018 12789.762 Q -9871.097 12789.800 -9871.368 12789.906 Q -9871.556 12789.483 -9869.394 12788.482 Q -9867.231 12787.480 -9867.062 12787.407 "></path>
    <path id="STROKE_19f60cf8-7282-4ead-83ed-410406824075" opacity="1.000" fill="none" stroke="#000000" stroke-width="0.700" stroke-opacity="1.000" stroke-linecap="round" stroke-linejoin="round" d="M -9869.077 12789.737 Q -9869.993 12790.124 -9870.412 12792.443 Q -9870.612 12792.320 -9870.142 12792.625 Q -9869.671 12792.931 -9868.314 12792.328 Q -9866.959 12791.727 -9864.373 12787.992 Q -9864.624 12788.381 -9866.959 12791.077 Q -9869.294 12793.773 -9873.956 12796.694 Q -9873.627 12796.767 -9871.008 12795.945 Q -9868.388 12795.123 -9863.933 12792.888 "></path>
    <path id="STROKE_b3ca09da-01bb-41e5-a55a-699d283f189d" opacity="1.000" fill="none" stroke="#000000" stroke-width="0.674" stroke-opacity="1.000" stroke-linecap="round" stroke-linejoin="round" d="M -9868.041 12789.105 Q -9868.046 12789.104 -9868.367 12788.972 Q -9868.522 12788.893 -9868.092 12791.754 Q -9867.662 12794.615 -9867.272 12796.275 Q -9866.883 12797.937 -9866.596 12798.824 Q -9866.308 12799.713 -9865.959 12799.790 Q -9865.610 12799.867 -9865.475 12799.878 "></path>
    <path id="STROKE_535b179b-0f98-4370-853b-f42042d73b77" opacity="1.000" fill="none" stroke="#000000" stroke-width="0.970" stroke-opacity="1.000" stroke-linecap="round" stroke-linejoin="round" d="M -9841.805 12795.975 Q -9841.820 12795.972 -9841.837 12795.969 Q -9841.937 12795.947 -9841.496 12796.005 Q -9841.057 12796.062 -9840.875 12796.475 Q -9840.692 12796.887 -9840.630 12797.095 "></path>
    <path id="STROKE_411c20da-2d35-4405-a151-1ab1852135b5" opacity="1.000" fill="none" stroke="#000000" stroke-width="0.979" stroke-opacity="1.000" stroke-linecap="round" stroke-linejoin="round" d="M -9841.913 12799.791 Q -9841.864 12799.778 -9841.947 12799.773 Q -9842.029 12799.768 -9842.563 12800.693 Q -9842.118 12800.966 -9841.922 12800.986 Q -9841.727 12801.006 -9841.544 12801.061 "></path>
    <path id="STROKE_825fb987-a781-405b-83a6-748bb2353a8e" opacity="1.000" fill="none" stroke="#000000" stroke-width="0.634" stroke-opacity="1.000" stroke-linecap="round" stroke-linejoin="round" d="M -9857.707 12788.060 Q -9857.893 12788.405 -9857.861 12790.228 Q -9857.830 12792.050 -9857.072 12792.953 Q -9856.315 12793.857 -9856.197 12793.898 "></path>
    <path id="STROKE_a4061520-ec1c-4263-954f-41e16f007b39" opacity="1.000" fill="none" stroke="#000000" stroke-width="0.808" stroke-opacity="1.000" stroke-linecap="round" stroke-linejoin="round" d="M -9857.156 12787.261 Q -9857.156 12787.066 -9856.210 12786.555 Q -9855.264 12786.044 -9854.484 12786.040 Q -9853.706 12786.036 -9853.273 12786.107 Q -9852.841 12786.180 -9852.720 12786.718 Q -9852.599 12787.256 -9852.580 12787.284 Q -9852.562 12787.312 -9852.682 12787.933 Q -9852.802 12788.553 -9853.025 12788.938 Q -9853.250 12789.321 -9853.523 12789.523 Q -9853.797 12789.725 -9853.954 12789.816 "></path>
    <path id="STROKE_97b72e33-15e2-4a34-b96d-86bfff72f457" opacity="1.000" fill="none" stroke="#000000" stroke-width="0.769" stroke-opacity="1.000" stroke-linecap="round" stroke-linejoin="round" d="M -9855.472 12789.505 Q -9855.791 12789.097 -9855.748 12788.983 Q -9855.705 12788.870 -9855.659 12788.608 Q -9855.613 12788.347 -9855.329 12788.098 Q -9855.045 12787.848 -9854.744 12787.758 Q -9854.442 12787.668 -9854.115 12787.710 Q -9853.788 12787.752 -9853.791 12787.639 Q -9853.794 12787.526 -9853.674 12787.870 Q -9853.554 12788.214 -9853.621 12789.139 Q -9853.688 12790.062 -9855.898 12791.424 Q -9856.105 12791.359 -9855.297 12790.589 Q -9854.487 12789.818 -9853.621 12789.305 Q -9852.756 12788.792 -9851.765 12789.143 Q -9851.222 12789.389 -9852.125 12791.239 Q -9853.028 12793.090 -9853.234 12793.313 "></path>
    <path id="STROKE_44bb5f87-ac97-4c86-a1a6-53f718db099e" opacity="1.000" fill="none" stroke="#000000" stroke-width="0.685" stroke-opacity="1.000" stroke-linecap="round" stroke-linejoin="round" d="M -9858.019 12797.114 Q -9858.178 12797.189 -9858.865 12797.471 Q -9858.636 12797.074 -9856.010 12795.684 Q -9853.384 12794.292 -9851.721 12793.942 Q -9850.058 12793.593 -9849.971 12793.520 "></path>
    <path id="STROKE_22632a74-4109-4e43-b1b9-86106ba25d35" opacity="1.000" fill="none" stroke="#000000" stroke-width="0.765" stroke-opacity="1.000" stroke-linecap="round" stroke-linejoin="round" d="M -9853.870 12786.981 Q -9853.867 12786.966 -9853.863 12786.950 Q -9853.649 12787.068 -9852.082 12800.978 L -9852.066 12800.980 Q -9852.030 12801.026 -9852.108 12800.436 Q -9852.187 12799.846 -9852.272 12799.562 "></path>
    <path id="STROKE_a3f3ba7b-a726-4598-93b8-2fc27ea321d3" opacity="1.000" fill="none" stroke="#000000" stroke-width="0.961" stroke-opacity="1.000" stroke-linecap="round" stroke-linejoin="round" d="M -9711.008 12728.424 Q -9710.654 12728.537 -9712.886 12728.230 Q -9712.981 12727.597 -9713.069 12729.787 Q -9713.157 12731.979 -9713.132 12732.973 Q -9713.106 12733.967 -9713.115 12734.668 Q -9713.125 12735.369 -9713.177 12736.077 Q -9713.229 12736.785 -9712.887 12737.695 Q -9712.546 12738.604 -9711.934 12741.082 Q -9711.320 12743.561 -9711.634 12745.381 Q -9711.947 12747.201 -9712.711 12748.486 Q -9713.476 12749.771 -9714.020 12750.191 Q -9714.564 12750.612 -9714.902 12750.816 Q -9715.240 12751.020 -9715.519 12751.086 Q -9715.797 12751.151 -9715.660 12751.135 Q -9715.523 12751.117 -9715.979 12751.149 Q -9716.435 12751.182 -9717.117 12751.389 Q -9717.800 12751.595 -9720.439 12754.013 Q -9720.027 12753.771 -9718.875 12752.660 Q -9717.722 12751.550 -9717.411 12751.164 "></path>
    <path id="STROKE_db4794cb-9a6f-4c83-8a37-f02f12657d6c" opacity="1.000" fill="none" stroke="#000000" stroke-width="0.736" stroke-opacity="1.000" stroke-linecap="round" stroke-linejoin="round" d="M -9709.857 12764.521 Q -9710.684 12764.862 -9710.823 12771.512 Q -9710.963 12778.160 -9710.267 12782.047 Q -9709.570 12785.934 -9709.328 12786.490 "></path>
    <path id="STROKE_77434c21-26c7-43de-81af-7a245c7e915a" opacity="1.000" fill="none" stroke="#000000" stroke-width="0.853" stroke-opacity="1.000" stroke-linecap="round" stroke-linejoin="round" d="M -9617.871 12987.301 Q -9617.888 12987.287 -9618.446 12986.438 Q -9618.895 12986.273 -9616.766 12992.407 Q -9616.766 12992.242 -9616.766 12992.078 "></path>
    <path id="STROKE_230c8e95-f5c5-4d4d-ac67-c439a1118281" opacity="1.000" fill="none" stroke="#000000" stroke-width="0.896" stroke-opacity="1.000" stroke-linecap="round" stroke-linejoin="round" d="M -9617.341 12987.402 Q -9617.231 12987.476 -9617.406 12986.680 Q -9617.582 12985.883 -9616.771 12985.486 Q -9615.962 12985.091 -9615.340 12985.040 Q -9614.718 12984.989 -9613.731 12985.389 Q -9612.745 12985.787 -9613.000 12987.400 Q -9613.254 12989.014 -9613.496 12989.332 "></path>
    <path id="STROKE_d0404bda-07ed-4f45-8685-bdf763093703" opacity="1.000" fill="none" stroke="#000000" stroke-width="0.975" stroke-opacity="1.000" stroke-linecap="round" stroke-linejoin="round" d="M -9616.675 12989.139 Q -9616.750 12988.145 -9616.721 12988.480 Q -9617.107 12988.148 -9614.775 12988.168 Q -9613.511 12988.497 -9617.008 12991.307 Q -9616.993 12991.181 -9615.127 12990.275 Q -9613.262 12989.371 -9613.117 12989.275 "></path>
    <path id="STROKE_1e97859b-3664-45f1-9279-117567e1bb91" opacity="1.000" fill="none" stroke="#000000" stroke-width="0.775" stroke-opacity="1.000" stroke-linecap="round" stroke-linejoin="round" d="M -9618.249 12994.529 Q -9618.348 12994.552 -9618.733 12994.722 Q -9618.945 12994.965 -9617.883 12994.434 Q -9616.819 12993.902 -9615.385 12992.783 Q -9613.950 12991.664 -9613.783 12991.442 "></path>
    <path id="STROKE_facfebf0-ccfc-4a64-8c62-9a7106c9eb2c" opacity="1.000" fill="none" stroke="#000000" stroke-width="1.078" stroke-opacity="1.000" stroke-linecap="round" stroke-linejoin="round" d="M -9615.328 12995.981 Q -9615.358 12996.538 -9615.396 12996.531 Q -9615.535 12996.751 -9615.540 12997.490 Q -9614.737 12997.564 -9614.969 12997.609 Q -9615.201 12997.653 -9614.611 12997.479 Q -9614.022 12997.303 -9613.773 12996.885 Q -9613.523 12996.467 -9613.130 12996.016 Q -9612.736 12995.565 -9612.802 12995.625 Q -9612.867 12995.684 -9612.824 12995.634 Q -9612.781 12995.584 -9612.389 12995.248 Q -9611.996 12994.913 -9612.058 12994.988 Q -9611.982 12994.938 -9611.906 12994.915 Q -9611.982 12994.915 -9612.058 12994.915 "></path>
    <path id="STROKE_a511e992-672f-4c2a-a53b-7a3c4118d40b" opacity="1.000" fill="none" stroke="#000000" stroke-width="0.811" stroke-opacity="1.000" stroke-linecap="round" stroke-linejoin="round" d="M -9616.433 12995.402 Q -9617.699 12995.309 -9618.552 13002.938 Q -9618.400 13003.034 -9618.249 13003.107 "></path>
    <path id="STROKE_a7a2c58a-ffdd-41d4-908a-17e3cc26f59a" opacity="1.000" fill="none" stroke="#000000" stroke-width="0.759" stroke-opacity="1.000" stroke-linecap="round" stroke-linejoin="round" d="M -9616.479 12999.397 Q -9616.651 13000.433 -9616.715 13000.189 Q -9616.779 12999.947 -9616.535 13000.360 Q -9616.290 13000.773 -9616.096 13000.852 Q -9615.901 13000.929 -9614.258 13001.213 Q -9612.615 13001.497 -9609.942 13000.841 Q -9607.270 13000.185 -9606.258 12999.201 Q -9605.246 12998.217 -9605.079 12998.047 "></path>
    <path id="STROKE_fcdbaa8c-c0c6-4ba7-b024-dde871c70dc6" opacity="1.000" fill="none" stroke="#000000" stroke-width="0.899" stroke-opacity="1.000" stroke-linecap="round" stroke-linejoin="round" d="M -9615.373 12993.666 Q -9615.900 12994.598 -9615.706 12994.506 Q -9615.808 12994.683 -9615.469 12998.029 Q -9615.131 13001.377 -9615.086 13001.667 "></path>
    <path id="STROKE_8f5a5eb5-019b-474e-b2d5-8698681f7f7b" opacity="1.000" fill="none" stroke="#000000" stroke-width="0.954" stroke-opacity="1.000" stroke-linecap="round" stroke-linejoin="round" d="M -9614.692 12996.799 Q -9614.723 12996.821 -9615.040 12997.037 Q -9615.166 12996.922 -9615.041 12997.208 Q -9614.916 12997.494 -9612.378 12996.134 Q -9609.840 12994.773 -9609.696 12994.631 "></path>
    <path id="STROKE_ee9f7948-c416-4780-80ea-e080960b2da3" opacity="1.000" fill="none" stroke="#000000" stroke-width="0.740" stroke-opacity="1.000" stroke-linecap="round" stroke-linejoin="round" d="M -9618.491 12996.799 Q -9618.025 12996.917 -9620.232 12996.577 Q -9620.146 12996.453 -9620.385 12996.583 Q -9620.625 12996.713 -9619.701 12996.101 Q -9618.776 12995.488 -9617.768 12994.863 Q -9616.758 12994.238 -9613.973 12993.109 Q -9611.188 12991.981 -9610.665 12991.691 "></path>
    <path id="STROKE_2db06d7b-ace9-4878-b7a4-2f646016b957" opacity="1.000" fill="none" stroke="#000000" stroke-width="0.684" stroke-opacity="1.000" stroke-linecap="round" stroke-linejoin="round" d="M -9600.129 12986.245 Q -9600.186 12986.019 -9599.838 12985.761 Q -9599.489 12985.503 -9599.436 12985.494 Q -9599.382 12985.486 -9599.018 12985.184 Q -9598.653 12984.882 -9595.039 12983.056 Q -9591.425 12981.229 -9591.138 12981.082 "></path>
    <path id="STROKE_d3c262c6-e7f4-482a-b852-c0ce3f4bf749" opacity="1.000" fill="none" stroke="#000000" stroke-width="0.837" stroke-opacity="1.000" stroke-linecap="round" stroke-linejoin="round" d="M -9592.151 12982.818 Q -9592.605 12982.380 -9599.509 12993.417 Q -9599.433 12993.395 -9599.096 12992.951 Q -9598.760 12992.509 -9598.494 12992.123 "></path>
    <path id="STROKE_a629bab2-d5c1-41ed-917c-37fd268246bb" opacity="1.000" fill="none" stroke="#000000" stroke-width="0.823" stroke-opacity="1.000" stroke-linecap="round" stroke-linejoin="round" d="M -9595.937 12989.570 Q -9595.104 12990.308 -9595.467 12995.448 Q -9595.392 12995.448 -9595.271 12995.314 Q -9595.149 12995.182 -9594.982 12994.915 "></path>
    <path id="STROKE_fbab75a1-397e-41e9-a27c-893f855b73fc" opacity="1.000" fill="none" stroke="#000000" stroke-width="0.876" stroke-opacity="1.000" stroke-linecap="round" stroke-linejoin="round" d="M -9594.407 12990.818 Q -9594.407 12990.722 -9594.521 12990.387 L -9594.544 12990.387 Q -9595.215 12989.384 -9589.140 12988.747 Q -9589.005 12989.156 -9588.974 12989.338 Q -9588.942 12989.519 -9588.867 12989.809 "></path>
    <path id="STROKE_30472a3e-b0d8-4c42-bde7-e1f058c4fc72" opacity="1.000" fill="none" stroke="#000000" stroke-width="0.869" stroke-opacity="1.000" stroke-linecap="round" stroke-linejoin="round" d="M -9595.073 12994.574 Q -9595.672 12995.338 -9595.535 12995.136 Q -9595.656 12995.255 -9595.891 12995.641 Q -9595.733 12995.733 -9594.051 12994.082 Q -9592.368 12992.432 -9590.123 12991.907 Q -9588.590 12993.213 -9592.863 12998.535 Q -9593.479 12998.170 -9592.198 12996.469 Q -9590.918 12994.768 -9590.744 12994.574 "></path>
    <path id="STROKE_1b3219b4-bc51-45bf-9852-be8d06762e2a" opacity="1.000" fill="none" stroke="#000000" stroke-width="0.898" stroke-opacity="1.000" stroke-linecap="round" stroke-linejoin="round" d="M -9594.938 12995.493 Q -9595.329 12995.530 -9596.042 12995.402 Q -9596.493 12996.154 -9595.642 12996.901 Q -9594.790 12997.648 -9593.876 12997.773 Q -9592.962 12997.899 -9592.621 12997.899 "></path>
    <path id="STROKE_b00d2a60-ca08-4870-8865-fb05b3adecb7" opacity="1.000" fill="none" stroke="#000000" stroke-width="0.850" stroke-opacity="1.000" stroke-linecap="round" stroke-linejoin="round" d="M -9573.729 12979.107 Q -9574.350 12978.820 -9576.264 12982.998 Q -9578.179 12987.175 -9582.767 12995.107 Q -9582.698 12994.966 -9582.630 12994.824 "></path>
    <path id="STROKE_d34939fb-6c55-4351-93df-07fc78e1190e" opacity="1.000" fill="none" stroke="#000000" stroke-width="0.861" stroke-opacity="1.000" stroke-linecap="round" stroke-linejoin="round" d="M -9578.104 12987.834 Q -9578.059 12987.783 -9577.952 12987.731 Q -9577.775 12987.534 -9577.937 12987.662 Q -9578.098 12987.790 -9577.795 12991.406 Q -9577.491 12995.021 -9575.311 12998.818 Q -9575.114 12998.773 -9574.971 12998.728 "></path>
    <path id="STROKE_c47f6b7a-d6fd-49b3-a160-a10bbebbc43c" opacity="1.000" fill="none" stroke="#000000" stroke-width="0.827" stroke-opacity="1.000" stroke-linecap="round" stroke-linejoin="round" d="M -9573.623 12984.656 Q -9574.205 12984.111 -9574.017 12984.123 Q -9574.456 12983.158 -9569.930 12983.277 Q -9569.812 12983.009 -9569.900 12984.488 Q -9569.989 12985.969 -9574.396 12988.412 Q -9574.381 12987.600 -9574.305 12987.715 Q -9573.975 12986.880 -9571.125 12986.410 Q -9569.555 12987.591 -9574.743 12991.590 Q -9575.275 12990.850 -9570.096 12988.117 Q -9569.017 12987.619 -9573.441 12994.336 Q -9573.732 12994.470 -9572.488 12993.192 Q -9571.243 12991.915 -9570.208 12990.887 Q -9569.173 12989.857 -9567.787 12990.023 Q -9567.456 12990.894 -9567.861 12992.599 Q -9568.268 12994.304 -9569.635 12995.451 Q -9571.002 12996.598 -9572.624 12996.480 Q -9572.588 12995.607 -9572.458 12995.737 Q -9572.275 12995.436 -9569.524 12994.177 Q -9566.773 12992.918 -9566.463 12992.656 "></path>
    <path id="STROKE_41c74b46-a572-411d-ab9d-4f6e27fd398f" opacity="1.000" fill="none" stroke="#000000" stroke-width="0.880" stroke-opacity="1.000" stroke-linecap="round" stroke-linejoin="round" d="M -9551.220 12976.214 Q -9551.192 12976.045 -9558.197 12987.301 Q -9558.035 12986.823 -9557.262 12985.627 Q -9556.488 12984.431 -9555.909 12983.783 Q -9555.330 12983.135 -9554.797 12983.141 Q -9554.264 12983.146 -9553.312 12983.092 Q -9552.359 12983.036 -9551.691 12982.988 Q -9551.023 12982.941 -9550.635 12982.879 Q -9550.246 12982.817 -9550.238 12982.816 Q -9550.229 12982.814 -9550.234 12982.818 Q -9550.240 12982.823 -9550.263 12982.820 Q -9550.285 12982.817 -9549.251 12982.682 Q -9548.273 12982.822 -9554.353 12987.255 Q -9554.539 12987.485 -9554.109 12986.494 Q -9553.680 12985.502 -9551.848 12985.445 Q -9551.561 12985.251 -9551.564 12986.205 Q -9551.567 12987.159 -9551.648 12987.760 Q -9551.729 12988.361 -9552.154 12988.886 Q -9552.581 12989.410 -9552.467 12989.322 Q -9552.354 12989.233 -9552.807 12989.469 Q -9553.260 12989.705 -9554.271 12989.939 Q -9555.284 12990.173 -9555.995 12990.734 Q -9556.706 12991.295 -9557.340 12992.346 Q -9557.973 12993.396 -9557.736 12994.358 Q -9557.787 12994.330 -9557.787 12994.383 Q -9557.786 12994.437 -9557.305 12994.484 Q -9556.824 12994.533 -9555.254 12993.631 Q -9553.683 12992.729 -9552.676 12992.652 Q -9551.670 12992.574 -9550.975 12992.487 Q -9550.280 12992.400 -9548.427 12993.474 Q -9548.170 12993.551 -9547.635 12992.546 Q -9547.100 12991.541 -9547.140 12990.811 Q -9547.180 12990.079 -9547.419 12989.799 Q -9547.658 12989.519 -9547.792 12989.528 Q -9547.926 12989.538 -9548.061 12989.436 Q -9548.195 12989.334 -9549.268 12989.382 Q -9550.341 12989.430 -9550.576 12990.795 Q -9548.698 12990.503 -9544.726 12988.725 Q -9544.464 12989.581 -9544.082 12991.085 Q -9543.870 12991.113 -9543.666 12991.100 Q -9543.461 12991.085 -9543.196 12991.057 "></path>
    <path id="STROKE_72f0a0a4-637e-4038-bfdb-23ea0a01678c" opacity="1.000" fill="none" stroke="#000000" stroke-width="0.937" stroke-opacity="1.000" stroke-linecap="round" stroke-linejoin="round" d="M -9539.624 12976.939 Q -9539.604 12976.932 -9539.660 12976.956 Q -9539.717 12976.980 -9539.723 12976.969 Q -9539.729 12976.958 -9539.279 12976.602 Q -9538.830 12976.244 -9538.459 12976.176 Q -9538.087 12976.107 -9537.932 12976.066 Q -9537.775 12976.026 -9537.645 12975.969 Q -9537.515 12975.910 -9536.408 12975.957 Q -9535.302 12976.004 -9535.112 12976.123 "></path>
    <path id="STROKE_eba76d5c-d0d7-4d1b-8677-ae0ea917df4d" opacity="1.000" fill="none" stroke="#000000" stroke-width="0.622" stroke-opacity="1.000" stroke-linecap="round" stroke-linejoin="round" d="M -9539.049 12983.011 Q -9539.564 12983.083 -9539.533 12983.057 Q -9539.601 12983.057 -9539.624 12983.057 Q -9539.603 12982.933 -9539.600 12982.624 Q -9539.597 12982.315 -9535.912 12979.895 Q -9532.229 12977.473 -9531.889 12977.234 "></path>
    <path id="STROKE_6897349a-f3a9-42a6-8664-65596462defb" opacity="1.000" fill="none" stroke="#000000" stroke-width="0.722" stroke-opacity="1.000" stroke-linecap="round" stroke-linejoin="round" d="M -9537.610 12983.544 Q -9538.256 12983.059 -9538.363 12986.029 Q -9538.470 12989.000 -9538.337 12990.824 Q -9538.204 12992.649 -9538.203 12993.580 Q -9538.203 12994.512 -9538.808 12995.006 Q -9539.412 12995.499 -9539.578 12995.596 "></path>
    <path id="STROKE_86ddcb08-8422-40b0-b563-35aba5f045e5" opacity="1.000" fill="none" stroke="#000000" stroke-width="0.744" stroke-opacity="1.000" stroke-linecap="round" stroke-linejoin="round" d="M -9537.414 12986.722 Q -9537.822 12986.637 -9535.873 12984.988 Q -9533.925 12983.340 -9533.111 12981.888 Q -9532.297 12980.436 -9532.131 12980.026 "></path>
    <path id="STROKE_026799e8-8233-42bf-8ac3-ff850e8f39e5" opacity="1.000" fill="none" stroke="#000000" stroke-width="0.821" stroke-opacity="1.000" stroke-linecap="round" stroke-linejoin="round" d="M -9533.568 12979.255 Q -9533.830 12978.516 -9534.386 12989.354 Q -9533.827 12989.215 -9531.404 12984.463 L -9531.336 12984.463 Q -9530.141 12985.245 -9535.354 12990.285 Q -9535.529 12989.787 -9534.740 12989.012 Q -9533.951 12988.236 -9533.252 12987.931 Q -9532.553 12987.625 -9532.152 12987.525 Q -9531.752 12987.425 -9531.424 12987.529 Q -9531.096 12987.634 -9530.824 12987.807 Q -9530.554 12987.979 -9530.578 12988.037 Q -9530.604 12988.096 -9530.465 12988.646 Q -9530.325 12989.196 -9530.348 12990.205 Q -9530.371 12991.213 -9531.155 12992.417 Q -9531.939 12993.621 -9533.102 12994.019 Q -9534.263 12994.416 -9534.782 12993.871 Q -9535.302 12993.326 -9535.491 12993.088 "></path>
    <path id="STROKE_cd3bc5b6-c824-459e-aa64-5a9d723f820f" opacity="1.000" fill="none" stroke="#000000" stroke-width="0.851" stroke-opacity="1.000" stroke-linecap="round" stroke-linejoin="round" d="M -9535.203 12991.885 Q -9534.781 12991.677 -9534.479 12991.623 Q -9534.176 12991.568 -9534.205 12991.564 Q -9534.233 12991.562 -9534.162 12991.658 Q -9534.092 12991.756 -9529.229 12991.361 Q -9524.365 12990.966 -9523.669 12990.728 "></path>
    <path id="STROKE_4fa2e875-bc92-49dd-aee7-b19e7da3f77e" opacity="1.000" fill="none" stroke="#000000" stroke-width="0.833" stroke-opacity="1.000" stroke-linecap="round" stroke-linejoin="round" d="M -9530.012 12981.377 Q -9529.726 12981.313 -9530.685 12981.036 Q -9530.731 12980.705 -9531.028 12982.881 Q -9531.325 12985.058 -9530.732 12986.094 Q -9530.140 12987.130 -9529.875 12987.301 "></path>
    <path id="STROKE_2be85181-13a9-4a07-8015-e5e20d937a49" opacity="1.000" fill="none" stroke="#000000" stroke-width="0.847" stroke-opacity="1.000" stroke-linecap="round" stroke-linejoin="round" d="M -9496.875 12972.695 Q -9496.950 12972.673 -9497.117 12972.605 Q -9497.069 12973.632 -9496.590 12977.309 Q -9496.110 12980.985 -9496.058 12981.082 "></path>
    <path id="STROKE_3c122a85-2b9c-43d4-9d01-b3750cabb21b" opacity="1.000" fill="none" stroke="#000000" stroke-width="0.841" stroke-opacity="1.000" stroke-linecap="round" stroke-linejoin="round" d="M -9497.026 12978.245 Q -9497.652 12977.617 -9497.289 12976.469 Q -9496.925 12975.320 -9496.424 12974.895 Q -9495.923 12974.469 -9495.199 12973.703 Q -9494.477 12972.938 -9491.304 12972.701 Q -9490.604 12973.994 -9491.403 12975.575 Q -9492.203 12977.156 -9493.067 12977.897 Q -9493.932 12978.639 -9494.539 12978.766 Q -9495.147 12978.894 -9495.311 12978.736 Q -9495.474 12978.580 -9495.684 12978.220 Q -9495.895 12977.859 -9495.838 12977.672 Q -9495.780 12977.484 -9495.801 12977.531 Q -9495.822 12977.579 -9495.847 12977.352 Q -9495.871 12977.125 -9495.149 12976.709 Q -9494.428 12976.293 -9493.880 12976.129 Q -9493.332 12975.965 -9492.894 12975.998 Q -9492.605 12975.696 -9492.913 12977.152 Q -9493.221 12978.609 -9495.104 12981.036 Q -9495.275 12980.847 -9490.176 12978.415 Q -9490.176 12979.403 -9490.320 12979.352 Q -9490.751 12979.930 -9491.017 12980.265 "></path>
    <path id="STROKE_934355ca-6392-4e7b-b177-940d68c606a3" opacity="1.000" fill="none" stroke="#000000" stroke-width="0.879" stroke-opacity="1.000" stroke-linecap="round" stroke-linejoin="round" d="M -9495.679 12984.271 Q -9495.681 12984.306 -9496.496 12984.406 Q -9495.619 12984.213 -9495.648 12984.117 Q -9496.392 12984.795 -9490.910 12980.945 Q -9491.324 12981.322 -9492.064 12982.992 Q -9492.804 12984.661 -9492.916 12987.811 Q -9492.090 12987.924 -9492.113 12987.879 Q -9492.017 12988.188 -9490.818 12987.197 Q -9489.619 12986.207 -9488.519 12984.820 Q -9488.385 12984.847 -9488.675 12984.748 Q -9488.965 12984.650 -9489.230 12984.555 "></path>
    <path id="STROKE_9621d822-a905-4f77-816f-9aab4351fcb0" opacity="1.000" fill="none" stroke="#000000" stroke-width="0.768" stroke-opacity="1.000" stroke-linecap="round" stroke-linejoin="round" d="M -9494.482 12985.235 Q -9495.121 12985.246 -9499.327 12993.496 Q -9498.829 12993.795 -9497.606 12992.158 Q -9496.384 12990.521 -9495.194 12989.730 Q -9494.005 12988.940 -9490.888 12989.426 Q -9487.771 12989.911 -9485.042 12989.926 Q -9482.313 12989.941 -9481.000 12989.489 Q -9479.686 12989.037 -9479.375 12988.799 "></path>
    <path id="STROKE_b07a7064-31e3-46fa-9bc5-fd97c3ddef18" opacity="1.000" fill="none" stroke="#000000" stroke-width="1.044" stroke-opacity="1.000" stroke-linecap="round" stroke-linejoin="round" d="M -9511.937 12989.082 Q -9512.838 12989.082 -9512.603 12989.082 Q -9512.648 12989.082 -9512.709 12989.082 Q -9512.710 12989.227 -9511.828 12989.350 Q -9510.945 12989.474 -9510.726 12989.570 "></path>
    <path id="STROKE_47ae454c-5afe-45f4-9a74-28a0f0e833da" opacity="1.000" fill="none" stroke="#000000" stroke-width="1.077" stroke-opacity="1.000" stroke-linecap="round" stroke-linejoin="round" d="M -9512.027 12993.950 Q -9511.895 12993.770 -9512.709 12994.580 Q -9512.509 12994.873 -9511.617 12994.859 Q -9510.726 12994.847 -9510.483 12994.869 "></path>
    <path id="STROKE_8f3b2272-24c2-4017-84a4-196a2e4e382c" opacity="1.000" fill="none" stroke="#000000" stroke-width="0.940" stroke-opacity="1.000" stroke-linecap="round" stroke-linejoin="round" d="M -9503.922 12971.345 Q -9504.214 12970.967 -9504.932 12970.990 Q -9505.650 12971.014 -9507.050 12971.659 Q -9508.449 12972.305 -9509.055 12972.434 Q -9509.660 12972.563 -9510.188 12972.791 Q -9510.717 12973.018 -9510.885 12973.268 Q -9511.054 12973.519 -9511.040 12973.523 Q -9511.026 12973.529 -9511.024 12973.521 Q -9511.022 12973.514 -9511.013 12973.490 Q -9511.003 12973.468 -9510.868 12976.752 Q -9510.733 12980.035 -9510.257 12981.832 Q -9509.780 12983.628 -9509.592 12983.710 "></path>
    <path id="STROKE_1b97c025-103a-4a9c-b48c-6c4b40b29151" opacity="1.000" fill="none" stroke="#000000" stroke-width="0.733" stroke-opacity="1.000" stroke-linecap="round" stroke-linejoin="round" d="M -9472.124 12980.701 Q -9472.144 12980.701 -9472.292 12980.726 Q -9472.553 12980.259 -9472.059 12983.189 Q -9471.564 12986.119 -9471.426 12987.778 Q -9471.288 12989.438 -9471.383 12990.205 Q -9471.478 12990.972 -9471.896 12991.776 Q -9472.316 12992.581 -9473.903 12993.373 Q -9475.490 12994.166 -9477.160 12994.104 Q -9478.830 12994.042 -9479.076 12993.939 "></path>
    <path id="STROKE_37c693aa-6415-4c2e-994e-0bac3b12b75e" opacity="1.000" fill="none" stroke="#000000" stroke-width="0.833" stroke-opacity="1.000" stroke-linecap="round" stroke-linejoin="round" d="M -9699.293 12980.305 Q -9699.242 12980.188 -9699.330 12979.865 Q -9699.419 12979.543 -9698.516 12978.772 Q -9697.611 12978.002 -9696.754 12977.673 Q -9695.896 12977.344 -9695.433 12977.398 Q -9694.969 12977.454 -9694.526 12977.562 Q -9694.084 12977.669 -9694.008 12978.600 Q -9693.931 12979.531 -9694.012 12980.249 Q -9694.094 12980.967 -9694.793 12982.109 Q -9695.493 12983.253 -9696.950 12984.264 Q -9697.244 12983.797 -9695.637 12982.482 Q -9694.030 12981.168 -9693.907 12981.003 "></path>
    <path id="STROKE_f2d7d2ed-bc71-4588-ba7d-67f0f4a4b6c8" opacity="1.000" fill="none" stroke="#000000" stroke-width="0.761" stroke-opacity="1.000" stroke-linecap="round" stroke-linejoin="round" d="M -9697.520 12979.770 Q -9698.067 12979.378 -9698.308 12982.125 Q -9698.548 12984.872 -9698.717 12986.981 Q -9698.886 12989.091 -9699.238 12990.567 Q -9699.590 12992.044 -9700.108 12996.365 Q -9700.627 13000.686 -9700.562 13000.705 "></path>
    <path id="STROKE_fd6ed3a9-886f-4706-8eee-ae093517f46e" opacity="1.000" fill="none" stroke="#000000" stroke-width="0.861" stroke-opacity="1.000" stroke-linecap="round" stroke-linejoin="round" d="M -9696.044 12987.312 Q -9696.144 12987.109 -9695.118 12984.380 Q -9694.109 12983.781 -9697.047 12991.475 Q -9697.086 12991.475 -9697.216 12991.455 Q -9697.126 12991.358 -9697.243 12991.074 Q -9697.360 12990.791 -9697.096 12989.751 Q -9696.831 12988.711 -9693.590 12986.321 Q -9692.491 12986.719 -9697.630 12995.716 Q -9697.668 12995.716 -9697.707 12995.716 Q -9697.673 12995.544 -9697.703 12994.643 Q -9697.732 12993.740 -9697.760 12993.094 Q -9697.788 12992.448 -9697.025 12991.942 Q -9696.263 12991.437 -9695.013 12991.061 Q -9693.763 12990.684 -9692.783 12990.564 Q -9691.803 12990.446 -9691.128 12990.515 Q -9690.453 12990.583 -9690.040 12990.920 Q -9689.627 12991.256 -9689.716 12991.142 Q -9689.805 12991.027 -9689.640 12991.541 Q -9689.475 12992.055 -9689.605 12992.662 Q -9689.736 12993.270 -9690.374 12993.567 Q -9691.012 12993.865 -9691.617 12993.780 Q -9692.222 12993.695 -9692.466 12993.265 Q -9692.710 12992.834 -9692.872 12992.542 "></path>
    <path id="STROKE_bdf2a76b-fb3a-4950-ab17-46ab8df7561d" opacity="1.000" fill="none" stroke="#000000" stroke-width="0.940" stroke-opacity="1.000" stroke-linecap="round" stroke-linejoin="round" d="M -9693.454 12989.902 Q -9693.599 12989.453 -9693.655 12989.495 Q -9694.670 12989.077 -9694.665 12993.988 Q -9694.132 12994.039 -9693.923 12994.081 Q -9693.714 12994.123 -9692.914 12992.426 Q -9692.114 12990.728 -9692.018 12990.562 "></path>
    <path id="STROKE_5dd3a5a5-d849-40ce-9bd8-94bc5406d2f4" opacity="1.000" fill="none" stroke="#000000" stroke-width="1.094" stroke-opacity="1.000" stroke-linecap="round" stroke-linejoin="round" d="M -9687.810 12984.380 Q -9687.906 12984.207 -9687.938 12984.215 Q -9688.271 12984.327 -9687.780 12985.115 Q -9687.290 12985.904 -9686.211 12986.525 Q -9685.984 12986.341 -9685.842 12986.156 "></path>
    <path id="STROKE_9bef1e71-163b-483e-b1f0-695710dc1d31" opacity="1.000" fill="none" stroke="#000000" stroke-width="0.796" stroke-opacity="1.000" stroke-linecap="round" stroke-linejoin="round" d="M -9683.459 12977.053 Q -9683.459 12977.009 -9683.459 12976.926 Q -9683.336 12976.847 -9683.477 12980.033 Q -9683.617 12983.221 -9684.084 12985.990 Q -9684.552 12988.759 -9684.572 12991.970 Q -9684.117 12991.443 -9683.613 12989.465 Q -9683.108 12987.486 -9682.237 12986.068 Q -9681.366 12984.650 -9680.549 12984.084 Q -9679.730 12983.517 -9679.588 12983.352 "></path>
    <path id="STROKE_766e8342-3955-4f44-a210-3ede2fb7a09e" opacity="1.000" fill="none" stroke="#000000" stroke-width="0.778" stroke-opacity="1.000" stroke-linecap="round" stroke-linejoin="round" d="M -9676.093 12976.015 Q -9675.780 12975.777 -9677.496 12979.228 Q -9679.211 12982.678 -9680.986 12986.981 Q -9680.782 12986.844 -9679.307 12985.222 Q -9677.831 12983.600 -9676.159 12982.787 Q -9674.487 12981.975 -9673.579 12981.789 Q -9672.671 12981.604 -9671.959 12981.597 Q -9671.246 12981.590 -9671.100 12982.482 Q -9670.952 12983.376 -9670.952 12983.769 "></path>
    <path id="STROKE_1b4f40e8-3aad-4581-8f7e-06653391b8b4" opacity="1.000" fill="none" stroke="#000000" stroke-width="0.628" stroke-opacity="1.000" stroke-linecap="round" stroke-linejoin="round" d="M -9673.426 12987.021 Q -9673.588 12987.160 -9675.308 12988.376 Q -9677.027 12989.592 -9678.721 12991.058 Q -9678.328 12991.285 -9675.699 12989.143 Q -9673.069 12987.001 -9672.804 12986.729 "></path>
    <path id="STROKE_27f01eb2-d820-4d7c-a7d9-ab09945cf0ae" opacity="1.000" fill="none" stroke="#000000" stroke-width="0.732" stroke-opacity="1.000" stroke-linecap="round" stroke-linejoin="round" d="M -9673.374 12980.013 Q -9673.885 12979.523 -9674.385 12982.350 Q -9674.884 12985.176 -9674.856 12987.532 Q -9674.829 12989.889 -9674.738 12991.184 Q -9674.646 12992.479 -9675.344 12993.515 Q -9676.041 12994.551 -9678.358 12995.348 Q -9678.362 12995.295 -9675.889 12994.356 Q -9673.416 12993.418 -9671.760 12993.108 Q -9670.104 12992.799 -9669.377 12992.826 Q -9668.648 12992.854 -9668.609 12992.911 "></path>
    <path id="STROKE_80d171e5-0a66-4477-8bd6-00c57b4b51cc" opacity="1.000" fill="none" stroke="#000000" stroke-width="0.790" stroke-opacity="1.000" stroke-linecap="round" stroke-linejoin="round" d="M -9732.359 12984.468 Q -9732.339 12984.522 -9732.377 12984.493 Q -9732.416 12984.464 -9732.266 12984.004 Q -9732.116 12983.545 -9731.619 12983.423 Q -9731.122 12983.301 -9730.980 12983.227 Q -9730.839 12983.152 -9730.481 12983.009 Q -9730.124 12982.865 -9729.379 12982.667 Q -9728.635 12982.469 -9728.210 12982.488 Q -9727.785 12982.509 -9727.703 12982.547 Q -9727.620 12982.586 -9727.619 12982.645 Q -9727.619 12982.704 -9727.535 12983.166 Q -9727.451 12983.627 -9728.010 12984.468 Q -9728.568 12985.309 -9728.934 12985.740 Q -9729.298 12986.171 -9729.462 12986.336 Q -9729.626 12986.502 -9729.848 12986.690 Q -9729.768 12986.695 -9728.645 12986.314 Q -9727.522 12985.935 -9726.879 12986.029 Q -9726.235 12986.123 -9725.967 12986.453 Q -9725.697 12986.783 -9725.427 12987.863 Q -9725.156 12988.942 -9725.446 12990.217 Q -9725.736 12991.490 -9726.424 12992.014 Q -9727.110 12992.537 -9727.402 12992.564 Q -9727.694 12992.592 -9728.396 12992.484 Q -9729.097 12992.378 -9730.118 12988.946 Q -9731.140 12985.515 -9732.321 12981.294 Q -9732.006 12981.314 -9731.258 12983.812 Q -9730.510 12986.311 -9730.045 12989.555 Q -9729.581 12992.800 -9730.185 13001.656 Q -9730.209 13001.266 -9729.547 12999.656 Q -9728.884 12998.046 -9728.618 12997.404 "></path>
    <path id="STROKE_bf04cd17-3e78-407a-a757-04ebb99427d4" opacity="1.000" fill="none" stroke="#000000" stroke-width="0.730" stroke-opacity="1.000" stroke-linecap="round" stroke-linejoin="round" d="M -9725.031 12982.943 Q -9724.954 12982.772 -9724.697 12982.596 Q -9724.441 12982.419 -9724.459 12982.502 Q -9724.478 12982.586 -9724.350 12982.539 Q -9724.223 12982.493 -9723.455 12984.133 Q -9722.688 12985.773 -9722.418 12988.348 Q -9722.147 12990.921 -9722.113 12993.462 Q -9722.080 12996.003 -9724.158 12998.647 Q -9724.257 12997.955 -9724.246 12997.486 Q -9724.235 12997.017 -9724.255 12996.541 "></path>
    <path id="STROKE_fcc97090-d1fd-420e-ad39-1c956d36d5c1" opacity="1.000" fill="none" stroke="#000000" stroke-width="0.711" stroke-opacity="1.000" stroke-linecap="round" stroke-linejoin="round" d="M -9724.462 12986.360 Q -9724.407 12986.477 -9724.621 12985.348 Q -9724.834 12984.220 -9724.631 12983.423 Q -9724.429 12982.626 -9724.089 12982.216 Q -9723.749 12981.806 -9723.104 12981.120 Q -9722.457 12980.435 -9721.830 12980.207 Q -9721.204 12979.979 -9720.534 12979.990 Q -9719.864 12980.003 -9718.907 12981.707 Q -9717.950 12983.410 -9717.240 12986.164 Q -9716.530 12988.919 -9716.317 12991.461 Q -9716.104 12994.004 -9716.055 12995.156 Q -9716.006 12996.309 -9716.342 12997.128 Q -9716.679 12997.947 -9717.414 12998.174 Q -9718.150 12998.399 -9718.416 12998.482 "></path>
    <path id="STROKE_77e7d8ce-fab8-4cae-bcc1-09f678b7726f" opacity="1.000" fill="none" stroke="#000000" stroke-width="0.842" stroke-opacity="1.000" stroke-linecap="round" stroke-linejoin="round" d="M -9720.889 12990.728 Q -9720.962 12990.299 -9721.289 12989.401 Q -9721.617 12988.504 -9721.607 12987.786 Q -9721.599 12987.068 -9721.367 12986.688 Q -9721.137 12986.309 -9721.019 12986.222 Q -9720.900 12986.135 -9720.701 12986.047 Q -9720.502 12985.960 -9720.392 12985.923 Q -9720.281 12985.886 -9720.356 12985.900 Q -9720.432 12985.914 -9719.869 12985.893 Q -9719.307 12985.871 -9719.092 12987.355 Q -9718.876 12988.839 -9720.384 12991.602 Q -9720.343 12991.357 -9718.936 12990.188 Q -9717.528 12989.018 -9716.059 12988.102 Q -9714.590 12987.186 -9714.221 12986.895 "></path>
    <path id="STROKE_982426aa-4180-40c3-9152-731e21d84352" opacity="1.000" fill="none" stroke="#000000" stroke-width="0.846" stroke-opacity="1.000" stroke-linecap="round" stroke-linejoin="round" d="M -9746.273 12740.734 Q -9746.338 12740.734 -9746.441 12740.715 Q -9746.209 12739.851 -9746.027 12740.012 Q -9745.724 12739.191 -9741.812 12738.838 Q -9740.382 12739.435 -9744.836 12744.365 Q -9744.979 12744.447 -9743.545 12744.213 Q -9742.111 12743.978 -9741.304 12744.311 Q -9740.496 12744.644 -9740.490 12745.584 Q -9740.484 12746.525 -9740.600 12746.812 Q -9740.716 12747.098 -9741.432 12748.113 Q -9742.146 12749.130 -9744.998 12749.368 Q -9745.113 12749.160 -9745.233 12748.852 Q -9745.354 12748.543 -9745.457 12748.314 "></path>
    <path id="STROKE_90a04633-dd29-455f-b063-0e51a7143e22" opacity="1.000" fill="none" stroke="#000000" stroke-width="0.749" stroke-opacity="1.000" stroke-linecap="round" stroke-linejoin="round" d="M -9746.234 12739.745 Q -9746.229 12739.682 -9746.254 12739.415 L -9746.273 12739.415 Q -9746.538 12739.148 -9746.049 12743.648 Q -9745.561 12748.148 -9745.436 12750.873 Q -9745.311 12753.599 -9745.266 12755.156 Q -9745.220 12756.714 -9745.703 12758.913 Q -9745.703 12758.889 -9745.703 12758.733 Q -9745.703 12758.578 -9745.703 12758.292 "></path>
    <path id="STROKE_a9c57593-efd4-4572-8c20-7546945f5b73" opacity="1.000" fill="none" stroke="#000000" stroke-width="0.867" stroke-opacity="1.000" stroke-linecap="round" stroke-linejoin="round" d="M -9739.489 12743.249 Q -9739.385 12742.924 -9739.604 12744.436 Q -9739.824 12745.947 -9738.071 12750.169 Q -9738.023 12750.212 -9737.863 12750.098 Q -9737.702 12749.984 -9737.560 12749.800 "></path>
    <path id="STROKE_1f3ac739-b1b5-402d-86d4-8503c93bddaa" opacity="1.000" fill="none" stroke="#000000" stroke-width="0.874" stroke-opacity="1.000" stroke-linecap="round" stroke-linejoin="round" d="M -9737.313 12741.967 Q -9737.957 12741.968 -9737.990 12741.968 Q -9738.024 12741.968 -9738.062 12741.968 Q -9738.100 12741.968 -9737.996 12741.968 Q -9737.893 12741.968 -9738.414 12741.968 Q -9737.729 12741.782 -9733.999 12739.949 Q -9733.552 12740.446 -9733.365 12745.000 Q -9733.178 12749.553 -9733.196 12749.674 "></path>
    <path id="STROKE_ebcace26-658a-4bba-b6c2-1a91821e1512" opacity="1.000" fill="none" stroke="#000000" stroke-width="0.760" stroke-opacity="1.000" stroke-linecap="round" stroke-linejoin="round" d="M -9737.106 12747.373 Q -9737.210 12747.373 -9737.677 12747.373 Q -9737.370 12747.096 -9736.416 12746.477 Q -9735.461 12745.857 -9734.093 12745.553 Q -9732.725 12745.248 -9732.459 12745.189 "></path>
    <path id="STROKE_c273a484-5204-49d3-afd0-240e375f77cf" opacity="1.000" fill="none" stroke="#000000" stroke-width="0.681" stroke-opacity="1.000" stroke-linecap="round" stroke-linejoin="round" d="M -9733.935 12749.965 Q -9734.501 12750.737 -9736.731 12751.741 Q -9736.890 12751.289 -9733.801 12749.713 Q -9730.711 12748.136 -9730.322 12747.907 "></path>
  </g>
</svg>