<?xml version="1.0" encoding="UTF-8" standalone="yes"?>
<svg xmlns="http://www.w3.org/2000/svg" xmlns:xlink="http://www.w3.org/1999/xlink" width="35.932mm" height="30.197mm" version="1.1" viewBox="1494.935 1509.713 186.731 156.928">
  <!--
	Exported with Concepts: Smarter Sketching
	Version: 1057 on iOS 15.4
	https://concepts.app/
	-->
  <title>构想粒子系统之势能动力交互</title>
  <desc>Drawing exported from Concepts: Smarter Sketching</desc>
  <defs></defs>
  <g id="图解" opacity="1.000">
    <path id="STROKE_fa5ae737-24ab-4f7e-8985-72312be36c5d" opacity="1.000" fill="none" stroke="#000000" stroke-width="0.511" stroke-opacity="1.000" stroke-linecap="round" stroke-linejoin="round" d="M 1503.362 1549.740 Q 1503.271 1549.975 1502.688 1550.851 Q 1502.104 1551.726 1501.571 1557.392 Q 1501.038 1563.057 1500.833 1566.222 Q 1500.628 1569.388 1500.578 1575.427 Q 1500.529 1581.467 1500.372 1584.332 Q 1500.216 1587.197 1499.891 1590.286 Q 1499.566 1593.374 1499.227 1596.336 Q 1498.889 1599.298 1498.534 1600.869 Q 1498.180 1602.440 1497.714 1607.922 Q 1497.248 1613.405 1497.234 1617.560 Q 1497.219 1621.715 1497.591 1625.469 Q 1497.962 1629.223 1499.408 1633.086 Q 1500.855 1636.949 1503.112 1640.904 Q 1505.368 1644.859 1507.114 1647.431 Q 1508.860 1650.003 1511.225 1651.966 Q 1513.590 1653.929 1516.048 1655.252 Q 1518.506 1656.576 1522.148 1657.916 Q 1525.791 1659.257 1528.094 1659.802 Q 1530.396 1660.347 1539.936 1661.185 Q 1549.476 1662.023 1554.433 1662.541 Q 1559.390 1663.058 1562.943 1663.446 Q 1566.496 1663.834 1572.134 1664.121 Q 1577.772 1664.408 1589.468 1664.332 Q 1601.164 1664.255 1607.432 1664.323 Q 1613.701 1664.390 1619.052 1663.963 Q 1624.404 1663.536 1627.052 1663.304 Q 1629.699 1663.072 1634.153 1662.007 Q 1638.608 1660.942 1641.103 1660.054 Q 1643.597 1659.167 1649.565 1657.007 Q 1655.532 1654.848 1658.649 1653.886 Q 1661.766 1652.924 1663.147 1652.302 Q 1664.528 1651.680 1665.488 1651.017 Q 1666.448 1650.353 1667.544 1648.208 Q 1668.640 1646.062 1669.513 1642.656 Q 1670.386 1639.250 1670.771 1635.896 Q 1671.157 1632.541 1671.125 1624.516 Q 1671.093 1616.491 1670.961 1611.614 Q 1670.829 1606.737 1671.736 1601.486 Q 1672.643 1596.234 1673.518 1591.907 Q 1674.393 1587.580 1674.685 1584.876 Q 1674.977 1582.173 1675.222 1578.323 Q 1675.466 1574.472 1675.816 1570.710 Q 1676.165 1566.947 1677.192 1562.872 Q 1678.220 1558.797 1678.688 1555.947 Q 1679.156 1553.098 1679.167 1551.194 Q 1679.178 1549.290 1678.132 1545.200 Q 1677.086 1541.110 1676.621 1538.009 Q 1676.156 1534.908 1675.943 1533.061 Q 1675.730 1531.214 1674.952 1529.739 Q 1674.175 1528.264 1671.884 1526.647 Q 1669.593 1525.030 1667.455 1523.883 Q 1665.317 1522.737 1660.947 1521.249 Q 1656.577 1519.761 1650.073 1518.320 Q 1643.570 1516.879 1638.518 1516.262 Q 1633.466 1515.645 1627.911 1515.016 Q 1622.357 1514.387 1619.601 1514.039 Q 1616.844 1513.691 1613.975 1513.411 Q 1611.106 1513.132 1609.178 1512.880 Q 1607.250 1512.627 1601.985 1512.399 Q 1596.719 1512.170 1593.790 1512.123 Q 1590.860 1512.076 1584.842 1512.027 Q 1578.823 1511.978 1574.842 1512.062 Q 1570.861 1512.146 1568.630 1512.426 Q 1566.400 1512.706 1562.552 1513.391 Q 1558.704 1514.075 1551.888 1514.860 "></path>
    <path id="STROKE_1add8f00-25b4-4d0b-8a56-a5eac000dbe0" opacity="1.000" fill="none" stroke="#000000" stroke-width="0.809" stroke-opacity="1.000" stroke-linecap="round" stroke-linejoin="round" d="M 1503.056 1514.544 Q 1503.167 1514.823 1505.997 1513.990 Q 1508.826 1513.157 1508.864 1513.129 "></path>
    <path id="STROKE_125ac69d-012b-49f4-bf45-1ec760d7a552" opacity="1.000" fill="none" stroke="#000000" stroke-width="0.713" stroke-opacity="1.000" stroke-linecap="round" stroke-linejoin="round" d="M 1506.707 1514.223 Q 1506.666 1514.764 1501.612 1520.100 Q 1501.625 1520.034 1501.673 1519.921 Q 1501.722 1519.807 1501.806 1519.647 "></path>
    <path id="STROKE_764489fd-d9c5-4180-b94f-d005d2dc51f3" opacity="1.000" fill="none" stroke="#000000" stroke-width="0.883" stroke-opacity="1.000" stroke-linecap="round" stroke-linejoin="round" d="M 1505.616 1516.092 Q 1505.597 1515.906 1505.273 1516.577 Q 1504.948 1517.247 1504.756 1517.718 Q 1504.565 1518.188 1504.452 1518.622 Q 1504.340 1519.057 1504.361 1520.931 Q 1504.416 1520.931 1504.441 1520.931 "></path>
    <path id="STROKE_9d9af5a7-9d7e-4252-8439-84bb7a9ccc3f" opacity="1.000" fill="none" stroke="#000000" stroke-width="0.883" stroke-opacity="1.000" stroke-linecap="round" stroke-linejoin="round" d="M 1505.398 1517.269 Q 1505.671 1517.577 1506.053 1517.887 Q 1506.435 1518.198 1506.950 1518.581 Q 1507.466 1518.965 1509.153 1518.806 Q 1510.841 1518.646 1510.946 1518.577 "></path>
    <path id="STROKE_9916f7b3-c69c-49c5-a600-569f7c2dee2f" opacity="1.000" fill="none" stroke="#000000" stroke-width="0.883" stroke-opacity="1.000" stroke-linecap="round" stroke-linejoin="round" d="M 1512.389 1514.815 Q 1512.344 1515.055 1515.730 1513.755 Q 1515.667 1513.808 1515.600 1513.874 Q 1515.730 1513.755 1515.797 1513.688 "></path>
    <path id="STROKE_a5d06994-2900-49fa-bdc2-e42900989c44" opacity="1.000" fill="none" stroke="#000000" stroke-width="0.883" stroke-opacity="1.000" stroke-linecap="round" stroke-linejoin="round" d="M 1515.159 1512.650 Q 1514.858 1512.889 1514.123 1516.400 Q 1514.169 1516.230 1514.332 1515.960 Q 1514.240 1516.199 1514.181 1516.300 Q 1514.123 1516.400 1514.068 1516.495 "></path>
    <path id="STROKE_f8c9c524-e54b-48d6-9891-a97c45405b42" opacity="1.000" fill="none" stroke="#000000" stroke-width="0.862" stroke-opacity="1.000" stroke-linecap="round" stroke-linejoin="round" d="M 1511.986 1517.055 Q 1512.048 1517.260 1514.422 1516.143 Q 1516.796 1515.026 1516.863 1514.972 "></path>
    <path id="STROKE_1bfea95e-2cbd-4e59-82f9-91304dfaeeee" opacity="1.000" fill="none" stroke="#000000" stroke-width="0.670" stroke-opacity="1.000" stroke-linecap="round" stroke-linejoin="round" d="M 1516.729 1514.330 Q 1516.645 1514.878 1511.449 1520.157 "></path>
    <path id="STROKE_f0325926-bf0a-4d6d-82b9-507ac4e72636" opacity="1.000" fill="none" stroke="#000000" stroke-width="0.883" stroke-opacity="1.000" stroke-linecap="round" stroke-linejoin="round" d="M 1514.362 1518.017 Q 1514.454 1518.297 1517.585 1517.495 Q 1517.543 1517.523 1517.518 1517.536 Q 1517.585 1517.495 1517.610 1517.483 "></path>
    <path id="STROKE_40f64239-3dee-4556-b722-afab570b7e30" opacity="1.000" fill="none" stroke="#000000" stroke-width="0.883" stroke-opacity="1.000" stroke-linecap="round" stroke-linejoin="round" d="M 1515.084 1516.790 Q 1514.619 1516.790 1514.664 1516.790 Q 1514.457 1516.671 1514.295 1517.183 Q 1514.133 1517.695 1514.185 1518.093 Q 1514.238 1518.491 1514.216 1518.673 Q 1514.195 1518.855 1514.969 1519.163 Q 1515.742 1519.470 1516.258 1519.505 Q 1516.774 1519.539 1516.961 1519.798 Q 1517.147 1520.057 1517.194 1520.411 Q 1517.240 1520.766 1517.063 1521.113 Q 1516.886 1521.460 1516.555 1521.554 Q 1516.224 1521.649 1516.105 1521.629 Q 1515.986 1521.609 1515.799 1521.430 Q 1515.612 1521.251 1515.562 1520.880 Q 1515.592 1521.058 1515.600 1521.236 Q 1515.580 1521.187 1515.571 1521.034 Q 1515.562 1520.880 1515.562 1520.773 "></path>
    <path id="STROKE_8e4a8d26-0bfc-4ce5-8fee-dae7d7c34731" opacity="1.000" fill="none" stroke="#000000" stroke-width="0.858" stroke-opacity="1.000" stroke-linecap="round" stroke-linejoin="round" d="M 1522.520 1513.022 Q 1522.678 1513.172 1522.361 1516.948 "></path>
    <path id="STROKE_bba7ebe8-b927-414a-bb7c-78e5940968e1" opacity="1.000" fill="none" stroke="#000000" stroke-width="0.883" stroke-opacity="1.000" stroke-linecap="round" stroke-linejoin="round" d="M 1522.915 1514.198 Q 1523.095 1513.901 1525.067 1513.582 Q 1525.167 1513.869 1525.036 1514.274 Q 1524.904 1514.679 1524.811 1514.840 "></path>
    <path id="STROKE_1d6b62aa-8490-4aac-89c3-97c039f03399" opacity="1.000" fill="none" stroke="#000000" stroke-width="0.883" stroke-opacity="1.000" stroke-linecap="round" stroke-linejoin="round" d="M 1519.742 1517.243 Q 1519.567 1517.110 1524.106 1516.190 Q 1524.490 1516.294 1524.311 1517.236 Q 1524.132 1518.178 1524.064 1518.313 "></path>
    <path id="STROKE_e863b5f4-03e6-4515-aee1-de423cf3a8ab" opacity="1.000" fill="none" stroke="#000000" stroke-width="0.798" stroke-opacity="1.000" stroke-linecap="round" stroke-linejoin="round" d="M 1520.036 1516.602 Q 1519.977 1516.409 1520.160 1518.341 Q 1520.344 1520.273 1519.876 1522.856 "></path>
    <path id="STROKE_152bcc5e-a9df-44c4-8e4d-ca403b4440f1" opacity="1.000" fill="none" stroke="#000000" stroke-width="0.883" stroke-opacity="1.000" stroke-linecap="round" stroke-linejoin="round" d="M 1523.401 1516.627 Q 1523.438 1516.624 1521.689 1518.074 "></path>
    <path id="STROKE_eb390636-9982-4225-8bb7-7002eba37a49" opacity="1.000" fill="none" stroke="#000000" stroke-width="0.883" stroke-opacity="1.000" stroke-linecap="round" stroke-linejoin="round" d="M 1522.226 1517.004 Q 1522.260 1517.011 1522.236 1517.990 Q 1522.211 1518.968 1522.323 1519.573 Q 1522.435 1520.178 1522.632 1520.429 Q 1522.829 1520.680 1523.452 1520.820 Q 1524.074 1520.961 1525.374 1518.486 Q 1524.866 1518.556 1524.187 1519.365 Q 1523.507 1520.174 1522.727 1520.843 Q 1521.947 1521.513 1520.854 1521.519 Q 1520.919 1521.724 1520.745 1521.119 Q 1520.385 1520.936 1520.241 1522.909 Q 1520.219 1522.953 1520.426 1522.976 Q 1520.633 1522.998 1521.210 1522.859 Q 1521.788 1522.719 1522.680 1522.597 Q 1523.572 1522.475 1524.215 1522.516 Q 1524.859 1522.556 1524.969 1522.663 Q 1525.079 1522.770 1525.121 1522.741 Q 1525.164 1522.712 1525.474 1523.359 "></path>
    <path id="STROKE_dd94176c-f746-4d23-8d2d-7e54ccaab8de" opacity="1.000" fill="none" stroke="#000000" stroke-width="0.883" stroke-opacity="1.000" stroke-linecap="round" stroke-linejoin="round" d="M 1524.568 1521.384 Q 1524.568 1521.437 1524.610 1521.717 Q 1524.744 1521.729 1525.315 1521.704 "></path>
    <path id="STROKE_e56af6a2-35d4-4651-a1b2-fd286e3cb35f" opacity="1.000" fill="none" stroke="#000000" stroke-width="0.883" stroke-opacity="1.000" stroke-linecap="round" stroke-linejoin="round" d="M 1529.235 1521.251 Q 1529.227 1521.232 1528.815 1522.881 "></path>
    <path id="STROKE_b54f9e8d-1adb-492e-8900-b3dab3d8783d" opacity="1.000" fill="none" stroke="#000000" stroke-width="0.817" stroke-opacity="1.000" stroke-linecap="round" stroke-linejoin="round" d="M 1520.648 1517.992 Q 1520.693 1518.243 1520.398 1519.874 Q 1520.103 1521.504 1518.970 1524.857 "></path>
    <path id="STROKE_b2c79aea-bcdd-4fde-beec-584bc9727fa4" opacity="1.000" fill="none" stroke="#000000" stroke-width="0.883" stroke-opacity="1.000" stroke-linecap="round" stroke-linejoin="round" d="M 1507.933 1527.235 Q 1507.890 1527.240 1509.267 1527.128 "></path>
    <path id="STROKE_35684f29-f0bb-42c4-82c7-4577decba804" opacity="1.000" fill="none" stroke="#000000" stroke-width="0.883" stroke-opacity="1.000" stroke-linecap="round" stroke-linejoin="round" d="M 1506.598 1529.531 Q 1506.228 1529.857 1507.546 1529.062 Q 1508.864 1528.267 1508.864 1528.254 "></path>
    <path id="STROKE_9cba9e52-bf77-42c4-aa85-fabe044fe3f6" opacity="1.000" fill="none" stroke="#000000" stroke-width="0.860" stroke-opacity="1.000" stroke-linecap="round" stroke-linejoin="round" d="M 1507.085 1529.349 Q 1506.733 1529.249 1506.493 1531.353 Q 1506.578 1531.551 1507.366 1531.514 Q 1508.155 1531.477 1510.996 1528.305 Q 1511.268 1528.416 1510.109 1529.770 Q 1508.950 1531.123 1508.001 1532.023 Q 1507.052 1532.924 1504.651 1533.753 Q 1504.563 1534.208 1511.374 1530.947 "></path>
    <path id="STROKE_aea799a6-81ce-4d86-af0b-bd6249f186eb" opacity="1.000" fill="none" stroke="#000000" stroke-width="0.883" stroke-opacity="1.000" stroke-linecap="round" stroke-linejoin="round" d="M 1507.698 1534.049 Q 1507.507 1534.267 1507.507 1535.180 Q 1507.508 1536.092 1507.575 1536.612 Q 1507.643 1537.131 1508.507 1537.377 Q 1508.612 1537.271 1508.726 1536.950 Q 1508.839 1536.629 1508.864 1536.509 "></path>
    <path id="STROKE_1a793547-e3b8-4951-ae48-40170429fc75" opacity="1.000" fill="none" stroke="#000000" stroke-width="0.883" stroke-opacity="1.000" stroke-linecap="round" stroke-linejoin="round" d="M 1509.477 1534.024 Q 1509.627 1533.857 1510.104 1534.019 Q 1510.581 1534.181 1510.785 1534.418 Q 1510.989 1534.655 1510.959 1534.675 Q 1510.928 1534.695 1511.009 1535.047 Q 1511.089 1535.400 1510.123 1536.163 "></path>
    <path id="STROKE_1b567fbc-166d-4280-b9d3-e01819382330" opacity="1.000" fill="none" stroke="#000000" stroke-width="0.883" stroke-opacity="1.000" stroke-linecap="round" stroke-linejoin="round" d="M 1508.898 1535.786 Q 1509.029 1535.627 1509.109 1535.533 Q 1509.189 1535.440 1509.252 1535.409 Q 1509.315 1535.378 1509.231 1535.336 Q 1509.146 1535.294 1510.547 1534.848 Q 1510.639 1535.354 1510.602 1535.358 Q 1510.671 1535.440 1510.290 1536.061 Q 1509.909 1536.682 1508.923 1537.094 Q 1508.912 1537.008 1508.949 1536.818 Q 1508.986 1536.629 1509.024 1536.534 "></path>
    <path id="STROKE_8d654eb8-0a59-45db-9b49-8856b1b0fbc9" opacity="1.000" fill="none" stroke="#000000" stroke-width="0.883" stroke-opacity="1.000" stroke-linecap="round" stroke-linejoin="round" d="M 1508.948 1537.151 Q 1508.828 1537.240 1507.654 1538.548 Q 1506.480 1539.856 1504.626 1540.756 Q 1504.649 1540.406 1504.988 1540.189 Q 1505.327 1539.972 1505.691 1539.830 Q 1506.055 1539.688 1506.375 1539.689 Q 1506.696 1539.689 1506.976 1539.691 Q 1507.256 1539.693 1507.877 1540.082 Q 1508.497 1540.470 1509.350 1540.696 Q 1510.203 1540.921 1510.648 1540.935 Q 1511.094 1540.949 1511.645 1540.868 Q 1512.196 1540.787 1512.620 1540.043 Q 1513.043 1539.300 1513.136 1538.353 "></path>
    <path id="STROKE_27911f8e-62ca-47d1-b79b-3bbc4d392f68" opacity="1.000" fill="none" stroke="#000000" stroke-width="0.883" stroke-opacity="1.000" stroke-linecap="round" stroke-linejoin="round" d="M 1510.199 1538.592 Q 1509.923 1539.033 1509.976 1538.906 Q 1510.030 1538.780 1509.947 1539.221 Q 1509.814 1539.357 1510.811 1539.045 "></path>
    <path id="STROKE_62af54f2-e140-4d78-b303-6b7a16ade209" opacity="1.000" fill="none" stroke="#000000" stroke-width="0.883" stroke-opacity="1.000" stroke-linecap="round" stroke-linejoin="round" d="M 1514.916 1537.547 Q 1515.012 1537.840 1515.230 1538.353 Q 1515.447 1538.867 1515.675 1539.167 Q 1515.902 1539.468 1516.072 1539.437 Q 1516.242 1539.406 1516.349 1539.410 Q 1516.456 1539.415 1516.569 1539.271 Q 1516.682 1539.127 1516.762 1539.020 "></path>
    <path id="STROKE_33bb46dd-06d4-4a99-868a-2ae94190f9ea" opacity="1.000" fill="none" stroke="#000000" stroke-width="0.827" stroke-opacity="1.000" stroke-linecap="round" stroke-linejoin="round" d="M 1518.785 1532.766 Q 1518.809 1533.133 1521.403 1531.862 Q 1523.997 1530.592 1524.064 1530.526 "></path>
    <path id="STROKE_13dc79ab-68fc-434f-86d0-330394ba1609" opacity="1.000" fill="none" stroke="#000000" stroke-width="0.883" stroke-opacity="1.000" stroke-linecap="round" stroke-linejoin="round" d="M 1521.588 1530.633 Q 1521.684 1529.821 1520.695 1534.427 L 1520.682 1534.427 Q 1520.301 1534.632 1521.935 1533.612 Q 1523.569 1532.593 1523.636 1532.552 "></path>
    <path id="STROKE_9cbe3f5b-7a3a-4ca7-bdcc-bb3e8450ad00" opacity="1.000" fill="none" stroke="#000000" stroke-width="0.708" stroke-opacity="1.000" stroke-linecap="round" stroke-linejoin="round" d="M 1521.588 1534.691 Q 1521.498 1534.913 1516.641 1538.617 Q 1516.628 1538.604 1516.628 1538.592 "></path>
    <path id="STROKE_de7bdc3b-4090-481a-8e5e-199e95b8d6d5" opacity="1.000" fill="none" stroke="#000000" stroke-width="0.883" stroke-opacity="1.000" stroke-linecap="round" stroke-linejoin="round" d="M 1519.482 1537.120 Q 1519.620 1537.264 1520.119 1537.927 Q 1520.618 1538.591 1521.443 1538.846 Q 1522.268 1539.101 1522.952 1538.933 Q 1523.635 1538.765 1523.917 1538.503 Q 1524.198 1538.242 1524.458 1537.916 Q 1524.719 1537.590 1524.862 1537.378 Q 1525.005 1537.165 1524.811 1536.377 "></path>
    <path id="STROKE_f0e849c2-7393-407f-91f3-817876153b35" opacity="1.000" fill="none" stroke="#000000" stroke-width="0.883" stroke-opacity="1.000" stroke-linecap="round" stroke-linejoin="round" d="M 1522.755 1536.773 Q 1523.145 1536.917 1523.800 1536.672 Q 1524.455 1536.427 1524.627 1536.320 "></path>
    <path id="STROKE_d514c8c2-a59a-4a2c-a876-5637276f0cbb" opacity="1.000" fill="none" stroke="#000000" stroke-width="0.883" stroke-opacity="1.000" stroke-linecap="round" stroke-linejoin="round" d="M 1527.665 1537.013 Q 1527.665 1537.094 1527.690 1537.377 Q 1527.621 1537.388 1528.009 1537.390 "></path>
    <path id="STROKE_a0052cc8-489e-402e-bfae-757dc0412953" opacity="1.000" fill="none" stroke="#000000" stroke-width="0.883" stroke-opacity="1.000" stroke-linecap="round" stroke-linejoin="round" d="M 1532.491 1528.223 Q 1532.968 1528.064 1533.464 1527.902 Q 1533.959 1527.739 1534.331 1527.737 Q 1534.703 1527.735 1534.912 1527.729 Q 1535.122 1527.722 1535.297 1528.102 Q 1535.471 1528.481 1535.422 1528.939 Q 1535.373 1529.397 1534.894 1530.048 Q 1534.415 1530.698 1532.114 1531.300 Q 1531.670 1531.320 1535.186 1529.959 "></path>
    <path id="STROKE_1d1da5cc-9d4f-44ee-8085-c97680709fb3" opacity="1.000" fill="none" stroke="#000000" stroke-width="0.705" stroke-opacity="1.000" stroke-linecap="round" stroke-linejoin="round" d="M 1531.954 1529.078 Q 1531.694 1529.261 1531.639 1531.432 Q 1531.584 1533.603 1529.235 1539.422 Q 1529.289 1539.407 1529.524 1539.131 Q 1529.759 1538.856 1529.906 1538.642 "></path>
    <path id="STROKE_a4d4f0b0-ee99-484a-a224-1f8b16b600f3" opacity="1.000" fill="none" stroke="#000000" stroke-width="0.880" stroke-opacity="1.000" stroke-linecap="round" stroke-linejoin="round" d="M 1534.304 1532.073 Q 1534.460 1532.003 1532.382 1535.119 Q 1532.255 1534.948 1532.661 1534.356 Q 1533.067 1533.764 1533.450 1533.479 Q 1533.834 1533.195 1534.394 1533.074 Q 1534.954 1532.953 1535.352 1533.008 Q 1535.749 1533.064 1535.822 1533.185 Q 1535.895 1533.307 1535.918 1533.448 Q 1535.940 1533.589 1535.921 1533.787 Q 1535.902 1533.985 1535.864 1534.004 Q 1535.827 1534.022 1535.853 1533.993 Q 1535.879 1533.964 1535.834 1534.078 Q 1535.789 1534.192 1535.296 1534.380 Q 1534.804 1534.569 1534.231 1534.819 Q 1533.659 1535.070 1533.410 1535.260 Q 1533.161 1535.451 1532.651 1536.188 Q 1532.713 1536.384 1535.013 1534.049 Q 1535.203 1533.992 1534.864 1534.976 Q 1534.525 1535.959 1534.084 1536.607 Q 1533.644 1537.255 1533.309 1537.442 Q 1532.974 1537.630 1532.845 1537.656 Q 1532.717 1537.682 1532.628 1537.670 Q 1532.538 1537.658 1532.234 1537.458 Q 1531.929 1537.258 1531.956 1537.264 Q 1531.983 1537.271 1531.814 1537.140 Q 1531.645 1537.009 1531.690 1537.051 Q 1531.735 1537.094 1531.761 1537.067 Q 1531.787 1537.041 1531.488 1537.123 Q 1531.476 1537.176 1531.476 1537.283 Q 1531.741 1537.500 1532.886 1536.603 Q 1534.031 1535.707 1534.741 1535.304 Q 1535.450 1534.902 1536.035 1534.777 Q 1536.619 1534.653 1536.735 1534.820 Q 1536.850 1534.988 1536.949 1535.726 Q 1537.047 1536.465 1536.760 1537.085 Q 1536.474 1537.704 1535.853 1538.082 Q 1535.756 1538.016 1535.689 1537.816 Q 1535.622 1537.617 1535.580 1537.497 "></path>
    <path id="STROKE_b016637c-5407-49b3-bd50-de62cde4d184" opacity="1.000" fill="none" stroke="#000000" stroke-width="0.844" stroke-opacity="1.000" stroke-linecap="round" stroke-linejoin="round" d="M 1534.094 1533.193 Q 1534.323 1533.174 1532.894 1537.629 Q 1532.979 1537.502 1533.854 1537.068 Q 1534.729 1536.635 1536.105 1536.427 Q 1536.109 1536.587 1536.117 1536.081 "></path>
    <path id="STROKE_861d6f1a-957d-4193-a3c0-639560bd7690" opacity="1.000" fill="none" stroke="#000000" stroke-width="0.883" stroke-opacity="1.000" stroke-linecap="round" stroke-linejoin="round" d="M 1535.639 1536.081 Q 1535.566 1536.475 1535.567 1536.456 Q 1535.459 1536.999 1535.479 1536.852 Q 1535.509 1536.894 1535.387 1536.975 Q 1535.265 1537.057 1535.211 1537.069 "></path>
    <path id="STROKE_bb2b9dc7-7667-44f4-b65e-62ed908454a5" opacity="1.000" fill="none" stroke="#000000" stroke-width="0.883" stroke-opacity="1.000" stroke-linecap="round" stroke-linejoin="round" d="M 1532.147 1537.013 Q 1531.942 1537.337 1532.035 1537.987 Q 1532.128 1538.636 1532.165 1539.047 Q 1532.201 1539.457 1533.104 1539.498 "></path>
    <path id="STROKE_f8cf75c1-892f-4c02-a0d7-a7e1e4722cf6" opacity="1.000" fill="none" stroke="#000000" stroke-width="0.883" stroke-opacity="1.000" stroke-linecap="round" stroke-linejoin="round" d="M 1539.583 1531.161 Q 1539.584 1531.134 1539.619 1531.593 Q 1539.654 1532.052 1539.693 1532.798 Q 1539.733 1533.543 1539.724 1533.891 Q 1539.716 1534.238 1539.705 1534.609 L 1539.693 1534.609 "></path>
    <path id="STROKE_5a9f3683-7cf9-4d1a-8513-a4b97e3464a6" opacity="1.000" fill="none" stroke="#000000" stroke-width="0.853" stroke-opacity="1.000" stroke-linecap="round" stroke-linejoin="round" d="M 1540.968 1528.386 Q 1541.113 1528.682 1541.224 1530.983 Q 1541.335 1533.284 1541.300 1537.044 Q 1541.428 1536.837 1541.521 1535.652 Q 1541.613 1534.467 1541.709 1533.830 Q 1541.806 1533.193 1542.103 1532.856 Q 1542.400 1532.520 1542.911 1532.282 Q 1543.423 1532.044 1543.671 1531.750 Q 1543.920 1531.455 1544.052 1531.211 Q 1544.185 1530.966 1544.229 1530.846 Q 1544.273 1530.725 1544.280 1530.734 Q 1544.287 1530.743 1544.485 1529.934 Q 1544.508 1529.964 1544.143 1531.359 Q 1543.778 1532.754 1543.504 1533.667 Q 1543.230 1534.580 1542.916 1535.547 Q 1542.764 1535.626 1543.506 1534.475 Q 1544.248 1533.324 1544.773 1532.693 Q 1545.299 1532.062 1545.822 1531.763 Q 1546.345 1531.464 1547.368 1531.765 Q 1547.321 1531.608 1547.444 1532.157 Q 1547.567 1532.707 1546.501 1533.638 Q 1545.436 1534.569 1544.250 1535.547 Q 1544.637 1535.479 1545.363 1534.812 Q 1546.088 1534.143 1546.197 1534.024 "></path>
    <path id="STROKE_eb2b4408-f1da-4957-ae61-589e88285f5c" opacity="1.000" fill="none" stroke="#000000" stroke-width="0.883" stroke-opacity="1.000" stroke-linecap="round" stroke-linejoin="round" d="M 1545.610 1530.708 Q 1545.556 1531.030 1545.586 1532.251 Q 1545.617 1533.473 1545.630 1534.272 Q 1545.643 1535.072 1545.527 1535.523 Q 1545.411 1535.974 1545.284 1536.224 Q 1545.157 1536.475 1544.878 1536.611 Q 1544.600 1536.747 1543.260 1537.333 Q 1543.279 1537.502 1544.784 1536.794 Q 1546.289 1536.087 1550.730 1536.000 "></path>
    <path id="STROKE_b4c3d9ca-8f5a-4ce6-8143-5361529ad8d7" opacity="1.000" fill="none" stroke="#000000" stroke-width="0.704" stroke-opacity="1.000" stroke-linecap="round" stroke-linejoin="round" d="M 1551.712 1528.279 Q 1551.332 1528.398 1552.078 1531.170 Q 1552.824 1533.942 1552.837 1533.942 "></path>
    <path id="STROKE_3867cee5-de69-4415-9220-b62521299d32" opacity="1.000" fill="none" stroke="#000000" stroke-width="0.883" stroke-opacity="1.000" stroke-linecap="round" stroke-linejoin="round" d="M 1552.064 1527.826 Q 1552.307 1527.587 1552.698 1527.486 Q 1553.089 1527.385 1553.257 1527.380 Q 1553.425 1527.376 1553.383 1527.385 Q 1553.341 1527.394 1553.570 1527.447 Q 1553.799 1527.500 1554.155 1528.363 Q 1554.511 1529.227 1554.171 1530.362 "></path>
    <path id="STROKE_d8f086fc-e752-4a4e-ab48-d9d973085c75" opacity="1.000" fill="none" stroke="#000000" stroke-width="0.828" stroke-opacity="1.000" stroke-linecap="round" stroke-linejoin="round" d="M 1553.156 1530.041 Q 1553.539 1529.860 1553.516 1529.881 Q 1554.005 1529.719 1553.873 1529.777 Q 1553.970 1529.777 1554.112 1529.777 Q 1554.854 1530.252 1552.778 1532.608 Q 1553.046 1531.865 1553.512 1531.206 Q 1553.979 1530.546 1554.794 1530.568 Q 1555.610 1530.589 1556.510 1530.443 Q 1557.409 1530.296 1558.242 1529.767 Q 1559.074 1529.237 1559.323 1528.885 Q 1559.572 1528.532 1559.713 1528.277 Q 1559.854 1528.023 1557.260 1524.699 Q 1557.318 1524.358 1557.394 1534.678 Q 1556.957 1535.019 1556.316 1531.979 Q 1556.948 1531.870 1556.752 1531.897 L 1556.807 1531.885 "></path>
    <path id="STROKE_432d5bef-58bd-494c-9513-e9d5bb089e76" opacity="1.000" fill="none" stroke="#000000" stroke-width="0.883" stroke-opacity="1.000" stroke-linecap="round" stroke-linejoin="round" d="M 1584.035 1567.774 Q 1584.782 1567.864 1584.752 1567.775 Q 1584.722 1567.686 1586.184 1567.889 Q 1587.646 1568.093 1589.298 1568.642 Q 1590.950 1569.192 1592.635 1570.182 Q 1594.320 1571.172 1595.872 1572.546 Q 1597.424 1573.920 1598.198 1574.705 Q 1598.972 1575.490 1599.802 1576.198 Q 1600.632 1576.905 1601.220 1577.655 Q 1601.808 1578.405 1601.821 1579.565 Q 1601.860 1579.620 1601.507 1579.656 Q 1601.154 1579.692 1600.747 1579.159 "></path>
    <path id="STROKE_fc4372eb-8f5e-440f-8f19-a0fa630b57ea" opacity="1.000" fill="none" stroke="#000000" stroke-width="0.883" stroke-opacity="1.000" stroke-linecap="round" stroke-linejoin="round" d="M 1598.745 1578.627 Q 1598.376 1578.825 1601.479 1579.463 Q 1601.468 1579.341 1601.493 1579.457 Q 1601.518 1579.573 1601.366 1578.981 Q 1601.213 1578.389 1601.138 1577.839 Q 1601.062 1577.289 1600.998 1576.400 Q 1600.934 1575.511 1600.916 1573.986 "></path>
    <path id="STROKE_897f154b-3590-4b52-adc0-0a936c9f5247" opacity="1.000" fill="none" stroke="#000000" stroke-width="0.883" stroke-opacity="1.000" stroke-linecap="round" stroke-linejoin="round" d="M 1598.275 1578.346 Q 1598.139 1578.791 1602.434 1579.439 "></path>
    <path id="STROKE_e58b1342-99cc-40af-91c4-77a32d209e4c" opacity="1.000" fill="none" stroke="#000000" stroke-width="0.883" stroke-opacity="1.000" stroke-linecap="round" stroke-linejoin="round" d="M 1612.122 1579.057 Q 1612.122 1579.045 1612.122 1579.033 L 1612.134 1579.033 Q 1612.108 1580.116 1612.207 1580.040 Q 1612.305 1579.965 1611.949 1581.120 Q 1611.594 1582.275 1609.519 1584.484 Q 1609.615 1584.385 1609.677 1584.334 Q 1609.519 1584.484 1609.457 1584.534 "></path>
    <path id="STROKE_37653ddb-d80c-4e6a-b59f-eac84c9b6fa5" opacity="1.000" fill="none" stroke="#000000" stroke-width="0.883" stroke-opacity="1.000" stroke-linecap="round" stroke-linejoin="round" d="M 1611.391 1581.978 Q 1611.461 1581.920 1611.651 1581.805 Q 1611.842 1581.691 1611.843 1581.722 Q 1611.844 1581.752 1611.814 1581.719 Q 1611.784 1581.686 1612.742 1581.655 Q 1613.700 1581.624 1614.507 1581.756 Q 1615.314 1581.888 1615.326 1581.900 "></path>
    <path id="STROKE_ac441400-533d-4b0c-9eda-19711dfdefaf" opacity="1.000" fill="none" stroke="#000000" stroke-width="0.845" stroke-opacity="1.000" stroke-linecap="round" stroke-linejoin="round" d="M 1610.189 1584.361 Q 1610.123 1584.239 1613.025 1583.994 Q 1615.927 1583.749 1615.988 1583.698 "></path>
    <path id="STROKE_b9db6bc4-cabc-4274-9410-295a0178f30e" opacity="1.000" fill="none" stroke="#000000" stroke-width="0.838" stroke-opacity="1.000" stroke-linecap="round" stroke-linejoin="round" d="M 1614.302 1579.159 Q 1614.290 1579.147 1614.213 1579.111 Q 1614.059 1579.403 1613.855 1581.916 Q 1613.651 1584.429 1613.064 1586.100 Q 1612.476 1587.772 1612.392 1587.885 "></path>
    <path id="STROKE_ba28381d-c0c2-4d59-a7cd-bb46f034fbfe" opacity="1.000" fill="none" stroke="#000000" stroke-width="0.764" stroke-opacity="1.000" stroke-linecap="round" stroke-linejoin="round" d="M 1610.289 1587.073 Q 1610.606 1586.656 1614.614 1586.776 Q 1618.622 1586.897 1618.684 1586.924 "></path>
    <path id="STROKE_881b2100-a9ae-46a6-9dc0-d41fcfbc37e7" opacity="1.000" fill="none" stroke="#000000" stroke-width="0.883" stroke-opacity="1.000" stroke-linecap="round" stroke-linejoin="round" d="M 1557.642 1565.689 Q 1557.783 1565.605 1553.845 1567.786 L 1553.845 1567.798 Q 1553.990 1567.798 1554.156 1567.778 Q 1554.323 1567.759 1554.407 1567.720 "></path>
    <path id="STROKE_8ca9d1b3-2b98-4816-a96d-f6902c87ebd4" opacity="1.000" fill="none" stroke="#000000" stroke-width="0.883" stroke-opacity="1.000" stroke-linecap="round" stroke-linejoin="round" d="M 1557.149 1566.579 Q 1557.604 1566.751 1557.492 1566.782 Q 1557.806 1567.421 1557.711 1567.266 Q 1557.980 1567.803 1557.688 1568.689 Q 1557.396 1569.575 1557.372 1569.625 "></path>
    <path id="STROKE_fef88684-7004-47ab-8f12-da5eb6baa171" opacity="1.000" fill="none" stroke="#000000" stroke-width="0.883" stroke-opacity="1.000" stroke-linecap="round" stroke-linejoin="round" d="M 1557.080 1567.493 Q 1556.953 1567.707 1555.106 1568.518 Q 1553.258 1569.328 1551.530 1570.337 Q 1549.802 1571.347 1548.592 1572.365 Q 1547.381 1573.382 1546.712 1574.014 Q 1546.044 1574.645 1545.502 1575.440 Q 1544.960 1576.234 1544.731 1576.744 Q 1544.501 1577.255 1544.294 1577.685 Q 1544.088 1578.115 1543.589 1579.670 Q 1543.091 1581.224 1543.233 1583.268 "></path>
    <path id="STROKE_ee073661-5625-4365-903c-d35a4e3a0304" opacity="1.000" fill="none" stroke="#000000" stroke-width="0.883" stroke-opacity="1.000" stroke-linecap="round" stroke-linejoin="round" d="M 1575.717 1573.657 Q 1575.814 1573.490 1577.238 1575.768 Q 1578.662 1578.045 1579.629 1580.047 Q 1580.596 1582.048 1581.485 1583.721 Q 1582.374 1585.394 1583.216 1586.564 Q 1584.057 1587.733 1585.066 1589.402 Q 1586.075 1591.072 1586.663 1591.956 Q 1587.252 1592.840 1588.023 1593.905 Q 1588.794 1594.970 1589.350 1595.983 Q 1589.905 1596.995 1590.219 1597.685 Q 1590.533 1598.374 1591.593 1600.105 Q 1592.652 1601.835 1593.315 1602.771 Q 1593.978 1603.707 1594.814 1604.917 Q 1595.650 1606.127 1596.098 1606.842 Q 1596.547 1607.557 1596.719 1607.879 Q 1596.891 1608.201 1596.852 1608.152 Q 1596.813 1608.102 1596.819 1608.112 Q 1596.826 1608.123 1596.825 1608.126 Q 1596.824 1608.130 1596.855 1608.152 Q 1596.885 1608.173 1597.104 1608.369 Q 1597.324 1608.565 1597.304 1608.537 Q 1597.285 1608.509 1597.266 1608.514 Q 1597.247 1608.519 1597.397 1608.535 Q 1597.341 1608.535 1596.858 1608.403 "></path>
    <path id="STROKE_8a10b90c-25cb-4080-af7b-b8306a915d23" opacity="1.000" fill="none" stroke="#000000" stroke-width="0.883" stroke-opacity="1.000" stroke-linecap="round" stroke-linejoin="round" d="M 1594.463 1607.292 Q 1594.581 1607.406 1595.205 1607.888 Q 1595.829 1608.369 1596.215 1608.661 Q 1596.601 1608.953 1596.964 1608.979 Q 1597.326 1609.004 1597.528 1608.969 Q 1597.730 1608.934 1597.716 1608.943 Q 1597.701 1608.953 1597.751 1608.814 Q 1597.800 1608.675 1597.826 1608.523 Q 1597.852 1608.371 1597.832 1608.391 Q 1597.812 1608.410 1597.886 1608.364 Q 1597.960 1608.317 1597.446 1607.406 Q 1596.932 1606.496 1596.781 1604.550 "></path>
    <path id="STROKE_0b16853a-3ec2-4377-839e-56f1ed3c4318" opacity="1.000" fill="none" stroke="#000000" stroke-width="0.867" stroke-opacity="1.000" stroke-linecap="round" stroke-linejoin="round" d="M 1601.679 1615.434 Q 1601.738 1615.667 1604.038 1615.029 Q 1606.338 1614.391 1606.423 1614.364 "></path>
    <path id="STROKE_af2fe84e-5f71-4099-a725-67b4ed43ee5c" opacity="1.000" fill="none" stroke="#000000" stroke-width="0.883" stroke-opacity="1.000" stroke-linecap="round" stroke-linejoin="round" d="M 1604.682 1612.817 Q 1604.488 1612.783 1603.704 1616.646 "></path>
    <path id="STROKE_84e98356-9735-475a-869d-4ab2e99cdd04" opacity="1.000" fill="none" stroke="#000000" stroke-width="0.883" stroke-opacity="1.000" stroke-linecap="round" stroke-linejoin="round" d="M 1602.780 1617.052 Q 1602.601 1617.297 1602.359 1618.818 Q 1602.116 1620.339 1602.619 1622.177 Q 1602.832 1622.035 1602.888 1621.237 Q 1602.943 1620.440 1603.250 1619.807 Q 1603.557 1619.174 1603.850 1618.720 Q 1604.144 1618.265 1606.681 1618.119 Q 1606.681 1618.649 1606.642 1618.575 Q 1606.614 1618.667 1605.623 1619.709 Q 1604.632 1620.750 1602.164 1621.699 Q 1602.623 1621.544 1602.412 1621.553 Q 1602.200 1621.562 1606.084 1620.099 Q 1605.623 1619.876 1601.455 1625.224 Q 1602.069 1624.536 1601.969 1624.672 Q 1601.869 1624.807 1605.006 1621.216 Q 1604.853 1621.578 1604.571 1622.392 Q 1604.289 1623.205 1604.325 1623.655 Q 1604.361 1624.105 1604.335 1624.314 Q 1604.309 1624.523 1604.826 1624.829 Q 1605.343 1625.134 1606.981 1624.758 Q 1608.618 1624.381 1610.066 1623.551 Q 1609.751 1623.482 1609.777 1623.485 Q 1609.402 1623.398 1609.469 1623.384 Q 1609.216 1623.219 1609.109 1622.686 Q 1609.003 1622.153 1608.964 1621.974 "></path>
    <path id="STROKE_47daa1d1-db51-437b-99ac-b33b6f47ccdc" opacity="1.000" fill="none" stroke="#000000" stroke-width="0.776" stroke-opacity="1.000" stroke-linecap="round" stroke-linejoin="round" d="M 1567.646 1572.540 Q 1567.187 1572.770 1564.050 1578.752 Q 1564.653 1578.322 1564.567 1578.468 Q 1564.481 1578.615 1566.884 1575.204 "></path>
    <path id="STROKE_9ed98c2b-c933-4280-bc1d-66c85fcb08d7" opacity="1.000" fill="none" stroke="#000000" stroke-width="0.883" stroke-opacity="1.000" stroke-linecap="round" stroke-linejoin="round" d="M 1568.085 1572.922 Q 1567.850 1572.728 1567.781 1576.787 Q 1567.804 1576.799 1567.827 1576.799 Q 1567.850 1576.799 1567.862 1576.799 "></path>
    <path id="STROKE_b70282ab-1ebe-4324-af20-4356fcfa1cd3" opacity="1.000" fill="none" stroke="#000000" stroke-width="0.738" stroke-opacity="1.000" stroke-linecap="round" stroke-linejoin="round" d="M 1567.715 1574.165 Q 1567.376 1574.514 1567.411 1574.487 Q 1567.447 1574.459 1567.198 1575.085 Q 1566.948 1575.711 1566.791 1576.552 Q 1566.633 1577.394 1565.302 1581.462 Q 1563.972 1585.531 1563.078 1588.401 Q 1562.184 1591.270 1561.722 1593.256 Q 1561.260 1595.241 1560.460 1598.739 Q 1559.661 1602.236 1559.279 1603.922 Q 1558.898 1605.608 1558.584 1606.473 Q 1558.270 1607.339 1558.144 1607.735 Q 1558.018 1608.132 1557.811 1609.347 Q 1557.806 1609.365 1557.835 1608.606 "></path>
    <path id="STROKE_860a372b-6689-4c26-841f-970a69c0adc4" opacity="1.000" fill="none" stroke="#000000" stroke-width="0.857" stroke-opacity="1.000" stroke-linecap="round" stroke-linejoin="round" d="M 1551.789 1612.817 Q 1551.541 1612.744 1552.073 1612.893 Q 1552.605 1613.041 1552.854 1613.135 Q 1553.103 1613.229 1553.168 1613.350 Q 1553.233 1613.472 1553.191 1613.766 Q 1553.148 1614.059 1553.089 1614.098 Q 1553.029 1614.136 1553.047 1614.098 Q 1553.064 1614.060 1552.866 1614.409 Q 1552.667 1614.757 1551.304 1615.356 Q 1551.245 1614.916 1552.817 1614.672 Q 1552.927 1614.654 1552.958 1615.795 Q 1552.989 1616.937 1550.595 1620.122 Q 1550.598 1619.935 1551.005 1619.376 Q 1551.411 1618.817 1551.596 1618.575 "></path>
    <path id="STROKE_9f34ee14-f9e6-4377-a17b-962110ed56b9" opacity="1.000" fill="none" stroke="#000000" stroke-width="0.883" stroke-opacity="1.000" stroke-linecap="round" stroke-linejoin="round" d="M 1555.801 1615.434 Q 1555.775 1615.546 1553.453 1617.321 Q 1553.445 1617.284 1553.536 1617.479 Q 1553.628 1617.675 1553.665 1617.681 Q 1553.702 1617.688 1554.261 1617.877 Q 1554.819 1618.065 1555.118 1617.650 Q 1555.416 1617.234 1555.416 1617.184 "></path>
    <path id="STROKE_d8b32138-54dd-40f2-b90c-5712a4f6ca8a" opacity="1.000" fill="none" stroke="#000000" stroke-width="0.883" stroke-opacity="1.000" stroke-linecap="round" stroke-linejoin="round" d="M 1552.767 1617.255 Q 1552.777 1617.375 1552.755 1620.911 Q 1552.953 1620.947 1553.009 1620.941 Q 1553.064 1620.935 1553.114 1620.935 "></path>
    <path id="STROKE_b03de5d0-58e9-4c9a-981f-85a3b023aaf6" opacity="1.000" fill="none" stroke="#000000" stroke-width="0.883" stroke-opacity="1.000" stroke-linecap="round" stroke-linejoin="round" d="M 1556.957 1615.356 Q 1556.760 1615.412 1557.548 1615.141 Q 1558.336 1614.870 1558.713 1614.831 Q 1559.090 1614.792 1559.227 1614.800 Q 1559.363 1614.809 1559.543 1615.069 Q 1559.723 1615.329 1559.708 1615.350 Q 1559.693 1615.371 1559.708 1615.458 Q 1559.722 1615.544 1559.710 1615.587 Q 1559.699 1615.630 1559.772 1615.796 Q 1559.846 1615.962 1559.182 1616.903 "></path>
    <path id="STROKE_bcacf78e-0215-438a-9407-ba043423402b" opacity="1.000" fill="none" stroke="#000000" stroke-width="0.883" stroke-opacity="1.000" stroke-linecap="round" stroke-linejoin="round" d="M 1556.048 1616.294 Q 1556.061 1616.337 1555.732 1620.553 "></path>
    <path id="STROKE_162837f7-3584-4ba4-bf27-132f5a320a3a" opacity="1.000" fill="none" stroke="#000000" stroke-width="0.809" stroke-opacity="1.000" stroke-linecap="round" stroke-linejoin="round" d="M 1558.743 1611.903 Q 1558.730 1611.951 1557.565 1618.629 "></path>
    <path id="STROKE_e43ea2df-2f8a-4799-a2d6-e33f97335fde" opacity="1.000" fill="none" stroke="#000000" stroke-width="0.883" stroke-opacity="1.000" stroke-linecap="round" stroke-linejoin="round" d="M 1557.272 1617.208 Q 1557.392 1617.198 1557.853 1617.123 Q 1558.314 1617.048 1558.606 1617.109 Q 1558.898 1617.169 1559.032 1617.485 Q 1559.167 1617.801 1559.047 1618.365 Q 1558.928 1618.928 1558.646 1619.204 Q 1558.364 1619.479 1557.755 1619.844 Q 1557.147 1620.208 1556.294 1620.224 "></path>
    <path id="STROKE_d9b19f7b-11b2-460c-b0f3-2dc1c12966d5" opacity="1.000" fill="none" stroke="#000000" stroke-width="0.883" stroke-opacity="1.000" stroke-linecap="round" stroke-linejoin="round" d="M 1557.080 1618.653 Q 1557.051 1618.601 1557.266 1618.781 Q 1557.481 1618.960 1558.447 1619.570 Q 1559.412 1620.180 1560.154 1620.461 Q 1560.895 1620.742 1561.285 1620.692 Q 1561.674 1620.642 1561.724 1620.630 "></path>
    <path id="STROKE_e97d7d94-7954-4264-8fa5-b645df4ed9c1" opacity="1.000" fill="none" stroke="#000000" stroke-width="0.775" stroke-opacity="1.000" stroke-linecap="round" stroke-linejoin="round" d="M 1564.389 1615.027 Q 1564.498 1614.814 1566.611 1614.431 Q 1568.724 1614.048 1568.724 1614.060 "></path>
    <path id="STROKE_b36de86d-d7b0-4b53-b212-c1a081e075fd" opacity="1.000" fill="none" stroke="#000000" stroke-width="0.883" stroke-opacity="1.000" stroke-linecap="round" stroke-linejoin="round" d="M 1566.814 1613.020 Q 1566.880 1612.853 1566.645 1613.788 Q 1566.410 1614.723 1566.352 1614.824 "></path>
    <path id="STROKE_83c44ea2-c583-470b-afc1-6961b7b0c3a6" opacity="1.000" fill="none" stroke="#000000" stroke-width="0.883" stroke-opacity="1.000" stroke-linecap="round" stroke-linejoin="round" d="M 1564.781 1617.793 Q 1564.669 1618.176 1564.712 1618.095 Q 1564.712 1618.133 1564.712 1618.145 Q 1564.864 1618.079 1564.835 1618.157 Q 1564.807 1618.236 1564.961 1617.864 Q 1565.115 1617.492 1565.144 1617.252 Q 1565.174 1617.012 1565.389 1616.609 Q 1565.603 1616.206 1566.037 1615.935 Q 1566.472 1615.665 1566.841 1615.649 Q 1567.210 1615.633 1567.468 1615.723 Q 1567.725 1615.813 1567.907 1616.296 Q 1568.089 1616.780 1567.706 1617.236 Q 1567.324 1617.692 1564.735 1618.438 L 1564.735 1618.450 Q 1565.176 1618.647 1568.108 1617.255 "></path>
    <path id="STROKE_3ac3b5ae-7144-449b-ba56-6879a917b36a" opacity="1.000" fill="none" stroke="#000000" stroke-width="0.818" stroke-opacity="1.000" stroke-linecap="round" stroke-linejoin="round" d="M 1566.938 1618.247 Q 1566.640 1618.178 1564.365 1621.216 Q 1564.365 1621.204 1564.550 1620.974 Q 1564.735 1620.744 1564.835 1620.630 "></path>
    <path id="STROKE_32678522-53eb-44cd-a59d-dce8024bb977" opacity="1.000" fill="none" stroke="#000000" stroke-width="0.883" stroke-opacity="1.000" stroke-linecap="round" stroke-linejoin="round" d="M 1566.938 1618.677 Q 1566.924 1618.854 1566.884 1619.398 Q 1566.843 1619.942 1567.058 1620.377 Q 1567.272 1620.813 1567.673 1621.020 Q 1568.073 1621.227 1568.568 1621.292 Q 1569.064 1621.357 1569.536 1621.194 Q 1570.007 1621.031 1570.192 1620.898 Q 1570.378 1620.766 1570.466 1620.556 Q 1570.555 1620.347 1570.545 1620.345 Q 1570.535 1620.343 1570.545 1620.274 Q 1570.555 1620.205 1570.555 1620.028 Q 1570.556 1619.852 1570.564 1619.679 Q 1570.573 1619.507 1570.546 1619.389 Q 1570.519 1619.272 1570.399 1619.151 Q 1570.279 1619.030 1570.298 1619.052 Q 1570.316 1619.074 1570.065 1618.856 "></path>
    <path id="STROKE_7f777f73-bb38-4f1d-865a-06dd56d834ca" opacity="1.000" fill="none" stroke="#000000" stroke-width="0.883" stroke-opacity="1.000" stroke-linecap="round" stroke-linejoin="round" d="M 1566.083 1613.403 Q 1565.985 1613.542 1565.613 1616.551 "></path>
    <path id="STROKE_2fc0bfb9-73db-44e4-982f-fff5a5d060a6" opacity="1.000" fill="none" stroke="#000000" stroke-width="0.883" stroke-opacity="1.000" stroke-linecap="round" stroke-linejoin="round" d="M 1566.814 1613.146 Q 1566.803 1613.274 1566.714 1615.661 "></path>
    <path id="STROKE_6207fdda-36f5-4255-988f-0aa5146ba3d0" opacity="1.000" fill="none" stroke="#000000" stroke-width="0.883" stroke-opacity="1.000" stroke-linecap="round" stroke-linejoin="round" d="M 1528.546 1585.681 Q 1528.726 1585.443 1529.281 1585.877 Q 1529.836 1586.311 1529.848 1586.362 "></path>
    <path id="STROKE_6c6a1a03-7e6f-4d1a-b54a-d9e419dd308b" opacity="1.000" fill="none" stroke="#000000" stroke-width="0.883" stroke-opacity="1.000" stroke-linecap="round" stroke-linejoin="round" d="M 1528.161 1587.634 Q 1528.115 1587.612 1528.453 1587.702 Q 1528.791 1587.793 1528.754 1587.837 Q 1528.717 1587.882 1528.723 1588.035 Q 1528.729 1588.189 1528.800 1588.499 Q 1528.871 1588.809 1526.713 1591.768 Q 1526.740 1591.729 1526.869 1591.589 Q 1526.998 1591.448 1527.083 1591.362 "></path>
    <path id="STROKE_c563f61e-d501-4d2e-9793-6c082f45a551" opacity="1.000" fill="none" stroke="#000000" stroke-width="0.883" stroke-opacity="1.000" stroke-linecap="round" stroke-linejoin="round" d="M 1529.917 1588.572 Q 1529.874 1588.633 1528.230 1590.066 Q 1528.773 1590.060 1528.661 1590.054 Q 1528.913 1589.970 1530.467 1590.003 Q 1530.479 1590.030 1530.467 1590.066 L 1530.456 1590.066 "></path>
    <path id="STROKE_1e9407de-13d7-4c60-ab07-6e47806ed628" opacity="1.000" fill="none" stroke="#000000" stroke-width="0.883" stroke-opacity="1.000" stroke-linecap="round" stroke-linejoin="round" d="M 1528.669 1589.683 Q 1528.657 1589.543 1528.501 1591.328 Q 1528.345 1593.112 1528.330 1595.026 Q 1528.427 1595.041 1528.500 1595.041 Q 1528.573 1595.041 1528.646 1595.041 "></path>
    <path id="STROKE_aac2d0ff-8807-4bab-97e8-7136ca83308d" opacity="1.000" fill="none" stroke="#000000" stroke-width="0.883" stroke-opacity="1.000" stroke-linecap="round" stroke-linejoin="round" d="M 1531.681 1588.268 Q 1531.832 1588.119 1532.324 1588.213 Q 1532.816 1588.307 1533.109 1588.447 Q 1533.401 1588.588 1533.537 1588.573 Q 1533.672 1588.559 1533.859 1588.707 Q 1534.047 1588.854 1533.912 1589.232 Q 1533.778 1589.610 1533.606 1589.803 Q 1533.434 1589.996 1533.172 1590.336 Q 1532.909 1590.676 1532.491 1590.929 Q 1532.073 1591.182 1532.050 1591.182 "></path>
    <path id="STROKE_f698c14e-2e15-43de-9026-a3f6f3f63b10" opacity="1.000" fill="none" stroke="#000000" stroke-width="0.883" stroke-opacity="1.000" stroke-linecap="round" stroke-linejoin="round" d="M 1530.333 1589.128 Q 1530.451 1589.586 1530.265 1592.198 Q 1530.078 1594.811 1530.063 1594.862 "></path>
    <path id="STROKE_0e224e4f-92c2-4e07-b899-ecfa8a4e72e0" opacity="1.000" fill="none" stroke="#000000" stroke-width="0.883" stroke-opacity="1.000" stroke-linecap="round" stroke-linejoin="round" d="M 1531.557 1584.158 Q 1531.598 1584.550 1531.487 1587.694 Q 1531.376 1590.839 1531.365 1590.979 "></path>
    <path id="STROKE_bf708365-2932-4f3c-9cfa-52f2522cdaae" opacity="1.000" fill="none" stroke="#000000" stroke-width="0.883" stroke-opacity="1.000" stroke-linecap="round" stroke-linejoin="round" d="M 1531.388 1590.979 Q 1531.432 1590.918 1531.813 1590.966 Q 1532.194 1591.015 1532.534 1591.059 Q 1532.873 1591.103 1533.001 1591.478 Q 1533.129 1591.853 1533.094 1592.183 Q 1533.060 1592.513 1532.991 1592.695 Q 1532.923 1592.877 1532.351 1593.427 Q 1531.778 1593.978 1530.802 1593.972 "></path>
    <path id="STROKE_c985985f-688a-4ccc-bffd-2937061ef5f4" opacity="1.000" fill="none" stroke="#000000" stroke-width="0.883" stroke-opacity="1.000" stroke-linecap="round" stroke-linejoin="round" d="M 1530.779 1591.284 Q 1530.632 1591.017 1530.934 1591.461 Q 1531.236 1591.906 1531.633 1592.368 Q 1532.030 1592.830 1532.876 1593.259 Q 1533.723 1593.688 1534.938 1593.667 "></path>
    <path id="STROKE_cf438d76-d492-421a-a007-b0aab8d329e3" opacity="1.000" fill="none" stroke="#000000" stroke-width="0.883" stroke-opacity="1.000" stroke-linecap="round" stroke-linejoin="round" d="M 1538.335 1585.932 Q 1538.331 1586.030 1537.041 1589.988 "></path>
    <path id="STROKE_c809ff33-42b9-4f76-9c52-906b9d342069" opacity="1.000" fill="none" stroke="#000000" stroke-width="0.883" stroke-opacity="1.000" stroke-linecap="round" stroke-linejoin="round" d="M 1538.311 1588.847 Q 1538.353 1588.777 1538.651 1588.492 Q 1538.948 1588.207 1539.739 1588.073 Q 1540.529 1587.939 1541.538 1588.011 "></path>
    <path id="STROKE_fb3063df-167e-41bc-b9e6-d657a91364fc" opacity="1.000" fill="none" stroke="#000000" stroke-width="0.883" stroke-opacity="1.000" stroke-linecap="round" stroke-linejoin="round" d="M 1538.211 1590.776 Q 1538.440 1590.662 1539.752 1590.447 Q 1541.065 1590.233 1541.076 1590.221 "></path>
    <path id="STROKE_ab730fad-1d09-4594-b5fa-6bb19ad350d3" opacity="1.000" fill="none" stroke="#000000" stroke-width="0.883" stroke-opacity="1.000" stroke-linecap="round" stroke-linejoin="round" d="M 1539.459 1586.237 Q 1539.436 1586.225 1539.301 1586.249 Q 1539.203 1586.259 1539.269 1587.970 Q 1539.335 1589.681 1539.329 1590.911 Q 1539.324 1592.141 1538.958 1592.898 Q 1538.592 1593.655 1538.504 1593.769 "></path>
    <path id="STROKE_fbc1c319-a955-4055-b2e1-e22ba2ea97df" opacity="1.000" fill="none" stroke="#000000" stroke-width="0.883" stroke-opacity="1.000" stroke-linecap="round" stroke-linejoin="round" d="M 1535.739 1594.073 Q 1535.600 1594.033 1537.851 1593.796 Q 1540.102 1593.558 1541.367 1593.716 Q 1542.632 1593.873 1542.716 1593.924 "></path>
    <path id="STROKE_f07acf68-8314-4bb0-905e-4ac29a9ae60c" opacity="1.000" fill="none" stroke="#000000" stroke-width="0.883" stroke-opacity="1.000" stroke-linecap="round" stroke-linejoin="round" d="M 1568.917 1560.289 Q 1568.973 1560.207 1568.836 1560.441 Q 1568.699 1560.675 1566.884 1562.595 "></path>
    <path id="STROKE_f892d88f-4639-4b63-8389-db84de6940d5" opacity="1.000" fill="none" stroke="#000000" stroke-width="0.883" stroke-opacity="1.000" stroke-linecap="round" stroke-linejoin="round" d="M 1565.128 1565.414 Q 1565.373 1565.970 1568.134 1564.708 Q 1570.896 1563.446 1570.896 1563.431 "></path>
    <path id="STROKE_cd5b5853-c579-4714-9eff-6db28ca143ef" opacity="1.000" fill="none" stroke="#000000" stroke-width="0.883" stroke-opacity="1.000" stroke-linecap="round" stroke-linejoin="round" d="M 1568.432 1562.039 Q 1568.358 1562.219 1568.494 1562.795 Q 1568.630 1563.371 1568.686 1568.455 Q 1568.557 1568.531 1568.508 1568.526 Q 1568.459 1568.521 1568.085 1568.431 "></path>
    <path id="STROKE_4fd7fa51-658b-4680-9b20-ddd14bf9b2fa" opacity="1.000" fill="none" stroke="#000000" stroke-width="0.883" stroke-opacity="1.000" stroke-linecap="round" stroke-linejoin="round" d="M 1567.030 1567.367 Q 1567.575 1567.248 1567.558 1567.227 Q 1567.311 1567.471 1568.303 1566.804 Q 1569.294 1566.137 1569.379 1566.047 "></path>
    <path id="STROKE_b453366e-304b-4d36-961c-9c5db7bff3e3" opacity="1.000" fill="none" stroke="#000000" stroke-width="0.883" stroke-opacity="1.000" stroke-linecap="round" stroke-linejoin="round" d="M 1569.918 1562.726 Q 1569.869 1563.011 1569.882 1564.215 Q 1569.896 1565.418 1570.207 1566.291 Q 1570.519 1567.163 1570.915 1567.758 Q 1571.311 1568.354 1571.719 1568.676 Q 1572.127 1568.998 1572.690 1569.184 Q 1573.252 1569.371 1573.549 1568.901 Q 1573.846 1568.431 1573.884 1568.305 "></path>
    <path id="STROKE_c549f1f0-fbf3-40c2-aad5-96072ff01330" opacity="1.000" fill="none" stroke="#000000" stroke-width="0.686" stroke-opacity="1.000" stroke-linecap="round" stroke-linejoin="round" d="M 1572.467 1565.689 Q 1571.983 1565.668 1569.726 1570.713 Q 1569.726 1570.701 1569.726 1570.689 "></path>
    <path id="STROKE_933db040-d3de-4c90-a5d3-589e9b17280e" opacity="1.000" fill="none" stroke="#000000" stroke-width="0.883" stroke-opacity="1.000" stroke-linecap="round" stroke-linejoin="round" d="M 1572.221 1560.236 Q 1572.230 1560.226 1571.923 1560.506 Q 1571.616 1560.785 1571.366 1561.336 Q 1571.116 1561.886 1572.660 1562.571 "></path>
    <path id="STROKE_b348c86f-621d-4cfd-878a-8450e5ee9586" opacity="1.000" fill="none" stroke="#000000" stroke-width="0.883" stroke-opacity="1.000" stroke-linecap="round" stroke-linejoin="round" d="M 1553.722 1626.388 Q 1553.773 1626.398 1553.587 1626.542 Q 1553.401 1626.687 1552.844 1627.293 Q 1552.286 1627.899 1552.044 1628.329 Q 1551.802 1628.760 1551.725 1628.994 Q 1551.648 1629.229 1551.541 1629.466 Q 1551.434 1629.703 1551.308 1630.833 Q 1551.183 1631.962 1551.175 1632.605 Q 1551.168 1633.249 1551.118 1634.114 Q 1551.068 1634.978 1552.551 1637.600 "></path>
    <path id="STROKE_96c836b6-6bb5-4493-bbc0-52befc31af3d" opacity="1.000" fill="none" stroke="#000000" stroke-width="0.883" stroke-opacity="1.000" stroke-linecap="round" stroke-linejoin="round" d="M 1557.642 1626.920 Q 1557.727 1626.932 1558.239 1626.782 Q 1558.750 1626.632 1558.939 1626.987 Q 1559.128 1627.341 1559.128 1627.380 "></path>
    <circle id="STROKE_8eddf0ed-542a-4112-acd8-15a827534ecb" opacity="1.000" fill="#000000" stroke="#000000" stroke-width="0.1" stroke-opacity="1.000" fill-opacity="1.000" cx="1557.080" cy="1629.005" r="0.442"></circle>
    <path id="STROKE_95f9a6eb-c3d8-4fd3-9bf8-3bb467195f9b" opacity="1.000" fill="none" stroke="#000000" stroke-width="0.883" stroke-opacity="1.000" stroke-linecap="round" stroke-linejoin="round" d="M 1556.418 1629.405 Q 1556.194 1628.876 1557.030 1632.376 Q 1557.112 1632.500 1557.425 1632.336 Q 1557.738 1632.173 1557.788 1632.099 "></path>
    <path id="STROKE_261afc90-e3bc-4cee-a1ca-6cced916eb09" opacity="1.000" fill="none" stroke="#000000" stroke-width="0.883" stroke-opacity="1.000" stroke-linecap="round" stroke-linejoin="round" d="M 1557.318 1629.303 Q 1557.676 1629.140 1558.656 1628.911 Q 1559.637 1628.681 1560.201 1628.624 Q 1560.764 1628.566 1560.988 1628.651 Q 1561.212 1628.737 1561.395 1628.896 Q 1561.578 1629.055 1561.673 1629.311 Q 1561.768 1629.566 1561.755 1629.766 Q 1561.742 1629.966 1561.778 1630.021 Q 1561.815 1630.076 1561.683 1630.530 Q 1561.551 1630.983 1561.247 1631.217 Q 1560.942 1631.451 1560.869 1631.489 "></path>
    <path id="STROKE_a6433aab-b02d-4f49-ba0e-89b4f0221389" opacity="1.000" fill="none" stroke="#000000" stroke-width="0.883" stroke-opacity="1.000" stroke-linecap="round" stroke-linejoin="round" d="M 1559.228 1630.372 Q 1559.078 1630.296 1560.257 1630.119 Q 1560.346 1630.181 1560.290 1630.889 Q 1560.234 1631.597 1559.275 1632.123 Q 1559.329 1631.634 1559.340 1631.767 Q 1559.402 1631.678 1559.456 1631.551 Q 1559.510 1631.424 1559.521 1631.388 "></path>
    <path id="STROKE_749f8534-889d-4b91-80cc-4a8a3bde8b74" opacity="1.000" fill="none" stroke="#000000" stroke-width="0.883" stroke-opacity="1.000" stroke-linecap="round" stroke-linejoin="round" d="M 1558.397 1631.155 Q 1558.397 1631.307 1558.374 1634.655 "></path>
    <path id="STROKE_f7f0f935-6018-4f03-8242-386aef406113" opacity="1.000" fill="none" stroke="#000000" stroke-width="0.883" stroke-opacity="1.000" stroke-linecap="round" stroke-linejoin="round" d="M 1558.643 1633.007 Q 1558.597 1632.939 1558.837 1632.854 Q 1559.077 1632.768 1559.449 1632.684 Q 1559.822 1632.600 1559.931 1632.699 Q 1560.041 1632.799 1560.170 1633.102 Q 1560.298 1633.404 1560.318 1633.757 Q 1560.337 1634.109 1560.205 1634.465 Q 1560.073 1634.821 1559.806 1635.079 Q 1559.539 1635.338 1558.790 1635.342 Q 1558.124 1635.411 1560.134 1634.825 Q 1562.143 1634.240 1562.217 1634.177 "></path>
    <path id="STROKE_3c88696e-7d05-441e-bbe7-d1174d4d93b4" opacity="1.000" fill="none" stroke="#000000" stroke-width="0.883" stroke-opacity="1.000" stroke-linecap="round" stroke-linejoin="round" d="M 1565.343 1628.521 Q 1565.441 1628.917 1564.458 1629.733 Q 1563.476 1630.549 1563.341 1630.623 "></path>
    <path id="STROKE_af177828-a953-4dd4-a496-9b5a4e41dfb6" opacity="1.000" fill="none" stroke="#000000" stroke-width="0.883" stroke-opacity="1.000" stroke-linecap="round" stroke-linejoin="round" d="M 1563.095 1630.092 Q 1563.093 1630.431 1566.129 1630.677 "></path>
    <path id="STROKE_8b3c665b-642f-4668-880b-63f6ab2a68d9" opacity="1.000" fill="none" stroke="#000000" stroke-width="0.883" stroke-opacity="1.000" stroke-linecap="round" stroke-linejoin="round" d="M 1563.071 1632.349 Q 1563.232 1632.308 1566.884 1631.615 Q 1566.872 1631.615 1566.737 1631.591 "></path>
    <path id="STROKE_9833bfc2-7e66-42e2-bb24-2feb29f79ab6" opacity="1.000" fill="none" stroke="#000000" stroke-width="0.878" stroke-opacity="1.000" stroke-linecap="round" stroke-linejoin="round" d="M 1565.297 1631.155 Q 1565.321 1631.755 1565.601 1636.017 Q 1565.627 1636.014 1565.429 1636.061 Q 1565.232 1636.108 1564.652 1635.580 Q 1564.073 1635.052 1563.872 1634.886 Q 1563.670 1634.719 1563.454 1634.674 Q 1563.237 1634.629 1563.071 1634.631 Q 1563.195 1634.604 1564.704 1634.034 Q 1566.212 1633.464 1567.112 1633.382 Q 1568.012 1633.299 1568.085 1633.287 "></path>
    <path id="STROKE_d3602af6-4235-44b3-b11b-dfed878f3bc4" opacity="1.000" fill="none" stroke="#000000" stroke-width="0.883" stroke-opacity="1.000" stroke-linecap="round" stroke-linejoin="round" d="M 1568.671 1628.216 Q 1568.785 1628.212 1569.219 1629.097 Q 1569.652 1629.983 1569.767 1631.375 Q 1569.882 1632.768 1569.948 1634.084 Q 1570.014 1635.400 1567.893 1638.233 "></path>
    <path id="STROKE_4d9a41f1-5f1e-4804-845b-8f2842d76649" opacity="1.000" fill="none" stroke="#000000" stroke-width="0.883" stroke-opacity="1.000" stroke-linecap="round" stroke-linejoin="round" d="M 1563.241 1631.561 Q 1563.193 1631.650 1563.922 1631.062 Q 1564.651 1630.474 1564.712 1630.396 "></path>
    <path id="STROKE_6636bd1e-8ce2-4346-a503-31773dec5c77" opacity="1.000" fill="none" stroke="#000000" stroke-width="0.883" stroke-opacity="1.000" stroke-linecap="round" stroke-linejoin="round" d="M 1563.441 1629.662 Q 1563.298 1629.598 1565.343 1632.045 "></path>
    <path id="STROKE_250661f2-76ee-4e07-8bff-28978f14c8fc" opacity="1.000" fill="none" stroke="#000000" stroke-width="0.883" stroke-opacity="1.000" stroke-linecap="round" stroke-linejoin="round" d="M 1603.096 1628.318 Q 1602.864 1628.615 1602.811 1628.713 Q 1602.758 1628.811 1602.790 1628.795 Q 1602.822 1628.780 1602.714 1628.878 Q 1602.606 1628.976 1602.275 1630.492 Q 1601.943 1632.007 1601.853 1633.251 Q 1601.762 1634.494 1601.793 1635.233 Q 1601.824 1635.972 1602.010 1636.649 Q 1602.196 1637.326 1603.936 1637.723 Q 1605.676 1638.120 1605.907 1638.132 "></path>
    <path id="STROKE_336b3f65-5ddb-469b-9eb7-62cb95eccbb6" opacity="1.000" fill="none" stroke="#000000" stroke-width="0.883" stroke-opacity="1.000" stroke-linecap="round" stroke-linejoin="round" d="M 1605.938 1630.319 Q 1605.920 1630.609 1606.084 1633.413 "></path>
    <path id="STROKE_96071896-79a1-461f-b1cd-271f48d34b0f" opacity="1.000" fill="none" stroke="#000000" stroke-width="0.883" stroke-opacity="1.000" stroke-linecap="round" stroke-linejoin="round" d="M 1605.907 1630.349 Q 1605.935 1630.358 1606.270 1630.131 Q 1606.606 1629.904 1607.586 1629.826 Q 1607.782 1630.012 1608.040 1632.732 Q 1608.040 1632.720 1608.040 1632.577 "></path>
    <path id="STROKE_bbd2ab59-1e97-4aa1-b0b4-cf85a41bb1fc" opacity="1.000" fill="none" stroke="#000000" stroke-width="0.883" stroke-opacity="1.000" stroke-linecap="round" stroke-linejoin="round" d="M 1607.062 1631.436 Q 1607.048 1631.191 1605.961 1635.241 "></path>
    <path id="STROKE_a38cd95b-de59-4e45-b038-c540b3646793" opacity="1.000" fill="none" stroke="#000000" stroke-width="0.883" stroke-opacity="1.000" stroke-linecap="round" stroke-linejoin="round" d="M 1606.816 1633.443 Q 1606.776 1633.473 1606.871 1633.917 Q 1606.966 1634.360 1607.557 1634.565 Q 1608.149 1634.769 1609.065 1634.052 "></path>
    <path id="STROKE_1f8aaf22-bcae-4b86-8a2c-548dcc1670ec" opacity="1.000" fill="none" stroke="#000000" stroke-width="0.883" stroke-opacity="1.000" stroke-linecap="round" stroke-linejoin="round" d="M 1609.188 1631.740 Q 1609.603 1631.740 1609.530 1631.740 Q 1609.926 1631.764 1609.846 1631.764 Q 1609.778 1631.950 1610.346 1631.730 Q 1610.913 1631.510 1610.928 1631.460 "></path>
    <path id="STROKE_8a6a0370-19be-4920-97fe-0e26cee26366" opacity="1.000" fill="none" stroke="#000000" stroke-width="0.825" stroke-opacity="1.000" stroke-linecap="round" stroke-linejoin="round" d="M 1610.512 1629.232 Q 1610.534 1629.326 1610.482 1636.005 Q 1610.479 1635.966 1610.435 1635.599 "></path>
    <path id="STROKE_b1adcceb-4a61-484f-aefe-d626dc701f75" opacity="1.000" fill="none" stroke="#000000" stroke-width="0.883" stroke-opacity="1.000" stroke-linecap="round" stroke-linejoin="round" d="M 1609.896 1632.708 Q 1609.781 1632.958 1609.290 1634.277 Q 1608.800 1635.596 1607.759 1636.435 Q 1607.748 1636.396 1607.748 1636.358 "></path>
    <path id="STROKE_a09fbcdc-68b1-48bf-8f27-2bd734ab301d" opacity="1.000" fill="none" stroke="#000000" stroke-width="0.883" stroke-opacity="1.000" stroke-linecap="round" stroke-linejoin="round" d="M 1611.514 1628.849 Q 1611.708 1628.687 1612.168 1629.085 Q 1612.629 1629.483 1612.867 1630.098 Q 1613.105 1630.714 1613.108 1632.048 Q 1613.112 1633.383 1613.166 1634.278 Q 1613.219 1635.172 1612.727 1636.460 Q 1612.235 1637.748 1611.021 1638.717 "></path>
    <path id="STROKE_9e2ebc11-6f77-4030-b94d-44189a2c8e31" opacity="1.000" fill="none" stroke="#000000" stroke-width="0.883" stroke-opacity="1.000" stroke-linecap="round" stroke-linejoin="round" d="M 1564.060 1558.754 Q 1564.104 1558.766 1563.667 1558.549 Q 1563.229 1558.332 1562.989 1557.768 Q 1562.749 1557.204 1562.699 1556.792 Q 1562.650 1556.380 1562.647 1556.256 Q 1562.645 1556.131 1562.648 1556.233 Q 1562.651 1556.334 1562.599 1555.756 Q 1562.547 1555.178 1562.653 1554.531 Q 1562.760 1553.885 1562.937 1553.456 Q 1563.115 1553.028 1563.235 1552.864 Q 1563.355 1552.699 1563.529 1552.499 Q 1563.704 1552.299 1563.678 1552.343 Q 1563.652 1552.388 1564.013 1551.981 Q 1564.375 1551.574 1565.315 1550.967 Q 1566.255 1550.360 1567.747 1550.018 Q 1569.240 1549.676 1570.078 1549.652 Q 1570.917 1549.628 1571.293 1549.605 Q 1571.669 1549.583 1571.851 1549.697 Q 1572.034 1549.811 1572.295 1550.040 Q 1572.557 1550.268 1572.733 1550.429 Q 1572.909 1550.589 1573.007 1550.680 Q 1573.105 1550.771 1573.172 1550.837 Q 1573.240 1550.902 1573.231 1550.897 Q 1573.223 1550.892 1573.226 1550.888 Q 1573.230 1550.884 1573.399 1551.086 Q 1573.568 1551.289 1573.626 1551.367 Q 1573.684 1551.445 1573.658 1551.425 Q 1573.632 1551.405 1573.716 1551.449 Q 1573.800 1551.493 1574.102 1552.002 Q 1574.403 1552.510 1574.563 1552.886 Q 1574.724 1553.261 1574.725 1553.447 Q 1574.725 1553.634 1574.726 1553.988 Q 1574.727 1554.341 1574.715 1554.551 Q 1574.703 1554.761 1574.730 1554.814 Q 1574.758 1554.867 1574.692 1555.738 Q 1574.626 1556.609 1574.459 1557.167 Q 1574.292 1557.724 1574.170 1558.020 Q 1574.048 1558.317 1574.010 1558.423 Q 1573.973 1558.530 1573.963 1558.546 Q 1573.954 1558.562 1573.963 1558.542 Q 1573.971 1558.522 1573.868 1558.792 Q 1573.764 1559.063 1573.748 1559.113 Q 1573.349 1559.471 1573.379 1556.902 Q 1573.269 1556.632 1573.664 1559.590 Q 1574.300 1559.184 1574.320 1559.070 Q 1574.341 1558.955 1574.329 1558.978 Q 1574.317 1559.000 1574.610 1558.690 Q 1574.903 1558.380 1575.782 1556.144 "></path>
    <path id="STROKE_00c253d7-5ad2-4b92-b484-6450ea406adb" opacity="1.000" fill="none" stroke="#000000" stroke-width="0.883" stroke-opacity="1.000" stroke-linecap="round" stroke-linejoin="round" d="M 1565.385 1538.362 Q 1565.399 1538.617 1565.354 1543.815 Q 1565.354 1543.765 1565.354 1543.535 "></path>
    <path id="STROKE_78479220-ee42-4123-b070-77be36eb7a4f" opacity="1.000" fill="none" stroke="#000000" stroke-width="0.860" stroke-opacity="1.000" stroke-linecap="round" stroke-linejoin="round" d="M 1565.677 1536.892 Q 1565.757 1536.781 1567.153 1536.550 Q 1568.549 1536.319 1570.275 1536.612 Q 1570.275 1536.900 1570.275 1536.889 Q 1570.205 1536.961 1570.545 1546.784 Q 1570.311 1547.088 1568.835 1543.839 "></path>
    <path id="STROKE_1aa7c131-2a02-4a2e-abaa-017078320512" opacity="1.000" fill="none" stroke="#000000" stroke-width="0.883" stroke-opacity="1.000" stroke-linecap="round" stroke-linejoin="round" d="M 1567.195 1538.690 Q 1567.185 1538.648 1568.550 1538.439 Q 1568.565 1538.475 1568.565 1538.513 Q 1568.565 1538.550 1568.565 1538.589 "></path>
    <path id="STROKE_f695863c-5d1e-4fb4-83ea-79d4f1509cd1" opacity="1.000" fill="none" stroke="#000000" stroke-width="0.883" stroke-opacity="1.000" stroke-linecap="round" stroke-linejoin="round" d="M 1566.070 1542.089 Q 1566.053 1541.849 1566.066 1543.081 Q 1566.320 1543.023 1566.347 1543.131 Q 1566.374 1543.238 1566.765 1542.823 Q 1567.157 1542.407 1567.349 1541.740 Q 1567.541 1541.072 1567.783 1540.644 Q 1568.025 1540.216 1568.819 1540.327 Q 1568.883 1540.660 1568.858 1540.647 Q 1568.835 1541.160 1568.785 1541.101 Q 1568.737 1541.365 1566.902 1542.854 Q 1567.229 1542.869 1569.343 1542.698 Q 1569.343 1542.686 1569.343 1542.674 "></path>
    <path id="STROKE_69d2311f-5dd7-4d14-8919-8e493dd5ccf4" opacity="1.000" fill="none" stroke="#000000" stroke-width="0.783" stroke-opacity="1.000" stroke-linecap="round" stroke-linejoin="round" d="M 1564.699 1539.658 Q 1564.699 1539.866 1564.699 1545.237 Q 1564.734 1545.340 1564.938 1545.034 "></path>
    <path id="STROKE_2c1b13ff-13a5-43f0-b164-095b9b3af214" opacity="1.000" fill="none" stroke="#000000" stroke-width="0.883" stroke-opacity="1.000" stroke-linecap="round" stroke-linejoin="round" d="M 1566.093 1540.721 Q 1566.134 1540.534 1568.769 1540.694 Q 1568.781 1540.733 1568.781 1540.745 "></path>
    <path id="STROKE_e05fce07-4117-44b5-a825-02b24dac65fc" opacity="1.000" fill="none" stroke="#000000" stroke-width="0.822" stroke-opacity="1.000" stroke-linecap="round" stroke-linejoin="round" d="M 1565.554 1538.260 Q 1565.521 1538.549 1565.526 1541.200 Q 1565.531 1543.851 1565.531 1543.863 "></path>
    <path id="STROKE_9dcd45bd-8a09-4a11-91ff-ff473051bcf2" opacity="1.000" fill="none" stroke="#000000" stroke-width="0.869" stroke-opacity="1.000" stroke-linecap="round" stroke-linejoin="round" d="M 1576.683 1535.877 Q 1576.506 1535.947 1575.791 1536.619 Q 1575.075 1537.292 1574.626 1538.969 Q 1574.178 1540.647 1574.125 1542.117 Q 1574.073 1543.587 1574.104 1544.397 Q 1574.134 1545.207 1574.338 1545.625 Q 1574.542 1546.043 1574.986 1546.471 Q 1575.430 1546.898 1577.176 1546.885 "></path>
    <path id="STROKE_5ec3be40-d29a-4530-b56c-47751762cff2" opacity="1.000" fill="none" stroke="#000000" stroke-width="0.834" stroke-opacity="1.000" stroke-linecap="round" stroke-linejoin="round" d="M 1578.030 1538.463 Q 1578.030 1538.425 1578.065 1538.284 Q 1578.059 1538.312 1578.136 1538.301 Q 1578.213 1538.289 1578.183 1540.527 Q 1578.153 1542.766 1578.519 1545.273 Q 1578.847 1545.295 1578.835 1545.273 Q 1578.949 1545.230 1579.378 1544.472 "></path>
    <path id="STROKE_1f58ccb7-17c5-41ac-85ec-3dd4bded51c5" opacity="1.000" fill="none" stroke="#000000" stroke-width="0.883" stroke-opacity="1.000" stroke-linecap="round" stroke-linejoin="round" d="M 1578.400 1541.964 Q 1578.075 1542.047 1578.115 1542.053 Q 1578.065 1542.077 1578.054 1542.128 Q 1577.818 1542.248 1579.010 1542.115 Q 1580.202 1541.981 1581.093 1541.600 Q 1581.984 1541.219 1582.798 1540.900 Q 1582.803 1541.322 1580.279 1542.674 Q 1580.279 1542.636 1580.279 1542.425 Q 1580.279 1542.214 1580.279 1542.113 "></path>
    <path id="STROKE_6e6b0ee8-ae46-4f08-8dbe-4d8a53efbe62" opacity="1.000" fill="none" stroke="#000000" stroke-width="0.883" stroke-opacity="1.000" stroke-linecap="round" stroke-linejoin="round" d="M 1580.479 1539.401 Q 1580.465 1539.457 1580.350 1540.320 Q 1580.235 1541.183 1580.225 1541.799 Q 1580.214 1542.415 1580.544 1543.082 Q 1580.873 1543.750 1581.650 1544.055 Q 1582.427 1544.360 1583.250 1544.158 Q 1584.074 1543.956 1584.379 1543.774 Q 1584.684 1543.593 1584.949 1543.383 "></path>
    <path id="STROKE_608d1b14-58e5-4394-97e6-6cde5cc4c9cd" opacity="1.000" fill="none" stroke="#000000" stroke-width="0.883" stroke-opacity="1.000" stroke-linecap="round" stroke-linejoin="round" d="M 1584.480 1542.601 Q 1584.376 1542.540 1584.349 1542.375 "></path>
    <path id="STROKE_c8386dc8-109a-4186-82d4-0dba36b0ba17" opacity="1.000" fill="none" stroke="#000000" stroke-width="0.883" stroke-opacity="1.000" stroke-linecap="round" stroke-linejoin="round" d="M 1588.674 1539.425 Q 1588.872 1539.457 1591.169 1538.917 "></path>
    <path id="STROKE_a414da93-5903-48b2-876c-f439e2c966bb" opacity="1.000" fill="none" stroke="#000000" stroke-width="0.883" stroke-opacity="1.000" stroke-linecap="round" stroke-linejoin="round" d="M 1590.484 1537.932 Q 1590.469 1537.932 1590.362 1538.826 Q 1590.254 1539.720 1589.483 1540.596 "></path>
    <path id="STROKE_4e2c8896-a6c3-4041-ad6d-19da9f9a3895" opacity="1.000" fill="none" stroke="#000000" stroke-width="0.883" stroke-opacity="1.000" stroke-linecap="round" stroke-linejoin="round" d="M 1588.528 1541.074 Q 1588.600 1540.822 1591.439 1540.566 "></path>
    <path id="STROKE_979eb807-156e-49d2-b691-81028824bdab" opacity="1.000" fill="none" stroke="#000000" stroke-width="0.883" stroke-opacity="1.000" stroke-linecap="round" stroke-linejoin="round" d="M 1590.068 1540.769 Q 1590.301 1540.616 1588.058 1543.738 Q 1588.632 1543.732 1588.539 1543.726 Q 1588.798 1543.779 1591.269 1542.824 "></path>
    <path id="STROKE_ff75814e-80d5-4e7e-965b-8dcf61518e5c" opacity="1.000" fill="none" stroke="#000000" stroke-width="0.883" stroke-opacity="1.000" stroke-linecap="round" stroke-linejoin="round" d="M 1590.384 1541.378 Q 1590.289 1541.520 1591.315 1543.409 Q 1591.412 1543.409 1591.462 1543.409 "></path>
    <path id="STROKE_4dbeebcc-9c06-40e4-b3ed-e7ddf7fef51e" opacity="1.000" fill="none" stroke="#000000" stroke-width="0.694" stroke-opacity="1.000" stroke-linecap="round" stroke-linejoin="round" d="M 1593.980 1537.066 Q 1594.343 1537.406 1591.878 1544.425 "></path>
    <path id="STROKE_82f17153-f06b-4031-8533-8b267dec64c7" opacity="1.000" fill="none" stroke="#000000" stroke-width="0.846" stroke-opacity="1.000" stroke-linecap="round" stroke-linejoin="round" d="M 1592.247 1540.315 Q 1591.894 1540.462 1594.739 1539.819 Q 1595.625 1540.140 1593.603 1545.816 L 1593.587 1545.816 Q 1593.556 1545.687 1593.560 1545.390 Q 1593.564 1545.094 1593.564 1544.980 "></path>
    <path id="STROKE_e9458068-897a-4121-af95-e77d9ec105bb" opacity="1.000" fill="none" stroke="#000000" stroke-width="0.883" stroke-opacity="1.000" stroke-linecap="round" stroke-linejoin="round" d="M 1597.061 1536.002 Q 1597.334 1535.776 1598.005 1536.374 Q 1598.676 1536.972 1599.125 1537.714 Q 1599.575 1538.457 1599.754 1539.452 Q 1599.933 1540.447 1599.952 1541.168 Q 1599.971 1541.889 1599.616 1543.093 Q 1599.261 1544.297 1597.679 1545.425 Q 1596.098 1546.554 1595.967 1546.605 "></path>
    <path id="STROKE_2369e368-cfbb-4926-8d44-98bf45789a6b" opacity="1.000" fill="none" stroke="#000000" stroke-width="0.883" stroke-opacity="1.000" stroke-linecap="round" stroke-linejoin="round" d="M 1624.879 1577.827 Q 1624.453 1578.103 1624.551 1578.045 Q 1624.027 1578.193 1623.393 1579.884 Q 1622.759 1581.575 1622.533 1582.988 Q 1622.306 1584.401 1622.296 1585.356 Q 1622.286 1586.312 1622.422 1586.877 Q 1622.559 1587.442 1622.955 1587.998 Q 1623.352 1588.554 1623.853 1588.908 Q 1624.354 1589.262 1625.348 1589.241 "></path>
    <path id="STROKE_001a2411-3963-47dd-bd04-3f8285f921fd" opacity="1.000" fill="none" stroke="#000000" stroke-width="0.883" stroke-opacity="1.000" stroke-linecap="round" stroke-linejoin="round" d="M 1631.217 1578.388 Q 1631.300 1578.232 1630.738 1579.778 Q 1630.176 1581.324 1628.800 1582.215 Q 1627.424 1583.107 1627.350 1583.107 "></path>
    <path id="STROKE_8d18ae04-c754-41bb-a176-c798f3fd1f48" opacity="1.000" fill="none" stroke="#000000" stroke-width="0.883" stroke-opacity="1.000" stroke-linecap="round" stroke-linejoin="round" d="M 1631.001 1579.810 Q 1630.859 1579.622 1631.571 1580.368 Q 1632.283 1581.115 1633.078 1581.361 Q 1633.874 1581.608 1633.912 1581.608 "></path>
    <path id="STROKE_0aba02a5-46c7-45fd-9fcf-fd2dce85067c" opacity="1.000" fill="none" stroke="#000000" stroke-width="0.883" stroke-opacity="1.000" stroke-linecap="round" stroke-linejoin="round" d="M 1630.069 1581.864 Q 1630.356 1581.871 1631.925 1581.936 "></path>
    <path id="STROKE_78d820e4-2087-4ed6-8737-d9840f51341d" opacity="1.000" fill="none" stroke="#000000" stroke-width="0.883" stroke-opacity="1.000" stroke-linecap="round" stroke-linejoin="round" d="M 1629.553 1583.256 Q 1629.768 1582.981 1632.564 1582.877 Q 1632.977 1582.963 1632.218 1584.755 "></path>
    <path id="STROKE_6b90a026-f980-4799-86ac-4ea661b6f668" opacity="1.000" fill="none" stroke="#000000" stroke-width="0.883" stroke-opacity="1.000" stroke-linecap="round" stroke-linejoin="round" d="M 1630.755 1584.021 Q 1630.746 1583.969 1631.134 1584.071 Q 1631.522 1584.172 1631.366 1584.689 Q 1631.210 1585.206 1630.069 1585.717 Q 1629.878 1585.836 1631.563 1584.779 "></path>
    <path id="STROKE_086735ea-acfb-4472-9aad-316a38ca61a3" opacity="1.000" fill="none" stroke="#000000" stroke-width="0.878" stroke-opacity="1.000" stroke-linecap="round" stroke-linejoin="round" d="M 1629.553 1584.827 Q 1629.559 1584.668 1629.653 1589.014 Q 1630.026 1589.318 1632.487 1585.538 Q 1632.461 1585.756 1629.900 1586.517 Q 1629.942 1586.670 1630.149 1586.804 Q 1630.357 1586.938 1630.451 1586.949 Q 1630.546 1586.961 1630.756 1587.147 Q 1630.967 1587.334 1632.043 1587.612 Q 1633.119 1587.890 1634.050 1587.823 Q 1634.980 1587.755 1635.768 1587.264 "></path>
    <path id="STROKE_b43def81-ffd5-4cca-a597-0d4b6345a4bc" opacity="1.000" fill="none" stroke="#000000" stroke-width="0.883" stroke-opacity="1.000" stroke-linecap="round" stroke-linejoin="round" d="M 1637.894 1579.577 Q 1637.942 1579.868 1637.272 1581.534 Q 1636.603 1583.200 1636.066 1584.154 Q 1635.529 1585.108 1635.129 1585.616 Q 1635.182 1585.232 1635.698 1584.471 Q 1636.214 1583.711 1637.089 1583.358 Q 1637.472 1583.157 1637.589 1587.431 Q 1637.617 1587.443 1637.678 1587.418 Q 1637.740 1587.393 1637.778 1587.342 "></path>
    <path id="STROKE_c92d6303-e203-47cf-ba26-3865e46109e8" opacity="1.000" fill="none" stroke="#000000" stroke-width="0.857" stroke-opacity="1.000" stroke-linecap="round" stroke-linejoin="round" d="M 1642.353 1578.286 Q 1642.050 1578.653 1641.177 1580.254 Q 1640.305 1581.854 1638.972 1583.842 "></path>
    <path id="STROKE_11944253-ef66-4290-b665-6fa05e3ecd00" opacity="1.000" fill="none" stroke="#000000" stroke-width="0.883" stroke-opacity="1.000" stroke-linecap="round" stroke-linejoin="round" d="M 1640.050 1581.482 Q 1639.955 1581.585 1640.223 1581.373 Q 1640.492 1581.161 1641.135 1581.026 Q 1641.777 1580.892 1642.324 1580.802 Q 1642.871 1580.712 1643.254 1581.381 "></path>
    <path id="STROKE_ee6bc1e8-4e58-49ca-8a07-e3b3a2e72e20" opacity="1.000" fill="none" stroke="#000000" stroke-width="0.774" stroke-opacity="1.000" stroke-linecap="round" stroke-linejoin="round" d="M 1641.837 1582.701 Q 1642.182 1582.903 1641.282 1585.521 Q 1640.381 1588.139 1640.343 1588.178 "></path>
    <path id="STROKE_8318a3a4-24c7-4d63-9d84-a601228bd649" opacity="1.000" fill="none" stroke="#000000" stroke-width="0.883" stroke-opacity="1.000" stroke-linecap="round" stroke-linejoin="round" d="M 1639.611 1583.991 Q 1639.762 1583.859 1640.742 1583.736 Q 1641.723 1583.614 1642.247 1583.592 Q 1642.772 1583.571 1643.148 1583.751 Q 1643.524 1583.930 1643.635 1584.576 Q 1643.747 1585.222 1643.679 1585.961 Q 1643.612 1586.700 1643.378 1587.225 Q 1643.144 1587.750 1643.021 1587.919 Q 1642.897 1588.089 1642.790 1588.146 Q 1642.683 1588.202 1642.376 1588.205 Q 1642.284 1588.156 1642.130 1586.553 "></path>
    <path id="STROKE_9fcb9119-7c13-4227-95b0-f0d4339ca98b" opacity="1.000" fill="none" stroke="#000000" stroke-width="0.813" stroke-opacity="1.000" stroke-linecap="round" stroke-linejoin="round" d="M 1645.680 1577.450 Q 1645.931 1577.491 1646.835 1578.128 Q 1647.740 1578.765 1648.259 1580.160 Q 1648.779 1581.556 1648.921 1583.235 Q 1649.063 1584.914 1648.799 1586.325 Q 1648.536 1587.736 1647.984 1588.962 Q 1647.432 1590.189 1646.554 1591.053 Q 1645.676 1591.917 1645.503 1592.031 "></path>
    <path id="STROKE_7fa93fae-deb9-4e2e-9264-e021fd893c5f" opacity="1.000" fill="none" stroke="#000000" stroke-width="0.883" stroke-opacity="1.000" stroke-linecap="round" stroke-linejoin="round" d="M 1527.486 1588.029 Q 1528.167 1587.876 1529.365 1587.622 "></path>
    <path id="STROKE_5a9aeff0-5f5c-4cd2-a40c-e891f47e8cf5" opacity="1.000" fill="none" stroke="#000000" stroke-width="0.883" stroke-opacity="1.000" stroke-linecap="round" stroke-linejoin="round" d="M 1527.702 1599.031 Q 1527.366 1599.277 1527.499 1599.131 Q 1527.632 1598.985 1527.298 1599.288 Q 1526.965 1599.592 1526.699 1599.987 Q 1526.433 1600.382 1526.161 1601.672 Q 1525.890 1602.963 1525.828 1603.890 Q 1525.766 1604.818 1525.860 1605.777 Q 1525.954 1606.736 1529.758 1607.937 "></path>
    <path id="STROKE_7ff5ab6a-8e6d-468c-bf70-243c739b6f1d" opacity="1.000" fill="none" stroke="#000000" stroke-width="0.883" stroke-opacity="1.000" stroke-linecap="round" stroke-linejoin="round" d="M 1534.094 1599.234 Q 1534.049 1599.501 1533.315 1600.289 Q 1532.581 1601.078 1531.510 1601.480 Q 1531.401 1601.513 1531.679 1600.811 Q 1531.703 1600.811 1531.729 1600.811 Q 1531.791 1600.444 1531.779 1605.399 Q 1531.921 1605.949 1533.016 1603.015 "></path>
    <path id="STROKE_26d293ce-e813-45d6-8857-ac2196bcfcfc" opacity="1.000" fill="none" stroke="#000000" stroke-width="0.874" stroke-opacity="1.000" stroke-linecap="round" stroke-linejoin="round" d="M 1532.453 1603.194 Q 1532.442 1603.195 1532.330 1603.195 Q 1532.332 1602.813 1532.342 1602.887 Q 1532.450 1602.681 1532.496 1602.626 Q 1532.543 1602.571 1532.531 1602.620 Q 1532.519 1602.668 1532.582 1602.482 Q 1532.645 1602.296 1533.713 1601.731 Q 1534.781 1601.166 1535.337 1601.096 Q 1535.892 1601.027 1536.041 1600.799 Q 1536.189 1600.570 1536.278 1600.361 Q 1536.368 1600.152 1536.507 1600.044 Q 1536.647 1599.937 1536.637 1599.937 Q 1536.626 1599.937 1536.668 1599.930 Q 1536.710 1599.923 1536.631 1599.910 Q 1536.552 1599.898 1537.236 1599.870 Q 1537.539 1599.800 1537.220 1602.549 Q 1537.200 1602.627 1536.950 1602.550 Q 1536.700 1602.474 1536.348 1602.049 Q 1535.995 1601.623 1535.745 1601.267 Q 1535.495 1600.911 1535.287 1600.429 Q 1535.401 1600.350 1535.164 1607.023 Q 1535.164 1606.707 1535.187 1606.211 "></path>
    <path id="STROKE_19b905c9-56bb-4e06-9b09-14880248c9b0" opacity="1.000" fill="none" stroke="#000000" stroke-width="0.883" stroke-opacity="1.000" stroke-linecap="round" stroke-linejoin="round" d="M 1539.084 1599.031 Q 1539.137 1598.986 1539.433 1599.104 Q 1539.730 1599.222 1540.143 1599.347 Q 1540.555 1599.473 1540.787 1600.552 Q 1541.019 1601.631 1541.048 1602.282 Q 1541.076 1602.933 1541.072 1603.988 Q 1541.068 1605.043 1540.746 1606.214 Q 1540.423 1607.384 1539.869 1607.946 Q 1539.315 1608.508 1539.231 1608.547 "></path>
    <path id="STROKE_aa9a6ffb-c71d-47c8-8606-d7e94e1306d0" opacity="1.000" fill="none" stroke="#000000" stroke-width="0.883" stroke-opacity="1.000" stroke-linecap="round" stroke-linejoin="round" d="M 1532.430 1604.335 Q 1532.406 1604.404 1533.477 1603.601 "></path>
  </g>
</svg>