<?xml version="1.0" encoding="UTF-8" standalone="yes"?>
<svg xmlns="http://www.w3.org/2000/svg" xmlns:xlink="http://www.w3.org/1999/xlink" width="69.267mm" height="28.908mm" version="1.1" viewBox="1007.538 1529.328 359.968 150.231">
  <!--
	Exported with Concepts: Smarter Sketching
	Version: 1057 on iOS 15.4
	https://concepts.app/
	-->
  <title>构想粒子系统之势能动力交互</title>
  <desc>Drawing exported from Concepts: Smarter Sketching</desc>
  <defs></defs>
  <g id="图解" opacity="1.000">
    <path id="STROKE_35e60928-575f-45dd-b65e-d09ff04ccb4f" opacity="1.000" fill="none" stroke="#000000" stroke-width="0.468" stroke-opacity="1.000" stroke-linecap="round" stroke-linejoin="round" d="M 1023.041 1644.622 Q 1023.571 1644.349 1040.465 1644.320 Q 1057.359 1644.291 1066.588 1644.333 Q 1075.817 1644.376 1084.881 1644.393 Q 1093.945 1644.410 1098.342 1644.334 Q 1102.739 1644.259 1114.183 1644.336 Q 1125.627 1644.413 1131.744 1644.394 Q 1137.861 1644.375 1151.114 1645.245 Q 1164.366 1646.115 1177.156 1646.827 Q 1189.946 1647.538 1196.474 1647.890 Q 1203.002 1648.243 1206.143 1648.465 Q 1209.284 1648.688 1213.165 1648.922 Q 1217.045 1649.156 1228.180 1649.687 Q 1239.315 1650.217 1251.832 1650.752 Q 1264.349 1651.287 1271.555 1651.543 Q 1278.760 1651.800 1284.005 1652.030 Q 1289.250 1652.260 1296.726 1652.185 Q 1304.202 1652.110 1308.908 1652.226 Q 1313.613 1652.343 1335.549 1649.327 "></path>
    <path id="STROKE_4b4927af-2e54-4fab-ac3a-ee94df5b1b12" opacity="1.000" fill="none" stroke="#000000" stroke-width="0.741" stroke-opacity="1.000" stroke-linecap="round" stroke-linejoin="round" d="M 1326.850 1647.629 Q 1326.702 1647.753 1329.463 1647.723 Q 1332.223 1647.693 1333.952 1647.895 Q 1335.681 1648.097 1336.570 1648.331 Q 1337.459 1648.564 1337.751 1649.046 Q 1338.042 1649.528 1337.969 1649.838 Q 1337.896 1650.149 1337.831 1650.553 Q 1337.765 1650.958 1335.256 1652.225 Q 1332.748 1653.492 1331.176 1654.466 Q 1329.603 1655.441 1329.603 1655.541 "></path>
    <path id="STROKE_c664314a-e294-499d-9b17-ac3054ec9d20" opacity="1.000" fill="none" stroke="#000000" stroke-width="0.844" stroke-opacity="1.000" stroke-linecap="round" stroke-linejoin="round" d="M 1353.087 1654.279 Q 1352.830 1654.128 1360.023 1653.690 "></path>
    <path id="STROKE_e2397758-fe8d-4992-a7e2-6da136f4637a" opacity="1.000" fill="none" stroke="#000000" stroke-width="0.801" stroke-opacity="1.000" stroke-linecap="round" stroke-linejoin="round" d="M 1356.437 1648.478 Q 1356.233 1648.624 1355.464 1651.674 Q 1354.695 1654.725 1354.754 1656.592 Q 1354.813 1658.459 1354.815 1659.451 Q 1354.817 1660.444 1356.286 1661.416 Q 1357.754 1662.388 1360.352 1661.305 Q 1362.949 1660.222 1363.326 1659.998 "></path>
    <path id="STROKE_112ca1c2-a76c-4349-a2b5-abeeacddd52d" opacity="1.000" fill="none" stroke="#000000" stroke-width="0.668" stroke-opacity="1.000" stroke-linecap="round" stroke-linejoin="round" d="M 1081.160 1640.118 Q 1081.302 1640.685 1082.654 1649.834 Q 1082.780 1649.834 1082.859 1649.834 "></path>
    <path id="STROKE_4aa6e25e-78fc-447c-9852-b02232dd141b" opacity="1.000" fill="none" stroke="#000000" stroke-width="0.838" stroke-opacity="1.000" stroke-linecap="round" stroke-linejoin="round" d="M 1079.304 1664.997 Q 1079.418 1664.627 1079.219 1667.336 Q 1079.020 1670.045 1079.320 1671.885 Q 1079.620 1673.726 1079.988 1674.365 Q 1080.356 1675.004 1080.628 1675.187 Q 1080.899 1675.369 1081.207 1675.163 Q 1081.514 1674.958 1081.545 1675.134 Q 1081.576 1675.309 1082.270 1673.004 Q 1082.963 1670.698 1083.156 1667.887 Q 1083.350 1665.076 1082.230 1662.321 Q 1080.906 1662.237 1079.917 1666.554 "></path>
    <path id="STROKE_d25f6a36-d536-4c4e-826f-2cfe7a7a0471" opacity="1.000" fill="none" stroke="#000000" stroke-width="0.883" stroke-opacity="1.000" stroke-linecap="round" stroke-linejoin="round" d="M 1171.745 1642.924 Q 1171.833 1643.031 1172.043 1646.273 "></path>
    <path id="STROKE_c0975e32-d31a-4d3e-adb2-a2ecfceb6142" opacity="1.000" fill="none" stroke="#000000" stroke-width="0.679" stroke-opacity="1.000" stroke-linecap="round" stroke-linejoin="round" d="M 1170.502 1660.693 Q 1170.502 1660.927 1170.502 1671.907 "></path>
    <path id="STROKE_4d2edeb2-2302-4376-b542-03a36dad12ed" opacity="1.000" fill="none" stroke="#000000" stroke-width="0.874" stroke-opacity="1.000" stroke-linecap="round" stroke-linejoin="round" d="M 1252.042 1648.631 Q 1251.796 1648.892 1251.445 1654.539 "></path>
    <path id="STROKE_93bf91a8-31dc-401d-b8e3-2f28acb1f736" opacity="1.000" fill="none" stroke="#000000" stroke-width="0.697" stroke-opacity="1.000" stroke-linecap="round" stroke-linejoin="round" d="M 1245.703 1662.993 Q 1245.868 1663.050 1246.685 1662.808 Q 1247.502 1662.566 1248.542 1662.706 Q 1249.582 1662.846 1250.100 1663.793 Q 1250.619 1664.741 1250.681 1665.248 Q 1250.743 1665.754 1250.742 1666.335 Q 1250.740 1666.916 1250.662 1667.308 Q 1250.583 1667.699 1250.573 1667.574 Q 1250.563 1667.449 1250.306 1668.498 Q 1250.048 1669.547 1244.901 1673.558 Q 1244.944 1673.049 1258.350 1671.659 "></path>
    <path id="STROKE_3b322a42-ded0-4a71-8ff9-4f2d735ef0fd" opacity="1.000" fill="none" stroke="#000000" stroke-width="0.684" stroke-opacity="1.000" stroke-linecap="round" stroke-linejoin="round" d="M 1079.760 1596.349 Q 1080.816 1595.840 1080.657 1634.635 Q 1080.586 1634.659 1080.334 1634.635 Q 1080.219 1634.563 1080.139 1633.523 Q 1080.059 1632.483 1080.059 1632.159 "></path>
    <path id="STROKE_1f71aeab-7450-45fc-b7ba-4de9effecc8b" opacity="1.000" fill="none" stroke="#000000" stroke-width="0.527" stroke-opacity="1.000" stroke-linecap="round" stroke-linejoin="round" d="M 1084.259 1611.171 Q 1083.991 1611.211 1086.707 1611.037 Q 1089.424 1610.863 1100.759 1610.710 Q 1112.094 1610.558 1118.826 1610.583 Q 1125.559 1610.608 1128.524 1610.633 Q 1131.488 1610.658 1136.532 1610.755 Q 1141.576 1610.852 1144.273 1610.990 Q 1146.970 1611.129 1149.577 1610.723 Q 1152.185 1610.318 1153.908 1608.624 Q 1153.406 1608.665 1152.665 1609.072 "></path>
    <path id="STROKE_f331dc4d-8c2f-4272-a70b-a05c262bc59d" opacity="1.000" fill="none" stroke="#000000" stroke-width="0.883" stroke-opacity="1.000" stroke-linecap="round" stroke-linejoin="round" d="M 1155.781 1607.741 Q 1156.118 1608.591 1155.711 1609.594 Q 1155.303 1610.597 1154.301 1611.334 Q 1153.299 1612.072 1152.909 1612.325 Q 1152.518 1612.578 1152.107 1612.792 Q 1151.695 1613.005 1151.061 1613.222 "></path>
    <path id="STROKE_33dcc437-521c-4ec8-ba54-d84ae082d07e" opacity="1.000" fill="none" stroke="#000000" stroke-width="0.543" stroke-opacity="1.000" stroke-linecap="round" stroke-linejoin="round" d="M 1167.246 1595.005 Q 1167.677 1595.142 1168.084 1606.376 Q 1168.491 1617.610 1168.755 1624.836 Q 1169.019 1632.061 1168.095 1638.609 "></path>
    <path id="STROKE_e3d14235-24d2-422d-a6bf-cc995c78080f" opacity="1.000" fill="none" stroke="#000000" stroke-width="0.707" stroke-opacity="1.000" stroke-linecap="round" stroke-linejoin="round" d="M 1100.397 1583.839 Q 1100.826 1583.804 1097.754 1589.840 Q 1097.754 1589.793 1097.754 1589.746 "></path>
    <path id="STROKE_31c2be52-4678-479b-a7a8-e31d0aeb1199" opacity="1.000" fill="none" stroke="#000000" stroke-width="0.859" stroke-opacity="1.000" stroke-linecap="round" stroke-linejoin="round" d="M 1101.199 1586.445 Q 1102.581 1585.664 1096.606 1590.890 Q 1096.618 1590.303 1097.192 1590.161 Q 1097.766 1590.019 1098.176 1590.096 Q 1098.586 1590.173 1098.588 1590.408 Q 1098.589 1590.642 1098.887 1590.678 Q 1099.185 1590.713 1099.390 1598.908 Q 1099.422 1598.908 1099.453 1598.908 "></path>
    <path id="STROKE_390cf873-bc70-4c6e-94d6-c81068eea27e" opacity="1.000" fill="none" stroke="#000000" stroke-width="0.867" stroke-opacity="1.000" stroke-linecap="round" stroke-linejoin="round" d="M 1105.037 1584.982 Q 1104.833 1584.903 1109.441 1584.641 "></path>
    <path id="STROKE_e01881a7-123c-4a3b-85ff-0d735005bc39" opacity="1.000" fill="none" stroke="#000000" stroke-width="0.649" stroke-opacity="1.000" stroke-linecap="round" stroke-linejoin="round" d="M 1103.149 1590.748 Q 1103.663 1589.655 1107.264 1588.975 Q 1110.865 1588.296 1110.983 1588.296 "></path>
    <path id="STROKE_71472977-12a7-44b3-a7fe-38d4c19d80be" opacity="1.000" fill="none" stroke="#000000" stroke-width="0.694" stroke-opacity="1.000" stroke-linecap="round" stroke-linejoin="round" d="M 1108.938 1591.751 Q 1109.214 1592.040 1108.513 1601.909 Q 1107.951 1602.021 1107.623 1601.941 Q 1107.294 1601.862 1107.145 1601.761 "></path>
    <path id="STROKE_40cdd6ad-14c1-491b-a229-b0dcc48d7b92" opacity="1.000" fill="none" stroke="#000000" stroke-width="0.676" stroke-opacity="1.000" stroke-linecap="round" stroke-linejoin="round" d="M 1099.044 1582.082 Q 1099.093 1581.816 1092.705 1590.041 Q 1092.831 1589.994 1092.957 1589.947 "></path>
    <path id="STROKE_7c094122-4d48-48f4-b127-acf9bad30b9a" opacity="1.000" fill="none" stroke="#000000" stroke-width="0.691" stroke-opacity="1.000" stroke-linecap="round" stroke-linejoin="round" d="M 1100.302 1585.938 Q 1100.095 1586.869 1095.049 1592.199 Q 1094.933 1592.049 1095.442 1591.244 "></path>
    <path id="STROKE_9afb768d-178b-4fd3-8ad9-aff0d115c41a" opacity="1.000" fill="none" stroke="#000000" stroke-width="0.664" stroke-opacity="1.000" stroke-linecap="round" stroke-linejoin="round" d="M 1098.147 1589.947 Q 1098.850 1589.799 1098.651 1600.759 Q 1098.674 1600.735 1098.698 1600.712 "></path>
    <path id="STROKE_8a90a89b-777d-4473-8577-5163cb45bf16" opacity="1.000" fill="none" stroke="#000000" stroke-width="0.840" stroke-opacity="1.000" stroke-linecap="round" stroke-linejoin="round" d="M 1115.843 1584.134 Q 1116.293 1583.480 1121.081 1583.485 "></path>
    <path id="STROKE_06d7fae0-2c8c-473d-acac-05cd05a64331" opacity="1.000" fill="none" stroke="#000000" stroke-width="0.883" stroke-opacity="1.000" stroke-linecap="round" stroke-linejoin="round" d="M 1117.290 1588.991 Q 1118.243 1588.915 1120.436 1587.494 "></path>
    <path id="STROKE_bd1135d7-51a7-4f8e-9cd0-3f16e358783d" opacity="1.000" fill="none" stroke="#000000" stroke-width="0.803" stroke-opacity="1.000" stroke-linecap="round" stroke-linejoin="round" d="M 1118.942 1588.991 Q 1118.783 1588.719 1117.669 1590.923 Q 1116.555 1593.127 1116.260 1596.255 Q 1116.022 1596.187 1116.576 1596.206 Q 1117.131 1596.225 1118.127 1595.333 Q 1119.124 1594.441 1119.838 1590.489 Q 1119.851 1590.487 1119.898 1592.432 Q 1119.946 1594.377 1120.184 1595.427 Q 1120.422 1596.476 1120.666 1596.838 Q 1120.909 1597.200 1121.530 1597.446 Q 1122.150 1597.691 1123.800 1593.801 Q 1125.450 1589.912 1126.728 1584.086 Q 1127.126 1584.863 1122.111 1595.347 Q 1122.064 1595.347 1122.040 1595.347 Q 1122.188 1594.906 1122.109 1593.220 Q 1122.031 1591.534 1123.223 1589.637 Q 1124.416 1587.740 1128.481 1586.763 Q 1128.840 1587.154 1128.985 1589.348 Q 1129.131 1591.541 1128.423 1593.460 Q 1127.716 1595.378 1127.224 1596.234 Q 1126.732 1597.090 1126.254 1597.364 Q 1125.776 1597.638 1125.396 1597.521 Q 1125.017 1597.405 1124.704 1596.823 Q 1124.391 1596.240 1124.376 1595.970 Q 1124.360 1595.701 1124.337 1595.500 "></path>
    <path id="STROKE_26cb1fca-5010-4ed6-9b50-f6a659949ee0" opacity="1.000" fill="none" stroke="#000000" stroke-width="0.883" stroke-opacity="1.000" stroke-linecap="round" stroke-linejoin="round" d="M 1132.878 1595.205 Q 1132.618 1595.205 1133.373 1595.205 Q 1134.128 1595.205 1134.230 1595.205 "></path>
    <path id="STROKE_41c9406e-49a0-4940-bc15-d559fadccffa" opacity="1.000" fill="none" stroke="#000000" stroke-width="0.883" stroke-opacity="1.000" stroke-linecap="round" stroke-linejoin="round" d="M 1132.626 1591.196 Q 1132.559 1591.170 1139.421 1590.395 "></path>
    <path id="STROKE_3062acac-0483-441e-9b88-6d5f3e9ebef3" opacity="1.000" fill="none" stroke="#000000" stroke-width="0.883" stroke-opacity="1.000" stroke-linecap="round" stroke-linejoin="round" d="M 1135.174 1593.696 Q 1134.881 1593.503 1137.714 1593.376 Q 1140.546 1593.248 1140.727 1593.248 "></path>
    <path id="STROKE_5b57de74-ac4d-4321-b9ea-6d6a2fe5c9a1" opacity="1.000" fill="none" stroke="#000000" stroke-width="0.870" stroke-opacity="1.000" stroke-linecap="round" stroke-linejoin="round" d="M 1109.787 1589.899 Q 1109.787 1590.171 1109.901 1592.172 Q 1110.015 1594.174 1110.086 1594.451 "></path>
    <path id="STROKE_7bb87d68-7beb-4959-abb5-ccecfb59cb57" opacity="1.000" fill="none" stroke="#000000" stroke-width="0.783" stroke-opacity="1.000" stroke-linecap="round" stroke-linejoin="round" d="M 1149.661 1582.931 Q 1150.037 1583.218 1148.642 1587.381 Q 1147.246 1591.544 1147.223 1591.597 "></path>
    <path id="STROKE_a44dcc1e-86a8-4f06-8786-045e8b8acf60" opacity="1.000" fill="none" stroke="#000000" stroke-width="0.883" stroke-opacity="1.000" stroke-linecap="round" stroke-linejoin="round" d="M 1149.157 1586.893 Q 1149.802 1586.422 1153.082 1585.891 Q 1153.115 1585.744 1153.168 1586.692 "></path>
    <path id="STROKE_bcb377ee-41d7-4809-b45b-5f415d133e94" opacity="1.000" fill="none" stroke="#000000" stroke-width="0.883" stroke-opacity="1.000" stroke-linecap="round" stroke-linejoin="round" d="M 1149.661 1591.090 Q 1149.644 1591.108 1150.532 1590.886 Q 1151.420 1590.665 1151.940 1590.518 Q 1152.461 1590.371 1152.508 1590.348 "></path>
    <path id="STROKE_822a5ddf-d7eb-4989-8bd4-a005cf1e54fe" opacity="1.000" fill="none" stroke="#000000" stroke-width="0.834" stroke-opacity="1.000" stroke-linecap="round" stroke-linejoin="round" d="M 1151.108 1582.931 Q 1151.151 1583.625 1150.993 1586.221 Q 1150.836 1588.817 1150.594 1590.349 Q 1150.353 1591.881 1149.960 1592.473 Q 1149.567 1593.064 1149.295 1593.219 Q 1149.024 1593.373 1149.208 1593.216 Q 1149.393 1593.059 1148.976 1593.562 Q 1148.560 1594.065 1147.786 1594.725 Q 1147.013 1595.385 1145.461 1595.123 Q 1145.461 1595.076 1145.516 1594.875 Q 1145.777 1594.964 1149.396 1593.862 Q 1153.014 1592.761 1155.348 1592.657 Q 1157.683 1592.552 1157.856 1592.552 "></path>
    <path id="STROKE_173f0400-9b60-4f0e-86ec-7bd6b7f57459" opacity="1.000" fill="none" stroke="#000000" stroke-width="0.690" stroke-opacity="1.000" stroke-linecap="round" stroke-linejoin="round" d="M 1148.921 1608.966 Q 1148.787 1609.053 1161.662 1607.716 "></path>
    <path id="STROKE_f5417b68-60a7-41a7-a043-9899f2cc3427" opacity="1.000" fill="none" stroke="#000000" stroke-width="0.883" stroke-opacity="1.000" stroke-linecap="round" stroke-linejoin="round" d="M 1158.155 1605.511 Q 1158.406 1605.641 1163.581 1606.767 Q 1163.902 1607.043 1159.413 1610.428 "></path>
    <path id="STROKE_4c6628f0-e50f-4a4f-85b3-1878fcbea8e5" opacity="1.000" fill="none" stroke="#000000" stroke-width="0.883" stroke-opacity="1.000" stroke-linecap="round" stroke-linejoin="round" d="M 1063.370 1542.122 Q 1063.031 1542.507 1063.735 1541.737 Q 1064.440 1540.967 1065.384 1540.534 Q 1066.328 1540.100 1066.996 1540.068 Q 1067.665 1540.035 1067.967 1540.198 Q 1068.269 1540.361 1068.178 1540.201 Q 1068.088 1540.041 1068.468 1541.052 Q 1068.848 1542.064 1066.721 1545.181 Q 1067.174 1545.410 1068.144 1546.768 Q 1069.114 1548.127 1069.288 1549.119 Q 1069.462 1550.111 1069.325 1550.907 Q 1069.189 1551.703 1068.825 1552.018 Q 1068.462 1552.332 1068.206 1552.476 Q 1067.949 1552.620 1068.008 1552.569 Q 1068.066 1552.518 1067.988 1552.527 Q 1067.910 1552.536 1068.031 1552.565 Q 1068.152 1552.595 1068.010 1552.580 Q 1067.869 1552.566 1067.456 1552.352 Q 1067.043 1552.138 1066.972 1552.038 "></path>
    <path id="STROKE_817a7544-c250-4aac-afd4-af7eb1c09130" opacity="1.000" fill="none" stroke="#000000" stroke-width="0.883" stroke-opacity="1.000" stroke-linecap="round" stroke-linejoin="round" d="M 1061.538 1546.592 Q 1061.757 1546.518 1064.585 1545.615 Q 1067.414 1544.712 1069.879 1544.253 Q 1072.344 1543.793 1076.614 1543.926 "></path>
    <path id="STROKE_c271f44b-d587-407e-85d5-d3253fa2f509" opacity="1.000" fill="none" stroke="#000000" stroke-width="0.755" stroke-opacity="1.000" stroke-linecap="round" stroke-linejoin="round" d="M 1084.510 1534.764 Q 1084.624 1534.558 1084.699 1534.363 Q 1084.867 1534.833 1083.409 1537.518 Q 1081.950 1540.204 1079.367 1542.475 Q 1079.424 1542.116 1079.368 1542.183 Q 1079.312 1542.249 1079.487 1541.805 Q 1079.662 1541.361 1080.051 1541.230 Q 1080.439 1541.099 1080.734 1541.118 Q 1081.029 1541.138 1081.189 1541.570 Q 1081.348 1542.001 1081.587 1542.935 Q 1081.825 1543.869 1081.711 1550.694 Q 1081.711 1550.594 1081.722 1550.428 Q 1081.734 1550.263 1081.758 1550.033 "></path>
    <path id="STROKE_134ba42d-b36b-491c-9987-04a294d7ff94" opacity="1.000" fill="none" stroke="#000000" stroke-width="0.883" stroke-opacity="1.000" stroke-linecap="round" stroke-linejoin="round" d="M 1081.616 1541.721 Q 1082.163 1540.595 1082.159 1540.878 Q 1081.982 1540.875 1083.281 1540.530 Q 1084.579 1540.186 1084.892 1542.295 Q 1085.204 1544.404 1085.273 1545.973 Q 1085.343 1547.542 1084.699 1548.336 "></path>
    <path id="STROKE_c628704e-e2c9-4cce-87e9-1bbc632f7927" opacity="1.000" fill="none" stroke="#000000" stroke-width="0.879" stroke-opacity="1.000" stroke-linecap="round" stroke-linejoin="round" d="M 1081.852 1543.631 Q 1082.146 1543.291 1082.802 1543.197 Q 1083.458 1543.104 1083.853 1543.196 Q 1084.248 1543.288 1084.332 1543.592 Q 1084.416 1543.896 1084.456 1543.787 Q 1084.495 1543.677 1084.716 1544.873 Q 1084.937 1546.069 1084.547 1546.984 Q 1084.157 1547.899 1082.701 1548.430 Q 1082.416 1548.314 1083.121 1547.199 Q 1083.826 1546.083 1084.101 1545.682 "></path>
    <path id="STROKE_245d3ee9-c62d-46b0-aa72-824d6322441f" opacity="1.000" fill="none" stroke="#000000" stroke-width="0.752" stroke-opacity="1.000" stroke-linecap="round" stroke-linejoin="round" d="M 1091.447 1533.314 Q 1090.952 1533.420 1086.414 1540.530 Q 1086.135 1540.848 1087.450 1540.251 Q 1088.766 1539.655 1089.512 1539.573 Q 1090.259 1539.490 1091.450 1539.569 "></path>
    <path id="STROKE_d65c9704-e386-4af4-9c3d-b36ba2c099c8" opacity="1.000" fill="none" stroke="#000000" stroke-width="0.814" stroke-opacity="1.000" stroke-linecap="round" stroke-linejoin="round" d="M 1091.940 1546.727 Q 1091.445 1549.299 1090.711 1550.392 Q 1089.977 1551.486 1089.658 1551.746 Q 1089.338 1552.007 1088.776 1552.041 Q 1088.213 1552.075 1087.746 1550.731 Q 1087.279 1549.388 1087.163 1548.560 Q 1087.046 1547.732 1086.991 1547.160 Q 1086.937 1546.588 1086.980 1545.606 Q 1087.175 1545.522 1087.547 1545.564 Q 1087.919 1545.606 1088.247 1545.718 Q 1088.574 1545.829 1088.890 1545.868 Q 1089.205 1545.907 1089.402 1545.930 "></path>
    <path id="STROKE_72cb799c-1e00-4a88-a0ac-f8b173bfa074" opacity="1.000" fill="none" stroke="#000000" stroke-width="0.769" stroke-opacity="1.000" stroke-linecap="round" stroke-linejoin="round" d="M 1091.305 1538.726 Q 1090.926 1538.647 1091.755 1538.761 Q 1092.583 1538.876 1092.781 1541.165 Q 1092.979 1543.455 1092.742 1545.665 Q 1092.505 1547.875 1091.148 1550.187 Q 1091.148 1550.110 1091.148 1550.033 "></path>
    <path id="STROKE_8daf38c7-ba1e-4496-979a-ecc6d64a4a4e" opacity="1.000" fill="none" stroke="#000000" stroke-width="0.814" stroke-opacity="1.000" stroke-linecap="round" stroke-linejoin="round" d="M 1107.491 1536.014 Q 1107.325 1536.398 1105.820 1539.070 Q 1104.316 1541.741 1103.376 1542.975 Q 1102.437 1544.208 1101.865 1544.728 Q 1101.293 1545.248 1100.790 1545.376 Q 1100.462 1545.437 1101.311 1544.269 Q 1102.161 1543.102 1103.454 1542.465 Q 1104.746 1541.829 1105.449 1542.309 Q 1106.151 1542.789 1106.307 1543.816 Q 1106.464 1544.843 1106.580 1545.849 Q 1106.696 1546.856 1106.361 1548.291 Q 1106.026 1549.727 1105.623 1550.422 Q 1105.221 1551.116 1105.046 1551.329 Q 1104.872 1551.543 1104.848 1551.543 "></path>
    <path id="STROKE_25c668d6-c95c-4a2e-b3b1-c9c2e7909de8" opacity="1.000" fill="none" stroke="#000000" stroke-width="0.668" stroke-opacity="1.000" stroke-linecap="round" stroke-linejoin="round" d="M 1112.587 1542.676 Q 1112.853 1542.523 1107.349 1548.784 "></path>
    <path id="STROKE_b8ab4e05-0b99-4eaf-8469-52875aec6d43" opacity="1.000" fill="none" stroke="#000000" stroke-width="0.868" stroke-opacity="1.000" stroke-linecap="round" stroke-linejoin="round" d="M 1110.542 1540.577 Q 1110.542 1541.502 1110.542 1541.473 Q 1110.680 1542.156 1110.347 1544.793 Q 1110.014 1547.431 1110.165 1550.664 Q 1111.192 1551.017 1111.116 1550.918 Q 1111.863 1551.026 1114.208 1551.042 Q 1116.552 1551.058 1118.690 1550.063 Q 1118.773 1549.758 1117.923 1549.310 Q 1117.073 1548.861 1116.881 1547.180 "></path>
    <path id="STROKE_2ee3c215-16c1-4f22-820a-fe675fe16899" opacity="1.000" fill="none" stroke="#000000" stroke-width="0.883" stroke-opacity="1.000" stroke-linecap="round" stroke-linejoin="round" d="M 1118.580 1541.072 Q 1118.180 1541.069 1119.838 1541.379 "></path>
    <path id="STROKE_76c2d889-601f-4163-93ec-a655a0745225" opacity="1.000" fill="none" stroke="#000000" stroke-width="0.852" stroke-opacity="1.000" stroke-linecap="round" stroke-linejoin="round" d="M 1121.427 1539.669 Q 1121.269 1539.470 1121.057 1542.027 Q 1120.872 1543.070 1126.177 1539.775 Q 1126.530 1539.561 1126.286 1540.155 Q 1126.041 1540.748 1125.678 1540.972 Q 1125.316 1541.195 1124.874 1541.393 Q 1124.432 1541.590 1124.307 1541.548 Q 1124.182 1541.505 1123.570 1541.599 Q 1122.958 1541.693 1122.552 1541.948 Q 1122.146 1542.203 1121.548 1542.665 Q 1120.950 1543.127 1120.545 1543.475 Q 1120.139 1543.822 1119.615 1544.317 Q 1119.091 1544.811 1115.230 1547.487 Q 1115.289 1547.547 1115.231 1547.504 Q 1115.174 1547.460 1116.848 1546.284 Q 1118.523 1545.108 1120.017 1544.471 Q 1121.511 1543.833 1122.057 1543.814 Q 1122.602 1543.796 1123.558 1543.800 Q 1124.514 1543.804 1124.833 1544.851 Q 1125.153 1545.897 1125.211 1546.543 Q 1125.270 1547.188 1125.012 1547.695 Q 1124.754 1548.201 1124.494 1548.219 Q 1124.234 1548.235 1124.085 1548.288 "></path>
    <path id="STROKE_39ff5ede-4514-4c71-ae07-e38a355db60e" opacity="1.000" fill="none" stroke="#000000" stroke-width="0.844" stroke-opacity="1.000" stroke-linecap="round" stroke-linejoin="round" d="M 1122.135 1548.583 Q 1122.419 1548.735 1122.954 1550.917 Q 1123.489 1553.098 1123.376 1554.123 Q 1123.262 1555.149 1123.287 1555.932 Q 1123.312 1556.716 1122.236 1556.941 Q 1121.161 1557.166 1120.248 1556.838 Q 1119.335 1556.510 1118.624 1556.042 Q 1117.913 1555.574 1116.692 1553.919 Q 1115.701 1553.120 1132.469 1549.986 "></path>
    <path id="STROKE_cdfdb507-265f-4012-bd69-51dd7520e814" opacity="1.000" fill="none" stroke="#000000" stroke-width="0.819" stroke-opacity="1.000" stroke-linecap="round" stroke-linejoin="round" d="M 1136.574 1541.072 Q 1136.402 1540.170 1140.616 1539.050 Q 1140.553 1540.616 1140.681 1540.446 Q 1140.809 1540.276 1139.910 1541.845 Q 1139.011 1543.414 1137.648 1544.511 Q 1136.286 1545.609 1134.718 1546.532 Q 1135.193 1546.320 1139.767 1542.381 "></path>
    <path id="STROKE_07458aba-31a1-495d-bcee-14d6ad1d895b" opacity="1.000" fill="none" stroke="#000000" stroke-width="0.733" stroke-opacity="1.000" stroke-linecap="round" stroke-linejoin="round" d="M 1134.419 1543.077 Q 1134.300 1543.434 1133.531 1545.227 Q 1132.763 1547.020 1131.949 1549.114 Q 1131.135 1551.207 1130.730 1553.178 Q 1130.325 1555.150 1130.235 1556.743 Q 1130.944 1556.053 1134.396 1548.689 Q 1133.365 1548.689 1136.574 1548.689 Q 1136.560 1548.369 1136.598 1549.585 Q 1136.171 1549.976 1137.159 1549.430 Q 1138.147 1548.884 1138.178 1548.831 "></path>
    <path id="STROKE_0403dba7-0131-4aff-96cf-17225b2b2857" opacity="1.000" fill="none" stroke="#000000" stroke-width="0.843" stroke-opacity="1.000" stroke-linecap="round" stroke-linejoin="round" d="M 1136.873 1550.093 Q 1137.047 1549.818 1136.074 1551.122 Q 1135.100 1552.427 1134.472 1553.252 Q 1133.844 1554.078 1133.356 1554.683 Q 1132.868 1555.287 1131.934 1556.248 Q 1132.146 1555.544 1133.752 1553.751 Q 1135.358 1551.957 1136.604 1550.822 Q 1137.851 1549.687 1138.833 1549.270 Q 1139.815 1548.853 1140.609 1548.713 Q 1141.404 1548.573 1141.732 1549.864 Q 1142.060 1551.156 1142.008 1551.986 Q 1141.955 1552.816 1142.031 1553.402 Q 1142.107 1553.989 1141.929 1554.509 Q 1141.751 1555.030 1141.438 1555.127 Q 1141.124 1555.224 1141.009 1555.096 Q 1140.895 1554.969 1140.603 1554.612 Q 1140.310 1554.256 1140.278 1554.183 Q 1140.245 1554.110 1139.999 1553.657 Q 1139.753 1553.204 1139.769 1553.324 Q 1139.785 1553.444 1139.540 1552.646 Q 1139.294 1551.848 1139.104 1551.181 Q 1138.914 1550.513 1138.549 1550.329 Q 1138.185 1550.145 1138.229 1550.082 Q 1138.272 1550.018 1137.807 1550.474 Q 1137.342 1550.930 1137.192 1551.135 Q 1137.041 1551.340 1136.480 1553.594 Q 1136.953 1553.474 1136.759 1553.621 Q 1136.565 1553.768 1136.871 1553.549 Q 1137.178 1553.330 1137.829 1552.827 Q 1138.481 1552.323 1138.391 1552.394 Q 1138.302 1552.465 1138.599 1552.205 Q 1138.897 1551.945 1139.497 1551.803 Q 1140.098 1551.661 1140.176 1551.637 "></path>
    <path id="STROKE_b1fa148c-7227-49f4-b846-ce29700b13f6" opacity="1.000" fill="none" stroke="#000000" stroke-width="0.817" stroke-opacity="1.000" stroke-linecap="round" stroke-linejoin="round" d="M 1146.971 1547.239 Q 1146.971 1546.774 1146.971 1549.739 Q 1146.731 1550.807 1150.620 1539.822 Q 1150.787 1541.175 1150.320 1544.492 Q 1149.853 1547.809 1149.519 1552.745 Q 1149.478 1553.083 1149.640 1551.860 Q 1149.803 1550.637 1150.185 1549.887 Q 1150.567 1549.137 1150.782 1549.077 Q 1150.998 1549.017 1151.651 1549.073 Q 1152.304 1549.128 1152.392 1549.210 Q 1152.481 1549.293 1152.484 1549.295 Q 1152.486 1549.297 1153.106 1549.385 "></path>
    <path id="STROKE_1ffdb81b-2af3-4e14-803e-6a39f4c388be" opacity="1.000" fill="none" stroke="#000000" stroke-width="0.848" stroke-opacity="1.000" stroke-linecap="round" stroke-linejoin="round" d="M 1157.116 1540.872 Q 1156.599 1541.728 1155.969 1543.218 Q 1155.339 1544.708 1153.216 1547.039 Q 1153.402 1546.385 1155.995 1545.064 Q 1158.589 1543.744 1161.505 1543.030 Q 1162.192 1543.846 1156.409 1548.182 Q 1156.673 1548.323 1161.552 1546.484 "></path>
    <path id="STROKE_f70520a8-f263-4018-97e0-1bc5366e6924" opacity="1.000" fill="none" stroke="#000000" stroke-width="0.743" stroke-opacity="1.000" stroke-linecap="round" stroke-linejoin="round" d="M 1159.413 1541.721 Q 1159.342 1541.637 1159.139 1544.127 Q 1158.936 1546.617 1158.429 1548.495 Q 1157.922 1550.374 1157.336 1551.406 Q 1156.750 1552.439 1156.558 1552.550 Q 1156.366 1552.661 1155.374 1552.644 Q 1154.382 1552.627 1153.467 1552.887 Q 1154.512 1552.885 1157.949 1550.652 Q 1161.386 1548.419 1167.206 1548.277 Q 1173.027 1548.135 1173.302 1548.088 "></path>
    <path id="STROKE_ff52d11b-98aa-4d2a-ab8c-4e7455431b33" opacity="1.000" fill="none" stroke="#000000" stroke-width="0.880" stroke-opacity="1.000" stroke-linecap="round" stroke-linejoin="round" d="M 1173.553 1537.865 Q 1173.384 1537.771 1173.707 1537.070 Q 1174.030 1536.369 1177.069 1536.090 Q 1177.042 1537.271 1177.148 1537.113 Q 1177.254 1536.955 1175.693 1539.068 "></path>
    <path id="STROKE_d7ccc008-c9bb-4247-8cc6-c968c2915d95" opacity="1.000" fill="none" stroke="#000000" stroke-width="0.883" stroke-opacity="1.000" stroke-linecap="round" stroke-linejoin="round" d="M 1170.707 1542.475 Q 1170.614 1542.736 1173.118 1541.418 Q 1175.622 1540.099 1175.645 1540.023 "></path>
    <path id="STROKE_9bad7f1a-4923-4a25-9d5a-72f5529a5583" opacity="1.000" fill="none" stroke="#000000" stroke-width="0.883" stroke-opacity="1.000" stroke-linecap="round" stroke-linejoin="round" d="M 1173.648 1542.676 Q 1173.502 1542.435 1173.420 1545.753 Q 1173.567 1545.782 1173.947 1545.777 "></path>
    <path id="STROKE_78bab095-009e-4ee7-a8b9-3a6e17833595" opacity="1.000" fill="none" stroke="#000000" stroke-width="0.883" stroke-opacity="1.000" stroke-linecap="round" stroke-linejoin="round" d="M 1175.598 1541.874 Q 1175.271 1542.165 1175.425 1544.627 Q 1175.904 1544.779 1175.952 1544.753 Q 1175.999 1544.728 1176.102 1544.728 "></path>
    <path id="STROKE_71ba99d1-d934-4bb0-9f95-3f8bc458ac2c" opacity="1.000" fill="none" stroke="#000000" stroke-width="0.883" stroke-opacity="1.000" stroke-linecap="round" stroke-linejoin="round" d="M 1172.295 1546.378 Q 1171.909 1546.529 1170.895 1546.685 Q 1170.182 1545.619 1174.365 1544.896 Q 1178.547 1544.173 1178.650 1544.173 "></path>
    <path id="STROKE_856182a8-6d1a-4c7a-8c3a-20e37921af1a" opacity="1.000" fill="none" stroke="#000000" stroke-width="0.823" stroke-opacity="1.000" stroke-linecap="round" stroke-linejoin="round" d="M 1173.145 1549.291 Q 1172.995 1549.314 1172.547 1549.314 Q 1172.171 1548.751 1176.927 1546.331 Q 1177.332 1546.428 1175.899 1548.938 Q 1174.466 1551.447 1171.202 1552.769 Q 1170.821 1552.764 1171.176 1551.675 Q 1171.531 1550.586 1171.779 1550.122 Q 1172.028 1549.658 1172.458 1549.290 Q 1172.888 1548.922 1173.527 1549.099 Q 1174.166 1549.276 1175.572 1549.993 Q 1176.977 1550.710 1178.205 1550.908 Q 1179.433 1551.106 1180.960 1551.100 Q 1182.488 1551.095 1182.786 1551.095 "></path>
    <path id="STROKE_c19bbef9-1f89-4b04-ad69-2238af07b51c" opacity="1.000" fill="none" stroke="#000000" stroke-width="0.793" stroke-opacity="1.000" stroke-linecap="round" stroke-linejoin="round" d="M 1189.739 1537.370 Q 1190.195 1536.543 1183.589 1544.574 Q 1183.525 1544.584 1184.314 1543.449 Q 1185.102 1542.315 1187.089 1542.452 Q 1187.707 1542.190 1186.939 1550.788 Q 1186.963 1550.788 1187.647 1550.293 "></path>
    <path id="STROKE_58cdd519-f746-499e-9574-1178b6e7e9ee" opacity="1.000" fill="none" stroke="#000000" stroke-width="0.730" stroke-opacity="1.000" stroke-linecap="round" stroke-linejoin="round" d="M 1192.193 1543.277 Q 1191.908 1543.631 1187.191 1547.982 "></path>
    <path id="STROKE_144d4a71-16df-42cf-81eb-5f6a002d81be" opacity="1.000" fill="none" stroke="#000000" stroke-width="0.864" stroke-opacity="1.000" stroke-linecap="round" stroke-linejoin="round" d="M 1190.635 1540.872 Q 1190.734 1540.746 1190.950 1543.376 Q 1191.166 1546.006 1191.177 1547.782 Q 1191.188 1549.559 1191.147 1550.474 Q 1191.107 1551.390 1192.997 1551.688 Q 1194.886 1551.985 1196.986 1551.550 Q 1199.086 1551.114 1200.436 1550.652 Q 1201.786 1550.189 1201.936 1548.873 Q 1202.086 1547.557 1202.086 1547.380 "></path>
    <path id="STROKE_a7e8d938-fa5f-4920-97a6-71284bd605fe" opacity="1.000" fill="none" stroke="#000000" stroke-width="0.856" stroke-opacity="1.000" stroke-linecap="round" stroke-linejoin="round" d="M 1011.857 1547.333 Q 1012.007 1546.977 1013.102 1546.743 Q 1014.198 1546.510 1014.736 1546.557 Q 1015.274 1546.604 1015.542 1546.514 Q 1015.809 1546.425 1016.162 1547.667 Q 1016.515 1548.909 1015.454 1551.698 Q 1014.393 1554.486 1012.360 1556.495 Q 1012.440 1556.478 1014.276 1555.850 Q 1016.113 1555.222 1018.393 1555.296 Q 1020.673 1555.369 1020.854 1555.339 "></path>
    <path id="STROKE_e9b68545-0dd1-46c3-b74b-be6d4b205a7b" opacity="1.000" fill="none" stroke="#000000" stroke-width="0.692" stroke-opacity="1.000" stroke-linecap="round" stroke-linejoin="round" d="M 1031.440 1540.329 Q 1031.616 1540.217 1030.406 1543.042 Q 1029.196 1545.867 1028.195 1547.815 Q 1027.194 1549.763 1025.015 1551.590 Q 1024.975 1550.820 1025.034 1550.530 Q 1025.093 1550.240 1025.195 1549.986 "></path>
    <path id="STROKE_06dc59a7-e6d5-4b93-96cb-39fd5b62b030" opacity="1.000" fill="none" stroke="#000000" stroke-width="0.883" stroke-opacity="1.000" stroke-linecap="round" stroke-linejoin="round" d="M 1027.791 1546.484 Q 1027.964 1546.368 1028.768 1545.362 Q 1029.573 1544.356 1034.633 1548.229 Q 1034.633 1548.206 1034.633 1548.182 "></path>
    <path id="STROKE_afbaae55-c381-45fb-959d-895edd0145ef" opacity="1.000" fill="none" stroke="#000000" stroke-width="0.793" stroke-opacity="1.000" stroke-linecap="round" stroke-linejoin="round" d="M 1032.289 1545.529 Q 1032.026 1545.319 1031.781 1545.127 Q 1031.536 1544.936 1030.913 1544.775 Q 1030.348 1544.606 1030.619 1551.264 Q 1030.889 1557.922 1030.984 1558.299 "></path>
    <path id="STROKE_e1b608ea-7b39-48b3-9f59-b19fd5563a0a" opacity="1.000" fill="none" stroke="#000000" stroke-width="0.620" stroke-opacity="1.000" stroke-linecap="round" stroke-linejoin="round" d="M 1038.393 1541.792 Q 1038.296 1541.518 1038.305 1541.587 Q 1038.282 1541.575 1038.248 1541.575 Q 1038.514 1542.185 1038.455 1542.045 Q 1038.396 1541.905 1038.619 1542.377 Q 1038.841 1542.849 1039.041 1543.207 Q 1039.241 1543.564 1039.633 1543.873 Q 1040.025 1544.182 1040.732 1544.153 Q 1041.439 1544.123 1044.419 1542.061 Q 1044.520 1542.613 1043.439 1543.980 Q 1042.358 1545.347 1041.409 1546.117 Q 1040.460 1546.887 1039.338 1547.178 Q 1039.427 1546.870 1040.406 1546.262 Q 1041.385 1545.653 1042.944 1545.197 Q 1044.503 1544.742 1045.471 1544.551 Q 1046.438 1544.359 1046.917 1544.290 Q 1047.396 1544.220 1047.614 1543.951 Q 1047.832 1543.683 1047.877 1543.563 "></path>
    <path id="STROKE_6226e319-5f66-4eae-8307-63651b9bfb4f" opacity="1.000" fill="none" stroke="#000000" stroke-width="0.550" stroke-opacity="1.000" stroke-linecap="round" stroke-linejoin="round" d="M 1042.964 1540.313 Q 1042.952 1540.313 1042.819 1540.313 Q 1042.768 1540.873 1042.819 1554.208 Q 1042.819 1554.073 1042.789 1553.438 Q 1042.758 1552.803 1042.697 1552.511 "></path>
    <path id="STROKE_285b23bd-1cdd-4625-8116-f6e296002619" opacity="1.000" fill="none" stroke="#000000" stroke-width="0.576" stroke-opacity="1.000" stroke-linecap="round" stroke-linejoin="round" d="M 1041.928 1548.365 Q 1041.074 1548.095 1039.025 1552.957 Q 1039.374 1552.984 1039.945 1552.141 Q 1040.515 1551.297 1040.912 1550.847 Q 1041.309 1550.396 1041.777 1550.175 Q 1042.245 1549.953 1042.828 1550.250 Q 1043.412 1550.547 1045.120 1552.391 Q 1045.203 1552.329 1045.264 1552.266 "></path>
    <path id="STROKE_b559a1d4-6bf3-4165-97a5-d2f44940f24b" opacity="1.000" fill="none" stroke="#000000" stroke-width="0.704" stroke-opacity="1.000" stroke-linecap="round" stroke-linejoin="round" d="M 1047.489 1541.381 Q 1047.672 1541.255 1047.687 1540.702 Q 1047.832 1541.181 1048.660 1542.166 Q 1049.489 1543.152 1049.576 1543.249 "></path>
    <path id="STROKE_3e90641b-5b13-4303-9572-06c83d0a6657" opacity="1.000" fill="none" stroke="#000000" stroke-width="0.577" stroke-opacity="1.000" stroke-linecap="round" stroke-linejoin="round" d="M 1047.687 1545.721 Q 1047.506 1545.788 1047.504 1545.767 Q 1047.466 1545.767 1047.397 1545.767 Q 1047.222 1545.711 1050.201 1544.848 Q 1050.478 1544.633 1049.879 1545.120 Q 1049.279 1545.607 1049.029 1545.987 Q 1048.779 1546.368 1048.675 1546.842 Q 1048.572 1547.316 1048.499 1547.678 Q 1048.426 1548.040 1048.405 1548.319 Q 1048.383 1548.599 1048.344 1548.764 Q 1048.304 1548.930 1048.426 1550.219 Q 1049.189 1551.162 1051.911 1546.275 Q 1051.909 1546.060 1052.003 1547.251 Q 1052.097 1548.443 1051.796 1549.499 Q 1051.496 1550.555 1051.091 1551.310 Q 1050.685 1552.064 1049.721 1552.685 Q 1048.758 1553.305 1047.009 1553.773 Q 1047.204 1554.000 1048.773 1553.513 Q 1050.341 1553.027 1051.635 1552.755 Q 1052.929 1552.483 1054.460 1552.622 Q 1055.990 1552.760 1057.392 1553.260 Q 1058.794 1553.759 1059.038 1553.819 "></path>
  </g>
</svg>