<?xml version="1.0" encoding="UTF-8" standalone="yes"?>
<svg xmlns="http://www.w3.org/2000/svg" xmlns:xlink="http://www.w3.org/1999/xlink" width="27.185mm" height="27.357mm" version="1.1" viewBox="1056.355 1326.001 141.277 142.168">
  <!--
	Exported with Concepts: Smarter Sketching
	Version: 1057 on iOS 15.4
	https://concepts.app/
	-->
  <title>构想粒子系统之势能动力交互</title>
  <desc>Drawing exported from Concepts: Smarter Sketching</desc>
  <defs></defs>
  <g id="图解" opacity="1.000">
    <path id="STROKE_050cddb8-d466-41ad-95ed-ded827171657" opacity="1.000" fill="none" stroke="#000000" stroke-width="0.752" stroke-opacity="1.000" stroke-linecap="round" stroke-linejoin="round" d="M 1062.953 1332.003 Q 1063.242 1332.332 1058.501 1339.762 Q 1058.385 1339.128 1062.048 1336.460 Q 1062.553 1336.347 1061.671 1347.626 Q 1062.704 1347.454 1062.887 1347.024 Q 1063.071 1346.595 1063.252 1346.318 "></path>
    <path id="STROKE_fe269261-9656-41bd-bd8b-6471b09a4044" opacity="1.000" fill="none" stroke="#000000" stroke-width="0.697" stroke-opacity="1.000" stroke-linecap="round" stroke-linejoin="round" d="M 1070.393 1335.352 Q 1070.668 1335.471 1068.613 1338.380 Q 1066.557 1341.289 1064.728 1342.453 Q 1062.898 1343.617 1062.795 1343.617 "></path>
    <path id="STROKE_e6e8593c-fb24-4ab2-9914-febf806c4e9d" opacity="1.000" fill="none" stroke="#000000" stroke-width="0.863" stroke-opacity="1.000" stroke-linecap="round" stroke-linejoin="round" d="M 1066.838 1333.607 Q 1066.984 1334.077 1066.405 1337.062 Q 1065.826 1340.049 1065.785 1341.325 Q 1065.744 1342.601 1065.875 1343.958 Q 1066.006 1345.315 1067.914 1345.130 Q 1069.822 1344.945 1070.769 1344.957 Q 1071.715 1344.968 1072.475 1345.200 Q 1073.234 1345.432 1074.089 1345.822 Q 1074.060 1344.657 1074.042 1344.991 Q 1073.820 1345.211 1073.577 1342.687 Q 1073.334 1340.163 1073.334 1340.009 "></path>
    <path id="STROKE_db135956-0384-408e-a5ef-a7a933f44b85" opacity="1.000" fill="none" stroke="#000000" stroke-width="0.883" stroke-opacity="1.000" stroke-linecap="round" stroke-linejoin="round" d="M 1079.091 1330.954 Q 1079.077 1330.854 1079.203 1331.960 Q 1079.329 1333.066 1079.589 1333.486 Q 1079.849 1333.906 1080.193 1333.892 Q 1080.538 1333.878 1081.136 1333.548 "></path>
    <path id="STROKE_3a62a2bb-1c7f-4340-bfe8-41b92bdf7bb8" opacity="1.000" fill="none" stroke="#000000" stroke-width="0.883" stroke-opacity="1.000" stroke-linecap="round" stroke-linejoin="round" d="M 1084.376 1331.697 Q 1084.376 1331.750 1084.407 1331.927 Q 1085.291 1331.976 1085.162 1331.956 Q 1086.297 1331.502 1087.016 1330.901 Q 1087.734 1330.299 1087.836 1330.199 "></path>
    <path id="STROKE_d120a61e-4cb7-4004-b073-f7d47e39a2df" opacity="1.000" fill="none" stroke="#000000" stroke-width="0.855" stroke-opacity="1.000" stroke-linecap="round" stroke-linejoin="round" d="M 1087.537 1330.600 Q 1087.885 1330.586 1086.201 1331.431 Q 1084.518 1332.277 1083.363 1332.812 Q 1082.209 1333.348 1081.507 1333.945 Q 1080.805 1334.543 1080.035 1336.802 Q 1080.445 1336.600 1080.416 1336.589 Q 1080.388 1336.579 1080.420 1336.548 Q 1080.453 1336.518 1080.780 1336.080 Q 1081.107 1335.641 1081.696 1335.095 Q 1082.284 1334.549 1083.521 1333.443 Q 1084.758 1332.338 1089.228 1331.797 Q 1089.464 1331.883 1089.558 1332.591 Q 1089.653 1333.299 1089.265 1334.285 Q 1088.876 1335.272 1088.427 1335.604 Q 1087.978 1335.936 1087.773 1336.059 "></path>
    <path id="STROKE_826f3a9e-79b9-4c99-8263-50eb31ba61b9" opacity="1.000" fill="none" stroke="#000000" stroke-width="0.823" stroke-opacity="1.000" stroke-linecap="round" stroke-linejoin="round" d="M 1085.980 1335.906 Q 1086.846 1337.359 1087.286 1346.023 Q 1087.916 1346.163 1086.723 1346.127 Q 1085.529 1346.090 1084.645 1345.635 Q 1083.760 1345.180 1083.430 1344.946 Q 1083.099 1344.712 1082.799 1344.475 Q 1082.499 1344.238 1082.181 1344.002 Q 1081.864 1343.765 1081.787 1343.642 Q 1081.711 1343.518 1081.363 1343.147 Q 1081.015 1342.776 1081.051 1342.421 Q 1081.087 1342.066 1080.920 1342.027 Q 1080.753 1341.988 1082.292 1341.310 Q 1083.832 1340.632 1086.419 1340.390 Q 1089.006 1340.148 1090.935 1340.115 "></path>
    <path id="STROKE_5b7a9a1f-794e-4e40-8b2d-ddb065c45ae5" opacity="1.000" fill="none" stroke="#000000" stroke-width="0.883" stroke-opacity="1.000" stroke-linecap="round" stroke-linejoin="round" d="M 1083.637 1329.751 Q 1083.542 1329.939 1083.998 1330.844 Q 1084.455 1331.750 1084.533 1331.850 "></path>
    <path id="STROKE_de49e157-ca80-4c7d-a91a-aed24c0e3b9f" opacity="1.000" fill="none" stroke="#000000" stroke-width="0.883" stroke-opacity="1.000" stroke-linecap="round" stroke-linejoin="round" d="M 1090.479 1328.041 Q 1090.306 1328.195 1088.929 1329.772 Q 1087.553 1331.349 1087.380 1331.496 "></path>
    <path id="STROKE_5ec9473f-ba95-4a1c-ba20-63c845381ab8" opacity="1.000" fill="none" stroke="#000000" stroke-width="0.805" stroke-opacity="1.000" stroke-linecap="round" stroke-linejoin="round" d="M 1099.224 1331.249 Q 1099.372 1330.696 1106.295 1329.969 Q 1107.135 1331.292 1100.766 1334.456 Q 1099.470 1334.689 1105.422 1333.453 Q 1105.422 1333.477 1105.268 1333.565 Q 1105.115 1333.654 1104.965 1333.701 "></path>
    <path id="STROKE_47fe7202-530a-43e7-8029-85721c6998a0" opacity="1.000" fill="none" stroke="#000000" stroke-width="0.699" stroke-opacity="1.000" stroke-linecap="round" stroke-linejoin="round" d="M 1099.728 1332.204 Q 1100.058 1332.185 1098.668 1337.095 Q 1097.277 1342.004 1094.427 1347.968 Q 1094.450 1347.968 1094.977 1347.482 Q 1095.504 1346.996 1095.780 1346.719 "></path>
    <path id="STROKE_b3a3624d-e72b-4948-8509-6630aa604aa5" opacity="1.000" fill="none" stroke="#000000" stroke-width="0.870" stroke-opacity="1.000" stroke-linecap="round" stroke-linejoin="round" d="M 1103.974 1336.260 Q 1104.021 1336.452 1101.065 1338.205 Q 1100.799 1337.916 1102.771 1337.156 Q 1102.965 1337.560 1103.566 1339.868 Q 1103.628 1339.975 1103.736 1339.947 Q 1103.845 1339.920 1104.034 1339.818 Q 1104.224 1339.715 1104.412 1339.542 Q 1104.599 1339.368 1104.541 1339.411 Q 1104.483 1339.455 1104.972 1338.712 Q 1105.460 1337.970 1105.769 1337.710 Q 1106.077 1337.450 1106.566 1337.369 Q 1107.055 1337.287 1107.022 1337.305 Q 1106.989 1337.323 1107.026 1337.314 Q 1107.063 1337.305 1107.314 1337.410 Q 1107.565 1337.515 1107.500 1337.556 Q 1107.435 1337.596 1107.549 1337.478 Q 1107.664 1337.360 1107.264 1338.049 Q 1106.864 1338.738 1105.934 1339.146 Q 1105.004 1339.553 1104.160 1340.141 Q 1103.316 1340.728 1101.867 1341.766 Q 1102.162 1341.713 1102.484 1341.511 Q 1102.807 1341.309 1102.886 1341.275 Q 1102.966 1341.240 1103.422 1340.831 Q 1103.877 1340.422 1106.594 1339.514 Q 1106.883 1339.425 1106.436 1340.183 Q 1105.988 1340.941 1105.815 1341.118 "></path>
    <path id="STROKE_0e77d054-37e0-41a6-8d5c-840ebdf20191" opacity="1.000" fill="none" stroke="#000000" stroke-width="0.856" stroke-opacity="1.000" stroke-linecap="round" stroke-linejoin="round" d="M 1100.026 1344.066 Q 1099.323 1344.816 1098.973 1347.320 Q 1098.986 1347.368 1100.087 1345.860 Q 1101.187 1344.351 1101.919 1343.518 Q 1102.650 1342.685 1103.632 1341.844 Q 1104.614 1341.002 1106.696 1341.165 Q 1107.387 1340.961 1106.546 1346.825 Q 1106.405 1346.750 1106.326 1344.848 Q 1106.247 1342.945 1106.224 1342.721 "></path>
    <path id="STROKE_f9aba0a4-1816-4381-a104-2d755d674292" opacity="1.000" fill="none" stroke="#000000" stroke-width="0.838" stroke-opacity="1.000" stroke-linecap="round" stroke-linejoin="round" d="M 1104.462 1339.314 Q 1104.388 1339.582 1103.608 1341.225 Q 1102.827 1342.868 1102.024 1345.669 Q 1102.350 1345.703 1106.641 1343.146 Q 1106.680 1343.802 1106.664 1343.694 Q 1106.664 1344.495 1106.664 1344.366 Q 1106.664 1345.242 1106.664 1345.121 Q 1106.664 1346.000 1106.664 1345.946 Q 1106.939 1347.000 1106.754 1346.811 Q 1106.568 1346.621 1106.843 1346.887 Q 1107.118 1347.153 1107.385 1347.156 Q 1107.653 1347.160 1108.363 1346.872 "></path>
    <path id="STROKE_4857f59a-64c9-4304-a46d-6ec43352913a" opacity="1.000" fill="none" stroke="#000000" stroke-width="0.729" stroke-opacity="1.000" stroke-linecap="round" stroke-linejoin="round" d="M 1114.812 1336.213 Q 1114.364 1336.037 1113.821 1341.861 Q 1114.212 1342.057 1115.094 1338.723 Q 1115.975 1335.389 1117.785 1332.156 L 1117.840 1332.156 Q 1118.312 1332.236 1115.520 1350.126 Q 1115.462 1348.540 1118.036 1340.316 Q 1118.272 1340.411 1118.340 1341.043 Q 1118.408 1341.674 1118.963 1341.967 Q 1119.517 1342.260 1119.949 1342.051 Q 1120.380 1341.843 1120.506 1341.719 "></path>
    <path id="STROKE_a2614791-86a5-4cbd-8157-0373d9bbdc16" opacity="1.000" fill="none" stroke="#000000" stroke-width="0.785" stroke-opacity="1.000" stroke-linecap="round" stroke-linejoin="round" d="M 1125.162 1334.208 Q 1124.226 1334.309 1120.065 1342.816 Q 1120.275 1342.868 1122.381 1340.739 Q 1124.487 1338.610 1128.253 1338.034 Q 1128.140 1337.826 1128.286 1338.209 Q 1128.432 1338.592 1128.184 1339.497 Q 1127.936 1340.401 1126.480 1341.646 Q 1125.024 1342.890 1121.701 1343.323 Q 1121.732 1343.487 1124.705 1342.388 Q 1127.678 1341.289 1127.710 1341.259 "></path>
    <path id="STROKE_8cd843ac-22d2-4d31-939e-7fd124be5b39" opacity="1.000" fill="none" stroke="#000000" stroke-width="0.860" stroke-opacity="1.000" stroke-linecap="round" stroke-linejoin="round" d="M 1126.105 1334.503 Q 1126.081 1334.719 1125.872 1337.440 Q 1125.663 1340.161 1125.414 1342.042 Q 1125.166 1343.923 1123.836 1345.225 Q 1122.506 1346.528 1120.065 1347.568 Q 1120.209 1347.210 1122.712 1346.214 Q 1125.216 1345.218 1127.438 1344.969 Q 1129.660 1344.721 1131.044 1344.770 Q 1132.429 1344.820 1132.555 1344.820 "></path>
    <path id="STROKE_c8fc2530-89ee-4938-9689-ffe32602879b" opacity="1.000" fill="none" stroke="#000000" stroke-width="0.883" stroke-opacity="1.000" stroke-linecap="round" stroke-linejoin="round" d="M 1142.889 1344.867 Q 1142.840 1344.909 1142.999 1345.917 "></path>
    <path id="STROKE_a4902eb1-7766-4076-abb2-37b2188682f7" opacity="1.000" fill="none" stroke="#000000" stroke-width="0.883" stroke-opacity="1.000" stroke-linecap="round" stroke-linejoin="round" d="M 1141.552 1348.523 Q 1141.492 1348.480 1141.448 1348.570 Q 1141.405 1348.660 1141.239 1349.051 Q 1141.073 1349.441 1141.084 1349.822 Q 1141.095 1350.203 1141.095 1350.279 "></path>
    <path id="STROKE_f92283cd-9fca-4e44-8542-bc45f8d20e27" opacity="1.000" fill="none" stroke="#000000" stroke-width="0.857" stroke-opacity="1.000" stroke-linecap="round" stroke-linejoin="round" d="M 1133.546 1383.872 Q 1134.168 1383.611 1136.052 1383.225 Q 1137.935 1382.839 1142.244 1381.172 Q 1142.220 1381.196 1142.220 1381.243 Q 1142.244 1381.172 1142.244 1381.125 "></path>
    <path id="STROKE_0759f59c-1434-4bc8-81af-39b6d7b63fea" opacity="1.000" fill="none" stroke="#000000" stroke-width="0.708" stroke-opacity="1.000" stroke-linecap="round" stroke-linejoin="round" d="M 1139.491 1377.364 Q 1139.491 1377.582 1139.491 1392.940 Q 1139.672 1393.139 1139.707 1391.784 Q 1139.743 1390.428 1139.743 1390.228 "></path>
    <path id="STROKE_313e597d-199d-4f95-877d-28cdbbab01a3" opacity="1.000" fill="none" stroke="#000000" stroke-width="0.814" stroke-opacity="1.000" stroke-linecap="round" stroke-linejoin="round" d="M 1137.855 1385.523 Q 1137.796 1385.358 1134.395 1390.582 Q 1134.842 1390.247 1136.407 1388.319 Q 1137.971 1386.392 1140.820 1385.075 Q 1140.514 1384.502 1141.096 1386.216 Q 1141.677 1387.930 1141.981 1389.090 Q 1142.284 1390.251 1143.259 1391.444 Q 1144.234 1392.638 1146.188 1392.037 Q 1148.142 1391.437 1148.347 1391.289 "></path>
    <path id="STROKE_0838791a-799e-4a4f-9d4f-5ca56803b765" opacity="1.000" fill="none" stroke="#000000" stroke-width="0.883" stroke-opacity="1.000" stroke-linecap="round" stroke-linejoin="round" d="M 1177.729 1413.622 Q 1177.801 1413.813 1178.171 1414.531 Q 1178.541 1415.249 1179.062 1415.432 Q 1179.584 1415.615 1180.041 1415.479 Q 1180.497 1415.343 1180.623 1415.213 "></path>
    <path id="STROKE_9ce4f38b-5c3f-4f27-92a3-4931b4c12d6c" opacity="1.000" fill="none" stroke="#000000" stroke-width="0.586" stroke-opacity="1.000" stroke-linecap="round" stroke-linejoin="round" d="M 1183.675 1408.209 Q 1184.062 1408.835 1182.592 1413.825 Q 1181.122 1418.815 1178.169 1423.432 Q 1178.169 1423.408 1178.169 1423.385 "></path>
    <path id="STROKE_f8550e5a-31ad-429b-ba74-2ac3ba6b7b3e" opacity="1.000" fill="none" stroke="#000000" stroke-width="0.784" stroke-opacity="1.000" stroke-linecap="round" stroke-linejoin="round" d="M 1188.613 1411.216 Q 1189.513 1410.763 1181.818 1416.168 Q 1182.363 1415.884 1183.227 1416.535 Q 1184.091 1417.186 1185.277 1418.293 Q 1186.464 1419.400 1187.267 1419.986 Q 1188.069 1420.572 1189.107 1421.148 Q 1190.144 1421.724 1195.408 1421.132 "></path>
    <path id="STROKE_5196650e-f86e-4302-95ff-58819b9affe6" opacity="1.000" fill="none" stroke="#000000" stroke-width="0.697" stroke-opacity="1.000" stroke-linecap="round" stroke-linejoin="round" d="M 1162.424 1460.338 Q 1163.697 1460.445 1169.172 1458.805 Q 1169.172 1458.758 1169.172 1458.734 "></path>
    <path id="STROKE_1a26495a-cbe2-46fb-81ee-3749fdcd44c4" opacity="1.000" fill="none" stroke="#000000" stroke-width="0.818" stroke-opacity="1.000" stroke-linecap="round" stroke-linejoin="round" d="M 1166.184 1455.174 Q 1166.022 1454.846 1166.157 1457.522 Q 1166.293 1460.198 1166.135 1461.883 Q 1165.977 1463.568 1165.412 1464.594 Q 1164.847 1465.620 1164.288 1465.632 Q 1163.730 1465.644 1163.635 1465.644 "></path>
    <path id="STROKE_dc74c9d9-cf7f-4c37-a9a9-2d677369b7c4" opacity="1.000" fill="none" stroke="#000000" stroke-width="0.695" stroke-opacity="1.000" stroke-linecap="round" stroke-linejoin="round" d="M 1157.139 1465.892 Q 1157.037 1465.892 1156.730 1465.892 L 1156.730 1465.868 Q 1157.600 1464.344 1165.474 1464.705 Q 1173.348 1465.066 1173.419 1465.090 "></path>
    <path id="STROKE_b0b285f3-c808-4657-9e08-5436b06df35a" opacity="1.000" fill="none" stroke="#000000" stroke-width="0.684" stroke-opacity="1.000" stroke-linecap="round" stroke-linejoin="round" d="M 1108.615 1439.350 Q 1108.653 1439.132 1107.568 1441.956 Q 1106.482 1444.781 1102.968 1447.863 "></path>
    <path id="STROKE_99b417d9-d294-4911-a249-27a87eeb872f" opacity="1.000" fill="none" stroke="#000000" stroke-width="0.883" stroke-opacity="1.000" stroke-linecap="round" stroke-linejoin="round" d="M 1108.662 1441.307 Q 1108.436 1441.158 1109.440 1442.258 Q 1110.445 1443.357 1111.964 1444.207 Q 1113.483 1445.057 1113.506 1445.057 "></path>
    <path id="STROKE_17a6f777-e270-44f5-860a-31b5825f313d" opacity="1.000" fill="none" stroke="#000000" stroke-width="0.883" stroke-opacity="1.000" stroke-linecap="round" stroke-linejoin="round" d="M 1107.561 1448.170 Q 1108.160 1447.970 1108.233 1447.955 Q 1108.305 1447.940 1108.412 1447.924 Q 1108.520 1447.908 1108.854 1447.869 Q 1109.188 1447.830 1109.865 1447.799 Q 1110.542 1447.769 1110.770 1447.769 "></path>
    <path id="STROKE_98b042ea-b23f-42ac-89d4-fc451a6d35fd" opacity="1.000" fill="none" stroke="#000000" stroke-width="0.883" stroke-opacity="1.000" stroke-linecap="round" stroke-linejoin="round" d="M 1108.615 1451.518 Q 1108.687 1451.520 1111.462 1451.165 "></path>
    <path id="STROKE_5c25eb5e-fd44-41f5-a4e5-8bbb366d8962" opacity="1.000" fill="none" stroke="#000000" stroke-width="0.883" stroke-opacity="1.000" stroke-linecap="round" stroke-linejoin="round" d="M 1110.172 1449.066 Q 1110.262 1448.948 1109.800 1451.459 Q 1109.338 1453.971 1109.260 1454.219 "></path>
    <path id="STROKE_db866d0a-f4bd-4edc-8803-a16748e2a121" opacity="1.000" fill="none" stroke="#000000" stroke-width="0.703" stroke-opacity="1.000" stroke-linecap="round" stroke-linejoin="round" d="M 1106.413 1457.025 Q 1106.016 1456.987 1109.529 1456.635 Q 1113.042 1456.282 1113.066 1456.282 "></path>
    <path id="STROKE_23b63507-8742-4337-a9bc-8180e5695ed9" opacity="1.000" fill="none" stroke="#000000" stroke-width="0.851" stroke-opacity="1.000" stroke-linecap="round" stroke-linejoin="round" d="M 1105.170 1453.429 Q 1105.140 1453.762 1105.202 1454.217 Q 1105.264 1454.673 1106.224 1454.890 Q 1107.184 1455.108 1108.377 1454.880 Q 1109.570 1454.652 1114.214 1451.919 Q 1114.224 1452.022 1111.931 1454.111 Q 1109.637 1456.199 1109.558 1456.223 "></path>
    <path id="STROKE_6803e71e-8e23-4c88-a5c0-a194db180ce6" opacity="1.000" fill="none" stroke="#000000" stroke-width="0.742" stroke-opacity="1.000" stroke-linecap="round" stroke-linejoin="round" d="M 1099.822 1401.995 Q 1099.939 1402.950 1099.995 1402.827 Q 1100.084 1402.300 1100.828 1406.112 Q 1101.571 1409.924 1100.601 1414.624 Q 1099.768 1414.563 1099.971 1414.417 Q 1099.726 1413.798 1099.720 1413.816 Q 1099.728 1413.841 1098.926 1412.018 "></path>
    <path id="STROKE_91c6013d-c33b-4594-b4d0-a297f533ff41" opacity="1.000" fill="none" stroke="#000000" stroke-width="0.883" stroke-opacity="1.000" stroke-linecap="round" stroke-linejoin="round" d="M 1095.670 1407.207 Q 1096.201 1407.261 1096.646 1407.186 Q 1097.091 1407.111 1097.464 1407.444 Q 1097.837 1407.777 1097.818 1408.185 Q 1097.799 1408.592 1098.141 1409.017 Q 1098.484 1409.441 1093.876 1413.362 Q 1094.059 1413.343 1094.235 1413.215 Q 1094.411 1413.087 1095.028 1412.664 Q 1095.646 1412.242 1095.874 1412.065 "></path>
    <path id="STROKE_d9d315a5-bd35-4dce-be34-be5d6b2e35e0" opacity="1.000" fill="none" stroke="#000000" stroke-width="0.865" stroke-opacity="1.000" stroke-linecap="round" stroke-linejoin="round" d="M 1103.424 1405.356 Q 1103.444 1405.752 1099.618 1408.233 Q 1099.281 1408.040 1101.154 1409.456 Q 1103.027 1410.871 1103.112 1410.911 "></path>
    <path id="STROKE_bccc9459-f12d-4180-ad2e-76bfddfd58b3" opacity="1.000" fill="none" stroke="#000000" stroke-width="0.883" stroke-opacity="1.000" stroke-linecap="round" stroke-linejoin="round" d="M 1153.537 1384.521 Q 1153.514 1384.521 1154.049 1384.521 Q 1154.583 1384.521 1154.686 1384.521 "></path>
    <path id="STROKE_fa8aed12-d7f5-47f2-990d-82a1f80ba456" opacity="1.000" fill="none" stroke="#000000" stroke-width="0.883" stroke-opacity="1.000" stroke-linecap="round" stroke-linejoin="round" d="M 1158.791 1386.077 Q 1158.548 1386.077 1160.427 1386.077 "></path>
    <path id="STROKE_4c18f688-e8df-43f3-8099-03b84cbba857" opacity="1.000" fill="none" stroke="#000000" stroke-width="0.883" stroke-opacity="1.000" stroke-linecap="round" stroke-linejoin="round" d="M 1163.431 1387.681 Q 1163.405 1387.690 1163.768 1387.848 Q 1164.131 1388.005 1164.186 1388.035 "></path>
    <path id="STROKE_b736b0fb-4e39-491d-abae-491dcb129a44" opacity="1.000" fill="none" stroke="#000000" stroke-width="0.883" stroke-opacity="1.000" stroke-linecap="round" stroke-linejoin="round" d="M 1166.986 1389.780 Q 1166.859 1389.780 1168.480 1389.780 "></path>
    <path id="STROKE_be797303-ff8d-48c8-ab20-0260363a2500" opacity="1.000" fill="none" stroke="#000000" stroke-width="0.883" stroke-opacity="1.000" stroke-linecap="round" stroke-linejoin="round" d="M 1171.233 1392.539 Q 1171.601 1392.647 1171.669 1392.679 Q 1171.737 1392.712 1171.645 1392.670 Q 1171.552 1392.628 1172.145 1392.971 Q 1172.738 1393.315 1172.933 1393.525 Q 1173.128 1393.736 1173.230 1393.789 "></path>
    <path id="STROKE_3f1fb813-51f0-4fce-8212-4b167bf1e70b" opacity="1.000" fill="none" stroke="#000000" stroke-width="0.883" stroke-opacity="1.000" stroke-linecap="round" stroke-linejoin="round" d="M 1174.677 1395.593 Q 1174.575 1395.592 1175.173 1395.716 Q 1175.771 1395.840 1175.873 1395.840 "></path>
    <path id="STROKE_5061f23a-b464-4cb5-a6f1-690f3680668d" opacity="1.000" fill="none" stroke="#000000" stroke-width="0.883" stroke-opacity="1.000" stroke-linecap="round" stroke-linejoin="round" d="M 1177.477 1398.494 Q 1177.252 1398.356 1177.870 1399.248 "></path>
    <path id="STROKE_b0149c5a-0ce7-4a63-aa9a-535222e45932" opacity="1.000" fill="none" stroke="#000000" stroke-width="0.883" stroke-opacity="1.000" stroke-linecap="round" stroke-linejoin="round" d="M 1179.270 1401.901 Q 1179.318 1401.901 1179.518 1401.901 Q 1179.719 1401.901 1179.774 1401.901 "></path>
    <path id="STROKE_04679d44-fef7-44b4-bd4f-ab45786a1676" opacity="1.000" fill="none" stroke="#000000" stroke-width="0.883" stroke-opacity="1.000" stroke-linecap="round" stroke-linejoin="round" d="M 1179.223 1401.701 Q 1178.224 1401.701 1178.500 1401.701 Q 1177.882 1401.740 1177.484 1401.261 Q 1177.087 1400.781 1177.004 1400.710 Q 1176.922 1400.639 1176.617 1400.325 Q 1176.313 1400.011 1176.299 1400.041 Q 1176.284 1400.071 1176.306 1400.059 Q 1176.327 1400.047 1175.835 1399.919 Q 1175.343 1399.791 1175.467 1399.828 Q 1175.590 1399.865 1175.251 1399.873 Q 1175.254 1400.297 1176.015 1400.321 Q 1176.777 1400.345 1176.880 1400.345 "></path>
    <path id="STROKE_56e166a9-db91-4a23-8891-45a93f87d6d0" opacity="1.000" fill="none" stroke="#000000" stroke-width="0.883" stroke-opacity="1.000" stroke-linecap="round" stroke-linejoin="round" d="M 1180.073 1400.793 Q 1179.761 1399.893 1179.844 1400.150 Q 1179.577 1399.392 1179.640 1399.572 Q 1179.650 1399.880 1179.223 1396.395 Q 1179.223 1396.210 1179.223 1396.541 Q 1179.223 1396.872 1179.223 1396.949 "></path>
    <path id="STROKE_6de01ddc-d58c-4fa8-a76d-078fd215bbb5" opacity="1.000" fill="none" stroke="#000000" stroke-width="0.883" stroke-opacity="1.000" stroke-linecap="round" stroke-linejoin="round" d="M 1185.074 1427.287 Q 1185.145 1426.857 1185.031 1427.824 Q 1184.917 1428.791 1184.870 1428.891 "></path>
    <path id="STROKE_70b3cbbb-740a-4d44-8ed5-a9355c2e5559" opacity="1.000" fill="none" stroke="#000000" stroke-width="0.883" stroke-opacity="1.000" stroke-linecap="round" stroke-linejoin="round" d="M 1184.414 1431.839 Q 1184.449 1431.276 1184.319 1433.348 "></path>
    <path id="STROKE_58c8f3a8-e612-4748-a6b6-30790919818a" opacity="1.000" fill="none" stroke="#000000" stroke-width="0.883" stroke-opacity="1.000" stroke-linecap="round" stroke-linejoin="round" d="M 1183.517 1436.296 Q 1183.526 1436.233 1183.171 1437.452 "></path>
    <path id="STROKE_b1c90d7a-f22c-441c-a9e6-381044659f72" opacity="1.000" fill="none" stroke="#000000" stroke-width="0.883" stroke-opacity="1.000" stroke-linecap="round" stroke-linejoin="round" d="M 1181.976 1441.154 Q 1181.976 1441.231 1181.909 1441.493 Q 1181.842 1441.755 1181.818 1441.802 "></path>
    <path id="STROKE_efa9c730-7fce-476a-ba72-ffe643f564a8" opacity="1.000" fill="none" stroke="#000000" stroke-width="0.883" stroke-opacity="1.000" stroke-linecap="round" stroke-linejoin="round" d="M 1180.167 1444.915 Q 1180.010 1445.634 1180.073 1445.487 Q 1180.073 1445.641 1180.073 1446.059 "></path>
    <path id="STROKE_7c20fa41-3299-4406-9535-5c7c6b7eaabb" opacity="1.000" fill="none" stroke="#000000" stroke-width="0.883" stroke-opacity="1.000" stroke-linecap="round" stroke-linejoin="round" d="M 1179.176 1447.769 Q 1178.846 1448.099 1178.579 1448.597 Q 1178.312 1449.095 1178.108 1449.597 Q 1177.904 1450.099 1177.866 1450.418 Q 1177.829 1450.738 1177.831 1450.718 Q 1177.833 1450.697 1177.854 1450.667 Q 1177.875 1450.635 1177.861 1450.686 Q 1177.846 1450.735 1177.850 1450.686 Q 1177.854 1450.636 1177.851 1450.708 Q 1177.847 1450.779 1177.607 1451.177 Q 1177.367 1451.573 1177.132 1451.918 Q 1176.897 1452.262 1176.904 1452.253 Q 1176.911 1452.244 1176.945 1452.173 Q 1176.979 1452.102 1176.660 1452.693 Q 1176.341 1453.285 1175.621 1454.124 "></path>
    <path id="STROKE_19d19f79-b86b-4834-af52-9178c1a300e9" opacity="1.000" fill="none" stroke="#000000" stroke-width="0.883" stroke-opacity="1.000" stroke-linecap="round" stroke-linejoin="round" d="M 1174.630 1455.327 Q 1174.630 1455.350 1174.630 1455.374 Q 1174.433 1456.598 1176.266 1449.514 Q 1176.109 1450.214 1176.172 1450.021 Q 1176.144 1450.120 1176.106 1450.531 Q 1176.068 1450.942 1176.073 1450.855 Q 1176.078 1450.768 1176.049 1451.029 Q 1176.020 1451.290 1175.870 1452.097 Q 1175.720 1452.903 1175.696 1452.915 Q 1175.673 1452.928 1175.370 1454.879 Q 1175.078 1454.818 1177.025 1452.617 Q 1178.971 1450.416 1179.066 1450.268 "></path>
    <path id="STROKE_477babf4-e3bf-4c54-87f1-26208a90a41b" opacity="1.000" fill="none" stroke="#000000" stroke-width="0.883" stroke-opacity="1.000" stroke-linecap="round" stroke-linejoin="round" d="M 1155.441 1462.331 Q 1155.512 1462.362 1155.138 1462.423 Q 1154.764 1462.484 1154.686 1462.484 "></path>
    <path id="STROKE_d4078df9-c295-4c08-af93-306dd214970c" opacity="1.000" fill="none" stroke="#000000" stroke-width="0.883" stroke-opacity="1.000" stroke-linecap="round" stroke-linejoin="round" d="M 1151.634 1463.286 Q 1151.650 1463.508 1149.747 1464.241 "></path>
    <path id="STROKE_9630ab54-9aba-4593-9ed5-b605eb80024f" opacity="1.000" fill="none" stroke="#000000" stroke-width="0.883" stroke-opacity="1.000" stroke-linecap="round" stroke-linejoin="round" d="M 1146.947 1464.088 Q 1147.024 1463.990 1145.736 1464.642 "></path>
    <path id="STROKE_f4fb7f27-d2c6-4d4e-abd8-86efb24142a4" opacity="1.000" fill="none" stroke="#000000" stroke-width="0.883" stroke-opacity="1.000" stroke-linecap="round" stroke-linejoin="round" d="M 1141.898 1464.489 Q 1141.783 1464.489 1140.639 1464.489 "></path>
    <path id="STROKE_b879aa2e-f94c-4019-b5c7-166ea37f7ea3" opacity="1.000" fill="none" stroke="#000000" stroke-width="0.883" stroke-opacity="1.000" stroke-linecap="round" stroke-linejoin="round" d="M 1138.044 1464.241 Q 1138.201 1464.119 1137.627 1464.304 Q 1137.053 1464.489 1137.006 1464.489 "></path>
    <path id="STROKE_94aa9fb4-f947-456f-97b0-1ed7c44cf2c5" opacity="1.000" fill="none" stroke="#000000" stroke-width="0.883" stroke-opacity="1.000" stroke-linecap="round" stroke-linejoin="round" d="M 1135.103 1463.887 Q 1135.045 1463.823 1134.416 1463.985 Q 1133.788 1464.146 1133.069 1463.754 Q 1132.350 1463.363 1132.303 1463.333 "></path>
    <path id="STROKE_e58ac6b6-bbef-4f62-bf73-ff5d94dafe4f" opacity="1.000" fill="none" stroke="#000000" stroke-width="0.883" stroke-opacity="1.000" stroke-linecap="round" stroke-linejoin="round" d="M 1129.959 1462.791 Q 1129.904 1462.791 1129.660 1462.791 "></path>
    <path id="STROKE_ef9e2d72-bd29-4119-bbd9-8afb20800c06" opacity="1.000" fill="none" stroke="#000000" stroke-width="0.883" stroke-opacity="1.000" stroke-linecap="round" stroke-linejoin="round" d="M 1126.058 1462.189 Q 1125.668 1461.919 1125.798 1462.052 Q 1125.929 1462.184 1125.770 1461.985 Q 1125.611 1461.785 1125.344 1461.432 Q 1125.076 1461.079 1125.043 1461.051 Q 1125.011 1461.023 1124.800 1460.881 "></path>
    <path id="STROKE_e23e6290-f91f-4657-9c31-a61a342f660a" opacity="1.000" fill="none" stroke="#000000" stroke-width="0.883" stroke-opacity="1.000" stroke-linecap="round" stroke-linejoin="round" d="M 1121.859 1460.432 Q 1121.375 1459.805 1121.536 1459.984 Q 1121.286 1459.577 1121.285 1459.654 L 1121.261 1459.631 "></path>
    <path id="STROKE_507e80ff-33c5-46f1-989e-c444ff967008" opacity="1.000" fill="none" stroke="#000000" stroke-width="0.883" stroke-opacity="1.000" stroke-linecap="round" stroke-linejoin="round" d="M 1118.713 1457.980 Q 1118.338 1458.258 1116.810 1457.025 "></path>
    <path id="STROKE_65dd47eb-100d-47b0-b923-ad72a233c5f4" opacity="1.000" fill="none" stroke="#000000" stroke-width="0.883" stroke-opacity="1.000" stroke-linecap="round" stroke-linejoin="round" d="M 1116.165 1457.473 Q 1116.193 1458.248 1117.958 1459.737 "></path>
    <path id="STROKE_eb54dfe6-a820-4300-acca-c26444ac3e29" opacity="1.000" fill="none" stroke="#000000" stroke-width="0.883" stroke-opacity="1.000" stroke-linecap="round" stroke-linejoin="round" d="M 1117.958 1456.329 Q 1118.094 1456.309 1119.174 1456.570 Q 1120.254 1456.830 1120.844 1456.827 Q 1121.434 1456.824 1121.513 1456.824 "></path>
    <path id="STROKE_ca3a7a76-c53d-4612-9583-d2f5a77a7717" opacity="1.000" fill="none" stroke="#000000" stroke-width="0.883" stroke-opacity="1.000" stroke-linecap="round" stroke-linejoin="round" d="M 1118.005 1457.980 Q 1118.339 1458.335 1118.541 1458.615 Q 1118.742 1458.894 1119.864 1460.164 Q 1120.986 1461.435 1121.009 1461.435 "></path>
    <path id="STROKE_3ebdf882-ead1-4e0a-9931-2bd02bd2e69b" opacity="1.000" fill="none" stroke="#000000" stroke-width="0.843" stroke-opacity="1.000" stroke-linecap="round" stroke-linejoin="round" d="M 1118.760 1457.272 Q 1119.030 1457.974 1124.800 1458.735 "></path>
    <path id="STROKE_d46039dd-e7ba-436e-b727-07aae83e8fdf" opacity="1.000" fill="none" stroke="#000000" stroke-width="0.883" stroke-opacity="1.000" stroke-linecap="round" stroke-linejoin="round" d="M 1118.115 1458.782 Q 1118.402 1459.103 1119.097 1459.948 Q 1119.792 1460.793 1122.063 1462.932 "></path>
    <path id="STROKE_59aa5a39-61f7-4f1f-8ab1-ab2b3321ebca" opacity="1.000" fill="none" stroke="#000000" stroke-width="0.883" stroke-opacity="1.000" stroke-linecap="round" stroke-linejoin="round" d="M 1095.670 1418.079 Q 1095.690 1417.930 1093.373 1421.828 Q 1093.397 1421.781 1093.420 1421.734 "></path>
    <path id="STROKE_6e349129-601e-472f-90dc-9ecae5902cb7" opacity="1.000" fill="none" stroke="#000000" stroke-width="0.883" stroke-opacity="1.000" stroke-linecap="round" stroke-linejoin="round" d="M 1096.582 1419.871 Q 1096.665 1420.893 1096.653 1420.749 Q 1096.847 1421.840 1096.802 1421.610 Q 1096.757 1421.381 1096.796 1421.574 Q 1096.836 1421.768 1096.852 1421.734 Q 1096.867 1421.700 1096.928 1422.323 "></path>
    <path id="STROKE_4f0ce635-4a3a-4871-858f-6c5c0e2d37b6" opacity="1.000" fill="none" stroke="#000000" stroke-width="0.879" stroke-opacity="1.000" stroke-linecap="round" stroke-linejoin="round" d="M 1096.078 1419.270 Q 1095.966 1419.899 1094.175 1424.387 "></path>
    <path id="STROKE_e8f96351-b641-4c88-8526-b74fde3ab4b4" opacity="1.000" fill="none" stroke="#000000" stroke-width="0.883" stroke-opacity="1.000" stroke-linecap="round" stroke-linejoin="round" d="M 1093.672 1427.287 Q 1093.672 1426.496 1093.672 1429.339 "></path>
    <path id="STROKE_844bfc38-8bec-4889-bcfd-dd05a5a5e822" opacity="1.000" fill="none" stroke="#000000" stroke-width="0.883" stroke-opacity="1.000" stroke-linecap="round" stroke-linejoin="round" d="M 1094.081 1433.549 Q 1094.081 1434.263 1094.081 1434.144 Q 1094.081 1435.313 1094.081 1434.946 Q 1094.329 1435.453 1094.325 1435.323 Q 1094.922 1435.442 1094.875 1435.447 Q 1094.810 1435.471 1094.817 1435.359 Q 1094.824 1435.247 1095.207 1435.942 Q 1095.589 1436.638 1095.549 1436.794 Q 1095.509 1436.950 1095.522 1436.971 Q 1095.535 1436.992 1095.530 1437.592 Q 1095.525 1438.193 1095.527 1438.096 Q 1095.529 1437.999 1095.530 1438.050 Q 1095.531 1438.100 1095.562 1438.491 Q 1095.592 1438.881 1095.614 1438.803 Q 1095.636 1438.725 1095.550 1438.627 Q 1095.463 1438.529 1095.692 1438.892 Q 1095.921 1439.256 1095.968 1439.303 "></path>
    <path id="STROKE_81f5a71f-5ef6-4530-bcec-b8e47a6b3033" opacity="1.000" fill="none" stroke="#000000" stroke-width="0.883" stroke-opacity="1.000" stroke-linecap="round" stroke-linejoin="round" d="M 1097.966 1443.052 Q 1098.473 1443.335 1098.477 1443.253 Q 1098.627 1443.253 1098.674 1443.253 "></path>
    <path id="STROKE_61e5ced1-36bd-480d-995f-cc749343fb26" opacity="1.000" fill="none" stroke="#000000" stroke-width="0.883" stroke-opacity="1.000" stroke-linecap="round" stroke-linejoin="round" d="M 1100.671 1444.408 Q 1100.671 1444.472 1100.660 1444.595 Q 1100.650 1444.719 1100.742 1445.965 Q 1100.797 1445.965 1100.876 1445.965 "></path>
    <path id="STROKE_c3e60555-de0e-4394-89c6-03208e9139f1" opacity="1.000" fill="none" stroke="#000000" stroke-width="0.883" stroke-opacity="1.000" stroke-linecap="round" stroke-linejoin="round" d="M 1094.521 1420.331 Q 1094.302 1420.582 1090.526 1426.533 Q 1090.806 1426.501 1091.229 1426.128 Q 1091.651 1425.755 1091.879 1425.531 "></path>
    <path id="STROKE_13e21ea2-a830-4293-95f1-ce08ba4dcaff" opacity="1.000" fill="none" stroke="#000000" stroke-width="0.883" stroke-opacity="1.000" stroke-linecap="round" stroke-linejoin="round" d="M 1095.968 1421.133 Q 1095.781 1420.252 1096.377 1426.238 Q 1096.503 1426.238 1096.578 1426.238 Q 1096.653 1426.238 1096.723 1426.238 "></path>
    <path id="STROKE_94917561-41f1-48b8-8d60-80aea1e2f7d9" opacity="1.000" fill="none" stroke="#000000" stroke-width="0.883" stroke-opacity="1.000" stroke-linecap="round" stroke-linejoin="round" d="M 1101.678 1397.597 Q 1101.696 1397.525 1101.982 1397.057 Q 1102.268 1396.589 1102.323 1396.489 "></path>
    <path id="STROKE_57141735-e95c-4d34-b494-fed29cefa6f8" opacity="1.000" fill="none" stroke="#000000" stroke-width="0.883" stroke-opacity="1.000" stroke-linecap="round" stroke-linejoin="round" d="M 1105.123 1391.891 Q 1105.191 1391.829 1105.176 1391.851 Q 1105.161 1391.873 1106.318 1391.183 "></path>
    <path id="STROKE_33042983-66d1-4650-9b12-488dce3e8932" opacity="1.000" fill="none" stroke="#000000" stroke-width="0.883" stroke-opacity="1.000" stroke-linecap="round" stroke-linejoin="round" d="M 1108.615 1389.886 Q 1108.937 1389.689 1110.518 1388.884 "></path>
    <path id="STROKE_964c29ee-a3c6-46f9-a6fb-d9827a38a4d9" opacity="1.000" fill="none" stroke="#000000" stroke-width="0.883" stroke-opacity="1.000" stroke-linecap="round" stroke-linejoin="round" d="M 1113.271 1388.035 Q 1113.559 1387.943 1113.639 1387.924 Q 1113.719 1387.905 1113.821 1387.881 "></path>
    <path id="STROKE_71e5cecb-71c0-4669-a2b1-7066a9070f41" opacity="1.000" fill="none" stroke="#000000" stroke-width="0.883" stroke-opacity="1.000" stroke-linecap="round" stroke-linejoin="round" d="M 1117.816 1386.478 Q 1118.050 1386.465 1119.358 1385.830 "></path>
    <path id="STROKE_8ad36607-b900-46a3-9869-9c0614302299" opacity="1.000" fill="none" stroke="#000000" stroke-width="0.883" stroke-opacity="1.000" stroke-linecap="round" stroke-linejoin="round" d="M 1122.755 1385.028 Q 1123.800 1385.019 1123.596 1385.052 Q 1123.393 1385.085 1123.954 1384.992 Q 1124.516 1384.900 1125.303 1384.627 "></path>
    <path id="STROKE_bc2bfd3b-0172-47db-b99a-fb163f45f1d6" opacity="1.000" fill="none" stroke="#000000" stroke-width="0.883" stroke-opacity="1.000" stroke-linecap="round" stroke-linejoin="round" d="M 1127.301 1384.120 Q 1128.330 1384.120 1128.135 1384.120 Q 1128.379 1384.096 1128.603 1383.984 Q 1128.827 1383.872 1128.953 1383.825 "></path>
    <path id="STROKE_ed44f9b5-68c6-41e0-a031-03cb39e4c646" opacity="1.000" fill="none" stroke="#000000" stroke-width="0.883" stroke-opacity="1.000" stroke-linecap="round" stroke-linejoin="round" d="M 1128.355 1382.269 Q 1128.312 1382.205 1132.256 1383.000 Q 1132.256 1383.647 1132.201 1383.548 Q 1132.444 1384.131 1126.908 1387.233 "></path>
    <path id="STROKE_f17eae49-1815-4c19-a052-97250859e4ba" opacity="1.000" fill="none" stroke="#000000" stroke-width="0.883" stroke-opacity="1.000" stroke-linecap="round" stroke-linejoin="round" d="M 1126.357 1381.974 Q 1125.814 1382.006 1128.009 1382.091 Q 1130.203 1382.175 1130.400 1382.175 "></path>
    <path id="STROKE_25a5a39d-6904-4c0d-8db5-d925a101a8e5" opacity="1.000" fill="none" stroke="#000000" stroke-width="0.797" stroke-opacity="1.000" stroke-linecap="round" stroke-linejoin="round" d="M 1144.100 1398.647 Q 1144.091 1398.967 1146.347 1405.867 Q 1148.602 1412.768 1150.156 1416.858 Q 1151.710 1420.948 1152.227 1423.333 Q 1152.744 1425.718 1153.450 1427.637 Q 1154.156 1429.557 1154.374 1430.211 Q 1154.592 1430.865 1156.042 1432.751 Q 1157.492 1434.637 1158.353 1436.184 Q 1159.214 1437.731 1159.455 1439.119 Q 1159.697 1440.508 1160.038 1441.655 Q 1160.379 1442.802 1160.926 1444.247 Q 1161.472 1445.693 1161.638 1446.293 Q 1161.804 1446.894 1161.831 1446.981 Q 1161.857 1447.068 1161.841 1447.021 Q 1161.824 1446.974 1161.832 1446.996 Q 1161.839 1447.017 1161.978 1447.374 Q 1162.118 1447.732 1162.246 1448.063 Q 1162.374 1448.393 1162.461 1448.564 Q 1162.549 1448.735 1162.522 1448.682 Q 1162.496 1448.630 1162.501 1448.601 Q 1162.506 1448.573 1162.786 1449.820 Q 1162.925 1450.005 1162.368 1449.631 Q 1161.811 1449.257 1157.187 1444.609 Q 1157.356 1444.664 1157.289 1444.533 Q 1157.222 1444.401 1158.348 1445.458 Q 1159.474 1446.513 1160.052 1447.279 Q 1160.631 1448.045 1161.213 1448.656 Q 1161.794 1449.268 1162.219 1449.628 Q 1162.643 1449.989 1162.674 1449.976 Q 1162.704 1449.963 1162.655 1449.941 Q 1162.605 1449.918 1162.888 1450.092 Q 1163.171 1450.266 1163.128 1445.687 Q 1163.085 1441.107 1163.038 1440.753 "></path>
    <path id="STROKE_2d4ade5d-bafe-42b3-b7bb-b61f9c1091a5" opacity="1.000" fill="none" stroke="#000000" stroke-width="0.883" stroke-opacity="1.000" stroke-linecap="round" stroke-linejoin="round" d="M 1102.024 1409.106 Q 1101.748 1408.849 1103.310 1410.138 Q 1104.872 1411.427 1105.731 1412.139 Q 1106.591 1412.852 1107.169 1412.897 Q 1107.747 1412.942 1108.017 1412.956 Q 1108.287 1412.970 1108.682 1412.865 Q 1109.076 1412.759 1109.435 1412.563 Q 1109.794 1412.366 1109.967 1412.266 "></path>
    <path id="STROKE_388118eb-2415-4360-b8f4-21fae8765ad7" opacity="1.000" fill="none" stroke="#000000" stroke-width="0.843" stroke-opacity="1.000" stroke-linecap="round" stroke-linejoin="round" d="M 1105.469 1417.076 Q 1105.768 1417.960 1107.372 1422.524 Q 1107.396 1422.524 1107.466 1422.500 Q 1107.660 1422.016 1107.666 1421.297 Q 1107.671 1420.578 1107.671 1420.425 "></path>
    <path id="STROKE_46712ffb-1cdf-4ebc-9d94-b2d633f33d42" opacity="1.000" fill="none" stroke="#000000" stroke-width="0.883" stroke-opacity="1.000" stroke-linecap="round" stroke-linejoin="round" d="M 1107.923 1417.772 Q 1108.305 1417.601 1110.817 1418.998 Q 1110.817 1419.046 1110.817 1419.175 "></path>
    <path id="STROKE_768af9df-3f5a-4973-8167-a27d91c0d23a" opacity="1.000" fill="none" stroke="#000000" stroke-width="0.869" stroke-opacity="1.000" stroke-linecap="round" stroke-linejoin="round" d="M 1107.419 1419.529 Q 1106.668 1419.458 1109.925 1422.250 Q 1113.182 1425.043 1115.005 1426.550 Q 1116.828 1428.057 1117.817 1428.771 Q 1118.805 1429.486 1120.007 1430.337 Q 1121.209 1431.188 1122.051 1431.736 Q 1122.892 1432.284 1123.976 1432.863 Q 1125.060 1433.441 1129.198 1435.424 Q 1133.336 1437.406 1136.613 1439.048 Q 1139.890 1440.690 1142.550 1441.608 Q 1145.209 1442.526 1147.098 1443.593 Q 1148.987 1444.660 1152.688 1444.715 "></path>
    <path id="STROKE_19248955-16b7-4338-bd20-1f06f0e87ac3" opacity="1.000" fill="none" stroke="#000000" stroke-width="0.651" stroke-opacity="1.000" stroke-linecap="round" stroke-linejoin="round" d="M 1116.055 1410.167 Q 1115.986 1410.410 1122.194 1410.354 Q 1128.401 1410.297 1131.849 1410.115 Q 1135.296 1409.933 1137.156 1410.086 Q 1139.015 1410.239 1140.215 1410.544 Q 1141.415 1410.849 1144.365 1411.791 Q 1147.316 1412.733 1152.048 1412.868 Q 1156.780 1413.004 1159.206 1413.010 Q 1161.633 1413.017 1163.844 1413.573 Q 1166.055 1414.129 1167.100 1414.327 Q 1168.146 1414.526 1168.763 1414.547 Q 1169.380 1414.568 1169.645 1414.592 Q 1169.910 1414.615 1170.221 1414.622 Q 1170.532 1414.629 1170.440 1414.625 Q 1170.347 1414.621 1170.219 1414.620 Q 1170.090 1414.618 1171.422 1414.647 L 1171.422 1414.671 Q 1171.374 1414.671 1171.327 1414.671 "></path>
    <path id="STROKE_3eb740da-51e3-4624-905a-266cc39e9e67" opacity="1.000" fill="none" stroke="#000000" stroke-width="0.840" stroke-opacity="1.000" stroke-linecap="round" stroke-linejoin="round" d="M 1166.876 1411.759 Q 1168.180 1411.911 1172.082 1415.090 Q 1172.659 1415.315 1169.806 1416.066 Q 1166.954 1416.817 1166.923 1416.817 "></path>
    <path id="STROKE_2da17c6b-6e75-441f-b259-296d6991e510" opacity="1.000" fill="none" stroke="#000000" stroke-width="0.622" stroke-opacity="1.000" stroke-linecap="round" stroke-linejoin="round" d="M 1168.873 1420.024 Q 1168.917 1420.417 1163.626 1423.058 Q 1158.336 1425.698 1153.890 1428.101 Q 1149.444 1430.505 1146.417 1432.337 Q 1143.390 1434.170 1139.041 1436.198 Q 1134.691 1438.227 1132.657 1439.307 Q 1130.623 1440.387 1129.476 1441.259 Q 1128.328 1442.131 1127.002 1442.663 "></path>
    <path id="STROKE_69119884-34bd-49c6-b638-2765cf0da0d0" opacity="1.000" fill="none" stroke="#000000" stroke-width="0.849" stroke-opacity="1.000" stroke-linecap="round" stroke-linejoin="round" d="M 1122.802 1442.156 Q 1123.387 1442.398 1118.807 1447.138 Q 1119.695 1447.526 1121.749 1446.735 Q 1123.803 1445.943 1126.562 1444.562 "></path>
    <path id="STROKE_3cfb65cc-b4d9-42a4-81ec-eb0ea82f8dc9" opacity="1.000" fill="none" stroke="#000000" stroke-width="0.876" stroke-opacity="1.000" stroke-linecap="round" stroke-linejoin="round" d="M 1120.003 1446.012 Q 1120.557 1445.622 1124.967 1443.441 Q 1129.377 1441.260 1129.708 1441.060 "></path>
    <path id="STROKE_1a8df9ee-6054-4ef1-83e2-0d752f6019c5" opacity="1.000" fill="none" stroke="#000000" stroke-width="0.789" stroke-opacity="1.000" stroke-linecap="round" stroke-linejoin="round" d="M 1114.906 1437.499 Q 1114.673 1437.949 1117.395 1432.823 Q 1120.118 1427.698 1121.976 1424.462 Q 1123.834 1421.226 1124.751 1417.247 Q 1125.668 1413.269 1126.776 1409.698 Q 1127.884 1406.127 1128.962 1404.095 Q 1130.040 1402.063 1130.616 1400.901 Q 1131.192 1399.738 1131.521 1399.188 Q 1131.850 1398.637 1132.107 1398.158 Q 1132.364 1397.679 1132.322 1397.758 Q 1132.280 1397.837 1132.312 1397.778 Q 1132.345 1397.718 1132.315 1397.764 Q 1132.286 1397.810 1132.853 1396.642 Q 1132.798 1396.642 1132.743 1396.642 "></path>
    <path id="STROKE_8a7b26a0-ad3a-4bad-abf7-271711a5d81d" opacity="1.000" fill="none" stroke="#000000" stroke-width="0.842" stroke-opacity="1.000" stroke-linecap="round" stroke-linejoin="round" d="M 1132.208 1395.487 Q 1131.979 1395.662 1128.103 1399.944 Q 1128.479 1399.515 1128.701 1399.295 "></path>
    <path id="STROKE_71e6f821-66b4-43c4-a984-518dee402582" opacity="1.000" fill="none" stroke="#000000" stroke-width="0.883" stroke-opacity="1.000" stroke-linecap="round" stroke-linejoin="round" d="M 1132.853 1396.890 Q 1132.853 1396.877 1132.853 1399.751 Q 1132.853 1402.626 1132.853 1402.703 "></path>
  </g>
</svg>