<?xml version="1.0" encoding="UTF-8" standalone="yes"?>
<svg xmlns="http://www.w3.org/2000/svg" xmlns:xlink="http://www.w3.org/1999/xlink" width="60.247mm" height="45.044mm" version="1.1" viewBox="939.733 811.663 313.097 234.086">
  <!--
	Exported with Concepts: Smarter Sketching
	Version: 1057 on iOS 15.4
	https://concepts.app/
	-->
  <title>构想粒子系统之势能动力交互</title>
  <desc>Drawing exported from Concepts: Smarter Sketching</desc>
  <defs></defs>
  <g id="文本" opacity="1.000">
    <path id="STROKE_350db5ec-4640-4a98-bafd-4e3ef9e33e8f" opacity="1.000" fill="none" stroke="#000000" stroke-width="1.000" stroke-opacity="1.000" stroke-linecap="round" stroke-linejoin="round" d="M 1035.280 930.125 Q 1035.495 930.050 1036.838 929.690 Q 1038.180 929.330 1038.198 929.330 "></path>
    <path id="STROKE_fd06fd68-f5a3-4b2b-99ef-e9a3153481c1" opacity="1.000" fill="none" stroke="#000000" stroke-width="1.000" stroke-opacity="1.000" stroke-linecap="round" stroke-linejoin="round" d="M 1037.089 929.723 Q 1037.013 930.644 1037.097 933.103 Q 1037.182 935.561 1037.267 937.094 Q 1037.352 938.626 1036.619 939.814 "></path>
    <path id="STROKE_ee3fb09b-2052-4148-ad4a-a327159bd231" opacity="1.000" fill="none" stroke="#000000" stroke-width="1.000" stroke-opacity="1.000" stroke-linecap="round" stroke-linejoin="round" d="M 1034.292 939.898 Q 1033.995 939.379 1036.823 939.199 Q 1039.651 939.019 1039.766 938.981 "></path>
    <path id="STROKE_9a7b83b4-9235-43a2-856c-77cbded93a45" opacity="1.000" fill="none" stroke="#000000" stroke-width="1.000" stroke-opacity="1.000" stroke-linecap="round" stroke-linejoin="round" d="M 1043.480 938.149 Q 1043.480 938.850 1043.480 938.724 Q 1043.480 939.301 1043.480 939.220 Q 1043.480 939.299 1043.480 939.337 Q 1043.498 939.337 1043.516 939.337 "></path>
    <path id="STROKE_155ff602-64f4-4d97-82d8-782bf65e0858" opacity="1.000" fill="none" stroke="#000000" stroke-width="1.000" stroke-opacity="1.000" stroke-linecap="round" stroke-linejoin="round" d="M 1057.732 925.355 Q 1057.617 926.248 1053.331 938.897 Q 1053.233 938.862 1053.939 936.070 Q 1054.646 933.277 1055.094 931.548 Q 1055.543 929.819 1055.898 929.097 Q 1056.253 928.375 1056.598 928.048 Q 1056.944 927.720 1057.292 927.586 Q 1057.641 927.451 1057.836 927.780 "></path>
    <path id="STROKE_f3959186-56fd-4301-8fae-97fa149665f5" opacity="1.000" fill="none" stroke="#000000" stroke-width="1.000" stroke-opacity="1.000" stroke-linecap="round" stroke-linejoin="round" d="M 1054.742 934.100 Q 1055.612 933.923 1055.508 933.959 L 1056.295 933.865 "></path>
    <path id="STROKE_438a69c1-97cf-4d4f-97ed-e29a20e89c2b" opacity="1.000" fill="none" stroke="#000000" stroke-width="1.000" stroke-opacity="1.000" stroke-linecap="round" stroke-linejoin="round" d="M 1073.510 937.036 Q 1073.553 937.036 1073.589 937.036 "></path>
    <path id="STROKE_42f2e403-cc60-4bc6-bbc6-2166342c91c7" opacity="1.000" fill="none" stroke="#000000" stroke-width="1.000" stroke-opacity="1.000" stroke-linecap="round" stroke-linejoin="round" d="M 1085.073 929.321 Q 1084.482 929.099 1084.575 929.130 Q 1084.669 929.160 1084.647 929.151 Q 1084.625 929.142 1084.202 929.111 Q 1083.779 929.080 1083.806 929.039 Q 1083.833 928.998 1083.357 929.092 Q 1082.881 929.187 1082.515 929.482 Q 1082.148 929.777 1081.927 930.099 Q 1081.705 930.421 1081.572 930.690 Q 1081.438 930.960 1081.219 931.269 Q 1081.000 931.578 1080.809 932.689 Q 1080.617 933.801 1080.623 934.456 Q 1080.629 935.111 1080.733 935.423 Q 1080.837 935.736 1080.919 935.957 Q 1081.001 936.179 1081.983 936.283 Q 1082.966 936.388 1083.662 936.291 Q 1084.358 936.194 1084.746 935.963 Q 1085.134 935.732 1085.302 935.633 "></path>
    <path id="STROKE_282a4fb2-550e-4967-9932-2f853f980157" opacity="1.000" fill="none" stroke="#000000" stroke-width="1.000" stroke-opacity="1.000" stroke-linecap="round" stroke-linejoin="round" d="M 1088.606 929.480 Q 1088.607 929.676 1088.686 929.465 Q 1088.766 929.253 1087.854 929.775 Q 1086.943 930.296 1086.604 931.398 Q 1086.266 932.501 1086.154 933.131 Q 1086.041 933.760 1085.970 934.938 Q 1085.900 936.115 1086.057 936.635 Q 1086.215 937.155 1086.866 937.465 Q 1087.517 937.776 1087.973 937.778 Q 1088.429 937.780 1089.229 936.543 Q 1090.029 935.306 1090.246 928.722 Q 1090.256 928.469 1090.202 928.899 Q 1090.149 929.330 1090.093 930.932 Q 1090.037 932.534 1090.092 933.450 Q 1090.147 934.366 1090.324 934.899 Q 1090.501 935.432 1090.756 935.765 Q 1091.010 936.098 1091.290 936.384 Q 1091.570 936.669 1092.219 936.993 Q 1092.869 937.317 1093.502 937.350 Q 1094.135 937.382 1094.310 937.382 "></path>
    <path id="STROKE_eb67a79a-36e5-41f5-9dff-a64652b0980e" opacity="1.000" fill="none" stroke="#000000" stroke-width="1.000" stroke-opacity="1.000" stroke-linecap="round" stroke-linejoin="round" d="M 1106.645 930.471 Q 1107.143 930.052 1111.021 929.467 Q 1114.899 928.881 1114.917 928.881 "></path>
    <path id="STROKE_4471a7b0-475a-4ec7-b483-7f3b359e0b1a" opacity="1.000" fill="none" stroke="#000000" stroke-width="1.000" stroke-opacity="1.000" stroke-linecap="round" stroke-linejoin="round" d="M 1108.141 932.538 Q 1107.870 932.588 1110.513 932.383 Q 1113.157 932.178 1113.349 932.136 "></path>
    <path id="STROKE_f3afe42d-5dd6-4ebc-89c4-b1a7c6317237" opacity="1.000" fill="none" stroke="#000000" stroke-width="1.000" stroke-opacity="1.000" stroke-linecap="round" stroke-linejoin="round" d="M 1124.554 931.191 Q 1124.760 931.141 1124.951 931.082 Q 1125.143 931.022 1125.344 930.957 Q 1125.544 930.891 1125.581 930.912 Q 1125.619 930.933 1127.063 930.716 Q 1128.506 930.498 1129.283 930.303 Q 1130.060 930.109 1130.643 929.601 "></path>
    <path id="STROKE_19673e83-609b-4b37-ad0b-d3fd76268bc6" opacity="1.000" fill="none" stroke="#000000" stroke-width="1.000" stroke-opacity="1.000" stroke-linecap="round" stroke-linejoin="round" d="M 1129.003 926.861 Q 1128.938 927.175 1128.890 929.231 Q 1128.841 931.288 1128.642 933.744 Q 1128.444 936.201 1128.111 939.206 "></path>
    <path id="STROKE_fd305e6f-3b23-4200-a9a7-d44a57f49091" opacity="1.000" fill="none" stroke="#000000" stroke-width="1.000" stroke-opacity="1.000" stroke-linecap="round" stroke-linejoin="round" d="M 1126.772 932.182 Q 1126.640 932.457 1122.986 939.412 Q 1122.986 939.370 1123.022 939.250 Q 1123.058 939.131 1123.131 938.935 "></path>
    <path id="STROKE_66bb7dbe-6449-4d0b-8670-f519d1e09be2" opacity="1.000" fill="none" stroke="#000000" stroke-width="1.000" stroke-opacity="1.000" stroke-linecap="round" stroke-linejoin="round" d="M 1128.617 932.341 Q 1128.394 932.640 1128.216 933.501 Q 1128.038 934.363 1128.147 935.563 Q 1128.257 936.764 1133.368 936.868 "></path>
    <path id="STROKE_d4d61a7b-ea2a-4d5d-8ff5-175da02e7f11" opacity="1.000" fill="none" stroke="#000000" stroke-width="1.000" stroke-opacity="1.000" stroke-linecap="round" stroke-linejoin="round" d="M 1058.403 927.254 Q 1058.958 927.480 1060.236 936.849 L 1060.200 936.868 "></path>
    <path id="STROKE_e3989be7-5376-4e39-8451-9def4fcaf54d" opacity="1.000" fill="none" stroke="#000000" stroke-width="1.000" stroke-opacity="1.000" stroke-linecap="round" stroke-linejoin="round" d="M 1056.836 933.726 Q 1057.477 933.726 1057.463 933.726 Q 1057.822 933.705 1058.475 933.529 "></path>
    <path id="STROKE_6e4bb8f2-611f-4f11-b7bd-e4f1d2e46d12" opacity="1.000" fill="none" stroke="#000000" stroke-width="1.000" stroke-opacity="1.000" stroke-linecap="round" stroke-linejoin="round" d="M 1065.903 929.199 Q 1066.070 929.922 1065.616 934.447 Q 1065.162 938.972 1065.108 939.206 "></path>
    <path id="STROKE_96ab4d37-92ae-49fe-aa54-425673d8d5b3" opacity="1.000" fill="none" stroke="#000000" stroke-width="1.000" stroke-opacity="1.000" stroke-linecap="round" stroke-linejoin="round" d="M 1037.338 959.145 Q 1036.824 959.203 1039.472 959.023 Q 1039.573 958.996 1038.785 959.107 Q 1038.750 959.328 1038.839 962.404 Q 1038.927 965.481 1038.025 969.787 "></path>
    <path id="STROKE_04ae460b-5ae6-4194-9920-36827942deec" opacity="1.000" fill="none" stroke="#000000" stroke-width="1.000" stroke-opacity="1.000" stroke-linecap="round" stroke-linejoin="round" d="M 1036.602 969.469 Q 1037.686 969.002 1041.775 969.198 "></path>
    <path id="STROKE_865b7f52-fc11-43f7-a997-c18720114f90" opacity="1.000" fill="none" stroke="#000000" stroke-width="1.000" stroke-opacity="1.000" stroke-linecap="round" stroke-linejoin="round" d="M 1046.683 970.227 Q 1046.701 970.325 1046.791 970.582 "></path>
    <path id="STROKE_12b2fc0d-6d3e-46d1-92ce-eb6588c492b2" opacity="1.000" fill="none" stroke="#000000" stroke-width="1.000" stroke-opacity="1.000" stroke-linecap="round" stroke-linejoin="round" d="M 1059.549 959.939 Q 1059.400 960.316 1058.295 963.376 Q 1057.189 966.435 1055.413 971.218 "></path>
    <path id="STROKE_77954126-beba-4018-a36f-a236944125a1" opacity="1.000" fill="none" stroke="#000000" stroke-width="1.000" stroke-opacity="1.000" stroke-linecap="round" stroke-linejoin="round" d="M 1060.164 962.362 Q 1060.129 962.149 1060.683 963.970 Q 1061.236 965.790 1061.630 967.038 Q 1062.025 968.286 1062.209 969.166 Q 1062.393 970.045 1062.418 970.825 "></path>
    <path id="STROKE_8fc7f4dd-4b1a-4ea2-a562-4f482e18f0bf" opacity="1.000" fill="none" stroke="#000000" stroke-width="1.000" stroke-opacity="1.000" stroke-linecap="round" stroke-linejoin="round" d="M 1057.716 967.402 Q 1057.714 967.126 1060.923 967.010 "></path>
    <path id="STROKE_7f2ce9e1-1205-483a-85cf-d26d9b1f39ca" opacity="1.000" fill="none" stroke="#000000" stroke-width="1.000" stroke-opacity="1.000" stroke-linecap="round" stroke-linejoin="round" d="M 1064.601 965.457 Q 1064.376 965.296 1066.078 965.242 Q 1066.234 965.372 1066.357 966.892 Q 1066.479 968.413 1062.925 971.143 Q 1062.628 971.171 1064.476 971.167 Q 1066.325 971.162 1068.508 970.938 "></path>
    <path id="STROKE_aca90e7a-e14b-44d5-a5f7-f943959e5fc3" opacity="1.000" fill="none" stroke="#000000" stroke-width="1.000" stroke-opacity="1.000" stroke-linecap="round" stroke-linejoin="round" d="M 1076.707 970.704 Q 1076.436 970.657 1077.322 972.097 "></path>
    <path id="STROKE_e082044b-dd7e-4f29-9316-ddf47a7c55fc" opacity="1.000" fill="none" stroke="#000000" stroke-width="1.000" stroke-opacity="1.000" stroke-linecap="round" stroke-linejoin="round" d="M 1089.730 963.437 Q 1089.967 963.392 1089.171 963.260 Q 1088.375 963.127 1087.666 963.119 Q 1086.957 963.110 1086.130 964.018 Q 1085.302 964.925 1084.758 966.732 Q 1084.214 968.538 1084.254 969.897 Q 1084.294 971.256 1084.710 972.019 Q 1085.125 972.783 1086.362 973.046 Q 1087.599 973.310 1088.359 972.871 Q 1089.119 972.432 1090.897 969.958 Q 1092.674 967.484 1093.564 963.853 Q 1093.135 963.665 1093.142 963.694 Q 1092.587 963.656 1092.624 963.694 Q 1091.441 963.741 1090.309 970.124 Q 1090.010 969.956 1090.554 970.155 Q 1091.098 970.355 1092.130 969.168 Q 1093.162 967.981 1093.721 963.353 Q 1093.791 964.003 1093.888 965.469 Q 1093.986 966.935 1094.206 967.578 Q 1094.427 968.221 1095.027 968.798 Q 1095.627 969.374 1097.592 968.833 "></path>
    <path id="STROKE_7c49c7be-b265-4803-b976-16ae5f002779" opacity="1.000" fill="none" stroke="#000000" stroke-width="1.000" stroke-opacity="1.000" stroke-linecap="round" stroke-linejoin="round" d="M 1105.514 964.232 Q 1105.778 964.381 1107.876 964.029 Q 1109.975 963.676 1110.072 963.634 "></path>
    <path id="STROKE_2ec207df-7855-4f48-b9ac-29cbd6df3388" opacity="1.000" fill="none" stroke="#000000" stroke-width="1.000" stroke-opacity="1.000" stroke-linecap="round" stroke-linejoin="round" d="M 1106.708 967.047 Q 1106.966 966.932 1107.986 966.683 Q 1109.006 966.435 1111.724 965.345 "></path>
    <path id="STROKE_1647f6e0-eb56-49fe-b314-8f87ee72281b" opacity="1.000" fill="none" stroke="#000000" stroke-width="1.000" stroke-opacity="1.000" stroke-linecap="round" stroke-linejoin="round" d="M 1119.730 961.885 Q 1119.512 961.724 1120.501 962.859 Q 1121.491 963.994 1121.647 964.110 "></path>
    <path id="STROKE_9dec4de5-367e-4f39-b87b-b051436942ff" opacity="1.000" fill="none" stroke="#000000" stroke-width="1.000" stroke-opacity="1.000" stroke-linecap="round" stroke-linejoin="round" d="M 1124.746 960.575 Q 1124.790 960.512 1120.490 971.695 Q 1120.429 971.963 1127.423 962.558 Q 1127.867 962.108 1126.565 963.255 Q 1125.264 964.403 1124.452 965.358 Q 1123.640 966.314 1123.401 966.776 Q 1123.161 967.239 1123.260 967.163 Q 1123.358 967.087 1123.218 967.514 Q 1123.079 967.940 1125.209 968.762 Q 1127.340 969.584 1132.910 969.553 "></path>
    <path id="STROKE_b663e38c-de37-466e-a1c1-0c8ed1f08d17" opacity="1.000" fill="none" stroke="#000000" stroke-width="1.000" stroke-opacity="1.000" stroke-linecap="round" stroke-linejoin="round" d="M 1004.104 934.240 Q 1003.710 934.335 1004.719 937.700 "></path>
    <path id="STROKE_13fcea0a-408a-40e4-b467-35e278c85e7a" opacity="1.000" fill="none" stroke="#000000" stroke-width="1.000" stroke-opacity="1.000" stroke-linecap="round" stroke-linejoin="round" d="M 1007.782 931.743 Q 1007.745 931.729 1007.381 934.149 Q 1007.017 936.569 1006.974 936.746 "></path>
    <path id="STROKE_06b7a1e1-20ee-48c0-905e-82d189c6318c" opacity="1.000" fill="none" stroke="#000000" stroke-width="1.000" stroke-opacity="1.000" stroke-linecap="round" stroke-linejoin="round" d="M 1000.620 938.056 Q 1000.546 938.241 1000.843 937.933 Q 1001.140 937.625 1003.267 937.048 Q 1005.394 936.470 1006.841 936.394 Q 1008.289 936.318 1009.277 936.353 "></path>
    <path id="STROKE_f7e15d93-1064-49e6-8919-7fbf8b737dbf" opacity="1.000" fill="none" stroke="#000000" stroke-width="1.000" stroke-opacity="1.000" stroke-linecap="round" stroke-linejoin="round" d="M 1000.921 943.339 Q 1001.201 943.469 1003.841 942.263 Q 1006.480 941.058 1006.745 940.880 "></path>
    <path id="STROKE_47ac7e8d-caa5-463f-b10b-cfbbec0fb627" opacity="1.000" fill="none" stroke="#000000" stroke-width="1.000" stroke-opacity="1.000" stroke-linecap="round" stroke-linejoin="round" d="M 1006.709 938.888 Q 1005.671 939.298 1000.849 946.472 Q 1000.635 945.948 1002.320 944.293 Q 1002.597 942.939 1002.784 949.849 Q 1002.847 949.928 1002.995 949.259 "></path>
    <path id="STROKE_f7298734-6000-4a64-915c-df180d05c19e" opacity="1.000" fill="none" stroke="#000000" stroke-width="1.000" stroke-opacity="1.000" stroke-linecap="round" stroke-linejoin="round" d="M 1003.839 946.557 Q 1004.164 945.833 1004.201 945.879 Q 1004.124 945.654 1005.347 944.932 Q 1006.569 944.210 1008.433 943.975 Q 1008.641 944.649 1008.212 945.788 Q 1007.782 946.927 1003.755 948.895 Q 1003.305 948.895 1010.121 948.895 "></path>
    <path id="STROKE_6c02c24c-93d1-4caf-a7db-b8e87c7bb24f" opacity="1.000" fill="none" stroke="#000000" stroke-width="1.000" stroke-opacity="1.000" stroke-linecap="round" stroke-linejoin="round" d="M 1009.579 996.796 Q 1009.475 996.544 1010.055 1002.669 Q 1010.097 1002.669 1010.140 1002.669 Q 1010.194 1002.571 1010.263 1002.311 Q 1010.333 1002.052 1010.351 1001.912 "></path>
    <path id="STROKE_894203bf-df6f-4844-9ddd-fc1350f785dd" opacity="1.000" fill="none" stroke="#000000" stroke-width="1.000" stroke-opacity="1.000" stroke-linecap="round" stroke-linejoin="round" d="M 1010.580 999.218 Q 1010.521 998.578 1010.544 998.699 Q 1010.544 997.885 1010.544 998.147 Q 1010.736 997.602 1010.803 997.670 Q 1011.016 997.451 1011.624 997.132 Q 1012.232 996.814 1012.907 996.861 Q 1013.582 996.908 1014.030 997.744 Q 1014.479 998.581 1014.312 1002.590 Q 1013.683 1002.661 1013.853 1002.632 Q 1013.589 1002.676 1012.587 1000.490 Q 1012.784 1000.262 1011.376 1006.756 Q 1011.334 1006.924 1011.412 1006.186 Q 1011.491 1005.448 1011.590 1005.245 Q 1011.689 1005.043 1011.863 1004.783 Q 1012.036 1004.524 1012.297 1004.426 Q 1012.557 1004.328 1012.664 1004.338 Q 1012.771 1004.348 1012.708 1004.314 Q 1012.646 1004.281 1013.069 1004.383 Q 1013.492 1004.485 1013.728 1004.919 Q 1013.964 1005.354 1014.129 1005.492 Q 1014.293 1005.629 1014.434 1005.709 Q 1014.575 1005.788 1014.832 1005.727 Q 1015.089 1005.666 1015.360 1005.119 Q 1015.632 1004.572 1015.704 1004.334 "></path>
    <path id="STROKE_2fb5df14-7ebf-4468-b08c-9d2d50544d28" opacity="1.000" fill="none" stroke="#000000" stroke-width="1.000" stroke-opacity="1.000" stroke-linecap="round" stroke-linejoin="round" d="M 1017.622 997.507 Q 1017.485 997.909 1017.857 1003.525 Q 1018.037 1003.886 1018.779 1001.556 "></path>
    <path id="STROKE_b1a13783-194d-4e97-b04a-93d94718b191" opacity="1.000" fill="none" stroke="#000000" stroke-width="1.000" stroke-opacity="1.000" stroke-linecap="round" stroke-linejoin="round" d="M 1020.419 996.394 Q 1020.359 996.563 1020.576 995.880 Q 1020.570 997.060 1020.568 996.964 Q 1020.568 996.869 1020.696 999.900 Q 1020.825 1002.931 1020.843 1004.649 Q 1020.860 1006.366 1020.827 1006.983 Q 1020.795 1007.600 1020.569 1007.869 Q 1020.344 1008.138 1020.044 1008.165 Q 1019.744 1008.192 1019.799 1008.180 Q 1019.855 1008.167 1019.655 1008.184 Q 1019.455 1008.201 1018.923 1008.201 Q 1018.391 1008.202 1017.949 1007.830 Q 1017.507 1007.457 1017.356 1007.317 "></path>
    <path id="STROKE_5c9d864c-9cdd-4dce-b901-c0f7ee485451" opacity="1.000" fill="none" stroke="#000000" stroke-width="1.000" stroke-opacity="1.000" stroke-linecap="round" stroke-linejoin="round" d="M 1050.648 1005.652 Q 1051.317 1005.404 1054.977 1004.614 "></path>
    <path id="STROKE_c4c50e25-12ae-4944-b63a-15cc2b06bbf9" opacity="1.000" fill="none" stroke="#000000" stroke-width="1.000" stroke-opacity="1.000" stroke-linecap="round" stroke-linejoin="round" d="M 1052.747 1005.652 Q 1052.706 1006.005 1052.517 1015.538 "></path>
    <path id="STROKE_2bd91624-4251-4075-88f9-e82983cb1f4a" opacity="1.000" fill="none" stroke="#000000" stroke-width="1.000" stroke-opacity="1.000" stroke-linecap="round" stroke-linejoin="round" d="M 1049.913 1014.743 Q 1049.913 1014.743 1050.203 1014.733 Q 1050.493 1014.723 1050.315 1014.750 Q 1050.137 1014.776 1051.178 1014.704 Q 1052.219 1014.632 1053.939 1014.509 Q 1055.659 1014.387 1055.773 1014.387 "></path>
    <path id="STROKE_28acb8ef-5877-4ae5-b098-54ef7c93c1f0" opacity="1.000" fill="none" stroke="#000000" stroke-width="1.000" stroke-opacity="1.000" stroke-linecap="round" stroke-linejoin="round" d="M 1060.874 1014.986 Q 1060.874 1015.857 1060.874 1015.655 Q 1060.881 1016.361 1060.892 1016.089 Q 1060.928 1016.089 1061.151 1016.061 Q 1061.374 1016.033 1061.452 1015.977 "></path>
    <path id="STROKE_2238dba8-3e17-4fcf-8c8b-27ed995378fe" opacity="1.000" fill="none" stroke="#000000" stroke-width="1.000" stroke-opacity="1.000" stroke-linecap="round" stroke-linejoin="round" d="M 1073.281 1002.594 Q 1073.274 1002.462 1069.073 1015.023 Q 1069.235 1014.973 1069.546 1014.383 Q 1069.857 1013.793 1069.953 1013.555 "></path>
    <path id="STROKE_0d077957-96eb-423f-a815-dbf115da0939" opacity="1.000" fill="none" stroke="#000000" stroke-width="1.000" stroke-opacity="1.000" stroke-linecap="round" stroke-linejoin="round" d="M 1071.642 1005.606 Q 1071.391 1005.349 1072.419 1004.100 Q 1073.128 1002.968 1073.883 1009.154 Q 1074.638 1015.341 1074.620 1015.341 "></path>
    <path id="STROKE_958c0e0b-ce2e-4218-8294-2800f3ca8f11" opacity="1.000" fill="none" stroke="#000000" stroke-width="1.000" stroke-opacity="1.000" stroke-linecap="round" stroke-linejoin="round" d="M 1070.641 1011.451 Q 1070.641 1011.409 1070.659 1011.226 Q 1070.740 1011.200 1071.035 1011.156 Q 1071.329 1011.111 1071.614 1011.126 Q 1071.898 1011.141 1071.846 1011.135 Q 1071.795 1011.129 1073.318 1011.133 "></path>
    <path id="STROKE_b34c067b-eaae-4292-b37b-c332274015ea" opacity="1.000" fill="none" stroke="#000000" stroke-width="1.000" stroke-opacity="1.000" stroke-linecap="round" stroke-linejoin="round" d="M 1079.491 1010.179 Q 1079.577 1010.365 1079.341 1013.159 Q 1079.105 1015.954 1079.105 1016.052 "></path>
    <path id="STROKE_13f7774b-e23c-4b4d-87a4-1256001e2ba2" opacity="1.000" fill="none" stroke="#000000" stroke-width="1.000" stroke-opacity="1.000" stroke-linecap="round" stroke-linejoin="round" d="M 1051.565 1029.556 Q 1051.163 1029.551 1055.773 1029.556 "></path>
    <path id="STROKE_a22ea558-2eeb-4c88-a0e2-4f5a60ab3685" opacity="1.000" fill="none" stroke="#000000" stroke-width="1.000" stroke-opacity="1.000" stroke-linecap="round" stroke-linejoin="round" d="M 1054.049 1030.744 Q 1054.362 1031.055 1053.729 1034.643 Q 1053.096 1038.230 1053.060 1038.329 "></path>
    <path id="STROKE_cfd171c9-e4f1-4b6f-a3df-6cac8f5bbfa3" opacity="1.000" fill="none" stroke="#000000" stroke-width="1.000" stroke-opacity="1.000" stroke-linecap="round" stroke-linejoin="round" d="M 1050.757 1039.563 Q 1050.739 1039.563 1050.667 1039.325 Q 1050.795 1038.510 1057.304 1038.450 "></path>
    <path id="STROKE_06f6c3ea-abf1-4c60-b431-45829c33a717" opacity="1.000" fill="none" stroke="#000000" stroke-width="1.000" stroke-opacity="1.000" stroke-linecap="round" stroke-linejoin="round" d="M 1060.524 1037.973 Q 1060.491 1038.363 1060.681 1039.283 Q 1060.777 1039.283 1061.103 1039.283 "></path>
    <path id="STROKE_53dc4513-c023-4e80-b982-6a8395c18f61" opacity="1.000" fill="none" stroke="#000000" stroke-width="1.000" stroke-opacity="1.000" stroke-linecap="round" stroke-linejoin="round" d="M 1074.427 1027.649 Q 1074.427 1027.569 1074.391 1027.293 Q 1074.324 1027.265 1074.100 1027.711 Q 1073.875 1028.158 1070.749 1040.751 Q 1070.644 1041.015 1070.990 1039.647 "></path>
    <path id="STROKE_882beeea-bcde-4ffe-b95c-5d956488c24d" opacity="1.000" fill="none" stroke="#000000" stroke-width="1.000" stroke-opacity="1.000" stroke-linecap="round" stroke-linejoin="round" d="M 1072.474 1032.053 Q 1072.337 1031.281 1073.456 1029.715 Q 1073.788 1029.670 1074.458 1032.366 Q 1075.127 1035.063 1075.331 1041.691 Q 1075.217 1041.752 1075.159 1041.752 Q 1075.102 1041.752 1075.042 1041.752 "></path>
    <path id="STROKE_5fea1d32-e740-48ad-afe0-597723800147" opacity="1.000" fill="none" stroke="#000000" stroke-width="1.000" stroke-opacity="1.000" stroke-linecap="round" stroke-linejoin="round" d="M 1071.449 1036.860 Q 1071.253 1036.360 1071.346 1036.524 Q 1071.832 1036.458 1072.662 1036.432 Q 1073.492 1036.407 1073.703 1036.383 "></path>
    <path id="STROKE_b515d475-79f4-41f9-a8c6-b5c81c057c3f" opacity="1.000" fill="none" stroke="#000000" stroke-width="1.000" stroke-opacity="1.000" stroke-linecap="round" stroke-linejoin="round" d="M 1080.866 1035.635 Q 1081.025 1035.574 1081.386 1036.105 Q 1081.747 1036.636 1081.713 1036.828 Q 1081.680 1037.020 1081.742 1037.204 Q 1081.804 1037.389 1081.750 1037.455 Q 1081.695 1037.522 1081.654 1037.744 Q 1081.613 1037.966 1081.228 1038.303 Q 1080.843 1038.641 1080.712 1038.737 Q 1080.580 1038.834 1080.401 1038.955 Q 1080.222 1039.075 1080.052 1039.171 Q 1079.883 1039.266 1079.616 1039.414 Q 1079.349 1039.562 1079.069 1039.685 Q 1079.069 1039.703 1079.069 1039.722 Q 1079.028 1039.695 1079.656 1039.787 Q 1080.283 1039.878 1082.118 1039.940 Q 1083.953 1040.003 1084.085 1040.003 "></path>
    <path id="STROKE_3903c47b-de48-4292-8843-df2c53c6f20e" opacity="1.000" fill="none" stroke="#000000" stroke-width="1.000" stroke-opacity="1.000" stroke-linecap="round" stroke-linejoin="round" d="M 1091.405 1016.810 Q 1091.710 1017.475 1095.273 1020.335 Q 1098.836 1023.195 1103.125 1025.105 "></path>
    <path id="STROKE_f1add6d5-dbee-431e-92af-1583da09b6dc" opacity="1.000" fill="none" stroke="#000000" stroke-width="1.000" stroke-opacity="1.000" stroke-linecap="round" stroke-linejoin="round" d="M 1094.853 1034.522 Q 1094.796 1034.620 1096.237 1032.983 Q 1097.679 1031.347 1099.218 1029.806 Q 1100.757 1028.265 1103.354 1024.235 Q 1103.336 1024.235 1103.200 1024.294 Q 1103.065 1024.352 1103.005 1024.394 "></path>
    <path id="STROKE_ba9ba730-8ffa-4f94-b3c0-d07647016266" opacity="1.000" fill="none" stroke="#000000" stroke-width="1.000" stroke-opacity="1.000" stroke-linecap="round" stroke-linejoin="round" d="M 1103.234 1024.712 Q 1103.357 1024.714 1103.885 1024.786 Q 1104.412 1024.858 1105.187 1024.876 Q 1105.961 1024.894 1106.774 1024.938 Q 1107.587 1024.982 1109.497 1024.817 Q 1111.407 1024.651 1113.401 1024.278 Q 1115.396 1023.905 1117.448 1023.565 Q 1119.500 1023.225 1119.596 1023.206 "></path>
    <path id="STROKE_0575c658-cd54-4ebd-8fcb-715517f4ddf0" opacity="1.000" fill="none" stroke="#000000" stroke-width="1.000" stroke-opacity="1.000" stroke-linecap="round" stroke-linejoin="round" d="M 1116.256 1020.102 Q 1116.126 1020.186 1117.619 1020.542 Q 1119.113 1020.898 1120.116 1021.252 Q 1121.119 1021.607 1121.460 1022.712 Q 1121.802 1023.816 1118.716 1025.564 Q 1115.629 1027.312 1115.569 1027.331 "></path>
    <path id="STROKE_0088eb81-a66e-4420-9948-51b17d99cc5d" opacity="1.000" fill="none" stroke="#000000" stroke-width="1.000" stroke-opacity="1.000" stroke-linecap="round" stroke-linejoin="round" d="M 1137.792 1009.898 Q 1137.865 1009.606 1137.416 1009.649 Q 1136.967 1009.693 1135.224 1012.134 Q 1133.480 1014.575 1131.589 1016.439 Q 1129.699 1018.304 1126.264 1020.663 Q 1126.746 1020.424 1126.584 1020.504 Q 1126.620 1020.485 1126.717 1020.443 Q 1126.813 1020.401 1126.867 1020.382 "></path>
    <path id="STROKE_5b44a1b6-bb95-4459-91b7-2e09c5f08c32" opacity="1.000" fill="none" stroke="#000000" stroke-width="1.000" stroke-opacity="1.000" stroke-linecap="round" stroke-linejoin="round" d="M 1127.940 1018.474 Q 1128.113 1018.305 1128.408 1018.062 Q 1128.704 1017.820 1128.753 1017.786 Q 1128.802 1017.752 1128.870 1017.635 Q 1128.939 1017.518 1131.215 1015.730 Q 1133.492 1013.943 1135.162 1012.737 Q 1136.833 1011.531 1137.998 1010.573 Q 1139.162 1009.615 1139.604 1009.112 Q 1140.047 1008.609 1140.102 1008.419 Q 1140.157 1008.228 1140.140 1008.315 Q 1140.124 1008.401 1140.131 1008.075 Q 1140.391 1007.784 1138.269 1008.499 Q 1136.147 1009.213 1132.691 1010.768 Q 1133.303 1010.732 1133.306 1010.712 Q 1133.824 1010.476 1135.446 1010.103 Q 1137.068 1009.730 1138.372 1009.725 Q 1139.675 1009.720 1139.801 1010.315 Q 1139.927 1010.909 1139.898 1011.230 Q 1139.869 1011.552 1139.885 1011.691 Q 1139.900 1011.831 1139.782 1012.133 Q 1139.663 1012.435 1138.479 1014.425 "></path>
    <path id="STROKE_64122ec1-6c1f-4d55-baf5-4fa90bda3892" opacity="1.000" fill="none" stroke="#000000" stroke-width="1.000" stroke-opacity="1.000" stroke-linecap="round" stroke-linejoin="round" d="M 1126.602 1023.244 Q 1126.151 1022.732 1128.902 1024.932 Q 1131.653 1027.131 1134.689 1029.289 Q 1137.726 1031.446 1141.964 1034.639 Q 1142.058 1034.720 1141.433 1034.840 "></path>
    <path id="STROKE_e4c9c277-d14f-4470-96b9-5a0f3ab4dece" opacity="1.000" fill="none" stroke="#000000" stroke-width="1.000" stroke-opacity="1.000" stroke-linecap="round" stroke-linejoin="round" d="M 1135.417 1034.401 Q 1135.370 1034.298 1135.597 1034.429 Q 1135.824 1034.560 1137.895 1035.544 Q 1139.965 1036.528 1142.308 1036.725 Q 1142.639 1036.225 1142.453 1033.135 Q 1142.268 1030.045 1141.628 1028.480 Q 1140.987 1026.914 1140.927 1026.732 "></path>
    <path id="STROKE_4f20b246-3adf-4650-93c1-386dface2070" opacity="1.000" fill="none" stroke="#000000" stroke-width="1.000" stroke-opacity="1.000" stroke-linecap="round" stroke-linejoin="round" d="M 1151.152 1001.912 Q 1151.887 1001.815 1151.888 1001.818 Q 1152.531 1001.715 1154.057 1001.430 Q 1155.583 1001.145 1155.601 1001.126 "></path>
    <path id="STROKE_fed4e6b8-a5ed-4a36-bb14-15a9beab3e6b" opacity="1.000" fill="none" stroke="#000000" stroke-width="1.000" stroke-opacity="1.000" stroke-linecap="round" stroke-linejoin="round" d="M 1153.684 1001.397 Q 1153.343 1002.602 1153.666 1012.755 Q 1153.534 1012.816 1153.446 1012.826 Q 1153.359 1012.835 1153.262 1012.835 "></path>
    <path id="STROKE_64489dc0-bd1f-4c81-b829-8b1e6ed4fded" opacity="1.000" fill="none" stroke="#000000" stroke-width="1.000" stroke-opacity="1.000" stroke-linecap="round" stroke-linejoin="round" d="M 1151.044 1012.601 Q 1151.072 1012.376 1154.600 1012.129 Q 1158.128 1011.881 1158.278 1011.881 "></path>
    <path id="STROKE_17225e94-916b-42b4-b962-e1eff53ed8ee" opacity="1.000" fill="none" stroke="#000000" stroke-width="1.000" stroke-opacity="1.000" stroke-linecap="round" stroke-linejoin="round" d="M 1161.269 1010.132 Q 1161.232 1009.857 1161.196 1011.647 Q 1161.522 1010.955 1161.480 1011.049 Q 1161.684 1010.537 1162.077 1009.103 Q 1162.077 1009.541 1162.077 1009.848 Q 1162.077 1010.156 1162.077 1010.216 "></path>
    <path id="STROKE_55eaebbe-01f7-43af-9edf-66b375689b75" opacity="1.000" fill="none" stroke="#000000" stroke-width="1.000" stroke-opacity="1.000" stroke-linecap="round" stroke-linejoin="round" d="M 1171.916 999.648 Q 1171.771 1000.099 1170.913 1002.988 Q 1170.056 1005.877 1167.443 1009.777 Q 1167.403 1009.840 1167.489 1009.016 Q 1167.575 1008.192 1168.255 1006.515 Q 1168.936 1004.839 1169.590 1003.803 Q 1170.244 1002.768 1171.096 1002.230 Q 1171.834 1002.487 1172.181 1014.191 "></path>
    <path id="STROKE_7c8a6155-1881-4156-bb3d-c0fe6fd1f6df" opacity="1.000" fill="none" stroke="#000000" stroke-width="1.000" stroke-opacity="1.000" stroke-linecap="round" stroke-linejoin="round" d="M 1167.672 1007.757 Q 1167.110 1006.653 1171.880 1006.999 "></path>
    <path id="STROKE_1de8836b-4abd-47b7-9b62-bcc2fbfb8173" opacity="1.000" fill="none" stroke="#000000" stroke-width="1.000" stroke-opacity="1.000" stroke-linecap="round" stroke-linejoin="round" d="M 1169.999 1003.464 Q 1169.752 1003.757 1165.984 1014.069 "></path>
    <path id="STROKE_fe76151d-e474-40c7-88be-edd96660cf90" opacity="1.000" fill="none" stroke="#000000" stroke-width="1.000" stroke-opacity="1.000" stroke-linecap="round" stroke-linejoin="round" d="M 1178.705 1007.757 Q 1179.119 1007.927 1178.741 1015.930 "></path>
    <path id="STROKE_63c34d80-86e0-4c03-b07b-4bc078fcf02c" opacity="1.000" fill="none" stroke="#000000" stroke-width="1.000" stroke-opacity="1.000" stroke-linecap="round" stroke-linejoin="round" d="M 1186.205 1014.032 Q 1186.113 1014.380 1185.867 1016.211 Q 1185.791 1016.152 1186.591 1014.462 "></path>
    <path id="STROKE_c1bdab93-d393-4589-8e38-12290927956b" opacity="1.000" fill="none" stroke="#000000" stroke-width="1.000" stroke-opacity="1.000" stroke-linecap="round" stroke-linejoin="round" d="M 1201.374 1007.869 Q 1201.580 1008.096 1201.107 1007.650 Q 1200.634 1007.205 1199.892 1007.133 Q 1199.151 1007.062 1198.371 1008.893 Q 1197.590 1010.725 1197.298 1012.313 Q 1197.005 1013.902 1196.994 1014.760 Q 1196.982 1015.619 1196.984 1016.107 Q 1196.986 1016.594 1197.424 1017.101 Q 1197.863 1017.608 1198.768 1017.597 Q 1199.674 1017.586 1201.217 1016.333 "></path>
    <path id="STROKE_e94e7587-f565-4b1c-9410-dbc8fcf30059" opacity="1.000" fill="none" stroke="#000000" stroke-width="1.000" stroke-opacity="1.000" stroke-linecap="round" stroke-linejoin="round" d="M 1206.812 1006.681 Q 1206.329 1006.760 1205.813 1007.032 Q 1205.297 1007.304 1204.450 1009.039 Q 1203.603 1010.773 1203.169 1011.975 Q 1202.735 1013.177 1202.893 1014.981 Q 1204.543 1015.318 1205.707 1013.828 Q 1206.871 1012.338 1207.387 1010.449 Q 1207.904 1008.560 1207.921 1006.719 Q 1207.829 1007.093 1207.616 1009.013 Q 1207.404 1010.934 1207.438 1011.791 Q 1207.472 1012.648 1207.747 1013.456 Q 1208.023 1014.264 1211.068 1013.751 "></path>
    <path id="STROKE_5e4b6d48-cbc5-470d-bfe3-fc4204118a77" opacity="1.000" fill="none" stroke="#000000" stroke-width="1.000" stroke-opacity="1.000" stroke-linecap="round" stroke-linejoin="round" d="M 1215.590 1006.803 Q 1214.975 1006.484 1218.833 1006.087 Q 1222.692 1005.690 1222.753 1005.690 "></path>
    <path id="STROKE_2e3b4d9d-0fc4-4874-846c-04cc9de7dc4c" opacity="1.000" fill="none" stroke="#000000" stroke-width="1.000" stroke-opacity="1.000" stroke-linecap="round" stroke-linejoin="round" d="M 1215.626 1010.020 Q 1215.193 1009.997 1218.370 1009.611 Q 1221.547 1009.225 1221.836 1009.188 "></path>
    <path id="STROKE_348bf4c8-9e27-4254-9188-c5df59bd0acc" opacity="1.000" fill="none" stroke="#000000" stroke-width="1.000" stroke-opacity="1.000" stroke-linecap="round" stroke-linejoin="round" d="M 1232.785 1003.660 Q 1232.653 1003.636 1233.513 1004.075 Q 1234.374 1004.513 1235.207 1004.606 Q 1236.041 1004.699 1236.077 1004.699 "></path>
    <path id="STROKE_eceeb3b6-f3df-443c-abeb-90723e5e9dbe" opacity="1.000" fill="none" stroke="#000000" stroke-width="1.000" stroke-opacity="1.000" stroke-linecap="round" stroke-linejoin="round" d="M 1237.608 1000.883 Q 1238.214 999.782 1234.160 1012.124 Q 1234.160 1012.111 1234.666 1011.488 "></path>
    <path id="STROKE_45f94b62-0ece-4619-8d15-7fd2090d1a57" opacity="1.000" fill="none" stroke="#000000" stroke-width="1.000" stroke-opacity="1.000" stroke-linecap="round" stroke-linejoin="round" d="M 1241.599 1002.669 Q 1241.089 1002.877 1236.270 1006.681 Q 1236.682 1006.714 1237.968 1007.894 Q 1239.254 1009.073 1240.681 1009.803 Q 1242.108 1010.533 1244.120 1010.572 "></path>
    <path id="STROKE_138f8958-d7ce-41e2-a0d9-77875a5730ae" opacity="1.000" fill="none" stroke="#000000" stroke-width="1.000" stroke-opacity="1.000" stroke-linecap="round" stroke-linejoin="round" d="M 1156.216 1027.929 Q 1155.484 1027.957 1159.665 1027.293 Q 1158.896 1027.293 1159.104 1027.293 Q 1158.307 1027.293 1158.592 1027.293 Q 1157.962 1027.301 1158.188 1027.312 Q 1157.683 1027.293 1157.688 1030.620 Q 1157.693 1033.948 1157.849 1036.168 Q 1158.005 1038.389 1157.644 1039.146 Q 1157.284 1039.904 1157.205 1039.965 "></path>
    <path id="STROKE_6ec5ebaa-57f0-4609-b452-719264ed607b" opacity="1.000" fill="none" stroke="#000000" stroke-width="1.000" stroke-opacity="1.000" stroke-linecap="round" stroke-linejoin="round" d="M 1155.710 1039.170 Q 1156.127 1038.999 1157.044 1038.784 Q 1157.961 1038.570 1161.160 1038.450 "></path>
    <path id="STROKE_bd3a6b52-9816-4aea-ab22-c9c334db84ba" opacity="1.000" fill="none" stroke="#000000" stroke-width="1.000" stroke-opacity="1.000" stroke-linecap="round" stroke-linejoin="round" d="M 1167.165 1037.178 Q 1167.165 1037.919 1167.165 1037.735 Q 1167.183 1037.814 1167.515 1037.796 Q 1167.617 1037.621 1168.024 1036.696 Q 1168.431 1035.771 1168.467 1035.747 "></path>
    <path id="STROKE_f92bb818-86f2-4ac8-a68e-cda2e54ad7ef" opacity="1.000" fill="none" stroke="#000000" stroke-width="1.000" stroke-opacity="1.000" stroke-linecap="round" stroke-linejoin="round" d="M 1179.886 1026.461 Q 1179.655 1027.069 1178.788 1029.222 Q 1177.921 1031.374 1177.277 1032.896 Q 1176.634 1034.419 1174.906 1038.095 Q 1174.832 1038.121 1177.053 1034.008 "></path>
    <path id="STROKE_f3a865cf-7341-4a10-b477-8854818ec724" opacity="1.000" fill="none" stroke="#000000" stroke-width="1.000" stroke-opacity="1.000" stroke-linecap="round" stroke-linejoin="round" d="M 1179.657 1027.527 Q 1179.728 1027.137 1180.809 1026.498 Q 1181.488 1026.625 1182.792 1038.965 "></path>
    <path id="STROKE_ffe00566-5b5e-41cd-92ad-e7fa433c2286" opacity="1.000" fill="none" stroke="#000000" stroke-width="1.000" stroke-opacity="1.000" stroke-linecap="round" stroke-linejoin="round" d="M 1177.318 1033.484 Q 1177.287 1033.051 1179.555 1032.744 Q 1181.822 1032.437 1182.033 1032.418 "></path>
    <path id="STROKE_fa9ce955-f23e-43e4-bbb0-f389d4a7d96a" opacity="1.000" fill="none" stroke="#000000" stroke-width="1.000" stroke-opacity="1.000" stroke-linecap="round" stroke-linejoin="round" d="M 1186.518 1032.334 Q 1187.195 1032.529 1187.202 1032.575 Q 1187.208 1032.621 1187.337 1032.769 Q 1187.466 1032.917 1187.422 1032.792 Q 1187.378 1032.667 1187.818 1033.553 Q 1188.258 1034.440 1187.965 1035.495 Q 1187.672 1036.550 1185.638 1038.908 Q 1185.659 1039.173 1187.445 1038.882 Q 1189.231 1038.590 1189.388 1038.534 "></path>
    <path id="STROKE_ed925985-d0ec-4284-969c-f3af927c0d68" opacity="1.000" fill="none" stroke="#000000" stroke-width="1.000" stroke-opacity="1.000" stroke-linecap="round" stroke-linejoin="round" d="M 1195.900 1037.580 Q 1195.798 1037.741 1195.545 1037.819 Q 1195.292 1037.898 1195.270 1039.287 Q 1195.248 1040.676 1195.321 1040.714 "></path>
    <path id="STROKE_e83d986c-50ca-4133-9647-6eb56fdddda3" opacity="1.000" fill="none" stroke="#000000" stroke-width="1.000" stroke-opacity="1.000" stroke-linecap="round" stroke-linejoin="round" d="M 1207.162 1031.025 Q 1206.414 1030.924 1205.303 1031.315 Q 1204.193 1031.706 1203.505 1033.402 Q 1202.817 1035.098 1202.646 1036.178 Q 1202.474 1037.258 1202.523 1038.117 Q 1202.573 1038.977 1202.904 1039.419 Q 1203.235 1039.860 1203.663 1040.057 Q 1204.091 1040.255 1204.365 1040.271 Q 1204.640 1040.287 1204.972 1040.287 Q 1205.304 1040.287 1205.705 1040.234 Q 1206.107 1040.180 1206.354 1040.078 "></path>
    <path id="STROKE_436a8eb3-4e99-4ad7-87ea-9646797fb01a" opacity="1.000" fill="none" stroke="#000000" stroke-width="1.000" stroke-opacity="1.000" stroke-linecap="round" stroke-linejoin="round" d="M 1212.407 1031.343 Q 1212.390 1031.259 1210.994 1033.182 Q 1209.597 1035.106 1209.248 1039.666 Q 1209.891 1040.286 1211.035 1039.017 Q 1212.178 1037.748 1212.693 1036.696 Q 1213.207 1035.644 1213.367 1035.046 Q 1213.528 1034.448 1213.635 1033.634 Q 1213.742 1032.820 1213.777 1032.311 Q 1213.813 1031.802 1213.814 1031.948 Q 1213.816 1032.093 1213.830 1031.085 Q 1213.579 1030.687 1213.037 1032.626 Q 1212.495 1034.565 1212.513 1036.034 Q 1212.531 1037.504 1213.147 1038.483 Q 1213.762 1039.463 1214.970 1039.708 Q 1216.178 1039.953 1216.954 1039.874 Q 1217.729 1039.795 1218.213 1039.569 Q 1218.697 1039.344 1219.088 1039.086 Q 1219.479 1038.829 1219.690 1038.693 "></path>
    <path id="STROKE_226810d9-ad26-4847-a27a-2ca9533e5ab0" opacity="1.000" fill="none" stroke="#000000" stroke-width="1.000" stroke-opacity="1.000" stroke-linecap="round" stroke-linejoin="round" d="M 1221.523 1033.961 Q 1221.406 1034.023 1223.253 1033.025 Q 1225.100 1032.026 1227.877 1032.175 "></path>
    <path id="STROKE_e626a630-3e0b-488c-bf5d-96d4d1f18590" opacity="1.000" fill="none" stroke="#000000" stroke-width="1.000" stroke-opacity="1.000" stroke-linecap="round" stroke-linejoin="round" d="M 1221.414 1037.384 Q 1221.393 1037.408 1220.534 1037.342 Q 1220.727 1036.680 1220.872 1036.846 Q 1221.139 1036.357 1228.806 1035.551 "></path>
    <path id="STROKE_f5ddc845-de7b-4f18-a6d4-3aecf6ada735" opacity="1.000" fill="none" stroke="#000000" stroke-width="1.000" stroke-opacity="1.000" stroke-linecap="round" stroke-linejoin="round" d="M 1235.968 1031.268 Q 1236.053 1031.375 1237.307 1031.745 "></path>
    <path id="STROKE_dbffb284-e992-44a6-b98a-b3f4980a10e3" opacity="1.000" fill="none" stroke="#000000" stroke-width="1.000" stroke-opacity="1.000" stroke-linecap="round" stroke-linejoin="round" d="M 1240.526 1028.369 Q 1240.408 1028.873 1239.647 1031.988 Q 1238.885 1035.103 1237.559 1037.761 Q 1236.234 1040.419 1236.197 1040.442 "></path>
    <path id="STROKE_52a5bca3-fd4d-4c04-b62a-0202c0a5de80" opacity="1.000" fill="none" stroke="#000000" stroke-width="1.000" stroke-opacity="1.000" stroke-linecap="round" stroke-linejoin="round" d="M 1245.156 1029.715 Q 1245.308 1029.698 1238.766 1033.466 Q 1238.766 1033.508 1238.766 1033.568 Q 1239.152 1033.277 1241.172 1034.577 Q 1243.193 1035.876 1244.392 1036.777 Q 1245.592 1037.677 1246.676 1038.047 Q 1247.761 1038.417 1248.834 1038.488 "></path>
    <path id="STROKE_6bd96994-b3f6-4eb0-ba3d-69ef463c8b3b" opacity="1.000" fill="none" stroke="#000000" stroke-width="1.000" stroke-opacity="1.000" stroke-linecap="round" stroke-linejoin="round" d="M 947.663 821.716 Q 948.247 822.121 947.627 835.416 Q 947.627 835.432 947.627 834.266 "></path>
    <path id="STROKE_1a17f350-d879-4aad-95c1-ef7a59d7d930" opacity="1.000" fill="none" stroke="#000000" stroke-width="1.000" stroke-opacity="1.000" stroke-linecap="round" stroke-linejoin="round" d="M 944.757 829.983 Q 945.303 829.541 950.195 827.635 "></path>
    <path id="STROKE_bff1e2dd-b2c2-4d11-a63f-9aa0bbcf8246" opacity="1.000" fill="none" stroke="#000000" stroke-width="1.000" stroke-opacity="1.000" stroke-linecap="round" stroke-linejoin="round" d="M 948.157 824.699 Q 948.240 824.803 947.964 835.893 Q 947.946 835.893 947.928 835.893 Q 948.210 836.120 946.210 830.834 Q 945.462 830.198 943.684 834.107 Q 943.818 834.255 944.754 833.170 Q 945.691 832.086 946.588 831.735 Q 947.485 831.384 948.295 831.403 Q 949.104 831.421 949.527 831.755 Q 949.951 832.090 950.338 832.266 Q 950.726 832.442 950.762 832.442 "></path>
    <path id="STROKE_f60b0eb5-cea5-4d75-b3e5-bcc285e82520" opacity="1.000" fill="none" stroke="#000000" stroke-width="1.000" stroke-opacity="1.000" stroke-linecap="round" stroke-linejoin="round" d="M 951.112 826.766 Q 950.984 826.855 951.244 835.678 Q 951.305 835.697 951.449 835.575 "></path>
    <path id="STROKE_50a646a3-f6ad-4c0e-affd-b1c450a64e49" opacity="1.000" fill="none" stroke="#000000" stroke-width="1.000" stroke-opacity="1.000" stroke-linecap="round" stroke-linejoin="round" d="M 951.220 825.494 Q 951.231 825.293 951.160 824.742 Q 951.089 824.190 951.544 823.759 Q 951.999 823.328 952.539 823.196 Q 953.078 823.065 953.337 823.071 Q 953.596 823.076 953.845 823.204 Q 954.094 823.332 954.269 823.595 Q 954.444 823.858 954.546 824.053 Q 954.648 824.248 954.768 824.507 Q 954.889 824.765 954.963 824.963 Q 955.038 825.162 955.201 825.622 Q 955.364 826.082 955.473 826.661 Q 955.582 827.239 955.825 827.978 Q 956.067 828.717 956.092 835.341 "></path>
    <path id="STROKE_0d1c4cc5-883d-4fd1-acfb-48e1ed55efb9" opacity="1.000" fill="none" stroke="#000000" stroke-width="1.000" stroke-opacity="1.000" stroke-linecap="round" stroke-linejoin="round" d="M 952.715 829.225 Q 952.195 828.511 955.036 828.131 Q 954.984 828.035 955.284 828.838 Q 955.584 829.641 952.836 831.367 Q 952.939 830.707 955.519 830.895 Q 955.330 830.769 955.566 831.053 Q 955.802 831.338 955.721 832.922 Q 955.640 834.505 952.872 836.529 Q 953.652 835.810 955.423 834.819 Q 957.194 833.828 959.201 833.833 "></path>
    <path id="STROKE_aef9cfe9-d2f0-4123-b2ef-b0aedbdbb82b" opacity="1.000" fill="none" stroke="#000000" stroke-width="1.000" stroke-opacity="1.000" stroke-linecap="round" stroke-linejoin="round" d="M 969.380 822.510 Q 969.330 822.730 969.591 827.439 Q 969.687 827.439 969.729 827.439 "></path>
    <path id="STROKE_e764129f-4cd5-422d-89cd-c3582ace9ecb" opacity="1.000" fill="none" stroke="#000000" stroke-width="1.000" stroke-opacity="1.000" stroke-linecap="round" stroke-linejoin="round" d="M 971.562 819.817 Q 971.271 819.877 972.132 819.330 Q 972.992 818.783 973.843 818.653 Q 974.694 818.523 975.224 818.567 Q 975.753 818.611 976.015 818.959 Q 976.277 819.306 976.257 819.872 Q 976.237 820.438 976.119 820.871 Q 976.001 821.303 975.162 821.946 Q 974.323 822.590 974.130 822.669 "></path>
    <path id="STROKE_49325635-5237-422d-8154-94a4b5dc1a2a" opacity="1.000" fill="none" stroke="#000000" stroke-width="1.000" stroke-opacity="1.000" stroke-linecap="round" stroke-linejoin="round" d="M 972.177 821.678 Q 972.221 821.462 973.672 821.641 Q 974.639 822.650 971.140 825.213 Q 970.851 825.462 971.637 824.438 Q 972.423 823.413 973.998 823.146 Q 974.022 823.249 974.022 823.352 "></path>
    <path id="STROKE_392092cb-b83a-45b4-95b0-94ef95c543bc" opacity="1.000" fill="none" stroke="#000000" stroke-width="1.000" stroke-opacity="1.000" stroke-linecap="round" stroke-linejoin="round" d="M 968.499 827.953 Q 968.396 828.134 968.128 828.632 Q 967.860 829.130 967.908 832.045 Q 968.565 832.201 968.709 831.496 Q 968.853 830.790 969.113 830.159 Q 969.373 829.527 969.444 829.237 Q 969.515 828.946 969.872 828.232 Q 970.230 827.518 970.968 826.878 Q 971.707 826.239 972.608 826.095 Q 973.509 825.952 974.000 826.030 Q 974.491 826.107 974.415 826.163 Q 974.339 826.219 974.978 826.292 Q 975.617 826.366 976.162 830.137 Q 975.877 830.203 975.698 830.179 "></path>
    <path id="STROKE_0fdecf3f-ac3b-434f-a44c-c6e35d672c7a" opacity="1.000" fill="none" stroke="#000000" stroke-width="1.000" stroke-opacity="1.000" stroke-linecap="round" stroke-linejoin="round" d="M 972.985 823.941 Q 972.702 824.413 970.489 833.359 Q 970.305 833.293 971.069 832.463 Q 971.833 831.632 972.407 831.094 Q 972.981 830.557 973.253 830.539 Q 973.525 830.521 973.515 830.504 Q 973.504 830.488 973.500 830.478 Q 973.496 830.468 973.496 830.460 Q 973.497 830.452 973.505 830.461 Q 973.513 830.470 973.546 830.510 Q 973.578 830.550 973.799 830.897 Q 974.020 831.244 974.057 831.241 Q 974.094 831.238 974.030 831.225 Q 973.966 831.212 974.091 831.238 Q 974.217 831.263 974.570 831.194 Q 974.607 831.035 974.616 830.934 Q 974.625 830.834 974.625 830.731 "></path>
    <path id="STROKE_6bf20dc8-3261-463d-a4a3-7c66cb4e3496" opacity="1.000" fill="none" stroke="#000000" stroke-width="1.000" stroke-opacity="1.000" stroke-linecap="round" stroke-linejoin="round" d="M 971.068 825.887 Q 970.607 825.807 971.544 829.936 Q 971.580 829.936 971.598 829.936 "></path>
    <path id="STROKE_26cbf11a-3f6e-48d8-9bc8-28e0f0fb6b0c" opacity="1.000" fill="none" stroke="#000000" stroke-width="1.000" stroke-opacity="1.000" stroke-linecap="round" stroke-linejoin="round" d="M 962.531 820.687 Q 963.075 821.206 963.791 823.925 Q 964.507 826.644 964.696 828.231 Q 964.885 829.819 964.836 830.853 Q 964.787 831.887 965.110 832.747 Q 965.434 833.606 965.740 834.039 Q 966.046 834.471 966.289 834.567 Q 966.533 834.662 966.786 834.869 Q 967.039 835.076 969.606 835.057 Q 972.173 835.038 975.021 834.402 Q 977.869 833.767 980.606 832.994 "></path>
    <path id="STROKE_f60817bf-afb5-4ab3-bf20-8e95da1cfb98" opacity="1.000" fill="none" stroke="#000000" stroke-width="1.000" stroke-opacity="1.000" stroke-linecap="round" stroke-linejoin="round" d="M 987.503 820.172 Q 987.439 820.211 985.690 822.228 Q 983.941 824.245 982.487 833.434 Q 982.416 832.864 982.694 831.268 Q 982.973 829.672 983.535 828.355 Q 984.098 827.039 985.320 826.255 Q 986.541 825.470 987.476 825.208 Q 988.411 824.946 988.856 825.005 Q 989.300 825.065 989.733 825.120 Q 990.166 825.176 990.321 826.040 Q 990.476 826.904 990.418 828.178 Q 990.360 829.452 989.661 830.690 Q 988.961 831.927 988.141 832.735 Q 987.322 833.542 986.625 833.745 Q 985.929 833.948 985.742 833.948 "></path>
    <path id="STROKE_df3fc82f-77d5-49d4-960f-5e9351467cf7" opacity="1.000" fill="none" stroke="#000000" stroke-width="1.000" stroke-opacity="1.000" stroke-linecap="round" stroke-linejoin="round" d="M 986.008 829.506 Q 986.175 830.259 988.954 831.887 Q 991.733 833.515 993.781 833.694 Q 995.829 833.873 996.004 833.873 "></path>
    <path id="STROKE_8f1e4ea1-f1b1-4b6c-8b05-fe936b8fb158" opacity="1.000" fill="none" stroke="#000000" stroke-width="1.000" stroke-opacity="1.000" stroke-linecap="round" stroke-linejoin="round" d="M 998.801 821.800 Q 998.536 821.744 1001.731 821.360 Q 1001.850 821.950 999.959 823.825 Q 998.069 825.701 995.473 826.766 Q 995.347 826.434 998.182 825.098 Q 1001.016 823.763 1005.927 823.464 "></path>
    <path id="STROKE_0b4f8f1c-0f51-461b-b8f5-252879947b97" opacity="1.000" fill="none" stroke="#000000" stroke-width="1.000" stroke-opacity="1.000" stroke-linecap="round" stroke-linejoin="round" d="M 997.426 826.046 Q 996.867 826.553 996.160 834.472 Q 996.259 834.264 996.498 833.630 "></path>
    <path id="STROKE_3a7ecca0-cc21-428b-953c-b98d7525c816" opacity="1.000" fill="none" stroke="#000000" stroke-width="1.000" stroke-opacity="1.000" stroke-linecap="round" stroke-linejoin="round" d="M 999.609 827.720 Q 999.519 827.965 999.398 829.022 Q 999.277 830.079 999.243 830.548 Q 999.209 831.017 999.599 831.483 Q 999.989 831.949 1000.846 831.949 Q 1001.703 831.948 1004.046 827.635 Q 1003.772 827.920 1003.460 828.633 Q 1003.148 829.347 1003.043 829.776 Q 1002.939 830.205 1002.922 830.420 Q 1002.905 830.635 1002.901 830.829 Q 1002.896 831.022 1002.919 831.250 Q 1002.644 831.165 1003.312 831.396 Q 1003.980 831.626 1006.880 828.832 Q 1006.665 829.072 1005.330 830.360 Q 1003.994 831.648 1002.267 832.804 Q 1000.540 833.959 996.233 835.734 Q 996.283 835.861 998.302 835.061 Q 1000.321 834.261 1003.085 833.777 Q 1005.849 833.294 1008.053 833.364 Q 1010.258 833.435 1011.385 833.844 Q 1012.511 834.252 1012.740 834.350 "></path>
    <path id="STROKE_6a7b1858-3e0e-465f-87e8-00b696ec2690" opacity="1.000" fill="none" stroke="#000000" stroke-width="1.000" stroke-opacity="1.000" stroke-linecap="round" stroke-linejoin="round" d="M 1018.142 833.836 Q 1018.286 834.065 1018.030 834.815 Q 1017.775 835.565 1017.396 835.989 Q 1017.018 836.414 1016.915 836.483 Q 1016.811 836.553 1016.889 836.518 Q 1016.966 836.484 1016.943 836.497 Q 1016.919 836.511 1016.867 836.535 Q 1016.815 836.559 1016.273 836.772 Q 1016.254 837.003 1017.044 837.344 Q 1017.835 837.684 1017.949 837.726 "></path>
    <path id="STROKE_ea3d5cab-15f5-433f-804b-19362fb1959d" opacity="1.000" fill="none" stroke="#000000" stroke-width="1.000" stroke-opacity="1.000" stroke-linecap="round" stroke-linejoin="round" d="M 963.218 815.646 Q 962.725 815.667 963.171 817.204 Q 963.616 818.742 963.748 818.863 "></path>
    <path id="STROKE_9be1790d-8c48-4048-bf43-437510ea4ab9" opacity="1.000" fill="none" stroke="#000000" stroke-width="1.000" stroke-opacity="1.000" stroke-linecap="round" stroke-linejoin="round" d="M 1019.179 833.116 Q 1018.845 832.824 1020.252 833.752 "></path>
    <circle id="STROKE_7150be0e-9683-4528-ae27-d58a84b925d8" opacity="1.000" fill="#000000" stroke="#000000" stroke-width="0.1" stroke-opacity="1.000" fill-opacity="1.000" cx="1018.142" cy="837.324" r="0.500"></circle>
    <path id="STROKE_ded17f2c-b290-4354-9f40-6ec4c75c118d" opacity="1.000" fill="none" stroke="#000000" stroke-width="1.000" stroke-opacity="1.000" stroke-linecap="round" stroke-linejoin="round" d="M 1010.899 850.277 Q 1010.831 850.686 1003.893 863.819 Q 1003.334 864.011 1007.245 858.656 Q 1007.693 859.100 1006.920 867.354 Q 1007.100 867.235 1007.200 867.098 Q 1007.300 866.961 1007.414 866.802 "></path>
    <path id="STROKE_7d98f7c8-3017-4a86-a7b5-ffe2ac552ea5" opacity="1.000" fill="none" stroke="#000000" stroke-width="1.000" stroke-opacity="1.000" stroke-linecap="round" stroke-linejoin="round" d="M 1011.900 855.243 Q 1012.049 855.132 1014.311 854.724 Q 1014.661 855.062 1013.877 856.700 Q 1013.093 858.337 1011.249 859.489 Q 1011.637 858.843 1011.665 858.979 Q 1011.583 859.031 1012.129 858.695 Q 1012.675 858.360 1014.504 858.376 "></path>
    <path id="STROKE_2e641935-0dde-4009-8c22-9d6761674373" opacity="1.000" fill="none" stroke="#000000" stroke-width="1.000" stroke-opacity="1.000" stroke-linecap="round" stroke-linejoin="round" d="M 1011.743 856.833 Q 1011.615 856.537 1011.285 870.019 "></path>
    <path id="STROKE_4c54c226-51ea-4531-ad56-20e5515482df" opacity="1.000" fill="none" stroke="#000000" stroke-width="1.000" stroke-opacity="1.000" stroke-linecap="round" stroke-linejoin="round" d="M 1012.708 862.668 Q 1013.839 863.207 1013.431 863.103 Q 1013.598 863.184 1013.481 864.704 Q 1013.364 866.224 1012.394 867.036 Q 1012.427 866.423 1016.458 863.183 "></path>
    <path id="STROKE_3d3789d5-d200-4021-a1de-dfb39ca198b4" opacity="1.000" fill="none" stroke="#000000" stroke-width="1.000" stroke-opacity="1.000" stroke-linecap="round" stroke-linejoin="round" d="M 1019.786 856.477 Q 1019.882 856.477 1020.286 856.552 Q 1021.392 857.828 1017.603 861.359 Q 1017.743 860.766 1017.770 860.761 Q 1017.797 860.756 1017.834 860.760 Q 1017.871 860.765 1018.022 860.500 Q 1018.172 860.235 1020.401 859.923 Q 1020.589 860.237 1020.630 862.154 "></path>
    <path id="STROKE_e74a855a-ff67-4d93-8383-3d8cd3d1ff4e" opacity="1.000" fill="none" stroke="#000000" stroke-width="1.000" stroke-opacity="1.000" stroke-linecap="round" stroke-linejoin="round" d="M 1016.566 864.857 Q 1016.859 864.033 1017.058 863.896 Q 1017.257 863.759 1017.250 863.786 Q 1017.243 863.812 1017.264 863.617 Q 1017.284 863.422 1019.918 862.846 Q 1020.499 863.339 1020.328 864.978 Q 1020.157 866.618 1019.573 867.761 Q 1018.988 868.904 1018.354 869.805 Q 1017.720 870.706 1017.098 870.739 Q 1016.476 870.772 1016.422 870.692 "></path>
    <path id="STROKE_a8bd1588-41bc-417d-952c-1b999f355ab8" opacity="1.000" fill="none" stroke="#000000" stroke-width="1.000" stroke-opacity="1.000" stroke-linecap="round" stroke-linejoin="round" d="M 1017.917 866.680 Q 1017.774 866.691 1018.740 867.946 Q 1019.705 869.201 1026.526 868.345 "></path>
    <path id="STROKE_703bbc42-09bf-4399-96cb-a946400aa387" opacity="1.000" fill="none" stroke="#000000" stroke-width="1.000" stroke-opacity="1.000" stroke-linecap="round" stroke-linejoin="round" d="M 1028.480 858.853 Q 1028.666 858.929 1028.707 858.948 Q 1028.747 858.967 1028.745 858.959 Q 1028.743 858.951 1028.844 859.014 Q 1028.945 859.078 1029.360 859.526 "></path>
    <path id="STROKE_bdf66caa-aa89-4fc4-a64b-de1ccf296577" opacity="1.000" fill="none" stroke="#000000" stroke-width="1.000" stroke-opacity="1.000" stroke-linecap="round" stroke-linejoin="round" d="M 1028.902 861.677 Q 1029.909 862.422 1028.564 871.403 Q 1028.627 870.931 1029.528 869.401 Q 1030.429 867.872 1030.950 864.312 Q 1031.471 860.752 1032.453 857.469 Q 1032.560 857.904 1032.278 861.995 Q 1032.337 860.797 1032.332 861.139 Q 1032.447 860.396 1032.774 859.685 Q 1033.101 858.973 1033.385 858.602 Q 1033.669 858.231 1034.156 857.974 Q 1034.643 857.717 1035.502 858.130 Q 1036.362 858.544 1035.377 862.388 Q 1035.999 862.486 1036.511 862.171 Q 1037.023 861.855 1037.137 861.799 "></path>
    <path id="STROKE_f3e0ea85-1e33-4ab6-b160-e65b2b394034" opacity="1.000" fill="none" stroke="#000000" stroke-width="1.000" stroke-opacity="1.000" stroke-linecap="round" stroke-linejoin="round" d="M 1032.808 865.212 Q 1032.556 864.950 1033.577 864.605 Q 1034.598 864.261 1035.497 864.557 Q 1035.665 864.969 1035.517 865.917 Q 1035.370 866.866 1034.356 868.638 Q 1033.342 870.411 1032.081 870.809 Q 1030.819 871.207 1030.783 871.169 "></path>
    <path id="STROKE_8d785c8b-da86-41ac-94ac-0d1c85a3d7d4" opacity="1.000" fill="none" stroke="#000000" stroke-width="1.000" stroke-opacity="1.000" stroke-linecap="round" stroke-linejoin="round" d="M 1032.278 866.914 Q 1032.210 867.042 1032.646 867.995 Q 1033.083 868.949 1034.355 869.967 Q 1035.627 870.985 1037.072 871.156 Q 1038.518 871.328 1038.596 871.328 "></path>
    <path id="STROKE_93b29000-8b27-46c9-ac51-5354aee6aeb6" opacity="1.000" fill="none" stroke="#000000" stroke-width="1.000" stroke-opacity="1.000" stroke-linecap="round" stroke-linejoin="round" d="M 1026.526 863.697 Q 1026.694 863.690 1029.975 862.790 "></path>
    <path id="STROKE_c30c5097-3e2c-4873-b151-f2f0f183ebe0" opacity="1.000" fill="none" stroke="#000000" stroke-width="1.000" stroke-opacity="1.000" stroke-linecap="round" stroke-linejoin="round" d="M 980.139 862.584 Q 980.661 862.870 983.284 862.789 Q 985.908 862.709 987.316 862.074 Q 988.724 861.439 988.881 861.322 "></path>
    <path id="STROKE_303b9c71-cd01-450c-a6b9-b2d41d6215bd" opacity="1.000" fill="none" stroke="#000000" stroke-width="1.000" stroke-opacity="1.000" stroke-linecap="round" stroke-linejoin="round" d="M 983.286 858.694 Q 982.810 858.597 983.515 861.958 "></path>
    <path id="STROKE_b678c62d-ee56-4672-9e06-e8de7f03cf2d" opacity="1.000" fill="none" stroke="#000000" stroke-width="1.000" stroke-opacity="1.000" stroke-linecap="round" stroke-linejoin="round" d="M 988.688 857.945 Q 988.387 858.782 984.854 865.006 "></path>
    <path id="STROKE_60beef4d-2779-45e6-99f1-dccca4f7593e" opacity="1.000" fill="none" stroke="#000000" stroke-width="1.000" stroke-opacity="1.000" stroke-linecap="round" stroke-linejoin="round" d="M 980.103 865.605 Q 980.594 865.465 981.437 865.353 Q 982.279 865.240 989.641 862.668 "></path>
    <path id="STROKE_0894677d-24b7-4386-a9df-bcd63907081a" opacity="1.000" fill="none" stroke="#000000" stroke-width="1.000" stroke-opacity="1.000" stroke-linecap="round" stroke-linejoin="round" d="M 987.808 861.434 Q 987.294 861.920 984.824 865.284 Q 982.355 868.649 978.993 872.039 Q 978.939 871.747 984.335 867.036 Q 984.574 867.398 984.623 868.077 Q 984.673 868.757 983.202 873.947 Q 983.373 873.872 984.019 872.521 Q 984.665 871.170 985.380 870.077 Q 986.096 868.983 986.755 868.801 Q 987.414 868.618 987.961 868.514 Q 988.508 868.409 988.983 869.004 Q 989.457 869.599 989.461 870.160 Q 989.465 870.721 989.309 871.121 Q 989.152 871.520 989.028 871.646 Q 988.903 871.771 988.068 872.242 Q 987.233 872.714 983.588 874.920 Q 984.839 874.989 987.384 873.973 Q 989.930 872.956 990.027 872.918 "></path>
    <path id="STROKE_84823c3d-369a-4d7c-83b8-9c2c46495008" opacity="1.000" fill="none" stroke="#000000" stroke-width="1.000" stroke-opacity="1.000" stroke-linecap="round" stroke-linejoin="round" d="M 982.213 859.489 Q 982.306 859.247 981.497 860.958 Q 980.687 862.668 980.875 865.408 "></path>
    <path id="STROKE_69dc76a9-f801-406c-bbe6-c5e68963daf2" opacity="1.000" fill="none" stroke="#000000" stroke-width="1.000" stroke-opacity="1.000" stroke-linecap="round" stroke-linejoin="round" d="M 1065.066 857.796 Q 1064.861 858.216 1064.185 861.154 Q 1063.508 864.091 1060.774 869.869 Q 1060.774 869.851 1060.774 869.514 "></path>
    <path id="STROKE_0ebca582-5117-45db-b5f0-eda54913a391" opacity="1.000" fill="none" stroke="#000000" stroke-width="1.000" stroke-opacity="1.000" stroke-linecap="round" stroke-linejoin="round" d="M 1065.332 858.469 Q 1064.952 858.632 1067.020 869.954 "></path>
    <path id="STROKE_d6eb8113-356c-42cd-ac2b-b335adef54d0" opacity="1.000" fill="none" stroke="#000000" stroke-width="1.000" stroke-opacity="1.000" stroke-linecap="round" stroke-linejoin="round" d="M 1063.957 865.942 Q 1064.537 866.191 1066.899 866.213 "></path>
    <path id="STROKE_25a2b719-9eb5-48b2-8a6b-502458850926" opacity="1.000" fill="none" stroke="#000000" stroke-width="1.000" stroke-opacity="1.000" stroke-linecap="round" stroke-linejoin="round" d="M 1071.614 868.598 Q 1071.582 868.849 1071.312 870.028 Q 1071.330 869.949 1071.349 869.869 "></path>
    <path id="STROKE_b0943c25-b248-4d77-a3f9-1ad33856c5b4" opacity="1.000" fill="none" stroke="#000000" stroke-width="1.000" stroke-opacity="1.000" stroke-linecap="round" stroke-linejoin="round" d="M 1075.099 862.247 Q 1075.532 862.501 1074.026 873.124 Q 1073.724 872.729 1074.891 869.916 Q 1076.059 867.103 1076.657 865.190 Q 1077.255 863.278 1079.102 862.070 Q 1079.438 862.108 1079.285 865.632 Q 1079.132 869.157 1079.542 872.909 Q 1079.870 872.993 1080.204 872.969 Q 1080.537 872.946 1080.766 872.928 "></path>
    <path id="STROKE_f69526d1-4817-4aeb-8046-c86eb403fa66" opacity="1.000" fill="none" stroke="#000000" stroke-width="1.000" stroke-opacity="1.000" stroke-linecap="round" stroke-linejoin="round" d="M 1090.991 861.050 Q 1092.031 861.061 1098.202 860.143 "></path>
    <path id="STROKE_05f7a975-cc2a-4183-9981-3b67911d74f8" opacity="1.000" fill="none" stroke="#000000" stroke-width="1.000" stroke-opacity="1.000" stroke-linecap="round" stroke-linejoin="round" d="M 1095.127 860.695 Q 1094.801 860.922 1093.438 862.843 Q 1092.076 864.764 1089.544 866.054 Q 1089.668 865.637 1089.760 865.591 Q 1089.852 865.544 1089.966 865.427 "></path>
    <path id="STROKE_84cf1145-8db0-4269-9663-0439c536d494" opacity="1.000" fill="none" stroke="#000000" stroke-width="1.000" stroke-opacity="1.000" stroke-linecap="round" stroke-linejoin="round" d="M 1093.415 864.585 Q 1092.702 865.142 1093.083 872.235 Q 1093.180 872.254 1093.451 872.170 "></path>
    <path id="STROKE_61da9c4d-c89b-4f87-bcf0-aaa8cd64a7d1" opacity="1.000" fill="none" stroke="#000000" stroke-width="1.000" stroke-opacity="1.000" stroke-linecap="round" stroke-linejoin="round" d="M 1094.717 866.054 Q 1094.648 865.844 1094.832 866.971 Q 1095.017 868.098 1096.230 868.724 Q 1097.444 869.349 1098.558 868.805 Q 1099.673 868.261 1099.805 868.121 "></path>
    <path id="STROKE_fbf92f40-7da2-4148-aa75-6e1132667d20" opacity="1.000" fill="none" stroke="#000000" stroke-width="1.000" stroke-opacity="1.000" stroke-linecap="round" stroke-linejoin="round" d="M 1104.978 861.209 Q 1104.717 861.429 1107.431 861.389 Q 1110.145 861.350 1110.224 861.331 "></path>
    <path id="STROKE_02a8bdbf-6773-49fc-85be-fcf80b41080c" opacity="1.000" fill="none" stroke="#000000" stroke-width="1.000" stroke-opacity="1.000" stroke-linecap="round" stroke-linejoin="round" d="M 1103.326 864.473 Q 1103.888 864.015 1108.849 862.837 "></path>
    <path id="STROKE_900315b9-0a47-4e4b-a634-4362d9dd4642" opacity="1.000" fill="none" stroke="#000000" stroke-width="1.000" stroke-opacity="1.000" stroke-linecap="round" stroke-linejoin="round" d="M 1106.510 865.343 Q 1106.510 865.465 1106.546 865.930 Q 1106.582 866.395 1106.618 866.493 "></path>
    <path id="STROKE_bc7bbd52-2d90-4ad3-b263-4223b731d4d3" opacity="1.000" fill="none" stroke="#000000" stroke-width="1.000" stroke-opacity="1.000" stroke-linecap="round" stroke-linejoin="round" d="M 1108.728 864.707 Q 1108.597 865.012 1108.270 867.167 "></path>
    <path id="STROKE_37879cbe-b094-4b43-8436-dbafc9d1d3b8" opacity="1.000" fill="none" stroke="#000000" stroke-width="1.000" stroke-opacity="1.000" stroke-linecap="round" stroke-linejoin="round" d="M 1104.436 867.167 Q 1104.109 867.259 1103.556 867.372 Q 1103.102 867.766 1104.365 866.959 Q 1105.627 866.152 1107.251 865.313 Q 1108.876 864.474 1110.857 864.969 Q 1111.052 865.234 1110.646 866.615 "></path>
    <path id="STROKE_a6d4c72f-fbbd-4329-af7d-16d11e39311f" opacity="1.000" fill="none" stroke="#000000" stroke-width="1.000" stroke-opacity="1.000" stroke-linecap="round" stroke-linejoin="round" d="M 1105.473 868.794 Q 1105.412 868.901 1105.917 868.414 Q 1106.422 867.928 1107.649 867.668 Q 1108.876 867.408 1109.414 867.488 Q 1109.953 867.568 1110.165 867.792 Q 1110.378 868.016 1110.374 868.222 Q 1110.370 868.427 1110.461 868.987 Q 1110.552 869.546 1109.495 870.740 Q 1108.437 871.934 1107.108 872.556 Q 1105.778 873.179 1104.958 873.283 Q 1104.138 873.387 1103.447 873.283 "></path>
    <path id="STROKE_27038903-948d-4b59-afe0-cdc92c68555b" opacity="1.000" fill="none" stroke="#000000" stroke-width="1.000" stroke-opacity="1.000" stroke-linecap="round" stroke-linejoin="round" d="M 1104.484 870.505 Q 1105.183 871.059 1107.226 871.916 Q 1109.270 872.773 1115.505 872.413 "></path>
    <path id="STROKE_919ddc34-8a7b-436e-8584-e541fc6716e8" opacity="1.000" fill="none" stroke="#000000" stroke-width="1.000" stroke-opacity="1.000" stroke-linecap="round" stroke-linejoin="round" d="M 1128.491 869.991 Q 1129.310 869.842 1127.843 871.721 Q 1126.375 873.601 1126.357 873.601 "></path>
    <path id="STROKE_7e9964a9-b74a-45d8-8613-5aff006e3675" opacity="1.000" fill="none" stroke="#000000" stroke-width="1.000" stroke-opacity="1.000" stroke-linecap="round" stroke-linejoin="round" d="M 1137.041 861.649 Q 1137.041 862.026 1137.041 867.569 "></path>
    <path id="STROKE_1df8e0a7-88e7-416e-82c3-53ace6603f88" opacity="1.000" fill="none" stroke="#000000" stroke-width="1.000" stroke-opacity="1.000" stroke-linecap="round" stroke-linejoin="round" d="M 1137.571 861.490 Q 1137.564 861.041 1141.538 861.233 Q 1142.371 861.766 1141.934 864.569 Q 1141.496 867.372 1141.478 867.372 "></path>
    <path id="STROKE_5856adcd-16cd-4d49-9685-50823de250ca" opacity="1.000" fill="none" stroke="#000000" stroke-width="1.000" stroke-opacity="1.000" stroke-linecap="round" stroke-linejoin="round" d="M 1140.212 865.736 Q 1140.032 866.087 1138.114 871.777 Q 1138.280 871.718 1140.314 866.736 L 1140.333 866.736 Q 1140.344 866.277 1140.349 867.128 Q 1140.353 867.980 1140.595 868.709 Q 1140.836 869.438 1141.056 869.736 Q 1141.276 870.034 1141.822 869.867 Q 1142.368 869.700 1142.719 869.289 Q 1143.070 868.878 1143.166 868.719 "></path>
    <path id="STROKE_0fcc9bda-ddc6-41a9-bdf7-94b151c2d0a1" opacity="1.000" fill="none" stroke="#000000" stroke-width="1.000" stroke-opacity="1.000" stroke-linecap="round" stroke-linejoin="round" d="M 1146.084 864.071 Q 1146.002 863.774 1145.807 866.016 "></path>
    <path id="STROKE_37e9035b-7716-4eae-b499-1e25a14ddc8f" opacity="1.000" fill="none" stroke="#000000" stroke-width="1.000" stroke-opacity="1.000" stroke-linecap="round" stroke-linejoin="round" d="M 1149.219 861.294 Q 1149.161 861.050 1149.254 864.547 Q 1149.346 868.045 1149.267 870.121 Q 1149.188 872.197 1149.058 873.257 Q 1148.929 874.318 1148.711 874.478 Q 1148.494 874.638 1147.995 874.806 Q 1147.497 874.974 1146.797 874.061 Q 1146.096 873.147 1145.964 872.928 "></path>
    <path id="STROKE_d8986a04-4268-478f-9836-d63cd3973631" opacity="1.000" fill="none" stroke="#000000" stroke-width="1.000" stroke-opacity="1.000" stroke-linecap="round" stroke-linejoin="round" d="M 1140.212 864.426 Q 1140.321 865.334 1138.801 872.254 "></path>
    <path id="STROKE_16d3b272-7ee5-4a18-a50f-2fb00de18fc7" opacity="1.000" fill="none" stroke="#000000" stroke-width="1.000" stroke-opacity="1.000" stroke-linecap="round" stroke-linejoin="round" d="M 1165.416 859.255 Q 1165.398 859.428 1160.894 863.248 Q 1161.288 863.517 1161.433 865.657 Q 1161.578 867.798 1161.084 869.963 Q 1160.590 872.129 1159.882 873.780 Q 1159.175 875.430 1158.169 876.612 "></path>
    <path id="STROKE_f8e0f418-d35d-4c23-ae17-b36667716e4f" opacity="1.000" fill="none" stroke="#000000" stroke-width="1.000" stroke-opacity="1.000" stroke-linecap="round" stroke-linejoin="round" d="M 1163.113 865.885 Q 1162.959 865.803 1163.872 865.646 Q 1164.785 865.488 1165.326 865.544 Q 1165.867 865.600 1166.035 865.736 Q 1166.203 865.872 1166.556 866.907 Q 1166.909 867.942 1165.728 869.763 Q 1164.547 871.583 1163.151 872.271 Q 1161.756 872.960 1161.581 873.002 "></path>
    <path id="STROKE_c7d4448b-4be0-4171-ac80-1e9fb6e51329" opacity="1.000" fill="none" stroke="#000000" stroke-width="1.000" stroke-opacity="1.000" stroke-linecap="round" stroke-linejoin="round" d="M 1162.353 869.579 Q 1162.371 869.759 1162.961 870.964 Q 1163.550 872.170 1164.800 873.498 Q 1166.051 874.826 1169.359 874.111 Q 1169.184 874.209 1168.955 874.410 Q 1169.359 874.111 1169.588 873.909 "></path>
    <path id="STROKE_0748818e-40cb-4fbf-9c11-66cc164f6986" opacity="1.000" fill="none" stroke="#000000" stroke-width="1.000" stroke-opacity="1.000" stroke-linecap="round" stroke-linejoin="round" d="M 1176.678 860.012 Q 1176.769 859.786 1179.283 860.966 "></path>
    <path id="STROKE_53e63d57-7459-404c-82ee-c7be911179a8" opacity="1.000" fill="none" stroke="#000000" stroke-width="1.000" stroke-opacity="1.000" stroke-linecap="round" stroke-linejoin="round" d="M 1174.918 863.987 Q 1175.180 863.470 1176.651 862.925 Q 1178.123 862.380 1179.089 862.226 Q 1180.055 862.073 1180.886 862.079 "></path>
    <path id="STROKE_31fedc4e-605f-4794-89fe-4c2bafee0497" opacity="1.000" fill="none" stroke="#000000" stroke-width="1.000" stroke-opacity="1.000" stroke-linecap="round" stroke-linejoin="round" d="M 1175.376 866.680 Q 1174.659 867.254 1174.321 872.899 Q 1174.399 872.918 1174.465 872.918 Q 1174.532 872.918 1174.604 872.918 "></path>
    <path id="STROKE_1acc37bf-3b19-45ad-95d5-46450f475ad0" opacity="1.000" fill="none" stroke="#000000" stroke-width="1.000" stroke-opacity="1.000" stroke-linecap="round" stroke-linejoin="round" d="M 1176.485 868.195 Q 1176.545 867.862 1176.477 868.787 Q 1176.409 869.712 1176.521 870.123 Q 1176.633 870.535 1177.572 870.745 Q 1178.512 870.954 1180.090 867.672 Q 1179.450 867.747 1179.608 870.655 Q 1180.197 871.547 1183.153 869.028 Q 1183.089 868.965 1181.069 870.859 Q 1179.049 872.754 1177.344 873.879 Q 1175.639 875.004 1173.844 875.378 Q 1174.421 874.382 1177.977 873.629 Q 1181.533 872.876 1185.758 873.199 "></path>
    <path id="STROKE_be71a7ea-406b-4d06-857d-f9295ab0f5ac" opacity="1.000" fill="none" stroke="#000000" stroke-width="1.000" stroke-opacity="1.000" stroke-linecap="round" stroke-linejoin="round" d="M 1174.604 865.016 Q 1174.687 865.538 1174.545 867.746 Q 1174.403 869.953 1172.619 871.842 Q 1170.836 873.732 1170.782 873.788 "></path>
    <path id="STROKE_e54c1347-c4ca-4abe-8509-022f47db5bd9" opacity="1.000" fill="none" stroke="#000000" stroke-width="1.000" stroke-opacity="1.000" stroke-linecap="round" stroke-linejoin="round" d="M 1192.112 863.781 Q 1192.451 863.269 1201.228 862.056 Q 1201.397 862.116 1201.349 862.827 "></path>
    <path id="STROKE_6a9383c5-c250-4e9e-90e5-96cc3c1670ce" opacity="1.000" fill="none" stroke="#000000" stroke-width="1.000" stroke-opacity="1.000" stroke-linecap="round" stroke-linejoin="round" d="M 1192.607 866.044 Q 1192.015 866.175 1194.135 865.843 Q 1196.254 865.511 1196.369 865.455 "></path>
    <path id="STROKE_6cc5a696-27d8-49c6-b31c-fc4eae4f7ab2" opacity="1.000" fill="none" stroke="#000000" stroke-width="1.000" stroke-opacity="1.000" stroke-linecap="round" stroke-linejoin="round" d="M 1194.259 866.325 Q 1194.697 866.315 1192.836 868.747 Q 1193.433 868.667 1195.109 867.884 Q 1196.785 867.101 1196.863 867.045 "></path>
    <path id="STROKE_bebdbb1e-c45a-44d3-ac00-d9b85a8aa981" opacity="1.000" fill="none" stroke="#000000" stroke-width="1.000" stroke-opacity="1.000" stroke-linecap="round" stroke-linejoin="round" d="M 1198.093 857.945 Q 1198.174 858.356 1198.120 861.679 Q 1198.066 865.002 1198.107 867.528 Q 1198.147 870.053 1198.379 871.471 Q 1198.610 872.889 1198.924 873.838 Q 1199.238 874.787 1200.405 875.626 Q 1201.571 876.466 1202.701 874.994 Q 1203.831 873.522 1204.007 872.456 Q 1204.182 871.389 1204.182 871.366 "></path>
    <path id="STROKE_6f81b12e-14c6-4c74-911d-ca80be10d844" opacity="1.000" fill="none" stroke="#000000" stroke-width="1.000" stroke-opacity="1.000" stroke-linecap="round" stroke-linejoin="round" d="M 1201.493 859.573 Q 1201.458 859.496 1201.639 860.161 Q 1201.821 860.827 1202.025 861.441 Q 1202.229 862.056 1202.265 862.117 "></path>
    <path id="STROKE_0a3e48c5-e42f-4ed6-87cb-cb90b347c21f" opacity="1.000" fill="none" stroke="#000000" stroke-width="1.000" stroke-opacity="1.000" stroke-linecap="round" stroke-linejoin="round" d="M 1210.609 869.944 Q 1210.647 870.153 1210.758 870.593 Q 1210.869 871.034 1210.887 871.132 "></path>
    <path id="STROKE_32e72bc4-2369-4d54-8933-57970620801f" opacity="1.000" fill="none" stroke="#000000" stroke-width="1.000" stroke-opacity="1.000" stroke-linecap="round" stroke-linejoin="round" d="M 1210.802 873.358 Q 1211.115 873.516 1211.278 873.575 Q 1211.441 873.634 1211.574 873.676 "></path>
  </g>
</svg>