<?xml version="1.0" encoding="UTF-8" standalone="yes"?>
<svg xmlns="http://www.w3.org/2000/svg" xmlns:xlink="http://www.w3.org/1999/xlink" width="46.054mm" height="51.332mm" version="1.1" viewBox="350.276 200.635 239.338 266.765">
  <!--
	Exported with Concepts: Smarter Sketching
	Version: 1044 on iOS 15.1
	https://concepts.app/
	-->
  <title>咬文嚼字</title>
  <desc>Drawing exported from Concepts: Smarter Sketching</desc>
  <defs></defs>
  <g id="主体" opacity="1.000">
    <path id="STROKE_35da1102-3ac7-416e-bf9f-5d55cd0d90b3" opacity="1.000" fill="none" stroke="#000000" stroke-width="0.506" stroke-opacity="1.000" stroke-linecap="round" stroke-linejoin="round" d="M 388.923 216.316 Q 388.860 216.700 387.682 219.142 Q 386.504 221.584 385.288 222.868 Q 384.073 224.151 384.005 224.202 "></path>
    <path id="STROKE_23b5a001-98a0-4ef6-a45f-a105d2a434e8" opacity="1.000" fill="none" stroke="#000000" stroke-width="1.003" stroke-opacity="1.000" stroke-linecap="round" stroke-linejoin="round" d="M 386.583 212.645 Q 385.939 213.992 383.773 220.224 Q 383.905 220.034 384.509 220.373 Q 385.113 220.713 385.479 221.031 Q 385.844 221.349 386.177 221.721 Q 386.510 222.092 386.719 222.349 Q 386.927 222.606 387.378 223.258 Q 387.829 223.911 388.102 224.485 Q 388.374 225.058 388.391 225.058 "></path>
    <path id="STROKE_b2efdb29-b2de-4838-8a8a-1da34d5ddc01" opacity="1.000" fill="none" stroke="#000000" stroke-width="0.558" stroke-opacity="1.000" stroke-linecap="round" stroke-linejoin="round" d="M 388.124 217.957 Q 387.988 218.168 386.898 220.360 Q 385.808 222.552 384.241 223.554 Q 382.674 224.556 382.640 224.522 "></path>
    <path id="STROKE_9c36507f-e18a-4972-9ecb-5b652ffd8caf" opacity="1.000" fill="none" stroke="#000000" stroke-width="0.646" stroke-opacity="1.000" stroke-linecap="round" stroke-linejoin="round" d="M 381.677 218.665 Q 381.683 218.396 389.105 215.955 "></path>
    <path id="STROKE_c3e1b042-2567-4437-a5b0-12f8d28df65d" opacity="1.000" fill="none" stroke="#000000" stroke-width="0.813" stroke-opacity="1.000" stroke-linecap="round" stroke-linejoin="round" d="M 390.758 214.674 Q 391.387 214.593 391.344 214.611 Q 391.536 214.402 392.107 214.795 Q 392.678 215.188 392.730 215.984 Q 392.781 216.779 392.636 217.328 Q 392.492 217.877 392.248 218.302 Q 392.004 218.728 392.244 219.483 Q 392.484 220.237 392.774 221.273 Q 393.064 222.308 393.144 223.441 Q 393.224 224.573 393.224 225.331 Q 393.224 226.089 392.158 226.066 Q 391.093 226.043 390.930 225.970 "></path>
    <path id="STROKE_a09e73f2-7876-4d62-9a74-de6dc279f7f6" opacity="1.000" fill="none" stroke="#000000" stroke-width="1.313" stroke-opacity="1.000" stroke-linecap="round" stroke-linejoin="round" d="M 389.092 222.944 Q 389.092 222.927 389.093 222.860 Q 388.883 222.605 398.585 221.295 "></path>
    <path id="STROKE_eb749d3e-515d-4367-8f41-af248408ecfe" opacity="1.000" fill="none" stroke="#000000" stroke-width="0.393" stroke-opacity="1.000" stroke-linecap="round" stroke-linejoin="round" d="M 411.245 223.862 Q 411.784 223.983 412.503 224.281 Q 413.222 224.580 413.311 224.669 "></path>
    <path id="STROKE_a99cac2b-8989-4ec1-877f-9f47c6c83bc7" opacity="1.000" fill="none" stroke="#000000" stroke-width="0.764" stroke-opacity="1.000" stroke-linecap="round" stroke-linejoin="round" d="M 411.435 227.383 Q 411.379 227.383 411.221 227.382 Q 411.618 227.385 413.079 227.395 "></path>
    <path id="STROKE_55f2ab26-71cf-4778-ac66-e15ba7465aa5" opacity="1.000" fill="none" stroke="#000000" stroke-width="0.571" stroke-opacity="1.000" stroke-linecap="round" stroke-linejoin="round" d="M 427.098 210.884 Q 426.973 211.120 423.272 217.173 "></path>
    <path id="STROKE_5f4ee2ef-0441-4976-916f-54900e785dc7" opacity="1.000" fill="none" stroke="#000000" stroke-width="0.544" stroke-opacity="1.000" stroke-linecap="round" stroke-linejoin="round" d="M 427.541 215.370 Q 427.373 216.019 424.037 220.580 Q 424.405 219.799 424.741 219.542 Q 425.078 219.286 425.238 219.173 Q 425.399 219.061 425.547 219.031 Q 425.696 219.002 425.755 218.866 Q 425.814 218.730 426.134 219.226 Q 426.454 219.722 426.537 220.208 Q 426.620 220.695 426.663 221.166 Q 426.707 221.637 426.737 222.068 Q 426.767 222.499 427.001 226.087 Q 427.304 226.170 427.537 225.913 "></path>
    <path id="STROKE_d2999f97-2e83-4e81-9e09-ffc67829061d" opacity="1.000" fill="none" stroke="#000000" stroke-width="0.729" stroke-opacity="1.000" stroke-linecap="round" stroke-linejoin="round" d="M 429.135 212.806 Q 429.578 212.440 429.910 212.194 Q 430.243 211.948 431.061 211.679 Q 431.879 211.411 432.621 211.862 Q 433.362 212.314 433.511 213.120 Q 433.659 213.926 432.972 216.588 "></path>
    <path id="STROKE_be5b074c-d069-4d14-8abd-75bd2f4976bc" opacity="1.000" fill="none" stroke="#000000" stroke-width="0.747" stroke-opacity="1.000" stroke-linecap="round" stroke-linejoin="round" d="M 430.799 214.818 Q 431.410 214.822 431.407 214.822 Q 431.923 214.622 432.496 215.186 Q 433.069 215.750 429.575 218.397 Q 429.211 218.765 431.053 213.857 Q 430.529 214.376 429.951 217.299 Q 429.372 220.222 429.918 223.473 Q 430.412 224.472 433.395 217.207 Q 432.663 217.527 430.506 221.556 Q 430.459 222.022 435.235 222.125 Q 440.011 222.228 440.333 222.159 "></path>
    <path id="STROKE_461a36ce-d132-46d1-b0c0-bbb20481823b" opacity="1.000" fill="none" stroke="#000000" stroke-width="0.913" stroke-opacity="1.000" stroke-linecap="round" stroke-linejoin="round" d="M 444.806 211.797 Q 444.699 212.262 443.887 214.271 Q 443.075 216.281 442.667 217.360 Q 442.259 218.439 442.058 219.196 Q 441.857 219.953 442.623 220.336 Q 443.389 220.719 444.259 220.800 Q 445.130 220.881 445.769 220.974 Q 446.408 221.068 446.792 221.071 Q 447.176 221.074 447.611 220.986 Q 448.047 220.898 448.182 220.456 "></path>
    <path id="STROKE_5745dd74-ed94-4534-9e2a-1174dd7cac09" opacity="1.000" fill="none" stroke="#000000" stroke-width="0.782" stroke-opacity="1.000" stroke-linecap="round" stroke-linejoin="round" d="M 447.065 215.755 Q 447.063 215.278 444.603 219.666 Q 442.144 224.054 442.110 224.070 "></path>
    <path id="STROKE_21d518c3-7e28-4b00-8e37-d2f54f3da22d" opacity="1.000" fill="none" stroke="#000000" stroke-width="0.851" stroke-opacity="1.000" stroke-linecap="round" stroke-linejoin="round" d="M 440.364 217.465 Q 440.547 216.665 443.431 214.754 Q 446.314 212.842 450.227 211.868 Q 450.663 212.002 449.078 214.477 Q 449.517 214.315 452.033 213.868 Q 452.883 213.783 452.424 222.570 Q 452.601 222.652 451.480 222.501 Q 450.360 222.350 449.492 221.697 Q 448.625 221.044 448.144 220.524 Q 447.663 220.004 447.508 219.525 Q 447.353 219.045 447.978 218.624 Q 448.603 218.203 450.312 217.835 Q 452.021 217.468 453.276 217.290 Q 454.530 217.112 456.796 217.010 Q 459.062 216.908 459.399 216.910 "></path>
    <path id="STROKE_3fea1819-c723-476d-b799-506f3afdb1b4" opacity="1.000" fill="none" stroke="#000000" stroke-width="0.545" stroke-opacity="1.000" stroke-linecap="round" stroke-linejoin="round" d="M 471.267 208.895 Q 471.047 208.932 469.981 209.946 Q 468.915 210.959 468.371 211.517 Q 467.828 212.074 467.460 212.537 Q 467.092 213.001 467.339 215.082 Q 467.586 217.164 467.725 218.803 Q 467.864 220.442 467.921 221.062 Q 467.979 221.682 467.982 221.896 Q 467.986 222.110 468.042 222.124 Q 468.099 222.138 468.079 222.186 Q 468.058 222.233 468.646 222.205 Q 469.235 222.177 469.355 221.781 "></path>
    <path id="STROKE_cf690466-3680-424e-84f7-82b4ffc53a88" opacity="1.000" fill="none" stroke="#000000" stroke-width="0.823" stroke-opacity="1.000" stroke-linecap="round" stroke-linejoin="round" d="M 473.941 204.785 Q 473.822 205.077 473.045 206.231 Q 472.267 207.385 471.544 208.165 Q 470.821 208.945 469.964 209.240 Q 469.107 209.535 468.322 210.217 Q 467.537 210.898 467.074 211.996 Q 466.611 213.093 466.337 214.809 Q 466.064 216.525 466.010 217.546 Q 465.955 218.566 466.074 219.780 Q 466.193 220.994 466.925 221.980 Q 467.657 222.966 468.976 223.676 Q 470.294 224.387 471.234 224.528 Q 472.174 224.670 472.444 224.672 "></path>
    <path id="STROKE_c1c6c868-b6f4-44af-9c9f-f140a71e341f" opacity="1.000" fill="none" stroke="#000000" stroke-width="0.640" stroke-opacity="1.000" stroke-linecap="round" stroke-linejoin="round" d="M 482.476 211.477 Q 482.303 211.502 482.339 216.010 Q 482.714 216.282 483.133 215.040 Q 483.553 213.798 483.645 213.494 "></path>
    <path id="STROKE_44e99c35-52fe-4c7a-89a8-1f66c0afd599" opacity="1.000" fill="none" stroke="#000000" stroke-width="0.566" stroke-opacity="1.000" stroke-linecap="round" stroke-linejoin="round" d="M 484.554 205.683 Q 484.572 205.557 484.687 205.186 Q 484.880 205.085 485.104 206.917 Q 485.327 208.750 485.449 210.139 Q 485.572 211.529 485.575 213.829 Q 485.579 216.128 485.737 218.878 Q 485.895 221.627 486.091 224.012 L 486.108 224.013 Q 486.183 223.972 485.570 217.036 Q 485.641 216.931 486.600 216.936 Q 487.558 216.940 487.665 216.924 "></path>
    <path id="STROKE_b16b4f93-778a-43d4-a0f5-cf84fee557ee" opacity="1.000" fill="none" stroke="#000000" stroke-width="0.522" stroke-opacity="1.000" stroke-linecap="round" stroke-linejoin="round" d="M 488.200 211.119 Q 488.109 211.058 489.720 210.053 Q 491.331 209.048 493.498 208.610 Q 493.868 208.980 492.501 210.704 Q 491.133 212.428 488.578 213.452 Q 488.373 213.289 489.722 212.331 Q 491.071 211.373 491.912 210.633 Q 492.753 209.893 492.602 208.692 Q 492.158 208.554 492.153 208.607 Q 492.149 208.659 491.792 209.461 Q 491.436 210.263 491.245 211.112 Q 491.055 211.960 489.305 215.035 L 489.288 215.035 Q 489.288 215.052 489.288 215.069 Q 488.976 215.034 491.878 213.364 "></path>
    <path id="STROKE_dadd17d3-7abc-4293-9794-8fe403dba88f" opacity="1.000" fill="none" stroke="#000000" stroke-width="0.555" stroke-opacity="1.000" stroke-linecap="round" stroke-linejoin="round" d="M 490.466 215.761 Q 490.268 216.040 489.993 217.455 Q 489.718 218.870 489.593 223.251 Q 489.598 222.475 489.598 222.550 Q 489.542 222.367 489.751 220.662 Q 489.960 218.957 490.203 218.008 Q 490.445 217.058 490.705 216.851 Q 490.964 216.644 491.155 216.558 Q 491.347 216.472 491.534 216.510 Q 491.722 216.548 491.881 216.758 Q 492.041 216.967 492.218 217.303 Q 492.395 217.639 492.454 217.966 Q 492.513 218.294 492.714 218.437 Q 492.916 218.580 492.808 223.230 Q 492.907 223.408 492.600 223.204 Q 492.293 223.000 492.065 222.634 Q 491.837 222.268 491.743 222.019 Q 491.649 221.770 491.680 221.873 Q 491.711 221.976 491.435 221.416 Q 491.159 220.855 491.051 220.567 Q 490.942 220.278 490.857 219.895 Q 490.772 219.512 490.756 219.504 Q 490.740 219.495 490.745 219.465 Q 490.750 219.436 490.753 219.476 Q 490.755 219.516 490.829 219.336 Q 490.903 219.156 491.800 219.049 Q 491.830 219.897 491.934 219.791 Q 492.039 219.684 491.671 220.816 Q 491.303 221.949 489.942 223.211 Q 489.942 222.994 491.568 220.892 "></path>
    <path id="STROKE_872f32cb-4467-4425-bf81-5516edff17e0" opacity="1.000" fill="none" stroke="#000000" stroke-width="0.784" stroke-opacity="1.000" stroke-linecap="round" stroke-linejoin="round" d="M 489.279 216.293 Q 489.053 216.610 488.713 215.179 Q 488.988 214.206 496.907 214.116 "></path>
    <path id="STROKE_0472249a-3868-472a-a95b-0468b45353d0" opacity="1.000" fill="none" stroke="#000000" stroke-width="0.671" stroke-opacity="1.000" stroke-linecap="round" stroke-linejoin="round" d="M 500.746 212.495 Q 500.729 212.152 500.871 213.520 Q 501.014 214.887 500.045 216.637 Q 499.076 218.387 497.773 219.288 Q 497.965 219.369 502.223 212.328 "></path>
    <path id="STROKE_332e19a8-191d-4bda-807c-f4fbc4b8c471" opacity="1.000" fill="none" stroke="#000000" stroke-width="0.615" stroke-opacity="1.000" stroke-linecap="round" stroke-linejoin="round" d="M 504.715 208.546 Q 503.920 208.920 502.766 215.202 Q 503.073 215.000 503.795 213.319 Q 504.516 211.638 505.157 210.698 Q 505.799 209.757 506.311 209.400 Q 506.823 209.044 507.123 209.003 Q 507.422 208.961 507.677 209.187 Q 507.932 209.413 508.051 210.254 Q 508.169 211.095 507.833 212.586 Q 507.496 214.076 505.456 215.431 Q 505.373 215.548 505.495 214.990 Q 505.617 214.432 506.702 213.608 Q 507.018 213.855 506.042 216.128 Q 505.066 218.401 501.510 221.137 Q 501.565 220.880 501.828 220.513 Q 502.091 220.147 502.681 219.614 Q 503.271 219.082 503.742 218.619 Q 504.212 218.156 505.578 218.785 Q 506.943 219.413 507.614 219.933 Q 508.285 220.453 509.077 220.728 Q 509.869 221.003 510.685 221.090 Q 511.501 221.178 512.016 221.044 Q 512.531 220.910 512.705 220.233 Q 512.880 219.556 512.013 218.346 "></path>
    <path id="STROKE_4bf31a15-6d41-48ec-96be-d0711817c17e" opacity="1.000" fill="none" stroke="#000000" stroke-width="0.590" stroke-opacity="1.000" stroke-linecap="round" stroke-linejoin="round" d="M 504.452 215.787 Q 504.410 215.783 504.915 215.648 Q 505.420 215.513 508.321 214.767 "></path>
    <path id="STROKE_aca9cb8a-a408-4e68-b909-42a23d2256df" opacity="1.000" fill="none" stroke="#000000" stroke-width="0.910" stroke-opacity="1.000" stroke-linecap="round" stroke-linejoin="round" d="M 498.581 211.299 Q 498.577 211.293 498.460 212.068 Q 498.342 212.843 498.954 213.402 Q 499.565 213.961 499.779 214.034 "></path>
    <path id="STROKE_f0e71f6c-4382-406c-a2ba-1da2001e162a" opacity="1.000" fill="none" stroke="#000000" stroke-width="0.797" stroke-opacity="1.000" stroke-linecap="round" stroke-linejoin="round" d="M 519.983 208.750 Q 520.108 208.970 520.163 211.292 Q 520.217 213.614 519.760 216.642 Q 519.303 219.670 518.456 223.083 Q 518.453 222.993 518.495 222.589 Q 518.536 222.184 518.577 221.969 "></path>
    <path id="STROKE_7cb19958-db41-4f84-aad4-795ebf4b520c" opacity="1.000" fill="none" stroke="#000000" stroke-width="0.590" stroke-opacity="1.000" stroke-linecap="round" stroke-linejoin="round" d="M 519.254 211.759 Q 519.064 211.431 518.974 208.140 Q 519.724 207.430 520.605 208.677 Q 521.486 209.924 521.757 210.876 Q 522.028 211.828 522.199 212.507 Q 522.370 213.186 522.620 215.769 Q 522.870 218.352 521.592 222.336 Q 521.156 222.915 520.981 220.701 Q 520.805 218.488 520.712 217.045 Q 520.620 215.603 520.628 214.727 Q 520.636 213.851 520.775 213.489 Q 520.915 213.127 521.123 213.009 Q 521.332 212.891 521.467 212.891 Q 521.603 212.892 521.854 212.928 Q 522.105 212.965 522.083 213.000 Q 522.061 213.035 522.050 213.019 Q 522.039 213.002 522.142 213.021 Q 522.245 213.041 522.224 213.707 Q 522.203 214.374 522.044 214.869 Q 521.885 215.365 521.652 215.738 Q 521.420 216.111 521.364 216.195 Q 521.308 216.278 520.932 216.684 Q 520.780 216.697 521.603 215.127 Q 522.425 213.556 522.837 211.842 Q 523.249 210.129 524.027 209.300 Q 524.805 208.471 525.657 208.129 Q 526.509 207.786 527.177 207.818 Q 527.845 207.851 528.330 208.126 Q 528.815 208.401 528.958 209.185 Q 529.101 209.968 528.832 210.874 Q 528.564 211.779 528.164 212.359 Q 527.765 212.939 527.417 213.327 Q 527.070 213.715 526.733 213.761 Q 526.396 213.808 526.091 213.719 Q 525.787 213.631 525.786 213.533 Q 525.785 213.435 525.708 213.422 Q 525.630 213.408 525.484 212.706 Q 525.338 212.003 525.372 211.193 Q 525.886 211.215 524.370 221.223 Q 524.740 220.817 525.613 219.258 Q 526.486 217.700 527.204 216.381 Q 527.921 215.061 528.625 214.126 Q 529.330 213.190 530.943 212.522 Q 530.989 212.574 531.169 213.425 Q 531.349 214.276 530.584 216.156 Q 529.819 218.036 529.319 218.988 Q 528.818 219.939 528.306 220.390 Q 527.794 220.841 527.621 220.884 Q 527.448 220.926 527.453 220.923 Q 527.459 220.919 527.503 220.894 Q 527.547 220.869 527.006 221.001 Q 526.464 221.134 526.648 218.208 Q 526.694 218.110 531.667 220.008 "></path>
    <path id="STROKE_21ea6d53-58d8-4034-a042-d46f6d332cb0" opacity="1.000" fill="none" stroke="#000000" stroke-width="0.466" stroke-opacity="1.000" stroke-linecap="round" stroke-linejoin="round" d="M 544.362 207.412 Q 544.482 207.745 542.994 210.357 Q 541.506 212.969 538.867 215.623 Q 538.966 215.476 539.589 214.826 Q 540.211 214.176 540.410 213.945 "></path>
    <path id="STROKE_1de17965-7636-46a1-8726-052ab97a21cd" opacity="1.000" fill="none" stroke="#000000" stroke-width="0.567" stroke-opacity="1.000" stroke-linecap="round" stroke-linejoin="round" d="M 542.863 210.813 Q 542.876 210.809 542.968 210.698 Q 543.060 210.587 543.318 210.365 Q 543.577 210.144 543.604 210.162 Q 543.630 210.180 543.643 210.177 Q 543.657 210.174 543.615 210.182 Q 543.574 210.190 543.866 210.176 Q 544.158 210.161 545.104 210.556 Q 546.049 210.950 546.672 211.316 Q 547.295 211.681 547.415 212.057 Q 547.535 212.433 547.333 212.700 "></path>
    <path id="STROKE_1d7a7f59-7975-4d41-bdeb-c14f49b26514" opacity="1.000" fill="none" stroke="#000000" stroke-width="0.550" stroke-opacity="1.000" stroke-linecap="round" stroke-linejoin="round" d="M 541.662 215.355 Q 541.622 215.354 541.549 215.354 Q 541.961 215.313 544.684 214.699 Q 547.408 214.085 547.425 214.068 "></path>
    <path id="STROKE_8bdf218e-70c8-44bc-96f2-b7e54581479e" opacity="1.000" fill="none" stroke="#000000" stroke-width="0.540" stroke-opacity="1.000" stroke-linecap="round" stroke-linejoin="round" d="M 543.473 217.300 Q 542.981 217.472 542.826 219.643 Q 543.147 219.741 543.099 219.696 Q 543.051 219.652 543.275 218.715 Q 543.499 217.777 544.223 217.084 Q 544.947 216.390 545.364 216.168 Q 545.782 215.946 545.980 215.932 Q 546.179 215.918 546.349 215.944 Q 546.520 215.970 546.728 216.067 Q 546.936 216.163 546.901 216.296 Q 546.866 216.429 546.928 216.633 Q 546.989 216.837 546.944 217.514 Q 546.899 218.191 546.625 218.826 Q 546.350 219.462 545.819 219.886 Q 545.288 220.310 544.913 220.517 Q 544.537 220.724 544.280 220.739 Q 544.023 220.754 543.844 220.747 Q 543.728 220.742 550.579 218.927 "></path>
    <path id="STROKE_4c7e4e93-2eec-48ff-be61-a4249dbbbda9" opacity="1.000" fill="none" stroke="#000000" stroke-width="0.806" stroke-opacity="1.000" stroke-linecap="round" stroke-linejoin="round" d="M 556.641 210.078 Q 557.039 209.882 558.002 209.544 Q 558.965 209.205 559.547 209.152 Q 560.129 209.098 560.629 209.080 Q 561.129 209.062 561.328 209.251 Q 561.527 209.440 561.648 209.949 Q 561.769 210.457 561.905 211.128 Q 562.040 211.799 558.476 215.147 "></path>
    <path id="STROKE_1692334c-136a-4042-bf0f-ca49a913264e" opacity="1.000" fill="none" stroke="#000000" stroke-width="0.756" stroke-opacity="1.000" stroke-linecap="round" stroke-linejoin="round" d="M 557.720 215.353 Q 557.682 215.321 560.404 214.730 Q 560.388 214.730 560.371 214.730 Q 560.388 214.730 560.404 214.730 Q 560.388 214.730 560.371 214.730 "></path>
    <path id="STROKE_5a44d998-9fa4-4dec-8003-76be98c2a178" opacity="1.000" fill="none" stroke="#000000" stroke-width="0.857" stroke-opacity="1.000" stroke-linecap="round" stroke-linejoin="round" d="M 556.976 213.803 Q 557.042 213.010 555.847 220.089 Q 556.101 220.483 563.977 220.950 Q 564.032 220.685 563.655 219.614 Q 563.279 218.544 563.240 218.328 "></path>
    <path id="STROKE_cdfe9408-b915-4cc6-9f79-65634f562398" opacity="1.000" fill="none" stroke="#000000" stroke-width="0.693" stroke-opacity="1.000" stroke-linecap="round" stroke-linejoin="round" d="M 556.969 214.884 Q 557.156 215.432 561.522 214.374 "></path>
    <path id="STROKE_c7db03df-34e0-45ca-b126-ab5b356fe0ce" opacity="1.000" fill="none" stroke="#000000" stroke-width="0.395" stroke-opacity="1.000" stroke-linecap="round" stroke-linejoin="round" d="M 571.649 208.812 Q 571.726 208.812 576.444 210.047 Q 576.460 210.140 576.460 210.178 "></path>
    <path id="STROKE_550d94c7-54ea-4439-96bc-f9fb9738de55" opacity="1.000" fill="none" stroke="#000000" stroke-width="0.489" stroke-opacity="1.000" stroke-linecap="round" stroke-linejoin="round" d="M 572.059 211.432 Q 572.374 211.291 575.639 210.063 "></path>
    <path id="STROKE_f7ca4dd9-e29b-4c17-81f1-43e598d6d7bb" opacity="1.000" fill="none" stroke="#000000" stroke-width="0.509" stroke-opacity="1.000" stroke-linecap="round" stroke-linejoin="round" d="M 573.017 211.405 Q 573.017 211.443 573.055 211.641 Q 573.046 212.246 578.069 210.333 Q 578.199 210.455 575.362 212.475 Q 572.525 214.496 569.240 215.321 Q 569.397 215.106 571.935 214.095 Q 574.473 213.085 576.767 213.118 "></path>
    <path id="STROKE_42a63a05-cc60-43d7-aadb-030c871f859c" opacity="1.000" fill="none" stroke="#000000" stroke-width="0.513" stroke-opacity="1.000" stroke-linecap="round" stroke-linejoin="round" d="M 572.126 216.565 Q 571.756 216.584 571.381 218.476 Q 571.492 218.782 572.047 218.210 "></path>
    <path id="STROKE_92e1188b-4ee9-4396-95fe-d4d7282ff5b0" opacity="1.000" fill="none" stroke="#000000" stroke-width="0.497" stroke-opacity="1.000" stroke-linecap="round" stroke-linejoin="round" d="M 572.988 215.634 Q 573.343 215.013 576.737 215.017 Q 576.702 215.051 576.824 215.376 Q 576.947 215.700 573.684 216.913 Q 573.794 216.893 573.621 216.919 Q 573.449 216.945 573.830 216.532 Q 574.211 216.120 574.665 216.103 Q 575.119 216.086 574.934 216.057 Q 574.750 216.029 575.479 216.191 Q 575.506 216.102 575.530 216.399 Q 575.555 216.697 574.857 217.166 Q 574.159 217.635 573.836 218.030 Q 573.512 218.426 573.321 218.622 Q 573.130 218.819 572.770 219.127 Q 572.409 219.435 572.162 219.605 Q 571.916 219.775 571.675 219.868 Q 571.434 219.961 571.604 219.924 Q 571.774 219.887 571.447 219.980 Q 571.121 220.074 570.663 220.188 Q 570.205 220.302 570.120 220.490 Q 570.035 220.678 570.028 220.673 Q 570.021 220.668 569.972 220.708 Q 569.923 220.749 569.661 221.419 Q 570.033 221.512 571.843 221.246 Q 573.652 220.979 574.738 220.788 Q 575.823 220.597 578.756 220.354 Q 578.757 220.160 578.758 220.088 Q 578.758 220.016 578.759 219.944 "></path>
    <path id="STROKE_f194085f-8535-4694-bfa9-dd2eb6128cbc" opacity="1.000" fill="none" stroke="#000000" stroke-width="0.424" stroke-opacity="1.000" stroke-linecap="round" stroke-linejoin="round" d="M 573.964 219.583 Q 573.957 219.515 573.910 220.122 Q 574.021 220.223 574.449 220.214 Q 574.877 220.205 575.108 220.207 "></path>
    <path id="STROKE_d3c237c9-8659-4066-aed2-9855d8e8235a" opacity="1.000" fill="none" stroke="#000000" stroke-width="0.976" stroke-opacity="1.000" stroke-linecap="round" stroke-linejoin="round" d="M 581.705 218.883 Q 581.490 219.056 581.191 219.533 Q 580.892 220.010 582.121 220.718 "></path>
    <path id="STROKE_1fe0c7fc-7142-4fa6-bb4b-f234c8112294" opacity="1.000" fill="none" stroke="#000000" stroke-width="0.629" stroke-opacity="1.000" stroke-linecap="round" stroke-linejoin="round" d="M 580.849 207.304 Q 580.831 207.153 582.092 207.579 Q 583.354 208.005 584.211 209.040 Q 585.069 210.076 585.430 211.611 Q 585.790 213.147 585.607 214.962 Q 585.425 216.777 584.620 218.535 Q 583.815 220.293 582.238 221.777 Q 580.660 223.261 577.907 224.311 "></path>
    <path id="STROKE_aa460d61-987f-4464-a5bc-bf9875554394" opacity="1.000" fill="none" stroke="#000000" stroke-width="0.715" stroke-opacity="1.000" stroke-linecap="round" stroke-linejoin="round" d="M 357.680 213.261 Q 357.950 213.144 354.386 217.501 Q 354.495 217.483 354.351 217.517 Q 354.207 217.551 355.073 217.396 "></path>
    <path id="STROKE_17134e18-43bf-494c-87b8-e2e909dfcfc3" opacity="1.000" fill="none" stroke="#000000" stroke-width="0.498" stroke-opacity="1.000" stroke-linecap="round" stroke-linejoin="round" d="M 357.085 216.405 Q 356.513 217.246 354.842 219.910 Q 354.774 220.004 356.932 217.375 Q 357.191 217.386 356.881 224.871 Q 357.015 224.855 357.135 224.721 Q 357.255 224.587 357.346 224.444 "></path>
    <path id="STROKE_630dc2fd-bd71-4efc-b0e0-ea3167a710f3" opacity="1.000" fill="none" stroke="#000000" stroke-width="0.663" stroke-opacity="1.000" stroke-linecap="round" stroke-linejoin="round" d="M 360.358 213.667 Q 360.986 213.469 361.295 213.408 Q 361.605 213.346 361.999 213.551 Q 362.394 213.755 362.573 214.245 Q 362.753 214.736 362.720 214.635 Q 362.687 214.533 362.778 214.838 Q 362.869 215.143 362.631 215.910 Q 362.392 216.678 362.307 216.804 "></path>
    <path id="STROKE_d3132d02-c194-4d2f-b426-a7c0eb291fbc" opacity="1.000" fill="none" stroke="#000000" stroke-width="0.621" stroke-opacity="1.000" stroke-linecap="round" stroke-linejoin="round" d="M 361.134 215.428 Q 361.773 215.770 361.593 215.828 Q 361.739 216.187 361.729 216.872 Q 361.720 217.556 360.642 218.261 Q 360.686 217.509 360.977 216.973 Q 361.268 216.438 361.309 216.257 "></path>
    <path id="STROKE_614398eb-a207-4ad4-8fa1-32cf53b9fcc9" opacity="1.000" fill="none" stroke="#000000" stroke-width="0.766" stroke-opacity="1.000" stroke-linecap="round" stroke-linejoin="round" d="M 359.889 214.635 Q 359.987 214.400 359.671 225.244 Q 360.662 225.977 364.227 217.695 Q 364.311 217.200 359.270 221.266 Q 359.045 221.134 359.799 221.335 Q 360.553 221.536 362.016 222.209 Q 363.478 222.882 364.634 223.353 Q 365.790 223.824 367.948 223.645 Q 370.105 223.466 370.337 223.341 "></path>
    <path id="STROKE_52c63334-aab1-451f-8b90-a321fff8a4d1" opacity="1.000" fill="none" stroke="#000000" stroke-width="0.786" stroke-opacity="1.000" stroke-linecap="round" stroke-linejoin="round" d="M 359.342 237.289 Q 358.541 236.753 357.765 238.217 Q 356.988 239.681 356.651 240.736 Q 356.314 241.791 356.017 243.777 Q 355.720 245.762 355.660 247.445 Q 355.600 249.129 355.642 250.090 Q 355.685 251.052 356.135 252.047 Q 356.585 253.041 357.887 253.259 Q 359.188 253.476 360.802 252.924 "></path>
    <path id="STROKE_9b71ac6c-f900-44f9-9d16-8e6b1b4b7727" opacity="1.000" fill="none" stroke="#000000" stroke-width="0.600" stroke-opacity="1.000" stroke-linecap="round" stroke-linejoin="round" d="M 365.325 240.157 Q 365.641 240.186 367.279 240.069 Q 367.267 240.879 367.184 240.832 Q 367.739 241.179 363.158 244.270 Q 363.265 244.324 364.116 243.974 Q 364.967 243.623 365.721 243.559 Q 366.476 243.495 366.957 243.892 Q 367.439 244.288 367.593 245.901 Q 367.747 247.514 365.836 249.556 Q 365.812 249.257 366.233 248.479 Q 366.654 247.700 366.853 247.343 "></path>
    <path id="STROKE_17f0c93e-3e85-45e9-8747-8777a2b6eff7" opacity="1.000" fill="none" stroke="#000000" stroke-width="0.527" stroke-opacity="1.000" stroke-linecap="round" stroke-linejoin="round" d="M 370.457 238.976 Q 370.721 238.548 375.555 236.140 "></path>
    <path id="STROKE_40f14c19-b3ac-4024-8b25-d44d2b55ced8" opacity="1.000" fill="none" stroke="#000000" stroke-width="0.518" stroke-opacity="1.000" stroke-linecap="round" stroke-linejoin="round" d="M 371.325 237.116 Q 371.218 237.026 371.170 238.441 Q 371.899 238.575 371.817 238.521 Q 372.516 238.725 375.016 235.883 Q 375.159 236.532 374.106 238.514 Q 373.054 240.496 372.980 240.496 "></path>
    <path id="STROKE_30230133-ae9d-4aca-8999-1ff2c8f724d3" opacity="1.000" fill="none" stroke="#000000" stroke-width="0.677" stroke-opacity="1.000" stroke-linecap="round" stroke-linejoin="round" d="M 372.195 240.026 Q 372.515 239.921 372.546 239.764 Q 372.577 239.607 376.467 237.835 "></path>
    <path id="STROKE_d36f55a3-62ea-429d-bb7b-457d5caa96d1" opacity="1.000" fill="none" stroke="#000000" stroke-width="0.660" stroke-opacity="1.000" stroke-linecap="round" stroke-linejoin="round" d="M 371.966 242.321 Q 371.731 242.430 371.663 244.324 Q 371.595 246.218 372.066 248.340 Q 372.195 248.375 372.252 248.375 "></path>
    <path id="STROKE_ab4df0d2-4201-484d-9bd8-0ceeb7601097" opacity="1.000" fill="none" stroke="#000000" stroke-width="0.780" stroke-opacity="1.000" stroke-linecap="round" stroke-linejoin="round" d="M 372.781 243.289 Q 373.154 242.971 374.312 242.553 Q 375.470 242.134 376.515 242.162 Q 377.561 242.189 377.912 242.461 Q 378.262 242.734 378.492 242.989 Q 378.721 243.245 378.961 244.514 Q 379.200 245.783 378.499 247.025 Q 378.393 247.007 378.342 246.990 "></path>
    <path id="STROKE_dfe1b27c-0837-4068-8793-64528c5396e6" opacity="1.000" fill="none" stroke="#000000" stroke-width="0.631" stroke-opacity="1.000" stroke-linecap="round" stroke-linejoin="round" d="M 376.265 241.058 Q 376.201 241.046 375.974 240.905 Q 375.747 240.764 375.372 241.034 Q 374.998 241.304 374.780 241.667 Q 374.563 242.030 374.444 242.251 Q 374.326 242.473 374.250 242.637 Q 374.173 242.801 373.812 243.533 Q 373.451 244.264 373.239 245.622 Q 374.049 245.435 373.893 245.398 Q 373.743 245.494 374.477 244.895 Q 375.211 244.296 376.034 244.081 Q 376.857 243.866 377.208 243.849 Q 377.558 243.831 377.619 243.695 Q 377.680 243.560 377.905 243.008 Q 378.130 242.456 378.132 242.467 Q 378.133 242.477 378.208 240.122 Q 377.507 239.366 376.337 244.587 Q 376.170 244.732 377.099 244.505 Q 378.028 244.279 378.903 243.758 Q 379.777 243.238 380.359 243.160 Q 380.941 243.082 381.049 243.066 "></path>
    <path id="STROKE_289eb0c9-8326-434e-8807-7e54a718e192" opacity="1.000" fill="none" stroke="#000000" stroke-width="0.571" stroke-opacity="1.000" stroke-linecap="round" stroke-linejoin="round" d="M 382.850 236.443 Q 382.931 236.434 383.544 241.251 Q 383.583 241.251 383.674 241.218 "></path>
    <path id="STROKE_ee35be50-b8d6-46c2-b7a5-b3cdaceafe9a" opacity="1.000" fill="none" stroke="#000000" stroke-width="0.719" stroke-opacity="1.000" stroke-linecap="round" stroke-linejoin="round" d="M 384.298 238.816 Q 384.440 238.750 384.602 238.247 Q 384.764 237.743 385.361 236.892 Q 385.958 236.040 386.709 235.459 Q 387.459 234.878 388.367 234.990 Q 388.773 235.707 388.168 237.821 Q 387.564 239.936 385.051 241.548 Q 384.448 240.502 387.357 238.516 Q 387.439 239.126 387.404 239.141 Q 387.524 239.674 386.419 243.170 Q 386.719 243.255 387.114 243.307 Q 387.508 243.358 387.918 243.187 Q 388.328 243.015 388.440 242.821 Q 388.552 242.627 388.642 242.413 Q 388.731 242.198 388.782 241.860 "></path>
    <path id="STROKE_64cbd669-7ab5-4379-96a1-712149b0071c" opacity="1.000" fill="none" stroke="#000000" stroke-width="0.908" stroke-opacity="1.000" stroke-linecap="round" stroke-linejoin="round" d="M 384.273 242.581 Q 384.212 242.595 384.153 242.645 Q 384.095 242.695 384.117 242.691 Q 384.139 242.687 383.939 242.839 Q 383.739 242.992 383.551 243.270 Q 383.362 243.548 383.196 243.922 Q 383.029 244.296 383.019 244.354 Q 383.009 244.413 382.985 244.711 Q 382.961 245.009 382.970 245.316 Q 382.482 245.787 388.891 244.911 Q 395.299 244.036 395.457 243.982 "></path>
    <path id="STROKE_a5c909b7-4173-4f1e-8e8c-0c1cb421be33" opacity="1.000" fill="none" stroke="#000000" stroke-width="1.027" stroke-opacity="1.000" stroke-linecap="round" stroke-linejoin="round" d="M 393.021 234.392 Q 393.418 234.455 394.091 234.352 Q 394.764 234.249 395.650 234.828 Q 396.537 235.407 397.131 237.001 Q 397.726 238.596 397.868 240.318 Q 398.010 242.039 397.643 243.754 Q 397.276 245.469 394.717 248.426 "></path>
  </g>
  <g id="图" opacity="1.000">
    <path id="STROKE_a42ee0a0-7b87-4622-b261-a2b05527f30a" opacity="1.000" fill="none" stroke="#0c32f2" stroke-width="0.500" stroke-opacity="1.000" stroke-linecap="round" stroke-linejoin="round" d="M 384.980 287.749 Q 385.333 287.569 388.661 288.095 "></path>
    <path id="STROKE_1ceb4957-d6f6-48fd-a341-727257d9c68b" opacity="1.000" fill="none" stroke="#0c32f2" stroke-width="0.425" stroke-opacity="1.000" stroke-linecap="round" stroke-linejoin="round" d="M 385.779 291.199 Q 385.744 290.789 390.717 290.472 "></path>
    <path id="STROKE_51b1c453-4e2b-4679-9a63-06c8be49838b" opacity="1.000" fill="none" stroke="#0c32f2" stroke-width="0.774" stroke-opacity="1.000" stroke-linecap="round" stroke-linejoin="round" d="M 384.381 296.525 Q 384.306 296.558 383.705 296.554 Q 383.706 296.441 387.827 295.191 Q 391.949 293.942 392.090 293.892 "></path>
    <path id="STROKE_91083e8f-10d6-4334-9b31-4da37915ca86" opacity="1.000" fill="none" stroke="#0c32f2" stroke-width="0.676" stroke-opacity="1.000" stroke-linecap="round" stroke-linejoin="round" d="M 389.092 292.580 Q 389.095 292.446 388.991 294.357 Q 388.887 296.269 388.586 297.605 Q 388.286 298.940 388.012 299.652 Q 387.738 300.364 386.718 301.049 Q 385.698 301.735 383.621 301.521 Q 383.184 301.091 385.497 300.027 Q 387.811 298.962 390.632 298.814 Q 393.454 298.667 393.668 298.630 "></path>
    <path id="STROKE_a4f659a5-8bf4-4733-b351-4a351793f131" opacity="1.000" fill="none" stroke="#0c32f2" stroke-width="0.484" stroke-opacity="1.000" stroke-linecap="round" stroke-linejoin="round" d="M 400.504 288.605 Q 400.428 288.924 395.515 295.350 Q 395.576 294.852 395.664 294.866 Q 395.739 294.766 395.895 294.606 Q 396.052 294.445 396.078 294.462 Q 396.104 294.480 396.136 294.384 Q 396.169 294.289 397.098 294.352 Q 397.455 294.402 397.444 301.492 "></path>
    <path id="STROKE_90b4f98b-6611-4b2d-bfb4-bad127f5d637" opacity="1.000" fill="none" stroke="#0c32f2" stroke-width="0.793" stroke-opacity="1.000" stroke-linecap="round" stroke-linejoin="round" d="M 399.388 293.798 Q 399.678 293.521 401.917 292.511 Q 404.155 291.501 405.797 291.402 Q 407.440 291.303 407.456 291.303 "></path>
    <path id="STROKE_e01cfcc7-6f6e-4700-a067-7fc6148884a9" opacity="1.000" fill="none" stroke="#0c32f2" stroke-width="0.751" stroke-opacity="1.000" stroke-linecap="round" stroke-linejoin="round" d="M 404.609 289.351 Q 404.838 289.131 404.068 301.073 Q 404.085 301.052 404.102 301.031 "></path>
    <path id="STROKE_6b5b0398-6bf1-4c52-8cb8-38d92cad46ba" opacity="1.000" fill="none" stroke="#0c32f2" stroke-width="0.436" stroke-opacity="1.000" stroke-linecap="round" stroke-linejoin="round" d="M 403.244 294.753 Q 403.054 295.095 399.140 298.853 Q 398.983 298.924 399.791 297.875 Q 400.598 296.827 401.295 296.271 Q 401.992 295.715 402.667 295.393 Q 403.341 295.071 404.534 294.983 Q 405.728 294.896 406.739 295.303 Q 407.750 295.709 407.684 296.457 Q 407.619 297.205 407.528 297.365 "></path>
    <path id="STROKE_ae33c346-9b89-4877-b6a4-520cff3f35d7" opacity="1.000" fill="none" stroke="#0c32f2" stroke-width="1.045" stroke-opacity="1.000" stroke-linecap="round" stroke-linejoin="round" d="M 400.926 299.473 Q 401.001 299.540 400.533 299.267 Q 400.896 298.827 400.986 298.916 Q 401.629 298.662 403.025 298.300 Q 404.420 297.938 406.376 297.931 "></path>
    <path id="STROKE_66200ea2-438d-4b78-8483-4f3836f5595a" opacity="1.000" fill="none" stroke="#0c32f2" stroke-width="0.433" stroke-opacity="1.000" stroke-linecap="round" stroke-linejoin="round" d="M 440.629 298.559 Q 440.672 298.911 445.141 298.260 Q 449.610 297.609 453.206 297.355 Q 456.802 297.102 459.460 297.146 Q 462.117 297.190 465.060 297.306 Q 468.003 297.421 470.182 296.907 Q 472.360 296.392 472.445 296.342 "></path>
    <path id="STROKE_051d8a32-9992-48b4-a1f2-7baf85dc5db7" opacity="1.000" fill="none" stroke="#0c32f2" stroke-width="0.569" stroke-opacity="1.000" stroke-linecap="round" stroke-linejoin="round" d="M 465.448 295.290 Q 465.752 295.525 472.594 295.925 Q 473.085 296.285 471.339 297.892 Q 469.593 299.500 467.548 301.180 "></path>
    <path id="STROKE_4d6b99a2-aa8f-4782-9a3f-6b8e9dab171d" opacity="1.000" fill="none" stroke="#0c32f2" stroke-width="0.550" stroke-opacity="1.000" stroke-linecap="round" stroke-linejoin="round" d="M 444.051 285.396 Q 444.345 285.238 447.648 284.643 Q 448.350 285.185 446.266 287.224 Q 444.182 289.263 444.092 289.262 "></path>
    <path id="STROKE_f57a5412-ffa8-46a4-b8c7-4a16bb5a732a" opacity="1.000" fill="none" stroke="#0c32f2" stroke-width="0.593" stroke-opacity="1.000" stroke-linecap="round" stroke-linejoin="round" d="M 444.833 286.363 Q 444.616 286.377 445.480 286.930 Q 446.344 287.482 447.632 287.395 Q 448.920 287.307 449.083 287.287 "></path>
    <path id="STROKE_1f702a53-a6bd-472e-bc97-05eef79b9984" opacity="1.000" fill="none" stroke="#0c32f2" stroke-width="0.549" stroke-opacity="1.000" stroke-linecap="round" stroke-linejoin="round" d="M 448.851 283.276 Q 448.746 283.521 449.474 287.003 Q 449.768 287.352 449.932 285.839 Q 450.095 284.325 450.330 283.381 Q 450.565 282.437 450.764 282.048 Q 450.963 281.658 450.944 281.746 Q 450.926 281.833 451.365 281.427 Q 451.805 281.021 452.505 280.934 Q 453.205 280.848 453.752 281.292 Q 454.299 281.736 454.688 282.548 Q 455.077 283.361 455.099 284.176 Q 455.120 284.992 455.013 285.524 Q 454.905 286.056 454.587 286.173 Q 454.269 286.290 454.056 286.180 Q 453.843 286.070 453.777 285.960 "></path>
    <path id="STROKE_9820b1ac-bc16-4755-a0ac-085e947e26b8" opacity="1.000" fill="none" stroke="#0c32f2" stroke-width="0.514" stroke-opacity="1.000" stroke-linecap="round" stroke-linejoin="round" d="M 453.070 283.844 Q 452.683 283.556 451.100 290.390 Q 451.104 290.601 451.386 289.776 "></path>
    <path id="STROKE_70f69968-5d8c-4112-a79e-3c6ccc873f38" opacity="1.000" fill="none" stroke="#0c32f2" stroke-width="0.571" stroke-opacity="1.000" stroke-linecap="round" stroke-linejoin="round" d="M 452.300 287.781 Q 452.157 288.087 452.373 288.728 Q 452.588 289.368 453.111 289.690 Q 453.635 290.011 454.513 290.094 Q 455.391 290.176 456.193 289.923 Q 456.996 289.670 457.481 289.187 Q 457.965 288.704 458.361 287.940 Q 458.757 287.175 458.814 287.032 "></path>
    <path id="STROKE_2a2d2ab7-be7e-4a02-8825-aa4d84dc3e76" opacity="1.000" fill="none" stroke="#0c32f2" stroke-width="0.391" stroke-opacity="1.000" stroke-linecap="round" stroke-linejoin="round" d="M 462.658 278.169 Q 462.591 278.133 464.349 277.825 Q 464.383 277.876 464.381 278.146 "></path>
    <path id="STROKE_f80b266e-8a0a-4f26-a14c-9c219e5cd13e" opacity="1.000" fill="none" stroke="#0c32f2" stroke-width="0.565" stroke-opacity="1.000" stroke-linecap="round" stroke-linejoin="round" d="M 459.728 283.459 Q 459.845 283.415 460.299 282.753 Q 460.754 282.091 461.691 281.415 Q 462.629 280.740 463.552 280.586 Q 464.475 280.432 465.203 280.501 Q 465.932 280.570 466.028 282.817 "></path>
    <path id="STROKE_a72df7e1-3a65-4247-9679-62752c537e42" opacity="1.000" fill="none" stroke="#0c32f2" stroke-width="0.526" stroke-opacity="1.000" stroke-linecap="round" stroke-linejoin="round" d="M 462.706 282.795 Q 462.774 282.392 461.260 285.149 Q 461.228 285.200 464.039 282.914 Q 464.213 282.959 463.946 283.768 Q 463.679 284.578 462.935 285.481 Q 462.695 285.858 463.446 284.540 Q 464.196 283.223 466.174 282.780 Q 466.453 283.393 466.368 283.267 Q 466.313 282.981 466.445 283.765 Q 466.576 284.549 463.182 285.626 Q 463.124 284.852 466.148 284.127 Q 466.400 283.987 466.045 284.771 Q 465.690 285.555 465.144 285.978 Q 464.599 286.402 463.627 286.368 Q 463.593 285.841 463.608 285.971 Q 463.632 285.683 465.302 285.252 Q 465.301 285.358 465.326 285.344 Q 465.352 285.330 464.634 290.786 Q 463.547 290.853 463.659 290.837 Q 463.770 290.821 463.251 290.876 Q 462.732 290.930 462.181 290.732 Q 461.630 290.535 461.192 290.192 Q 460.754 289.850 460.705 289.549 Q 460.657 289.248 460.814 288.949 Q 460.972 288.649 461.825 288.116 Q 462.677 287.583 465.398 286.852 Q 468.119 286.121 471.429 286.147 Q 474.738 286.173 475.205 286.214 "></path>
    <path id="STROKE_fc895581-4427-4593-b3c1-aaf1c9d8a1a6" opacity="1.000" fill="none" stroke="#0c32f2" stroke-width="0.413" stroke-opacity="1.000" stroke-linecap="round" stroke-linejoin="round" d="M 491.779 289.905 Q 492.537 289.849 492.441 289.854 Q 492.346 289.860 493.071 289.817 Q 493.796 289.775 493.852 289.775 "></path>
    <path id="STROKE_3a84a15f-9584-456d-b69f-d511d28f18af" opacity="1.000" fill="none" stroke="#0c32f2" stroke-width="0.390" stroke-opacity="1.000" stroke-linecap="round" stroke-linejoin="round" d="M 489.061 293.795 Q 488.921 294.346 488.940 294.318 Q 488.858 295.178 488.879 295.837 "></path>
    <path id="STROKE_f6cc7e57-8eca-431f-9717-9a80dd6dfa05" opacity="1.000" fill="none" stroke="#0c32f2" stroke-width="0.523" stroke-opacity="1.000" stroke-linecap="round" stroke-linejoin="round" d="M 490.542 292.944 Q 490.563 292.265 492.075 291.884 Q 493.588 291.503 494.401 291.456 Q 495.214 291.410 495.769 291.544 Q 496.325 291.678 496.870 292.123 Q 497.414 292.569 497.639 293.438 Q 497.864 294.306 497.863 294.471 "></path>
    <path id="STROKE_4023ca3d-3554-4e6d-90bd-a1f172f6baac" opacity="1.000" fill="none" stroke="#0c32f2" stroke-width="0.477" stroke-opacity="1.000" stroke-linecap="round" stroke-linejoin="round" d="M 493.828 293.329 Q 493.001 294.087 490.973 297.539 Q 491.041 297.644 491.736 296.693 Q 492.431 295.742 493.194 295.040 Q 493.957 294.338 494.823 294.446 Q 494.926 294.593 494.975 295.640 Q 495.024 296.687 494.247 298.034 Q 493.470 299.381 490.629 300.078 "></path>
    <path id="STROKE_5c4417e6-b6be-4cab-8039-22175dd4225f" opacity="1.000" fill="none" stroke="#0c32f2" stroke-width="0.586" stroke-opacity="1.000" stroke-linecap="round" stroke-linejoin="round" d="M 492.258 297.405 Q 492.274 297.153 496.212 297.950 Q 496.229 298.039 496.228 298.073 "></path>
    <path id="STROKE_e3ad0a1f-744f-430d-a0b7-dc662eb10270" opacity="1.000" fill="none" stroke="#0c32f2" stroke-width="0.563" stroke-opacity="1.000" stroke-linecap="round" stroke-linejoin="round" d="M 491.563 300.304 Q 491.546 300.304 491.495 300.303 Q 491.505 300.232 495.904 298.577 Q 495.868 298.607 495.999 298.760 Q 496.130 298.914 495.614 299.881 Q 495.097 300.847 493.267 301.387 Q 493.050 301.418 493.749 301.085 Q 494.448 300.752 495.590 300.358 Q 496.733 299.964 498.224 299.420 "></path>
    <path id="STROKE_0a6a1334-151b-4890-a2a0-2a52f495fa17" opacity="1.000" fill="none" stroke="#0c32f2" stroke-width="0.625" stroke-opacity="1.000" stroke-linecap="round" stroke-linejoin="round" d="M 499.610 295.046 L 499.502 295.191 Q 499.539 294.814 499.594 294.758 "></path>
    <path id="STROKE_00240b32-febc-4653-81eb-11fad6f7e8bf" opacity="1.000" fill="none" stroke="#0c32f2" stroke-width="0.396" stroke-opacity="1.000" stroke-linecap="round" stroke-linejoin="round" d="M 493.419 300.494 Q 493.407 300.728 493.492 301.069 Q 493.576 301.411 493.627 301.466 "></path>
    <path id="STROKE_5650c3d3-2a69-46f1-9c86-7f6941a41792" opacity="1.000" fill="none" stroke="#0c32f2" stroke-width="0.475" stroke-opacity="1.000" stroke-linecap="round" stroke-linejoin="round" d="M 499.272 297.595 L 499.598 297.226 "></path>
    <path id="STROKE_9f3b79b6-804d-49b4-af40-a2318e342b46" opacity="1.000" fill="none" stroke="#0c32f2" stroke-width="0.507" stroke-opacity="1.000" stroke-linecap="round" stroke-linejoin="round" d="M 504.081 289.237 Q 504.089 289.085 503.280 291.260 Q 502.471 293.435 500.747 295.959 Q 500.797 295.279 500.842 295.310 Q 500.353 295.207 502.790 293.601 Q 503.364 293.629 503.026 298.659 "></path>
    <path id="STROKE_c3921723-f8f7-4ea4-aa25-48e255edae67" opacity="1.000" fill="none" stroke="#0c32f2" stroke-width="0.499" stroke-opacity="1.000" stroke-linecap="round" stroke-linejoin="round" d="M 505.718 292.008 Q 506.073 291.828 506.537 291.573 Q 507.000 291.319 510.697 289.965 "></path>
    <path id="STROKE_ec44a00c-750d-4f7d-aac6-c76eeb838260" opacity="1.000" fill="none" stroke="#0c32f2" stroke-width="0.465" stroke-opacity="1.000" stroke-linecap="round" stroke-linejoin="round" d="M 507.741 287.472 Q 507.742 287.434 507.742 287.362 Q 507.593 287.508 507.742 287.393 Q 507.891 287.278 508.337 289.806 Q 508.783 292.333 508.814 294.238 Q 508.845 296.142 508.337 298.484 L 508.320 298.484 Q 508.267 298.299 508.397 296.317 Q 508.527 294.334 507.838 292.326 Q 507.462 292.296 505.029 297.271 Q 504.882 297.686 505.919 296.212 Q 506.957 294.737 507.422 294.141 Q 507.888 293.544 508.597 293.064 Q 509.306 292.584 509.829 292.892 Q 510.352 293.200 510.726 293.545 Q 511.099 293.889 511.446 294.529 Q 511.792 295.169 511.378 295.921 "></path>
    <path id="STROKE_f3a04b3f-35fe-4c16-93f3-5d5dad538667" opacity="1.000" fill="none" stroke="#0c32f2" stroke-width="0.748" stroke-opacity="1.000" stroke-linecap="round" stroke-linejoin="round" d="M 507.246 297.506 Q 506.618 297.501 506.660 297.502 Q 506.124 297.498 506.249 297.499 Q 506.210 297.499 506.176 297.482 L 506.176 297.444 Q 506.969 297.188 507.863 296.925 Q 508.757 296.661 512.019 296.103 "></path>
    <path id="STROKE_c271c327-b360-468f-bba7-5368ed5256da" opacity="1.000" fill="none" stroke="#0c32f2" stroke-width="0.732" stroke-opacity="1.000" stroke-linecap="round" stroke-linejoin="round" d="M 484.548 316.853 Q 484.471 316.846 479.693 318.079 Q 474.915 319.313 471.962 319.975 Q 469.009 320.636 465.376 320.996 Q 461.743 321.356 459.910 321.538 Q 458.076 321.719 457.099 321.707 Q 456.122 321.695 451.711 322.086 Q 447.300 322.476 442.719 323.457 Q 438.138 324.437 433.152 325.108 Q 432.845 325.135 433.536 325.072 Q 434.228 325.010 434.403 324.939 "></path>
    <path id="STROKE_e78f23ba-d3df-47f9-8810-9d6ef919c31b" opacity="1.000" fill="none" stroke="#0c32f2" stroke-width="0.764" stroke-opacity="1.000" stroke-linecap="round" stroke-linejoin="round" d="M 439.400 322.137 Q 438.917 322.586 434.661 325.152 Q 434.414 325.253 437.167 324.878 Q 439.920 324.504 442.643 325.098 Q 445.367 325.693 445.671 325.733 "></path>
    <path id="STROKE_f1d6b446-af08-485a-b046-40adfefd1de6" opacity="1.000" fill="none" stroke="#0c32f2" stroke-width="0.533" stroke-opacity="1.000" stroke-linecap="round" stroke-linejoin="round" d="M 454.645 325.760 Q 454.842 325.501 453.817 326.382 Q 452.792 327.264 451.848 327.717 Q 450.904 328.171 450.875 328.750 Q 450.846 329.329 450.893 331.257 Q 450.940 333.185 450.977 334.291 Q 451.014 335.397 450.608 336.589 Q 450.592 336.589 450.575 336.589 "></path>
    <path id="STROKE_609fbdd6-dc36-49a0-a7e0-95f60edc75bf" opacity="1.000" fill="none" stroke="#0c32f2" stroke-width="0.640" stroke-opacity="1.000" stroke-linecap="round" stroke-linejoin="round" d="M 452.617 330.980 Q 452.487 330.977 453.624 330.336 Q 454.761 329.696 455.651 329.655 Q 456.542 329.614 456.839 329.867 Q 457.136 330.121 457.285 330.628 Q 457.434 331.135 456.663 332.491 Q 455.893 333.847 453.993 334.928 Q 452.093 336.008 451.930 336.024 "></path>
    <path id="STROKE_1e9a5d43-3095-4ab1-85c4-856100ff9dd7" opacity="1.000" fill="none" stroke="#0c32f2" stroke-width="0.730" stroke-opacity="1.000" stroke-linecap="round" stroke-linejoin="round" d="M 454.072 332.239 Q 454.163 332.480 454.881 333.511 Q 455.600 334.541 456.830 335.134 Q 458.059 335.726 459.190 335.822 Q 460.321 335.918 461.492 335.843 "></path>
    <path id="STROKE_51736fec-d84d-4ce2-8220-ed7e9ec2bbe0" opacity="1.000" fill="none" stroke="#0c32f2" stroke-width="0.522" stroke-opacity="1.000" stroke-linecap="round" stroke-linejoin="round" d="M 464.289 328.442 Q 464.326 328.390 464.273 328.454 Q 464.221 328.519 464.141 328.618 Q 464.062 328.717 463.781 329.064 Q 463.500 329.410 463.511 329.420 L 463.494 329.441 Q 463.686 329.422 464.672 328.608 Q 465.658 327.794 467.499 327.636 Q 467.702 327.622 467.722 328.574 Q 467.742 329.525 467.286 330.210 Q 466.829 330.894 466.705 330.999 "></path>
    <path id="STROKE_c2248034-3dd4-4336-81f4-54a0329a1614" opacity="1.000" fill="none" stroke="#0c32f2" stroke-width="0.626" stroke-opacity="1.000" stroke-linecap="round" stroke-linejoin="round" d="M 465.210 330.525 Q 465.298 330.646 464.463 336.969 L 464.446 336.969 Q 464.416 337.113 465.895 334.911 Q 467.374 332.709 467.517 332.406 "></path>
    <path id="STROKE_7c575122-af5f-4d33-9a3e-24b3f329d993" opacity="1.000" fill="none" stroke="#0c32f2" stroke-width="0.621" stroke-opacity="1.000" stroke-linecap="round" stroke-linejoin="round" d="M 465.485 326.508 Q 465.754 325.792 462.837 331.800 Q 462.871 331.784 462.904 331.767 "></path>
    <path id="STROKE_67f2d8ba-f204-4e02-b165-a744c0bf05eb" opacity="1.000" fill="none" stroke="#0c32f2" stroke-width="0.503" stroke-opacity="1.000" stroke-linecap="round" stroke-linejoin="round" d="M 467.515 327.746 Q 467.537 328.200 467.562 328.206 Q 467.580 328.210 467.577 328.608 Q 467.641 328.355 468.197 327.467 Q 468.752 326.578 469.292 326.207 Q 469.832 325.837 470.040 325.767 Q 470.248 325.697 470.669 325.559 Q 471.091 325.421 471.288 325.818 Q 471.486 326.215 471.135 327.094 Q 470.783 327.973 470.264 328.488 Q 469.744 329.003 468.581 329.129 Q 468.085 328.597 470.323 325.393 "></path>
    <path id="STROKE_253e2aa0-ac8b-4b27-b03a-129d22688dd1" opacity="1.000" fill="none" stroke="#0c32f2" stroke-width="0.552" stroke-opacity="1.000" stroke-linecap="round" stroke-linejoin="round" d="M 469.988 326.648 Q 469.913 326.920 468.101 331.009 Q 467.615 331.296 471.902 326.805 Q 473.000 327.494 470.355 333.244 Q 470.321 333.244 470.304 333.244 Q 470.259 333.541 470.275 332.814 Q 470.290 332.086 470.707 331.293 Q 471.124 330.499 471.441 330.353 Q 471.758 330.207 472.049 330.491 Q 472.340 330.775 472.378 331.102 Q 472.416 331.430 472.498 331.750 Q 472.580 332.069 472.672 332.762 Q 472.758 332.562 472.605 332.260 Q 472.453 331.958 472.089 331.767 Q 471.725 331.576 468.821 336.070 Q 469.677 335.606 469.505 335.661 Q 469.749 335.480 470.516 335.053 Q 471.282 334.626 472.008 335.342 Q 472.735 336.058 472.751 336.097 "></path>
    <path id="STROKE_006d055f-4542-4702-8cbc-74b015abc222" opacity="1.000" fill="none" stroke="#0c32f2" stroke-width="0.590" stroke-opacity="1.000" stroke-linecap="round" stroke-linejoin="round" d="M 467.597 332.263 Q 467.510 332.500 467.567 333.318 Q 467.640 333.352 467.871 333.371 "></path>
    <path id="STROKE_dd01a9fa-f572-4d26-bc7f-e9c20fb90c12" opacity="1.000" fill="none" stroke="#0c32f2" stroke-width="0.674" stroke-opacity="1.000" stroke-linecap="round" stroke-linejoin="round" d="M 453.330 347.185 Q 453.681 347.216 454.646 347.146 Q 455.610 347.076 456.499 347.146 Q 457.387 347.216 457.556 347.699 Q 457.725 348.182 457.640 348.576 Q 457.555 348.970 457.379 349.168 Q 457.203 349.367 456.965 349.590 Q 456.726 349.812 455.877 350.446 Q 455.029 351.079 453.189 351.379 Q 453.268 351.232 454.343 350.337 Q 455.419 349.443 456.858 347.904 Q 458.297 346.365 458.937 342.352 Q 458.334 342.009 457.602 354.887 Q 457.636 354.849 457.670 354.811 "></path>
    <path id="STROKE_0fa53d1d-9a99-4c17-b8a9-b3d57fca5f6f" opacity="1.000" fill="none" stroke="#0c32f2" stroke-width="0.533" stroke-opacity="1.000" stroke-linecap="round" stroke-linejoin="round" d="M 459.107 348.836 Q 459.222 348.797 462.982 346.929 "></path>
    <path id="STROKE_8f646278-67fc-453b-83d8-8eabf0cdc316" opacity="1.000" fill="none" stroke="#0c32f2" stroke-width="0.499" stroke-opacity="1.000" stroke-linecap="round" stroke-linejoin="round" d="M 462.208 344.915 Q 462.074 345.036 458.804 352.059 Q 458.845 351.890 459.154 351.690 Q 459.463 351.491 459.971 351.541 Q 460.480 351.590 461.031 351.639 Q 461.582 351.689 461.873 351.731 Q 462.165 351.773 462.434 351.600 Q 462.704 351.427 462.773 351.300 "></path>
    <path id="STROKE_8466db17-51f0-4001-89c0-65cbd71da60a" opacity="1.000" fill="none" stroke="#0c32f2" stroke-width="0.391" stroke-opacity="1.000" stroke-linecap="round" stroke-linejoin="round" d="M 462.607 344.166 Q 462.691 344.215 463.062 344.416 Q 463.432 344.617 463.858 344.828 Q 464.284 345.038 464.357 345.073 "></path>
    <path id="STROKE_3874ddab-3784-42ba-8a8c-cde262a93fd2" opacity="1.000" fill="none" stroke="#0c32f2" stroke-width="0.391" stroke-opacity="1.000" stroke-linecap="round" stroke-linejoin="round" d="M 466.426 345.661 Q 466.387 345.692 468.545 344.545 Q 470.703 343.398 470.844 343.327 "></path>
    <path id="STROKE_97157a28-b97a-45b4-a78d-6ec35858f53a" opacity="1.000" fill="none" stroke="#0c32f2" stroke-width="0.564" stroke-opacity="1.000" stroke-linecap="round" stroke-linejoin="round" d="M 470.775 343.537 Q 470.477 343.379 466.575 350.245 Q 466.928 350.349 467.844 349.049 Q 468.759 347.749 469.315 347.004 Q 469.871 346.260 470.664 345.807 Q 471.458 345.353 473.031 345.490 Q 473.355 345.972 472.866 346.954 Q 472.378 347.937 468.802 348.901 Q 468.548 348.820 472.019 346.956 Q 472.190 347.432 471.109 348.882 Q 470.028 350.333 469.060 351.281 Q 468.093 352.230 465.952 352.436 Q 466.645 351.665 466.490 351.967 Q 467.269 351.983 467.098 351.992 Q 467.300 352.100 467.961 352.735 Q 468.622 353.370 469.009 353.661 Q 469.397 353.951 470.601 354.096 Q 471.805 354.240 472.682 353.869 Q 473.559 353.498 474.026 352.692 Q 474.493 351.886 474.502 351.299 Q 474.511 350.713 474.512 350.586 "></path>
    <path id="STROKE_91a37220-1c11-4d70-a18c-b73182202ab0" opacity="1.000" fill="none" stroke="#0c32f2" stroke-width="0.591" stroke-opacity="1.000" stroke-linecap="round" stroke-linejoin="round" d="M 472.010 350.755 Q 471.824 350.558 471.715 351.985 Q 471.872 352.064 472.386 351.893 Q 472.899 351.723 473.075 351.581 "></path>
    <path id="STROKE_e7134b0b-6808-4409-9c87-8eab9afe88ac" opacity="1.000" fill="none" stroke="#0c32f2" stroke-width="0.952" stroke-opacity="1.000" stroke-linecap="round" stroke-linejoin="round" d="M 477.092 350.316 Q 476.905 350.141 477.104 350.851 Q 477.303 351.561 477.711 351.957 Q 478.120 352.354 478.227 352.375 "></path>
    <path id="STROKE_8b562ff5-c6af-4cec-a2f5-a0c8d6fc6fc7" opacity="1.000" fill="none" stroke="#0c32f2" stroke-width="0.680" stroke-opacity="1.000" stroke-linecap="round" stroke-linejoin="round" d="M 488.693 343.447 Q 489.052 343.415 488.359 343.343 Q 487.667 343.272 487.393 343.313 Q 487.119 343.354 486.559 343.632 Q 486.000 343.911 485.429 344.400 Q 484.858 344.889 484.790 345.035 Q 484.722 345.180 484.908 345.460 Q 485.093 345.740 485.525 345.842 Q 485.957 345.945 486.648 346.046 Q 487.340 346.147 488.361 346.183 Q 489.382 346.219 490.494 346.499 Q 491.606 346.779 491.650 347.326 Q 491.694 347.872 491.363 348.232 Q 491.033 348.593 490.699 348.868 Q 490.366 349.144 490.034 349.362 Q 489.702 349.580 489.405 349.833 Q 489.107 350.085 487.295 350.250 "></path>
    <path id="STROKE_54c28bdd-81fc-4a6f-b078-9fd4918c18d8" opacity="1.000" fill="none" stroke="#0c32f2" stroke-width="0.522" stroke-opacity="1.000" stroke-linecap="round" stroke-linejoin="round" d="M 405.903 276.283 Q 405.615 276.476 408.058 275.648 Q 407.226 275.642 407.518 275.644 Q 407.172 275.715 407.247 275.752 Q 407.047 275.494 407.109 277.811 Q 407.170 280.128 407.169 281.351 Q 407.167 282.574 407.122 282.981 Q 407.077 283.388 406.784 283.734 Q 406.490 284.080 406.433 284.056 Q 406.376 284.032 406.334 284.037 Q 406.292 284.042 406.487 284.055 Q 406.682 284.069 405.344 283.987 Q 406.089 283.811 406.066 283.793 Q 406.837 283.442 411.055 282.159 "></path>
    <path id="STROKE_f9329d41-98ee-432b-9fef-a3b033d044a1" opacity="1.000" fill="none" stroke="#0c32f2" stroke-width="0.576" stroke-opacity="1.000" stroke-linecap="round" stroke-linejoin="round" d="M 519.387 280.527 Q 519.229 280.584 519.067 281.718 Q 518.905 282.853 518.998 283.496 Q 519.091 284.139 519.292 284.561 Q 519.494 284.982 520.051 285.337 Q 520.609 285.693 521.061 285.689 Q 521.514 285.685 522.023 285.721 Q 522.533 285.757 523.317 284.915 Q 524.102 284.073 524.330 282.974 Q 524.558 281.874 524.389 281.265 Q 524.220 280.656 524.155 280.512 Q 524.091 280.368 523.563 279.797 Q 523.036 279.227 522.324 278.922 Q 521.612 278.616 520.690 278.799 Q 519.767 278.982 519.379 281.818 "></path>
    <path id="STROKE_398b6d20-b783-46e9-8f2c-88f315be3832" opacity="1.000" fill="none" stroke="#0c32f2" stroke-width="0.408" stroke-opacity="1.000" stroke-linecap="round" stroke-linejoin="round" d="M 398.468 376.816 Q 398.975 376.575 399.379 376.328 Q 399.783 376.082 401.902 375.303 "></path>
    <path id="STROKE_f49a7f88-7cc6-4089-954c-03b05e8a2749" opacity="1.000" fill="none" stroke="#0c32f2" stroke-width="0.639" stroke-opacity="1.000" stroke-linecap="round" stroke-linejoin="round" d="M 400.332 375.968 Q 400.289 375.863 400.260 378.521 Q 400.230 381.180 400.299 382.738 Q 400.368 384.296 400.224 385.119 Q 400.080 385.941 399.671 386.309 Q 399.263 386.678 398.946 386.663 Q 398.630 386.649 398.625 386.627 Q 398.620 386.606 398.691 386.696 Q 398.762 386.786 398.404 386.321 Q 398.473 386.236 399.042 386.208 Q 399.611 386.180 401.574 385.542 Q 403.537 384.904 403.627 384.888 "></path>
    <path id="STROKE_b0a6f0d4-bc68-417b-b9ed-26e158e24c90" opacity="1.000" fill="none" stroke="#0c32f2" stroke-width="0.573" stroke-opacity="1.000" stroke-linecap="round" stroke-linejoin="round" d="M 414.153 378.788 Q 414.666 378.512 417.966 377.524 Q 421.267 376.535 424.893 376.238 Q 428.520 375.940 434.541 375.675 Q 440.562 375.411 446.376 374.649 Q 446.377 374.633 446.377 374.565 "></path>
    <path id="STROKE_3884a7c7-9d35-4415-a2b7-8e082a7fb671" opacity="1.000" fill="none" stroke="#0c32f2" stroke-width="0.461" stroke-opacity="1.000" stroke-linecap="round" stroke-linejoin="round" d="M 446.023 373.659 Q 446.815 373.737 442.378 373.137 Q 442.126 373.207 447.119 373.975 Q 447.152 373.880 447.168 374.454 Q 447.184 375.027 446.520 375.432 Q 445.856 375.836 445.373 375.966 Q 444.889 376.096 444.716 376.076 Q 444.543 376.055 444.509 376.055 "></path>
    <path id="STROKE_f433e539-f16a-41d9-a52a-68a5c561fed4" opacity="1.000" fill="none" stroke="#0c32f2" stroke-width="0.564" stroke-opacity="1.000" stroke-linecap="round" stroke-linejoin="round" d="M 452.065 369.403 Q 452.696 369.135 456.115 368.350 Q 456.136 369.060 451.952 371.049 Q 451.463 371.383 457.437 369.330 Q 457.161 369.986 452.615 373.062 Q 452.701 372.425 456.854 370.541 Q 456.972 370.738 456.976 371.067 Q 456.981 371.395 456.862 371.805 Q 456.742 372.215 456.569 372.441 Q 456.396 372.668 456.481 372.544 Q 456.566 372.421 456.347 372.703 Q 456.128 372.985 455.834 372.896 Q 455.539 372.806 455.489 372.721 Q 455.438 372.635 455.155 372.007 Q 455.216 372.390 455.091 372.669 Q 454.966 372.948 456.227 378.388 Q 456.181 378.370 455.113 376.905 Q 454.046 375.440 453.996 375.334 "></path>
    <path id="STROKE_7e1c04ab-874f-4f59-b541-ae65b47c0f42" opacity="1.000" fill="none" stroke="#0c32f2" stroke-width="0.538" stroke-opacity="1.000" stroke-linecap="round" stroke-linejoin="round" d="M 457.775 370.944 Q 457.789 370.895 459.686 369.851 Q 460.096 370.813 457.730 375.216 L 457.713 375.216 Q 457.748 375.270 457.677 375.203 Q 457.605 375.136 458.061 374.427 Q 458.518 373.718 459.055 373.415 Q 459.592 373.111 460.168 373.181 Q 460.743 373.251 461.071 374.292 Q 461.399 375.334 461.102 376.901 Q 461.246 377.084 460.621 376.899 Q 459.996 376.714 459.724 376.438 Q 459.452 376.162 459.362 376.167 Q 459.272 376.171 459.017 376.284 Q 458.763 376.396 458.592 376.541 Q 458.420 376.686 458.371 376.830 Q 458.322 376.974 458.249 377.097 Q 458.175 377.221 457.908 377.901 Q 457.885 378.163 458.480 377.720 Q 459.076 377.276 459.567 376.856 Q 460.059 376.436 460.646 376.253 Q 461.233 376.069 461.685 376.552 Q 462.137 377.035 462.171 377.035 "></path>
    <path id="STROKE_8862e7f5-0c37-4698-87cd-6963ecef849d" opacity="1.000" fill="none" stroke="#0c32f2" stroke-width="0.592" stroke-opacity="1.000" stroke-linecap="round" stroke-linejoin="round" d="M 462.566 371.948 Q 462.740 371.643 465.249 370.477 Q 467.758 369.311 467.775 369.290 "></path>
    <path id="STROKE_00b6ca71-c450-40cb-af52-2ee3c5f589fa" opacity="1.000" fill="none" stroke="#0c32f2" stroke-width="0.625" stroke-opacity="1.000" stroke-linecap="round" stroke-linejoin="round" d="M 465.183 366.301 Q 465.178 367.047 465.109 377.232 Q 465.338 377.066 465.328 377.051 Q 465.318 377.037 465.578 376.163 "></path>
    <path id="STROKE_1c70cfda-55a6-462d-aef8-ee4e46aa940b" opacity="1.000" fill="none" stroke="#0c32f2" stroke-width="0.593" stroke-opacity="1.000" stroke-linecap="round" stroke-linejoin="round" d="M 466.810 368.853 Q 466.834 369.534 466.926 372.163 Q 467.017 374.793 467.017 374.848 "></path>
    <path id="STROKE_929e1955-271c-4327-8032-37dfb3fbe303" opacity="1.000" fill="none" stroke="#0c32f2" stroke-width="0.492" stroke-opacity="1.000" stroke-linecap="round" stroke-linejoin="round" d="M 465.781 372.830 Q 465.965 372.762 466.257 372.615 Q 466.549 372.468 466.530 372.484 Q 466.511 372.500 466.539 372.494 Q 466.568 372.487 466.456 372.482 Q 466.345 372.476 468.089 372.052 Q 468.044 373.032 468.016 372.753 Q 468.272 372.737 467.629 373.322 Q 466.985 373.908 466.465 374.297 Q 465.944 374.686 465.486 374.694 Q 465.116 374.293 468.121 373.023 Q 468.424 373.196 467.731 374.717 Q 467.038 376.239 464.962 377.341 Q 464.415 377.241 468.483 374.528 Q 468.481 374.779 467.286 376.560 Q 466.092 378.342 464.022 379.732 Q 463.948 379.740 464.892 378.978 Q 465.836 378.216 466.970 377.834 Q 468.104 377.453 469.736 378.285 Q 469.770 378.197 469.787 378.125 "></path>
    <path id="STROKE_7afdcc17-b973-4444-b5e2-a773a5284f1d" opacity="1.000" fill="none" stroke="#0c32f2" stroke-width="0.697" stroke-opacity="1.000" stroke-linecap="round" stroke-linejoin="round" d="M 469.568 368.914 Q 470.156 369.494 469.974 379.629 Q 469.941 379.629 469.913 379.620 Q 469.884 379.611 469.845 379.594 "></path>
    <path id="STROKE_1cc51816-93be-4f1b-b04c-71cf1169f4b0" opacity="1.000" fill="none" stroke="#0c32f2" stroke-width="0.807" stroke-opacity="1.000" stroke-linecap="round" stroke-linejoin="round" d="M 469.582 371.885 Q 469.655 371.186 469.990 370.331 Q 470.324 369.475 470.771 369.060 Q 471.217 368.645 471.959 368.700 Q 472.701 368.756 473.104 370.359 Q 473.506 371.962 473.541 374.047 Q 473.576 376.132 473.606 377.513 Q 473.637 378.894 473.215 379.497 Q 472.792 380.100 472.702 380.154 "></path>
    <path id="STROKE_f6f64a0b-962e-49b7-9659-29b8196e541f" opacity="1.000" fill="none" stroke="#0c32f2" stroke-width="0.628" stroke-opacity="1.000" stroke-linecap="round" stroke-linejoin="round" d="M 470.911 375.195 Q 470.992 374.798 470.752 374.013 Q 470.512 373.227 472.510 371.854 Q 473.411 371.798 471.011 377.019 Q 470.666 377.074 473.822 374.320 "></path>
    <path id="STROKE_2a08b159-33ab-4565-afb4-1787bd0e845f" opacity="1.000" fill="none" stroke="#0c32f2" stroke-width="0.774" stroke-opacity="1.000" stroke-linecap="round" stroke-linejoin="round" d="M 480.936 369.809 Q 481.398 369.443 483.030 369.038 Q 484.259 370.793 479.720 374.714 Q 480.035 374.434 480.762 373.855 Q 481.490 373.277 483.025 373.141 Q 483.110 373.154 483.244 374.508 Q 483.379 375.861 482.587 377.697 Q 481.794 379.532 480.219 380.880 Q 480.165 381.191 481.687 379.804 Q 483.209 378.417 489.391 377.676 Q 495.572 376.936 496.023 376.867 "></path>
    <path id="STROKE_8ff3c5d6-227c-4b1d-87c3-df7133d306ac" opacity="1.000" fill="none" stroke="#0c32f2" stroke-width="0.569" stroke-opacity="1.000" stroke-linecap="round" stroke-linejoin="round" d="M 500.519 366.429 Q 500.915 366.202 502.887 365.336 Q 504.859 364.471 507.620 363.793 "></path>
    <path id="STROKE_b50b820a-0436-42f4-af14-6e2d46e4042b" opacity="1.000" fill="none" stroke="#0c32f2" stroke-width="0.411" stroke-opacity="1.000" stroke-linecap="round" stroke-linejoin="round" d="M 501.945 367.157 Q 501.850 367.362 505.717 365.502 Q 505.914 365.483 501.766 368.658 Q 501.659 368.632 503.046 367.576 Q 504.434 366.519 506.697 366.311 Q 507.035 366.418 506.420 368.124 "></path>
    <path id="STROKE_c3121e91-4894-48db-a328-cf70f709ab6b" opacity="1.000" fill="none" stroke="#0c32f2" stroke-width="0.471" stroke-opacity="1.000" stroke-linecap="round" stroke-linejoin="round" d="M 501.505 368.842 Q 501.525 368.103 501.531 368.319 Q 501.683 367.878 502.848 366.732 Q 502.913 366.309 501.299 367.638 Q 501.553 367.778 502.452 369.633 Q 502.626 369.559 502.543 369.668 Q 502.459 369.776 502.479 369.730 Q 502.499 369.683 502.735 369.499 Q 502.971 369.315 503.083 369.151 Q 503.195 368.987 503.214 368.994 Q 503.233 369.000 503.518 368.310 Q 503.803 367.620 504.018 367.040 Q 504.233 366.461 504.312 366.293 Q 504.392 366.126 504.833 365.949 Q 505.273 365.772 505.622 365.753 Q 505.971 365.734 505.916 365.755 Q 505.860 365.777 506.119 365.704 Q 506.377 365.632 506.586 365.986 Q 506.794 366.341 506.494 366.630 Q 506.193 366.919 505.929 367.170 Q 505.665 367.421 505.085 367.870 Q 504.505 368.319 502.866 369.062 Q 502.986 368.924 505.022 368.382 Q 507.058 367.841 507.131 367.842 "></path>
    <path id="STROKE_045b3ce4-b83f-4fba-90ed-4cdb749624ad" opacity="1.000" fill="none" stroke="#0c32f2" stroke-width="0.511" stroke-opacity="1.000" stroke-linecap="round" stroke-linejoin="round" d="M 502.679 370.142 Q 502.611 370.141 502.364 370.139 Q 502.267 370.062 502.658 369.844 Q 503.048 369.626 503.074 369.537 Q 503.100 369.449 503.978 369.222 Q 504.857 368.995 505.550 368.899 Q 506.242 368.803 507.075 369.381 Q 507.908 369.960 508.024 370.953 Q 508.140 371.947 508.139 372.036 "></path>
    <path id="STROKE_c5b9bd3d-91f8-4f30-88c4-cd6e092710e4" opacity="1.000" fill="none" stroke="#0c32f2" stroke-width="0.597" stroke-opacity="1.000" stroke-linecap="round" stroke-linejoin="round" d="M 503.603 371.650 Q 503.245 371.625 508.601 370.397 Q 509.408 371.422 503.656 373.947 Q 503.499 374.005 504.195 373.253 Q 504.891 372.500 505.920 371.994 Q 506.949 371.487 507.559 371.304 Q 508.169 371.122 508.255 371.120 Q 508.340 371.119 508.759 371.107 Q 509.178 371.094 509.111 371.080 Q 509.043 371.066 509.107 371.074 Q 509.171 371.081 509.166 371.490 Q 509.161 371.900 508.281 372.653 Q 508.290 372.155 508.553 369.177 "></path>
    <path id="STROKE_b0ae714c-5d3f-44f3-97f5-8b7f4843da65" opacity="1.000" fill="none" stroke="#0c32f2" stroke-width="0.720" stroke-opacity="1.000" stroke-linecap="round" stroke-linejoin="round" d="M 502.913 362.149 Q 502.897 362.056 502.736 361.717 Q 502.398 361.425 503.994 364.352 Q 505.591 367.280 504.972 378.219 Q 504.956 378.219 504.860 378.218 Q 504.669 377.658 504.582 376.307 Q 504.495 374.956 504.961 372.343 "></path>
    <path id="STROKE_c25164d4-210e-43bd-a319-3284aa82945b" opacity="1.000" fill="none" stroke="#0c32f2" stroke-width="0.544" stroke-opacity="1.000" stroke-linecap="round" stroke-linejoin="round" d="M 513.221 361.501 Q 512.889 362.426 509.137 367.669 Q 509.035 367.684 510.200 366.611 Q 511.365 365.539 513.501 365.158 Q 513.851 365.867 513.833 366.983 Q 513.816 368.099 513.120 369.163 Q 512.424 370.227 512.093 370.668 Q 511.763 371.109 511.497 371.268 Q 511.230 371.427 510.908 371.401 Q 510.586 371.374 510.577 371.356 Q 510.568 371.338 510.598 371.357 Q 510.629 371.376 510.527 371.183 Q 510.425 370.989 510.414 370.079 Q 510.404 369.169 510.412 368.589 Q 510.421 368.009 510.420 367.855 Q 510.420 367.701 510.422 367.501 Q 510.402 367.346 510.453 367.725 Q 510.504 368.104 512.411 368.505 Q 514.319 368.905 517.006 368.119 "></path>
    <path id="STROKE_45d32b34-9724-413a-be62-8505b256b773" opacity="1.000" fill="none" stroke="#0c32f2" stroke-width="0.707" stroke-opacity="1.000" stroke-linecap="round" stroke-linejoin="round" d="M 514.049 370.683 Q 514.195 370.447 513.738 371.015 Q 513.280 371.582 512.711 376.228 L 512.694 376.228 Q 512.809 376.408 512.709 375.237 Q 512.609 374.065 512.934 373.130 Q 513.258 372.196 513.851 371.866 Q 514.445 371.535 515.147 371.546 Q 515.850 371.556 515.875 371.704 Q 515.899 371.852 515.961 371.910 Q 516.022 371.968 516.293 372.709 Q 516.564 373.451 516.583 374.056 Q 516.601 374.661 516.290 375.367 Q 515.979 376.073 515.308 376.269 Q 514.636 376.465 514.114 376.162 Q 513.592 375.859 513.519 375.769 "></path>
    <path id="STROKE_b0856a10-e931-436b-9a80-8ac5956d259a" opacity="1.000" fill="none" stroke="#0c32f2" stroke-width="0.479" stroke-opacity="1.000" stroke-linecap="round" stroke-linejoin="round" d="M 510.380 373.663 Q 510.726 373.533 516.441 371.627 "></path>
    <path id="STROKE_a4a4845f-50a2-479d-a056-0a25ab5ecaf8" opacity="1.000" fill="none" stroke="#0c32f2" stroke-width="0.550" stroke-opacity="1.000" stroke-linecap="round" stroke-linejoin="round" d="M 532.193 365.352 Q 532.202 364.506 532.214 364.744 Q 532.232 364.655 532.233 364.423 Q 532.349 365.558 528.611 377.163 Q 528.885 376.865 530.035 374.753 Q 531.186 372.641 531.839 367.004 L 531.872 367.004 Q 531.811 366.478 533.155 370.333 Q 534.498 374.189 534.498 374.299 "></path>
    <path id="STROKE_5be6f39b-93c7-45e7-bb5d-d856dc843fae" opacity="1.000" fill="none" stroke="#0c32f2" stroke-width="0.601" stroke-opacity="1.000" stroke-linecap="round" stroke-linejoin="round" d="M 531.115 371.617 Q 530.965 371.644 532.464 371.292 Q 533.963 370.939 534.194 370.886 "></path>
    <path id="STROKE_de7aaa2d-9bd7-4e4f-a537-dc618b1709ee" opacity="1.000" fill="none" stroke="#0c32f2" stroke-width="0.871" stroke-opacity="1.000" stroke-linecap="round" stroke-linejoin="round" d="M 538.491 364.862 Q 538.182 364.789 538.028 367.563 Q 537.874 370.337 537.745 372.405 Q 537.615 374.474 537.071 376.206 Q 536.527 377.939 535.854 378.413 Q 535.182 378.887 535.075 378.886 "></path>
    <path id="STROKE_4d6084bb-f1eb-4e4c-b410-14fe11f066fd" opacity="1.000" fill="none" stroke="#0c32f2" stroke-width="0.525" stroke-opacity="1.000" stroke-linecap="round" stroke-linejoin="round" d="M 534.613 372.180 Q 534.917 372.127 534.874 372.004 Q 534.831 371.882 537.849 370.986 Q 540.866 370.091 540.956 370.071 "></path>
    <path id="STROKE_651f840c-44d5-4990-a08d-466779bbac44" opacity="1.000" fill="none" stroke="#0c32f2" stroke-width="0.428" stroke-opacity="1.000" stroke-linecap="round" stroke-linejoin="round" d="M 533.046 370.845 Q 533.063 371.731 534.391 373.825 Q 535.720 375.919 535.737 375.919 "></path>
    <path id="STROKE_4759aadc-a2a9-4da1-a4c4-a01ae96c7cd0" opacity="1.000" fill="none" stroke="#0c32f2" stroke-width="0.550" stroke-opacity="1.000" stroke-linecap="round" stroke-linejoin="round" d="M 458.294 410.810 Q 458.442 410.969 453.465 422.326 Q 453.507 422.242 453.897 421.645 "></path>
    <path id="STROKE_91a87535-ffbc-496e-92f1-183e5be64138" opacity="1.000" fill="none" stroke="#0c32f2" stroke-width="0.744" stroke-opacity="1.000" stroke-linecap="round" stroke-linejoin="round" d="M 457.854 412.673 Q 457.876 412.408 458.380 411.528 Q 459.268 411.734 460.484 416.340 Q 461.700 420.946 461.739 421.090 "></path>
    <path id="STROKE_1a726af3-86e7-4424-b7f6-ce947f498814" opacity="1.000" fill="none" stroke="#0c32f2" stroke-width="0.773" stroke-opacity="1.000" stroke-linecap="round" stroke-linejoin="round" d="M 455.959 418.113 Q 455.771 418.112 455.745 418.112 Q 455.361 418.403 457.755 417.732 Q 460.150 417.061 460.437 417.029 "></path>
    <path id="STROKE_bcf5be3a-49ad-4684-986c-c841a769cd66" opacity="1.000" fill="none" stroke="#0c32f2" stroke-width="0.813" stroke-opacity="1.000" stroke-linecap="round" stroke-linejoin="round" d="M 466.802 411.619 Q 466.781 412.007 466.727 413.776 Q 466.673 415.544 466.769 416.784 Q 466.865 418.024 465.932 420.005 Q 464.998 421.986 464.908 422.040 "></path>
    <path id="STROKE_60e8fd9d-f98a-420a-a81a-7faa2e880fbb" opacity="1.000" fill="none" stroke="#0c32f2" stroke-width="0.864" stroke-opacity="1.000" stroke-linecap="round" stroke-linejoin="round" d="M 464.381 416.659 Q 464.527 416.633 466.469 415.889 Q 468.412 415.146 468.682 415.042 "></path>
    <path id="STROKE_35dee7b8-55ee-487c-a613-d28226830198" opacity="1.000" fill="none" stroke="#0c32f2" stroke-width="0.407" stroke-opacity="1.000" stroke-linecap="round" stroke-linejoin="round" d="M 466.736 411.517 Q 466.393 411.649 466.216 415.135 "></path>
    <path id="STROKE_919f24ec-0e86-4074-bccc-bc8d9ddac0db" opacity="1.000" fill="none" stroke="#0c32f2" stroke-width="0.496" stroke-opacity="1.000" stroke-linecap="round" stroke-linejoin="round" d="M 468.502 410.094 Q 468.097 410.229 468.174 410.235 Q 467.715 410.367 466.877 412.470 Q 466.039 414.572 466.039 414.661 "></path>
    <path id="STROKE_d2c01135-aaff-4a2a-a4f6-e3e3211f55b8" opacity="1.000" fill="none" stroke="#0c32f2" stroke-width="0.722" stroke-opacity="1.000" stroke-linecap="round" stroke-linejoin="round" d="M 542.072 364.920 Q 541.723 364.857 540.994 366.634 Q 540.265 368.412 539.999 369.813 Q 539.734 371.214 539.651 372.065 Q 539.569 372.917 539.480 374.644 Q 539.390 376.370 538.876 378.177 Q 538.362 379.985 537.733 380.894 Q 537.104 381.804 536.980 381.913 "></path>
    <path id="STROKE_14113ac8-aaf0-424d-a963-cd89e7769166" opacity="1.000" fill="none" stroke="#0c32f2" stroke-width="0.514" stroke-opacity="1.000" stroke-linecap="round" stroke-linejoin="round" d="M 468.816 415.220 Q 469.534 414.995 469.482 415.009 Q 469.740 414.822 471.260 414.578 Q 472.781 414.335 472.865 414.319 "></path>
    <path id="STROKE_21cad6fa-1422-46ba-9f86-b9e7841b5ef6" opacity="1.000" fill="none" stroke="#0c32f2" stroke-width="0.600" stroke-opacity="1.000" stroke-linecap="round" stroke-linejoin="round" d="M 471.226 408.643 Q 470.805 408.198 470.559 409.319 Q 470.313 410.440 470.286 411.192 Q 470.259 411.945 470.262 412.536 Q 470.264 413.128 470.251 414.054 Q 470.238 414.981 470.200 415.705 Q 470.162 416.429 470.264 417.530 Q 470.366 418.631 469.782 420.350 Q 469.197 422.069 468.490 422.702 Q 467.782 423.334 467.692 423.350 "></path>
    <path id="STROKE_5cc35d2e-c419-47b7-a83b-c9879ad5279a" opacity="1.000" fill="none" stroke="#0c32f2" stroke-width="0.493" stroke-opacity="1.000" stroke-linecap="round" stroke-linejoin="round" d="M 413.305 419.396 Q 413.564 419.204 414.440 418.905 Q 414.682 419.032 414.062 420.376 Q 413.442 421.720 410.920 423.896 "></path>
    <path id="STROKE_2db5ff74-7396-4c83-9490-4067d8e96531" opacity="1.000" fill="none" stroke="#0c32f2" stroke-width="0.644" stroke-opacity="1.000" stroke-linecap="round" stroke-linejoin="round" d="M 412.548 421.366 Q 412.937 422.370 412.982 422.065 Q 413.665 422.234 414.343 422.330 Q 415.021 422.426 416.407 421.856 "></path>
    <path id="STROKE_6af831d8-b92f-404f-a1b5-54be780a0328" opacity="1.000" fill="none" stroke="#0c32f2" stroke-width="0.583" stroke-opacity="1.000" stroke-linecap="round" stroke-linejoin="round" d="M 417.165 419.675 Q 417.459 419.238 420.902 418.265 "></path>
    <path id="STROKE_08f76b8b-4bb1-436d-a42a-7d5702205efb" opacity="1.000" fill="none" stroke="#0c32f2" stroke-width="0.609" stroke-opacity="1.000" stroke-linecap="round" stroke-linejoin="round" d="M 419.261 417.866 Q 419.343 417.544 419.258 423.205 Q 418.842 423.912 417.496 421.614 Q 417.989 421.262 417.948 421.314 Q 418.690 420.860 418.598 420.915 Q 418.506 420.971 419.062 420.625 "></path>
    <path id="STROKE_aab123ce-5960-4942-9c8e-d581be871cbe" opacity="1.000" fill="none" stroke="#0c32f2" stroke-width="0.433" stroke-opacity="1.000" stroke-linecap="round" stroke-linejoin="round" d="M 413.223 421.404 Q 413.559 421.460 413.596 421.450 Q 413.634 421.441 413.719 421.441 "></path>
    <path id="STROKE_142d270b-fd38-4354-8d06-224fd94ca8e4" opacity="1.000" fill="none" stroke="#0c32f2" stroke-width="0.768" stroke-opacity="1.000" stroke-linecap="round" stroke-linejoin="round" d="M 423.311 416.779 Q 423.258 417.087 423.371 419.116 Q 423.485 421.145 424.277 422.142 Q 425.070 423.139 425.160 423.139 "></path>
    <path id="STROKE_9cca7336-3e8a-4eb0-8a6d-252787c57cb1" opacity="1.000" fill="none" stroke="#0c32f2" stroke-width="0.664" stroke-opacity="1.000" stroke-linecap="round" stroke-linejoin="round" d="M 425.944 418.729 Q 425.648 418.859 428.598 417.599 Q 428.637 417.822 425.394 420.093 Q 425.381 419.824 425.472 419.601 Q 425.562 419.377 425.614 419.234 "></path>
    <path id="STROKE_2b07a7c7-8437-42ce-8e3d-ce1b394f577a" opacity="1.000" fill="none" stroke="#0c32f2" stroke-width="0.817" stroke-opacity="1.000" stroke-linecap="round" stroke-linejoin="round" d="M 426.749 416.295 Q 426.940 416.407 427.135 418.002 Q 427.330 419.597 427.536 420.558 Q 427.742 421.519 427.893 421.845 Q 428.045 422.170 428.721 422.338 Q 429.397 422.506 430.357 421.870 Q 431.317 421.234 431.870 420.027 "></path>
    <path id="STROKE_797a5fcd-8d0a-4de7-8cb0-114a1bee41b8" opacity="1.000" fill="none" stroke="#0c32f2" stroke-width="0.629" stroke-opacity="1.000" stroke-linecap="round" stroke-linejoin="round" d="M 423.686 419.651 Q 423.629 419.651 423.460 419.650 Q 424.084 419.649 424.074 419.616 Q 424.598 419.396 425.528 419.297 Q 426.459 419.197 426.549 419.198 "></path>
    <path id="STROKE_124d5854-0f30-4da0-86e8-8760df96e043" opacity="1.000" fill="none" stroke="#0c32f2" stroke-width="0.733" stroke-opacity="1.000" stroke-linecap="round" stroke-linejoin="round" d="M 425.016 422.809 Q 425.169 422.609 425.730 422.229 Q 426.291 421.850 427.076 421.400 Q 427.860 420.950 428.002 420.862 "></path>
    <path id="STROKE_bc6c333a-7773-4c6d-b87c-97b234109047" opacity="1.000" fill="none" stroke="#0c32f2" stroke-width="0.873" stroke-opacity="1.000" stroke-linecap="round" stroke-linejoin="round" d="M 440.178 408.755 Q 440.496 408.753 439.555 409.035 Q 438.614 409.318 438.184 411.629 Q 437.754 413.940 437.776 415.946 Q 437.799 417.952 438.278 419.769 Q 438.758 421.586 439.879 423.053 Q 441.000 424.520 441.810 425.053 Q 442.621 425.587 443.137 425.877 "></path>
    <path id="STROKE_bb040ad9-abf3-4fec-9c61-c9219a9847b6" opacity="1.000" fill="none" stroke="#0c32f2" stroke-width="0.450" stroke-opacity="1.000" stroke-linecap="round" stroke-linejoin="round" d="M 488.274 417.107 Q 488.783 417.067 486.457 421.147 "></path>
    <path id="STROKE_65e7b221-e071-4ed5-b35b-2dd6ee9e8288" opacity="1.000" fill="none" stroke="#0c32f2" stroke-width="0.636" stroke-opacity="1.000" stroke-linecap="round" stroke-linejoin="round" d="M 498.609 410.938 Q 498.961 411.123 498.227 410.851 Q 497.494 410.579 496.715 410.920 Q 495.936 411.261 495.515 412.003 Q 495.095 412.745 495.228 413.017 Q 495.361 413.288 495.638 413.398 Q 495.916 413.508 496.655 413.483 Q 497.395 413.457 497.913 413.577 Q 498.430 413.698 498.780 414.046 Q 499.131 414.394 499.071 414.389 Q 499.011 414.384 499.099 414.690 Q 499.187 414.995 499.058 415.486 Q 498.929 415.976 498.475 416.398 Q 498.021 416.819 497.566 417.017 Q 497.112 417.214 496.607 417.130 "></path>
    <path id="STROKE_1ed4ca3a-e49e-429d-acbe-57e717096bec" opacity="1.000" fill="none" stroke="#0c32f2" stroke-width="0.533" stroke-opacity="1.000" stroke-linecap="round" stroke-linejoin="round" d="M 502.186 406.446 Q 501.879 406.475 502.678 406.396 Q 503.476 406.318 504.166 406.842 Q 504.855 407.365 505.235 407.989 Q 505.615 408.613 505.898 410.115 Q 506.180 411.617 505.740 413.479 Q 505.299 415.342 504.766 416.335 Q 504.232 417.328 503.582 418.372 Q 502.932 419.416 501.842 420.433 Q 500.753 421.451 499.434 422.163 "></path>
    <path id="STROKE_48adcdb9-e2ea-4328-ae0c-b95f1f9ce4c0" opacity="1.000" fill="none" stroke="#0c32f2" stroke-width="0.588" stroke-opacity="1.000" stroke-linecap="round" stroke-linejoin="round" d="M 487.234 416.062 Q 487.678 416.170 487.718 416.809 Q 487.758 417.448 487.703 417.826 Q 487.648 418.204 487.478 418.496 Q 487.308 418.788 486.350 420.175 "></path>
    <path id="STROKE_fb4ed01c-f2ca-49f1-82cb-883383d8362b" opacity="1.000" fill="none" stroke="#0c32f2" stroke-width="0.463" stroke-opacity="1.000" stroke-linecap="round" stroke-linejoin="round" d="M 512.206 405.121 Q 512.156 405.133 507.946 412.327 Q 507.779 412.450 509.014 410.899 Q 510.249 409.348 512.284 407.806 Q 513.258 407.725 509.656 415.065 L 509.639 415.065 Q 509.365 414.870 511.711 413.467 Q 511.825 413.537 511.929 413.725 Q 512.033 413.913 512.059 414.007 Q 512.084 414.100 512.131 414.312 Q 512.178 414.525 512.622 418.601 Q 513.002 418.767 513.304 418.409 Q 513.606 418.051 513.731 417.887 "></path>
    <path id="STROKE_3c935e97-a6d2-495e-87cf-944a1ed4b3ba" opacity="1.000" fill="none" stroke="#0c32f2" stroke-width="0.524" stroke-opacity="1.000" stroke-linecap="round" stroke-linejoin="round" d="M 514.701 407.569 Q 514.700 407.745 514.687 409.612 Q 514.765 409.908 514.661 408.844 Q 514.557 407.779 515.046 407.071 Q 515.535 406.363 516.001 405.947 Q 516.467 405.530 518.240 405.466 Q 518.605 406.382 518.197 407.388 Q 517.789 408.393 517.206 409.004 Q 516.623 409.614 516.076 409.851 Q 515.529 410.088 515.130 409.978 Q 515.106 409.293 515.117 409.370 Q 515.099 408.151 518.322 406.732 Q 519.401 407.136 515.353 411.161 Q 515.154 410.816 518.641 408.676 Q 519.321 410.072 515.338 413.280 Q 516.231 412.994 518.936 410.789 "></path>
    <path id="STROKE_20fd6ae5-a9ed-4d29-8938-ae74d1559bb2" opacity="1.000" fill="none" stroke="#0c32f2" stroke-width="0.827" stroke-opacity="1.000" stroke-linecap="round" stroke-linejoin="round" d="M 517.924 412.183 Q 517.969 411.284 517.608 416.537 Q 517.605 416.730 517.108 416.671 Q 516.611 416.611 516.331 416.350 Q 516.051 416.088 516.089 416.126 Q 516.126 416.165 516.097 416.122 Q 516.067 416.080 516.102 416.186 Q 516.137 416.291 515.897 415.647 Q 515.889 415.627 516.834 415.223 "></path>
    <path id="STROKE_f8ea4e41-ab80-4711-92f1-2e88af434abc" opacity="1.000" fill="none" stroke="#0c32f2" stroke-width="0.955" stroke-opacity="1.000" stroke-linecap="round" stroke-linejoin="round" d="M 521.962 407.947 Q 521.884 407.832 522.268 409.195 Q 522.652 410.559 523.156 411.583 Q 523.661 412.607 524.304 412.675 Q 524.947 412.743 525.369 412.506 Q 525.790 412.268 526.179 411.848 Q 526.567 411.427 527.271 410.209 Q 527.974 408.991 528.600 407.131 L 528.623 407.131 Q 528.417 407.044 528.945 414.478 Q 528.984 414.478 529.019 414.381 Q 529.053 414.284 529.071 414.158 "></path>
    <path id="STROKE_44004ef7-c40b-43bb-ae19-2a4fce811f04" opacity="1.000" fill="none" stroke="#0c32f2" stroke-width="0.659" stroke-opacity="1.000" stroke-linecap="round" stroke-linejoin="round" d="M 526.686 407.076 Q 526.715 408.241 524.884 417.177 Q 524.844 417.177 524.828 417.177 "></path>
    <path id="STROKE_cab29863-fba9-49b8-9f1e-ca7b566e4593" opacity="1.000" fill="none" stroke="#0c32f2" stroke-width="0.868" stroke-opacity="1.000" stroke-linecap="round" stroke-linejoin="round" d="M 521.978 415.655 Q 522.121 415.801 521.956 416.329 Q 521.791 416.858 522.262 417.491 Q 522.732 418.123 523.935 418.279 Q 525.138 418.435 526.588 418.038 Q 528.038 417.642 531.783 414.497 Q 531.796 413.887 531.632 416.826 "></path>
    <path id="STROKE_0b2518e3-44a8-4f12-b3a8-3ca566ccd5d3" opacity="1.000" fill="none" stroke="#0c32f2" stroke-width="0.628" stroke-opacity="1.000" stroke-linecap="round" stroke-linejoin="round" d="M 516.959 411.712 Q 517.055 411.561 516.719 412.046 Q 516.382 412.531 516.352 412.983 Q 516.321 413.435 516.552 413.527 Q 516.783 413.619 516.884 413.706 Q 516.986 413.792 518.248 413.751 Q 519.510 413.710 520.596 412.995 Q 521.682 412.279 522.210 411.819 Q 522.738 411.358 522.897 411.055 Q 523.055 410.752 523.075 410.547 Q 523.095 410.342 523.139 410.237 Q 523.182 410.132 522.975 409.706 Q 522.767 409.280 521.899 408.594 Q 521.031 407.908 520.078 407.686 Q 519.124 407.463 518.288 407.385 Q 517.453 407.307 516.720 408.292 Q 515.986 409.276 515.536 410.545 Q 515.085 411.814 515.135 412.826 Q 515.185 413.839 515.296 414.406 Q 515.408 414.973 516.224 415.449 Q 517.040 415.925 518.360 416.111 Q 519.680 416.297 521.115 415.823 Q 522.550 415.349 523.675 414.522 Q 524.800 413.695 525.695 412.830 Q 526.589 411.965 527.034 410.826 Q 527.479 409.687 527.002 408.198 Q 526.525 406.709 525.535 405.658 Q 524.546 404.607 523.870 404.053 Q 523.194 403.498 522.130 403.271 Q 521.065 403.044 520.162 402.996 Q 519.259 402.948 517.923 404.218 Q 516.586 405.488 515.643 406.933 Q 514.699 408.378 514.073 410.120 Q 513.446 411.863 513.359 413.053 Q 513.272 414.243 513.400 414.807 Q 513.528 415.371 513.939 415.782 Q 514.350 416.192 514.874 416.486 Q 515.397 416.780 516.658 416.964 Q 517.919 417.147 519.430 417.122 Q 520.940 417.097 522.817 416.368 Q 524.695 415.640 526.069 414.509 Q 527.444 413.379 528.191 412.664 Q 528.938 411.949 529.268 410.933 Q 529.598 409.916 529.590 408.692 Q 529.582 407.467 528.582 406.080 Q 527.582 404.693 526.583 403.900 Q 525.584 403.107 524.325 402.783 Q 523.066 402.458 521.833 402.436 Q 520.600 402.413 519.419 403.182 Q 518.239 403.951 517.089 405.144 Q 515.940 406.337 514.625 408.413 Q 513.310 410.489 512.569 412.079 Q 511.827 413.668 511.647 414.830 Q 511.468 415.991 511.429 416.831 Q 511.391 417.671 511.871 418.451 Q 512.350 419.231 514.043 419.640 Q 515.737 420.049 517.402 420.152 Q 519.068 420.256 521.310 419.301 Q 523.553 418.346 524.975 417.559 Q 526.397 416.771 528.026 415.546 Q 529.656 414.321 530.715 413.273 Q 531.773 412.227 532.350 410.867 Q 532.926 409.508 532.957 408.231 Q 532.988 406.953 532.162 405.478 Q 531.336 404.002 530.240 402.883 Q 529.143 401.764 527.818 401.195 Q 526.494 400.626 525.154 400.562 Q 523.814 400.499 522.377 400.730 Q 520.939 400.962 518.848 402.607 Q 516.757 404.251 515.736 405.381 Q 514.716 406.511 514.112 407.288 Q 513.507 408.064 512.671 409.435 Q 511.835 410.806 511.539 411.856 Q 511.244 412.907 511.257 413.691 Q 511.270 414.475 512.456 415.195 Q 513.642 415.916 516.321 416.224 "></path>
    <path id="STROKE_2db3b48d-4358-4e29-8686-d41ad49e83ab" opacity="1.000" fill="none" stroke="#0c32f2" stroke-width="0.751" stroke-opacity="1.000" stroke-linecap="round" stroke-linejoin="round" d="M 483.895 435.329 Q 484.159 436.033 485.060 439.190 Q 485.960 442.347 486.124 446.187 Q 486.170 446.320 484.744 446.267 "></path>
    <path id="STROKE_cfabe185-c120-4bdb-b234-1ede359a4270" opacity="1.000" fill="none" stroke="#0c32f2" stroke-width="0.955" stroke-opacity="1.000" stroke-linecap="round" stroke-linejoin="round" d="M 482.506 444.133 Q 482.855 444.485 484.031 445.519 Q 485.207 446.553 485.832 446.821 Q 486.458 447.090 486.615 447.134 Q 486.772 447.177 486.967 447.052 Q 487.162 446.926 487.412 446.644 Q 487.662 446.362 487.615 446.309 Q 487.568 446.255 487.852 445.974 Q 488.135 445.694 489.960 437.657 "></path>
    <path id="STROKE_1cfd69ee-8e92-4596-8664-a1f1855b6cf4" opacity="1.000" fill="none" stroke="#0c32f2" stroke-width="0.517" stroke-opacity="1.000" stroke-linecap="round" stroke-linejoin="round" d="M 503.560 431.553 Q 503.583 431.336 502.833 433.162 Q 502.082 434.987 501.999 436.281 Q 501.915 437.575 502.129 438.199 Q 502.344 438.823 502.412 439.386 Q 502.481 439.949 502.305 440.522 Q 502.130 441.096 501.946 441.535 Q 501.761 441.975 501.549 442.505 Q 501.313 442.920 502.358 440.814 Q 503.404 438.707 504.619 437.496 Q 505.834 436.286 507.225 435.731 Q 508.034 436.096 507.483 437.917 Q 506.931 439.738 506.327 440.904 Q 505.723 442.070 505.077 442.424 Q 504.430 442.778 504.374 442.777 "></path>
    <path id="STROKE_64713105-afa2-496b-92c1-568d4fc80a93" opacity="1.000" fill="none" stroke="#0c32f2" stroke-width="0.765" stroke-opacity="1.000" stroke-linecap="round" stroke-linejoin="round" d="M 504.756 439.446 Q 504.743 439.586 505.145 440.007 Q 505.547 440.428 506.109 440.735 Q 506.671 441.043 507.015 440.996 Q 507.359 440.949 507.359 440.932 "></path>
    <path id="STROKE_595c8750-57d5-4f0c-97f1-2b537c2133fe" opacity="1.000" fill="none" stroke="#0c32f2" stroke-width="1.017" stroke-opacity="1.000" stroke-linecap="round" stroke-linejoin="round" d="M 496.989 434.050 Q 497.251 434.876 497.480 436.582 Q 497.709 438.289 498.306 439.759 Q 498.904 441.229 499.513 442.297 Q 500.121 443.365 501.150 443.513 Q 502.178 443.661 503.600 442.824 Q 505.021 441.987 506.333 440.826 Q 507.645 439.665 508.092 438.806 Q 508.539 437.947 508.631 437.682 "></path>
    <path id="STROKE_4a5b08da-3ded-401c-9013-d09227c119de" opacity="1.000" fill="none" stroke="#0c32f2" stroke-width="0.654" stroke-opacity="1.000" stroke-linecap="round" stroke-linejoin="round" d="M 509.222 435.213 Q 509.042 435.383 509.540 440.677 Q 509.613 440.694 509.737 440.678 Q 509.760 440.556 509.761 440.450 "></path>
    <path id="STROKE_8c75014c-0375-43d1-92b6-a33a031e7f41" opacity="1.000" fill="none" stroke="#0c32f2" stroke-width="0.798" stroke-opacity="1.000" stroke-linecap="round" stroke-linejoin="round" d="M 509.398 435.788 Q 509.146 435.439 509.845 434.291 Q 510.543 433.142 511.645 432.564 Q 512.747 431.985 513.403 431.891 Q 514.059 431.797 514.659 432.297 Q 515.260 432.797 515.439 434.388 Q 515.619 435.979 515.453 437.562 Q 515.286 439.144 514.085 440.437 "></path>
    <path id="STROKE_5da5940b-e163-4458-a65d-efba66739195" opacity="1.000" fill="none" stroke="#0c32f2" stroke-width="0.595" stroke-opacity="1.000" stroke-linecap="round" stroke-linejoin="round" d="M 511.472 435.515 Q 511.442 435.704 511.484 435.157 Q 511.525 434.610 513.520 434.039 Q 513.913 434.446 513.274 436.322 Q 512.635 438.199 511.054 439.091 Q 510.572 438.774 514.200 436.715 Q 514.538 437.325 513.857 438.595 Q 513.176 439.866 512.168 440.729 Q 511.160 441.593 509.528 441.630 Q 509.466 441.529 509.784 441.188 Q 510.102 440.847 511.809 440.099 Q 513.517 439.351 515.804 439.377 "></path>
    <path id="STROKE_ab20b430-8c00-471f-8a8c-0882cfb87fa9" opacity="1.000" fill="none" stroke="#0c32f2" stroke-width="0.694" stroke-opacity="1.000" stroke-linecap="round" stroke-linejoin="round" d="M 496.610 431.793 Q 496.706 431.753 498.549 431.535 Q 500.391 431.316 500.656 431.280 "></path>
    <path id="STROKE_3e16b242-f361-4fd4-a431-ac0124feda71" opacity="1.000" fill="none" stroke="#0c32f2" stroke-width="0.429" stroke-opacity="1.000" stroke-linecap="round" stroke-linejoin="round" d="M 496.279 434.078 Q 496.369 434.003 496.846 433.743 Q 497.323 433.482 498.373 433.384 Q 498.978 433.567 497.188 436.237 "></path>
    <path id="STROKE_27240245-96ca-4a88-88cc-353b235af14d" opacity="1.000" fill="none" stroke="#0c32f2" stroke-width="0.489" stroke-opacity="1.000" stroke-linecap="round" stroke-linejoin="round" d="M 473.278 459.991 Q 473.272 460.016 472.340 460.395 Q 472.340 460.433 472.340 460.449 Q 472.773 460.714 474.521 459.685 Q 476.269 458.657 477.527 458.146 Q 478.785 457.635 479.378 457.439 Q 479.971 457.243 480.698 457.005 Q 481.425 456.768 482.277 456.431 "></path>
    <path id="STROKE_3fbb2dac-3b61-4b7e-bc8e-02dafa95585b" opacity="1.000" fill="none" stroke="#0c32f2" stroke-width="0.392" stroke-opacity="1.000" stroke-linecap="round" stroke-linejoin="round" d="M 485.367 454.155 Q 485.520 454.027 487.606 453.209 Q 489.692 452.391 489.782 452.353 "></path>
    <path id="STROKE_5dd84a0c-492b-424f-ba14-fb0943601f27" opacity="1.000" fill="none" stroke="#0c32f2" stroke-width="0.767" stroke-opacity="1.000" stroke-linecap="round" stroke-linejoin="round" d="M 488.992 452.534 Q 488.874 452.627 487.833 453.104 Q 486.791 453.580 485.997 454.743 Q 485.202 455.905 485.227 457.329 Q 485.711 457.551 486.412 457.358 Q 487.114 457.165 487.597 456.734 Q 488.080 456.303 488.627 454.895 "></path>
    <path id="STROKE_fde6a5f3-8087-4a1e-9a6a-2e756ecf5119" opacity="1.000" fill="none" stroke="#0c32f2" stroke-width="0.641" stroke-opacity="1.000" stroke-linecap="round" stroke-linejoin="round" d="M 488.297 455.467 Q 488.465 455.786 488.925 456.080 Q 489.386 456.373 489.524 456.660 Q 489.663 456.947 489.697 456.934 Q 489.731 456.921 488.518 457.888 Q 487.305 458.855 486.369 459.530 Q 485.432 460.205 483.938 460.637 Q 483.953 460.831 484.833 460.064 Q 485.713 459.297 487.784 458.046 Q 486.863 458.203 487.119 458.219 Q 486.731 458.630 486.789 458.610 Q 486.586 459.188 485.666 463.224 Q 486.022 463.553 491.184 456.457 "></path>
    <path id="STROKE_01fbea82-efcc-442f-a4ad-36387edb7297" opacity="1.000" fill="none" stroke="#0c32f2" stroke-width="0.614" stroke-opacity="1.000" stroke-linecap="round" stroke-linejoin="round" d="M 492.077 452.732 Q 491.931 452.943 491.492 453.893 Q 491.052 454.842 490.109 457.235 Q 490.730 457.078 490.685 456.969 Q 490.982 456.467 493.545 454.641 Q 493.741 454.658 493.523 456.240 Q 493.306 457.823 492.438 459.279 Q 491.570 460.735 490.718 461.548 Q 489.866 462.361 488.730 462.227 Q 488.669 461.964 488.677 461.629 Q 488.686 461.294 488.687 461.100 "></path>
    <path id="STROKE_064bbef4-e464-4e20-90be-b0f01944ef32" opacity="1.000" fill="none" stroke="#0c32f2" stroke-width="1.099" stroke-opacity="1.000" stroke-linecap="round" stroke-linejoin="round" d="M 490.892 458.101 Q 491.241 458.114 492.282 459.162 Q 493.323 460.210 495.278 460.599 Q 497.233 460.988 499.538 460.093 "></path>
    <path id="STROKE_e31880e4-ea09-4eb5-a3ba-ee9d8f072c17" opacity="1.000" fill="none" stroke="#0c32f2" stroke-width="0.976" stroke-opacity="1.000" stroke-linecap="round" stroke-linejoin="round" d="M 492.488 344.283 Q 493.243 344.126 497.080 343.056 "></path>
    <path id="STROKE_2bd301b9-3fe8-414d-b611-18a873dd4094" opacity="1.000" fill="none" stroke="#0c32f2" stroke-width="0.828" stroke-opacity="1.000" stroke-linecap="round" stroke-linejoin="round" d="M 496.029 340.323 Q 495.992 340.615 495.491 343.117 Q 494.989 345.620 494.891 347.015 Q 494.793 348.411 494.790 348.959 Q 494.787 349.508 495.138 349.955 Q 495.489 350.403 496.425 350.214 Q 497.360 350.026 498.283 349.237 Q 499.206 348.448 499.512 348.163 "></path>
  </g>
</svg>