<?xml version="1.0" encoding="UTF-8" standalone="yes"?>
<svg xmlns="http://www.w3.org/2000/svg" xmlns:xlink="http://www.w3.org/1999/xlink" width="52.842mm" height="15.060mm" version="1.1" viewBox="742.477 55.399 274.609 78.266">
  <!--
	Exported with Concepts: Smarter Sketching
	Version: 1044 on iOS 15.1
	https://concepts.app/
	-->
  <title>咬文嚼字</title>
  <desc>Drawing exported from Concepts: Smarter Sketching</desc>
  <defs></defs>
  <g id="主体" opacity="1.000">
    <path id="STROKE_124606a1-1458-4bf0-8702-b4fa32a460c0" opacity="1.000" fill="none" stroke="#000000" stroke-width="0.973" stroke-opacity="1.000" stroke-linecap="round" stroke-linejoin="round" d="M 747.249 82.560 Q 747.141 82.597 746.786 82.743 Q 746.699 82.751 749.645 81.887 Q 752.590 81.023 754.267 80.457 Q 755.943 79.891 756.921 79.265 Q 757.898 78.638 757.910 78.014 "></path>
    <path id="STROKE_0f71f6f6-3cc4-4816-8fdc-f4fa797b8507" opacity="1.000" fill="none" stroke="#000000" stroke-width="0.544" stroke-opacity="1.000" stroke-linecap="round" stroke-linejoin="round" d="M 751.719 77.610 Q 751.455 77.542 751.253 79.010 Q 751.050 80.477 751.266 82.178 Q 751.941 82.330 751.873 82.254 Q 752.187 82.082 753.281 79.807 "></path>
    <path id="STROKE_8e934fe5-a322-4f2d-95e9-27b0829d094c" opacity="1.000" fill="none" stroke="#000000" stroke-width="0.599" stroke-opacity="1.000" stroke-linecap="round" stroke-linejoin="round" d="M 754.159 76.444 Q 754.260 75.667 754.259 75.799 Q 754.277 75.694 754.277 75.660 Q 754.584 75.192 752.659 81.845 "></path>
    <path id="STROKE_27853618-df9c-41b8-b199-0b997b5c735a" opacity="1.000" fill="none" stroke="#000000" stroke-width="0.615" stroke-opacity="1.000" stroke-linecap="round" stroke-linejoin="round" d="M 750.064 84.234 Q 749.882 84.529 749.476 86.306 Q 749.359 86.430 749.400 86.396 Q 749.440 86.363 749.713 86.079 Q 749.986 85.796 750.006 85.660 Q 750.026 85.524 750.035 85.556 Q 750.045 85.589 750.091 85.509 Q 750.138 85.429 750.269 84.457 Q 750.400 83.486 751.433 82.761 Q 752.467 82.037 753.473 81.855 Q 754.479 81.673 755.337 81.548 Q 756.195 81.423 756.701 81.750 Q 757.208 82.077 757.365 82.467 Q 757.522 82.857 757.517 83.203 Q 757.512 83.550 757.511 83.676 "></path>
    <path id="STROKE_2c0943de-24c4-4428-8a9b-468e53ecab13" opacity="1.000" fill="none" stroke="#000000" stroke-width="0.615" stroke-opacity="1.000" stroke-linecap="round" stroke-linejoin="round" d="M 749.974 87.601 Q 749.870 86.871 755.481 84.984 Q 755.852 84.604 754.971 86.153 Q 754.091 87.702 750.495 90.433 Q 750.584 90.108 751.482 89.260 Q 752.380 88.413 753.279 88.158 Q 754.178 87.904 754.689 87.968 Q 755.200 88.032 755.885 88.707 Q 756.570 89.381 756.989 91.836 Q 757.407 94.292 756.944 96.791 L 756.905 96.791 Q 756.880 96.690 756.899 94.980 Q 756.918 93.270 756.782 92.118 Q 756.646 90.967 756.226 90.190 Q 755.806 89.413 755.098 89.139 Q 754.391 88.866 751.027 95.096 Q 751.282 95.146 751.726 94.670 Q 752.170 94.195 753.568 93.113 Q 754.072 93.717 752.552 97.622 Q 752.864 97.653 759.419 88.062 Q 759.593 88.279 755.684 94.111 Q 755.934 94.232 757.213 93.866 Q 758.491 93.500 762.886 93.243 "></path>
    <circle id="STROKE_af3ad3a6-3503-40cc-aa88-363deae9614c" opacity="1.000" fill="#000000" stroke="#000000" stroke-width="0.1" stroke-opacity="1.000" fill-opacity="1.000" cx="771.520" cy="92.052" r="0.195"></circle>
    <path id="STROKE_1b54badc-bba4-4eb5-964f-09fae9a8e084" opacity="1.000" fill="none" stroke="#000000" stroke-width="0.406" stroke-opacity="1.000" stroke-linecap="round" stroke-linejoin="round" d="M 771.567 95.167 Q 771.168 95.188 772.038 95.138 Q 772.907 95.088 772.964 95.033 "></path>
    <path id="STROKE_51238891-5055-47f6-8277-0ce5f8424502" opacity="1.000" fill="none" stroke="#000000" stroke-width="0.546" stroke-opacity="1.000" stroke-linecap="round" stroke-linejoin="round" d="M 770.444 91.251 Q 770.039 91.135 772.773 91.588 "></path>
    <path id="STROKE_78f634c8-3dfd-4199-83d0-d57ddeb28025" opacity="1.000" fill="none" stroke="#000000" stroke-width="0.728" stroke-opacity="1.000" stroke-linecap="round" stroke-linejoin="round" d="M 770.562 95.557 Q 770.505 95.591 770.414 95.717 Q 770.026 96.069 772.964 95.000 "></path>
    <path id="STROKE_994fc6b1-a748-490e-a365-8ea8078b0637" opacity="1.000" fill="none" stroke="#000000" stroke-width="0.393" stroke-opacity="1.000" stroke-linecap="round" stroke-linejoin="round" d="M 800.381 77.187 Q 801.132 77.455 802.002 77.956 Q 802.873 78.457 802.940 78.529 "></path>
    <path id="STROKE_a8ed0e51-8581-4cb4-9e49-8ff79f2975d4" opacity="1.000" fill="none" stroke="#000000" stroke-width="0.680" stroke-opacity="1.000" stroke-linecap="round" stroke-linejoin="round" d="M 798.384 81.192 Q 797.997 81.113 800.107 79.972 Q 802.217 78.832 805.146 78.633 Q 805.769 79.720 804.041 82.078 Q 802.313 84.436 799.241 85.958 Q 799.209 85.748 800.530 84.738 Q 801.851 83.728 802.719 83.153 Q 803.587 82.578 804.086 82.400 Q 804.584 82.222 804.920 82.198 "></path>
    <path id="STROKE_05404404-3a47-471d-9e0b-b27e35e7aa5b" opacity="1.000" fill="none" stroke="#000000" stroke-width="0.837" stroke-opacity="1.000" stroke-linecap="round" stroke-linejoin="round" d="M 800.846 81.816 Q 801.023 82.772 797.161 94.623 L 797.144 94.622 "></path>
    <path id="STROKE_52211f72-41a3-478f-8a19-f88ae6b6d2be" opacity="1.000" fill="none" stroke="#000000" stroke-width="0.591" stroke-opacity="1.000" stroke-linecap="round" stroke-linejoin="round" d="M 801.234 87.627 Q 801.099 87.788 801.536 90.183 Q 801.974 92.578 803.156 94.916 "></path>
    <path id="STROKE_47516b3b-a68f-4dc1-b69f-7c272a7cef48" opacity="1.000" fill="none" stroke="#000000" stroke-width="0.756" stroke-opacity="1.000" stroke-linecap="round" stroke-linejoin="round" d="M 802.862 90.069 Q 802.908 89.746 802.889 89.800 Q 802.871 89.854 802.817 89.816 Q 802.764 89.779 803.687 88.953 Q 804.610 88.128 806.531 87.962 Q 806.695 88.176 806.817 88.977 Q 806.939 89.779 806.345 91.420 Q 805.751 93.061 803.374 94.268 Q 803.161 94.670 808.977 91.731 "></path>
    <path id="STROKE_b4b19625-1593-4866-9567-05ebc44cffe4" opacity="1.000" fill="none" stroke="#000000" stroke-width="0.838" stroke-opacity="1.000" stroke-linecap="round" stroke-linejoin="round" d="M 801.038 75.072 Q 801.040 75.114 800.714 74.640 Q 800.859 74.522 801.681 76.861 Q 802.504 79.200 803.213 80.358 Q 803.922 81.516 803.956 81.516 "></path>
    <path id="STROKE_498103a2-24fb-466d-a81d-bce128755b19" opacity="1.000" fill="none" stroke="#000000" stroke-width="0.699" stroke-opacity="1.000" stroke-linecap="round" stroke-linejoin="round" d="M 800.095 81.271 Q 800.013 81.348 800.047 80.789 Q 800.956 80.560 799.726 89.195 "></path>
    <path id="STROKE_09b62ce8-4cc2-48b6-858b-c6ab9290b047" opacity="1.000" fill="none" stroke="#000000" stroke-width="0.489" stroke-opacity="1.000" stroke-linecap="round" stroke-linejoin="round" d="M 816.218 78.298 Q 816.380 78.677 818.053 78.155 Q 819.726 77.632 820.784 77.158 Q 821.841 76.683 822.641 76.079 "></path>
    <path id="STROKE_f1568c17-74c1-479e-b672-dbf8884ed1ad" opacity="1.000" fill="none" stroke="#000000" stroke-width="0.488" stroke-opacity="1.000" stroke-linecap="round" stroke-linejoin="round" d="M 818.260 77.738 Q 818.160 78.075 818.177 78.618 Q 818.195 79.161 818.325 79.492 Q 818.455 79.824 818.785 79.926 Q 819.115 80.028 819.937 79.289 Q 820.758 78.550 821.584 77.137 Q 822.411 75.725 822.609 74.078 Q 822.289 74.146 819.206 81.146 "></path>
    <path id="STROKE_80205279-ea92-4e89-b461-28f4ee1a7d7a" opacity="1.000" fill="none" stroke="#000000" stroke-width="0.562" stroke-opacity="1.000" stroke-linecap="round" stroke-linejoin="round" d="M 816.195 81.776 Q 815.750 82.111 815.317 84.995 Q 815.300 84.904 815.398 85.103 Q 815.495 85.302 816.206 84.257 Q 816.916 83.213 817.788 81.913 Q 818.660 80.613 819.689 79.987 Q 820.719 79.361 821.396 79.161 Q 822.074 78.962 822.615 78.906 Q 823.156 78.851 823.454 78.863 Q 823.752 78.875 823.966 79.043 Q 824.179 79.211 824.335 79.737 Q 824.490 80.263 824.300 80.959 Q 824.110 81.654 823.587 82.410 Q 823.064 83.165 822.473 83.744 Q 821.882 84.322 821.167 84.851 Q 820.453 85.380 818.048 85.009 Q 818.045 85.026 818.031 84.654 Q 818.017 84.281 818.080 84.362 Q 818.143 84.444 818.165 84.267 Q 818.187 84.091 819.118 83.655 Q 820.049 83.219 821.180 83.101 Q 821.688 83.523 819.280 85.131 Q 819.658 84.937 820.358 84.800 Q 821.058 84.662 821.869 85.098 Q 822.680 85.534 822.985 86.600 Q 823.291 87.667 823.323 88.383 Q 823.356 89.099 823.370 89.633 Q 823.384 90.168 823.320 90.724 Q 823.256 91.280 822.455 91.923 Q 822.231 91.581 822.347 90.299 Q 822.463 89.017 822.381 88.196 Q 822.300 87.374 822.120 87.055 Q 821.941 86.736 821.718 86.482 Q 821.494 86.228 821.282 86.051 Q 821.070 85.874 820.504 86.260 Q 819.937 86.646 819.392 87.426 Q 818.846 88.206 818.579 88.959 Q 818.615 88.856 819.673 88.696 Q 819.641 87.952 819.932 90.370 Q 820.105 89.679 820.054 89.868 Q 820.071 89.813 820.071 89.721 Q 820.071 89.742 820.071 89.830 Q 820.096 89.819 820.123 89.858 Q 820.151 89.897 820.727 89.438 "></path>
    <path id="STROKE_4df821b7-ce4e-4364-a791-728357f237e4" opacity="1.000" fill="none" stroke="#000000" stroke-width="0.393" stroke-opacity="1.000" stroke-linecap="round" stroke-linejoin="round" d="M 823.274 87.345 Q 822.896 87.671 822.946 87.735 Q 822.996 87.798 822.979 87.767 Q 822.963 87.736 822.968 87.752 Q 823.165 87.644 823.273 87.556 "></path>
    <path id="STROKE_6f037afe-8ac8-4013-abea-7ed75364f2b7" opacity="1.000" fill="none" stroke="#000000" stroke-width="0.857" stroke-opacity="1.000" stroke-linecap="round" stroke-linejoin="round" d="M 823.240 87.412 Q 822.793 87.526 820.017 92.734 Q 820.034 92.734 820.882 91.448 "></path>
    <path id="STROKE_32827b8b-05da-43ef-b57d-a4c39827317d" opacity="1.000" fill="none" stroke="#000000" stroke-width="1.240" stroke-opacity="1.000" stroke-linecap="round" stroke-linejoin="round" d="M 827.095 83.530 Q 826.417 84.145 824.388 87.597 Q 824.720 87.415 831.605 87.755 "></path>
    <path id="STROKE_ed2d2ca6-4ed5-4dee-bd48-3bb27e02b455" opacity="1.000" fill="none" stroke="#000000" stroke-width="0.637" stroke-opacity="1.000" stroke-linecap="round" stroke-linejoin="round" d="M 819.093 76.241 Q 819.154 76.509 819.028 80.824 "></path>
    <path id="STROKE_347594a4-018a-4909-98c8-d28f5d1dc5d2" opacity="1.000" fill="none" stroke="#000000" stroke-width="0.398" stroke-opacity="1.000" stroke-linecap="round" stroke-linejoin="round" d="M 818.544 77.487 Q 818.072 77.508 819.517 77.336 Q 820.961 77.165 821.159 77.150 "></path>
    <path id="STROKE_a72fea06-e242-44b0-8565-82fce92f87c4" opacity="1.000" fill="none" stroke="#000000" stroke-width="0.531" stroke-opacity="1.000" stroke-linecap="round" stroke-linejoin="round" d="M 816.680 83.316 Q 816.507 82.877 816.738 84.577 Q 816.970 86.277 817.020 86.332 "></path>
    <path id="STROKE_95c081e9-98b3-44a6-809c-5cd1fef54cbf" opacity="1.000" fill="none" stroke="#000000" stroke-width="0.526" stroke-opacity="1.000" stroke-linecap="round" stroke-linejoin="round" d="M 818.017 82.075 Q 818.030 81.799 819.539 81.122 Q 821.048 80.445 822.059 80.347 Q 823.070 80.248 823.624 80.382 Q 824.178 80.516 824.269 80.600 Q 824.361 80.684 824.845 81.288 Q 825.330 81.891 824.523 82.826 Q 823.715 83.760 823.625 83.793 "></path>
    <path id="STROKE_e82e61f4-f750-436c-8ca9-4a13685b716d" opacity="1.000" fill="none" stroke="#000000" stroke-width="0.751" stroke-opacity="1.000" stroke-linecap="round" stroke-linejoin="round" d="M 921.724 61.384 Q 922.502 61.462 923.499 61.726 Q 924.495 61.989 924.546 62.078 "></path>
    <path id="STROKE_7cdf903c-0797-4a17-bf27-ce1935ead2fb" opacity="1.000" fill="none" stroke="#000000" stroke-width="0.485" stroke-opacity="1.000" stroke-linecap="round" stroke-linejoin="round" d="M 921.203 65.069 Q 921.164 65.069 921.091 65.068 Q 921.550 65.167 922.693 64.910 Q 923.836 64.654 925.267 64.506 Q 925.380 65.094 925.360 65.029 Q 925.340 64.963 925.345 65.350 "></path>
    <path id="STROKE_ea2e0016-e288-4c93-afe2-0ba8d3c49e77" opacity="1.000" fill="none" stroke="#000000" stroke-width="0.604" stroke-opacity="1.000" stroke-linecap="round" stroke-linejoin="round" d="M 922.468 67.948 Q 922.489 67.979 920.885 68.777 Q 920.885 68.798 920.885 68.832 Q 921.229 69.330 923.235 68.431 Q 925.241 67.532 925.331 67.461 "></path>
    <path id="STROKE_5f459a96-db14-4d72-ac01-742d1536c36e" opacity="1.000" fill="none" stroke="#000000" stroke-width="0.554" stroke-opacity="1.000" stroke-linecap="round" stroke-linejoin="round" d="M 923.655 67.162 Q 923.767 67.501 923.572 69.627 Q 923.377 71.753 923.342 71.862 "></path>
    <path id="STROKE_768700b9-3d8a-42c7-876e-93ef39413b67" opacity="1.000" fill="none" stroke="#000000" stroke-width="0.725" stroke-opacity="1.000" stroke-linecap="round" stroke-linejoin="round" d="M 920.546 72.375 Q 920.489 72.396 920.332 72.416 Q 920.809 72.492 922.274 71.929 Q 923.739 71.366 925.447 71.238 Q 927.154 71.110 928.889 70.929 "></path>
    <path id="STROKE_f2c95eea-822c-4515-b593-12f4311d06fc" opacity="1.000" fill="none" stroke="#000000" stroke-width="0.497" stroke-opacity="1.000" stroke-linecap="round" stroke-linejoin="round" d="M 932.153 59.445 Q 932.316 59.807 928.308 66.949 Q 928.033 66.117 930.387 64.203 Q 930.809 64.906 930.898 75.265 L 930.965 75.282 "></path>
    <path id="STROKE_9fad880b-8aca-4d96-8ef0-b8028b8f5fe7" opacity="1.000" fill="none" stroke="#000000" stroke-width="0.676" stroke-opacity="1.000" stroke-linecap="round" stroke-linejoin="round" d="M 931.950 67.835 Q 932.726 67.349 937.225 65.574 "></path>
    <path id="STROKE_3a4a3a00-4998-4433-8bdd-beb0be907895" opacity="1.000" fill="none" stroke="#000000" stroke-width="0.740" stroke-opacity="1.000" stroke-linecap="round" stroke-linejoin="round" d="M 935.882 62.627 Q 935.762 62.412 935.849 68.066 Q 935.936 73.720 935.953 73.737 "></path>
    <path id="STROKE_a4d56736-7d4c-4b39-8a37-166dfc677539" opacity="1.000" fill="none" stroke="#000000" stroke-width="0.475" stroke-opacity="1.000" stroke-linecap="round" stroke-linejoin="round" d="M 934.918 68.674 Q 934.499 69.001 932.128 73.171 Q 932.195 73.143 932.984 71.785 Q 933.772 70.426 934.391 69.800 Q 935.010 69.174 935.843 69.064 Q 936.676 68.954 936.902 68.953 Q 937.127 68.953 937.754 69.300 Q 938.380 69.648 938.490 70.506 Q 938.599 71.365 938.273 71.669 Q 937.947 71.974 937.823 72.028 "></path>
    <path id="STROKE_1d6caf2c-2e60-4ab8-8f34-fd9f086d38fc" opacity="1.000" fill="none" stroke="#000000" stroke-width="0.853" stroke-opacity="1.000" stroke-linecap="round" stroke-linejoin="round" d="M 934.102 72.653 Q 934.029 72.652 933.855 72.651 Q 934.178 72.594 936.683 72.155 Q 939.188 71.716 939.401 71.718 "></path>
    <path id="STROKE_832ef714-b019-4fd3-901b-74a8cb64acce" opacity="1.000" fill="none" stroke="#000000" stroke-width="0.424" stroke-opacity="1.000" stroke-linecap="round" stroke-linejoin="round" d="M 943.836 72.102 Q 943.893 72.086 944.239 72.390 Q 944.585 72.693 944.751 73.256 "></path>
    <path id="STROKE_02bd4420-1159-4749-8840-26cb1cc85f9c" opacity="1.000" fill="none" stroke="#000000" stroke-width="0.943" stroke-opacity="1.000" stroke-linecap="round" stroke-linejoin="round" d="M 943.569 74.937 Q 943.482 74.976 942.990 75.557 Q 942.960 75.581 943.609 75.582 Q 944.257 75.583 944.420 75.584 "></path>
    <path id="STROKE_c881433f-4229-4de1-98c2-82fc3364f30d" opacity="1.000" fill="none" stroke="#000000" stroke-width="0.391" stroke-opacity="1.000" stroke-linecap="round" stroke-linejoin="round" d="M 944.262 72.392 Q 944.299 72.456 945.323 72.710 Q 946.347 72.963 946.544 72.981 "></path>
    <path id="STROKE_4e8e0990-54d3-4281-b167-73dec15a7464" opacity="1.000" fill="none" stroke="#000000" stroke-width="0.453" stroke-opacity="1.000" stroke-linecap="round" stroke-linejoin="round" d="M 959.349 62.853 Q 959.807 63.102 960.274 64.261 "></path>
    <path id="STROKE_d84428c3-ccee-4cc6-be36-9f0c74a2169d" opacity="1.000" fill="none" stroke="#000000" stroke-width="0.486" stroke-opacity="1.000" stroke-linecap="round" stroke-linejoin="round" d="M 958.107 66.644 Q 958.456 66.654 959.641 65.817 Q 960.826 64.980 961.483 63.803 Q 962.141 62.627 963.350 61.411 Q 963.976 60.718 962.054 65.775 Q 961.711 65.438 964.786 63.109 Q 965.067 63.768 964.978 63.786 Q 965.263 64.596 964.477 67.261 Q 964.311 67.100 964.216 66.437 Q 964.121 65.774 963.878 65.393 Q 963.635 65.013 963.673 65.084 Q 963.712 65.155 963.473 65.056 Q 963.234 64.956 962.999 65.057 Q 962.765 65.158 962.538 65.439 Q 962.310 65.721 962.059 66.041 Q 961.809 66.362 960.960 67.634 Q 961.589 67.628 961.575 67.583 Q 962.154 67.322 962.725 66.964 Q 963.297 66.605 964.728 66.709 Q 964.791 66.553 964.864 67.210 Q 964.938 67.867 964.559 68.173 Q 964.181 68.478 964.040 68.549 "></path>
    <path id="STROKE_dd318e51-47d9-4244-af95-27031866bcd7" opacity="1.000" fill="none" stroke="#000000" stroke-width="0.647" stroke-opacity="1.000" stroke-linecap="round" stroke-linejoin="round" d="M 959.815 68.875 Q 959.773 68.811 959.518 69.595 Q 959.262 70.379 959.009 71.487 Q 959.223 71.667 959.765 70.742 Q 960.306 69.817 960.839 69.325 Q 961.372 68.833 961.590 68.692 Q 961.808 68.552 961.910 68.497 Q 962.013 68.442 962.399 68.546 Q 962.785 68.651 962.913 68.885 Q 963.041 69.118 963.286 69.386 Q 963.532 69.655 963.632 73.097 Q 963.559 73.096 963.502 73.096 "></path>
    <path id="STROKE_158eecd9-e709-4c9e-9316-c0205d582cfd" opacity="1.000" fill="none" stroke="#000000" stroke-width="0.735" stroke-opacity="1.000" stroke-linecap="round" stroke-linejoin="round" d="M 962.021 70.722 Q 962.032 70.622 961.550 70.723 Q 961.069 70.824 959.421 73.828 Q 959.603 73.876 960.211 73.447 Q 960.820 73.018 961.746 72.723 Q 962.673 72.428 963.602 72.941 Q 964.531 73.454 965.624 73.754 Q 966.717 74.054 966.863 74.055 "></path>
    <path id="STROKE_f4761e19-800e-4dc7-aadd-1270055add6b" opacity="1.000" fill="none" stroke="#000000" stroke-width="0.557" stroke-opacity="1.000" stroke-linecap="round" stroke-linejoin="round" d="M 970.679 64.289 Q 970.927 64.804 970.872 64.830 Q 971.317 65.574 970.124 68.016 Q 970.636 68.049 970.625 68.091 Q 971.792 68.563 971.916 70.759 Q 972.040 72.955 970.618 75.870 L 970.601 75.870 Q 970.619 75.727 971.217 74.617 "></path>
    <path id="STROKE_3d6fc69b-726e-48bb-bd6b-f2c352e61458" opacity="1.000" fill="none" stroke="#000000" stroke-width="0.833" stroke-opacity="1.000" stroke-linecap="round" stroke-linejoin="round" d="M 972.967 65.596 Q 973.134 65.448 974.902 64.446 Q 976.671 63.443 979.065 63.062 "></path>
    <path id="STROKE_45f7dcab-8c47-4dfb-a121-73f414c18f18" opacity="1.000" fill="none" stroke="#000000" stroke-width="0.870" stroke-opacity="1.000" stroke-linecap="round" stroke-linejoin="round" d="M 975.568 65.757 Q 975.391 66.160 973.289 76.319 Q 973.306 76.319 973.502 76.124 Q 973.697 75.929 973.822 75.715 "></path>
    <path id="STROKE_e24d435c-b0cd-4459-b768-8f76047751e7" opacity="1.000" fill="none" stroke="#000000" stroke-width="0.673" stroke-opacity="1.000" stroke-linecap="round" stroke-linejoin="round" d="M 977.936 65.275 Q 977.896 65.340 975.302 68.414 Q 975.366 67.623 975.362 67.891 Q 975.419 67.803 975.667 67.699 Q 975.798 67.555 975.807 71.085 Q 975.799 71.177 976.160 71.050 Q 976.521 70.923 978.116 67.749 Q 978.216 67.689 978.228 67.920 Q 978.239 68.152 978.236 68.925 Q 978.233 69.698 978.227 70.477 Q 978.227 70.456 978.229 70.257 Q 977.751 70.995 977.881 70.939 Q 977.622 71.609 977.010 75.559 Q 976.940 75.525 977.045 75.586 Q 977.150 75.647 976.945 75.548 Q 976.739 75.449 976.190 75.112 Q 975.641 74.775 975.783 74.846 Q 975.924 74.916 975.601 74.617 Q 975.278 74.318 975.386 74.444 Q 975.493 74.570 975.268 74.253 Q 975.043 73.936 975.663 73.223 Q 976.283 72.510 977.014 72.214 Q 977.746 71.918 978.728 71.898 Q 979.710 71.878 980.701 74.394 "></path>
    <path id="STROKE_af75566c-a759-42b8-be60-25a70292f9bd" opacity="1.000" fill="none" stroke="#000000" stroke-width="0.733" stroke-opacity="1.000" stroke-linecap="round" stroke-linejoin="round" d="M 977.546 69.611 Q 977.523 69.546 977.492 69.272 Q 977.461 68.998 977.486 68.999 Q 977.510 68.999 977.495 69.006 Q 977.480 69.013 977.561 68.752 Q 977.641 68.491 979.402 68.189 Q 979.735 68.359 979.533 69.789 Q 979.331 71.219 979.257 71.379 "></path>
    <path id="STROKE_fe868836-c7a4-4956-a3cd-758766c0b8c2" opacity="1.000" fill="none" stroke="#000000" stroke-width="0.466" stroke-opacity="1.000" stroke-linecap="round" stroke-linejoin="round" d="M 923.599 65.482 Q 923.523 65.944 923.268 67.790 Q 923.014 69.636 923.030 69.708 "></path>
    <path id="STROKE_425689fd-0a1f-4299-ba3d-caa710d9bf8b" opacity="1.000" fill="none" stroke="#000000" stroke-width="0.619" stroke-opacity="1.000" stroke-linecap="round" stroke-linejoin="round" d="M 1000.471 59.973 Q 1000.307 60.346 1001.116 71.307 Q 1001.354 71.284 1000.707 69.763 Q 1000.059 68.242 999.289 67.459 Q 998.519 66.676 997.943 66.213 Q 997.367 65.751 996.260 65.496 Q 995.154 65.240 992.991 67.115 Q 993.178 67.272 993.993 67.055 Q 994.807 66.838 996.697 65.860 Q 998.586 64.882 1000.118 64.217 Q 1001.651 63.553 1002.994 63.326 Q 1004.338 63.100 1005.454 63.446 Q 1006.571 63.793 1008.071 66.090 Q 1007.964 65.997 1007.880 65.924 Q 1008.071 66.090 1008.155 66.162 "></path>
    <path id="STROKE_3a9a6c2c-9827-4b42-b2e5-681fbb43c8ff" opacity="1.000" fill="none" stroke="#000000" stroke-width="0.497" stroke-opacity="1.000" stroke-linecap="round" stroke-linejoin="round" d="M 953.087 67.901 Q 953.041 67.882 952.494 67.837 Q 951.947 67.792 951.427 68.347 Q 950.906 68.902 950.574 70.064 Q 950.242 71.225 950.075 72.349 Q 949.908 73.472 950.314 75.767 Q 950.721 78.061 951.182 79.280 Q 951.644 80.500 951.654 81.608 Q 951.665 82.716 951.735 83.167 Q 951.805 83.617 951.172 84.821 Q 950.538 86.025 949.142 86.767 Q 949.581 86.858 949.574 86.850 Q 949.567 86.842 950.035 87.098 Q 950.504 87.353 950.515 87.396 Q 950.527 87.439 950.592 87.511 Q 950.657 87.582 951.027 87.924 Q 951.398 88.265 952.065 89.997 Q 952.731 91.730 952.678 95.653 Q 952.626 99.576 952.579 101.563 Q 952.531 103.550 952.609 104.654 Q 952.687 105.758 952.904 106.313 Q 953.121 106.867 953.962 107.747 Q 954.803 108.627 955.399 108.745 "></path>
    <path id="STROKE_6fc1c71a-38ee-4ca4-a262-38a583bca938" opacity="1.000" fill="none" stroke="#000000" stroke-width="0.438" stroke-opacity="1.000" stroke-linecap="round" stroke-linejoin="round" d="M 965.179 89.991 Q 965.431 89.938 970.450 88.203 "></path>
    <path id="STROKE_b58ed581-844b-4009-92cb-e5f07b23602f" opacity="1.000" fill="none" stroke="#000000" stroke-width="0.610" stroke-opacity="1.000" stroke-linecap="round" stroke-linejoin="round" d="M 965.178 90.134 Q 965.066 90.287 965.198 93.176 Q 965.329 96.065 965.323 98.261 Q 965.316 100.457 964.376 102.175 Q 964.342 102.323 964.450 101.327 Q 964.557 100.332 964.650 99.957 "></path>
    <path id="STROKE_01be7b8b-9ca3-4d00-b44f-fd0aeb5b4ba9" opacity="1.000" fill="none" stroke="#000000" stroke-width="0.547" stroke-opacity="1.000" stroke-linecap="round" stroke-linejoin="round" d="M 969.435 90.129 Q 969.352 90.265 967.141 93.701 Q 967.117 93.076 967.129 93.072 Q 967.130 92.838 967.143 91.051 Q 967.229 90.922 967.144 92.305 Q 967.059 93.687 967.128 94.450 Q 967.197 95.212 967.297 95.678 Q 967.396 96.144 968.463 96.488 Q 968.811 95.592 968.698 95.772 Q 968.897 95.146 968.715 94.644 Q 968.534 94.142 968.560 93.774 Q 968.586 93.406 968.689 93.277 Q 968.793 93.147 969.047 93.001 Q 969.300 92.855 969.362 92.806 Q 969.425 92.758 969.419 92.783 Q 969.414 92.808 969.391 92.727 Q 969.369 92.646 970.833 92.325 Q 970.971 93.272 970.912 93.115 Q 970.905 93.182 970.900 94.120 Q 970.895 95.058 969.559 95.904 Q 969.422 95.050 969.454 94.879 Q 969.487 94.708 969.467 94.711 Q 969.446 94.714 969.533 93.878 L 969.573 93.861 Q 969.693 93.576 970.545 100.858 Q 971.209 100.838 966.695 98.877 Q 967.134 98.345 968.470 97.535 Q 969.806 96.724 970.741 96.385 Q 971.676 96.046 972.370 95.982 Q 973.064 95.918 973.162 95.906 Q 973.259 95.895 973.358 96.043 Q 973.457 96.192 973.582 96.416 Q 973.708 96.640 973.664 96.819 Q 973.621 96.997 973.667 97.566 Q 973.713 98.134 973.279 98.636 Q 972.845 99.137 972.540 99.336 Q 972.235 99.535 971.853 99.557 Q 971.470 99.579 971.091 99.539 Q 970.713 99.499 970.616 99.478 Q 970.519 99.458 970.170 99.201 Q 969.822 98.945 968.327 99.766 Q 966.831 100.587 965.278 102.071 Q 965.192 101.839 965.635 101.366 Q 966.078 100.893 966.604 100.692 Q 967.130 100.491 967.825 101.437 Q 968.520 102.382 969.024 102.905 Q 969.529 103.427 970.066 103.655 Q 970.603 103.883 971.423 103.618 Q 972.243 103.354 972.535 102.954 Q 972.826 102.553 973.157 102.289 Q 973.488 102.025 973.824 99.749 Q 973.771 99.695 973.316 99.679 Q 972.861 99.664 972.256 100.979 Q 972.800 101.047 973.355 100.589 Q 973.910 100.131 974.448 99.940 Q 974.986 99.748 975.466 100.174 Q 975.946 100.599 976.140 101.149 Q 976.381 101.210 976.583 100.939 Q 976.785 100.668 976.910 100.470 "></path>
    <path id="STROKE_e09e553f-a97f-4e24-a84d-cefc23f22730" opacity="1.000" fill="none" stroke="#000000" stroke-width="0.569" stroke-opacity="1.000" stroke-linecap="round" stroke-linejoin="round" d="M 978.342 90.155 Q 978.234 90.285 978.557 92.453 Q 978.692 92.561 978.681 92.545 Q 978.669 92.528 978.762 91.777 Q 978.854 91.025 979.168 90.172 Q 979.482 89.319 979.777 88.877 Q 980.072 88.436 980.191 88.177 Q 980.311 87.919 981.184 87.079 Q 982.058 86.240 983.660 86.443 Q 983.609 86.257 983.814 87.513 Q 984.020 88.769 983.431 89.874 Q 982.843 90.978 982.446 91.336 Q 982.049 91.693 981.578 92.058 Q 981.107 92.423 980.707 92.353 Q 980.308 92.284 979.942 92.174 Q 979.576 92.064 979.504 91.984 Q 979.432 91.904 979.359 91.617 Q 979.286 91.330 979.305 90.991 Q 979.324 90.651 979.554 90.305 Q 979.785 89.958 982.266 89.464 Q 982.395 89.317 982.410 89.766 Q 982.425 90.216 982.220 91.053 Q 982.015 91.889 979.901 92.817 Q 979.919 92.188 979.955 92.298 Q 979.249 92.426 981.694 91.503 Q 982.204 91.776 981.489 93.579 L 981.472 93.579 Q 981.404 93.875 981.740 95.687 Q 982.076 97.498 981.938 100.504 Q 981.867 100.637 981.495 100.373 Q 981.123 100.108 980.452 99.533 Q 979.781 98.957 979.249 98.561 Q 978.716 98.165 978.396 97.500 Q 978.075 96.835 978.529 96.221 Q 978.983 95.606 979.587 95.195 Q 980.191 94.784 981.390 94.553 Q 982.589 94.322 983.655 94.216 Q 984.721 94.109 986.486 96.449 "></path>
    <path id="STROKE_84de35f6-088e-476e-83fe-4f8341be0a4d" opacity="1.000" fill="none" stroke="#000000" stroke-width="0.540" stroke-opacity="1.000" stroke-linecap="round" stroke-linejoin="round" d="M 978.925 93.924 Q 978.528 94.062 979.974 93.523 Q 981.419 92.983 984.552 92.705 "></path>
    <path id="STROKE_6a9b93bc-a845-4047-b686-b20851211831" opacity="1.000" fill="none" stroke="#000000" stroke-width="0.670" stroke-opacity="1.000" stroke-linecap="round" stroke-linejoin="round" d="M 979.670 95.255 Q 979.352 95.087 982.411 94.268 Q 985.471 93.449 985.651 93.396 "></path>
    <path id="STROKE_d09cf079-c93a-4e8f-bcb6-b0ef4e387bde" opacity="1.000" fill="none" stroke="#000000" stroke-width="0.585" stroke-opacity="1.000" stroke-linecap="round" stroke-linejoin="round" d="M 993.225 95.886 Q 993.775 96.117 993.741 96.122 Q 993.898 96.229 993.965 96.280 "></path>
    <path id="STROKE_ffe8e3a3-7200-4e26-ac6c-f0c72fbcc552" opacity="1.000" fill="none" stroke="#000000" stroke-width="0.644" stroke-opacity="1.000" stroke-linecap="round" stroke-linejoin="round" d="M 992.843 99.075 Q 992.916 99.608 993.048 99.486 Q 993.836 99.657 993.718 99.627 Q 993.601 99.596 993.791 99.605 Q 993.982 99.614 994.123 99.615 "></path>
    <path id="STROKE_ff64af19-451b-4df0-a1e1-b332b1db7265" opacity="1.000" fill="none" stroke="#000000" stroke-width="0.391" stroke-opacity="1.000" stroke-linecap="round" stroke-linejoin="round" d="M 985.564 74.680 Q 985.704 74.653 986.743 75.194 "></path>
    <path id="STROKE_489f6b83-639a-4dec-b5a6-b1c9bf006416" opacity="1.000" fill="none" stroke="#000000" stroke-width="0.523" stroke-opacity="1.000" stroke-linecap="round" stroke-linejoin="round" d="M 985.617 76.833 Q 985.596 76.832 986.697 76.908 "></path>
    <path id="STROKE_a554d6ce-ef78-4ca6-ae5e-c293adcec292" opacity="1.000" fill="none" stroke="#000000" stroke-width="0.808" stroke-opacity="1.000" stroke-linecap="round" stroke-linejoin="round" d="M 953.134 104.362 Q 953.010 104.241 952.739 108.637 Q 952.469 113.033 952.445 116.078 Q 952.421 119.123 952.540 120.592 Q 952.660 122.060 952.864 122.899 Q 953.069 123.738 953.350 124.982 Q 953.632 126.226 954.121 127.067 Q 954.610 127.908 955.350 128.806 Q 956.091 129.704 958.831 129.531 "></path>
    <path id="STROKE_c70e828d-5a99-4b12-9827-b5f4ed30a810" opacity="1.000" fill="none" stroke="#000000" stroke-width="0.828" stroke-opacity="1.000" stroke-linecap="round" stroke-linejoin="round" d="M 965.064 116.987 Q 964.957 117.368 965.133 128.426 Q 965.150 128.426 965.201 128.426 "></path>
    <path id="STROKE_377280c4-d82b-4a3b-a6f5-e381ce15ec1e" opacity="1.000" fill="none" stroke="#000000" stroke-width="0.623" stroke-opacity="1.000" stroke-linecap="round" stroke-linejoin="round" d="M 964.755 116.014 Q 964.771 116.267 964.789 115.640 Q 964.807 115.012 965.386 114.652 Q 965.965 114.292 966.363 114.218 Q 966.760 114.144 967.128 114.278 Q 967.496 114.412 967.698 114.869 Q 967.899 115.327 968.024 115.495 Q 968.148 115.663 968.521 117.217 Q 968.894 118.771 969.046 121.139 Q 969.198 123.507 968.999 124.643 Q 968.800 125.779 968.732 125.867 "></path>
    <path id="STROKE_8b3e2d28-801f-4251-bca2-ddc0d40422f5" opacity="1.000" fill="none" stroke="#000000" stroke-width="0.459" stroke-opacity="1.000" stroke-linecap="round" stroke-linejoin="round" d="M 965.554 119.497 Q 965.920 118.927 967.556 119.029 Q 967.399 118.786 967.764 119.531 Q 968.129 120.276 965.421 122.476 Q 965.153 122.560 966.004 121.964 Q 966.855 121.367 967.516 121.311 Q 968.176 121.254 968.284 121.298 Q 968.393 121.341 968.586 122.003 Q 968.779 122.664 968.241 123.849 Q 967.704 125.034 965.690 126.057 Q 965.594 126.015 967.986 124.549 Q 970.378 123.084 970.576 122.941 "></path>
    <path id="STROKE_1ee77498-1d52-4435-8330-0125dcdb7300" opacity="1.000" fill="none" stroke="#000000" stroke-width="0.612" stroke-opacity="1.000" stroke-linecap="round" stroke-linejoin="round" d="M 974.177 118.230 Q 974.349 118.162 976.303 116.919 "></path>
    <path id="STROKE_4d580afa-5abe-442d-a4f8-0221cd09c56d" opacity="1.000" fill="none" stroke="#000000" stroke-width="0.637" stroke-opacity="1.000" stroke-linecap="round" stroke-linejoin="round" d="M 974.845 116.082 Q 974.919 116.345 974.580 125.349 Q 974.671 125.370 974.450 125.439 Q 974.229 125.508 973.681 124.485 Q 973.133 123.462 972.676 122.800 Q 972.219 122.137 972.059 121.797 Q 971.898 121.458 971.933 121.574 Q 971.967 121.690 972.097 121.256 Q 972.227 120.823 972.670 120.658 Q 973.113 120.494 973.720 120.430 Q 974.326 120.367 974.971 120.470 Q 975.615 120.573 976.478 121.115 Q 977.341 121.658 977.409 121.696 "></path>
    <path id="STROKE_d4ea5c5e-1d1d-421d-a339-1175dcf7226a" opacity="1.000" fill="none" stroke="#000000" stroke-width="0.540" stroke-opacity="1.000" stroke-linecap="round" stroke-linejoin="round" d="M 977.339 116.960 Q 977.400 116.610 980.083 115.940 Q 980.272 115.800 980.077 117.374 Q 979.881 118.948 977.202 120.547 Q 976.539 120.193 980.608 117.303 Q 980.830 117.616 980.731 118.191 Q 980.631 118.766 980.297 119.703 Q 979.962 120.640 979.916 121.294 Q 979.870 121.948 979.913 122.323 Q 979.955 122.698 980.038 123.145 Q 980.122 123.591 979.583 123.822 Q 979.043 124.053 978.784 124.092 Q 978.524 124.132 978.497 124.113 Q 978.470 124.094 977.869 124.142 Q 977.268 124.190 976.592 124.106 Q 975.915 124.022 975.725 123.872 Q 975.535 123.722 975.481 123.540 Q 975.428 123.359 975.406 123.173 Q 975.384 122.987 975.416 123.101 Q 975.449 123.214 975.612 122.866 Q 975.776 122.518 977.180 122.102 Q 978.584 121.686 979.806 121.736 Q 981.027 121.786 982.075 122.071 Q 983.122 122.357 983.803 123.706 "></path>
    <path id="STROKE_21666e3e-2f89-4e3e-8fb4-45e88be67534" opacity="1.000" fill="none" stroke="#000000" stroke-width="0.467" stroke-opacity="1.000" stroke-linecap="round" stroke-linejoin="round" d="M 974.858 119.129 Q 974.974 119.106 978.118 118.400 "></path>
    <path id="STROKE_3815f2ce-73e1-403a-8730-d3e43a15575c" opacity="1.000" fill="none" stroke="#000000" stroke-width="0.388" stroke-opacity="1.000" stroke-linecap="round" stroke-linejoin="round" d="M 992.019 121.001 Q 992.067 121.019 992.199 121.051 Q 992.332 121.083 992.627 121.207 Q 992.923 121.332 992.974 121.370 "></path>
    <path id="STROKE_fd7e93ee-1309-466f-8d52-cff234c332f3" opacity="1.000" fill="none" stroke="#000000" stroke-width="0.567" stroke-opacity="1.000" stroke-linecap="round" stroke-linejoin="round" d="M 991.421 124.517 Q 992.106 124.534 992.369 124.475 Q 992.632 124.416 992.773 124.383 "></path>
    <path id="STROKE_f57a247a-5bbc-4cfa-9ff4-4da1c269275a" opacity="1.000" fill="none" stroke="#000000" stroke-width="0.388" stroke-opacity="1.000" stroke-linecap="round" stroke-linejoin="round" d="M 972.742 119.081 Q 972.870 118.980 975.219 118.034 Q 977.569 117.088 977.948 116.930 "></path>
    <path id="STROKE_e3db457f-b60a-4b1c-834c-cdffc0a85ccb" opacity="1.000" fill="none" stroke="#000000" stroke-width="0.591" stroke-opacity="1.000" stroke-linecap="round" stroke-linejoin="round" d="M 998.779 115.568 Q 998.797 115.210 1004.042 114.097 Q 1004.136 114.089 1004.158 114.298 Q 1004.180 114.507 1004.179 114.667 "></path>
    <path id="STROKE_5384c5a3-a5d9-4d8d-90b1-2efaf77e88cb" opacity="1.000" fill="none" stroke="#000000" stroke-width="0.431" stroke-opacity="1.000" stroke-linecap="round" stroke-linejoin="round" d="M 1000.007 118.801 Q 999.819 118.851 1004.952 116.901 "></path>
    <path id="STROKE_9d31636d-6c6c-448f-9746-4cd34ec70f76" opacity="1.000" fill="none" stroke="#000000" stroke-width="0.656" stroke-opacity="1.000" stroke-linecap="round" stroke-linejoin="round" d="M 1001.783 115.977 Q 1000.791 116.365 999.139 125.641 Q 999.143 125.790 1000.310 122.205 "></path>
    <path id="STROKE_6c77a60e-b836-4ce9-8d1d-0707e43865c5" opacity="1.000" fill="none" stroke="#000000" stroke-width="0.711" stroke-opacity="1.000" stroke-linecap="round" stroke-linejoin="round" d="M 1002.512 118.024 Q 1002.599 118.410 1002.851 119.632 Q 1003.102 120.855 1003.333 121.682 Q 1003.564 122.509 1003.996 122.761 Q 1004.428 123.014 1004.968 122.986 Q 1005.508 122.959 1005.488 122.919 Q 1005.467 122.880 1005.702 122.807 Q 1005.937 122.734 1008.616 121.240 Q 1008.617 121.223 1008.617 121.172 Q 1008.756 121.235 1008.462 121.095 Q 1008.168 120.954 1008.044 120.898 "></path>
    <path id="STROKE_8a8a5f40-763f-450a-8fdc-b63c768c11db" opacity="1.000" fill="none" stroke="#000000" stroke-width="0.545" stroke-opacity="1.000" stroke-linecap="round" stroke-linejoin="round" d="M 998.327 119.144 Q 998.326 119.300 1001.588 118.153 Q 1004.850 117.006 1004.997 116.935 "></path>
    <path id="STROKE_671a50be-b161-4233-92df-0ddfc6413203" opacity="1.000" fill="none" stroke="#000000" stroke-width="0.458" stroke-opacity="1.000" stroke-linecap="round" stroke-linejoin="round" d="M 1002.207 89.776 Q 1002.180 89.872 1002.828 89.490 Q 1003.475 89.109 1008.345 88.800 Q 1008.361 89.016 1008.360 89.142 "></path>
    <path id="STROKE_0f1875fb-440a-4e45-9241-a59cd01bfb54" opacity="1.000" fill="none" stroke="#000000" stroke-width="0.562" stroke-opacity="1.000" stroke-linecap="round" stroke-linejoin="round" d="M 1001.760 92.677 Q 1001.703 92.677 1001.579 92.693 Q 1001.668 92.912 1003.400 92.784 Q 1005.132 92.656 1006.105 92.104 Q 1007.077 91.552 1007.128 91.498 "></path>
    <path id="STROKE_21253311-8535-473c-9289-7c2bcd8d1dca" opacity="1.000" fill="none" stroke="#000000" stroke-width="0.471" stroke-opacity="1.000" stroke-linecap="round" stroke-linejoin="round" d="M 1005.035 89.618 Q 1005.136 89.568 1004.675 90.441 Q 1004.215 91.314 1002.980 96.991 Q 1003.314 96.932 1003.479 96.563 "></path>
    <path id="STROKE_0a74231c-00c0-4a60-a261-fe8cd2d6b8cb" opacity="1.000" fill="none" stroke="#000000" stroke-width="0.581" stroke-opacity="1.000" stroke-linecap="round" stroke-linejoin="round" d="M 1005.195 92.523 Q 1005.231 92.450 1005.496 93.316 Q 1005.761 94.182 1006.414 94.931 Q 1007.067 95.680 1007.869 96.191 Q 1008.671 96.702 1009.577 96.681 Q 1010.482 96.660 1011.318 96.282 Q 1012.154 95.904 1012.417 95.675 Q 1012.679 95.446 1012.768 95.241 Q 1012.857 95.036 1012.949 94.876 Q 1013.042 94.716 1013.008 94.751 Q 1012.973 94.786 1013.008 94.659 Q 1013.043 94.532 1012.986 94.090 Q 1012.930 93.647 1012.880 93.503 "></path>
  </g>
</svg>