<?xml version="1.0" encoding="UTF-8" standalone="yes"?>
<svg xmlns="http://www.w3.org/2000/svg" xmlns:xlink="http://www.w3.org/1999/xlink" width="146.494mm" height="62.782mm" version="1.1" viewBox="3195.817 -1576.528 761.306 326.268">
  <!--
	Exported with Concepts: Smarter Sketching
	Version: 1947 on iOS 16.4
	https://concepts.app/
	-->
  <title>C268B30C-28A9-4840-B63B-41FD41ED71BD</title>
  <desc>Drawing exported from Concepts: Smarter Sketching</desc>
  <defs></defs>
  <g id="主体" opacity="1.000">
    <path id="STROKE_d82f4fd3-3393-45d2-bfad-d7cfcb28ae07" opacity="1.000" fill="none" stroke="#000000" stroke-width="1.196" stroke-opacity="1.000" stroke-linecap="round" stroke-linejoin="round" d="M 3487.387 -1374.684 Q 3487.424 -1374.720 3487.533 -1375.446 Q 3487.880 -1374.849 3486.613 -1353.865 Q 3486.118 -1356.047 3487.418 -1359.845 Q 3488.718 -1363.643 3491.310 -1366.425 Q 3492.164 -1364.868 3491.916 -1359.038 Q 3491.851 -1358.916 3493.780 -1359.419 "></path>
    <path id="STROKE_232f5e11-2a7d-401f-a853-766b0d958ee4" opacity="1.000" fill="none" stroke="#000000" stroke-width="1.372" stroke-opacity="1.000" stroke-linecap="round" stroke-linejoin="round" d="M 3496.322 -1360.653 Q 3496.273 -1360.689 3495.765 -1361.034 Q 3497.128 -1360.963 3496.916 -1360.962 Q 3497.302 -1360.933 3501.366 -1365.326 Q 3505.431 -1369.719 3503.720 -1367.982 Q 3502.009 -1366.244 3502.702 -1367.088 Q 3502.282 -1367.273 3500.810 -1367.525 Q 3499.337 -1367.778 3498.334 -1365.116 Q 3497.332 -1362.454 3497.330 -1361.116 Q 3497.328 -1359.778 3497.402 -1357.493 Q 3497.476 -1355.209 3498.286 -1354.556 Q 3499.095 -1353.903 3500.425 -1354.085 Q 3501.754 -1354.267 3505.378 -1362.341 "></path>
    <path id="STROKE_8d267d17-f8ae-405e-9ef6-654e742c795e" opacity="1.000" fill="none" stroke="#000000" stroke-width="1.124" stroke-opacity="1.000" stroke-linecap="round" stroke-linejoin="round" d="M 3507.146 -1379.076 Q 3507.146 -1379.563 3507.146 -1379.766 Q 3507.110 -1378.327 3506.454 -1369.769 Q 3505.797 -1361.211 3505.959 -1351.632 Q 3505.845 -1351.783 3506.348 -1351.183 Q 3506.850 -1350.583 3511.843 -1357.640 "></path>
    <path id="STROKE_eb670989-32ed-44cf-9de5-a6ff684e70ae" opacity="1.000" fill="none" stroke="#000000" stroke-width="1.376" stroke-opacity="1.000" stroke-linecap="round" stroke-linejoin="round" d="M 3628.466 -1440.586 Q 3628.465 -1441.659 3628.466 -1441.335 Q 3627.376 -1440.763 3630.741 -1442.889 Q 3630.954 -1441.584 3630.867 -1441.574 Q 3630.917 -1440.706 3630.767 -1432.516 Q 3630.797 -1433.392 3631.186 -1437.917 "></path>
    <path id="STROKE_b2fb23fb-5926-4aaf-9505-accbadad6566" opacity="1.000" fill="none" stroke="#000000" stroke-width="1.416" stroke-opacity="1.000" stroke-linecap="round" stroke-linejoin="round" d="M 3630.867 -1445.986 Q 3630.062 -1446.835 3630.160 -1446.692 Q 3630.258 -1446.549 3630.257 -1446.571 Q 3630.256 -1446.593 3630.211 -1446.615 Q 3630.166 -1446.636 3629.910 -1446.729 Q 3629.799 -1447.010 3630.867 -1446.093 Q 3629.924 -1446.923 3630.229 -1446.603 Q 3630.120 -1446.654 3629.910 -1446.729 Q 3629.960 -1446.729 3630.107 -1446.770 Q 3630.254 -1446.811 3630.498 -1446.893 "></path>
    <path id="STROKE_5a9d72b8-1a2c-40a3-8e10-6542b9349751" opacity="1.000" fill="none" stroke="#000000" stroke-width="1.416" stroke-opacity="1.000" stroke-linecap="round" stroke-linejoin="round" d="M 3636.258 -1447.270 Q 3636.607 -1447.577 3636.055 -1446.650 Q 3635.502 -1445.723 3634.953 -1444.993 Q 3634.404 -1444.262 3634.347 -1443.998 Q 3634.291 -1443.734 3634.292 -1443.252 Q 3634.294 -1442.770 3634.223 -1442.833 Q 3634.152 -1442.895 3634.399 -1442.664 Q 3634.646 -1442.433 3634.882 -1442.254 Q 3635.118 -1442.074 3635.063 -1442.101 Q 3635.008 -1442.128 3635.233 -1442.029 Q 3635.458 -1441.930 3636.277 -1440.967 Q 3637.096 -1440.003 3637.092 -1439.594 Q 3637.088 -1439.184 3637.044 -1438.518 Q 3637.000 -1437.853 3636.655 -1437.671 Q 3636.309 -1437.490 3635.529 -1437.374 Q 3634.748 -1437.259 3633.538 -1437.325 Q 3633.538 -1437.350 3633.705 -1437.803 "></path>
    <path id="STROKE_c2f6b380-e2ae-4ff0-a5c9-fa12f3bc70d6" opacity="1.000" fill="none" stroke="#000000" stroke-width="1.188" stroke-opacity="1.000" stroke-linecap="round" stroke-linejoin="round" d="M 3642.068 -1444.916 Q 3642.068 -1444.967 3642.094 -1445.231 Q 3642.213 -1445.461 3642.750 -1444.952 Q 3643.286 -1444.444 3643.667 -1443.417 Q 3644.048 -1442.389 3644.211 -1441.798 Q 3644.374 -1441.207 3644.368 -1440.883 Q 3644.363 -1440.558 3646.074 -1434.707 Q 3646.557 -1435.212 3651.036 -1449.625 "></path>
    <path id="STROKE_f86c81a7-be8d-4456-9ccd-13cb69850c39" opacity="1.000" fill="none" stroke="#000000" stroke-width="1.265" stroke-opacity="1.000" stroke-linecap="round" stroke-linejoin="round" d="M 3619.128 -1318.812 Q 3619.088 -1320.028 3621.404 -1321.481 Q 3621.642 -1321.457 3621.404 -1310.201 Q 3622.197 -1310.163 3623.831 -1316.080 "></path>
    <path id="STROKE_cfd64387-858a-4d4b-a279-8516d8da6874" opacity="1.000" fill="none" stroke="#000000" stroke-width="1.416" stroke-opacity="1.000" stroke-linecap="round" stroke-linejoin="round" d="M 3623.293 -1328.216 Q 3623.659 -1328.703 3622.252 -1329.336 Q 3622.160 -1329.762 3621.933 -1327.681 Q 3622.139 -1327.204 3624.200 -1328.166 "></path>
    <path id="STROKE_660ba4e9-4064-4be4-aa35-29f088a64653" opacity="1.000" fill="none" stroke="#000000" stroke-width="1.091" stroke-opacity="1.000" stroke-linecap="round" stroke-linejoin="round" d="M 3627.458 -1333.239 Q 3626.083 -1333.099 3626.283 -1313.644 Q 3627.029 -1313.544 3627.150 -1313.696 Q 3627.271 -1313.847 3627.520 -1314.220 Q 3627.769 -1314.594 3627.958 -1314.950 Q 3628.147 -1315.306 3628.817 -1316.858 Q 3629.487 -1318.410 3630.511 -1320.120 Q 3631.534 -1321.829 3633.269 -1326.504 Q 3632.842 -1326.671 3632.067 -1326.512 Q 3631.293 -1326.353 3630.657 -1324.186 Q 3630.022 -1322.020 3629.949 -1319.974 Q 3629.877 -1317.928 3630.164 -1316.582 Q 3630.451 -1315.236 3630.961 -1314.731 Q 3631.472 -1314.226 3631.888 -1314.037 Q 3632.305 -1313.848 3632.223 -1313.910 Q 3632.141 -1313.971 3632.844 -1313.865 Q 3633.548 -1313.758 3635.003 -1316.259 Q 3636.457 -1318.761 3636.233 -1328.241 Q 3635.528 -1329.347 3635.100 -1322.239 Q 3634.672 -1315.131 3634.550 -1309.560 Q 3634.427 -1303.988 3634.297 -1301.311 Q 3634.167 -1298.634 3634.116 -1297.512 Q 3634.064 -1296.391 3634.565 -1295.884 Q 3635.065 -1295.378 3635.431 -1295.486 Q 3635.797 -1295.594 3636.020 -1295.836 Q 3636.244 -1296.078 3637.355 -1297.443 Q 3638.467 -1298.807 3642.505 -1310.944 "></path>
    <path id="STROKE_af919403-3359-40fa-b13d-c19342859674" opacity="1.000" fill="none" stroke="#000000" stroke-width="1.196" stroke-opacity="1.000" stroke-linecap="round" stroke-linejoin="round" d="M 3742.310 -1402.743 Q 3742.310 -1402.793 3742.310 -1403.007 Q 3742.068 -1403.087 3742.542 -1397.120 Q 3743.016 -1391.152 3740.983 -1380.284 L 3740.958 -1380.284 Q 3740.708 -1380.983 3741.372 -1383.561 Q 3742.036 -1386.139 3743.315 -1388.399 Q 3744.594 -1390.658 3745.728 -1391.834 Q 3746.861 -1393.009 3747.526 -1393.118 Q 3748.190 -1393.227 3748.481 -1393.280 Q 3748.772 -1393.333 3748.954 -1392.912 Q 3749.135 -1392.491 3749.174 -1392.017 Q 3749.213 -1391.544 3749.310 -1390.984 Q 3749.406 -1390.424 3748.481 -1389.033 Q 3747.555 -1387.642 3746.779 -1386.872 Q 3746.003 -1386.102 3744.856 -1385.358 Q 3743.709 -1384.614 3742.208 -1384.300 Q 3742.375 -1384.293 3743.921 -1385.471 "></path>
    <path id="STROKE_e259f0a4-fc32-4148-861d-aab132afedae" opacity="1.000" fill="none" stroke="#000000" stroke-width="1.252" stroke-opacity="1.000" stroke-linecap="round" stroke-linejoin="round" d="M 3752.671 -1394.233 Q 3752.545 -1394.376 3753.334 -1395.038 Q 3753.645 -1395.299 3753.679 -1382.638 Q 3753.497 -1383.399 3754.231 -1386.318 Q 3754.965 -1389.236 3756.099 -1391.141 Q 3757.233 -1393.045 3758.155 -1394.102 Q 3759.076 -1395.159 3761.941 -1396.587 "></path>
    <path id="STROKE_715e8c50-6016-48e7-8e8c-44f1ca4e19d6" opacity="1.000" fill="none" stroke="#000000" stroke-width="1.377" stroke-opacity="1.000" stroke-linecap="round" stroke-linejoin="round" d="M 3886.415 -1395.781 Q 3886.055 -1395.563 3885.705 -1393.101 Q 3885.354 -1390.639 3885.356 -1388.823 Q 3885.357 -1387.007 3885.657 -1386.215 Q 3885.958 -1385.424 3886.811 -1385.263 Q 3887.664 -1385.103 3888.343 -1385.908 Q 3889.023 -1386.714 3889.216 -1388.389 Q 3889.408 -1390.065 3889.491 -1391.349 Q 3889.574 -1392.634 3889.363 -1393.236 Q 3889.151 -1393.839 3888.558 -1394.862 Q 3887.964 -1395.885 3887.129 -1395.428 Q 3886.293 -1394.972 3885.792 -1394.110 Q 3885.291 -1393.248 3884.505 -1391.944 Q 3883.719 -1390.641 3884.333 -1388.618 "></path>
    <path id="STROKE_41e9c10b-a024-4896-8eea-8e30d6599971" opacity="1.000" fill="none" stroke="#000000" stroke-width="1.077" stroke-opacity="1.000" stroke-linecap="round" stroke-linejoin="round" d="M 3901.983 -1407.124 Q 3901.983 -1407.281 3901.958 -1407.678 Q 3900.972 -1408.026 3900.391 -1401.862 Q 3899.811 -1395.698 3899.491 -1391.777 Q 3899.170 -1387.856 3898.640 -1385.564 Q 3898.109 -1383.271 3897.118 -1381.913 Q 3896.126 -1380.554 3894.526 -1379.856 "></path>
    <path id="STROKE_c82dd2da-a02b-40a6-bbae-709aa9cb578b" opacity="1.000" fill="none" stroke="#000000" stroke-width="1.412" stroke-opacity="1.000" stroke-linecap="round" stroke-linejoin="round" d="M 3894.208 -1393.377 Q 3893.200 -1394.767 3896.323 -1395.210 Q 3899.446 -1395.653 3901.667 -1396.203 Q 3903.888 -1396.753 3905.202 -1397.223 Q 3906.516 -1397.692 3907.273 -1398.463 "></path>
    <path id="STROKE_93f34a5c-a3ce-4b5f-b9be-bbccb1669f6a" opacity="1.000" fill="none" stroke="#000000" stroke-width="1.154" stroke-opacity="1.000" stroke-linecap="round" stroke-linejoin="round" d="M 3908.868 -1407.061 Q 3907.652 -1407.338 3908.045 -1407.225 Q 3907.309 -1406.669 3907.319 -1406.568 Q 3907.328 -1406.468 3907.357 -1406.516 Q 3907.385 -1406.565 3907.128 -1406.160 Q 3906.870 -1405.756 3906.400 -1401.314 Q 3905.931 -1396.872 3905.780 -1393.248 Q 3905.628 -1389.624 3904.645 -1385.570 Q 3903.662 -1381.517 3903.169 -1379.496 Q 3902.676 -1377.476 3902.180 -1376.710 Q 3901.684 -1375.945 3901.209 -1375.589 Q 3900.734 -1375.234 3900.028 -1375.371 Q 3899.322 -1375.508 3898.254 -1376.218 "></path>
    <path id="STROKE_2d076256-2db0-4210-93e9-56150073d1e0" opacity="1.000" fill="none" stroke="#000000" stroke-width="1.385" stroke-opacity="1.000" stroke-linecap="round" stroke-linejoin="round" d="M 3586.431 -1513.829 Q 3586.453 -1513.637 3587.176 -1512.667 Q 3587.898 -1511.697 3588.660 -1511.664 Q 3589.421 -1511.631 3590.262 -1512.752 Q 3591.103 -1513.872 3591.626 -1515.999 Q 3592.148 -1518.126 3591.958 -1519.877 Q 3591.767 -1521.629 3591.076 -1522.748 Q 3590.384 -1523.866 3589.651 -1524.259 Q 3588.917 -1524.651 3587.801 -1524.693 Q 3586.685 -1524.734 3585.796 -1523.298 Q 3584.906 -1521.863 3584.460 -1520.761 Q 3584.014 -1519.660 3584.290 -1517.032 Q 3584.380 -1516.939 3585.155 -1516.812 "></path>
    <path id="STROKE_e75df640-be43-42a9-b513-245c0170f4db" opacity="1.000" fill="none" stroke="#000000" stroke-width="1.215" stroke-opacity="1.000" stroke-linecap="round" stroke-linejoin="round" d="M 3593.417 -1523.661 Q 3593.980 -1523.783 3593.896 -1523.774 Q 3593.965 -1523.637 3593.920 -1523.843 Q 3593.875 -1524.049 3593.986 -1523.899 Q 3594.097 -1523.750 3594.289 -1523.222 Q 3594.480 -1522.694 3594.470 -1522.383 Q 3594.459 -1522.072 3594.715 -1521.419 Q 3594.972 -1520.766 3593.417 -1512.759 Q 3593.358 -1512.855 3593.662 -1514.954 Q 3593.965 -1517.053 3595.113 -1519.449 Q 3596.261 -1521.845 3597.192 -1523.218 Q 3598.122 -1524.591 3600.194 -1525.001 Q 3600.697 -1524.928 3600.385 -1520.968 Q 3600.072 -1517.009 3600.353 -1512.865 Q 3600.891 -1512.652 3601.209 -1512.545 "></path>
    <path id="STROKE_ecd32c7a-1c93-4a46-9983-829279e75c6a" opacity="1.000" fill="none" stroke="#000000" stroke-width="0.812" stroke-opacity="1.000" stroke-linecap="round" stroke-linejoin="round" d="M 3564.278 -1515.692 Q 3564.086 -1515.840 3560.962 -1515.722 Q 3557.839 -1515.604 3552.205 -1514.834 Q 3546.571 -1514.064 3541.835 -1513.940 Q 3537.099 -1513.816 3530.423 -1513.294 Q 3523.747 -1512.773 3517.271 -1512.162 Q 3510.794 -1511.551 3505.843 -1511.326 Q 3500.893 -1511.102 3496.005 -1510.736 Q 3491.118 -1510.371 3487.416 -1509.890 Q 3483.714 -1509.409 3476.013 -1508.396 Q 3468.312 -1507.383 3464.288 -1506.882 Q 3460.263 -1506.380 3458.445 -1505.962 Q 3456.627 -1505.543 3454.096 -1504.786 Q 3451.565 -1504.028 3449.210 -1502.775 Q 3446.855 -1501.522 3445.435 -1500.205 Q 3444.015 -1498.887 3442.743 -1496.618 Q 3441.471 -1494.348 3440.670 -1484.938 Q 3439.869 -1475.527 3439.553 -1463.203 Q 3439.236 -1450.879 3439.038 -1443.826 Q 3438.840 -1436.773 3438.855 -1432.665 Q 3438.869 -1428.556 3438.713 -1426.042 Q 3438.556 -1423.527 3439.332 -1411.022 Q 3440.108 -1398.517 3440.658 -1389.175 Q 3441.209 -1379.833 3441.428 -1375.518 Q 3441.647 -1371.203 3442.138 -1365.387 Q 3442.629 -1359.571 3442.956 -1355.880 Q 3443.284 -1352.190 3443.708 -1345.552 Q 3444.133 -1338.913 3444.383 -1335.428 Q 3444.633 -1331.943 3444.863 -1324.427 Q 3445.094 -1316.911 3444.914 -1310.568 Q 3444.735 -1304.225 3445.690 -1296.756 Q 3446.646 -1289.287 3447.684 -1284.246 Q 3448.722 -1279.205 3449.697 -1276.536 Q 3450.671 -1273.868 3451.264 -1272.607 Q 3451.856 -1271.347 3453.041 -1269.840 Q 3454.226 -1268.334 3463.031 -1266.514 Q 3471.836 -1264.694 3476.589 -1263.681 Q 3481.341 -1262.668 3484.198 -1262.372 Q 3487.054 -1262.076 3489.101 -1261.857 Q 3491.147 -1261.639 3495.492 -1261.688 Q 3499.836 -1261.737 3512.595 -1261.658 Q 3525.354 -1261.580 3531.915 -1261.549 Q 3538.477 -1261.518 3543.160 -1261.250 Q 3547.843 -1260.983 3550.384 -1260.692 Q 3552.924 -1260.401 3572.652 -1260.136 Q 3592.380 -1259.872 3602.622 -1259.839 Q 3612.863 -1259.806 3617.431 -1259.652 Q 3622.000 -1259.497 3624.246 -1259.468 Q 3626.492 -1259.439 3629.374 -1259.189 Q 3632.255 -1258.939 3646.292 -1258.649 Q 3660.329 -1258.358 3668.648 -1258.528 Q 3676.967 -1258.698 3687.057 -1258.833 Q 3697.147 -1258.968 3709.396 -1258.828 Q 3721.644 -1258.688 3730.149 -1258.955 Q 3738.655 -1259.222 3742.531 -1259.544 Q 3746.408 -1259.865 3748.044 -1260.022 Q 3749.680 -1260.178 3754.250 -1260.563 Q 3758.819 -1260.947 3764.255 -1261.142 Q 3769.690 -1261.337 3777.064 -1261.214 Q 3784.437 -1261.092 3789.906 -1261.663 Q 3795.375 -1262.233 3798.080 -1262.729 Q 3800.785 -1263.225 3803.363 -1263.917 Q 3805.941 -1264.609 3808.583 -1265.498 Q 3811.224 -1266.386 3812.687 -1267.381 Q 3814.149 -1268.375 3814.744 -1268.917 Q 3815.339 -1269.459 3816.292 -1271.121 Q 3817.244 -1272.783 3818.535 -1278.946 Q 3819.827 -1285.109 3820.335 -1292.369 Q 3820.842 -1299.629 3821.064 -1305.178 Q 3821.286 -1310.728 3821.433 -1313.865 Q 3821.580 -1317.002 3821.640 -1320.545 Q 3821.700 -1324.089 3822.034 -1331.972 Q 3822.369 -1339.855 3822.978 -1347.554 Q 3823.586 -1355.253 3824.064 -1359.103 Q 3824.542 -1362.953 3825.066 -1370.155 Q 3825.590 -1377.357 3825.880 -1381.300 Q 3826.169 -1385.242 3826.228 -1395.154 Q 3826.286 -1405.066 3826.114 -1412.607 Q 3825.941 -1420.149 3825.865 -1424.141 Q 3825.790 -1428.132 3825.787 -1442.638 Q 3825.784 -1457.145 3825.739 -1465.180 Q 3825.693 -1473.216 3825.484 -1477.161 Q 3825.275 -1481.107 3824.768 -1485.384 Q 3824.261 -1489.662 3823.305 -1492.785 Q 3822.350 -1495.907 3820.910 -1498.610 Q 3819.470 -1501.313 3816.908 -1503.274 Q 3814.346 -1505.234 3813.005 -1505.963 Q 3811.664 -1506.693 3807.701 -1508.161 Q 3803.739 -1509.629 3796.566 -1510.319 Q 3789.394 -1511.010 3784.989 -1511.053 Q 3780.583 -1511.097 3774.263 -1511.104 Q 3767.943 -1511.112 3764.208 -1511.104 Q 3760.474 -1511.096 3757.136 -1511.088 Q 3753.798 -1511.080 3745.060 -1511.689 Q 3736.322 -1512.297 3731.469 -1512.742 Q 3726.616 -1513.188 3720.194 -1513.573 Q 3713.771 -1513.959 3709.092 -1514.049 Q 3704.412 -1514.138 3701.817 -1514.061 Q 3699.223 -1513.984 3685.158 -1514.037 Q 3671.093 -1514.090 3663.688 -1514.013 Q 3656.282 -1513.935 3652.992 -1514.147 Q 3649.701 -1514.359 3645.031 -1514.625 Q 3640.361 -1514.891 3633.324 -1515.135 Q 3626.286 -1515.379 3622.756 -1515.588 Q 3619.226 -1515.797 3617.495 -1515.752 Q 3615.763 -1515.707 3614.399 -1515.361 Q 3613.035 -1515.015 3610.863 -1514.307 Q 3610.888 -1514.357 3610.914 -1514.408 "></path>
    <path id="STROKE_8902012f-2bfb-4029-a4fe-4365b4772984" opacity="1.000" fill="none" stroke="#000000" stroke-width="0.918" stroke-opacity="1.000" stroke-linecap="round" stroke-linejoin="round" d="M 3863.105 -1415.998 Q 3863.105 -1415.998 3863.122 -1415.492 Q 3863.139 -1414.986 3862.741 -1407.997 Q 3862.343 -1401.008 3862.126 -1396.973 Q 3861.908 -1392.939 3861.748 -1389.029 Q 3861.588 -1385.119 3861.406 -1378.078 Q 3861.224 -1371.036 3859.062 -1358.732 Q 3858.895 -1358.834 3858.728 -1358.935 "></path>
    <path id="STROKE_6052f5cc-7172-4e79-8fd3-2361a5b52c26" opacity="1.000" fill="none" stroke="#000000" stroke-width="0.953" stroke-opacity="1.000" stroke-linecap="round" stroke-linejoin="round" d="M 3861.709 -1412.748 Q 3861.401 -1413.699 3868.504 -1415.170 Q 3875.607 -1416.640 3879.530 -1417.287 Q 3883.452 -1417.934 3888.488 -1418.179 Q 3893.523 -1418.425 3897.315 -1418.545 Q 3901.107 -1418.665 3903.846 -1418.635 Q 3906.585 -1418.605 3913.656 -1418.357 Q 3920.728 -1418.109 3927.085 -1418.344 Q 3933.443 -1418.579 3936.516 -1418.700 Q 3939.590 -1418.822 3941.644 -1418.879 Q 3943.698 -1418.937 3944.656 -1418.844 Q 3945.614 -1418.751 3946.426 -1418.075 Q 3947.237 -1417.400 3947.236 -1414.981 Q 3947.235 -1412.562 3947.728 -1404.927 Q 3948.220 -1397.291 3948.400 -1392.710 Q 3948.580 -1388.130 3948.533 -1385.014 Q 3948.485 -1381.898 3948.509 -1378.412 Q 3948.533 -1374.927 3948.498 -1370.477 Q 3948.463 -1366.027 3948.475 -1360.429 Q 3948.486 -1354.830 3947.532 -1349.646 Q 3947.477 -1349.180 3945.856 -1349.802 Q 3944.235 -1350.425 3941.312 -1351.259 Q 3938.388 -1352.092 3936.361 -1352.346 Q 3934.334 -1352.599 3930.941 -1352.691 Q 3927.548 -1352.783 3923.018 -1352.527 Q 3918.488 -1352.270 3913.035 -1353.054 Q 3907.581 -1353.838 3903.958 -1355.222 Q 3900.335 -1356.605 3896.299 -1357.693 Q 3892.264 -1358.781 3885.985 -1358.050 Q 3879.706 -1357.319 3874.948 -1356.738 Q 3870.191 -1356.156 3866.872 -1356.422 Q 3863.553 -1356.687 3861.105 -1356.409 Q 3858.658 -1356.131 3857.655 -1355.832 Q 3856.653 -1355.532 3856.021 -1355.329 Q 3855.389 -1355.125 3855.255 -1355.081 Q 3855.122 -1355.036 3854.434 -1354.826 Q 3854.838 -1354.767 3855.748 -1355.295 "></path>
    <path id="STROKE_06ed812a-26ab-4426-86fe-f392f5424cdc" opacity="1.000" fill="none" stroke="#0c32f2" stroke-width="1.355" stroke-opacity="1.000" stroke-linecap="round" stroke-linejoin="round" d="M 3221.627 -1455.520 Q 3221.769 -1455.520 3221.230 -1455.520 Q 3221.424 -1455.294 3224.006 -1455.469 Q 3226.588 -1455.645 3230.328 -1457.216 Q 3234.068 -1458.788 3241.496 -1458.210 Q 3240.474 -1458.229 3240.532 -1458.298 Q 3239.706 -1458.474 3237.812 -1458.590 Q 3235.917 -1458.705 3232.914 -1460.913 Q 3234.532 -1460.913 3234.086 -1460.913 Q 3234.823 -1461.541 3241.469 -1459.420 Q 3241.491 -1458.234 3241.442 -1458.467 Q 3240.537 -1457.159 3240.640 -1457.379 Q 3241.602 -1457.087 3234.392 -1453.330 Q 3234.392 -1453.303 3234.284 -1453.047 "></path>
    <path id="STROKE_cc24e6e5-a4ab-4e86-8e95-d76b3c4dc9df" opacity="1.000" fill="none" stroke="#0c32f2" stroke-width="1.416" stroke-opacity="1.000" stroke-linecap="round" stroke-linejoin="round" d="M 3250.151 -1463.035 Q 3249.369 -1463.087 3249.547 -1463.116 Q 3249.892 -1463.043 3248.709 -1463.193 Q 3247.527 -1463.343 3246.729 -1463.169 Q 3245.929 -1462.994 3245.538 -1462.861 Q 3245.147 -1462.728 3244.619 -1461.897 Q 3244.090 -1461.065 3243.988 -1459.967 Q 3243.886 -1458.870 3244.263 -1457.666 Q 3244.640 -1456.463 3244.939 -1456.021 Q 3245.238 -1455.579 3245.548 -1455.270 Q 3245.858 -1454.961 3246.080 -1454.808 Q 3246.302 -1454.656 3246.887 -1454.307 Q 3247.472 -1453.958 3248.327 -1453.854 Q 3249.182 -1453.749 3249.433 -1453.640 Q 3249.683 -1453.532 3251.697 -1453.813 Q 3253.710 -1454.095 3254.637 -1454.539 Q 3255.564 -1454.983 3257.533 -1456.310 Q 3259.502 -1457.638 3260.268 -1458.774 Q 3261.033 -1459.910 3261.292 -1461.582 Q 3261.551 -1463.253 3260.968 -1464.309 Q 3260.384 -1465.364 3259.902 -1465.850 Q 3259.419 -1466.336 3258.405 -1466.823 Q 3257.391 -1467.310 3255.738 -1467.401 Q 3254.085 -1467.492 3252.345 -1467.086 Q 3250.604 -1466.681 3248.249 -1465.492 Q 3245.893 -1464.303 3243.858 -1460.616 "></path>
    <path id="STROKE_c49dfae2-36f5-4d52-92a7-31568a0ac499" opacity="1.000" fill="none" stroke="#d90012" stroke-width="1.416" stroke-opacity="1.000" stroke-linecap="round" stroke-linejoin="round" d="M 3218.307 -1502.097 Q 3218.307 -1502.097 3218.072 -1501.832 Q 3217.836 -1501.568 3221.159 -1502.475 Q 3224.482 -1503.381 3226.635 -1504.339 Q 3228.789 -1505.297 3230.225 -1505.138 Q 3230.570 -1504.107 3225.357 -1507.720 Q 3225.084 -1507.712 3226.673 -1507.613 Q 3228.262 -1507.514 3228.978 -1507.316 Q 3229.694 -1507.118 3229.861 -1506.962 Q 3230.028 -1506.806 3230.121 -1506.380 Q 3230.214 -1505.953 3230.148 -1505.499 Q 3230.083 -1505.045 3230.040 -1505.174 Q 3229.997 -1505.304 3229.953 -1505.237 Q 3229.909 -1505.170 3228.627 -1503.916 Q 3227.346 -1502.663 3223.860 -1500.083 "></path>
    <path id="STROKE_d4c4790a-e318-4e8b-aa56-0ed783062e7b" opacity="1.000" fill="none" stroke="#d90012" stroke-width="1.416" stroke-opacity="1.000" stroke-linecap="round" stroke-linejoin="round" d="M 3239.331 -1509.612 Q 3239.331 -1509.612 3238.808 -1510.004 Q 3238.285 -1510.395 3238.646 -1510.125 Q 3237.983 -1510.626 3237.719 -1510.729 Q 3237.455 -1510.832 3237.506 -1510.802 Q 3237.558 -1510.771 3237.556 -1510.722 Q 3237.555 -1510.673 3237.218 -1510.850 Q 3236.881 -1511.026 3235.809 -1510.476 Q 3234.736 -1509.925 3234.124 -1508.822 Q 3233.511 -1507.719 3233.358 -1507.157 Q 3233.205 -1506.595 3233.030 -1506.236 Q 3232.854 -1505.877 3232.825 -1504.992 Q 3232.796 -1504.107 3232.921 -1502.512 Q 3233.046 -1500.917 3235.356 -1500.265 Q 3237.667 -1499.612 3239.527 -1499.611 Q 3241.387 -1499.609 3243.186 -1499.806 Q 3244.985 -1500.002 3246.417 -1500.877 Q 3247.849 -1501.753 3248.475 -1502.479 Q 3249.102 -1503.206 3249.346 -1503.879 Q 3249.590 -1504.552 3249.681 -1505.072 Q 3249.773 -1505.591 3249.718 -1505.548 Q 3249.664 -1505.505 3249.836 -1505.664 Q 3250.010 -1505.824 3249.900 -1506.778 Q 3249.791 -1507.732 3249.597 -1508.315 Q 3249.404 -1508.898 3248.521 -1509.469 Q 3247.637 -1510.039 3247.797 -1509.990 Q 3247.957 -1509.942 3245.917 -1510.827 Q 3243.877 -1511.713 3242.424 -1512.110 Q 3240.971 -1512.507 3239.791 -1512.725 Q 3238.611 -1512.944 3234.516 -1506.679 "></path>
    <path id="STROKE_84b93c25-f723-4f69-a83a-0bc8984f0c68" opacity="1.000" fill="none" stroke="#000000" stroke-width="1.416" stroke-opacity="1.000" stroke-linecap="round" stroke-linejoin="round" d="M 3261.875 -1501.460 Q 3261.875 -1501.460 3261.866 -1501.460 Q 3261.856 -1501.460 3261.838 -1501.460 Q 3261.704 -1501.569 3262.324 -1501.273 Q 3262.944 -1500.977 3263.463 -1500.141 "></path>
    <path id="STROKE_dbe8b724-9e43-4b5a-a3b0-6a051807cdb2" opacity="1.000" fill="none" stroke="#000000" stroke-width="1.416" stroke-opacity="1.000" stroke-linecap="round" stroke-linejoin="round" d="M 3262.070 -1496.092 Q 3261.991 -1496.092 3261.643 -1496.092 Q 3262.064 -1496.116 3262.771 -1496.275 Q 3263.477 -1496.433 3264.404 -1496.211 "></path>
    <path id="STROKE_b2827844-f493-40e6-965a-ff76d8877d98" opacity="1.000" fill="none" stroke="#000000" stroke-width="1.416" stroke-opacity="1.000" stroke-linecap="round" stroke-linejoin="round" d="M 3277.565 -1514.761 Q 3277.244 -1514.754 3277.146 -1514.929 Q 3277.047 -1515.105 3276.999 -1515.529 Q 3276.950 -1515.952 3277.001 -1515.899 Q 3277.053 -1515.846 3277.030 -1515.929 Q 3277.007 -1516.013 3277.881 -1516.298 Q 3278.754 -1516.583 3279.338 -1516.690 Q 3279.923 -1516.798 3280.332 -1516.679 Q 3280.742 -1516.560 3280.893 -1516.205 Q 3281.044 -1515.850 3281.170 -1515.155 "></path>
    <path id="STROKE_99e5d134-a379-4e1e-9576-a8c8ebb12141" opacity="1.000" fill="none" stroke="#000000" stroke-width="1.339" stroke-opacity="1.000" stroke-linecap="round" stroke-linejoin="round" d="M 3275.769 -1505.976 Q 3275.653 -1505.976 3275.195 -1505.976 Q 3274.981 -1507.028 3278.168 -1507.957 Q 3281.354 -1508.886 3280.566 -1508.685 Q 3279.778 -1508.484 3279.148 -1508.092 Q 3279.432 -1507.379 3279.414 -1507.305 Q 3279.396 -1507.230 3279.729 -1506.551 Q 3280.062 -1505.871 3279.300 -1498.272 Q 3279.706 -1498.044 3285.166 -1505.271 "></path>
    <path id="STROKE_64fd0730-ce44-40bc-8852-6c866f4c304b" opacity="1.000" fill="none" stroke="#000000" stroke-width="1.416" stroke-opacity="1.000" stroke-linecap="round" stroke-linejoin="round" d="M 3287.414 -1509.008 Q 3287.025 -1508.910 3286.804 -1508.853 Q 3286.987 -1508.594 3289.538 -1509.380 Q 3292.089 -1510.166 3293.672 -1510.662 Q 3295.254 -1511.158 3296.934 -1511.610 "></path>
    <path id="STROKE_3cd72457-76f0-4f18-822e-ded6bba870e5" opacity="1.000" fill="none" stroke="#000000" stroke-width="1.073" stroke-opacity="1.000" stroke-linecap="round" stroke-linejoin="round" d="M 3292.510 -1515.109 Q 3292.600 -1514.936 3291.997 -1515.970 Q 3291.967 -1515.724 3292.354 -1512.105 Q 3292.741 -1508.487 3292.681 -1505.398 Q 3292.622 -1502.310 3292.229 -1497.146 "></path>
    <path id="STROKE_ae1c8174-e87a-43d0-a49d-c55d1fd8c7c3" opacity="1.000" fill="none" stroke="#000000" stroke-width="1.380" stroke-opacity="1.000" stroke-linecap="round" stroke-linejoin="round" d="M 3305.744 -1519.433 Q 3305.660 -1519.397 3305.461 -1519.104 Q 3305.262 -1518.811 3305.252 -1518.708 Q 3305.241 -1518.604 3305.139 -1518.299 Q 3305.037 -1517.993 3304.476 -1516.594 Q 3303.916 -1515.195 3302.873 -1510.721 "></path>
    <path id="STROKE_c7df070f-ab75-4da2-b877-a7b48fc9e7f2" opacity="1.000" fill="none" stroke="#000000" stroke-width="1.416" stroke-opacity="1.000" stroke-linecap="round" stroke-linejoin="round" d="M 3304.424 -1514.724 Q 3304.412 -1514.826 3304.862 -1515.856 Q 3305.312 -1516.886 3305.873 -1517.486 Q 3306.433 -1518.086 3307.102 -1518.358 Q 3307.771 -1518.630 3308.295 -1518.528 Q 3308.819 -1518.427 3308.920 -1518.077 Q 3309.021 -1517.727 3308.997 -1517.842 Q 3308.972 -1517.956 3309.093 -1517.054 Q 3309.213 -1516.152 3308.225 -1514.605 Q 3307.917 -1514.615 3310.522 -1518.773 "></path>
    <path id="STROKE_6c806b66-b95d-49a7-9929-e1be7852b6a4" opacity="1.000" fill="none" stroke="#000000" stroke-width="1.416" stroke-opacity="1.000" stroke-linecap="round" stroke-linejoin="round" d="M 3311.488 -1520.211 Q 3312.114 -1520.689 3310.559 -1516.905 Q 3310.606 -1516.941 3310.533 -1516.837 Q 3310.460 -1516.732 3310.927 -1517.315 Q 3311.393 -1517.898 3312.423 -1518.862 Q 3313.454 -1519.826 3314.671 -1519.918 Q 3315.003 -1520.612 3314.396 -1516.666 Q 3314.549 -1516.667 3314.723 -1516.611 Q 3314.897 -1516.554 3315.325 -1517.683 "></path>
    <path id="STROKE_4e5bfeff-0b15-4254-a7c6-bf33c8f573f8" opacity="1.000" fill="none" stroke="#000000" stroke-width="1.416" stroke-opacity="1.000" stroke-linecap="round" stroke-linejoin="round" d="M 3309.582 -1512.508 Q 3309.577 -1512.630 3308.864 -1511.599 Q 3308.151 -1510.567 3307.814 -1509.762 Q 3307.478 -1508.957 3307.167 -1508.154 Q 3306.855 -1507.351 3307.528 -1505.527 Q 3307.553 -1505.402 3307.956 -1505.580 Q 3308.358 -1505.758 3308.558 -1507.083 Q 3308.757 -1508.407 3309.200 -1509.559 Q 3309.643 -1510.710 3310.136 -1511.272 Q 3310.630 -1511.834 3311.407 -1512.348 Q 3312.185 -1512.862 3312.737 -1512.724 Q 3313.289 -1512.586 3313.783 -1512.218 Q 3314.277 -1511.849 3314.536 -1511.295 Q 3314.795 -1510.742 3314.901 -1509.943 Q 3315.007 -1509.145 3314.005 -1507.295 "></path>
    <path id="STROKE_82d0de9c-12b8-4446-bccf-4b05bfc591d5" opacity="1.000" fill="none" stroke="#000000" stroke-width="1.244" stroke-opacity="1.000" stroke-linecap="round" stroke-linejoin="round" d="M 3309.899 -1507.057 Q 3309.691 -1507.594 3309.704 -1507.547 Q 3309.676 -1508.079 3309.593 -1508.431 Q 3309.510 -1508.784 3310.008 -1509.152 Q 3310.506 -1509.521 3310.798 -1509.600 Q 3311.089 -1509.679 3311.261 -1509.647 Q 3311.433 -1509.616 3311.639 -1509.495 Q 3311.846 -1509.374 3311.768 -1509.037 Q 3311.691 -1508.701 3311.910 -1508.201 Q 3312.130 -1507.702 3308.542 -1504.685 Q 3308.865 -1504.940 3310.017 -1506.011 Q 3311.169 -1507.082 3313.467 -1507.547 Q 3314.351 -1506.384 3311.706 -1503.877 Q 3309.062 -1501.371 3302.677 -1499.903 Q 3302.019 -1500.159 3319.993 -1503.640 "></path>
    <path id="STROKE_8ebc44da-8806-42d5-be5a-762eb1f79cb6" opacity="1.000" fill="none" stroke="#000000" stroke-width="1.416" stroke-opacity="1.000" stroke-linecap="round" stroke-linejoin="round" d="M 3311.133 -1503.017 Q 3310.836 -1502.942 3309.673 -1501.900 Q 3308.509 -1500.857 3308.518 -1498.423 Q 3308.977 -1498.048 3310.559 -1499.436 "></path>
    <path id="STROKE_f4945a20-62c5-4446-af06-3f896b25cf26" opacity="1.000" fill="none" stroke="#000000" stroke-width="1.416" stroke-opacity="1.000" stroke-linecap="round" stroke-linejoin="round" d="M 3314.433 -1502.779 Q 3314.831 -1503.552 3315.752 -1496.559 "></path>
    <path id="STROKE_bccb5e06-b89d-40b4-870a-b895f231111e" opacity="1.000" fill="none" stroke="#000000" stroke-width="1.416" stroke-opacity="1.000" stroke-linecap="round" stroke-linejoin="round" d="M 3269.219 -1455.713 Q 3269.219 -1455.731 3269.347 -1456.061 Q 3269.541 -1456.628 3271.431 -1454.742 "></path>
    <path id="STROKE_acf635fd-0a1f-4385-be62-33e1f5910553" opacity="1.000" fill="none" stroke="#000000" stroke-width="1.416" stroke-opacity="1.000" stroke-linecap="round" stroke-linejoin="round" d="M 3270.453 -1449.997 L 3270.453 -1449.979 Q 3270.164 -1449.957 3269.916 -1449.914 Q 3270.102 -1449.839 3271.309 -1450.381 "></path>
    <path id="STROKE_d99dd4c0-e781-43c8-ba9d-4908e290bd64" opacity="1.000" fill="none" stroke="#000000" stroke-width="1.416" stroke-opacity="1.000" stroke-linecap="round" stroke-linejoin="round" d="M 3281.366 -1466.760 Q 3282.201 -1466.760 3282.044 -1466.760 Q 3282.111 -1467.079 3289.443 -1467.887 "></path>
    <path id="STROKE_7544fb7d-8fb4-4882-9628-3f24eb6ab144" opacity="1.000" fill="none" stroke="#000000" stroke-width="1.416" stroke-opacity="1.000" stroke-linecap="round" stroke-linejoin="round" d="M 3281.476 -1463.261 Q 3280.969 -1463.134 3281.018 -1463.046 Q 3280.634 -1462.888 3280.667 -1460.912 Q 3280.699 -1458.936 3281.366 -1456.922 "></path>
    <path id="STROKE_3cd68d39-f8aa-4ae7-bcbf-a8649d5f3a8d" opacity="1.000" fill="none" stroke="#000000" stroke-width="1.322" stroke-opacity="1.000" stroke-linecap="round" stroke-linejoin="round" d="M 3282.331 -1461.548 Q 3282.521 -1461.690 3282.273 -1462.022 Q 3282.025 -1462.354 3283.409 -1463.453 Q 3284.793 -1464.552 3286.597 -1465.197 Q 3288.400 -1465.842 3289.623 -1465.961 Q 3290.846 -1466.081 3291.744 -1465.799 Q 3292.641 -1465.518 3292.740 -1464.239 Q 3292.838 -1462.961 3292.644 -1462.071 Q 3292.450 -1461.182 3291.765 -1460.339 "></path>
    <path id="STROKE_da75579b-5412-4e3d-89e9-953d6625050f" opacity="1.000" fill="none" stroke="#000000" stroke-width="1.413" stroke-opacity="1.000" stroke-linecap="round" stroke-linejoin="round" d="M 3286.021 -1459.258 Q 3285.656 -1459.297 3285.445 -1459.708 Q 3285.233 -1460.120 3285.179 -1460.924 Q 3285.124 -1461.729 3286.044 -1462.457 Q 3286.965 -1463.186 3287.664 -1463.435 Q 3288.363 -1463.683 3288.710 -1463.668 Q 3289.057 -1463.652 3289.090 -1463.609 Q 3289.124 -1463.566 3289.377 -1462.760 Q 3289.631 -1461.953 3288.591 -1460.669 Q 3287.550 -1459.385 3286.862 -1458.707 Q 3286.173 -1458.029 3284.738 -1457.188 Q 3285.137 -1457.497 3286.616 -1458.547 Q 3288.095 -1459.598 3290.763 -1460.540 "></path>
    <path id="STROKE_7e94fc25-419a-45cd-b30a-56f51873689b" opacity="1.000" fill="none" stroke="#000000" stroke-width="1.129" stroke-opacity="1.000" stroke-linecap="round" stroke-linejoin="round" d="M 3289.284 -1465.240 Q 3288.804 -1465.437 3288.838 -1465.359 Q 3288.180 -1465.437 3287.626 -1462.424 Q 3287.073 -1459.412 3286.041 -1456.916 Q 3285.009 -1454.421 3284.380 -1453.206 Q 3283.752 -1451.992 3283.131 -1450.972 Q 3282.509 -1449.952 3280.437 -1449.997 "></path>
    <path id="STROKE_1a5be364-a1ec-4ae3-80aa-6cd3c39a2a3e" opacity="1.000" fill="none" stroke="#000000" stroke-width="1.187" stroke-opacity="1.000" stroke-linecap="round" stroke-linejoin="round" d="M 3279.264 -1453.688 Q 3279.201 -1453.756 3281.331 -1452.991 Q 3283.460 -1452.227 3288.135 -1452.423 Q 3292.811 -1452.620 3301.088 -1451.939 "></path>
    <path id="STROKE_1f04fff1-65fd-44b7-b33f-1511c6cc5a23" opacity="1.000" fill="none" stroke="#000000" stroke-width="1.416" stroke-opacity="1.000" stroke-linecap="round" stroke-linejoin="round" d="M 3302.054 -1466.724 L 3302.036 -1466.724 Q 3301.944 -1467.132 3301.999 -1467.095 Q 3302.195 -1467.310 3303.233 -1467.593 Q 3304.271 -1467.876 3305.083 -1467.930 Q 3305.896 -1467.985 3306.563 -1467.264 "></path>
    <path id="STROKE_9278b193-52c4-4e34-b7e2-7648f10a5a9d" opacity="1.000" fill="none" stroke="#000000" stroke-width="1.416" stroke-opacity="1.000" stroke-linecap="round" stroke-linejoin="round" d="M 3301.589 -1462.446 Q 3300.444 -1463.538 3305.940 -1467.228 "></path>
    <path id="STROKE_35db5bd2-601d-4caa-94dc-fad523d9bae2" opacity="1.000" fill="none" stroke="#000000" stroke-width="1.278" stroke-opacity="1.000" stroke-linecap="round" stroke-linejoin="round" d="M 3302.836 -1462.244 Q 3302.438 -1461.801 3301.681 -1459.780 Q 3301.670 -1459.590 3302.583 -1459.943 Q 3303.496 -1460.296 3303.949 -1460.792 Q 3304.402 -1461.288 3305.632 -1462.735 Q 3306.862 -1464.183 3308.115 -1465.167 Q 3308.818 -1464.494 3301.040 -1456.720 Q 3301.160 -1456.658 3303.001 -1457.943 Q 3304.841 -1459.228 3308.268 -1459.565 Q 3308.365 -1459.331 3308.420 -1459.139 "></path>
    <path id="STROKE_65386e6e-db74-4618-a665-03d6e99566e2" opacity="1.000" fill="none" stroke="#000000" stroke-width="1.416" stroke-opacity="1.000" stroke-linecap="round" stroke-linejoin="round" d="M 3304.926 -1455.749 Q 3304.616 -1455.490 3303.569 -1454.971 Q 3303.785 -1454.947 3308.115 -1458.983 "></path>
    <path id="STROKE_76835a9f-9428-44f6-8cef-c800e1184559" opacity="1.000" fill="none" stroke="#000000" stroke-width="1.382" stroke-opacity="1.000" stroke-linecap="round" stroke-linejoin="round" d="M 3307.101 -1458.122 Q 3306.847 -1458.009 3306.891 -1455.962 Q 3306.934 -1453.915 3306.953 -1452.781 Q 3306.972 -1451.648 3306.681 -1451.043 Q 3306.390 -1450.438 3306.423 -1450.558 Q 3306.457 -1450.677 3306.222 -1450.478 Q 3305.988 -1450.279 3305.126 -1450.196 Q 3304.264 -1450.113 3302.909 -1451.549 Q 3303.587 -1452.402 3305.147 -1453.839 Q 3306.708 -1455.275 3314.591 -1456.372 "></path>
    <path id="STROKE_4e86e488-683b-4018-9610-1a3cd90343c4" opacity="1.000" fill="none" stroke="#000000" stroke-width="1.416" stroke-opacity="1.000" stroke-linecap="round" stroke-linejoin="round" d="M 3316.767 -1467.310 Q 3316.715 -1467.325 3316.056 -1467.477 Q 3315.397 -1467.629 3314.432 -1466.761 Q 3313.466 -1465.893 3313.030 -1464.612 Q 3312.594 -1463.331 3312.624 -1460.348 Q 3312.653 -1457.365 3312.654 -1455.523 Q 3312.654 -1453.681 3312.416 -1452.744 Q 3312.178 -1451.806 3311.928 -1450.788 Q 3311.679 -1449.771 3309.813 -1449.759 "></path>
    <path id="STROKE_4f30e1d1-dd46-43de-a1fe-44762de03df0" opacity="1.000" fill="none" stroke="#000000" stroke-width="1.293" stroke-opacity="1.000" stroke-linecap="round" stroke-linejoin="round" d="M 3311.219 -1456.491 Q 3311.681 -1456.927 3311.659 -1456.936 Q 3312.002 -1457.213 3313.991 -1458.950 Q 3315.980 -1460.688 3317.513 -1461.568 Q 3319.045 -1462.449 3320.555 -1462.386 Q 3320.671 -1462.060 3320.652 -1461.475 "></path>
    <path id="STROKE_871dce00-acf3-4149-94ca-d543ef55b90b" opacity="1.000" fill="none" stroke="#000000" stroke-width="1.319" stroke-opacity="1.000" stroke-linecap="round" stroke-linejoin="round" d="M 3316.840 -1460.183 Q 3316.822 -1460.206 3316.589 -1460.169 Q 3316.390 -1460.061 3316.506 -1455.963 Q 3316.622 -1451.865 3317.121 -1447.386 "></path>
    <path id="STROKE_435b3951-1b22-407d-89c4-92605d6cf334" opacity="1.000" fill="none" stroke="#000000" stroke-width="1.120" stroke-opacity="1.000" stroke-linecap="round" stroke-linejoin="round" d="M 3205.627 -1560.774 Q 3205.627 -1560.774 3205.609 -1560.774 Q 3205.633 -1559.513 3205.564 -1559.628 Q 3205.495 -1559.743 3205.710 -1555.812 Q 3205.925 -1551.881 3206.103 -1549.149 Q 3206.281 -1546.416 3206.500 -1542.764 L 3206.519 -1542.764 Q 3206.580 -1542.884 3206.641 -1543.002 "></path>
    <path id="STROKE_f8b81c69-25f1-4dfa-bc5a-bd0a97bbaa2b" opacity="1.000" fill="none" stroke="#000000" stroke-width="1.204" stroke-opacity="1.000" stroke-linecap="round" stroke-linejoin="round" d="M 3205.358 -1560.618 Q 3205.262 -1560.587 3204.539 -1560.508 Q 3204.211 -1560.078 3208.028 -1561.105 Q 3211.845 -1562.131 3214.096 -1562.754 Q 3216.347 -1563.377 3217.553 -1563.490 Q 3218.758 -1563.603 3219.550 -1563.524 Q 3220.341 -1563.446 3221.181 -1557.968 Q 3222.021 -1552.490 3222.606 -1544.248 L 3222.625 -1544.248 Q 3222.649 -1544.381 3222.674 -1544.514 "></path>
    <path id="STROKE_a92222b8-84f9-4a1b-8180-df130230cc0f" opacity="1.000" fill="none" stroke="#000000" stroke-width="1.338" stroke-opacity="1.000" stroke-linecap="round" stroke-linejoin="round" d="M 3213.936 -1562.294 Q 3213.895 -1562.332 3212.897 -1562.252 Q 3211.899 -1562.173 3208.621 -1554.206 Q 3208.534 -1553.757 3209.854 -1555.251 Q 3211.174 -1556.745 3212.243 -1557.899 Q 3213.312 -1559.054 3214.706 -1559.258 Q 3215.299 -1558.265 3213.981 -1555.929 Q 3212.664 -1553.594 3211.603 -1552.459 Q 3210.541 -1551.323 3209.986 -1550.917 Q 3209.431 -1550.510 3208.952 -1550.211 Q 3208.472 -1549.913 3207.820 -1550.139 Q 3207.666 -1550.366 3208.107 -1552.529 "></path>
    <path id="STROKE_ebef7160-a934-446c-a356-fb1e42b6088a" opacity="1.000" fill="none" stroke="#000000" stroke-width="1.416" stroke-opacity="1.000" stroke-linecap="round" stroke-linejoin="round" d="M 3210.515 -1555.021 Q 3211.351 -1555.021 3211.254 -1555.021 Q 3211.632 -1554.939 3212.106 -1554.032 Q 3212.580 -1553.125 3213.064 -1552.625 Q 3213.549 -1552.125 3214.247 -1551.872 Q 3214.945 -1551.618 3215.554 -1551.432 Q 3216.164 -1551.247 3216.613 -1550.853 "></path>
    <path id="STROKE_d9cec8e7-7be1-49f6-8ad8-d110b4ec778b" opacity="1.000" fill="none" stroke="#000000" stroke-width="1.292" stroke-opacity="1.000" stroke-linecap="round" stroke-linejoin="round" d="M 3213.851 -1548.251 Q 3213.732 -1548.167 3212.299 -1548.174 Q 3212.102 -1548.330 3212.255 -1548.786 Q 3212.408 -1549.242 3213.064 -1549.403 Q 3213.719 -1549.563 3214.286 -1549.681 Q 3214.852 -1549.799 3215.121 -1549.372 Q 3215.389 -1548.945 3215.576 -1548.509 Q 3215.762 -1548.073 3215.537 -1547.644 Q 3215.311 -1547.216 3214.962 -1546.886 Q 3214.614 -1546.556 3213.386 -1546.190 Q 3213.477 -1546.161 3213.298 -1546.123 Q 3213.119 -1546.085 3213.743 -1546.617 Q 3214.368 -1547.149 3214.930 -1547.323 Q 3215.492 -1547.497 3216.087 -1547.239 Q 3216.547 -1546.728 3215.053 -1544.760 Q 3213.559 -1542.792 3208.376 -1540.978 Q 3208.719 -1540.809 3211.837 -1542.355 Q 3214.955 -1543.902 3222.160 -1544.871 "></path>
    <path id="STROKE_3c671c78-c200-4fb2-8565-6ee77bffd0b7" opacity="1.000" fill="none" stroke="#000000" stroke-width="1.124" stroke-opacity="1.000" stroke-linecap="round" stroke-linejoin="round" d="M 3238.120 -1565.675 Q 3238.140 -1565.932 3238.278 -1567.314 Q 3238.152 -1567.071 3236.343 -1563.738 Q 3234.534 -1560.406 3230.348 -1556.963 Q 3233.717 -1558.428 3233.537 -1546.465 Q 3233.537 -1546.484 3233.769 -1547.125 "></path>
    <path id="STROKE_819bbc78-e2c7-4df4-8816-2a0d2f9d29d1" opacity="1.000" fill="none" stroke="#000000" stroke-width="1.355" stroke-opacity="1.000" stroke-linecap="round" stroke-linejoin="round" d="M 3238.462 -1562.056 Q 3238.083 -1561.857 3238.120 -1561.827 Q 3237.949 -1561.605 3237.887 -1561.589 Q 3237.859 -1561.535 3239.292 -1562.791 Q 3240.724 -1564.047 3242.162 -1565.119 Q 3243.599 -1566.191 3245.323 -1566.050 Q 3245.458 -1565.132 3245.119 -1564.263 Q 3244.779 -1563.394 3243.690 -1562.800 Q 3242.601 -1562.206 3241.881 -1562.068 Q 3241.161 -1561.930 3239.979 -1560.026 Q 3238.796 -1558.121 3238.156 -1555.800 Q 3238.666 -1555.677 3239.882 -1556.938 Q 3241.098 -1558.199 3243.478 -1558.580 Q 3244.109 -1557.806 3243.513 -1555.603 Q 3242.917 -1553.400 3241.878 -1552.018 Q 3240.839 -1550.635 3240.095 -1550.034 Q 3239.351 -1549.432 3238.648 -1549.234 Q 3237.945 -1549.037 3237.628 -1549.585 Q 3237.311 -1550.133 3237.333 -1551.068 Q 3237.355 -1552.004 3237.343 -1552.411 Q 3237.330 -1552.818 3237.594 -1553.576 Q 3237.858 -1554.335 3237.968 -1554.490 Q 3238.079 -1554.646 3239.048 -1554.181 Q 3240.017 -1553.715 3240.620 -1553.402 Q 3241.223 -1553.089 3241.975 -1553.022 Q 3242.726 -1552.955 3244.095 -1554.004 "></path>
    <path id="STROKE_4733a40b-72ef-440b-a20a-7d83e1911af9" opacity="1.000" fill="none" stroke="#000000" stroke-width="1.416" stroke-opacity="1.000" stroke-linecap="round" stroke-linejoin="round" d="M 3247.395 -1561.396 Q 3247.431 -1561.419 3247.572 -1561.479 Q 3247.590 -1561.620 3247.724 -1555.465 Q 3248.054 -1555.331 3248.409 -1555.763 "></path>
    <path id="STROKE_9e259177-5e58-43b6-b1d5-6fac7ba138cb" opacity="1.000" fill="none" stroke="#000000" stroke-width="1.107" stroke-opacity="1.000" stroke-linecap="round" stroke-linejoin="round" d="M 3253.492 -1567.818 Q 3253.427 -1568.319 3253.507 -1562.854 Q 3253.586 -1557.390 3253.666 -1554.323 Q 3253.745 -1551.255 3253.738 -1549.884 Q 3253.730 -1548.513 3253.410 -1547.654 Q 3253.090 -1546.795 3251.666 -1546.642 Q 3250.241 -1546.489 3248.604 -1547.281 "></path>
    <path id="STROKE_8bbb2674-8760-4e06-bd93-0b442692387a" opacity="1.000" fill="none" stroke="#000000" stroke-width="1.416" stroke-opacity="1.000" stroke-linecap="round" stroke-linejoin="round" d="M 3262.376 -1547.629 Q 3262.378 -1548.079 3262.358 -1548.073 Q 3262.321 -1548.174 3262.266 -1548.325 Q 3262.956 -1548.447 3264.087 -1547.317 "></path>
    <path id="STROKE_c91efa00-ab02-4c25-921b-425beb5347ed" opacity="1.000" fill="none" stroke="#000000" stroke-width="1.416" stroke-opacity="1.000" stroke-linecap="round" stroke-linejoin="round" d="M 3263.427 -1542.728 Q 3263.589 -1542.689 3262.694 -1542.380 Q 3262.688 -1542.321 3263.390 -1542.746 Q 3263.583 -1542.667 3262.694 -1542.380 Q 3262.632 -1542.274 3262.895 -1542.442 Q 3263.158 -1542.609 3263.354 -1542.764 "></path>
  </g>
  <g id="New_Layer_1" opacity="1.000">
    <path id="STROKE_b6871100-2d71-47e5-a2ea-31ce51f04bc9" opacity="1.000" fill="none" stroke="#d90012" stroke-width="1.129" stroke-opacity="1.000" stroke-linecap="round" stroke-linejoin="round" d="M 3617.413 -1450.317 Q 3616.497 -1449.558 3616.170 -1445.116 Q 3615.844 -1440.674 3615.715 -1437.881 Q 3615.586 -1435.089 3616.483 -1433.182 Q 3617.380 -1431.276 3619.742 -1429.121 Q 3622.104 -1426.966 3624.614 -1425.871 Q 3627.123 -1424.777 3628.521 -1424.313 Q 3629.918 -1423.850 3634.206 -1423.580 Q 3638.493 -1423.311 3642.496 -1423.835 Q 3646.500 -1424.359 3648.450 -1424.812 Q 3650.400 -1425.264 3652.076 -1425.857 Q 3653.751 -1426.451 3656.333 -1428.009 Q 3658.915 -1429.566 3661.584 -1432.193 Q 3664.253 -1434.820 3665.715 -1436.716 Q 3667.177 -1438.612 3668.034 -1440.755 Q 3668.892 -1442.897 3668.927 -1445.568 Q 3668.963 -1448.239 3667.930 -1450.727 Q 3666.897 -1453.215 3664.681 -1455.858 Q 3662.465 -1458.500 3658.941 -1460.675 Q 3655.417 -1462.850 3652.784 -1464.124 Q 3650.151 -1465.398 3647.274 -1465.932 Q 3644.397 -1466.467 3641.043 -1465.826 Q 3637.688 -1465.185 3633.655 -1463.403 Q 3629.621 -1461.621 3627.355 -1460.437 Q 3625.089 -1459.252 3623.490 -1458.122 Q 3621.890 -1456.992 3620.620 -1455.459 Q 3619.349 -1453.926 3618.679 -1451.779 Q 3618.009 -1449.632 3617.678 -1448.013 Q 3617.347 -1446.395 3618.000 -1442.726 "></path>
    <path id="STROKE_bceb042a-31e2-421a-9ef0-e29e24c5ebc5" opacity="1.000" fill="none" stroke="#0c32f2" stroke-width="1.026" stroke-opacity="1.000" stroke-linecap="round" stroke-linejoin="round" d="M 3671.253 -1429.356 Q 3672.102 -1429.179 3677.164 -1427.463 Q 3682.226 -1425.747 3685.625 -1424.438 Q 3689.023 -1423.130 3690.742 -1422.502 Q 3692.460 -1421.874 3696.861 -1419.794 Q 3701.262 -1417.715 3704.087 -1416.217 Q 3706.912 -1414.719 3710.266 -1413.080 Q 3713.621 -1411.441 3717.390 -1410.042 Q 3721.160 -1408.643 3723.763 -1407.973 Q 3726.366 -1407.303 3728.203 -1406.697 Q 3730.041 -1406.091 3730.198 -1404.531 Q 3729.342 -1404.488 3729.375 -1404.505 Q 3727.830 -1403.493 3714.043 -1407.948 L 3714.043 -1407.980 Q 3714.958 -1407.402 3732.062 -1405.173 Q 3732.419 -1405.553 3729.672 -1406.463 Q 3726.925 -1407.372 3724.647 -1408.289 Q 3722.370 -1409.206 3720.784 -1411.495 Q 3719.198 -1413.784 3718.359 -1417.057 "></path>
    <path id="STROKE_4932c560-204c-471e-9b56-0dda1e5c02fc" opacity="1.000" fill="none" stroke="#0c32f2" stroke-width="1.416" stroke-opacity="1.000" stroke-linecap="round" stroke-linejoin="round" d="M 3703.231 -1417.898 L 3703.159 -1417.164 Q 3703.210 -1417.795 3703.163 -1417.922 "></path>
    <path id="STROKE_68a1d205-edb2-46a4-b231-38da9208e46e" opacity="1.000" fill="none" stroke="#0c32f2" stroke-width="0.825" stroke-opacity="1.000" stroke-linecap="round" stroke-linejoin="round" d="M 3486.440 -1377.561 Q 3486.459 -1377.360 3484.843 -1377.650 Q 3483.227 -1377.940 3481.436 -1377.540 Q 3479.645 -1377.141 3479.042 -1376.712 Q 3478.439 -1376.283 3477.452 -1374.234 Q 3476.465 -1372.185 3476.314 -1370.698 Q 3476.162 -1369.212 3476.098 -1368.531 Q 3476.034 -1367.850 3475.908 -1363.674 Q 3475.782 -1359.499 3476.628 -1355.500 Q 3477.474 -1351.502 3479.277 -1348.288 Q 3481.080 -1345.073 3482.969 -1343.079 Q 3484.857 -1341.084 3486.368 -1340.181 Q 3487.878 -1339.277 3488.861 -1338.606 Q 3489.843 -1337.934 3493.577 -1337.294 Q 3497.310 -1336.654 3501.096 -1336.628 Q 3504.883 -1336.603 3508.273 -1337.995 Q 3511.664 -1339.386 3514.393 -1342.137 Q 3517.122 -1344.887 3518.498 -1347.355 Q 3519.874 -1349.823 3520.333 -1353.636 Q 3520.792 -1357.448 3519.634 -1361.420 Q 3518.475 -1365.391 3516.473 -1368.299 Q 3514.470 -1371.208 3512.719 -1373.023 Q 3510.968 -1374.839 3505.804 -1375.952 Q 3500.640 -1377.065 3488.840 -1376.687 "></path>
    <path id="STROKE_0efdf2ec-7638-4f2d-a84d-35837c4eb357" opacity="1.000" fill="none" stroke="#0c32f2" stroke-width="0.783" stroke-opacity="1.000" stroke-linecap="round" stroke-linejoin="round" d="M 3747.696 -1418.073 Q 3746.746 -1418.930 3743.031 -1417.216 Q 3739.315 -1415.501 3737.605 -1413.863 Q 3735.896 -1412.226 3734.050 -1410.229 Q 3732.204 -1408.232 3730.294 -1404.197 Q 3728.383 -1400.162 3727.847 -1395.767 Q 3727.311 -1391.372 3727.377 -1387.988 Q 3727.442 -1384.605 3728.927 -1381.929 Q 3730.412 -1379.253 3732.613 -1377.365 Q 3734.814 -1375.477 3737.291 -1374.429 Q 3739.769 -1373.382 3742.599 -1372.945 Q 3745.428 -1372.507 3748.558 -1373.446 Q 3751.688 -1374.385 3755.173 -1377.475 Q 3758.658 -1380.565 3761.126 -1383.520 Q 3763.594 -1386.474 3764.789 -1390.025 Q 3765.983 -1393.575 3766.203 -1397.394 Q 3766.424 -1401.212 3766.320 -1404.440 Q 3766.216 -1407.669 3765.091 -1410.581 Q 3763.967 -1413.494 3762.448 -1415.238 Q 3760.929 -1416.981 3758.332 -1417.575 Q 3755.735 -1418.168 3751.890 -1416.885 Q 3748.045 -1415.602 3738.487 -1407.024 "></path>
    <path id="STROKE_70145d4d-d0ef-424f-9e70-2269fe21adbe" opacity="1.000" fill="none" stroke="#0c32f2" stroke-width="1.335" stroke-opacity="1.000" stroke-linecap="round" stroke-linejoin="round" d="M 3633.796 -1342.437 Q 3633.796 -1342.437 3633.939 -1342.335 Q 3634.082 -1342.233 3631.520 -1342.507 Q 3628.957 -1342.781 3626.179 -1342.148 Q 3623.401 -1341.515 3622.041 -1340.792 Q 3620.680 -1340.069 3619.671 -1339.837 Q 3618.662 -1339.604 3616.589 -1337.823 Q 3614.515 -1336.042 3613.671 -1335.206 Q 3612.827 -1334.370 3611.418 -1332.041 Q 3610.010 -1329.712 3608.932 -1324.918 Q 3607.853 -1320.123 3607.476 -1317.032 Q 3607.099 -1313.941 3606.983 -1311.565 Q 3606.867 -1309.189 3607.131 -1306.886 Q 3607.395 -1304.582 3608.921 -1302.327 Q 3610.447 -1300.072 3611.988 -1298.628 Q 3613.528 -1297.184 3615.842 -1296.244 Q 3618.157 -1295.304 3622.682 -1294.916 Q 3627.207 -1294.528 3631.458 -1295.085 Q 3635.708 -1295.641 3638.753 -1296.529 Q 3641.799 -1297.416 3644.472 -1298.787 Q 3647.145 -1300.157 3650.264 -1302.666 Q 3653.383 -1305.174 3656.115 -1308.727 Q 3658.847 -1312.280 3660.365 -1314.874 Q 3661.882 -1317.469 3662.467 -1319.979 Q 3663.052 -1322.489 3662.127 -1325.313 Q 3661.201 -1328.137 3660.177 -1329.709 Q 3659.154 -1331.281 3657.151 -1333.470 Q 3655.149 -1335.658 3652.475 -1337.208 Q 3649.800 -1338.757 3646.136 -1339.590 Q 3642.471 -1340.423 3638.596 -1340.458 Q 3634.721 -1340.494 3628.982 -1339.801 "></path>
    <path id="STROKE_c3cd5634-1ed2-416f-9cfd-29589f8cdd8d" opacity="1.000" fill="none" stroke="#0c32f2" stroke-width="1.148" stroke-opacity="1.000" stroke-linecap="round" stroke-linejoin="round" d="M 3590.090 -1532.137 Q 3589.164 -1532.137 3589.432 -1532.137 Q 3588.272 -1532.214 3588.576 -1532.218 Q 3588.641 -1532.300 3587.221 -1532.515 Q 3585.802 -1532.730 3584.463 -1532.393 Q 3583.125 -1532.055 3582.126 -1531.288 Q 3581.127 -1530.521 3580.779 -1530.189 Q 3580.431 -1529.857 3578.794 -1527.837 Q 3577.157 -1525.817 3576.259 -1523.770 Q 3575.362 -1521.723 3575.017 -1518.823 Q 3574.673 -1515.923 3574.970 -1513.625 Q 3575.268 -1511.326 3575.563 -1510.661 Q 3575.859 -1509.995 3576.886 -1508.577 Q 3577.913 -1507.159 3579.845 -1506.158 Q 3581.777 -1505.157 3584.963 -1504.946 Q 3588.149 -1504.734 3591.767 -1505.433 Q 3595.385 -1506.132 3598.952 -1507.703 Q 3602.519 -1509.274 3605.162 -1511.380 Q 3607.804 -1513.485 3609.196 -1515.449 Q 3610.588 -1517.413 3610.975 -1519.251 Q 3611.363 -1521.089 3611.363 -1522.363 Q 3611.362 -1523.637 3608.537 -1526.418 Q 3605.712 -1529.199 3603.394 -1531.017 Q 3601.075 -1532.834 3599.404 -1533.551 Q 3597.732 -1534.267 3595.663 -1534.442 Q 3593.593 -1534.617 3591.124 -1533.825 Q 3588.655 -1533.033 3582.247 -1523.919 "></path>
    <path id="STROKE_7504c144-2073-43cc-9b5e-e8fba68cd7f8" opacity="1.000" fill="none" stroke="#0c32f2" stroke-width="1.416" stroke-opacity="1.000" stroke-linecap="round" stroke-linejoin="round" d="M 3598.456 -1504.753 Q 3597.371 -1505.494 3596.744 -1492.467 Q 3596.771 -1492.467 3597.140 -1492.872 "></path>
    <path id="STROKE_53e56018-f3f7-4331-be59-90a0f91ed656" opacity="1.000" fill="none" stroke="#0c32f2" stroke-width="1.416" stroke-opacity="1.000" stroke-linecap="round" stroke-linejoin="round" d="M 3598.979 -1504.753 Q 3598.979 -1504.780 3598.979 -1504.807 Q 3598.859 -1504.582 3599.401 -1502.754 Q 3599.944 -1500.926 3600.566 -1500.155 Q 3601.188 -1499.384 3604.298 -1497.008 "></path>
    <path id="STROKE_2944260e-3b13-4638-88f7-ea7b2928d98b" opacity="1.000" fill="none" stroke="#0c32f2" stroke-width="1.024" stroke-opacity="1.000" stroke-linecap="round" stroke-linejoin="round" d="M 3598.456 -1502.401 Q 3598.429 -1502.455 3598.375 -1502.577 Q 3598.312 -1502.577 3598.276 -1502.577 Q 3598.130 -1500.604 3599.784 -1495.127 Q 3601.437 -1489.651 3603.946 -1482.978 Q 3606.454 -1476.306 3608.378 -1471.524 Q 3610.302 -1466.742 3611.950 -1463.827 Q 3613.598 -1460.912 3614.661 -1459.589 Q 3615.723 -1458.266 3616.632 -1457.419 Q 3617.540 -1456.572 3618.040 -1456.434 Q 3618.540 -1456.297 3618.775 -1456.303 Q 3619.010 -1456.309 3618.972 -1456.302 Q 3618.934 -1456.294 3619.453 -1456.372 Q 3619.822 -1456.143 3619.192 -1458.893 "></path>
    <path id="STROKE_b9a2347c-5c58-4e94-bef7-ba8cb5b2b872" opacity="1.000" fill="none" stroke="#0c32f2" stroke-width="1.183" stroke-opacity="1.000" stroke-linecap="round" stroke-linejoin="round" d="M 3643.135 -1413.316 Q 3643.136 -1413.316 3643.185 -1413.361 Q 3643.233 -1413.406 3643.172 -1413.330 Q 3643.112 -1413.254 3642.796 -1412.811 Q 3642.481 -1412.367 3642.463 -1412.291 Q 3642.446 -1412.215 3642.458 -1412.163 Q 3642.471 -1412.112 3642.490 -1412.370 Q 3642.510 -1412.629 3640.969 -1406.454 Q 3639.428 -1400.279 3638.299 -1395.397 Q 3637.169 -1390.516 3636.997 -1380.450 Q 3636.825 -1370.385 3636.851 -1365.536 Q 3636.876 -1360.687 3637.037 -1357.999 Q 3637.198 -1355.311 3637.168 -1353.912 Q 3637.141 -1354.061 3637.114 -1354.209 "></path>
    <path id="STROKE_137057f4-f0d5-4849-8151-6e05065e1684" opacity="1.000" fill="none" stroke="#0c32f2" stroke-width="1.134" stroke-opacity="1.000" stroke-linecap="round" stroke-linejoin="round" d="M 3631.740 -1365.401 Q 3631.741 -1364.628 3631.741 -1364.678 Q 3632.075 -1363.163 3632.074 -1363.414 Q 3632.173 -1362.916 3637.087 -1350.587 Q 3637.983 -1351.037 3637.835 -1351.250 Q 3638.437 -1350.886 3643.929 -1371.078 "></path>
    <path id="STROKE_d8147381-37d8-4740-88fb-f538807bcd4e" opacity="1.000" fill="none" stroke="#0c32f2" stroke-width="1.361" stroke-opacity="1.000" stroke-linecap="round" stroke-linejoin="round" d="M 3611.009 -1437.049 Q 3610.818 -1437.189 3610.810 -1437.175 Q 3610.708 -1437.333 3608.846 -1437.331 Q 3606.984 -1437.329 3603.669 -1436.242 Q 3600.354 -1435.155 3598.292 -1434.443 Q 3596.231 -1433.731 3594.260 -1432.446 Q 3592.289 -1431.161 3590.273 -1429.400 Q 3588.258 -1427.639 3586.622 -1425.834 Q 3584.986 -1424.028 3583.092 -1420.790 Q 3581.197 -1417.551 3580.017 -1415.464 Q 3578.837 -1413.377 3578.213 -1411.795 Q 3577.588 -1410.213 3577.348 -1407.805 Q 3577.108 -1405.397 3576.580 -1403.085 Q 3576.052 -1400.772 3575.786 -1399.500 Q 3575.521 -1398.227 3575.527 -1396.460 Q 3575.533 -1394.692 3575.707 -1392.974 Q 3575.880 -1391.256 3576.292 -1389.185 Q 3576.703 -1387.115 3576.858 -1385.239 Q 3576.726 -1385.202 3576.089 -1387.870 Q 3575.452 -1390.538 3574.034 -1393.715 L 3574.021 -1393.715 Q 3573.938 -1393.537 3577.155 -1386.816 Q 3577.276 -1386.765 3577.608 -1389.032 Q 3577.939 -1391.299 3578.141 -1392.524 Q 3578.344 -1393.749 3578.665 -1394.668 Q 3578.986 -1395.588 3579.413 -1396.723 "></path>
    <path id="STROKE_e779dec9-549e-48b0-98ed-23c8f7bf3b79" opacity="1.000" fill="none" stroke="#00b347" stroke-width="1.416" stroke-opacity="1.000" stroke-linecap="round" stroke-linejoin="round" d="M 3596.431 -1425.346 Q 3596.431 -1425.359 3596.431 -1425.485 Q 3596.326 -1424.729 3596.369 -1424.948 Q 3596.389 -1424.419 3596.376 -1422.030 Q 3596.363 -1419.641 3596.175 -1416.929 Q 3596.175 -1416.972 3596.033 -1417.267 "></path>
    <path id="STROKE_e572d3c2-7e69-4ffe-9fcb-662b9dd778c3" opacity="1.000" fill="none" stroke="#00b347" stroke-width="1.416" stroke-opacity="1.000" stroke-linecap="round" stroke-linejoin="round" d="M 3593.284 -1423.404 Q 3593.284 -1423.404 3593.559 -1423.491 Q 3593.834 -1423.577 3593.691 -1423.517 Q 3593.958 -1423.537 3594.069 -1423.541 Q 3594.179 -1423.546 3594.178 -1423.541 Q 3594.176 -1423.536 3594.137 -1423.562 Q 3594.098 -1423.588 3595.583 -1423.484 "></path>
    <path id="STROKE_936c9458-037a-45da-8760-31a1aff27644" opacity="1.000" fill="none" stroke="#00b347" stroke-width="1.416" stroke-opacity="1.000" stroke-linecap="round" stroke-linejoin="round" d="M 3593.257 -1421.204 Q 3592.492 -1421.274 3595.724 -1421.714 "></path>
    <path id="STROKE_c09ae509-c6de-4f3d-a819-9fcd17d4b48f" opacity="1.000" fill="none" stroke="#00b347" stroke-width="1.416" stroke-opacity="1.000" stroke-linecap="round" stroke-linejoin="round" d="M 3592.665 -1419.010 Q 3592.841 -1419.473 3592.820 -1419.309 Q 3593.544 -1419.409 3593.328 -1419.375 Q 3593.432 -1418.950 3595.980 -1420.309 "></path>
    <path id="STROKE_dd3299d0-c647-48e6-b100-46c792e42ae6" opacity="1.000" fill="none" stroke="#00b347" stroke-width="1.416" stroke-opacity="1.000" stroke-linecap="round" stroke-linejoin="round" d="M 3598.588 -1424.922 Q 3598.588 -1424.960 3598.588 -1425.684 Q 3598.588 -1425.618 3598.588 -1416.903 Q 3598.825 -1417.030 3599.101 -1418.030 "></path>
    <path id="STROKE_38ec0364-bf6e-447d-9ce4-ad4a25c0b2d1" opacity="1.000" fill="none" stroke="#00b347" stroke-width="1.416" stroke-opacity="1.000" stroke-linecap="round" stroke-linejoin="round" d="M 3599.578 -1422.841 Q 3599.578 -1422.841 3599.253 -1422.784 Q 3598.929 -1422.728 3602.186 -1423.527 Q 3602.270 -1423.344 3602.328 -1423.205 "></path>
    <path id="STROKE_fb72ac2d-b82a-469f-99be-d77c73e96dd0" opacity="1.000" fill="none" stroke="#00b347" stroke-width="1.416" stroke-opacity="1.000" stroke-linecap="round" stroke-linejoin="round" d="M 3599.684 -1420.813 Q 3599.685 -1420.813 3599.726 -1420.797 Q 3599.767 -1420.781 3599.625 -1420.757 Q 3599.484 -1420.734 3599.846 -1421.034 Q 3600.209 -1421.335 3600.594 -1421.444 Q 3600.979 -1421.553 3601.824 -1421.403 "></path>
    <path id="STROKE_0901e376-ac66-40a9-93fb-1c78b3d7979c" opacity="1.000" fill="none" stroke="#00b347" stroke-width="1.416" stroke-opacity="1.000" stroke-linecap="round" stroke-linejoin="round" d="M 3599.066 -1418.334 Q 3599.039 -1418.334 3598.986 -1418.334 Q 3599.212 -1418.956 3599.212 -1418.802 Q 3600.080 -1420.010 3602.717 -1419.070 "></path>
    <path id="STROKE_10986a02-a889-4996-809e-0e73448fa198" opacity="1.000" fill="none" stroke="#00b347" stroke-width="1.416" stroke-opacity="1.000" stroke-linecap="round" stroke-linejoin="round" d="M 3700.121 -1436.884 Q 3699.544 -1436.874 3699.710 -1436.867 Q 3699.433 -1436.838 3694.976 -1432.775 "></path>
    <path id="STROKE_2186cefe-d99b-4b67-8b6d-702d146f8be9" opacity="1.000" fill="none" stroke="#00b347" stroke-width="1.416" stroke-opacity="1.000" stroke-linecap="round" stroke-linejoin="round" d="M 3695.568 -1431.310 Q 3695.607 -1431.542 3695.458 -1431.447 Q 3695.309 -1431.352 3695.726 -1431.683 Q 3696.143 -1432.014 3696.832 -1432.148 Q 3697.520 -1432.282 3699.272 -1432.775 "></path>
    <path id="STROKE_2adcccff-4d7a-4719-83af-8f70121c1a8a" opacity="1.000" fill="none" stroke="#00b347" stroke-width="1.280" stroke-opacity="1.000" stroke-linecap="round" stroke-linejoin="round" d="M 3692.368 -1426.439 Q 3692.133 -1426.357 3692.059 -1426.386 Q 3692.130 -1426.522 3694.135 -1427.479 Q 3696.140 -1428.435 3698.189 -1429.012 Q 3700.239 -1429.590 3702.782 -1429.083 "></path>
    <path id="STROKE_bbadaeb5-10f2-4bf4-9f91-9b1d409c0766" opacity="1.000" fill="none" stroke="#00b347" stroke-width="1.354" stroke-opacity="1.000" stroke-linecap="round" stroke-linejoin="round" d="M 3697.813 -1433.895 Q 3697.814 -1433.895 3697.807 -1433.895 Q 3697.801 -1433.895 3697.774 -1433.895 Q 3697.554 -1433.422 3697.908 -1430.784 Q 3698.261 -1428.146 3698.359 -1426.669 Q 3698.456 -1425.193 3698.451 -1424.453 Q 3698.445 -1423.713 3698.276 -1423.425 Q 3698.108 -1423.137 3697.881 -1423.100 Q 3697.654 -1423.063 3697.429 -1423.096 Q 3697.203 -1423.130 3696.187 -1425.313 "></path>
    <path id="STROKE_e339d768-7219-488b-99f0-dcb3af1fa6f8" opacity="1.000" fill="none" stroke="#00b347" stroke-width="1.416" stroke-opacity="1.000" stroke-linecap="round" stroke-linejoin="round" d="M 3612.945 -1487.985 L 3612.945 -1487.972 Q 3612.919 -1487.959 3612.830 -1487.959 Q 3612.451 -1487.883 3613.479 -1488.107 Q 3614.508 -1488.331 3615.124 -1488.295 Q 3615.740 -1488.259 3616.013 -1488.274 Q 3616.285 -1488.289 3616.356 -1488.114 Q 3616.427 -1487.940 3616.642 -1487.186 Q 3616.857 -1486.432 3614.377 -1482.511 Q 3614.190 -1482.579 3615.138 -1482.521 Q 3616.086 -1482.463 3616.715 -1482.565 Q 3617.345 -1482.667 3617.765 -1482.356 Q 3618.185 -1482.044 3618.544 -1481.583 Q 3618.903 -1481.122 3619.097 -1480.200 Q 3619.291 -1479.278 3619.317 -1478.032 Q 3619.344 -1476.787 3618.952 -1475.853 Q 3618.559 -1474.919 3618.133 -1474.492 Q 3617.707 -1474.065 3617.151 -1473.902 Q 3616.596 -1473.740 3615.810 -1476.136 "></path>
    <path id="STROKE_fe47d359-0bc6-4278-87e1-4bb25dedf279" opacity="1.000" fill="none" stroke="#00b347" stroke-width="1.242" stroke-opacity="1.000" stroke-linecap="round" stroke-linejoin="round" d="M 3610.417 -1481.093 Q 3610.320 -1481.093 3609.824 -1481.093 Q 3609.914 -1480.804 3612.610 -1481.649 Q 3615.306 -1482.495 3617.384 -1483.027 Q 3619.462 -1483.560 3620.856 -1483.643 Q 3622.251 -1483.726 3623.052 -1483.748 Q 3623.854 -1483.770 3624.597 -1482.975 "></path>
    <path id="STROKE_9a07f0b4-528f-4334-bdbe-21c6190c6d79" opacity="1.000" fill="none" stroke="#00b347" stroke-width="1.416" stroke-opacity="1.000" stroke-linecap="round" stroke-linejoin="round" d="M 3624.343 -1395.361 Q 3624.343 -1395.361 3624.713 -1395.467 Q 3625.083 -1395.573 3624.977 -1395.596 Q 3625.427 -1396.204 3629.271 -1396.462 "></path>
    <path id="STROKE_e4b9548d-58ce-47d3-8d67-48ab5d7c7583" opacity="1.000" fill="none" stroke="#00b347" stroke-width="1.415" stroke-opacity="1.000" stroke-linecap="round" stroke-linejoin="round" d="M 3621.285 -1389.455 Q 3620.571 -1389.186 3623.167 -1390.182 Q 3625.762 -1391.178 3629.230 -1391.367 "></path>
    <path id="STROKE_a53c8ed1-2790-4937-8da9-79d20a77275d" opacity="1.000" fill="none" stroke="#00b347" stroke-width="1.138" stroke-opacity="1.000" stroke-linecap="round" stroke-linejoin="round" d="M 3625.825 -1395.061 Q 3625.825 -1395.061 3625.793 -1394.508 Q 3625.761 -1393.954 3625.745 -1394.125 Q 3626.145 -1393.496 3622.881 -1382.908 Q 3622.774 -1382.968 3622.687 -1383.028 "></path>
    <path id="STROKE_99e02adb-6740-4a08-9cef-765f2b1526ce" opacity="1.000" fill="none" stroke="#00b347" stroke-width="1.416" stroke-opacity="1.000" stroke-linecap="round" stroke-linejoin="round" d="M 3625.411 -1388.894 Q 3625.411 -1389.597 3625.411 -1389.344 L 3625.411 -1389.365 Q 3625.990 -1389.045 3625.944 -1388.955 Q 3625.899 -1388.864 3625.950 -1388.734 Q 3626.002 -1388.604 3626.005 -1388.784 Q 3626.009 -1388.963 3626.137 -1387.994 Q 3626.265 -1387.025 3626.360 -1386.192 Q 3626.456 -1385.359 3626.536 -1384.893 Q 3626.616 -1384.428 3626.949 -1384.340 Q 3627.281 -1384.251 3627.177 -1384.208 Q 3627.073 -1384.164 3627.995 -1384.199 Q 3628.916 -1384.234 3632.449 -1385.500 Q 3632.533 -1385.525 3631.994 -1385.400 Q 3631.455 -1385.274 3631.087 -1387.583 "></path>
  </g>
  <g id="New_Layer_2" opacity="1.000">
    <path id="STROKE_3fdd3a47-1c7e-4ced-b1a9-69626e8ea8b8" opacity="1.000" fill="none" stroke="#d90012" stroke-width="1.311" stroke-opacity="1.000" stroke-linecap="round" stroke-linejoin="round" d="M 3631.560 -1340.950 Q 3631.560 -1340.950 3631.012 -1340.916 Q 3630.464 -1340.881 3630.821 -1340.883 Q 3629.259 -1339.738 3628.842 -1339.766 Q 3628.424 -1339.795 3625.859 -1338.384 Q 3623.295 -1336.972 3622.011 -1335.849 Q 3620.728 -1334.726 3618.287 -1331.811 Q 3615.846 -1328.896 3614.272 -1326.753 Q 3612.697 -1324.610 3612.383 -1323.714 Q 3612.068 -1322.818 3611.787 -1322.139 Q 3611.505 -1321.461 3611.490 -1318.477 Q 3611.474 -1315.492 3611.609 -1312.811 Q 3611.744 -1310.129 3612.181 -1308.287 Q 3612.617 -1306.446 3613.307 -1304.960 Q 3613.996 -1303.474 3615.423 -1300.977 Q 3616.850 -1298.480 3617.527 -1297.011 Q 3618.205 -1295.542 3620.621 -1293.752 Q 3623.037 -1291.963 3626.708 -1290.845 Q 3630.379 -1289.728 3632.368 -1289.348 Q 3634.357 -1288.969 3636.480 -1288.917 Q 3638.604 -1288.866 3639.966 -1289.220 Q 3641.327 -1289.575 3642.082 -1289.897 Q 3642.836 -1290.220 3643.756 -1290.622 Q 3644.676 -1291.023 3645.360 -1291.335 Q 3646.044 -1291.646 3648.952 -1292.964 Q 3651.860 -1294.281 3655.537 -1295.533 Q 3659.214 -1296.785 3661.537 -1297.604 Q 3663.860 -1298.423 3665.628 -1300.133 Q 3667.397 -1301.842 3669.084 -1305.071 Q 3670.771 -1308.299 3671.540 -1310.856 Q 3672.309 -1313.413 3672.430 -1314.808 Q 3672.552 -1316.203 3671.788 -1317.968 Q 3671.025 -1319.733 3668.728 -1322.758 Q 3666.430 -1325.782 3664.905 -1327.735 Q 3663.381 -1329.689 3661.339 -1331.246 Q 3659.297 -1332.804 3655.150 -1334.017 Q 3651.003 -1335.229 3648.251 -1335.788 Q 3645.499 -1336.346 3642.564 -1336.220 Q 3639.628 -1336.095 3636.959 -1335.174 Q 3634.290 -1334.252 3631.239 -1334.226 Q 3628.187 -1334.200 3625.087 -1335.030 "></path>
    <path id="STROKE_e3781d10-731e-4ecd-9bb2-ce65661d1472" opacity="1.000" fill="none" stroke="#0c32f2" stroke-width="1.080" stroke-opacity="1.000" stroke-linecap="round" stroke-linejoin="round" d="M 3669.658 -1329.989 Q 3669.595 -1329.895 3669.184 -1329.737 Q 3668.773 -1329.579 3668.774 -1329.594 Q 3668.775 -1329.610 3668.913 -1329.626 Q 3669.050 -1329.642 3668.270 -1329.529 Q 3668.564 -1329.116 3671.885 -1333.292 Q 3675.207 -1337.468 3680.332 -1341.776 Q 3685.457 -1346.083 3689.221 -1348.792 Q 3692.984 -1351.501 3695.137 -1353.311 Q 3697.291 -1355.121 3700.554 -1357.642 Q 3703.818 -1360.164 3706.859 -1362.344 Q 3709.899 -1364.523 3713.433 -1368.265 Q 3716.966 -1372.006 3720.396 -1375.214 Q 3720.046 -1375.305 3718.293 -1375.496 Q 3716.539 -1375.686 3715.253 -1374.996 Q 3713.967 -1374.306 3713.065 -1373.595 Q 3712.163 -1372.883 3708.893 -1369.929 Q 3709.418 -1369.779 3712.688 -1372.034 Q 3715.959 -1374.289 3721.974 -1376.011 Q 3722.828 -1373.876 3713.869 -1362.752 "></path>
    <path id="STROKE_942baf49-fff3-439e-8555-797664705dfa" opacity="1.000" fill="none" stroke="#0c32f2" stroke-width="1.416" stroke-opacity="1.000" stroke-linecap="round" stroke-linejoin="round" d="M 3632.299 -1456.487 Q 3632.300 -1456.487 3631.964 -1456.648 Q 3631.629 -1456.809 3631.992 -1456.743 Q 3632.354 -1456.676 3631.485 -1456.781 Q 3630.616 -1456.885 3629.709 -1456.787 Q 3628.803 -1456.689 3628.712 -1456.499 Q 3628.621 -1456.309 3626.830 -1454.526 Q 3625.038 -1452.744 3623.771 -1451.036 Q 3622.503 -1449.327 3622.135 -1448.907 Q 3621.767 -1448.486 3620.818 -1446.518 Q 3619.870 -1444.550 3619.630 -1443.415 Q 3619.389 -1442.279 3619.345 -1440.496 Q 3619.302 -1438.713 3619.541 -1437.666 Q 3619.781 -1436.619 3620.060 -1436.007 Q 3620.339 -1435.394 3620.767 -1434.410 Q 3621.194 -1433.426 3622.423 -1431.824 Q 3623.652 -1430.222 3624.424 -1429.553 Q 3625.197 -1428.885 3625.653 -1428.657 Q 3626.110 -1428.430 3626.321 -1428.420 Q 3626.531 -1428.409 3626.611 -1428.234 Q 3626.690 -1428.060 3630.544 -1427.837 Q 3634.398 -1427.615 3637.926 -1428.051 Q 3641.454 -1428.487 3644.253 -1429.600 Q 3647.052 -1430.713 3649.493 -1432.421 Q 3651.935 -1434.128 3653.000 -1435.220 Q 3654.065 -1436.312 3654.563 -1437.009 Q 3655.062 -1437.705 3655.186 -1438.344 Q 3655.310 -1438.982 3655.312 -1438.729 Q 3655.313 -1438.476 3655.380 -1439.770 Q 3655.448 -1441.065 3655.382 -1442.010 Q 3655.316 -1442.955 3655.191 -1443.578 Q 3655.067 -1444.201 3654.844 -1444.805 Q 3654.622 -1445.410 3654.475 -1445.791 Q 3654.328 -1446.172 3654.052 -1446.648 Q 3653.776 -1447.123 3653.783 -1447.190 Q 3653.791 -1447.256 3652.847 -1448.459 Q 3651.902 -1449.662 3650.894 -1450.521 Q 3649.886 -1451.380 3649.059 -1451.786 Q 3648.232 -1452.193 3648.430 -1452.141 Q 3648.628 -1452.090 3644.594 -1453.226 Q 3640.559 -1454.362 3638.046 -1454.891 Q 3635.533 -1455.421 3634.591 -1455.483 Q 3633.650 -1455.544 3631.688 -1455.513 Q 3629.727 -1455.481 3628.230 -1455.616 Q 3626.733 -1455.751 3620.958 -1453.040 "></path>
    <path id="STROKE_b33bb99a-daed-4363-a7ae-151398654849" opacity="1.000" fill="none" stroke="#0c32f2" stroke-width="1.416" stroke-opacity="1.000" stroke-linecap="round" stroke-linejoin="round" d="M 3603.565 -1328.278 Q 3603.565 -1328.278 3603.570 -1328.327 Q 3603.574 -1328.376 3601.704 -1328.595 Q 3599.833 -1328.813 3598.215 -1329.243 Q 3596.597 -1329.673 3596.126 -1329.912 Q 3595.655 -1330.151 3595.016 -1330.379 Q 3594.378 -1330.607 3591.908 -1332.658 Q 3589.438 -1334.708 3588.132 -1335.794 Q 3586.827 -1336.879 3585.759 -1338.243 Q 3584.691 -1339.607 3583.662 -1341.337 Q 3582.634 -1343.066 3581.737 -1344.724 Q 3580.841 -1346.382 3579.898 -1348.874 Q 3578.957 -1351.367 3578.213 -1353.115 Q 3577.469 -1354.864 3577.181 -1356.115 Q 3576.892 -1357.367 3576.784 -1359.498 Q 3576.676 -1361.629 3576.638 -1362.811 Q 3576.600 -1363.992 3576.488 -1364.699 Q 3576.376 -1365.405 3576.320 -1365.565 Q 3576.263 -1365.725 3576.111 -1366.456 Q 3575.959 -1367.187 3575.845 -1367.696 Q 3575.732 -1368.205 3575.694 -1368.558 Q 3575.656 -1368.911 3575.606 -1369.348 Q 3575.556 -1369.785 3575.555 -1369.729 Q 3575.554 -1369.673 3575.496 -1370.255 Q 3575.438 -1370.836 3574.975 -1371.143 Q 3574.927 -1370.862 3574.442 -1369.353 Q 3573.957 -1367.845 3573.932 -1364.502 Q 3574.063 -1364.840 3574.395 -1366.607 Q 3574.727 -1368.374 3574.767 -1369.294 Q 3574.806 -1370.215 3575.705 -1371.421 Q 3575.905 -1371.513 3578.909 -1364.694 "></path>
    <path id="STROKE_d959f033-4309-4efa-a37c-8a5668ace891" opacity="1.000" fill="none" stroke="#00b347" stroke-width="1.400" stroke-opacity="1.000" stroke-linecap="round" stroke-linejoin="round" d="M 3593.620 -1348.319 Q 3593.399 -1347.749 3593.470 -1347.881 Q 3593.443 -1346.937 3593.218 -1340.525 Q 3593.204 -1340.525 3593.089 -1340.552 "></path>
    <path id="STROKE_fd930eda-66b6-464b-ac3f-3b57bd75bce8" opacity="1.000" fill="none" stroke="#00b347" stroke-width="1.416" stroke-opacity="1.000" stroke-linecap="round" stroke-linejoin="round" d="M 3590.587 -1346.430 Q 3589.708 -1346.301 3592.665 -1346.854 "></path>
    <path id="STROKE_8279111a-3cc6-47a1-83d2-20483ddc0e90" opacity="1.000" fill="none" stroke="#00b347" stroke-width="1.416" stroke-opacity="1.000" stroke-linecap="round" stroke-linejoin="round" d="M 3590.252 -1344.071 Q 3590.123 -1344.037 3590.395 -1344.365 Q 3590.667 -1344.693 3592.559 -1344.714 "></path>
    <path id="STROKE_531d77da-a82e-4967-8833-e3e22475feca" opacity="1.000" fill="none" stroke="#00b347" stroke-width="1.416" stroke-opacity="1.000" stroke-linecap="round" stroke-linejoin="round" d="M 3589.695 -1341.506 Q 3589.712 -1341.452 3589.156 -1341.440 Q 3588.934 -1341.652 3589.874 -1342.485 Q 3590.814 -1343.319 3593.143 -1343.282 "></path>
    <path id="STROKE_442cc046-04ca-4c0d-a968-cc66cbd1a2f5" opacity="1.000" fill="none" stroke="#00b347" stroke-width="1.416" stroke-opacity="1.000" stroke-linecap="round" stroke-linejoin="round" d="M 3595.591 -1347.895 Q 3595.591 -1347.911 3595.591 -1347.954 Q 3595.515 -1347.886 3595.423 -1338.862 Q 3595.353 -1338.875 3595.282 -1338.888 "></path>
    <path id="STROKE_bb8a6fb9-8e77-4f35-b747-4a3554549b2a" opacity="1.000" fill="none" stroke="#00b347" stroke-width="1.416" stroke-opacity="1.000" stroke-linecap="round" stroke-linejoin="round" d="M 3596.316 -1345.814 Q 3596.088 -1345.663 3599.101 -1347.080 "></path>
    <path id="STROKE_06799d3b-a7ca-4312-adbc-4e5b2fc19808" opacity="1.000" fill="none" stroke="#00b347" stroke-width="1.416" stroke-opacity="1.000" stroke-linecap="round" stroke-linejoin="round" d="M 3597.165 -1343.057 Q 3597.148 -1343.112 3597.161 -1343.076 Q 3597.174 -1343.041 3597.183 -1342.988 Q 3597.191 -1342.934 3597.178 -1342.930 Q 3597.165 -1342.926 3597.142 -1342.959 Q 3597.119 -1342.991 3597.057 -1343.120 Q 3596.996 -1343.249 3596.922 -1343.447 Q 3596.848 -1343.645 3596.902 -1343.806 Q 3596.955 -1343.967 3597.170 -1344.119 Q 3597.385 -1344.272 3597.590 -1344.329 Q 3597.794 -1344.386 3597.911 -1344.410 Q 3598.027 -1344.435 3598.152 -1344.502 Q 3598.278 -1344.569 3600.135 -1344.574 "></path>
    <path id="STROKE_d682f3d7-b539-4d1e-be33-43ac8ef70f91" opacity="1.000" fill="none" stroke="#00b347" stroke-width="1.416" stroke-opacity="1.000" stroke-linecap="round" stroke-linejoin="round" d="M 3597.607 -1341.254 Q 3597.696 -1341.245 3597.023 -1341.002 Q 3596.740 -1341.011 3597.508 -1341.743 Q 3598.276 -1342.475 3600.507 -1343.143 "></path>
    <path id="STROKE_ec65cabd-8aaa-4971-b33f-8677545626b4" opacity="1.000" fill="none" stroke="#0c32f2" stroke-width="1.367" stroke-opacity="1.000" stroke-linecap="round" stroke-linejoin="round" d="M 3651.262 -1347.058 Q 3651.071 -1347.312 3651.148 -1347.286 Q 3651.154 -1347.741 3651.163 -1347.669 Q 3651.339 -1347.612 3651.917 -1349.838 Q 3652.494 -1352.065 3652.766 -1353.396 Q 3653.037 -1354.726 3653.333 -1356.154 Q 3653.630 -1357.581 3653.754 -1358.236 Q 3653.877 -1358.892 3654.228 -1360.763 Q 3654.578 -1362.635 3654.902 -1366.298 Q 3655.227 -1369.960 3655.211 -1372.790 Q 3655.196 -1375.620 3655.041 -1377.549 Q 3654.886 -1379.478 3654.775 -1380.795 Q 3654.664 -1382.112 3654.647 -1384.757 Q 3654.631 -1387.401 3654.576 -1388.840 Q 3654.521 -1390.280 3654.542 -1390.892 Q 3654.563 -1391.504 3654.210 -1394.582 Q 3653.856 -1397.660 3653.267 -1400.637 Q 3652.677 -1403.615 3652.419 -1405.008 Q 3652.162 -1406.401 3652.049 -1407.207 Q 3651.937 -1408.012 3651.975 -1409.963 Q 3652.013 -1411.914 3652.026 -1412.999 Q 3652.038 -1414.084 3651.878 -1415.011 Q 3651.698 -1415.032 3651.222 -1413.598 Q 3650.745 -1412.164 3650.413 -1410.980 Q 3650.080 -1409.797 3649.733 -1408.434 Q 3649.386 -1407.072 3649.217 -1405.908 Q 3649.194 -1405.860 3649.719 -1408.014 Q 3650.243 -1410.167 3650.898 -1412.080 Q 3651.553 -1413.993 3652.525 -1415.403 Q 3652.408 -1415.217 3652.749 -1412.951 Q 3653.090 -1410.685 3655.468 -1405.292 "></path>
    <path id="STROKE_082a399c-1f9a-4fab-916e-315b5911c2e4" opacity="1.000" fill="none" stroke="#00b347" stroke-width="1.416" stroke-opacity="1.000" stroke-linecap="round" stroke-linejoin="round" d="M 3660.560 -1393.229 Q 3660.560 -1393.229 3660.556 -1393.217 Q 3660.553 -1393.206 3662.186 -1393.523 Q 3663.819 -1393.840 3665.831 -1393.433 "></path>
    <path id="STROKE_533446e7-5d2b-4593-8e0f-7799b4becee2" opacity="1.000" fill="none" stroke="#00b347" stroke-width="1.416" stroke-opacity="1.000" stroke-linecap="round" stroke-linejoin="round" d="M 3659.401 -1388.538 Q 3659.319 -1388.538 3658.987 -1388.559 L 3658.987 -1388.570 Q 3659.192 -1388.387 3666.188 -1389.513 "></path>
    <path id="STROKE_f44d04c5-bd0f-458f-be76-3ae5dcb5c40e" opacity="1.000" fill="none" stroke="#00b347" stroke-width="1.176" stroke-opacity="1.000" stroke-linecap="round" stroke-linejoin="round" d="M 3663.578 -1392.156 Q 3663.578 -1392.167 3663.514 -1392.291 Q 3663.500 -1392.291 3663.453 -1392.291 Q 3663.480 -1391.958 3662.818 -1389.112 Q 3662.155 -1386.265 3660.592 -1382.935 L 3660.582 -1382.935 Q 3660.592 -1383.031 3660.946 -1383.804 "></path>
    <path id="STROKE_91d9e579-373e-4c9b-b550-5d629e8290ef" opacity="1.000" fill="none" stroke="#00b347" stroke-width="1.416" stroke-opacity="1.000" stroke-linecap="round" stroke-linejoin="round" d="M 3662.963 -1388.034 Q 3662.963 -1388.034 3662.963 -1388.040 Q 3662.963 -1388.047 3662.963 -1388.082 Q 3662.896 -1388.143 3663.028 -1388.044 Q 3663.161 -1387.946 3663.275 -1387.817 Q 3663.389 -1387.687 3663.407 -1387.550 Q 3663.424 -1387.413 3663.604 -1387.222 Q 3663.784 -1387.031 3663.807 -1382.925 Q 3663.692 -1382.655 3669.986 -1383.917 Q 3669.984 -1383.938 3669.688 -1383.909 Q 3669.390 -1383.879 3669.191 -1384.263 Q 3668.991 -1384.647 3668.920 -1386.125 "></path>
    <path id="STROKE_75775992-7ffb-41c7-8714-092d8837f3e4" opacity="1.000" fill="none" stroke="#00b347" stroke-width="1.416" stroke-opacity="1.000" stroke-linecap="round" stroke-linejoin="round" d="M 3696.884 -1371.736 Q 3696.884 -1371.747 3696.884 -1371.805 Q 3696.954 -1371.781 3695.515 -1370.636 Q 3694.077 -1369.490 3692.207 -1368.090 "></path>
    <path id="STROKE_0e8731b1-1cb6-43c8-b771-6bbb6d9d3d23" opacity="1.000" fill="none" stroke="#00b347" stroke-width="1.416" stroke-opacity="1.000" stroke-linecap="round" stroke-linejoin="round" d="M 3692.657 -1367.318 Q 3692.989 -1367.601 3694.477 -1368.184 Q 3695.964 -1368.767 3697.821 -1368.481 "></path>
    <path id="STROKE_b6167f4e-b918-48ea-a7c4-0e9991a9b489" opacity="1.000" fill="none" stroke="#00b347" stroke-width="1.309" stroke-opacity="1.000" stroke-linecap="round" stroke-linejoin="round" d="M 3691.027 -1364.198 Q 3691.129 -1364.484 3693.786 -1364.989 Q 3696.444 -1365.495 3699.544 -1366.224 "></path>
    <path id="STROKE_7eff7e9a-ed61-4bc3-a71d-02638beadd28" opacity="1.000" fill="none" stroke="#00b347" stroke-width="1.373" stroke-opacity="1.000" stroke-linecap="round" stroke-linejoin="round" d="M 3696.297 -1369.302 Q 3696.297 -1369.302 3696.275 -1369.376 Q 3696.253 -1369.451 3696.280 -1367.179 Q 3696.307 -1364.907 3696.250 -1363.656 Q 3696.192 -1362.405 3696.138 -1361.808 Q 3696.084 -1361.210 3695.879 -1360.981 Q 3695.674 -1360.751 3695.239 -1360.771 Q 3694.803 -1360.792 3694.497 -1361.024 Q 3694.191 -1361.256 3693.658 -1362.171 "></path>
  </g>
  <g id="New_Layer_3" opacity="1.000">
    <path id="STROKE_c904073f-887d-4db8-9c0c-74d7298ad13a" opacity="1.000" fill="none" stroke="#0c32f2" stroke-width="1.416" stroke-opacity="1.000" stroke-linecap="round" stroke-linejoin="round" d="M 3574.162 -1379.698 Q 3574.162 -1379.698 3574.216 -1379.713 Q 3574.269 -1379.729 3578.989 -1374.827 "></path>
    <path id="STROKE_04c21f86-3b76-4412-b7dc-7f6e067f670a" opacity="1.000" fill="none" stroke="#0c32f2" stroke-width="1.380" stroke-opacity="1.000" stroke-linecap="round" stroke-linejoin="round" d="M 3577.698 -1381.388 Q 3577.107 -1381.590 3575.064 -1374.940 Q 3575.090 -1375.026 3575.117 -1375.112 "></path>
    <path id="STROKE_c4e8fbf3-87ad-4652-8c56-39c7dfbc1628" opacity="1.000" fill="none" stroke="#0c32f2" stroke-width="1.416" stroke-opacity="1.000" stroke-linecap="round" stroke-linejoin="round" d="M 3571.996 -1380.938 Q 3571.792 -1380.921 3571.240 -1380.658 Q 3570.687 -1380.395 3570.549 -1379.749 Q 3570.411 -1379.103 3570.323 -1378.545 Q 3570.236 -1377.988 3570.681 -1376.763 Q 3571.125 -1375.538 3572.106 -1374.375 Q 3573.087 -1373.212 3573.769 -1372.641 Q 3574.451 -1372.070 3575.492 -1371.791 Q 3576.533 -1371.512 3577.521 -1371.666 Q 3578.510 -1371.820 3579.704 -1372.846 Q 3580.898 -1373.871 3581.583 -1375.029 Q 3582.267 -1376.186 3582.481 -1377.109 Q 3582.695 -1378.031 3582.760 -1378.727 Q 3582.824 -1379.423 3581.691 -1380.559 Q 3580.558 -1381.694 3579.403 -1382.516 Q 3578.248 -1383.337 3577.526 -1383.704 Q 3576.804 -1384.072 3576.197 -1384.264 Q 3575.589 -1384.457 3574.120 -1383.266 Q 3572.651 -1382.074 3571.782 -1381.227 Q 3570.912 -1380.380 3570.422 -1379.500 "></path>
    <path id="STROKE_e7163baf-9239-49e4-9010-4db6f5609f9a" opacity="1.000" fill="none" stroke="#0c32f2" stroke-width="1.415" stroke-opacity="1.000" stroke-linecap="round" stroke-linejoin="round" d="M 3569.583 -1376.855 Q 3569.583 -1376.855 3569.391 -1376.885 Q 3569.198 -1376.915 3569.171 -1376.919 Q 3569.145 -1376.923 3569.149 -1376.908 Q 3569.208 -1376.905 3568.934 -1376.929 Q 3568.660 -1376.954 3568.644 -1376.930 Q 3568.628 -1376.907 3568.504 -1376.978 Q 3568.381 -1377.048 3566.080 -1377.181 Q 3563.779 -1377.313 3561.721 -1377.246 Q 3559.664 -1377.179 3556.849 -1376.589 Q 3554.034 -1376.000 3552.097 -1375.430 Q 3550.159 -1374.861 3548.758 -1374.186 Q 3547.357 -1373.511 3545.046 -1372.815 Q 3542.735 -1372.119 3539.945 -1371.167 Q 3537.155 -1370.214 3534.202 -1368.616 Q 3531.249 -1367.018 3529.536 -1366.172 Q 3527.823 -1365.326 3526.025 -1364.572 Q 3524.228 -1363.818 3523.031 -1363.136 Q 3521.835 -1362.454 3520.827 -1361.954 L 3520.827 -1361.938 Q 3520.973 -1362.109 3521.793 -1363.418 Q 3522.613 -1364.727 3523.365 -1365.800 Q 3524.117 -1366.874 3526.645 -1368.578 Q 3526.531 -1368.567 3526.385 -1368.416 Q 3526.239 -1368.266 3526.259 -1368.305 Q 3526.280 -1368.344 3526.247 -1368.260 Q 3526.214 -1368.177 3525.304 -1366.764 Q 3524.395 -1365.351 3523.810 -1364.650 Q 3523.226 -1363.948 3522.953 -1363.669 Q 3522.681 -1363.389 3522.508 -1363.210 Q 3522.335 -1363.031 3522.228 -1362.927 Q 3522.120 -1362.822 3522.133 -1362.837 Q 3522.146 -1362.852 3521.872 -1362.565 Q 3521.596 -1362.277 3521.658 -1362.319 Q 3521.208 -1361.592 3524.618 -1361.712 Q 3528.029 -1361.832 3532.824 -1362.302 "></path>
    <path id="STROKE_205f8811-84ef-44dd-a962-7aa1380b830f" opacity="1.000" fill="none" stroke="#00b347" stroke-width="1.416" stroke-opacity="1.000" stroke-linecap="round" stroke-linejoin="round" d="M 3544.759 -1384.960 Q 3544.759 -1384.960 3544.682 -1385.054 Q 3544.605 -1385.147 3549.082 -1385.722 "></path>
    <path id="STROKE_0a1b4d05-decf-4e06-a37a-37b5ebf6f030" opacity="1.000" fill="none" stroke="#00b347" stroke-width="1.416" stroke-opacity="1.000" stroke-linecap="round" stroke-linejoin="round" d="M 3544.874 -1387.604 Q 3544.874 -1387.604 3544.865 -1387.604 Q 3544.856 -1387.604 3544.719 -1387.578 Q 3544.641 -1388.228 3544.392 -1383.383 Q 3544.881 -1382.937 3545.864 -1383.398 Q 3546.847 -1383.859 3547.425 -1384.280 Q 3548.004 -1384.701 3548.746 -1384.553 Q 3548.588 -1384.192 3549.222 -1382.462 Q 3549.857 -1380.731 3549.983 -1377.697 Q 3549.484 -1377.697 3549.590 -1377.697 Q 3548.935 -1377.722 3549.086 -1377.740 Q 3548.844 -1377.851 3547.057 -1378.936 "></path>
    <path id="STROKE_b551699a-14ca-4198-b4ad-1e633bf7cf7b" opacity="1.000" fill="none" stroke="#00b347" stroke-width="1.416" stroke-opacity="1.000" stroke-linecap="round" stroke-linejoin="round" d="M 3541.779 -1378.823 Q 3541.779 -1378.837 3541.766 -1379.049 Q 3542.264 -1379.337 3548.153 -1381.242 "></path>
  </g>
</svg>