<?xml version="1.0" encoding="UTF-8" standalone="yes"?>
<svg xmlns="http://www.w3.org/2000/svg" xmlns:xlink="http://www.w3.org/1999/xlink" width="149.421mm" height="71.838mm" version="1.1" viewBox="10845.751 2886.886 776.518 373.329">
  <!--
	Exported with Concepts: Smarter Sketching
	Version: 1687 on iOS 16.2
	https://concepts.app/
	-->
  <title>A9380C28-953E-444C-A90B-FA23C3701835</title>
  <desc>Drawing exported from Concepts: Smarter Sketching</desc>
  <defs></defs>
  <g id="主体" opacity="1.000">
    <path id="STROKE_7fa8cecc-0418-482e-ba7a-224fc1bfee59" opacity="1.000" fill="none" stroke="#000000" stroke-width="2.672" stroke-opacity="1.000" stroke-linecap="round" stroke-linejoin="round" d="M 10947.906 2992.222 Q 10947.908 2992.222 10948.548 2992.628 Q 10949.188 2993.034 10944.912 3003.898 "></path>
    <path id="STROKE_839ec156-e5dd-4b72-8292-8fdb6092d295" opacity="1.000" fill="none" stroke="#000000" stroke-width="2.672" stroke-opacity="1.000" stroke-linecap="round" stroke-linejoin="round" d="M 10942.566 3006.746 Q 10942.598 3006.277 10945.242 3004.177 Q 10947.887 3002.077 10951.014 2999.911 "></path>
    <path id="STROKE_bbcad6de-992d-4608-90ae-9f5d98049540" opacity="1.000" fill="none" stroke="#000000" stroke-width="2.612" stroke-opacity="1.000" stroke-linecap="round" stroke-linejoin="round" d="M 10953.002 2991.803 Q 10951.209 2991.670 10950.659 2998.982 Q 10950.109 3006.294 10949.819 3010.186 Q 10949.529 3014.078 10949.418 3015.852 Q 10949.307 3017.626 10948.296 3019.223 Q 10947.285 3020.819 10945.203 3020.901 "></path>
    <path id="STROKE_efad8803-72cd-465d-9fe7-ba5b9e030fd2" opacity="1.000" fill="none" stroke="#000000" stroke-width="2.672" stroke-opacity="1.000" stroke-linecap="round" stroke-linejoin="round" d="M 10944.131 3020.616 Q 10943.939 3020.418 10943.635 3020.032 Q 10943.330 3019.646 10943.383 3019.623 Q 10943.436 3019.599 10943.400 3019.595 Q 10943.365 3019.592 10942.850 3018.373 Q 10942.334 3017.154 10944.167 3015.681 Q 10946.000 3014.207 10947.942 3012.592 Q 10949.885 3010.978 10951.885 3009.091 "></path>
    <path id="STROKE_b288829e-bb27-4846-9d76-39370f1f63f7" opacity="1.000" fill="none" stroke="#000000" stroke-width="2.672" stroke-opacity="1.000" stroke-linecap="round" stroke-linejoin="round" d="M 10956.555 2999.626 Q 10956.348 2999.626 10955.996 2999.626 Q 10955.383 2999.718 10962.031 2994.651 "></path>
    <path id="STROKE_147b87ab-e514-44ca-a45c-d49367b7c204" opacity="1.000" fill="none" stroke="#000000" stroke-width="2.672" stroke-opacity="1.000" stroke-linecap="round" stroke-linejoin="round" d="M 10963.236 2989.173 Q 10962.953 2989.181 10960.841 2993.050 Q 10958.729 2996.919 10957.875 3007.349 Q 10957.225 3007.403 10957.271 3007.382 Q 10954.678 3005.665 10964.969 3001.335 Q 10965.551 3000.867 10964.753 3002.966 Q 10963.955 3005.066 10961.573 3007.224 Q 10959.191 3009.382 10955.996 3012.073 Q 10954.955 3013.915 10962.320 3005.892 Q 10961.764 3005.868 10961.820 3009.880 Q 10961.877 3013.892 10961.894 3016.474 Q 10961.910 3019.057 10961.714 3020.275 Q 10961.518 3021.493 10960.868 3021.952 Q 10960.219 3022.411 10959.170 3022.666 Q 10958.121 3022.921 10957.135 3022.159 Q 10956.148 3021.397 10956.059 3020.944 Q 10955.969 3020.490 10955.809 3019.998 Q 10955.648 3019.506 10955.765 3018.567 Q 10955.881 3017.627 10956.249 3017.352 Q 10956.617 3017.076 10957.110 3016.770 Q 10957.604 3016.465 10957.893 3016.350 Q 10958.182 3016.236 10959.541 3016.021 Q 10960.900 3015.806 10962.656 3015.206 "></path>
    <path id="STROKE_066d2811-f22d-4c27-9021-b33e9bbaa291" opacity="1.000" fill="none" stroke="#000000" stroke-width="2.591" stroke-opacity="1.000" stroke-linecap="round" stroke-linejoin="round" d="M 10983.104 2994.366 Q 10983.590 2994.301 10982.330 2994.415 Q 10981.070 2994.529 10978.396 2999.053 Q 10975.723 3003.578 10972.311 3009.443 Q 10971.500 3009.877 10980.064 3003.462 Q 10980.611 3004.078 10970.969 3014.636 Q 10971.285 3014.633 10971.838 3014.089 Q 10972.391 3013.544 10974.992 3013.748 Q 10975.250 3014.340 10975.405 3014.933 Q 10975.561 3015.525 10975.573 3016.282 Q 10975.586 3017.039 10975.738 3017.089 Q 10975.891 3017.139 10974.914 3027.518 Q 10975.926 3027.287 10976.377 3026.379 "></path>
    <path id="STROKE_f08a2538-4ed8-4c65-8ed0-1238358f0eef" opacity="1.000" fill="none" stroke="#000000" stroke-width="2.672" stroke-opacity="1.000" stroke-linecap="round" stroke-linejoin="round" d="M 10978.432 3018.623 Q 10978.424 3018.267 10977.903 3016.327 Q 10977.383 3014.386 10978.357 3012.352 Q 10979.332 3010.317 10982.003 3007.930 Q 10984.674 3005.543 10988.869 3003.898 "></path>
    <path id="STROKE_535c0579-23cf-4cf6-aa73-2661f0fb85aa" opacity="1.000" fill="none" stroke="#000000" stroke-width="2.672" stroke-opacity="1.000" stroke-linecap="round" stroke-linejoin="round" d="M 10984.824 3009.795 Q 10984.676 3010.090 10984.801 3009.613 Q 10984.926 3009.136 10984.651 3010.743 Q 10984.377 3012.350 10983.929 3013.842 Q 10983.480 3015.335 10982.254 3021.320 Q 10983.359 3021.318 10983.361 3021.287 Q 10984.506 3021.400 10988.713 3017.132 "></path>
    <path id="STROKE_7ea6a9ee-88b8-4550-bc2b-95d5a258be64" opacity="1.000" fill="none" stroke="#000000" stroke-width="2.672" stroke-opacity="1.000" stroke-linecap="round" stroke-linejoin="round" d="M 10981.338 3014.000 Q 10981.377 3013.901 10980.128 3014.667 Q 10978.879 3015.432 10978.992 3026.229 Q 10978.959 3026.229 10978.926 3026.229 Q 10977.523 3025.277 10992.848 3021.253 "></path>
    <path id="STROKE_9e786406-359a-4e86-bff8-8b2a415f0935" opacity="1.000" fill="none" stroke="#000000" stroke-width="2.672" stroke-opacity="1.000" stroke-linecap="round" stroke-linejoin="round" d="M 11013.070 3019.327 Q 11013.070 3019.327 11013.251 3019.206 Q 11013.432 3019.085 11016.266 3021.471 "></path>
    <path id="STROKE_bb80f14c-d2d6-434e-a94f-ed48bcdb893e" opacity="1.000" fill="none" stroke="#000000" stroke-width="2.672" stroke-opacity="1.000" stroke-linecap="round" stroke-linejoin="round" d="M 11010.523 3032.778 Q 11010.479 3032.845 11010.301 3033.030 Q 11010.910 3033.427 11014.211 3033.415 "></path>
    <path id="STROKE_75739a71-26bb-4a39-85d1-612c6523ad77" opacity="1.000" fill="none" stroke="#000000" stroke-width="1.893" stroke-opacity="1.000" stroke-linecap="round" stroke-linejoin="round" d="M 11110.268 3250.820 L 11110.736 3250.638 "></path>
    <path id="STROKE_c3c3550f-176b-416f-a9cf-1e61b75ba36b" opacity="1.000" fill="none" stroke="#000000" stroke-width="2.672" stroke-opacity="1.000" stroke-linecap="round" stroke-linejoin="round" d="M 11148.770 2920.775 Q 11148.771 2920.666 11148.145 2919.987 Q 11147.984 2919.506 11148.150 2920.355 Q 11148.316 2921.203 11149.743 2922.382 Q 11151.170 2923.562 11152.709 2923.715 Q 11154.248 2923.869 11155.151 2923.795 Q 11156.055 2923.720 11157.150 2922.768 "></path>
    <path id="STROKE_253f8f59-2ba5-48ae-be45-2acd631c9076" opacity="1.000" fill="none" stroke="#000000" stroke-width="2.672" stroke-opacity="1.000" stroke-linecap="round" stroke-linejoin="round" d="M 11161.195 2919.217 Q 11161.092 2919.599 11161.553 2918.363 Q 11159.932 2918.875 11160.279 2918.932 Q 11158.967 2919.726 11156.713 2923.539 Q 11154.459 2927.352 11149.910 2929.821 Q 11150.037 2929.866 11159.564 2922.986 "></path>
    <path id="STROKE_632e1599-30ca-4cd4-afa2-f1cd4583cfb3" opacity="1.000" fill="none" stroke="#000000" stroke-width="2.672" stroke-opacity="1.000" stroke-linecap="round" stroke-linejoin="round" d="M 11159.787 2920.641 Q 11158.129 2920.931 11158.604 2920.984 Q 11157.611 2920.604 11154.426 2933.473 Q 11153.387 2933.525 11153.430 2933.506 Q 11151.969 2933.210 11152.514 2933.196 Q 11152.324 2932.863 11152.436 2931.839 Q 11154.041 2931.546 11153.576 2931.664 Q 11153.754 2931.664 11154.537 2931.664 Q 11154.744 2931.293 11154.507 2933.352 Q 11154.270 2935.410 11155.047 2937.783 Q 11155.824 2940.157 11157.083 2941.882 Q 11158.342 2943.607 11159.450 2943.386 Q 11160.559 2943.165 11161.274 2942.523 Q 11161.990 2941.881 11162.425 2941.255 Q 11162.859 2940.629 11163.276 2940.220 Q 11163.693 2939.811 11164.503 2938.068 Q 11165.312 2936.326 11165.335 2935.487 Q 11165.357 2934.649 11165.269 2934.461 Q 11165.180 2934.273 11163.685 2933.849 Q 11162.189 2933.424 11159.723 2936.700 Q 11157.256 2939.975 11155.453 2943.893 Q 11155.236 2944.746 11157.855 2942.047 Q 11160.475 2939.349 11163.038 2934.321 Q 11165.602 2929.294 11169.117 2922.065 L 11169.152 2922.065 Q 11170.174 2919.951 11165.598 2930.843 Q 11167.092 2930.900 11166.883 2930.876 Q 11166.076 2931.175 11168.083 2930.783 Q 11170.090 2930.391 11171.338 2930.253 Q 11172.586 2930.116 11173.389 2931.799 Q 11174.191 2933.482 11173.215 2936.633 Q 11172.238 2939.785 11171.180 2941.112 Q 11170.121 2942.438 11169.205 2943.440 Q 11168.289 2944.441 11166.951 2944.429 Q 11166.580 2944.615 11167.029 2937.074 Q 11167.027 2936.448 11167.091 2939.018 Q 11167.154 2941.587 11175.609 2946.238 "></path>
    <path id="STROKE_69ed94e2-3978-4e51-a9a9-25e6d069396d" opacity="1.000" fill="none" stroke="#000000" stroke-width="2.672" stroke-opacity="1.000" stroke-linecap="round" stroke-linejoin="round" d="M 11191.164 2930.022 L 11191.129 2930.022 Q 11190.324 2929.844 11192.505 2928.595 Q 11194.686 2927.346 11199.387 2925.114 "></path>
    <path id="STROKE_07d5cb6c-049b-4af3-9999-2ade8c31426c" opacity="1.000" fill="none" stroke="#000000" stroke-width="2.670" stroke-opacity="1.000" stroke-linecap="round" stroke-linejoin="round" d="M 11197.264 2921.060 Q 11197.264 2921.060 11197.118 2920.988 Q 11196.973 2920.917 11196.780 2927.350 Q 11196.588 2933.783 11196.390 2937.056 Q 11196.191 2940.330 11195.770 2942.237 Q 11195.348 2944.144 11194.966 2944.669 Q 11194.584 2945.195 11193.697 2945.375 Q 11192.811 2945.556 11193.062 2945.619 Q 11193.312 2945.682 11192.527 2945.293 Q 11191.742 2944.904 11191.757 2943.522 Q 11191.771 2942.141 11191.648 2941.082 Q 11191.525 2940.023 11192.325 2938.837 Q 11193.125 2937.651 11196.580 2934.024 Q 11200.035 2930.397 11202.391 2927.545 Q 11204.746 2924.692 11206.723 2923.080 Q 11208.699 2921.467 11210.838 2920.354 Q 11212.977 2919.241 11215.264 2919.577 Q 11216.877 2920.763 11211.029 2927.610 Q 11211.324 2927.534 11214.650 2922.266 "></path>
    <path id="STROKE_92e4d1aa-2c4a-4e38-a488-99cca830e859" opacity="1.000" fill="none" stroke="#000000" stroke-width="2.249" stroke-opacity="1.000" stroke-linecap="round" stroke-linejoin="round" d="M 11213.533 2918.496 Q 11211.416 2917.425 11197.621 2947.746 Q 11197.939 2947.596 11198.471 2946.989 Q 11199.002 2946.381 11199.146 2946.225 Q 11199.289 2946.068 11199.469 2945.806 Q 11199.648 2945.543 11202.525 2941.385 Q 11205.402 2937.226 11209.488 2933.791 Q 11209.410 2933.975 11209.332 2934.160 "></path>
    <path id="STROKE_6b312454-07f8-444f-835a-7cd6d66d266d" opacity="1.000" fill="none" stroke="#000000" stroke-width="2.672" stroke-opacity="1.000" stroke-linecap="round" stroke-linejoin="round" d="M 11208.414 2935.650 Q 11207.607 2935.953 11205.711 2943.691 Q 11203.877 2944.817 11211.498 2937.275 Q 11211.863 2939.592 11210.655 2942.685 Q 11209.447 2945.777 11206.918 2947.595 Q 11207.107 2946.341 11207.209 2946.531 Q 11207.670 2945.455 11214.023 2942.402 "></path>
    <path id="STROKE_7831128b-8c72-4fd6-9bf1-e54253194e47" opacity="1.000" fill="none" stroke="#000000" stroke-width="2.672" stroke-opacity="1.000" stroke-linecap="round" stroke-linejoin="round" d="M 11241.846 2914.526 Q 11241.846 2914.526 11241.817 2914.788 Q 11241.789 2915.049 11242.929 2916.717 Q 11244.068 2918.386 11248.594 2918.363 "></path>
    <path id="STROKE_b3d876d6-a413-4a90-80fb-18e4703a3903" opacity="1.000" fill="none" stroke="#000000" stroke-width="2.672" stroke-opacity="1.000" stroke-linecap="round" stroke-linejoin="round" d="M 11254.828 2911.243 Q 11254.500 2910.684 11251.365 2914.916 Q 11248.230 2919.148 11246.649 2922.156 Q 11245.068 2925.165 11242.986 2926.538 Q 11242.227 2926.755 11243.994 2924.352 Q 11245.762 2921.949 11249.510 2917.860 "></path>
    <path id="STROKE_13cf4471-8cd6-48bd-874b-732a299edf7a" opacity="1.000" fill="none" stroke="#000000" stroke-width="2.672" stroke-opacity="1.000" stroke-linecap="round" stroke-linejoin="round" d="M 11248.885 2915.230 Q 11247.135 2916.322 11247.600 2916.218 Q 11246.830 2917.352 11245.443 2920.140 Q 11244.057 2922.928 11243.768 2928.749 Q 11243.734 2928.749 11243.701 2928.749 Q 11243.814 2929.414 11243.594 2928.044 Q 11243.373 2926.675 11245.811 2924.884 Q 11248.248 2923.092 11253.064 2921.780 "></path>
    <path id="STROKE_7c91a43b-fec2-4ab8-b7d4-20b484a2c3cd" opacity="1.000" fill="none" stroke="#000000" stroke-width="2.672" stroke-opacity="1.000" stroke-linecap="round" stroke-linejoin="round" d="M 11239.789 2935.717 Q 11239.510 2935.860 11237.666 2936.790 Q 11237.639 2936.828 11238.991 2936.677 Q 11240.344 2936.526 11242.172 2935.505 Q 11244.000 2934.483 11247.029 2929.888 "></path>
    <path id="STROKE_213c9413-48e4-4334-9999-753418b840be" opacity="1.000" fill="none" stroke="#000000" stroke-width="2.672" stroke-opacity="1.000" stroke-linecap="round" stroke-linejoin="round" d="M 11247.254 2929.033 Q 11247.254 2928.958 11247.254 2928.816 Q 11244.961 2926.200 11236.594 2942.686 Q 11236.707 2942.885 11238.076 2941.369 Q 11239.445 2939.853 11241.084 2938.911 Q 11242.723 2937.970 11244.253 2937.760 Q 11245.783 2937.551 11248.093 2939.064 Q 11250.402 2940.578 11252.144 2941.494 Q 11253.885 2942.411 11256.260 2942.402 "></path>
    <path id="STROKE_fb1f863d-80de-4a63-90d5-fc3748056a53" opacity="1.000" fill="none" stroke="#000000" stroke-width="2.672" stroke-opacity="1.000" stroke-linecap="round" stroke-linejoin="round" d="M 11263.432 2923.271 Q 11262.029 2918.699 11272.875 2917.115 Q 11273.158 2917.495 11273.287 2919.217 "></path>
    <path id="STROKE_b4778c7c-9f75-4e6b-93b7-958c4f942952" opacity="1.000" fill="none" stroke="#000000" stroke-width="2.672" stroke-opacity="1.000" stroke-linecap="round" stroke-linejoin="round" d="M 11265.711 2925.398 Q 11265.881 2925.189 11263.857 2927.643 Q 11263.053 2927.575 11265.275 2927.796 Q 11267.498 2928.016 11268.961 2927.786 Q 11270.424 2927.556 11271.312 2927.073 Q 11272.201 2926.591 11272.797 2925.616 "></path>
    <path id="STROKE_971f952f-f1bf-4e03-bf1f-e96614881fac" opacity="1.000" fill="none" stroke="#000000" stroke-width="2.672" stroke-opacity="1.000" stroke-linecap="round" stroke-linejoin="round" d="M 11267.188 2924.058 Q 11267.576 2923.367 11265.956 2926.115 Q 11264.336 2928.864 11263.891 2935.466 Q 11266.719 2936.242 11271.881 2923.907 Q 11271.107 2924.353 11270.953 2934.721 Q 11271.414 2934.853 11271.991 2934.820 Q 11272.568 2934.787 11275.365 2931.513 "></path>
    <path id="STROKE_46187dde-a5c8-476e-bd89-abb642b51c14" opacity="1.000" fill="none" stroke="#000000" stroke-width="2.672" stroke-opacity="1.000" stroke-linecap="round" stroke-linejoin="round" d="M 11281.109 2921.126 Q 11281.109 2920.917 11281.109 2920.423 Q 11280.734 2920.949 11280.175 2922.556 Q 11279.615 2924.163 11278.119 2928.174 Q 11276.623 2932.185 11275.723 2933.951 Q 11274.822 2935.716 11274.562 2936.666 Q 11274.303 2937.615 11273.505 2938.051 Q 11272.707 2938.488 11272.309 2938.356 Q 11271.910 2938.225 11271.748 2938.224 Q 11271.586 2938.223 11271.049 2938.021 Q 11270.512 2937.817 11270.025 2937.677 Q 11269.998 2938.529 11276.148 2933.372 "></path>
    <path id="STROKE_5775ce11-71f1-4686-a503-01fa8a8237ad" opacity="1.000" fill="none" stroke="#000000" stroke-width="2.672" stroke-opacity="1.000" stroke-linecap="round" stroke-linejoin="round" d="M 11274.941 2931.379 Q 11274.236 2930.922 11271.967 2934.757 Q 11269.697 2938.592 11266.473 2944.713 Q 11267.596 2946.043 11280.193 2942.469 "></path>
    <path id="STROKE_e378d65a-0099-4c06-bdd3-772b1e69278d" opacity="1.000" fill="none" stroke="#000000" stroke-width="2.672" stroke-opacity="1.000" stroke-linecap="round" stroke-linejoin="round" d="M 11238.023 2938.917 Q 11237.420 2937.942 11237.666 2938.172 Q 11238.363 2936.997 11238.471 2937.142 Q 11239.854 2934.332 11253.555 2931.027 "></path>
    <path id="STROKE_d22308f6-6e3b-4d84-a0a4-b2ae61548cc4" opacity="1.000" fill="none" stroke="#000000" stroke-width="2.672" stroke-opacity="1.000" stroke-linecap="round" stroke-linejoin="round" d="M 11249.086 2929.670 Q 11249.672 2929.506 11247.626 2930.400 Q 11245.580 2931.295 11243.514 2934.258 Q 11241.447 2937.220 11240.448 2939.420 Q 11239.449 2941.621 11239.398 2943.474 Q 11239.645 2943.474 11239.857 2943.474 "></path>
    <path id="STROKE_30344b57-c3ae-4bb4-8579-6c7df9445740" opacity="1.000" fill="none" stroke="#000000" stroke-width="2.672" stroke-opacity="1.000" stroke-linecap="round" stroke-linejoin="round" d="M 11241.645 2941.832 Q 11241.727 2941.560 11242.706 2940.768 Q 11243.686 2939.975 11247.662 2940.955 Q 11251.639 2941.935 11258.248 2941.413 "></path>
    <path id="STROKE_83b5e4f0-1416-4603-b7db-224e8ea5cb1a" opacity="1.000" fill="none" stroke="#000000" stroke-width="2.662" stroke-opacity="1.000" stroke-linecap="round" stroke-linejoin="round" d="M 11237.666 2936.287 Q 11237.527 2936.195 11232.482 2935.366 L 11232.482 2935.324 Q 11232.424 2935.275 11238.414 2933.979 Q 11244.404 2932.682 11255.611 2933.439 "></path>
    <path id="STROKE_540b934e-f14d-41bf-b5e9-51a9ce8f6e2f" opacity="1.000" fill="none" stroke="#000000" stroke-width="2.672" stroke-opacity="1.000" stroke-linecap="round" stroke-linejoin="round" d="M 11302.338 2939.554 Q 11301.871 2939.261 11301.557 2938.214 Q 11302.525 2938.207 11302.559 2938.249 Q 11302.592 2938.292 11302.557 2938.267 Q 11302.521 2938.243 11302.650 2938.278 Q 11302.779 2938.313 11303.902 2939.922 "></path>
    <path id="STROKE_0cabbfd7-749d-4d91-b9ab-075ef845c14b" opacity="1.000" fill="none" stroke="#000000" stroke-width="2.672" stroke-opacity="1.000" stroke-linecap="round" stroke-linejoin="round" d="M 11301.199 2946.037 Q 11300.406 2946.466 11299.690 2946.938 Q 11298.975 2947.411 11298.887 2948.340 Q 11299.166 2948.524 11300.975 2948.885 "></path>
    <path id="STROKE_cd8ec067-6682-4a5c-b4ef-1d8b7a85099d" opacity="1.000" fill="none" stroke="#000000" stroke-width="2.672" stroke-opacity="1.000" stroke-linecap="round" stroke-linejoin="round" d="M 11240.215 2924.477 Q 11240.215 2924.477 11240.413 2924.418 Q 11240.611 2924.360 11240.111 2924.615 Q 11239.611 2924.871 11250.359 2921.914 "></path>
    <path id="STROKE_20f33b35-1284-4a40-bee8-9031bce96abf" opacity="1.000" fill="none" stroke="#000000" stroke-width="2.672" stroke-opacity="1.000" stroke-linecap="round" stroke-linejoin="round" d="M 11248.795 2918.647 Q 11248.799 2918.481 11246.972 2923.003 Q 11245.145 2927.525 11242.561 2932.451 "></path>
    <path id="STROKE_06bc1674-1f6d-48c7-b10e-0bb7e9de4b78" opacity="1.000" fill="none" stroke="#000000" stroke-width="2.672" stroke-opacity="1.000" stroke-linecap="round" stroke-linejoin="round" d="M 11366.631 2930.491 Q 11366.598 2930.491 11366.498 2930.491 Q 11368.947 2930.700 11384.242 2926.722 "></path>
    <path id="STROKE_678cc798-fec5-4494-b82a-1c26393a7e9f" opacity="1.000" fill="none" stroke="#000000" stroke-width="2.672" stroke-opacity="1.000" stroke-linecap="round" stroke-linejoin="round" d="M 11397.381 2916.838 Q 11397.197 2917.091 11399.774 2915.379 Q 11402.352 2913.668 11404.933 2912.219 Q 11407.514 2910.771 11410.855 2911.293 "></path>
    <path id="STROKE_19e83f65-f60d-47ba-8252-17b735d01eaf" opacity="1.000" fill="none" stroke="#000000" stroke-width="2.672" stroke-opacity="1.000" stroke-linecap="round" stroke-linejoin="round" d="M 11408.309 2912.499 Q 11408.469 2912.443 11406.847 2913.382 Q 11405.225 2914.321 11403.461 2916.590 Q 11401.697 2918.860 11401.627 2922.098 Q 11403.377 2922.212 11403.012 2922.165 Q 11404.668 2922.102 11404.252 2922.065 Q 11404.711 2921.711 11405.523 2921.350 Q 11406.336 2920.989 11407.693 2916.335 Q 11407.695 2915.546 11408.335 2917.949 Q 11408.975 2920.353 11409.033 2922.313 Q 11409.092 2924.274 11405.537 2926.805 "></path>
    <path id="STROKE_74e0de28-e12a-41b5-bd04-2d56c2201f35" opacity="1.000" fill="none" stroke="#000000" stroke-width="2.672" stroke-opacity="1.000" stroke-linecap="round" stroke-linejoin="round" d="M 11404.039 2928.213 Q 11404.357 2927.775 11402.834 2930.139 Q 11405.066 2929.640 11404.810 2929.776 Q 11404.553 2929.913 11409.023 2926.018 "></path>
    <path id="STROKE_35b0929f-db96-46a0-9eec-dae166166015" opacity="1.000" fill="none" stroke="#000000" stroke-width="2.647" stroke-opacity="1.000" stroke-linecap="round" stroke-linejoin="round" d="M 11410.008 2924.310 Q 11409.125 2924.360 11407.447 2928.551 Q 11405.770 2932.742 11405.157 2935.424 Q 11404.545 2938.105 11404.654 2939.889 Q 11405.430 2940.359 11408.226 2937.034 Q 11411.021 2933.710 11416.465 2924.594 "></path>
    <path id="STROKE_785808fd-c647-4ace-98c9-47e6200ddfdc" opacity="1.000" fill="none" stroke="#000000" stroke-width="2.619" stroke-opacity="1.000" stroke-linecap="round" stroke-linejoin="round" d="M 11419.014 2918.547 Q 11419.303 2917.868 11420.309 2914.995 Q 11419.395 2914.744 11412.555 2927.861 Q 11413.271 2928.217 11414.989 2926.422 Q 11416.707 2924.627 11419.906 2924.016 Q 11420.693 2925.816 11419.369 2930.874 Q 11418.045 2935.931 11416.621 2938.539 Q 11415.197 2941.147 11414.273 2942.506 Q 11413.350 2943.865 11411.504 2943.650 Q 11411.223 2942.903 11411.137 2941.491 Q 11411.051 2940.079 11411.099 2939.050 Q 11411.146 2938.022 11411.480 2937.654 Q 11411.814 2937.287 11412.261 2937.227 Q 11412.707 2937.166 11413.107 2937.169 Q 11413.508 2937.173 11414.145 2937.107 Q 11414.781 2937.041 11417.104 2937.605 Q 11419.426 2938.170 11423.930 2939.453 "></path>
    <path id="STROKE_d076ae79-8a19-4f60-b740-32c0a8789569" opacity="1.000" fill="none" stroke="#000000" stroke-width="2.672" stroke-opacity="1.000" stroke-linecap="round" stroke-linejoin="round" d="M 11156.184 3031.572 Q 11156.150 3031.457 11156.150 3032.066 Q 11156.424 3032.483 11162.150 3033.834 "></path>
    <path id="STROKE_3463ab02-12bc-499c-a776-71d91803b7ff" opacity="1.000" fill="none" stroke="#000000" stroke-width="2.672" stroke-opacity="1.000" stroke-linecap="round" stroke-linejoin="round" d="M 11169.814 3027.518 Q 11169.186 3028.446 11169.111 3028.331 Q 11168.514 3028.331 11162.934 3036.481 "></path>
    <path id="STROKE_e3215949-006a-40e8-a7de-8a50d9872bf6" opacity="1.000" fill="none" stroke="#000000" stroke-width="2.672" stroke-opacity="1.000" stroke-linecap="round" stroke-linejoin="round" d="M 11158.955 3040.953 Q 11158.748 3041.048 11158.660 3040.528 Q 11158.572 3040.007 11159.409 3039.009 Q 11160.246 3038.010 11161.767 3037.329 Q 11163.287 3036.649 11164.645 3036.344 Q 11166.002 3036.038 11168.900 3033.549 "></path>
    <path id="STROKE_28bdb671-e271-4a26-a5ba-98b6c570eac5" opacity="1.000" fill="none" stroke="#000000" stroke-width="2.672" stroke-opacity="1.000" stroke-linecap="round" stroke-linejoin="round" d="M 11168.609 3028.155 Q 11168.316 3028.362 11167.886 3028.720 Q 11167.455 3029.079 11167.520 3029.045 Q 11167.584 3029.012 11167.377 3029.278 Q 11167.170 3029.544 11166.326 3030.153 Q 11165.482 3030.762 11164.721 3037.184 "></path>
    <path id="STROKE_f28af401-8625-4403-8541-af2d92aab12c" opacity="1.000" fill="none" stroke="#000000" stroke-width="2.672" stroke-opacity="1.000" stroke-linecap="round" stroke-linejoin="round" d="M 11162.283 3038.608 Q 11161.174 3038.845 11161.447 3038.784 Q 11161.301 3038.826 11161.168 3038.826 Q 11161.127 3038.431 11161.859 3037.991 Q 11162.592 3037.550 11166.062 3037.469 "></path>
    <path id="STROKE_3d230200-7c5f-4117-ae5d-0756db24daa6" opacity="1.000" fill="none" stroke="#000000" stroke-width="2.604" stroke-opacity="1.000" stroke-linecap="round" stroke-linejoin="round" d="M 11162.865 3040.317 Q 11162.861 3040.353 11162.921 3040.195 Q 11162.980 3040.038 11162.040 3042.090 Q 11161.100 3044.142 11160.855 3046.536 Q 11160.611 3048.929 11161.032 3050.936 Q 11161.453 3052.944 11162.157 3053.667 Q 11162.861 3054.389 11163.729 3054.719 Q 11164.598 3055.050 11165.618 3054.780 Q 11166.639 3054.511 11167.963 3053.351 Q 11169.287 3052.190 11170.347 3050.297 Q 11171.406 3048.403 11171.834 3047.081 Q 11172.262 3045.758 11172.385 3044.785 Q 11172.508 3043.813 11172.226 3043.563 Q 11171.943 3043.313 11171.580 3043.207 Q 11171.217 3043.101 11170.730 3043.155 Q 11170.244 3043.208 11169.465 3044.062 Q 11168.686 3044.917 11167.685 3046.364 Q 11166.684 3047.812 11163.066 3053.333 Q 11163.066 3052.007 11163.066 3052.127 Q 11163.115 3050.675 11165.734 3045.246 Q 11168.354 3039.816 11175.582 3032.628 Q 11175.771 3033.154 11175.066 3035.408 Q 11175.424 3035.654 11176.499 3034.198 Q 11177.574 3032.742 11178.837 3030.623 Q 11180.100 3028.504 11180.973 3027.473 Q 11181.846 3026.442 11182.732 3025.810 Q 11183.611 3027.197 11172.453 3042.243 Q 11172.539 3042.648 11175.808 3040.325 Q 11179.076 3038.001 11184.195 3037.218 Q 11184.934 3037.881 11183.171 3042.896 Q 11181.408 3047.911 11179.625 3051.168 Q 11177.842 3054.425 11176.020 3056.028 Q 11174.197 3057.631 11172.307 3058.024 Q 11172.250 3059.366 11172.071 3055.580 Q 11171.893 3051.795 11172.534 3049.585 Q 11173.176 3047.376 11173.586 3046.535 Q 11173.996 3045.694 11174.480 3045.346 Q 11174.965 3044.999 11175.216 3045.030 Q 11175.467 3045.062 11176.078 3045.218 Q 11176.689 3045.373 11178.318 3047.250 Q 11179.947 3049.126 11182.014 3051.337 Q 11184.080 3053.548 11186.690 3055.771 Q 11189.301 3057.994 11198.934 3058.392 "></path>
    <path id="STROKE_ddfcdea0-e740-4ec5-ab74-9309a69ac576" opacity="1.000" fill="none" stroke="#000000" stroke-width="2.672" stroke-opacity="1.000" stroke-linecap="round" stroke-linejoin="round" d="M 11205.883 3041.305 Q 11207.822 3040.348 11207.528 3040.577 Q 11207.234 3040.807 11212.207 3037.821 "></path>
    <path id="STROKE_f783e9b4-9a77-43f7-87cc-e4eea2e83b62" opacity="1.000" fill="none" stroke="#000000" stroke-width="2.377" stroke-opacity="1.000" stroke-linecap="round" stroke-linejoin="round" d="M 11211.000 3034.202 Q 11209.732 3035.005 11209.045 3056.784 Q 11208.943 3057.197 11208.178 3057.070 Q 11207.412 3056.944 11207.128 3056.442 Q 11206.844 3055.940 11206.776 3055.951 Q 11206.709 3055.963 11206.515 3055.261 Q 11206.320 3054.560 11206.016 3052.919 Q 11205.711 3051.278 11207.805 3048.073 "></path>
    <path id="STROKE_f28d0cdd-b01f-4f5a-8f9d-ee75f2d08019" opacity="1.000" fill="none" stroke="#000000" stroke-width="2.672" stroke-opacity="1.000" stroke-linecap="round" stroke-linejoin="round" d="M 11213.973 3038.390 Q 11214.320 3037.829 11223.951 3032.913 Q 11225.373 3033.360 11217.951 3042.813 Q 11217.570 3043.100 11219.368 3041.312 Q 11221.166 3039.523 11223.068 3036.112 "></path>
    <path id="STROKE_ca32d81f-6c76-4cb5-aaef-027ce492867c" opacity="1.000" fill="none" stroke="#000000" stroke-width="2.438" stroke-opacity="1.000" stroke-linecap="round" stroke-linejoin="round" d="M 11221.861 3033.063 Q 11220.908 3031.904 11212.834 3056.885 Q 11212.939 3057.633 11215.386 3053.678 Q 11217.832 3049.722 11219.495 3047.218 Q 11221.158 3044.713 11222.758 3043.552 Q 11224.357 3042.392 11226.398 3041.389 "></path>
    <path id="STROKE_cf58fc5e-035c-409a-bc99-f6504eb1ae41" opacity="1.000" fill="none" stroke="#000000" stroke-width="2.542" stroke-opacity="1.000" stroke-linecap="round" stroke-linejoin="round" d="M 11224.475 3044.438 Q 11222.689 3045.509 11220.588 3057.957 Q 11221.922 3057.363 11221.615 3057.287 Q 11220.531 3058.551 11226.900 3048.777 Q 11227.389 3049.521 11227.418 3051.562 Q 11227.447 3053.603 11226.591 3055.062 Q 11225.734 3056.522 11224.708 3057.074 Q 11223.682 3057.626 11223.350 3057.759 Q 11223.018 3057.891 11222.997 3057.895 Q 11222.977 3057.899 11223.088 3057.882 Q 11223.199 3057.865 11221.795 3058.174 Q 11221.883 3057.472 11222.472 3056.821 Q 11223.061 3056.170 11223.660 3055.646 Q 11224.260 3055.123 11224.891 3054.685 Q 11225.521 3054.247 11225.698 3054.152 Q 11225.875 3054.056 11226.364 3053.740 Q 11226.854 3053.424 11227.828 3052.831 "></path>
    <path id="STROKE_cf533d82-0679-41a2-973a-831e5e522eb9" opacity="1.000" fill="none" stroke="#000000" stroke-width="2.672" stroke-opacity="1.000" stroke-linecap="round" stroke-linejoin="round" d="M 11244.564 3036.548 Q 11243.590 3035.830 11255.002 3031.246 Q 11256.592 3032.090 11246.488 3049.279 Q 11247.082 3049.287 11253.662 3041.958 "></path>
    <path id="STROKE_9a6dbc53-b1a4-4087-9ce4-64d2c51b85ae" opacity="1.000" fill="none" stroke="#000000" stroke-width="2.499" stroke-opacity="1.000" stroke-linecap="round" stroke-linejoin="round" d="M 11252.320 3035.626 Q 11252.244 3035.735 11248.870 3043.538 Q 11245.496 3051.342 11243.717 3060.453 Q 11244.633 3061.649 11246.621 3052.261 Q 11247.346 3052.900 11250.051 3054.374 Q 11252.756 3055.848 11259.561 3055.461 "></path>
    <path id="STROKE_b4e25daf-ecc3-4d9c-9860-7cdda249a19e" opacity="1.000" fill="none" stroke="#000000" stroke-width="2.672" stroke-opacity="1.000" stroke-linecap="round" stroke-linejoin="round" d="M 11269.840 3043.935 Q 11269.773 3043.935 11269.416 3043.935 Q 11267.574 3044.057 11286.668 3036.615 "></path>
    <path id="STROKE_858f95d2-92ec-4f2c-ad36-c6249368149d" opacity="1.000" fill="none" stroke="#000000" stroke-width="2.666" stroke-opacity="1.000" stroke-linecap="round" stroke-linejoin="round" d="M 11281.482 3031.857 Q 11279.850 3032.549 11280.422 3032.561 Q 11280.188 3031.741 11279.991 3036.735 Q 11279.795 3041.728 11279.970 3046.029 Q 11280.145 3050.330 11280.186 3052.284 Q 11280.227 3054.238 11280.051 3055.142 Q 11279.875 3056.046 11279.607 3056.593 Q 11279.340 3057.140 11278.582 3057.265 Q 11277.824 3057.391 11277.409 3057.484 Q 11276.994 3057.577 11276.187 3056.543 Q 11275.379 3055.509 11274.918 3053.934 Q 11274.457 3052.358 11274.879 3050.309 Q 11273.748 3050.290 11279.918 3050.351 "></path>
    <path id="STROKE_0c01dc9f-9403-4987-8e23-e1d1556e885f" opacity="1.000" fill="none" stroke="#000000" stroke-width="2.672" stroke-opacity="1.000" stroke-linecap="round" stroke-linejoin="round" d="M 11247.492 3032.711 Q 11247.320 3032.612 11246.621 3031.991 Q 11246.250 3031.079 11246.733 3036.259 Q 11247.217 3041.439 11245.845 3046.395 Q 11244.473 3051.351 11243.086 3053.862 Q 11241.699 3056.373 11240.029 3060.587 "></path>
    <path id="STROKE_ae56db3b-325a-4c2b-8960-9fdd13e3cf28" opacity="1.000" fill="none" stroke="#000000" stroke-width="2.672" stroke-opacity="1.000" stroke-linecap="round" stroke-linejoin="round" d="M 11304.277 3046.716 Q 11304.277 3046.716 11304.914 3046.876 Q 11305.551 3047.035 11305.439 3047.110 Q 11305.887 3047.395 11307.539 3048.709 "></path>
    <path id="STROKE_e898856c-3ce0-4c40-ab02-72f71eb53a4c" opacity="1.000" fill="none" stroke="#000000" stroke-width="2.575" stroke-opacity="1.000" stroke-linecap="round" stroke-linejoin="round" d="M 11304.834 3055.829 Q 11304.049 3055.902 11300.791 3061.299 Q 11301.078 3061.715 11303.137 3062.011 "></path>
    <path id="STROKE_be64615a-4162-4a00-a0d0-a56b29bb76e2" opacity="1.000" fill="none" stroke="#000000" stroke-width="2.583" stroke-opacity="1.000" stroke-linecap="round" stroke-linejoin="round" d="M 11347.367 2898.428 Q 11347.631 2898.338 11347.477 2898.332 Q 11347.322 2898.326 11347.076 2897.590 Q 11346.830 2896.854 11345.317 2897.202 Q 11343.805 2897.549 11342.846 2897.958 Q 11341.887 2898.366 11340.277 2899.932 Q 11338.668 2901.499 11337.691 2902.820 Q 11336.715 2904.141 11336.471 2905.113 Q 11336.227 2906.084 11335.925 2907.749 Q 11335.623 2909.414 11338.137 2911.818 Q 11340.650 2914.222 11342.574 2915.446 Q 11344.498 2916.669 11344.872 2918.281 Q 11345.246 2919.892 11344.874 2921.040 Q 11344.502 2922.188 11341.944 2924.877 Q 11339.387 2927.566 11335.301 2929.737 Q 11335.768 2929.296 11336.815 2929.206 Q 11337.863 2929.115 11338.508 2929.074 Q 11339.152 2929.033 11340.296 2931.872 Q 11341.439 2934.710 11341.918 2938.298 Q 11342.396 2941.885 11342.787 2957.688 Q 11343.576 2959.100 11352.775 2955.837 "></path>
    <path id="STROKE_5a9098cf-a621-4f60-b8e7-062b970bf8fb" opacity="1.000" fill="none" stroke="#000000" stroke-width="2.672" stroke-opacity="1.000" stroke-linecap="round" stroke-linejoin="round" d="M 11469.471 2933.573 Q 11469.438 2933.573 11469.270 2933.573 Q 11469.305 2935.155 11469.336 2934.821 Q 11469.510 2935.514 11469.568 2935.501 Q 11469.627 2935.488 11469.616 2936.229 Q 11469.605 2936.971 11473.449 2942.820 "></path>
    <path id="STROKE_ef38c6b8-e076-482a-8b09-2acb4acaa130" opacity="1.000" fill="none" stroke="#000000" stroke-width="2.643" stroke-opacity="1.000" stroke-linecap="round" stroke-linejoin="round" d="M 11514.545 2914.158 Q 11514.545 2914.158 11514.108 2914.355 Q 11513.672 2914.553 11519.488 2912.202 Q 11525.305 2909.852 11534.857 2907.189 "></path>
    <path id="STROKE_5b5513e6-016b-4a71-8210-db4e703381ea" opacity="1.000" fill="none" stroke="#000000" stroke-width="2.672" stroke-opacity="1.000" stroke-linecap="round" stroke-linejoin="round" d="M 11519.371 2919.920 Q 11518.840 2920.824 11518.521 2923.053 Q 11519.471 2922.987 11519.416 2922.793 Q 11520.193 2922.275 11520.322 2921.763 Q 11520.451 2921.251 11521.663 2919.528 Q 11522.875 2917.806 11524.060 2917.255 Q 11525.244 2916.705 11525.685 2916.680 Q 11526.125 2916.655 11526.925 2916.579 Q 11527.725 2916.503 11528.043 2917.654 Q 11528.361 2918.805 11526.720 2921.535 Q 11525.078 2924.264 11521.875 2925.532 Q 11522.088 2924.180 11522.188 2924.469 Q 11522.059 2924.458 11526.053 2921.194 "></path>
    <path id="STROKE_ef7ec90f-15f4-4aa8-9f03-ad883de97a0e" opacity="1.000" fill="none" stroke="#000000" stroke-width="2.596" stroke-opacity="1.000" stroke-linecap="round" stroke-linejoin="round" d="M 11530.521 2912.516 Q 11530.037 2913.321 11530.232 2913.371 Q 11530.031 2914.402 11530.250 2920.026 Q 11530.469 2925.650 11529.648 2929.555 Q 11528.828 2933.460 11528.496 2935.419 Q 11528.164 2937.378 11527.170 2938.467 Q 11526.176 2939.555 11525.428 2939.879 Q 11524.680 2940.204 11524.334 2940.154 Q 11523.988 2940.104 11523.539 2940.143 Q 11523.090 2940.182 11522.778 2940.016 Q 11522.467 2939.851 11522.196 2939.357 Q 11521.926 2938.864 11521.092 2937.058 "></path>
    <path id="STROKE_e7b975ac-5abe-42ff-9a23-d34bfb4b14e2" opacity="1.000" fill="none" stroke="#000000" stroke-width="2.672" stroke-opacity="1.000" stroke-linecap="round" stroke-linejoin="round" d="M 11543.236 2912.231 Q 11544.295 2911.626 11544.773 2911.764 Q 11545.252 2911.902 11545.320 2912.303 Q 11545.389 2912.704 11545.529 2913.538 Q 11545.670 2914.371 11545.767 2914.908 Q 11545.863 2915.446 11544.512 2918.714 "></path>
    <path id="STROKE_ad32d71a-5407-430f-8ec9-c84940fc6897" opacity="1.000" fill="none" stroke="#000000" stroke-width="2.672" stroke-opacity="1.000" stroke-linecap="round" stroke-linejoin="round" d="M 11542.455 2922.768 Q 11542.311 2922.978 11541.674 2923.975 Q 11543.354 2923.999 11543.045 2924.009 Q 11542.736 2924.020 11543.210 2923.938 Q 11543.684 2923.855 11544.432 2924.471 Q 11545.180 2925.087 11545.118 2925.216 Q 11545.057 2925.345 11545.248 2926.011 Q 11545.439 2926.677 11545.496 2928.602 Q 11545.553 2930.528 11543.170 2937.343 Q 11544.283 2938.043 11548.355 2930.876 "></path>
    <path id="STROKE_a7040a9b-2280-40d4-a20b-f32b01f1de51" opacity="1.000" fill="none" stroke="#000000" stroke-width="2.672" stroke-opacity="1.000" stroke-linecap="round" stroke-linejoin="round" d="M 11555.863 2909.183 Q 11555.898 2908.740 11554.725 2916.788 "></path>
    <path id="STROKE_81f1ad7c-7ac7-4930-88da-41d1560bd6f2" opacity="1.000" fill="none" stroke="#000000" stroke-width="2.672" stroke-opacity="1.000" stroke-linecap="round" stroke-linejoin="round" d="M 11554.725 2917.140 Q 11554.768 2916.212 11554.697 2915.234 Q 11554.627 2914.256 11556.110 2911.911 Q 11557.594 2909.565 11559.295 2908.119 Q 11560.996 2906.672 11563.607 2906.645 Q 11564.352 2908.662 11562.460 2912.525 Q 11560.568 2916.389 11555.584 2919.351 Q 11555.451 2917.656 11555.506 2917.994 Q 11555.061 2915.651 11561.584 2912.516 Q 11561.781 2913.374 11561.473 2913.722 "></path>
    <path id="STROKE_090eb2d7-be46-45e4-b55e-078865ee3c18" opacity="1.000" fill="none" stroke="#000000" stroke-width="2.672" stroke-opacity="1.000" stroke-linecap="round" stroke-linejoin="round" d="M 11555.014 2918.497 Q 11555.240 2918.109 11554.696 2918.913 Q 11554.152 2919.717 11553.200 2922.064 Q 11552.248 2924.412 11551.528 2927.818 Q 11550.809 2931.224 11550.659 2933.065 Q 11550.510 2934.907 11550.533 2935.856 Q 11550.557 2936.804 11550.548 2937.311 Q 11550.539 2937.817 11551.110 2938.249 Q 11551.682 2938.681 11552.778 2938.492 Q 11553.875 2938.303 11555.245 2936.802 Q 11556.615 2935.300 11556.984 2933.832 Q 11557.354 2932.363 11557.271 2931.439 Q 11557.189 2930.515 11556.855 2930.060 Q 11556.521 2929.605 11555.976 2929.423 Q 11555.430 2929.240 11555.545 2929.218 Q 11555.660 2929.195 11552.758 2929.343 L 11552.758 2929.385 Q 11553.986 2928.776 11558.277 2923.338 "></path>
    <path id="STROKE_ef6472c2-c22f-4508-af6c-0465553bac76" opacity="1.000" fill="none" stroke="#000000" stroke-width="2.672" stroke-opacity="1.000" stroke-linecap="round" stroke-linejoin="round" d="M 11562.188 2917.424 Q 11561.680 2917.370 11560.296 2922.180 Q 11558.912 2926.991 11558.499 2929.654 Q 11558.086 2932.316 11558.033 2934.057 Q 11557.980 2935.797 11558.471 2937.116 Q 11558.961 2938.434 11560.751 2938.501 Q 11562.541 2938.568 11563.764 2938.286 Q 11564.986 2938.003 11566.677 2936.969 Q 11568.367 2935.935 11570.305 2934.421 Q 11572.242 2932.906 11574.188 2929.167 "></path>
    <path id="STROKE_fff49cc7-a58d-4dac-b506-c005a24352f2" opacity="1.000" fill="none" stroke="#000000" stroke-width="2.400" stroke-opacity="1.000" stroke-linecap="round" stroke-linejoin="round" d="M 11588.244 2908.177 Q 11587.900 2909.728 11572.334 2929.519 "></path>
    <path id="STROKE_5824832a-f1f9-40f9-bd3d-69a01355672f" opacity="1.000" fill="none" stroke="#000000" stroke-width="2.672" stroke-opacity="1.000" stroke-linecap="round" stroke-linejoin="round" d="M 11579.217 2922.333 Q 11579.684 2921.882 11580.580 2920.421 Q 11581.477 2918.960 11583.902 2918.426 Q 11586.328 2917.892 11587.660 2917.934 Q 11588.992 2917.976 11589.328 2918.156 Q 11589.664 2918.336 11590.072 2918.994 Q 11590.480 2919.653 11590.262 2920.991 Q 11590.043 2922.330 11587.752 2924.393 "></path>
    <path id="STROKE_9b04d597-2a25-4f18-9a52-db6e942ced3a" opacity="1.000" fill="none" stroke="#000000" stroke-width="2.672" stroke-opacity="1.000" stroke-linecap="round" stroke-linejoin="round" d="M 11579.863 2928.665 Q 11579.719 2928.665 11579.217 2928.665 Q 11579.152 2928.361 11579.235 2927.795 Q 11579.318 2927.229 11580.629 2926.392 Q 11581.939 2925.553 11584.363 2925.630 Q 11586.787 2925.708 11585.764 2925.687 Q 11584.740 2925.666 11585.217 2925.641 Q 11585.621 2926.744 11584.819 2928.882 Q 11584.018 2931.020 11582.481 2932.958 Q 11580.945 2934.897 11579.217 2934.997 Q 11578.361 2934.752 11585.115 2930.524 Q 11585.912 2931.012 11582.211 2936.421 Q 11581.902 2937.103 11585.764 2934.930 "></path>
    <path id="STROKE_e400f9f7-c065-453b-824c-1163dd8675fe" opacity="1.000" fill="none" stroke="#000000" stroke-width="2.672" stroke-opacity="1.000" stroke-linecap="round" stroke-linejoin="round" d="M 11579.217 2931.798 Q 11578.818 2931.970 11578.379 2932.150 Q 11577.939 2932.331 11577.969 2932.379 Q 11577.998 2932.428 11577.719 2932.386 Q 11577.439 2932.344 11576.814 2935.073 Q 11577.061 2935.282 11578.590 2935.567 "></path>
    <path id="STROKE_ac3edc4a-fc27-4314-bf8c-74f429c13a73" opacity="1.000" fill="none" stroke="#000000" stroke-width="2.672" stroke-opacity="1.000" stroke-linecap="round" stroke-linejoin="round" d="M 11601.094 2903.135 Q 11601.600 2902.295 11601.640 2902.265 Q 11601.680 2902.235 11601.785 2902.185 Q 11601.891 2902.135 11601.684 2902.269 Q 11601.477 2902.402 11602.099 2901.756 Q 11602.721 2901.110 11604.290 2901.262 Q 11605.859 2901.415 11606.821 2902.109 Q 11607.783 2902.802 11608.780 2903.946 Q 11609.777 2905.090 11610.078 2905.771 Q 11610.379 2906.452 11610.394 2906.520 Q 11610.408 2906.587 11610.395 2906.549 Q 11610.381 2906.512 11610.442 2906.839 Q 11610.504 2907.167 11610.523 2907.608 Q 11610.568 2907.608 11610.613 2907.608 Q 11611.225 2907.555 11609.704 2912.402 Q 11608.184 2917.250 11607.277 2919.749 Q 11606.371 2922.249 11606.118 2923.558 Q 11605.865 2924.867 11605.955 2925.851 Q 11605.373 2925.582 11606.429 2926.080 Q 11607.484 2926.578 11608.874 2925.908 Q 11610.264 2925.239 11610.771 2924.525 Q 11611.279 2923.811 11611.479 2923.388 Q 11611.680 2922.966 11611.820 2922.400 Q 11610.848 2923.764 11609.780 2927.450 Q 11608.713 2931.136 11608.512 2933.955 Q 11608.311 2936.774 11608.728 2938.165 Q 11609.145 2939.556 11609.725 2940.590 Q 11610.305 2941.625 11610.548 2942.116 Q 11610.791 2942.608 11610.486 2943.646 Q 11610.182 2944.684 11609.617 2944.896 Q 11609.053 2945.108 11599.596 2947.444 "></path>
    <path id="STROKE_f6d4ddf6-8b43-474d-97c8-ade04ee14be3" opacity="1.000" fill="none" stroke="#000000" stroke-width="2.647" stroke-opacity="1.000" stroke-linecap="round" stroke-linejoin="round" d="M 11353.467 3019.729 Q 11353.465 3019.292 11353.229 3018.786 Q 11352.994 3018.279 11351.995 3017.962 Q 11350.996 3017.645 11349.914 3017.865 Q 11348.832 3018.084 11348.273 3018.732 Q 11347.715 3019.380 11347.219 3020.140 Q 11346.723 3020.900 11346.053 3022.746 Q 11345.383 3024.591 11346.469 3026.995 Q 11347.555 3029.398 11349.068 3031.581 Q 11350.582 3033.763 11351.584 3035.886 Q 11352.586 3038.010 11353.227 3039.770 Q 11353.867 3041.530 11352.124 3043.427 Q 11350.381 3045.325 11348.183 3046.580 Q 11345.984 3047.836 11343.256 3047.956 Q 11343.275 3046.832 11344.967 3046.193 Q 11346.658 3045.554 11347.278 3045.555 Q 11347.898 3045.555 11348.832 3045.833 Q 11349.766 3046.111 11351.132 3048.870 Q 11352.498 3051.628 11352.541 3057.133 Q 11352.584 3062.637 11352.049 3071.551 Q 11352.570 3071.724 11356.463 3071.224 "></path>
    <path id="STROKE_5246f267-d500-4483-acbe-08bc5e2395fb" opacity="1.000" fill="none" stroke="#000000" stroke-width="2.672" stroke-opacity="1.000" stroke-linecap="round" stroke-linejoin="round" d="M 11382.229 3025.843 Q 11382.725 3024.692 11402.877 3021.923 "></path>
    <path id="STROKE_77f0c916-e68c-4617-962b-20581a9fdb65" opacity="1.000" fill="none" stroke="#000000" stroke-width="2.671" stroke-opacity="1.000" stroke-linecap="round" stroke-linejoin="round" d="M 11389.535 3033.515 Q 11388.516 3033.816 11387.055 3039.111 Q 11387.002 3039.008 11387.235 3039.404 Q 11387.469 3039.800 11388.781 3037.269 Q 11390.094 3034.738 11391.394 3032.361 Q 11392.693 3029.983 11396.184 3028.900 Q 11398.439 3029.566 11390.184 3039.781 Q 11390.869 3039.941 11395.928 3034.939 "></path>
    <path id="STROKE_fc5fd630-6952-4634-898c-1461f83c03d8" opacity="1.000" fill="none" stroke="#000000" stroke-width="2.653" stroke-opacity="1.000" stroke-linecap="round" stroke-linejoin="round" d="M 11399.680 3027.552 Q 11399.682 3026.326 11399.682 3026.622 Q 11399.682 3026.480 11399.682 3026.195 Q 11399.410 3026.623 11399.467 3032.516 Q 11399.523 3038.408 11399.149 3042.487 Q 11398.775 3046.566 11398.033 3049.049 Q 11397.291 3051.531 11396.499 3052.546 Q 11395.707 3053.561 11394.876 3053.735 Q 11394.045 3053.910 11392.863 3053.792 Q 11391.682 3053.674 11389.826 3049.882 "></path>
    <path id="STROKE_e01be9dc-4c50-47b6-bc92-434b9401a20c" opacity="1.000" fill="none" stroke="#000000" stroke-width="2.672" stroke-opacity="1.000" stroke-linecap="round" stroke-linejoin="round" d="M 11417.939 3020.935 Q 11417.625 3020.131 11419.313 3019.471 Q 11421.002 3018.811 11422.532 3018.543 Q 11424.062 3018.276 11424.941 3018.736 Q 11425.820 3019.195 11426.252 3021.789 "></path>
    <path id="STROKE_7058759b-4a9b-4b0d-bf2f-f61999af8514" opacity="1.000" fill="none" stroke="#000000" stroke-width="2.672" stroke-opacity="1.000" stroke-linecap="round" stroke-linejoin="round" d="M 11415.168 3029.897 Q 11415.674 3029.779 11414.186 3030.115 Q 11414.758 3029.432 11425.738 3023.850 "></path>
    <path id="STROKE_ee7f7ee9-f320-45fe-8af0-a0066ad83018" opacity="1.000" fill="none" stroke="#000000" stroke-width="2.672" stroke-opacity="1.000" stroke-linecap="round" stroke-linejoin="round" d="M 11419.637 3036.011 Q 11419.617 3034.958 11419.459 3039.823 Q 11419.551 3039.864 11419.906 3039.927 Q 11420.262 3039.990 11420.643 3040.065 "></path>
    <path id="STROKE_7524a5e9-61d2-4584-b789-77eeda5575b0" opacity="1.000" fill="none" stroke="#000000" stroke-width="2.672" stroke-opacity="1.000" stroke-linecap="round" stroke-linejoin="round" d="M 11425.805 3028.406 Q 11425.805 3028.364 11425.805 3028.322 Q 11425.477 3029.079 11424.955 3037.653 Q 11425.119 3037.628 11425.381 3037.502 "></path>
    <path id="STROKE_15227ba7-742f-4889-a5af-010136399f0c" opacity="1.000" fill="none" stroke="#000000" stroke-width="2.672" stroke-opacity="1.000" stroke-linecap="round" stroke-linejoin="round" d="M 11416.307 3043.985 Q 11416.260 3044.162 11413.895 3044.589 Q 11414.000 3044.383 11413.743 3044.341 Q 11413.486 3044.300 11415.653 3041.944 Q 11417.820 3039.589 11419.525 3038.253 Q 11421.230 3036.917 11422.323 3036.596 Q 11423.416 3036.276 11423.950 3036.321 Q 11424.484 3036.367 11424.663 3036.739 Q 11424.842 3037.111 11425.106 3038.642 Q 11425.371 3040.174 11424.959 3041.559 Q 11424.547 3042.944 11423.925 3043.917 Q 11423.303 3044.891 11421.951 3045.326 Q 11421.902 3045.416 11421.967 3044.608 Q 11422.031 3043.801 11421.559 3040.535 Q 11422.203 3039.804 11417.225 3042.980 Q 11417.311 3042.840 11417.234 3042.952 Q 11417.158 3043.064 11417.240 3042.756 Q 11417.322 3042.448 11418.312 3041.299 Q 11419.303 3040.150 11419.425 3039.868 Q 11419.547 3039.585 11421.048 3039.269 Q 11422.549 3038.952 11422.195 3039.429 Q 11422.092 3038.910 11422.652 3040.158 Q 11423.213 3041.406 11423.918 3042.427 Q 11424.623 3043.448 11421.884 3046.331 Q 11419.145 3049.213 11417.498 3051.312 Q 11415.852 3053.411 11412.643 3054.254 Q 11412.398 3054.115 11411.973 3049.597 "></path>
    <path id="STROKE_962c6b83-9a1e-42a5-9060-6a179aae2b1e" opacity="1.000" fill="none" stroke="#000000" stroke-width="2.672" stroke-opacity="1.000" stroke-linecap="round" stroke-linejoin="round" d="M 11413.402 3043.198 Q 11414.328 3042.721 11414.141 3042.913 Q 11414.350 3042.927 11416.449 3045.410 Q 11418.549 3047.893 11422.051 3049.701 Q 11425.553 3051.508 11428.147 3052.098 Q 11430.742 3052.687 11432.979 3051.457 "></path>
    <path id="STROKE_65d5fe23-d294-40b7-b539-6ee059b1a8f8" opacity="1.000" fill="none" stroke="#000000" stroke-width="2.672" stroke-opacity="1.000" stroke-linecap="round" stroke-linejoin="round" d="M 11418.295 3031.539 Q 11417.312 3031.538 11413.619 3034.091 Q 11409.926 3036.643 11408.252 3043.516 Q 11408.834 3043.815 11409.066 3043.835 "></path>
    <path id="STROKE_1901d48f-6404-4e44-ae21-fc29221d5bbb" opacity="1.000" fill="none" stroke="#000000" stroke-width="2.672" stroke-opacity="1.000" stroke-linecap="round" stroke-linejoin="round" d="M 11424.531 3031.103 Q 11423.924 3030.750 11425.400 3030.438 Q 11426.877 3030.125 11427.868 3030.028 Q 11428.859 3029.932 11429.931 3030.643 Q 11431.002 3031.354 11432.493 3032.221 Q 11433.984 3033.088 11435.480 3033.884 "></path>
    <path id="STROKE_3a67fb1d-4f48-4e7a-9055-ac9795027e6d" opacity="1.000" fill="none" stroke="#000000" stroke-width="2.672" stroke-opacity="1.000" stroke-linecap="round" stroke-linejoin="round" d="M 11420.977 3024.486 Q 11419.953 3024.617 11418.711 3027.529 Q 11417.469 3030.441 11418.654 3039.647 "></path>
    <path id="STROKE_43ddf2e3-b26c-4a89-89a8-34eaa52f4eeb" opacity="1.000" fill="none" stroke="#000000" stroke-width="2.672" stroke-opacity="1.000" stroke-linecap="round" stroke-linejoin="round" d="M 11464.867 3047.604 Q 11464.867 3047.604 11465.425 3048.031 Q 11465.982 3048.458 11465.705 3048.316 Q 11466.939 3049.914 11467.926 3051.148 Q 11468.912 3052.383 11471.170 3055.930 "></path>
    <path id="STROKE_60397bdb-d424-4645-b2aa-a17ee280e188" opacity="1.000" fill="none" stroke="#000000" stroke-width="2.064" stroke-opacity="1.000" stroke-linecap="round" stroke-linejoin="round" d="M 11515.840 3014.737 Q 11515.840 3014.737 11515.690 3014.894 Q 11515.541 3015.051 11516.675 3021.667 Q 11517.809 3028.284 11515.551 3050.100 Q 11515.551 3049.815 11515.551 3049.530 "></path>
    <path id="STROKE_4deb5103-bcf4-4534-b073-567192aaf3e8" opacity="1.000" fill="none" stroke="#000000" stroke-width="2.545" stroke-opacity="1.000" stroke-linecap="round" stroke-linejoin="round" d="M 11512.711 3022.426 Q 11512.633 3022.426 11512.354 3022.426 Q 11513.260 3020.911 11513.170 3021.328 Q 11514.102 3020.575 11518.650 3018.414 Q 11523.199 3016.252 11527.015 3015.528 Q 11530.830 3014.804 11532.646 3014.756 Q 11534.461 3014.708 11535.038 3014.590 Q 11535.615 3014.472 11536.374 3015.554 Q 11537.133 3016.637 11537.292 3017.703 Q 11537.451 3018.770 11537.593 3019.798 Q 11537.734 3020.826 11537.763 3021.326 Q 11537.791 3021.826 11537.841 3026.640 Q 11537.891 3031.455 11537.695 3048.240 Q 11537.662 3048.430 11537.047 3046.967 "></path>
    <path id="STROKE_780cd794-6513-47ff-bcb1-7063773aad7b" opacity="1.000" fill="none" stroke="#000000" stroke-width="2.672" stroke-opacity="1.000" stroke-linecap="round" stroke-linejoin="round" d="M 11520.020 3029.110 Q 11518.938 3029.531 11519.025 3029.395 Q 11518.779 3029.395 11518.590 3029.395 Q 11518.479 3028.391 11520.688 3027.479 Q 11522.896 3026.567 11525.494 3023.984 "></path>
    <path id="STROKE_73d15631-a307-4478-b5bc-34638f97f937" opacity="1.000" fill="none" stroke="#000000" stroke-width="2.672" stroke-opacity="1.000" stroke-linecap="round" stroke-linejoin="round" d="M 11526.410 3021.354 Q 11526.410 3021.211 11526.410 3020.717 Q 11525.412 3020.439 11520.154 3037.569 Q 11519.975 3037.660 11520.039 3037.623 Q 11520.104 3037.585 11520.572 3037.479 Q 11521.041 3037.373 11521.584 3035.727 Q 11521.564 3036.173 11521.227 3038.072 Q 11520.973 3037.575 11526.512 3033.884 Q 11528.164 3035.107 11523.438 3041.624 Q 11524.188 3040.635 11529.148 3039.823 Q 11529.205 3041.451 11529.182 3041.205 Q 11530.027 3040.490 11527.193 3044.689 "></path>
    <path id="STROKE_a1ab011e-7450-45c8-8222-34e5dc0d6434" opacity="1.000" fill="none" stroke="#000000" stroke-width="2.468" stroke-opacity="1.000" stroke-linecap="round" stroke-linejoin="round" d="M 11517.180 3051.524 Q 11516.430 3052.216 11512.064 3052.864 Q 11512.547 3049.421 11538.344 3044.689 "></path>
    <path id="STROKE_424b86e6-4218-4939-8ed0-35843f013637" opacity="1.000" fill="none" stroke="#000000" stroke-width="2.672" stroke-opacity="1.000" stroke-linecap="round" stroke-linejoin="round" d="M 11523.080 3026.061 Q 11522.979 3026.397 11523.821 3025.221 Q 11524.664 3024.046 11526.395 3023.286 Q 11528.125 3022.526 11529.428 3022.530 Q 11530.730 3022.534 11532.221 3023.213 "></path>
    <path id="STROKE_dd3e9ef7-2812-4433-9226-0c0857d5bba3" opacity="1.000" fill="none" stroke="#000000" stroke-width="2.672" stroke-opacity="1.000" stroke-linecap="round" stroke-linejoin="round" d="M 11521.650 3038.792 Q 11521.367 3038.595 11521.500 3037.677 Q 11521.633 3036.760 11522.008 3035.780 Q 11522.383 3034.800 11523.421 3033.959 Q 11524.459 3033.118 11525.745 3032.904 Q 11527.031 3032.690 11527.690 3032.778 Q 11528.350 3032.867 11528.480 3033.249 Q 11528.611 3033.631 11528.672 3033.827 Q 11528.732 3034.024 11528.938 3036.458 Q 11529.145 3038.893 11524.488 3041.774 Q 11524.588 3041.572 11524.483 3041.778 Q 11524.379 3041.984 11524.550 3041.625 Q 11524.721 3041.266 11525.263 3040.624 Q 11525.805 3039.981 11526.104 3039.839 Q 11526.402 3039.696 11526.751 3039.462 Q 11527.100 3039.227 11530.746 3037.368 "></path>
    <path id="STROKE_bae537ca-3b10-46f8-9c49-f311c4401c50" opacity="1.000" fill="none" stroke="#000000" stroke-width="2.672" stroke-opacity="1.000" stroke-linecap="round" stroke-linejoin="round" d="M 11556.287 3017.651 Q 11556.141 3017.635 11556.456 3016.474 Q 11556.771 3015.313 11561.338 3013.966 "></path>
    <path id="STROKE_0f8b256c-9baf-41e8-b793-64f6a3336e66" opacity="1.000" fill="none" stroke="#000000" stroke-width="2.672" stroke-opacity="1.000" stroke-linecap="round" stroke-linejoin="round" d="M 11551.328 3027.686 Q 11550.723 3028.082 11550.147 3030.068 Q 11549.572 3032.053 11549.571 3033.232 Q 11549.570 3034.410 11549.951 3034.982 Q 11550.332 3035.554 11550.266 3035.432 Q 11550.199 3035.310 11550.723 3035.576 Q 11551.246 3035.843 11552.129 3033.773 Q 11553.012 3031.704 11554.292 3029.979 Q 11555.572 3028.254 11557.915 3026.270 Q 11560.258 3024.287 11562.751 3022.711 Q 11565.244 3021.136 11566.690 3020.922 Q 11568.137 3020.709 11568.810 3020.730 Q 11569.482 3020.752 11569.921 3023.157 Q 11570.359 3025.562 11568.882 3028.716 Q 11567.404 3031.869 11566.122 3034.011 Q 11564.840 3036.154 11561.977 3036.548 Q 11562.246 3037.159 11561.777 3035.739 Q 11561.309 3034.318 11562.199 3032.790 Q 11563.090 3031.262 11563.847 3030.987 Q 11564.604 3030.712 11565.062 3030.857 Q 11565.521 3031.002 11565.373 3030.831 Q 11565.225 3030.660 11565.591 3031.366 Q 11565.957 3032.072 11566.006 3033.698 Q 11566.055 3035.323 11565.659 3036.650 Q 11565.264 3037.977 11563.953 3039.932 Q 11564.035 3040.479 11565.383 3036.447 "></path>
    <path id="STROKE_fb4c2e51-c94f-4b9f-acf1-3ef831d095a4" opacity="1.000" fill="none" stroke="#000000" stroke-width="2.672" stroke-opacity="1.000" stroke-linecap="round" stroke-linejoin="round" d="M 11560.131 3034.085 Q 11559.363 3034.170 11556.867 3037.446 Q 11554.371 3040.722 11552.824 3045.895 Q 11552.801 3046.273 11556.627 3044.821 Q 11560.453 3043.368 11566.081 3042.974 Q 11571.709 3042.581 11575.215 3042.392 Q 11578.721 3042.204 11581.139 3040.635 "></path>
    <path id="STROKE_8d5b5604-96d5-416c-9cd6-e62f2362dbcb" opacity="1.000" fill="none" stroke="#000000" stroke-width="2.672" stroke-opacity="1.000" stroke-linecap="round" stroke-linejoin="round" d="M 11584.623 3015.105 Q 11584.719 3014.427 11586.729 3012.331 Q 11588.738 3010.235 11592.502 3010.012 Q 11593.201 3010.725 11593.282 3013.477 Q 11593.363 3016.229 11591.588 3020.251 Q 11589.812 3024.274 11589.340 3030.961 Q 11589.729 3031.239 11589.814 3031.236 Q 11589.900 3031.233 11591.342 3031.441 Q 11592.783 3031.649 11593.571 3031.154 Q 11594.359 3030.660 11594.499 3030.238 Q 11594.639 3029.816 11594.585 3029.783 Q 11594.531 3029.751 11594.151 3029.414 Q 11593.771 3029.076 11593.262 3028.981 Q 11592.752 3028.885 11591.959 3031.144 Q 11591.166 3033.402 11591.105 3035.320 Q 11591.045 3037.237 11590.892 3041.140 Q 11590.738 3045.042 11590.199 3048.482 Q 11589.660 3051.921 11588.205 3054.708 Q 11586.750 3057.496 11585.021 3060.052 Q 11583.293 3062.608 11578.166 3063.183 "></path>
    <path id="STROKE_af128124-38ed-44e9-9836-73e02def10ba" opacity="1.000" fill="none" stroke="#000000" stroke-width="2.672" stroke-opacity="1.000" stroke-linecap="round" stroke-linejoin="round" d="M 11152.211 2935.500 Q 11152.180 2935.500 11151.520 2935.466 Q 11152.426 2934.042 11161.307 2933.573 "></path>
    <path id="STROKE_07b61aa9-e0d3-4d1f-838b-08e7fe8d8cc9" opacity="1.000" fill="none" stroke="#000000" stroke-width="2.672" stroke-opacity="1.000" stroke-linecap="round" stroke-linejoin="round" d="M 11160.658 2935.718 Q 11160.502 2936.567 11160.459 2936.497 Q 11160.000 2937.791 11158.670 2941.179 "></path>
    <path id="STROKE_0772809a-10eb-4e4e-9145-711995d45eee" opacity="1.000" fill="none" stroke="#000000" stroke-width="2.651" stroke-opacity="1.000" stroke-linecap="round" stroke-linejoin="round" d="M 11235.275 3122.653 Q 11235.275 3122.653 11235.074 3122.069 Q 11234.873 3121.485 11231.777 3123.482 Q 11228.682 3125.480 11222.650 3130.124 Q 11224.080 3129.337 11224.880 3134.873 Q 11225.680 3140.408 11226.090 3143.462 Q 11226.500 3146.516 11226.671 3147.714 Q 11226.842 3148.911 11227.004 3149.620 Q 11227.166 3150.329 11227.328 3150.653 Q 11227.490 3150.977 11227.973 3150.904 Q 11228.455 3150.830 11229.222 3149.684 Q 11229.988 3148.538 11230.873 3146.625 "></path>
    <path id="STROKE_9c18671c-8be0-43e9-b0c8-a780bf3000fd" opacity="1.000" fill="none" stroke="#000000" stroke-width="2.672" stroke-opacity="1.000" stroke-linecap="round" stroke-linejoin="round" d="M 11228.035 3132.402 Q 11227.291 3132.324 11226.139 3132.317 Q 11224.986 3132.310 11223.990 3133.257 Q 11225.402 3133.541 11228.230 3131.821 Q 11231.059 3130.100 11233.823 3128.650 Q 11236.588 3127.200 11238.556 3126.709 Q 11240.523 3126.218 11241.795 3126.568 Q 11243.066 3126.919 11243.372 3127.042 Q 11243.678 3127.166 11244.680 3129.586 Q 11245.682 3132.007 11245.659 3136.959 Q 11245.637 3141.911 11245.812 3144.872 Q 11245.988 3147.833 11243.656 3149.975 "></path>
    <path id="STROKE_151d8c56-e897-47c2-bce0-59085230a496" opacity="1.000" fill="none" stroke="#000000" stroke-width="2.672" stroke-opacity="1.000" stroke-linecap="round" stroke-linejoin="round" d="M 11232.930 3139.371 Q 11233.244 3139.531 11232.146 3138.869 Q 11232.684 3138.761 11232.718 3138.760 Q 11232.752 3138.759 11232.817 3138.737 Q 11232.883 3138.715 11233.392 3138.333 Q 11233.900 3137.952 11234.596 3137.369 Q 11235.291 3136.786 11235.055 3136.824 Q 11234.818 3136.862 11236.984 3135.820 Q 11237.051 3136.181 11237.370 3138.747 Q 11237.689 3141.313 11236.833 3143.250 Q 11235.977 3145.185 11235.386 3145.792 Q 11234.795 3146.398 11234.481 3146.715 Q 11234.168 3147.032 11233.086 3146.951 Q 11231.607 3145.693 11238.896 3142.286 "></path>
    <path id="STROKE_05f56a4c-5bd5-4efe-ba86-269c2c651722" opacity="1.000" fill="none" stroke="#000000" stroke-width="2.672" stroke-opacity="1.000" stroke-linecap="round" stroke-linejoin="round" d="M 11234.068 3137.244 Q 11233.832 3137.007 11232.258 3138.980 Q 11230.684 3140.954 11230.160 3143.193 Q 11229.637 3145.433 11229.646 3146.531 Q 11229.654 3147.628 11229.983 3148.782 Q 11230.312 3149.937 11234.203 3148.484 "></path>
    <path id="STROKE_3e87430d-cb45-4552-9dd7-21ef585e5413" opacity="1.000" fill="none" stroke="#000000" stroke-width="2.672" stroke-opacity="1.000" stroke-linecap="round" stroke-linejoin="round" d="M 11256.506 3121.882 Q 11256.717 3122.231 11256.671 3124.592 Q 11256.625 3126.953 11256.972 3129.088 Q 11257.318 3131.222 11259.555 3132.084 Q 11259.814 3132.377 11259.697 3130.248 Q 11259.580 3128.118 11259.210 3126.515 Q 11258.840 3124.911 11259.696 3123.484 Q 11260.553 3122.057 11261.601 3121.119 Q 11262.648 3120.180 11263.425 3119.967 Q 11264.201 3119.753 11264.847 3119.872 Q 11265.492 3119.991 11265.668 3121.021 Q 11265.844 3122.050 11265.773 3122.698 Q 11265.703 3123.346 11265.846 3123.838 Q 11265.988 3124.329 11264.514 3126.619 Q 11263.039 3128.909 11259.020 3129.161 Q 11257.891 3125.947 11264.885 3124.186 Q 11264.814 3123.793 11265.164 3125.822 Q 11265.514 3127.851 11258.359 3132.821 Q 11258.109 3132.011 11259.940 3130.659 Q 11261.771 3129.307 11263.149 3128.645 Q 11264.527 3127.983 11266.014 3128.306 Q 11266.078 3127.983 11266.299 3129.332 Q 11266.520 3130.681 11263.966 3133.848 Q 11261.412 3137.016 11255.723 3139.371 Q 11255.277 3139.037 11257.486 3136.535 Q 11259.695 3134.033 11264.236 3133.072 Q 11265.533 3133.991 11262.686 3137.621 Q 11259.838 3141.251 11255.299 3146.206 Q 11255.584 3146.319 11257.355 3145.100 Q 11259.127 3143.880 11262.047 3139.807 Q 11262.002 3140.339 11261.173 3143.308 Q 11260.344 3146.277 11259.935 3147.759 Q 11259.525 3149.242 11258.501 3149.994 Q 11257.477 3150.747 11256.716 3150.908 Q 11255.955 3151.070 11255.762 3151.142 Q 11255.568 3151.215 11255.253 3151.306 Q 11254.938 3151.397 11252.662 3151.751 Q 11252.865 3151.450 11252.808 3151.187 Q 11252.750 3150.924 11255.339 3149.571 Q 11257.928 3148.218 11260.653 3147.477 Q 11263.379 3146.737 11276.953 3145.854 "></path>
    <path id="STROKE_1a9bfd5b-3a59-4c69-90e4-a2e74d505e70" opacity="1.000" fill="none" stroke="#000000" stroke-width="2.260" stroke-opacity="1.000" stroke-linecap="round" stroke-linejoin="round" d="M 11297.891 3113.975 Q 11297.926 3113.975 11297.959 3113.975 Q 11297.195 3113.543 11293.825 3118.508 Q 11290.455 3123.472 11281.645 3133.676 Q 11281.928 3133.481 11282.658 3133.832 Q 11283.389 3134.184 11283.631 3138.167 Q 11283.873 3142.150 11282.764 3148.903 Q 11282.844 3149.350 11285.749 3146.443 Q 11288.654 3143.536 11294.494 3134.614 "></path>
    <path id="STROKE_b8dab665-6d69-4a19-9b4a-6abbdb00a293" opacity="1.000" fill="none" stroke="#000000" stroke-width="2.431" stroke-opacity="1.000" stroke-linecap="round" stroke-linejoin="round" d="M 11297.824 3129.554 Q 11298.494 3128.224 11301.545 3125.149 Q 11301.912 3125.697 11298.250 3130.660 Q 11294.588 3135.623 11286.998 3141.867 Q 11286.053 3141.858 11288.683 3136.731 Q 11291.312 3131.604 11292.842 3122.871 Q 11293.006 3123.025 11291.481 3130.580 Q 11289.957 3138.135 11288.917 3142.461 Q 11287.877 3146.787 11287.710 3148.205 Q 11287.543 3149.622 11287.359 3151.662 Q 11287.176 3153.703 11290.711 3154.037 Q 11294.246 3154.372 11298.127 3153.703 Q 11302.008 3153.034 11306.986 3149.439 Q 11306.607 3149.260 11305.136 3148.537 Q 11303.664 3147.815 11302.854 3139.589 "></path>
    <path id="STROKE_36cc8498-a5e5-4087-bd79-1fbf8127ff2c" opacity="1.000" fill="none" stroke="#000000" stroke-width="2.672" stroke-opacity="1.000" stroke-linecap="round" stroke-linejoin="round" d="M 11329.557 3150.109 Q 11329.564 3150.379 11329.523 3150.478 L 11329.490 3150.478 Q 11330.871 3150.362 11330.373 3150.436 L 11330.586 3150.830 Q 11330.160 3150.645 11329.557 3150.251 Q 11329.557 3150.436 11329.490 3150.478 Q 11330.877 3150.364 11330.373 3150.436 Q 11330.586 3150.830 11330.764 3151.181 "></path>
    <path id="STROKE_0d1145ba-8f83-4ebd-9f47-ddf0effbc9d6" opacity="1.000" fill="none" stroke="#000000" stroke-width="2.672" stroke-opacity="1.000" stroke-linecap="round" stroke-linejoin="round" d="M 11329.064 3158.653 Q 11328.447 3159.355 11328.197 3159.561 Q 11327.947 3159.766 11327.735 3159.897 Q 11327.523 3160.029 11327.529 3159.942 Q 11327.535 3159.856 11327.244 3160.780 Q 11328.992 3160.768 11328.875 3160.713 L 11329.266 3160.646 "></path>
    <path id="STROKE_68972034-24af-4439-a98f-9b6b4704c622" opacity="1.000" fill="none" stroke="#000000" stroke-width="2.643" stroke-opacity="1.000" stroke-linecap="round" stroke-linejoin="round" d="M 11375.836 3115.550 Q 11375.775 3115.404 11375.232 3113.826 Q 11374.689 3112.248 11373.583 3111.693 Q 11372.477 3111.139 11371.707 3111.158 Q 11370.938 3111.177 11370.685 3111.039 Q 11370.432 3110.900 11369.477 3111.147 Q 11368.521 3111.395 11367.764 3112.967 Q 11367.006 3114.540 11366.770 3116.337 Q 11366.533 3118.134 11368.090 3120.521 Q 11369.646 3122.909 11370.281 3125.610 Q 11370.916 3128.311 11371.071 3130.041 Q 11371.227 3131.771 11370.941 3133.729 Q 11370.656 3135.686 11369.042 3138.102 Q 11367.428 3140.518 11365.712 3141.620 Q 11363.996 3142.723 11361.256 3142.964 Q 11360.992 3142.589 11361.373 3142.015 Q 11361.754 3141.440 11363.679 3141.022 Q 11365.604 3140.604 11366.952 3140.685 Q 11368.301 3140.765 11368.711 3141.072 Q 11369.121 3141.378 11370.230 3141.982 Q 11371.340 3142.585 11372.175 3144.900 Q 11373.010 3147.214 11373.396 3149.765 Q 11373.783 3152.315 11373.240 3158.443 Q 11372.697 3164.571 11371.462 3168.559 Q 11370.227 3172.546 11370.799 3176.184 Q 11371.223 3176.478 11374.072 3176.008 "></path>
    <path id="STROKE_fbdd7e7f-be31-4977-921f-dc9499e2aaad" opacity="1.000" fill="none" stroke="#000000" stroke-width="2.672" stroke-opacity="1.000" stroke-linecap="round" stroke-linejoin="round" d="M 11404.955 3118.381 Q 11404.955 3118.381 11404.468 3118.782 Q 11403.980 3119.183 11404.162 3118.992 Q 11403.928 3119.109 11403.592 3119.319 Q 11404.617 3119.195 11404.586 3119.235 Q 11406.055 3119.235 11405.871 3119.235 Q 11406.691 3119.235 11413.246 3119.235 Q 11412.494 3120.776 11408.285 3121.882 Q 11408.336 3122.133 11408.643 3122.519 "></path>
    <path id="STROKE_9ba75c9d-5fb2-4c4d-931d-3eb0b04d71b3" opacity="1.000" fill="none" stroke="#000000" stroke-width="2.650" stroke-opacity="1.000" stroke-linecap="round" stroke-linejoin="round" d="M 11408.844 3118.180 Q 11409.115 3118.276 11409.032 3117.567 Q 11408.949 3116.858 11408.900 3116.699 Q 11408.852 3116.540 11408.442 3116.397 Q 11408.033 3116.255 11407.731 3116.318 Q 11407.430 3116.380 11407.317 3116.147 Q 11407.205 3115.915 11404.109 3120.467 Q 11401.014 3125.020 11396.934 3131.129 "></path>
    <path id="STROKE_a6c14fd0-3572-4321-8542-b35fd168a522" opacity="1.000" fill="none" stroke="#000000" stroke-width="2.672" stroke-opacity="1.000" stroke-linecap="round" stroke-linejoin="round" d="M 11398.205 3131.263 Q 11399.277 3130.362 11398.943 3130.627 Q 11399.701 3128.886 11413.826 3122.653 "></path>
    <path id="STROKE_f9c63fa7-c3f7-45bc-b438-de3fc3798ba1" opacity="1.000" fill="none" stroke="#000000" stroke-width="2.672" stroke-opacity="1.000" stroke-linecap="round" stroke-linejoin="round" d="M 11412.328 3119.604 Q 11412.633 3119.175 11410.012 3121.252 Q 11407.391 3123.329 11404.553 3139.723 Q 11404.336 3139.677 11404.422 3139.822 Q 11404.508 3139.967 11404.516 3139.813 Q 11404.523 3139.658 11403.960 3139.603 Q 11403.396 3139.547 11403.436 3138.816 Q 11403.475 3138.085 11403.894 3136.812 Q 11404.312 3135.538 11405.615 3134.434 Q 11406.918 3133.329 11407.653 3132.915 Q 11408.389 3132.500 11409.004 3132.414 Q 11409.619 3132.327 11410.112 3132.286 Q 11410.605 3132.245 11410.851 3132.517 Q 11411.096 3132.789 11411.363 3135.053 Q 11411.631 3137.318 11410.101 3139.224 Q 11408.570 3141.130 11407.258 3142.211 Q 11405.945 3143.291 11403.949 3143.291 Q 11404.469 3142.196 11404.586 3142.462 Q 11404.711 3142.626 11410.699 3138.802 "></path>
    <path id="STROKE_a963996a-c3d3-4794-9ab1-91a513a6c7d6" opacity="1.000" fill="none" stroke="#000000" stroke-width="2.672" stroke-opacity="1.000" stroke-linecap="round" stroke-linejoin="round" d="M 11394.072 3120.458 Q 11393.781 3120.953 11390.898 3119.235 Q 11390.920 3119.966 11390.862 3119.842 Q 11390.805 3119.718 11391.234 3121.379 "></path>
    <path id="STROKE_2bdf88ca-609a-42cd-8b9e-63c06525ffa0" opacity="1.000" fill="none" stroke="#000000" stroke-width="2.672" stroke-opacity="1.000" stroke-linecap="round" stroke-linejoin="round" d="M 11393.312 3126.506 Q 11392.287 3128.214 11391.942 3131.799 Q 11391.598 3135.384 11391.953 3138.362 Q 11392.309 3141.340 11393.057 3143.168 Q 11393.805 3144.997 11394.499 3145.749 Q 11395.193 3146.500 11395.645 3146.854 Q 11396.096 3147.208 11396.513 3147.420 Q 11396.930 3147.633 11397.485 3147.808 Q 11398.041 3147.982 11398.034 3148.217 Q 11398.027 3148.452 11402.418 3149.075 Q 11406.809 3149.697 11411.247 3149.611 Q 11415.686 3149.526 11423.258 3144.916 "></path>
    <path id="STROKE_958fb1cf-5238-4970-b2ee-06925147f745" opacity="1.000" fill="none" stroke="#000000" stroke-width="2.672" stroke-opacity="1.000" stroke-linecap="round" stroke-linejoin="round" d="M 11437.379 3116.538 Q 11437.381 3116.471 11437.381 3116.002 Q 11435.494 3116.769 11435.714 3116.772 Q 11435.934 3116.776 11435.849 3116.830 Q 11435.764 3116.884 11435.594 3116.949 Q 11435.424 3117.015 11425.738 3132.402 Q 11426.127 3131.902 11427.802 3129.789 Q 11429.477 3127.675 11431.521 3126.234 Q 11433.564 3124.792 11434.723 3124.590 Q 11435.881 3124.387 11436.650 3124.285 Q 11437.420 3124.183 11437.722 3124.186 Q 11438.023 3124.189 11440.189 3124.125 Q 11442.355 3124.062 11442.825 3125.896 Q 11443.295 3127.730 11437.895 3133.826 "></path>
    <path id="STROKE_559cfb75-f2ff-405a-9bf5-cb81d88c6c6b" opacity="1.000" fill="none" stroke="#000000" stroke-width="2.672" stroke-opacity="1.000" stroke-linecap="round" stroke-linejoin="round" d="M 11431.861 3136.741 Q 11431.742 3137.017 11428.152 3137.135 Q 11428.812 3135.133 11428.971 3135.197 Q 11429.129 3135.262 11429.119 3135.296 Q 11429.109 3135.330 11429.119 3135.220 Q 11429.129 3135.111 11431.953 3132.919 Q 11434.777 3130.729 11440.330 3130.484 Q 11440.475 3130.500 11440.441 3132.754 "></path>
    <path id="STROKE_f83fb5e3-9e5f-4d67-a65e-7aaa68b018e2" opacity="1.000" fill="none" stroke="#000000" stroke-width="2.609" stroke-opacity="1.000" stroke-linecap="round" stroke-linejoin="round" d="M 11434.541 3140.661 Q 11434.240 3141.997 11426.945 3145.000 Q 11426.602 3145.003 11427.985 3143.770 Q 11429.369 3142.536 11430.960 3141.624 Q 11432.551 3140.712 11434.117 3140.414 Q 11435.684 3140.116 11436.697 3140.323 Q 11437.711 3140.531 11437.913 3140.965 Q 11438.115 3141.400 11438.134 3142.156 Q 11438.152 3142.911 11437.580 3144.244 Q 11437.008 3145.577 11434.257 3147.844 Q 11431.506 3150.111 11427.168 3151.818 Q 11427.617 3151.699 11435.682 3148.333 "></path>
    <path id="STROKE_5eca13e5-18d6-4cc0-8a56-452bd3f02d13" opacity="1.000" fill="none" stroke="#000000" stroke-width="2.672" stroke-opacity="1.000" stroke-linecap="round" stroke-linejoin="round" d="M 11428.375 3143.928 Q 11428.262 3144.063 11427.443 3143.963 Q 11426.625 3143.862 11426.012 3144.534 Q 11425.398 3145.207 11425.401 3146.313 Q 11425.404 3147.419 11425.406 3148.105 Q 11425.408 3148.792 11425.302 3149.388 Q 11425.195 3149.984 11426.387 3151.617 "></path>
    <path id="STROKE_055396bd-5814-42a0-b175-aa7aa98be69f" opacity="1.000" fill="none" stroke="#000000" stroke-width="2.647" stroke-opacity="1.000" stroke-linecap="round" stroke-linejoin="round" d="M 11151.586 3114.980 Q 11152.074 3114.387 11151.943 3114.444 Q 11151.979 3114.369 11152.012 3114.193 Q 11152.301 3114.969 11149.733 3119.341 Q 11147.166 3123.714 11141.352 3129.420 Q 11141.336 3129.323 11141.947 3129.464 Q 11142.559 3129.605 11145.812 3128.434 Q 11149.064 3127.262 11152.078 3124.931 "></path>
    <path id="STROKE_5e87a037-9cd0-40d4-bfe1-cdc7b8a8cfe5" opacity="1.000" fill="none" stroke="#000000" stroke-width="2.672" stroke-opacity="1.000" stroke-linecap="round" stroke-linejoin="round" d="M 11151.363 3122.234 Q 11150.494 3122.888 11148.724 3125.574 Q 11146.953 3128.260 11146.604 3140.158 Q 11146.840 3140.515 11148.234 3138.165 Q 11148.451 3138.124 11147.541 3138.232 Q 11147.662 3136.790 11147.754 3136.992 Q 11148.123 3136.232 11148.921 3135.155 Q 11149.719 3134.078 11150.877 3133.507 Q 11152.035 3132.937 11152.594 3133.290 Q 11153.152 3133.644 11153.385 3134.236 Q 11153.617 3134.828 11153.711 3135.724 Q 11153.805 3136.619 11153.827 3136.726 Q 11153.850 3136.832 11153.832 3137.972 Q 11153.814 3139.112 11153.392 3140.148 Q 11152.969 3141.183 11151.919 3142.276 Q 11150.869 3143.370 11149.824 3143.920 Q 11148.779 3144.470 11147.285 3144.104 Q 11145.508 3143.004 11153.219 3137.729 "></path>
    <circle id="STROKE_bf6455da-4319-454a-85a0-1b95c97fd175" opacity="1.000" fill="#000000" stroke="#000000" stroke-width="0.1" stroke-opacity="1.000" fill-opacity="1.000" cx="11131.697" cy="3118.599" r="1.336"></circle>
    <path id="STROKE_60e519f0-dde6-4ad0-a557-162cc11621a6" opacity="1.000" fill="none" stroke="#000000" stroke-width="2.672" stroke-opacity="1.000" stroke-linecap="round" stroke-linejoin="round" d="M 11134.469 3129.203 Q 11134.123 3129.830 11135.245 3135.133 Q 11136.367 3140.436 11137.037 3143.037 Q 11137.707 3145.638 11138.041 3147.052 Q 11138.375 3148.466 11138.811 3148.898 Q 11139.246 3149.330 11139.806 3149.731 Q 11140.365 3150.133 11141.940 3150.039 Q 11143.516 3149.944 11162.156 3141.298 "></path>
    <path id="STROKE_bad85c79-3e2c-4cf7-8aaf-bd755483a24d" opacity="1.000" fill="none" stroke="#000000" stroke-width="2.580" stroke-opacity="1.000" stroke-linecap="round" stroke-linejoin="round" d="M 11172.100 3121.664 Q 11171.041 3121.212 11164.436 3133.257 Q 11164.324 3133.257 11164.279 3133.257 Q 11164.199 3132.282 11165.109 3130.309 Q 11166.020 3128.336 11167.982 3126.823 Q 11169.945 3125.310 11172.460 3125.077 Q 11174.975 3124.845 11176.670 3124.728 Q 11178.365 3124.610 11179.664 3125.760 Q 11180.963 3126.910 11181.221 3128.097 Q 11181.479 3129.283 11180.615 3130.409 "></path>
    <path id="STROKE_05bbc727-a6a8-417e-8d57-979ac0a97a1b" opacity="1.000" fill="none" stroke="#000000" stroke-width="2.672" stroke-opacity="1.000" stroke-linecap="round" stroke-linejoin="round" d="M 11179.541 3131.129 Q 11179.766 3131.157 11166.068 3137.311 Q 11167.117 3136.475 11169.568 3134.693 Q 11172.020 3132.911 11175.498 3132.896 Q 11176.057 3133.611 11175.771 3135.463 Q 11175.486 3137.316 11174.464 3138.536 Q 11173.441 3139.755 11170.312 3141.432 Q 11169.641 3140.761 11175.967 3138.098 Q 11175.629 3138.052 11176.326 3138.249 Q 11177.023 3138.447 11171.318 3145.569 Q 11171.672 3145.249 11173.018 3143.576 "></path>
    <path id="STROKE_fc93dc25-4c6a-40b7-a159-ed5bd371d469" opacity="1.000" fill="none" stroke="#000000" stroke-width="2.672" stroke-opacity="1.000" stroke-linecap="round" stroke-linejoin="round" d="M 11168.549 3141.230 Q 11168.607 3140.926 11168.206 3141.908 Q 11167.805 3142.890 11168.376 3143.396 Q 11168.947 3143.902 11169.874 3144.125 Q 11170.801 3144.348 11171.676 3143.928 "></path>
    <path id="STROKE_a4a6483e-0205-4c97-8beb-5247849c15c9" opacity="1.000" fill="none" stroke="#000000" stroke-width="2.672" stroke-opacity="1.000" stroke-linecap="round" stroke-linejoin="round" d="M 11130.289 3121.095 Q 11130.291 3121.095 11130.854 3120.854 Q 11131.418 3120.612 11131.285 3120.810 Q 11131.553 3120.553 11139.721 3123.658 "></path>
    <path id="STROKE_137ef032-8229-4467-a257-002231a1c08f" opacity="1.000" fill="none" stroke="#000000" stroke-width="2.672" stroke-opacity="1.000" stroke-linecap="round" stroke-linejoin="round" d="M 11478.342 3149.121 Q 11478.637 3149.599 11479.321 3150.779 Q 11480.006 3151.958 11482.611 3154.884 "></path>
    <path id="STROKE_14fe42fa-a204-4c52-98ae-4e0f55b068ea" opacity="1.000" fill="none" stroke="#000000" stroke-width="2.672" stroke-opacity="1.000" stroke-linecap="round" stroke-linejoin="round" d="M 11518.678 3125.852 Q 11518.678 3125.852 11518.450 3126.132 Q 11518.223 3126.411 11535.842 3124.864 "></path>
    <path id="STROKE_b4275475-2662-4d39-b7f6-e09bd8f2a6b6" opacity="1.000" fill="none" stroke="#000000" stroke-width="2.585" stroke-opacity="1.000" stroke-linecap="round" stroke-linejoin="round" d="M 11533.293 3127.276 Q 11532.455 3127.290 11517.182 3139.941 Q 11518.693 3138.958 11518.549 3139.039 Q 11518.404 3139.118 11520.219 3137.687 Q 11522.033 3136.255 11524.209 3134.614 Q 11524.834 3133.624 11524.992 3153.493 Q 11526.131 3153.250 11526.661 3150.401 Q 11527.191 3147.552 11525.986 3142.186 Q 11526.938 3141.412 11529.552 3143.544 Q 11532.166 3145.676 11536.623 3147.831 "></path>
    <path id="STROKE_c05d3259-4e4e-451b-88eb-ac4ffcb2e4df" opacity="1.000" fill="none" stroke="#000000" stroke-width="2.622" stroke-opacity="1.000" stroke-linecap="round" stroke-linejoin="round" d="M 11569.070 3117.527 Q 11569.070 3117.426 11569.037 3116.823 Q 11568.023 3117.067 11565.470 3121.374 Q 11562.916 3125.681 11560.231 3129.308 Q 11557.547 3132.934 11553.875 3135.250 Q 11554.574 3134.709 11554.518 3134.498 Q 11554.461 3134.287 11556.397 3133.282 Q 11558.334 3132.277 11559.653 3131.953 Q 11560.973 3131.628 11561.897 3131.580 Q 11562.822 3131.532 11564.043 3130.844 "></path>
    <path id="STROKE_8c93efb8-f3d2-4901-b3b2-e85c306f5423" opacity="1.000" fill="none" stroke="#000000" stroke-width="2.672" stroke-opacity="1.000" stroke-linecap="round" stroke-linejoin="round" d="M 11562.119 3127.628 Q 11561.555 3127.351 11556.936 3140.376 Q 11556.902 3140.376 11556.869 3140.376 Q 11557.098 3140.816 11556.221 3138.952 Q 11556.188 3138.952 11556.154 3138.952 Q 11556.158 3139.181 11556.164 3139.365 Q 11556.170 3139.549 11556.334 3140.165 Q 11556.498 3140.781 11556.573 3140.704 Q 11556.648 3140.626 11556.630 3140.648 Q 11556.611 3140.669 11556.916 3140.653 Q 11557.221 3140.637 11557.410 3140.459 Q 11557.600 3140.281 11558.222 3139.827 Q 11558.844 3139.373 11558.857 3139.438 Q 11558.959 3139.438 11559.094 3139.438 Q 11559.127 3141.156 11559.059 3140.795 Q 11558.875 3141.227 11558.272 3142.084 Q 11557.670 3142.942 11555.439 3144.497 Q 11554.809 3144.569 11556.652 3144.607 Q 11558.496 3144.645 11560.003 3144.376 Q 11561.510 3144.108 11563.037 3142.085 "></path>
    <path id="STROKE_3d10e495-d576-4487-aad0-550e4ad42891" opacity="1.000" fill="none" stroke="#000000" stroke-width="2.672" stroke-opacity="1.000" stroke-linecap="round" stroke-linejoin="round" d="M 11553.674 3123.155 Q 11553.979 3122.978 11549.271 3123.515 Q 11549.127 3123.914 11548.422 3125.567 "></path>
    <path id="STROKE_a71eb581-1992-4fa8-ad58-ed500308ed5c" opacity="1.000" fill="none" stroke="#000000" stroke-width="2.658" stroke-opacity="1.000" stroke-linecap="round" stroke-linejoin="round" d="M 11549.896 3127.913 Q 11547.984 3129.150 11548.131 3148.191 Q 11549.600 3148.467 11549.380 3148.448 Q 11549.160 3148.429 11549.983 3148.438 Q 11550.807 3148.446 11551.822 3148.554 Q 11552.838 3148.661 11554.910 3148.300 Q 11556.982 3147.939 11557.922 3147.469 Q 11558.861 3147.000 11560.329 3146.371 Q 11561.797 3145.742 11563.239 3144.722 Q 11564.682 3143.703 11565.941 3142.152 "></path>
    <path id="STROKE_d181671d-7a37-4069-a984-16c0ad36d1f8" opacity="1.000" fill="none" stroke="#000000" stroke-width="2.672" stroke-opacity="1.000" stroke-linecap="round" stroke-linejoin="round" d="M 11554.389 3130.275 Q 11554.244 3130.850 11550.902 3127.955 Q 11550.471 3127.712 11553.017 3126.410 Q 11555.562 3125.108 11561.965 3126.137 "></path>
    <path id="STROKE_1f2c8082-abd7-4f6d-b6ae-c2b3822b7416" opacity="1.000" fill="none" stroke="#000000" stroke-width="2.672" stroke-opacity="1.000" stroke-linecap="round" stroke-linejoin="round" d="M 11556.020 3138.450 Q 11555.943 3138.709 11554.754 3139.450 Q 11553.564 3140.190 11552.533 3144.849 Q 11553.201 3144.657 11554.881 3142.638 "></path>
    <path id="STROKE_0f52a7e8-569b-459c-a1c2-8c328c9acc73" opacity="1.000" fill="none" stroke="#000000" stroke-width="2.600" stroke-opacity="1.000" stroke-linecap="round" stroke-linejoin="round" d="M 11585.695 3119.956 Q 11585.693 3119.975 11585.836 3119.321 Q 11585.979 3118.667 11585.610 3118.876 Q 11585.242 3119.086 11585.058 3118.896 Q 11584.873 3118.706 11581.251 3122.571 Q 11577.629 3126.436 11571.977 3134.178 Q 11572.873 3133.793 11574.386 3132.074 Q 11575.898 3130.354 11578.260 3129.441 Q 11580.621 3128.529 11582.027 3128.235 Q 11583.434 3127.942 11584.290 3127.773 Q 11585.146 3127.605 11586.375 3127.453 Q 11587.604 3127.301 11588.391 3127.179 Q 11589.178 3127.056 11589.605 3127.071 Q 11590.033 3127.085 11590.193 3127.244 Q 11590.354 3127.402 11590.454 3127.617 Q 11590.555 3127.832 11590.634 3128.448 Q 11590.713 3129.065 11587.791 3131.590 Q 11584.869 3134.115 11581.700 3136.123 Q 11578.531 3138.131 11573.607 3138.517 Q 11572.812 3138.774 11575.092 3136.965 Q 11577.371 3135.156 11580.406 3133.562 Q 11583.441 3131.968 11587.172 3132.687 "></path>
    <path id="STROKE_b7a70ce2-2da1-40cb-933b-81f6289d70ec" opacity="1.000" fill="none" stroke="#000000" stroke-width="2.664" stroke-opacity="1.000" stroke-linecap="round" stroke-linejoin="round" d="M 11578.301 3145.770 Q 11577.053 3147.006 11574.545 3148.199 Q 11575.072 3147.567 11577.984 3144.629 Q 11580.896 3141.690 11586.502 3139.765 Q 11587.291 3141.685 11585.107 3146.020 Q 11582.924 3150.356 11578.400 3152.320 Q 11577.998 3153.291 11578.506 3151.127 Q 11579.014 3148.964 11579.579 3147.700 Q 11580.145 3146.436 11579.865 3145.662 Q 11579.586 3144.887 11579.476 3144.751 Q 11579.365 3144.616 11579.202 3144.559 Q 11579.039 3144.501 11579.253 3144.591 Q 11579.467 3144.681 11578.922 3144.400 Q 11578.377 3144.119 11577.603 3144.304 Q 11576.828 3144.489 11576.881 3144.560 Q 11576.934 3144.632 11576.418 3145.873 Q 11575.902 3147.114 11575.777 3148.275 Q 11575.652 3149.436 11575.575 3150.883 Q 11575.498 3152.330 11575.988 3153.753 Q 11576.479 3155.177 11581.139 3153.527 "></path>
    <path id="STROKE_f47c55a9-4232-4fd6-a0d3-effa91ed5967" opacity="1.000" fill="none" stroke="#000000" stroke-width="2.672" stroke-opacity="1.000" stroke-linecap="round" stroke-linejoin="round" d="M 11599.105 3118.381 Q 11598.902 3117.590 11603.574 3116.036 Q 11603.936 3116.207 11604.215 3117.154 Q 11604.494 3118.101 11604.441 3120.208 Q 11604.389 3122.316 11603.649 3124.354 Q 11602.910 3126.393 11600.244 3130.342 Q 11600.287 3130.658 11601.359 3130.028 Q 11602.432 3129.398 11604.141 3129.012 Q 11605.850 3128.625 11606.441 3129.744 Q 11607.033 3130.863 11607.015 3131.988 Q 11606.996 3133.113 11607.003 3133.968 Q 11607.010 3134.823 11606.863 3135.951 Q 11606.717 3137.080 11606.698 3139.409 Q 11606.680 3141.738 11607.018 3143.850 Q 11607.355 3145.963 11606.295 3148.892 Q 11605.234 3151.821 11604.038 3153.434 Q 11602.842 3155.047 11601.185 3156.372 Q 11599.527 3157.698 11596.043 3156.810 "></path>
    <path id="STROKE_e7492848-2955-44e9-a7ba-f92408fa62fa" opacity="1.000" fill="none" stroke="#000000" stroke-width="2.672" stroke-opacity="1.000" stroke-linecap="round" stroke-linejoin="round" d="M 11602.076 3132.251 Q 11602.010 3132.251 11601.652 3132.251 Q 11603.307 3131.090 11602.938 3131.439 Q 11603.307 3131.382 11605.272 3130.638 Q 11607.238 3129.895 11608.962 3129.508 Q 11610.686 3129.122 11612.021 3129.169 Q 11612.021 3129.557 11612.021 3130.191 Q 11610.873 3130.191 11611.205 3130.191 Q 11609.961 3130.303 11610.244 3130.342 Q 11609.250 3129.424 11604.715 3138.450 "></path>
    <path id="STROKE_cf965d61-a233-4eff-a6e6-25f92ab75701" opacity="1.000" fill="none" stroke="#000000" stroke-width="1.828" stroke-opacity="1.000" stroke-linecap="round" stroke-linejoin="round" d="M 11056.330 2920.205 Q 11055.326 2920.422 11053.581 2920.104 Q 11051.836 2919.787 11049.595 2920.667 Q 11047.354 2921.548 11045.547 2923.668 Q 11043.740 2925.789 11042.111 2929.144 Q 11040.482 2932.500 11041.956 2937.380 Q 11043.430 2942.261 11044.989 2945.418 Q 11046.549 2948.575 11047.256 2950.087 Q 11047.963 2951.599 11048.441 2952.611 Q 11048.920 2953.623 11049.138 2954.160 Q 11049.355 2954.698 11049.549 2955.160 Q 11049.742 2955.623 11049.836 2956.004 Q 11049.930 2956.385 11050.425 2957.289 Q 11050.920 2958.192 11052.382 2962.863 Q 11053.844 2967.534 11054.388 2974.007 Q 11054.932 2980.481 11054.659 2985.612 Q 11054.387 2990.743 11053.708 2993.982 Q 11053.029 2997.221 11051.254 3001.774 Q 11049.479 3006.327 11046.534 3011.338 Q 11043.590 3016.349 11040.668 3019.701 Q 11037.746 3023.052 11035.100 3026.237 Q 11034.406 3026.048 11036.115 3025.706 Q 11037.824 3025.363 11038.875 3025.208 Q 11039.926 3025.054 11040.276 3025.183 Q 11040.627 3025.313 11041.753 3025.476 Q 11042.879 3025.639 11045.798 3028.716 Q 11048.717 3031.792 11051.076 3035.472 Q 11053.436 3039.152 11054.980 3042.648 Q 11056.525 3046.144 11058.358 3050.640 Q 11060.191 3055.136 11062.164 3063.782 Q 11064.137 3072.427 11065.088 3079.725 Q 11066.039 3087.021 11066.547 3097.403 Q 11067.055 3107.784 11067.090 3114.047 Q 11067.125 3120.310 11067.075 3123.722 Q 11067.025 3127.134 11066.280 3136.847 Q 11065.535 3146.561 11065.433 3162.208 Q 11065.330 3177.855 11065.172 3185.581 Q 11065.014 3193.307 11065.588 3202.134 Q 11066.162 3210.961 11066.680 3215.532 Q 11067.197 3220.102 11067.628 3223.893 Q 11068.059 3227.683 11068.818 3230.346 Q 11069.578 3233.009 11070.450 3234.668 Q 11071.322 3236.327 11072.854 3237.615 Q 11074.385 3238.903 11075.925 3239.416 Q 11077.465 3239.928 11078.789 3240.039 Q 11080.113 3240.150 11081.284 3240.122 Q 11082.455 3240.093 11084.510 3239.833 "></path>
    <path id="STROKE_68ab4c18-fa20-4afe-8460-2fa5923cba2e" opacity="1.000" fill="none" stroke="#000000" stroke-width="2.672" stroke-opacity="1.000" stroke-linecap="round" stroke-linejoin="round" d="M 11077.916 2930.173 Q 11078.430 2930.126 11077.045 2930.240 Q 11078.824 2930.091 11078.510 2930.030 Q 11078.770 2929.854 11082.620 2928.359 Q 11086.471 2926.865 11091.615 2925.264 "></path>
    <path id="STROKE_5ee55216-2943-49ba-b9f0-746b87818a6f" opacity="1.000" fill="none" stroke="#000000" stroke-width="2.247" stroke-opacity="1.000" stroke-linecap="round" stroke-linejoin="round" d="M 11087.480 2920.138 Q 11085.871 2919.339 11067.682 2956.138 Q 11067.395 2956.562 11077.871 2943.976 Q 11078.562 2944.531 11077.522 2950.051 Q 11076.482 2955.572 11077.189 2961.825 Q 11077.688 2962.234 11079.391 2961.114 "></path>
    <path id="STROKE_1f5ee591-4e71-4333-9642-c62480ddfec2" opacity="1.000" fill="none" stroke="#000000" stroke-width="2.672" stroke-opacity="1.000" stroke-linecap="round" stroke-linejoin="round" d="M 11078.252 2948.449 Q 11077.941 2947.553 11077.862 2946.600 Q 11077.783 2945.646 11078.730 2944.125 Q 11079.678 2942.605 11081.380 2941.310 Q 11083.082 2940.014 11083.938 2939.894 Q 11084.793 2939.774 11085.923 2939.831 Q 11087.053 2939.887 11086.883 2943.761 Q 11086.713 2947.635 11086.317 2949.651 Q 11085.922 2951.667 11086.858 2953.786 Q 11087.795 2955.904 11088.243 2956.463 Q 11088.691 2957.022 11088.611 2958.086 Q 11088.531 2959.150 11087.779 2960.352 Q 11087.027 2961.553 11082.744 2961.616 "></path>
    <path id="STROKE_c8b12874-2dd4-403b-af9c-042b0d77c63d" opacity="1.000" fill="none" stroke="#000000" stroke-width="2.672" stroke-opacity="1.000" stroke-linecap="round" stroke-linejoin="round" d="M 11077.270 2957.981 Q 11076.975 2957.648 11076.769 2957.715 Q 11076.562 2957.783 11076.283 2956.954 Q 11076.004 2956.125 11076.379 2955.994 Q 11076.754 2955.863 11076.674 2955.580 Q 11076.594 2955.296 11082.386 2952.710 Q 11088.178 2950.124 11095.012 2947.092 "></path>
    <path id="STROKE_b9865ce3-4d7d-4b64-b309-4bda22c1fc63" opacity="1.000" fill="none" stroke="#000000" stroke-width="2.672" stroke-opacity="1.000" stroke-linecap="round" stroke-linejoin="round" d="M 11106.029 2941.899 Q 11105.951 2941.941 11105.738 2941.983 Q 11107.334 2939.898 11107.078 2940.236 Q 11106.822 2940.573 11108.466 2939.123 Q 11110.109 2937.672 11111.696 2936.584 Q 11113.283 2935.496 11116.957 2934.646 "></path>
    <path id="STROKE_6316ed76-7a0d-42a0-b235-4d03d957781b" opacity="1.000" fill="none" stroke="#000000" stroke-width="2.442" stroke-opacity="1.000" stroke-linecap="round" stroke-linejoin="round" d="M 11119.639 2928.531 Q 11119.529 2928.356 11118.885 2928.284 Q 11118.240 2928.213 11118.351 2928.235 Q 11118.461 2928.258 11118.038 2928.373 Q 11117.615 2928.488 11116.414 2930.027 Q 11115.213 2931.565 11112.493 2936.171 Q 11109.773 2940.776 11102.186 2954.999 Q 11102.090 2955.387 11103.398 2953.615 Q 11104.707 2951.843 11106.654 2951.791 Q 11106.600 2951.327 11107.064 2952.744 Q 11107.529 2954.161 11108.285 2963.886 Q 11109.561 2963.829 11109.700 2961.960 Q 11109.840 2960.091 11109.707 2959.185 Q 11109.574 2958.280 11110.426 2957.398 Q 11111.277 2956.517 11111.771 2956.138 Q 11112.266 2955.759 11112.698 2955.408 Q 11113.131 2955.057 11113.631 2954.621 Q 11114.131 2954.185 11119.146 2951.297 Q 11118.789 2951.406 11118.432 2951.515 "></path>
    <path id="STROKE_b87545e5-abda-4ce7-a8de-05d88b7b99e6" opacity="1.000" fill="none" stroke="#000000" stroke-width="2.672" stroke-opacity="1.000" stroke-linecap="round" stroke-linejoin="round" d="M 11115.527 2949.940 Q 11115.531 2949.944 11115.102 2949.722 Q 11115.107 2949.792 11115.039 2952.776 Q 11114.971 2955.759 11114.442 2958.254 Q 11113.914 2960.750 11113.240 2962.312 Q 11112.566 2963.875 11110.432 2967.010 Q 11110.695 2967.570 11113.990 2965.296 Q 11117.285 2963.023 11121.465 2961.780 Q 11125.645 2960.537 11131.930 2962.035 "></path>
    <path id="STROKE_23231d57-da37-4445-b2f3-e814761965ca" opacity="1.000" fill="none" stroke="#000000" stroke-width="2.672" stroke-opacity="1.000" stroke-linecap="round" stroke-linejoin="round" d="M 11078.609 3038.658 Q 11078.432 3038.658 11077.916 3038.658 Q 11077.502 3037.714 11091.459 3031.958 "></path>
    <path id="STROKE_8bf1e890-5c86-4ba8-959c-a071f3a6fc20" opacity="1.000" fill="none" stroke="#000000" stroke-width="2.394" stroke-opacity="1.000" stroke-linecap="round" stroke-linejoin="round" d="M 11087.838 3027.485 Q 11086.723 3027.141 11084.198 3034.359 Q 11081.674 3041.577 11074.006 3053.517 Q 11073.760 3053.369 11074.198 3052.574 Q 11074.637 3051.778 11075.169 3051.107 Q 11075.701 3050.435 11076.247 3050.229 Q 11076.793 3050.021 11077.429 3051.679 Q 11078.064 3053.336 11078.391 3054.708 Q 11078.717 3056.082 11079.022 3058.256 Q 11079.328 3060.430 11079.367 3061.479 Q 11079.406 3062.526 11079.631 3063.107 Q 11079.855 3063.687 11080.527 3064.355 Q 11081.199 3065.024 11083.793 3061.407 "></path>
    <path id="STROKE_9f0ca44e-bf70-4199-b5e0-3a6f6fc60a9f" opacity="1.000" fill="none" stroke="#000000" stroke-width="2.672" stroke-opacity="1.000" stroke-linecap="round" stroke-linejoin="round" d="M 11085.850 3049.815 Q 11085.605 3049.550 11084.805 3049.335 Q 11084.004 3049.121 11083.993 3048.980 Q 11083.982 3048.840 11083.856 3048.302 Q 11083.730 3047.764 11083.850 3047.271 Q 11083.969 3046.778 11085.158 3045.366 Q 11086.348 3043.953 11086.983 3043.529 Q 11087.619 3043.105 11088.967 3042.566 Q 11090.314 3042.028 11090.495 3045.804 Q 11090.676 3049.581 11090.241 3051.627 Q 11089.807 3053.672 11090.320 3055.644 Q 11090.834 3057.615 11091.654 3058.846 Q 11092.475 3060.077 11092.640 3061.143 Q 11092.805 3062.208 11092.311 3063.158 Q 11091.816 3064.108 11090.916 3064.306 Q 11090.016 3064.505 11089.491 3064.605 Q 11088.967 3064.705 11088.552 3064.697 Q 11088.137 3064.690 11087.712 3064.677 Q 11087.287 3064.665 11086.875 3064.705 Q 11086.463 3064.745 11086.044 3064.643 Q 11085.625 3064.542 11085.115 3064.239 Q 11084.605 3063.936 11084.205 3063.687 Q 11083.805 3063.438 11083.582 3063.242 Q 11083.359 3063.046 11083.327 3063.077 Q 11083.295 3063.109 11082.611 3062.399 Q 11081.928 3061.689 11082.445 3060.821 Q 11082.963 3059.953 11083.479 3059.479 Q 11083.996 3059.004 11084.280 3058.768 Q 11084.564 3058.531 11086.489 3057.247 Q 11088.414 3055.963 11098.141 3049.815 "></path>
    <path id="STROKE_d000483a-ed91-4de7-8336-c910b46b2d36" opacity="1.000" fill="none" stroke="#000000" stroke-width="2.672" stroke-opacity="1.000" stroke-linecap="round" stroke-linejoin="round" d="M 11101.762 3047.755 Q 11101.762 3047.755 11101.744 3047.771 Q 11101.727 3047.788 11101.471 3047.906 Q 11101.354 3047.841 11101.296 3048.057 Q 11101.238 3048.272 11104.308 3046.519 Q 11107.377 3044.765 11110.268 3042.809 Q 11113.158 3040.852 11115.027 3039.897 Q 11116.896 3038.942 11121.359 3035.811 "></path>
    <path id="STROKE_3ab65704-dc10-40e8-837f-6d4f5c1f4112" opacity="1.000" fill="none" stroke="#000000" stroke-width="2.468" stroke-opacity="1.000" stroke-linecap="round" stroke-linejoin="round" d="M 11119.996 3028.842 Q 11119.990 3029.057 11117.281 3031.131 Q 11114.572 3033.205 11110.211 3040.694 Q 11105.850 3048.183 11103.035 3056.399 Q 11103.078 3057.053 11108.330 3052.311 Q 11109.008 3052.980 11109.639 3067.321 Q 11110.262 3068.408 11110.885 3065.866 Q 11111.508 3063.325 11111.549 3061.488 Q 11111.590 3059.651 11112.974 3058.581 Q 11114.357 3057.510 11115.490 3056.797 Q 11116.623 3056.083 11117.264 3055.719 Q 11117.904 3055.354 11118.602 3054.879 Q 11119.299 3054.405 11122.699 3051.524 "></path>
    <path id="STROKE_904a300c-ae23-4278-a5b2-a9f07c5b59d6" opacity="1.000" fill="none" stroke="#000000" stroke-width="2.672" stroke-opacity="1.000" stroke-linecap="round" stroke-linejoin="round" d="M 11118.432 3047.537 Q 11118.330 3047.537 11117.660 3047.579 Q 11117.131 3047.481 11117.226 3052.237 Q 11117.320 3056.993 11116.899 3060.082 Q 11116.479 3063.171 11116.170 3065.252 Q 11115.861 3067.333 11111.482 3070.805 Q 11113.328 3070.208 11134.209 3062.832 "></path>
    <path id="STROKE_b2eeea59-eae1-4d6d-a8fb-02f775fc0bee" opacity="1.000" fill="none" stroke="#000000" stroke-width="2.672" stroke-opacity="1.000" stroke-linecap="round" stroke-linejoin="round" d="M 10863.340 2990.351 Q 10863.339 2990.351 10863.482 2990.498 Q 10863.627 2990.645 10862.102 2988.717 Q 10861.599 2989.052 10861.947 2996.418 Q 10862.297 3003.784 10864.854 3011.873 "></path>
    <path id="STROKE_6534d361-27e9-4ad5-b408-abec3ad6e6f7" opacity="1.000" fill="none" stroke="#000000" stroke-width="2.640" stroke-opacity="1.000" stroke-linecap="round" stroke-linejoin="round" d="M 10859.571 2993.065 Q 10858.705 2990.378 10858.879 2990.873 Q 10859.053 2991.368 10859.195 2990.160 Q 10859.337 2988.951 10859.783 2988.573 Q 10860.229 2988.195 10860.818 2987.651 Q 10861.407 2987.106 10862.680 2986.878 Q 10863.952 2986.649 10865.240 2986.687 Q 10866.528 2986.724 10868.607 2990.230 Q 10870.686 2993.737 10871.796 2998.594 Q 10872.906 3003.450 10872.835 3011.291 "></path>
    <path id="STROKE_fd7737a7-e2b2-40a2-9cc8-add59332977c" opacity="1.000" fill="none" stroke="#000000" stroke-width="2.672" stroke-opacity="1.000" stroke-linecap="round" stroke-linejoin="round" d="M 10865.114 2997.636 Q 10865.008 2996.968 10865.002 2996.801 Q 10864.995 2996.633 10865.082 2996.797 Q 10865.169 2996.960 10865.103 2996.494 Q 10865.036 2996.027 10865.727 2995.403 Q 10866.416 2994.779 10866.615 2994.864 Q 10866.814 2994.949 10867.565 2995.518 Q 10868.316 2996.087 10868.512 2996.472 Q 10868.706 2996.857 10868.515 2996.587 Q 10868.323 2996.316 10868.654 2996.861 Q 10868.985 2997.405 10868.522 3000.527 Q 10868.060 3003.650 10863.339 3004.810 Q 10863.036 3002.968 10869.381 3001.583 Q 10869.393 3000.516 10869.585 3003.356 Q 10869.777 3006.196 10861.936 3012.815 Q 10863.839 3007.592 10871.320 3006.458 Q 10872.105 3008.133 10871.154 3010.949 Q 10870.203 3013.765 10867.402 3015.896 Q 10864.602 3018.025 10861.853 3020.037 Q 10859.104 3022.049 10855.949 3024.227 Q 10857.385 3023.625 10872.835 3012.926 "></path>
    <path id="STROKE_89fed10f-f04b-4e90-a198-a5b637fe557e" opacity="1.000" fill="none" stroke="#000000" stroke-width="2.600" stroke-opacity="1.000" stroke-linecap="round" stroke-linejoin="round" d="M 10869.807 3019.878 Q 10868.229 3019.894 10858.536 3031.290 Q 10860.367 3030.428 10861.314 3028.566 Q 10862.262 3026.705 10864.697 3025.545 Q 10867.132 3024.385 10868.514 3024.384 Q 10869.896 3024.383 10870.495 3024.378 Q 10871.095 3024.374 10871.673 3024.523 Q 10872.251 3024.673 10872.580 3024.816 Q 10872.908 3024.959 10873.893 3025.538 Q 10874.877 3026.117 10875.527 3026.630 Q 10876.178 3027.143 10877.021 3027.810 Q 10877.866 3028.478 10877.893 3028.474 Q 10877.918 3028.471 10878.547 3028.939 Q 10879.176 3029.406 10881.999 3030.237 "></path>
    <path id="STROKE_cf2ee656-2087-497e-8f77-c30191478c4a" opacity="1.000" fill="none" stroke="#000000" stroke-width="2.672" stroke-opacity="1.000" stroke-linecap="round" stroke-linejoin="round" d="M 10891.385 3000.710 Q 10891.384 3000.766 10891.384 3000.821 Q 10888.302 3001.669 10909.452 2993.869 "></path>
    <path id="STROKE_811a468d-b131-4028-b895-799403ca0369" opacity="1.000" fill="none" stroke="#000000" stroke-width="2.363" stroke-opacity="1.000" stroke-linecap="round" stroke-linejoin="round" d="M 10909.453 2986.833 Q 10906.726 2988.111 10901.984 2998.275 Q 10897.242 3008.440 10889.979 3017.994 Q 10889.465 3018.614 10891.043 3015.789 Q 10892.620 3012.964 10896.501 3012.759 Q 10897.533 3010.800 10898.183 3031.650 "></path>
    <path id="STROKE_40a0378d-f02a-4e16-a257-6a4b7e5ae396" opacity="1.000" fill="none" stroke="#000000" stroke-width="2.665" stroke-opacity="1.000" stroke-linecap="round" stroke-linejoin="round" d="M 10898.774 3014.587 Q 10899.351 3015.548 10898.289 3013.706 Q 10897.229 3011.864 10897.907 3009.641 Q 10898.586 3007.418 10900.695 3006.366 Q 10902.806 3005.315 10904.953 3005.180 Q 10907.101 3005.046 10908.742 3006.998 Q 10910.383 3008.949 10910.932 3014.639 Q 10911.479 3020.329 10911.026 3024.357 Q 10910.573 3028.386 10906.755 3029.988 "></path>
    <path id="STROKE_7e28032c-9fe6-46ba-b6e7-c051922c311c" opacity="1.000" fill="none" stroke="#000000" stroke-width="2.672" stroke-opacity="1.000" stroke-linecap="round" stroke-linejoin="round" d="M 10902.876 3024.919 Q 10902.313 3024.481 10901.788 3020.608 Q 10901.263 3016.735 10901.295 3014.355 Q 10901.326 3011.976 10902.188 3010.631 Q 10903.049 3009.286 10903.348 3008.853 Q 10903.646 3008.420 10906.127 3008.992 Q 10907.402 3010.492 10905.462 3018.465 Q 10906.087 3018.479 10911.004 3013.064 "></path>
    <path id="STROKE_20d5e9a4-cc2d-48ef-b960-85705364a659" opacity="1.000" fill="none" stroke="#000000" stroke-width="2.672" stroke-opacity="1.000" stroke-linecap="round" stroke-linejoin="round" d="M 10867.220 3016.803 Q 10867.247 3016.577 10866.037 3017.274 Q 10866.037 3017.343 10866.037 3017.579 Q 10866.193 3018.133 10872.099 3015.824 Q 10878.004 3013.516 10885.177 3011.513 "></path>
  </g>
</svg>