<?xml version="1.0" encoding="UTF-8" standalone="yes"?>
<svg xmlns="http://www.w3.org/2000/svg" xmlns:xlink="http://www.w3.org/1999/xlink" width="113.167mm" height="74.593mm" version="1.1" viewBox="10050.032 2956.693 588.113 387.647">
  <!--
	Exported with Concepts: Smarter Sketching
	Version: 1687 on iOS 16.2
	https://concepts.app/
	-->
  <title>A9380C28-953E-444C-A90B-FA23C3701835</title>
  <desc>Drawing exported from Concepts: Smarter Sketching</desc>
  <defs></defs>
  <g id="主体" opacity="1.000">
    <path id="STROKE_18d4358f-242e-44c0-a46c-fa801c6aec6a" opacity="1.000" fill="none" stroke="#000000" stroke-width="2.672" stroke-opacity="1.000" stroke-linecap="round" stroke-linejoin="round" d="M 10139.982 3259.107 Q 10139.982 3259.107 10138.782 3259.189 Q 10137.582 3259.271 10150.674 3257.381 L 10150.779 3257.514 "></path>
    <path id="STROKE_401cbdff-aaeb-430d-81c9-1bb70ef45f39" opacity="1.000" fill="none" stroke="#000000" stroke-width="2.672" stroke-opacity="1.000" stroke-linecap="round" stroke-linejoin="round" d="M 10136.543 3268.389 Q 10136.391 3268.688 10136.396 3268.717 Q 10136.994 3269.529 10151.570 3264.482 "></path>
    <path id="STROKE_f13800fe-68c0-48cc-9bd1-736249abbdad" opacity="1.000" fill="none" stroke="#000000" stroke-width="2.672" stroke-opacity="1.000" stroke-linecap="round" stroke-linejoin="round" d="M 10147.068 3265.264 Q 10147.705 3265.417 10146.420 3265.115 Q 10145.135 3264.813 10143.756 3267.672 Q 10142.377 3270.531 10141.870 3272.418 Q 10141.363 3274.306 10141.027 3275.349 Q 10140.691 3276.391 10140.195 3278.338 Q 10139.699 3280.285 10139.711 3281.795 Q 10139.629 3282.570 10142.629 3278.014 "></path>
    <path id="STROKE_c407fd73-9ec1-4699-808a-ff72e23c4aa3" opacity="1.000" fill="none" stroke="#000000" stroke-width="2.672" stroke-opacity="1.000" stroke-linecap="round" stroke-linejoin="round" d="M 10146.402 3268.982 Q 10146.725 3269.556 10146.706 3272.146 Q 10146.688 3274.737 10147.076 3276.140 Q 10147.465 3277.544 10148.477 3278.958 Q 10149.488 3280.374 10153.326 3280.320 Q 10157.164 3280.267 10159.736 3279.462 Q 10162.309 3278.656 10163.379 3276.686 Q 10163.135 3277.060 10161.096 3271.373 "></path>
    <path id="STROKE_b58e6e9c-e8d9-4855-94e0-6716f359b421" opacity="1.000" fill="none" stroke="#000000" stroke-width="2.672" stroke-opacity="1.000" stroke-linecap="round" stroke-linejoin="round" d="M 10170.580 3259.295 Q 10170.307 3259.345 10179.281 3257.115 L 10179.375 3257.248 "></path>
    <path id="STROKE_74b34601-da94-4694-afb5-a73d2ea11418" opacity="1.000" fill="none" stroke="#000000" stroke-width="2.672" stroke-opacity="1.000" stroke-linecap="round" stroke-linejoin="round" d="M 10173.020 3264.670 Q 10172.992 3264.711 10171.893 3265.404 Q 10172.670 3264.241 10177.854 3257.514 "></path>
    <path id="STROKE_c55f2b38-1368-4dd1-a28e-d054d234b6a9" opacity="1.000" fill="none" stroke="#000000" stroke-width="2.601" stroke-opacity="1.000" stroke-linecap="round" stroke-linejoin="round" d="M 10177.979 3253.795 Q 10177.979 3253.795 10177.942 3254.705 Q 10177.906 3255.615 10177.916 3255.186 Q 10177.814 3254.208 10177.744 3257.629 Q 10177.674 3261.050 10177.566 3262.943 Q 10177.459 3264.836 10177.386 3265.538 Q 10177.312 3266.240 10176.960 3266.615 Q 10176.607 3266.991 10176.302 3267.238 Q 10175.996 3267.485 10175.997 3267.493 Q 10175.998 3267.501 10175.473 3267.966 Q 10174.947 3268.430 10169.643 3272.967 Q 10169.150 3273.425 10172.212 3269.941 Q 10175.273 3266.457 10177.453 3264.823 Q 10179.633 3263.189 10180.996 3262.570 Q 10182.359 3261.951 10183.648 3262.115 Q 10184.523 3262.741 10182.581 3265.968 Q 10180.639 3269.196 10178.501 3271.104 Q 10176.363 3273.013 10174.270 3273.967 Q 10174.160 3274.156 10174.452 3273.226 Q 10174.744 3272.296 10177.584 3270.842 Q 10177.688 3271.736 10177.688 3271.709 Q 10178.150 3271.903 10178.646 3283.420 Q 10178.223 3284.374 10169.121 3280.467 Q 10169.025 3278.854 10174.039 3276.345 Q 10179.053 3273.835 10196.322 3274.436 "></path>
    <path id="STROKE_a585e110-de5b-4ea0-bcd1-68b0a6c68820" opacity="1.000" fill="none" stroke="#000000" stroke-width="2.365" stroke-opacity="1.000" stroke-linecap="round" stroke-linejoin="round" d="M 10133.750 3088.186 Q 10133.746 3088.154 10133.790 3088.055 Q 10133.834 3087.957 10133.995 3087.725 Q 10134.156 3087.493 10134.812 3086.717 Q 10135.291 3086.513 10133.254 3091.245 Q 10131.217 3095.978 10126.746 3104.436 Q 10127.230 3104.193 10128.518 3102.451 "></path>
    <path id="STROKE_d03d71f9-8a0f-41e4-8a76-16de730518d2" opacity="1.000" fill="none" stroke="#000000" stroke-width="2.672" stroke-opacity="1.000" stroke-linecap="round" stroke-linejoin="round" d="M 10133.625 3097.670 Q 10133.512 3097.734 10133.665 3097.631 Q 10133.818 3097.527 10135.053 3097.076 Q 10135.975 3097.916 10128.393 3111.873 Q 10127.975 3111.908 10128.854 3110.446 Q 10129.732 3108.985 10131.666 3108.092 Q 10132.010 3107.129 10132.301 3116.381 Q 10133.316 3116.541 10133.688 3115.654 "></path>
    <path id="STROKE_8e9a3a0a-e51b-41b1-bd25-665d67749df5" opacity="1.000" fill="none" stroke="#000000" stroke-width="2.672" stroke-opacity="1.000" stroke-linecap="round" stroke-linejoin="round" d="M 10139.043 3101.451 Q 10138.582 3100.979 10141.024 3098.524 Q 10143.467 3096.068 10145.965 3094.225 Q 10148.463 3092.381 10150.674 3092.764 Q 10151.258 3094.253 10148.465 3098.467 "></path>
    <path id="STROKE_16a93fba-369c-45a2-b63e-2a0dffcae1db" opacity="1.000" fill="none" stroke="#000000" stroke-width="2.672" stroke-opacity="1.000" stroke-linecap="round" stroke-linejoin="round" d="M 10141.107 3105.764 Q 10141.277 3105.749 10140.107 3105.889 Q 10139.998 3106.030 10140.294 3105.360 Q 10140.590 3104.689 10142.417 3103.179 Q 10144.244 3101.668 10146.996 3101.553 Q 10147.363 3102.362 10148.461 3105.390 Q 10149.559 3108.418 10149.734 3110.084 Q 10149.910 3111.750 10149.919 3112.714 Q 10149.928 3113.679 10149.537 3114.216 Q 10149.146 3114.754 10148.468 3115.280 Q 10147.789 3115.806 10147.861 3115.741 Q 10147.934 3115.676 10147.516 3115.847 Q 10147.098 3116.018 10146.617 3116.094 Q 10146.137 3116.171 10145.583 3115.731 Q 10145.029 3115.290 10144.484 3114.123 "></path>
    <path id="STROKE_983e8d51-c35e-4353-be57-8f025ea23e27" opacity="1.000" fill="none" stroke="#000000" stroke-width="2.672" stroke-opacity="1.000" stroke-linecap="round" stroke-linejoin="round" d="M 10142.420 3102.186 Q 10142.092 3102.186 10141.711 3102.373 Q 10141.711 3102.412 10141.711 3102.576 Q 10142.479 3103.227 10145.277 3102.468 Q 10148.076 3101.709 10149.559 3100.872 Q 10151.041 3100.034 10153.238 3099.253 Q 10155.436 3098.472 10158.990 3097.936 "></path>
    <path id="STROKE_23773201-77ea-475c-9f44-a7a42fb5fbfa" opacity="1.000" fill="none" stroke="#000000" stroke-width="2.672" stroke-opacity="1.000" stroke-linecap="round" stroke-linejoin="round" d="M 10128.914 3183.061 Q 10129.164 3182.624 10137.334 3178.748 "></path>
    <path id="STROKE_33e96fcd-39e5-4966-a558-42760801170a" opacity="1.000" fill="none" stroke="#000000" stroke-width="2.656" stroke-opacity="1.000" stroke-linecap="round" stroke-linejoin="round" d="M 10137.271 3179.420 Q 10137.318 3177.882 10126.268 3196.998 Q 10126.227 3197.019 10128.339 3194.391 Q 10130.451 3191.763 10132.070 3190.265 Q 10133.689 3188.766 10134.886 3188.442 Q 10136.082 3188.118 10136.540 3188.065 Q 10136.998 3188.013 10137.461 3189.565 Q 10137.924 3191.117 10137.308 3193.872 Q 10136.691 3196.627 10135.780 3198.319 Q 10134.869 3200.012 10132.301 3200.607 Q 10132.053 3200.454 10131.436 3198.326 "></path>
    <path id="STROKE_4c315b8e-8a2c-42ed-aa8f-d7720efbef38" opacity="1.000" fill="none" stroke="#000000" stroke-width="2.672" stroke-opacity="1.000" stroke-linecap="round" stroke-linejoin="round" d="M 10133.104 3192.811 Q 10132.818 3192.785 10133.885 3192.646 Q 10133.916 3192.956 10134.401 3194.405 Q 10134.887 3195.854 10135.561 3196.104 Q 10136.234 3196.354 10137.060 3196.311 Q 10137.885 3196.268 10139.171 3194.668 Q 10140.457 3193.068 10142.023 3190.561 "></path>
    <path id="STROKE_9710bd15-29d3-4776-a184-b11a434cca16" opacity="1.000" fill="none" stroke="#000000" stroke-width="2.672" stroke-opacity="1.000" stroke-linecap="round" stroke-linejoin="round" d="M 10144.881 3184.061 Q 10144.502 3184.950 10144.113 3187.224 Q 10143.725 3189.497 10143.717 3191.061 Q 10143.709 3192.624 10144.427 3193.188 Q 10145.145 3193.751 10145.913 3193.665 Q 10146.682 3193.580 10148.715 3188.373 "></path>
    <path id="STROKE_f2a12a74-4a8a-40e1-af2e-37a25d3b44be" opacity="1.000" fill="none" stroke="#000000" stroke-width="2.672" stroke-opacity="1.000" stroke-linecap="round" stroke-linejoin="round" d="M 10149.590 3182.529 Q 10149.746 3181.482 10149.746 3181.600 Q 10149.898 3181.021 10149.955 3181.214 Q 10150.012 3181.407 10150.211 3181.252 Q 10150.410 3181.096 10151.236 3183.654 Q 10152.062 3186.212 10152.502 3189.224 Q 10152.941 3192.236 10153.034 3195.306 Q 10153.127 3198.375 10152.982 3199.923 Q 10152.838 3201.470 10151.863 3202.363 Q 10150.889 3203.257 10148.131 3202.045 "></path>
    <path id="STROKE_786c9743-8cf5-4efa-aaf2-ac3103bf2539" opacity="1.000" fill="none" stroke="#000000" stroke-width="2.672" stroke-opacity="1.000" stroke-linecap="round" stroke-linejoin="round" d="M 10257.248 3014.936 Q 10256.832 3016.080 10256.590 3015.959 Q 10255.658 3016.753 10245.992 3026.936 Q 10246.086 3026.771 10246.180 3026.607 "></path>
    <path id="STROKE_d06cd26c-62d2-46f1-9399-1481d9b096f1" opacity="1.000" fill="none" stroke="#000000" stroke-width="2.672" stroke-opacity="1.000" stroke-linecap="round" stroke-linejoin="round" d="M 10254.059 3020.045 Q 10254.814 3020.062 10255.012 3020.025 Q 10255.209 3019.989 10256.363 3020.124 Q 10257.518 3020.259 10258.029 3020.421 Q 10258.541 3020.583 10258.465 3020.559 Q 10258.389 3020.534 10258.435 3020.545 Q 10258.480 3020.555 10259.596 3020.825 Q 10260.711 3021.094 10261.541 3021.826 "></path>
    <path id="STROKE_55c51ee8-1a79-429f-b866-f2b33e204feb" opacity="1.000" fill="none" stroke="#000000" stroke-width="2.672" stroke-opacity="1.000" stroke-linecap="round" stroke-linejoin="round" d="M 10254.475 3021.232 Q 10254.541 3021.428 10252.943 3040.045 Q 10253.246 3040.107 10253.475 3040.139 "></path>
    <path id="STROKE_f680c237-dd79-40f9-9d22-931027c08e4f" opacity="1.000" fill="none" stroke="#000000" stroke-width="2.672" stroke-opacity="1.000" stroke-linecap="round" stroke-linejoin="round" d="M 10268.836 3016.451 Q 10269.168 3015.905 10267.055 3019.628 Q 10264.941 3023.352 10261.051 3029.592 Q 10260.885 3029.561 10260.748 3029.529 "></path>
    <path id="STROKE_054ea1ba-2aac-4e31-ade9-e35097247104" opacity="1.000" fill="none" stroke="#000000" stroke-width="2.672" stroke-opacity="1.000" stroke-linecap="round" stroke-linejoin="round" d="M 10263.938 3025.545 Q 10264.111 3025.043 10264.061 3029.083 Q 10264.010 3033.124 10264.176 3035.323 Q 10264.342 3037.523 10264.782 3038.775 Q 10265.223 3040.027 10266.523 3040.076 "></path>
    <path id="STROKE_78ee9186-a06d-48e2-8025-2fa6d517164e" opacity="1.000" fill="none" stroke="#000000" stroke-width="2.672" stroke-opacity="1.000" stroke-linecap="round" stroke-linejoin="round" d="M 10267.773 3030.717 Q 10267.773 3030.717 10267.674 3030.850 Q 10267.574 3030.982 10269.152 3029.719 Q 10270.730 3028.456 10271.804 3027.707 Q 10272.877 3026.958 10273.472 3026.587 Q 10274.066 3026.215 10274.459 3025.966 Q 10274.852 3025.718 10275.174 3025.504 Q 10275.496 3025.290 10275.708 3025.159 Q 10275.920 3025.029 10276.074 3024.982 Q 10276.229 3024.935 10277.570 3023.889 "></path>
    <path id="STROKE_76c2e719-f219-433d-bc29-e12f6d18aee2" opacity="1.000" fill="none" stroke="#000000" stroke-width="2.672" stroke-opacity="1.000" stroke-linecap="round" stroke-linejoin="round" d="M 10274.652 3019.514 Q 10274.652 3019.514 10274.553 3020.064 Q 10274.453 3020.615 10274.576 3026.936 Q 10274.699 3033.255 10274.861 3037.375 Q 10275.023 3041.495 10276.049 3044.326 Q 10276.330 3044.162 10276.506 3043.061 "></path>
    <path id="STROKE_d175e990-3e36-4107-be3d-a68cdd68de95" opacity="1.000" fill="none" stroke="#000000" stroke-width="2.672" stroke-opacity="1.000" stroke-linecap="round" stroke-linejoin="round" d="M 10274.797 3032.514 Q 10274.094 3031.800 10273.337 3031.660 Q 10272.580 3031.520 10267.105 3041.795 Q 10266.900 3042.122 10267.773 3040.545 "></path>
    <path id="STROKE_0412569f-403b-41b1-9f49-097df0cf12b7" opacity="1.000" fill="none" stroke="#000000" stroke-width="2.672" stroke-opacity="1.000" stroke-linecap="round" stroke-linejoin="round" d="M 10273.338 3033.436 Q 10273.754 3033.293 10275.150 3032.829 Q 10276.547 3032.366 10278.216 3033.334 Q 10279.885 3034.303 10280.558 3035.214 Q 10281.230 3036.124 10281.761 3036.928 Q 10282.291 3037.732 10282.274 3037.773 Q 10282.258 3037.815 10282.010 3038.686 "></path>
    <path id="STROKE_ca384519-5e57-45ba-805f-95c58fbb4f70" opacity="1.000" fill="none" stroke="#000000" stroke-width="2.672" stroke-opacity="1.000" stroke-linecap="round" stroke-linejoin="round" d="M 10272.797 3042.139 Q 10272.262 3042.412 10271.547 3042.670 Q 10272.068 3041.946 10284.072 3037.295 "></path>
    <path id="STROKE_5d33f726-763e-4baf-ba6d-f0622a74746c" opacity="1.000" fill="none" stroke="#000000" stroke-width="2.672" stroke-opacity="1.000" stroke-linecap="round" stroke-linejoin="round" d="M 10258.561 3033.701 Q 10258.561 3033.701 10258.490 3033.906 Q 10258.420 3034.110 10260.112 3032.356 Q 10261.805 3030.602 10268.045 3024.545 "></path>
    <path id="STROKE_357fae28-d31b-4b4d-a117-f5c3f9b9ddb2" opacity="1.000" fill="none" stroke="#000000" stroke-width="2.672" stroke-opacity="1.000" stroke-linecap="round" stroke-linejoin="round" d="M 10263.396 3028.795 Q 10262.768 3029.192 10264.148 3033.129 Q 10265.529 3037.066 10266.314 3045.248 Q 10267.262 3044.688 10267.148 3044.584 Q 10267.676 3043.854 10268.377 3042.936 "></path>
    <path id="STROKE_eedd208f-a1a7-4731-b19d-f27f76b5b814" opacity="1.000" fill="none" stroke="#000000" stroke-width="2.672" stroke-opacity="1.000" stroke-linecap="round" stroke-linejoin="round" d="M 10350.271 3015.529 Q 10350.271 3015.529 10350.345 3014.955 Q 10350.418 3014.380 10358.725 3012.076 Q 10359.354 3013.560 10350.146 3019.576 Q 10351.682 3019.191 10351.439 3019.178 Q 10353.156 3018.375 10359.025 3015.920 "></path>
    <path id="STROKE_775b62f7-b2d3-4ae7-899a-44d47593385a" opacity="1.000" fill="none" stroke="#000000" stroke-width="2.234" stroke-opacity="1.000" stroke-linecap="round" stroke-linejoin="round" d="M 10349.750 3014.857 Q 10348.160 3014.942 10341.664 3041.529 Q 10341.951 3041.951 10346.041 3037.295 "></path>
    <path id="STROKE_197267ac-baf3-49a8-860d-2fe67d1371ff" opacity="1.000" fill="none" stroke="#000000" stroke-width="2.672" stroke-opacity="1.000" stroke-linecap="round" stroke-linejoin="round" d="M 10356.107 3020.576 Q 10356.141 3020.607 10356.232 3019.904 Q 10356.355 3019.166 10350.480 3026.467 Q 10350.326 3026.708 10351.222 3025.112 Q 10352.117 3023.517 10355.180 3022.529 Q 10355.186 3021.241 10355.473 3025.482 Q 10354.848 3025.859 10355.066 3025.792 Q 10355.285 3025.726 10353.880 3025.910 Q 10352.475 3026.095 10351.790 3026.660 Q 10351.105 3027.224 10350.986 3027.526 Q 10350.867 3027.829 10350.939 3027.998 Q 10350.387 3028.398 10352.463 3027.560 Q 10354.539 3026.722 10356.838 3024.279 Q 10357.186 3023.641 10356.400 3025.323 Q 10355.615 3027.004 10354.441 3028.651 Q 10353.268 3030.298 10351.654 3031.680 Q 10350.041 3033.063 10346.707 3033.303 Q 10346.713 3032.634 10346.484 3034.160 Q 10346.256 3035.685 10346.666 3037.982 Q 10346.904 3038.306 10347.966 3037.750 Q 10349.027 3037.193 10358.256 3027.529 Q 10358.758 3026.395 10359.818 3038.686 Q 10359.850 3038.686 10359.881 3038.686 Q 10359.924 3038.465 10359.484 3037.623 "></path>
    <path id="STROKE_f907045c-fcd4-46f9-968b-1891dcb6fad5" opacity="1.000" fill="none" stroke="#000000" stroke-width="2.672" stroke-opacity="1.000" stroke-linecap="round" stroke-linejoin="round" d="M 10356.107 3027.670 Q 10356.025 3026.871 10355.438 3031.048 Q 10354.850 3035.225 10350.449 3041.795 Q 10350.314 3041.631 10350.209 3041.467 "></path>
    <path id="STROKE_61051a85-209b-4ee7-a6cd-29d1e257de37" opacity="1.000" fill="none" stroke="#000000" stroke-width="2.672" stroke-opacity="1.000" stroke-linecap="round" stroke-linejoin="round" d="M 10350.605 3040.139 Q 10351.236 3039.390 10351.168 3039.412 Q 10351.588 3038.741 10352.237 3038.508 Q 10352.887 3038.276 10353.520 3037.956 Q 10354.152 3037.636 10354.875 3037.260 Q 10355.598 3036.885 10357.234 3033.842 "></path>
    <path id="STROKE_13e30c2a-d7ff-4bf2-99c8-2d67fb1642bd" opacity="1.000" fill="none" stroke="#000000" stroke-width="2.672" stroke-opacity="1.000" stroke-linecap="round" stroke-linejoin="round" d="M 10356.691 3033.842 Q 10356.191 3033.502 10355.682 3038.389 Q 10355.873 3039.059 10358.818 3037.029 "></path>
    <path id="STROKE_1d489315-a924-40e9-9e16-079df6c7d397" opacity="1.000" fill="none" stroke="#000000" stroke-width="2.672" stroke-opacity="1.000" stroke-linecap="round" stroke-linejoin="round" d="M 10366.363 3027.607 Q 10366.363 3027.607 10366.348 3027.623 Q 10366.332 3027.639 10366.176 3027.732 Q 10366.828 3027.578 10368.156 3025.936 "></path>
    <path id="STROKE_5bdd20a4-ab27-4b82-9642-c9e0c146a9d9" opacity="1.000" fill="none" stroke="#000000" stroke-width="2.290" stroke-opacity="1.000" stroke-linecap="round" stroke-linejoin="round" d="M 10373.387 3014.732 Q 10371.986 3016.985 10370.646 3038.123 Q 10371.330 3037.876 10371.427 3036.586 Q 10371.523 3035.295 10371.954 3033.860 Q 10372.385 3032.424 10372.679 3031.852 Q 10372.973 3031.280 10373.518 3031.035 Q 10374.062 3030.790 10374.010 3030.841 Q 10373.957 3030.892 10374.278 3030.869 Q 10374.600 3030.846 10375.701 3030.186 "></path>
    <path id="STROKE_efea6cac-bbce-4f4c-a080-0434b9ef3fd2" opacity="1.000" fill="none" stroke="#000000" stroke-width="2.672" stroke-opacity="1.000" stroke-linecap="round" stroke-linejoin="round" d="M 10380.807 3019.107 Q 10380.314 3018.725 10375.764 3028.404 Q 10375.523 3028.950 10377.503 3026.866 Q 10379.482 3024.781 10381.953 3023.206 Q 10384.424 3021.631 10387.029 3021.725 Q 10387.092 3023.614 10386.998 3023.225 Q 10386.516 3024.160 10386.075 3024.717 Q 10385.635 3025.273 10385.207 3025.778 Q 10384.779 3026.282 10383.309 3027.740 Q 10381.838 3029.197 10376.430 3034.232 Q 10377.209 3034.348 10380.591 3031.844 Q 10383.973 3029.340 10388.686 3024.217 "></path>
    <path id="STROKE_bc0977e4-1aa8-4c86-af9f-906b22535c95" opacity="1.000" fill="none" stroke="#000000" stroke-width="2.672" stroke-opacity="1.000" stroke-linecap="round" stroke-linejoin="round" d="M 10385.977 3015.123 Q 10384.812 3015.380 10384.047 3021.434 Q 10383.281 3027.487 10382.311 3031.132 Q 10381.340 3034.777 10380.998 3036.241 Q 10380.656 3037.705 10379.299 3039.004 Q 10377.941 3040.302 10375.826 3040.279 Q 10376.225 3040.149 10381.228 3038.082 Q 10386.230 3036.014 10397.482 3034.639 "></path>
    <path id="STROKE_400653fb-44dc-4d88-99e4-4ee49475fb9a" opacity="1.000" fill="none" stroke="#000000" stroke-width="2.672" stroke-opacity="1.000" stroke-linecap="round" stroke-linejoin="round" d="M 10493.695 3016.186 Q 10493.951 3016.269 10492.664 3014.670 Q 10491.938 3015.907 10492.070 3016.021 Q 10491.953 3015.829 10491.363 3019.588 Q 10490.773 3023.347 10490.763 3025.601 Q 10490.752 3027.854 10490.872 3028.722 Q 10490.992 3029.590 10491.459 3030.215 Q 10491.926 3030.841 10492.128 3030.757 Q 10492.330 3030.674 10492.842 3030.123 "></path>
    <path id="STROKE_afb9c611-60a9-46e0-b7ca-9aa3d2fe45bb" opacity="1.000" fill="none" stroke="#000000" stroke-width="2.672" stroke-opacity="1.000" stroke-linecap="round" stroke-linejoin="round" d="M 10491.967 3018.451 Q 10491.385 3018.119 10490.486 3015.600 Q 10491.676 3014.471 10493.681 3013.239 Q 10495.686 3012.007 10496.767 3011.790 Q 10497.848 3011.572 10499.352 3011.672 Q 10500.855 3011.773 10501.349 3015.520 Q 10501.842 3019.267 10499.053 3025.545 "></path>
    <path id="STROKE_eac4dd7d-7822-4dd1-85ca-63a11584a8ac" opacity="1.000" fill="none" stroke="#000000" stroke-width="2.672" stroke-opacity="1.000" stroke-linecap="round" stroke-linejoin="round" d="M 10496.551 3022.686 Q 10496.574 3022.702 10496.378 3021.701 Q 10496.182 3020.700 10496.391 3020.203 Q 10496.600 3019.706 10497.103 3019.136 Q 10497.605 3018.567 10499.355 3018.248 Q 10501.484 3020.356 10494.551 3027.201 Q 10495.572 3025.466 10498.887 3023.411 Q 10502.201 3021.355 10505.017 3020.613 Q 10507.832 3019.871 10509.313 3019.225 Q 10510.795 3018.579 10511.804 3017.561 Q 10512.812 3016.542 10513.373 3014.998 "></path>
    <path id="STROKE_f0ccafb3-e941-4bfb-a978-3eda17178200" opacity="1.000" fill="none" stroke="#000000" stroke-width="2.576" stroke-opacity="1.000" stroke-linecap="round" stroke-linejoin="round" d="M 10510.059 3011.607 Q 10506.615 3010.781 10507.016 3031.576 Q 10505.928 3031.541 10505.973 3031.451 Q 10505.627 3031.484 10504.692 3030.697 Q 10503.758 3029.909 10503.151 3029.252 Q 10502.545 3028.596 10503.323 3027.788 Q 10504.102 3026.980 10507.016 3024.811 "></path>
    <path id="STROKE_361acac5-d5ba-4000-82c9-112aeb59d6e9" opacity="1.000" fill="none" stroke="#000000" stroke-width="2.672" stroke-opacity="1.000" stroke-linecap="round" stroke-linejoin="round" d="M 10514.102 3011.873 Q 10515.389 3011.186 10515.123 3011.248 Q 10515.334 3010.838 10521.771 3008.092 "></path>
    <path id="STROKE_049d6e1f-de90-4b7e-813d-aebc3bc3d974" opacity="1.000" fill="none" stroke="#000000" stroke-width="2.420" stroke-opacity="1.000" stroke-linecap="round" stroke-linejoin="round" d="M 10520.188 3015.529 Q 10520.285 3015.568 10518.062 3034.842 Q 10518.094 3034.771 10518.125 3034.701 "></path>
    <path id="STROKE_0bdc9cee-c6f1-48bc-b435-6ec46b090ee7" opacity="1.000" fill="none" stroke="#000000" stroke-width="2.672" stroke-opacity="1.000" stroke-linecap="round" stroke-linejoin="round" d="M 10519.125 3019.170 Q 10519.312 3017.930 10521.583 3016.112 Q 10523.854 3014.294 10526.322 3013.706 Q 10528.791 3013.117 10530.054 3013.016 Q 10531.316 3012.915 10532.486 3013.561 Q 10533.656 3014.206 10534.751 3016.189 Q 10535.846 3018.174 10536.026 3021.766 Q 10536.207 3025.359 10536.004 3027.555 Q 10535.801 3029.750 10535.401 3030.683 Q 10535.002 3031.616 10534.454 3032.344 Q 10533.906 3033.072 10531.902 3032.451 "></path>
    <path id="STROKE_67108b1b-25d2-4e4a-a8f9-9664596eb487" opacity="1.000" fill="none" stroke="#000000" stroke-width="2.570" stroke-opacity="1.000" stroke-linecap="round" stroke-linejoin="round" d="M 10527.922 3027.607 Q 10527.244 3025.915 10523.324 3023.920 Q 10523.047 3023.866 10522.881 3027.197 Q 10522.715 3030.527 10524.117 3034.045 Q 10524.189 3034.045 10524.482 3033.904 "></path>
    <path id="STROKE_e4015060-6858-4efd-9b7e-5dcde805d8f8" opacity="1.000" fill="none" stroke="#000000" stroke-width="2.672" stroke-opacity="1.000" stroke-linecap="round" stroke-linejoin="round" d="M 10524.689 3027.732 Q 10523.877 3026.847 10524.929 3024.372 Q 10525.980 3021.897 10526.616 3020.686 Q 10527.252 3019.475 10528.312 3018.854 Q 10529.373 3018.233 10530.417 3017.993 Q 10531.461 3017.752 10531.851 3017.925 Q 10532.240 3018.099 10532.504 3018.552 Q 10532.768 3019.005 10532.925 3020.580 Q 10533.082 3022.155 10531.845 3024.249 Q 10530.607 3026.343 10529.607 3027.091 Q 10528.607 3027.838 10527.708 3028.246 Q 10526.809 3028.653 10526.278 3028.604 Q 10525.748 3028.555 10525.237 3027.409 Q 10524.727 3026.264 10525.908 3024.927 Q 10527.090 3023.590 10528.184 3022.861 Q 10529.277 3022.132 10531.172 3022.162 Q 10532.533 3022.932 10527.066 3031.576 Q 10528.465 3031.247 10528.257 3031.441 Q 10528.049 3031.635 10533.236 3027.795 "></path>
    <path id="STROKE_897dde22-9069-4ec5-95f0-2d938945d016" opacity="1.000" fill="none" stroke="#000000" stroke-width="2.672" stroke-opacity="1.000" stroke-linecap="round" stroke-linejoin="round" d="M 10073.908 2976.186 Q 10073.551 2975.881 10073.533 2975.884 Q 10073.516 2975.887 10073.540 2975.823 Q 10073.564 2975.760 10073.818 2975.480 Q 10074.072 2975.200 10074.420 2975.035 Q 10074.768 2974.870 10075.354 2974.743 Q 10075.939 2974.615 10078.859 2974.440 Q 10081.779 2974.265 10083.683 2974.039 Q 10085.586 2973.812 10087.143 2972.529 "></path>
    <path id="STROKE_f2f24350-e1ec-41cf-81c6-a40b37f7deec" opacity="1.000" fill="none" stroke="#000000" stroke-width="2.672" stroke-opacity="1.000" stroke-linecap="round" stroke-linejoin="round" d="M 10082.703 2965.092 Q 10082.012 2965.509 10080.591 2967.652 Q 10079.170 2969.796 10078.076 2979.701 "></path>
    <path id="STROKE_226e77e6-1288-4134-8486-8526ff1f3407" opacity="1.000" fill="none" stroke="#000000" stroke-width="2.672" stroke-opacity="1.000" stroke-linecap="round" stroke-linejoin="round" d="M 10076.805 2979.967 Q 10075.254 2980.525 10074.669 2985.179 Q 10074.084 2989.834 10073.984 2992.165 Q 10073.885 2994.496 10074.119 2996.034 Q 10074.354 2997.572 10075.742 2998.342 "></path>
    <path id="STROKE_6f20aab0-fa4b-4cff-aff4-1a0105afc18c" opacity="1.000" fill="none" stroke="#000000" stroke-width="2.672" stroke-opacity="1.000" stroke-linecap="round" stroke-linejoin="round" d="M 10075.430 2987.326 Q 10075.580 2986.732 10075.382 2985.201 Q 10075.184 2983.670 10076.044 2982.716 Q 10076.904 2981.762 10078.266 2981.557 Q 10079.627 2981.351 10080.512 2981.537 Q 10081.396 2981.723 10082.304 2982.211 Q 10083.211 2982.699 10084.712 2984.601 Q 10086.213 2986.502 10086.539 2993.889 "></path>
    <path id="STROKE_cf356574-4782-44a4-8817-ef92015dd896" opacity="1.000" fill="none" stroke="#000000" stroke-width="2.470" stroke-opacity="1.000" stroke-linecap="round" stroke-linejoin="round" d="M 10079.057 2988.779 Q 10079.031 2988.795 10078.812 2987.048 Q 10078.592 2985.301 10079.275 2984.478 Q 10079.959 2983.654 10080.612 2983.486 Q 10081.266 2983.317 10081.756 2983.324 Q 10082.246 2983.332 10082.209 2983.417 Q 10082.172 2983.503 10082.042 2983.415 Q 10081.912 2983.327 10082.342 2983.899 Q 10082.771 2984.471 10081.647 2987.610 Q 10080.523 2990.749 10073.908 2995.217 Q 10073.914 2994.388 10076.363 2991.859 Q 10078.812 2989.330 10082.734 2988.061 Q 10084.373 2989.305 10069.990 3001.123 Q 10070.137 3001.433 10074.303 2998.365 Q 10078.469 2995.296 10084.256 2993.529 Q 10084.385 2995.389 10078.272 3000.693 Q 10072.160 3005.998 10062.715 3010.623 Q 10063.184 3010.174 10064.300 3009.408 Q 10065.416 3008.643 10068.419 3007.132 Q 10071.422 3005.621 10076.278 3004.336 Q 10081.135 3003.051 10084.108 3002.440 Q 10087.082 3001.829 10090.250 2999.936 "></path>
    <path id="STROKE_95a12d0b-e127-4619-94c4-929481960ea5" opacity="1.000" fill="none" stroke="#000000" stroke-width="2.672" stroke-opacity="1.000" stroke-linecap="round" stroke-linejoin="round" d="M 10104.359 2974.451 Q 10104.090 2974.117 10104.842 2975.384 Q 10105.594 2976.650 10106.334 2977.630 Q 10107.074 2978.609 10107.946 2979.078 Q 10108.818 2979.547 10109.576 2979.100 Q 10110.334 2978.653 10111.287 2977.836 Q 10112.240 2977.019 10113.947 2972.061 Q 10113.227 2971.370 10112.176 2978.342 Q 10113.723 2978.451 10113.688 2976.076 Q 10113.025 2975.982 10112.379 2976.074 Q 10111.732 2976.167 10109.981 2977.653 Q 10108.230 2979.139 10106.659 2981.309 Q 10105.088 2983.478 10104.705 2984.056 Q 10104.322 2984.634 10103.631 2985.484 Q 10102.939 2986.334 10101.900 2986.896 Q 10101.900 2988.161 10101.900 2987.795 Q 10103.018 2988.582 10104.053 2988.066 Q 10105.088 2987.551 10105.094 2987.186 Q 10105.100 2986.820 10111.145 2981.357 Q 10110.986 2980.588 10111.403 2983.207 Q 10111.820 2985.825 10111.257 2987.637 Q 10110.693 2989.449 10110.171 2990.291 Q 10109.648 2991.133 10109.204 2991.410 Q 10108.760 2991.687 10108.591 2991.728 Q 10108.422 2991.768 10108.059 2991.855 Q 10107.695 2991.943 10106.934 2991.962 Q 10106.172 2991.981 10105.839 2991.963 Q 10105.506 2991.945 10105.065 2991.941 Q 10104.625 2991.937 10104.330 2991.964 Q 10104.035 2991.991 10103.266 2992.282 Q 10102.496 2992.573 10102.311 2992.555 Q 10102.125 2992.537 10100.379 2995.295 Q 10101.258 2995.229 10102.988 2993.099 Q 10104.719 2990.969 10106.451 2989.343 Q 10108.184 2987.718 10110.416 2988.357 Q 10111.553 2988.865 10109.592 2997.217 Q 10108.633 2996.618 10108.742 2996.651 Q 10108.852 2996.685 10108.804 2996.656 Q 10108.756 2996.627 10108.615 2996.234 Q 10108.475 2995.841 10108.235 2995.708 Q 10107.996 2995.574 10107.491 2995.491 Q 10106.986 2995.408 10107.043 2995.290 Q 10107.100 2995.172 10106.502 2995.798 Q 10105.904 2996.424 10105.316 2997.714 Q 10104.729 2999.003 10101.379 3006.764 Q 10101.555 3006.695 10105.818 2998.732 Q 10105.877 3000.177 10105.912 3000.029 Q 10106.162 3000.687 10106.580 3001.674 Q 10106.998 3002.661 10109.805 3003.410 Q 10112.611 3004.159 10115.089 3003.362 Q 10117.566 3002.565 10119.266 3001.265 Q 10120.965 2999.965 10121.578 2999.114 Q 10122.191 2998.262 10120.701 2995.154 "></path>
    <path id="STROKE_4bb640a1-d340-448a-9b91-2bced5905cb2" opacity="1.000" fill="none" stroke="#000000" stroke-width="2.672" stroke-opacity="1.000" stroke-linecap="round" stroke-linejoin="round" d="M 10122.160 2974.592 Q 10121.875 2974.690 10122.044 2974.542 Q 10122.213 2974.394 10122.198 2974.468 Q 10122.184 2974.542 10121.702 2974.741 Q 10121.221 2974.940 10120.571 2975.826 Q 10119.922 2976.713 10119.473 2977.343 Q 10119.023 2977.972 10118.251 2979.134 Q 10117.479 2980.296 10116.012 2983.342 "></path>
    <path id="STROKE_324bd6ec-a24e-42fa-901f-def3ffbdcdda" opacity="1.000" fill="none" stroke="#000000" stroke-width="2.622" stroke-opacity="1.000" stroke-linecap="round" stroke-linejoin="round" d="M 10114.281 2984.732 Q 10114.406 2985.149 10114.249 2984.214 Q 10114.092 2983.279 10114.844 2982.260 Q 10115.596 2981.240 10116.479 2980.872 Q 10117.361 2980.504 10117.871 2980.662 Q 10118.381 2980.820 10118.637 2981.291 Q 10118.893 2981.761 10119.046 2982.440 Q 10119.199 2983.119 10119.152 2983.613 Q 10119.105 2984.106 10119.544 2985.381 Q 10119.982 2986.656 10116.533 2997.420 "></path>
    <path id="STROKE_f2307c06-d7ae-42e0-976d-3d087f43c20f" opacity="1.000" fill="none" stroke="#000000" stroke-width="2.672" stroke-opacity="1.000" stroke-linecap="round" stroke-linejoin="round" d="M 10138.252 2974.779 Q 10138.090 2975.116 10138.523 2973.857 Q 10137.982 2973.557 10132.373 2988.654 "></path>
    <path id="STROKE_3c5eeff4-1498-4636-9df9-77014c2201e1" opacity="1.000" fill="none" stroke="#000000" stroke-width="2.672" stroke-opacity="1.000" stroke-linecap="round" stroke-linejoin="round" d="M 10136.793 2984.607 Q 10137.006 2984.276 10137.596 2983.795 Q 10138.186 2983.313 10138.099 2983.352 Q 10138.012 2983.390 10138.681 2983.171 Q 10139.350 2982.952 10147.465 2976.311 "></path>
    <path id="STROKE_8b10d005-ccdb-4fe2-861f-fda81926b6b5" opacity="1.000" fill="none" stroke="#000000" stroke-width="2.672" stroke-opacity="1.000" stroke-linecap="round" stroke-linejoin="round" d="M 10145.088 2973.732 Q 10144.406 2973.467 10142.775 2978.136 Q 10141.145 2982.805 10140.396 2986.250 Q 10139.648 2989.694 10136.396 2992.045 Q 10135.879 2991.555 10137.950 2989.041 Q 10140.021 2986.527 10144.285 2985.264 Q 10144.391 2985.467 10144.275 2987.326 "></path>
    <path id="STROKE_d3e1d98b-36c4-4f43-a9ea-c8b1b09234b2" opacity="1.000" fill="none" stroke="#000000" stroke-width="2.672" stroke-opacity="1.000" stroke-linecap="round" stroke-linejoin="round" d="M 10139.773 2994.889 Q 10139.326 2995.644 10138.253 2997.825 Q 10137.180 3000.006 10136.209 3003.576 Q 10135.686 3002.658 10137.301 2999.824 Q 10138.916 2996.990 10139.872 2995.680 Q 10140.828 2994.370 10141.467 2993.818 Q 10142.105 2993.267 10142.476 2993.105 Q 10142.846 2992.943 10143.170 2993.127 Q 10143.494 2993.311 10143.799 2993.796 Q 10144.104 2994.281 10144.100 2994.711 Q 10144.096 2995.142 10144.034 2994.990 Q 10143.973 2994.839 10144.181 2995.843 Q 10144.389 2996.847 10143.516 2999.139 Q 10142.643 3001.430 10141.326 3002.661 Q 10140.010 3003.891 10137.271 3004.076 Q 10135.928 3002.670 10146.340 2999.139 "></path>
    <path id="STROKE_957dae18-7c7c-4bd7-849b-26d4af5c7606" opacity="1.000" fill="none" stroke="#000000" stroke-width="2.672" stroke-opacity="1.000" stroke-linecap="round" stroke-linejoin="round" d="M 10076.221 3026.670 Q 10076.086 3026.670 10075.742 3026.209 Q 10075.135 3025.551 10080.057 3024.982 Q 10080.412 3024.895 10080.568 3026.884 Q 10080.725 3028.874 10080.119 3031.389 "></path>
    <path id="STROKE_4d05ac68-6e0b-4c01-9c17-831f35b34e99" opacity="1.000" fill="none" stroke="#000000" stroke-width="2.574" stroke-opacity="1.000" stroke-linecap="round" stroke-linejoin="round" d="M 10078.535 3035.498 Q 10078.398 3035.662 10077.711 3036.092 Q 10077.662 3035.008 10077.684 3034.099 Q 10077.705 3033.190 10080.348 3031.779 Q 10081.762 3031.096 10081.244 3044.326 Q 10081.291 3044.324 10084.203 3040.143 Q 10087.115 3035.962 10089.631 3030.307 Q 10092.146 3024.652 10092.709 3017.350 Q 10091.896 3016.958 10090.360 3019.304 Q 10088.824 3021.649 10088.109 3023.121 Q 10087.395 3024.593 10087.399 3026.174 Q 10087.404 3027.755 10087.695 3031.958 Q 10087.986 3036.162 10087.866 3039.304 Q 10087.746 3042.445 10088.176 3045.545 Q 10088.959 3045.079 10089.123 3043.857 "></path>
    <path id="STROKE_583e7d31-cac1-44a9-ab8a-647ec6ae86d2" opacity="1.000" fill="none" stroke="#000000" stroke-width="2.672" stroke-opacity="1.000" stroke-linecap="round" stroke-linejoin="round" d="M 10090.062 3033.576 Q 10090.049 3033.329 10090.429 3031.945 Q 10090.809 3030.562 10091.479 3029.522 Q 10092.150 3028.482 10093.130 3027.442 Q 10094.109 3026.403 10094.952 3026.020 Q 10095.795 3025.637 10096.528 3025.431 Q 10097.262 3025.226 10097.939 3025.936 "></path>
    <path id="STROKE_4500e247-60ca-41b9-8ffa-419461d4f30d" opacity="1.000" fill="none" stroke="#000000" stroke-width="2.434" stroke-opacity="1.000" stroke-linecap="round" stroke-linejoin="round" d="M 10096.211 3027.795 Q 10095.258 3026.590 10095.586 3047.576 L 10095.627 3047.576 Q 10095.674 3046.800 10095.689 3046.717 "></path>
    <path id="STROKE_fcb422c4-33eb-40ee-b183-cb86661a5b13" opacity="1.000" fill="none" stroke="#000000" stroke-width="2.672" stroke-opacity="1.000" stroke-linecap="round" stroke-linejoin="round" d="M 10091.584 3038.889 Q 10091.000 3038.381 10089.457 3037.561 Q 10089.832 3037.483 10103.359 3037.357 "></path>
    <path id="STROKE_a4588157-8107-4050-8975-4bd3d043d00f" opacity="1.000" fill="none" stroke="#000000" stroke-width="2.502" stroke-opacity="1.000" stroke-linecap="round" stroke-linejoin="round" d="M 10120.973 3016.592 Q 10120.973 3016.389 10120.441 3015.857 Q 10118.975 3015.964 10111.635 3030.451 Q 10111.318 3030.378 10113.594 3030.092 Q 10114.215 3030.017 10114.293 3045.654 Q 10115.619 3045.656 10118.729 3037.353 Q 10121.840 3029.049 10123.160 3019.904 Q 10122.293 3018.798 10119.264 3029.998 Q 10119.994 3030.603 10122.331 3027.979 Q 10124.668 3025.355 10128.424 3023.451 Q 10129.078 3023.365 10128.262 3025.644 Q 10127.445 3027.923 10126.433 3029.300 Q 10125.420 3030.676 10125.614 3031.413 Q 10125.809 3032.151 10126.284 3033.296 Q 10126.760 3034.442 10126.896 3034.865 Q 10127.031 3035.288 10127.190 3035.972 Q 10127.350 3036.656 10127.717 3038.992 Q 10128.084 3041.327 10128.020 3042.612 Q 10127.955 3043.898 10127.812 3044.345 Q 10127.668 3044.792 10127.560 3044.802 Q 10127.451 3044.812 10126.896 3045.117 Q 10126.342 3045.422 10124.806 3045.418 Q 10123.270 3045.415 10122.212 3044.958 Q 10121.154 3044.502 10120.479 3044.133 Q 10119.805 3043.764 10119.489 3043.323 Q 10119.174 3042.883 10119.244 3042.311 Q 10119.314 3041.738 10120.562 3040.417 Q 10121.811 3039.097 10123.640 3037.739 Q 10125.469 3036.381 10128.885 3035.466 Q 10132.301 3034.550 10135.375 3034.712 Q 10138.449 3034.875 10142.963 3037.561 "></path>
    <path id="STROKE_1cd6ec7a-d762-4515-805d-6d03a5dabf25" opacity="1.000" fill="none" stroke="#000000" stroke-width="2.672" stroke-opacity="1.000" stroke-linecap="round" stroke-linejoin="round" d="M 10154.156 3032.842 Q 10154.156 3032.842 10155.016 3033.086 Q 10155.875 3033.330 10155.312 3033.373 Q 10155.768 3033.505 10156.865 3039.014 "></path>
    <path id="STROKE_580e7b38-3dd2-470c-987b-c70328a6e59c" opacity="1.000" fill="none" stroke="#000000" stroke-width="2.672" stroke-opacity="1.000" stroke-linecap="round" stroke-linejoin="round" d="M 10152.695 3047.107 Q 10152.592 3047.164 10152.229 3047.417 Q 10151.867 3047.671 10151.910 3047.705 Q 10151.953 3047.738 10151.925 3047.639 Q 10151.896 3047.539 10151.842 3048.303 Q 10152.787 3049.185 10157.656 3046.779 "></path>
    <path id="STROKE_5e99f793-1245-4ef1-9967-f2b241421bd5" opacity="1.000" fill="none" stroke="#000000" stroke-width="2.672" stroke-opacity="1.000" stroke-linecap="round" stroke-linejoin="round" d="M 10124.016 3016.061 Q 10124.016 3016.061 10124.186 3016.019 Q 10124.355 3015.977 10123.440 3016.193 Q 10122.525 3016.410 10121.809 3018.227 Q 10121.092 3020.045 10117.408 3033.045 "></path>
    <path id="STROKE_e8f21d6a-5fbf-40fa-b5d6-8c7707946857" opacity="1.000" fill="none" stroke="#000000" stroke-width="2.672" stroke-opacity="1.000" stroke-linecap="round" stroke-linejoin="round" d="M 10120.973 3030.982 L 10120.941 3030.982 Q 10120.232 3030.826 10122.458 3028.532 Q 10124.684 3026.238 10127.562 3024.630 Q 10130.439 3023.022 10133.582 3023.318 Q 10134.988 3025.492 10131.039 3030.389 "></path>
    <path id="STROKE_70c17933-54ea-41d6-b381-72575eb87c0a" opacity="1.000" fill="none" stroke="#000000" stroke-width="2.506" stroke-opacity="1.000" stroke-linecap="round" stroke-linejoin="round" d="M 10504.555 3088.717 Q 10504.555 3088.678 10504.555 3088.576 Q 10504.523 3088.576 10504.492 3088.514 Q 10504.154 3087.982 10505.056 3091.552 Q 10505.957 3095.122 10506.976 3096.808 Q 10507.994 3098.495 10508.604 3099.270 Q 10509.215 3100.044 10509.961 3100.545 Q 10510.707 3101.045 10512.664 3099.119 Q 10514.621 3097.192 10517.409 3093.020 Q 10520.197 3088.848 10521.647 3086.406 Q 10523.098 3083.964 10523.719 3082.418 Q 10524.340 3080.872 10525.422 3078.574 Q 10526.504 3076.277 10531.965 3062.498 "></path>
    <path id="STROKE_bafa850b-f053-4af6-8663-7ce15908fc18" opacity="1.000" fill="none" stroke="#000000" stroke-width="2.672" stroke-opacity="1.000" stroke-linecap="round" stroke-linejoin="round" d="M 10255.727 3103.436 Q 10255.727 3103.436 10255.727 3103.420 Q 10255.727 3103.404 10255.727 3102.904 Q 10255.643 3102.513 10256.195 3105.165 Q 10256.748 3107.817 10257.225 3109.454 Q 10257.701 3111.091 10258.104 3111.799 Q 10258.506 3112.506 10259.473 3112.409 Q 10260.439 3112.312 10261.081 3111.654 Q 10261.723 3110.996 10261.974 3110.704 Q 10262.225 3110.411 10263.792 3108.500 Q 10265.359 3106.590 10268.015 3103.513 Q 10270.670 3100.435 10277.236 3088.779 "></path>
    <path id="STROKE_0671dcb0-6632-4c94-af24-e77ec1c02403" opacity="1.000" fill="none" stroke="#000000" stroke-width="2.499" stroke-opacity="1.000" stroke-linecap="round" stroke-linejoin="round" d="M 10510.059 3183.795 Q 10510.059 3183.795 10510.100 3184.566 Q 10510.141 3185.337 10510.152 3185.061 Q 10510.137 3184.779 10510.172 3185.339 Q 10510.207 3185.899 10510.426 3187.538 Q 10510.645 3189.177 10510.812 3189.881 Q 10510.979 3190.585 10511.048 3191.172 Q 10511.117 3191.760 10511.554 3193.287 Q 10511.990 3194.814 10512.365 3196.032 Q 10512.740 3197.250 10513.774 3197.983 Q 10514.809 3198.716 10516.615 3197.220 Q 10518.422 3195.724 10520.154 3193.706 Q 10521.887 3191.688 10523.656 3188.932 Q 10525.426 3186.177 10526.338 3184.069 Q 10527.250 3181.960 10535.820 3160.764 "></path>
    <path id="STROKE_41c1fca3-dabd-4ac0-8dfd-4b67b80aea62" opacity="1.000" fill="none" stroke="#000000" stroke-width="2.672" stroke-opacity="1.000" stroke-linecap="round" stroke-linejoin="round" d="M 10364.049 3188.232 Q 10364.049 3188.232 10364.049 3187.834 Q 10364.049 3187.435 10364.049 3187.670 Q 10364.049 3187.639 10364.445 3187.514 Q 10364.715 3187.306 10365.500 3190.423 Q 10366.285 3193.541 10366.855 3194.983 Q 10367.426 3196.426 10368.163 3197.140 Q 10368.900 3197.853 10369.199 3197.792 Q 10369.498 3197.730 10370.264 3197.107 Q 10371.029 3196.484 10373.066 3194.204 Q 10375.104 3191.923 10377.272 3188.167 Q 10379.441 3184.410 10381.142 3180.514 Q 10382.842 3176.617 10386.373 3168.139 "></path>
    <path id="STROKE_f443e8a4-4340-480e-a9f1-25455dd96eaf" opacity="1.000" fill="none" stroke="#000000" stroke-width="2.672" stroke-opacity="1.000" stroke-linecap="round" stroke-linejoin="round" d="M 10259.436 3273.967 Q 10259.436 3273.967 10259.420 3273.967 Q 10259.404 3273.967 10259.373 3273.967 Q 10259.373 3273.936 10259.373 3273.826 Q 10259.537 3274.750 10259.529 3274.561 Q 10259.168 3275.138 10262.572 3282.061 Q 10263.021 3282.911 10264.726 3280.820 Q 10266.430 3278.728 10267.560 3277.423 Q 10268.689 3276.119 10272.240 3270.461 Q 10275.791 3264.804 10283.260 3249.873 "></path>
    <path id="STROKE_58ab838a-df62-41a2-88e5-1742f35137f9" opacity="1.000" fill="none" stroke="#000000" stroke-width="2.506" stroke-opacity="1.000" stroke-linecap="round" stroke-linejoin="round" d="M 10368.676 3267.857 Q 10368.676 3267.857 10368.923 3268.547 Q 10369.170 3269.236 10370.512 3272.852 Q 10371.854 3276.468 10372.736 3278.355 Q 10373.619 3280.243 10374.123 3281.086 Q 10374.627 3281.929 10375.467 3282.084 Q 10376.307 3282.240 10378.368 3279.437 Q 10380.430 3276.635 10384.033 3269.613 Q 10387.637 3262.592 10389.400 3258.433 Q 10391.164 3254.273 10393.013 3251.028 Q 10394.861 3247.782 10398.754 3241.717 "></path>
    <path id="STROKE_d85a18a3-5b9e-4772-a045-528e70787f70" opacity="1.000" fill="none" stroke="#000000" stroke-width="1.922" stroke-opacity="1.000" stroke-linecap="round" stroke-linejoin="round" d="M 10059.408 3080.036 Q 10059.738 3080.123 10058.201 3079.852 Q 10058.201 3079.784 10058.201 3079.751 Q 10057.953 3080.224 10067.735 3078.993 Q 10077.518 3077.762 10082.989 3076.740 Q 10088.461 3075.719 10091.967 3075.503 Q 10095.473 3075.287 10098.654 3074.882 Q 10101.836 3074.477 10111.101 3072.129 Q 10120.365 3069.782 10125.218 3068.574 Q 10130.070 3067.366 10134.827 3066.734 Q 10139.584 3066.102 10145.240 3065.872 Q 10150.896 3065.641 10156.654 3066.035 Q 10162.412 3066.428 10165.510 3066.758 Q 10168.607 3067.087 10174.839 3068.402 Q 10181.070 3069.717 10190.349 3070.182 Q 10199.627 3070.648 10204.497 3070.552 Q 10209.367 3070.456 10213.149 3070.482 Q 10216.932 3070.509 10219.400 3070.618 Q 10221.869 3070.727 10225.271 3071.303 Q 10228.672 3071.878 10235.574 3072.650 Q 10242.477 3073.423 10249.193 3073.508 Q 10255.910 3073.593 10261.162 3073.425 Q 10266.414 3073.258 10270.983 3072.853 Q 10275.553 3072.448 10280.282 3072.101 Q 10285.012 3071.754 10291.212 3071.337 Q 10297.412 3070.921 10302.153 3070.621 Q 10306.895 3070.322 10310.555 3070.016 Q 10314.215 3069.711 10316.128 3069.492 Q 10318.041 3069.273 10320.559 3069.019 Q 10323.076 3068.765 10327.844 3068.159 Q 10332.611 3067.553 10341.906 3065.881 Q 10351.201 3064.208 10358.709 3063.476 Q 10366.217 3062.744 10370.142 3062.789 Q 10374.066 3062.835 10377.386 3062.825 Q 10380.705 3062.814 10386.113 3062.892 Q 10391.521 3062.969 10396.011 3062.823 Q 10400.500 3062.678 10403.521 3062.275 Q 10406.543 3061.872 10414.067 3061.292 Q 10421.592 3060.710 10431.724 3060.795 Q 10441.855 3060.880 10451.792 3061.029 Q 10461.729 3061.177 10468.557 3061.119 Q 10475.385 3061.061 10481.455 3061.040 Q 10487.525 3061.019 10490.523 3060.968 Q 10493.521 3060.917 10500.144 3060.914 Q 10506.766 3060.910 10520.109 3062.364 Q 10533.453 3063.819 10541.093 3064.518 Q 10548.732 3065.218 10553.866 3065.441 Q 10559.000 3065.665 10570.031 3065.777 Q 10581.062 3065.890 10592.398 3065.555 Q 10603.734 3065.220 10612.994 3064.592 Q 10622.254 3063.964 10630.080 3062.312 "></path>
    <path id="STROKE_86542184-380c-48b0-a544-556a2cec7661" opacity="1.000" fill="none" stroke="#000000" stroke-width="1.666" stroke-opacity="1.000" stroke-linecap="round" stroke-linejoin="round" d="M 10218.562 2977.313 Q 10218.105 2977.375 10214.908 2976.994 Q 10214.398 2978.035 10214.617 2986.481 Q 10214.836 2994.928 10214.879 3011.092 Q 10214.922 3027.256 10214.839 3035.602 Q 10214.756 3043.948 10213.708 3058.102 Q 10212.660 3072.256 10212.013 3081.746 Q 10211.365 3091.237 10211.016 3096.085 Q 10210.666 3100.933 10209.955 3111.828 Q 10209.244 3122.723 10208.884 3134.842 Q 10208.523 3146.962 10208.536 3153.473 Q 10208.549 3159.984 10209.150 3165.583 Q 10209.752 3171.182 10210.041 3173.375 Q 10210.330 3175.568 10211.096 3180.738 Q 10211.861 3185.908 10212.753 3197.576 Q 10213.645 3209.244 10214.053 3219.336 Q 10214.461 3229.428 10214.710 3234.834 Q 10214.959 3240.241 10215.539 3246.393 Q 10216.119 3252.544 10217.831 3265.408 Q 10219.543 3278.272 10220.330 3293.479 Q 10221.117 3308.687 10221.407 3316.488 Q 10221.697 3324.290 10222.039 3328.566 Q 10222.381 3332.842 10224.105 3336.123 "></path>
  </g>
</svg>