<?xml version="1.0" encoding="UTF-8" standalone="yes"?>
<svg xmlns="http://www.w3.org/2000/svg" xmlns:xlink="http://www.w3.org/1999/xlink" width="36.275mm" height="39.438mm" version="1.1" viewBox="-8125.360 7900.447 188.516 204.955">
  <!--
	Exported with Concepts: Smarter Sketching
	Version: 1059 on iOS 15.6
	https://concepts.app/
	-->
  <title>类型、逻辑、运算、信息</title>
  <desc>Drawing exported from Concepts: Smarter Sketching</desc>
  <defs></defs>
  <g id="图解" opacity="1.000">
    <path id="STROKE_3c5d942e-45f7-4655-9338-ebb7add8c013" opacity="1.000" fill="none" stroke="#000000" stroke-width="1.000" stroke-opacity="1.000" stroke-linecap="round" stroke-linejoin="round" d="M -8015.678 7911.548 Q -8015.676 7911.535 -8015.670 7911.469 Q -8015.613 7911.381 -8015.431 7912.255 Q -8015.250 7913.129 -8015.398 7913.747 Q -8015.546 7914.365 -8015.796 7914.773 Q -8016.046 7915.181 -8016.219 7915.388 Q -8016.392 7915.594 -8016.499 7915.697 "></path>
    <path id="STROKE_0ea6802f-cc7a-4b61-a1a9-037b55830a4f" opacity="1.000" fill="none" stroke="#000000" stroke-width="1.000" stroke-opacity="1.000" stroke-linecap="round" stroke-linejoin="round" d="M -8009.359 7907.133 Q -8009.373 7907.131 -8009.581 7907.140 Q -8009.638 7907.579 -8005.583 7906.429 Q -8005.510 7906.807 -8005.533 7906.768 Q -8005.510 7907.416 -8005.511 7907.316 Q -8005.470 7907.422 -8005.618 7909.009 Q -8005.766 7910.596 -8005.869 7912.422 Q -8005.827 7912.442 -8005.784 7912.463 "></path>
    <path id="STROKE_bc6bd273-d52b-4a3f-a93a-155829f45b4a" opacity="1.000" fill="none" stroke="#000000" stroke-width="1.000" stroke-opacity="1.000" stroke-linecap="round" stroke-linejoin="round" d="M -8008.230 7910.243 Q -8008.025 7910.217 -8009.110 7910.390 Q -8008.725 7910.310 -8006.515 7909.938 Q -8004.306 7909.565 -8004.182 7909.563 "></path>
    <path id="STROKE_a83e0205-7784-410a-8d4d-178b1428ecda" opacity="1.000" fill="none" stroke="#000000" stroke-width="1.000" stroke-opacity="1.000" stroke-linecap="round" stroke-linejoin="round" d="M -8008.249 7913.622 Q -8008.364 7913.717 -8009.213 7913.728 Q -8009.271 7913.796 -8008.583 7913.722 Q -8007.894 7913.647 -8006.338 7913.232 Q -8004.781 7912.817 -8004.606 7912.733 "></path>
    <path id="STROKE_3e2e1c68-dded-4095-a0c7-6e40fa4efe84" opacity="1.000" fill="none" stroke="#000000" stroke-width="1.000" stroke-opacity="1.000" stroke-linecap="round" stroke-linejoin="round" d="M -8025.980 8098.632 Q -8025.980 8098.633 -8026.026 8098.710 Q -8026.072 8098.787 -8025.896 8098.684 Q -8025.721 8098.580 -8026.363 8100.342 Q -8027.006 8102.104 -8027.145 8102.274 "></path>
    <path id="STROKE_c44f0f31-461d-4f56-b145-cb24385e7ee1" opacity="1.000" fill="none" stroke="#000000" stroke-width="1.000" stroke-opacity="1.000" stroke-linecap="round" stroke-linejoin="round" d="M -8018.720 8091.882 Q -8018.731 8091.864 -8018.792 8091.703 Q -8018.229 8091.637 -8015.778 8102.724 Q -8015.765 8102.725 -8015.751 8102.727 Q -8015.575 8102.702 -8015.300 8100.371 Q -8015.025 8098.041 -8014.646 8096.126 Q -8014.266 8094.211 -8014.030 8093.367 Q -8013.794 8092.523 -8013.628 8092.247 Q -8013.462 8091.971 -8013.144 8091.153 Q -8012.825 8090.336 -8012.848 8090.291 "></path>
    <path id="STROKE_fb25af42-c75e-4b65-9d7d-b07c05645578" opacity="1.000" fill="none" stroke="#000000" stroke-width="1.000" stroke-opacity="1.000" stroke-linecap="round" stroke-linejoin="round" d="M -8016.895 8096.008 Q -8017.186 8095.881 -8017.098 8095.911 Q -8016.719 8095.540 -8016.678 8095.607 Q -8015.970 8095.209 -8014.920 8095.105 Q -8013.869 8095.002 -8013.769 8094.968 "></path>
    <path id="STROKE_83336836-5436-4513-94d7-ddb597d2f447" opacity="1.000" fill="none" stroke="#000000" stroke-width="1.000" stroke-opacity="1.000" stroke-linecap="round" stroke-linejoin="round" d="M -8035.844 7922.710 Q -8035.703 7922.378 -8035.321 7920.535 Q -8034.444 7920.642 -8040.888 7934.508 Q -8040.885 7934.478 -8040.815 7934.271 Q -8040.745 7934.066 -8040.608 7933.685 "></path>
    <path id="STROKE_54ba9737-cd79-46b8-bc63-c3c49f45a7ff" opacity="1.000" fill="none" stroke="#000000" stroke-width="1.000" stroke-opacity="1.000" stroke-linecap="round" stroke-linejoin="round" d="M -8035.068 7922.779 Q -8035.068 7922.779 -8035.211 7923.396 Q -8035.354 7924.013 -8035.217 7925.356 Q -8035.079 7926.699 -8034.037 7928.576 Q -8032.995 7930.454 -8032.790 7931.555 Q -8032.584 7932.657 -8032.641 7932.945 "></path>
    <path id="STROKE_dd77c8eb-4410-4043-9408-976d796cb6d8" opacity="1.000" fill="none" stroke="#000000" stroke-width="1.000" stroke-opacity="1.000" stroke-linecap="round" stroke-linejoin="round" d="M -8037.773 7925.422 Q -8037.767 7925.354 -8037.727 7924.902 Q -8036.885 7925.414 -8037.488 7930.456 Q -8038.090 7935.499 -8039.185 7953.614 Q -8040.279 7971.729 -8040.763 7981.367 Q -8041.247 7991.004 -8041.384 7995.640 Q -8041.521 8000.275 -8041.197 8007.769 Q -8040.874 8015.263 -8040.502 8021.609 Q -8040.130 8027.955 -8040.224 8032.151 Q -8040.317 8036.348 -8040.630 8043.702 Q -8040.942 8051.057 -8040.543 8055.457 Q -8040.144 8059.856 -8039.714 8066.239 Q -8039.284 8072.622 -8039.395 8076.883 Q -8039.505 8081.144 -8039.769 8084.290 Q -8040.032 8087.436 -8039.951 8087.674 "></path>
    <path id="STROKE_337bcf74-c8df-4e1b-b02a-5723030a7b4e" opacity="1.000" fill="none" stroke="#000000" stroke-width="1.000" stroke-opacity="1.000" stroke-linecap="round" stroke-linejoin="round" d="M -8108.154 8007.175 Q -8107.983 8007.190 -8108.445 8007.149 Q -8108.118 8007.333 -8108.131 8007.314 Q -8108.145 8007.295 -8108.120 8007.292 Q -8108.095 8007.288 -8108.071 8007.326 Q -8108.048 8007.364 -8107.270 8007.442 Q -8106.490 8007.520 -8105.070 8007.226 Q -8103.650 8006.932 -8102.259 8006.818 Q -8100.867 8006.705 -8098.543 8006.991 Q -8096.219 8007.278 -8094.433 8007.573 Q -8092.646 8007.868 -8091.181 8007.854 Q -8089.716 8007.841 -8088.625 8007.769 Q -8087.534 8007.696 -8086.191 8007.531 Q -8084.848 8007.365 -8082.176 8007.246 Q -8079.503 8007.126 -8076.934 8007.264 Q -8074.364 8007.401 -8072.710 8007.466 Q -8071.057 8007.531 -8069.811 8007.498 Q -8068.565 8007.464 -8067.868 8007.436 Q -8067.170 8007.407 -8064.757 8007.185 Q -8062.343 8006.963 -8059.082 8007.069 Q -8055.821 8007.175 -8054.120 8007.370 Q -8052.418 8007.565 -8050.064 8007.749 Q -8047.710 8007.932 -8045.287 8007.870 Q -8042.864 8007.808 -8041.393 8007.708 Q -8039.921 8007.608 -8037.286 8007.714 Q -8034.651 8007.819 -8032.996 8008.050 Q -8031.340 8008.281 -8028.340 8008.424 Q -8025.340 8008.568 -8023.775 8008.575 Q -8022.210 8008.582 -8021.432 8008.565 Q -8020.653 8008.548 -8017.606 8008.693 Q -8014.560 8008.838 -8011.877 8009.121 Q -8009.194 8009.404 -8007.340 8009.474 Q -8005.486 8009.544 -8002.815 8009.375 Q -8000.145 8009.207 -7997.981 8009.237 Q -7995.818 8009.268 -7994.339 8009.381 Q -7992.860 8009.494 -7991.456 8009.635 Q -7990.053 8009.776 -7988.055 8009.969 Q -7986.057 8010.162 -7983.971 8010.053 Q -7981.884 8009.944 -7979.969 8009.855 Q -7978.053 8009.768 -7976.490 8009.855 Q -7974.928 8009.943 -7973.832 8010.141 Q -7972.736 8010.338 -7969.660 8010.283 Q -7966.583 8010.229 -7964.905 8010.141 Q -7963.227 8010.053 -7962.323 8010.065 Q -7961.419 8010.077 -7960.973 8010.070 Q -7960.527 8010.063 -7959.892 8009.891 Q -7959.256 8009.719 -7958.913 8009.466 Q -7958.569 8009.212 -7958.465 8009.092 "></path>
    <path id="STROKE_de276e71-a457-4562-9cb8-315ad9685d7d" opacity="1.000" fill="none" stroke="#000000" stroke-width="1.000" stroke-opacity="1.000" stroke-linecap="round" stroke-linejoin="round" d="M -7961.769 8007.936 Q -7961.888 8007.992 -7962.275 8007.764 Q -7962.478 8007.795 -7961.284 8007.847 Q -7960.090 8007.898 -7958.592 8008.342 Q -7957.094 8008.786 -7955.832 8009.885 Q -7955.852 8010.009 -7958.549 8010.892 Q -7961.246 8011.774 -7961.315 8011.788 "></path>
    <path id="STROKE_ee663d76-3b8c-47be-aa53-13d405cb83dc" opacity="1.000" fill="none" stroke="#000000" stroke-width="1.000" stroke-opacity="1.000" stroke-linecap="round" stroke-linejoin="round" d="M -8108.648 8007.025 Q -8108.723 8007.378 -8108.706 8007.271 Q -8108.707 8007.280 -8108.708 8007.297 Q -8108.712 8007.233 -8106.732 8006.061 Q -8104.752 8004.889 -8104.668 8004.804 "></path>
    <path id="STROKE_3c7eb2de-dcd5-4835-be6b-42336d6ac6f4" opacity="1.000" fill="none" stroke="#000000" stroke-width="1.000" stroke-opacity="1.000" stroke-linecap="round" stroke-linejoin="round" d="M -8108.560 8007.478 Q -8108.561 8007.488 -8108.583 8007.542 Q -8108.166 8007.681 -8108.200 8007.650 Q -8108.075 8007.684 -8107.793 8007.776 Q -8107.511 8007.868 -8107.322 8007.934 Q -8107.134 8008.000 -8106.965 8008.065 Q -8106.796 8008.130 -8106.559 8008.223 Q -8106.321 8008.315 -8106.176 8008.363 Q -8106.030 8008.410 -8105.133 8008.871 Q -8104.236 8009.332 -8104.169 8009.403 "></path>
    <path id="STROKE_c3c262b2-e8ca-4efd-bdac-bb1052c2386a" opacity="1.000" fill="none" stroke="#000000" stroke-width="1.000" stroke-opacity="1.000" stroke-linecap="round" stroke-linejoin="round" d="M -7947.272 8011.123 Q -7947.281 8011.122 -7947.340 8011.088 Q -7947.353 8010.865 -7943.169 8010.161 Q -7943.162 8010.210 -7943.183 8010.278 Q -7943.204 8010.347 -7943.241 8010.436 "></path>
    <path id="STROKE_80c82966-f4f5-459f-9455-6d888b37d1b5" opacity="1.000" fill="none" stroke="#000000" stroke-width="1.000" stroke-opacity="1.000" stroke-linecap="round" stroke-linejoin="round" d="M -7944.831 8010.910 Q -7944.810 8010.894 -7944.757 8010.731 Q -7944.663 8010.551 -7944.981 8012.787 Q -7945.300 8015.022 -7945.292 8015.032 "></path>
    <path id="STROKE_6a26c612-053e-4130-b737-8fd6a9d44e58" opacity="1.000" fill="none" stroke="#000000" stroke-width="1.000" stroke-opacity="1.000" stroke-linecap="round" stroke-linejoin="round" d="M -7944.727 8013.943 Q -7944.587 8013.708 -7944.535 8013.765 Q -7944.280 8013.599 -7943.652 8013.516 Q -7943.024 8013.432 -7942.985 8013.426 "></path>
    <path id="STROKE_74fd9f71-1124-413c-b776-b6b59ac258ea" opacity="1.000" fill="none" stroke="#000000" stroke-width="1.000" stroke-opacity="1.000" stroke-linecap="round" stroke-linejoin="round" d="M -7946.766 8013.406 Q -7946.991 8013.146 -7947.300 8014.831 Q -7947.609 8016.516 -7947.705 8016.628 "></path>
    <path id="STROKE_c615c39f-a415-4036-bf62-57d545304efa" opacity="1.000" fill="none" stroke="#000000" stroke-width="1.000" stroke-opacity="1.000" stroke-linecap="round" stroke-linejoin="round" d="M -7948.750 8017.300 Q -7948.761 8017.299 -7948.805 8017.269 Q -7948.832 8016.965 -7947.389 8016.471 Q -7945.945 8015.977 -7944.132 8015.539 Q -7942.319 8015.101 -7940.980 8015.207 Q -7939.641 8015.313 -7939.562 8015.358 "></path>
    <path id="STROKE_07ad2dfd-0777-4c92-b4b5-7fa3ae0a64fe" opacity="1.000" fill="none" stroke="#000000" stroke-width="1.000" stroke-opacity="1.000" stroke-linecap="round" stroke-linejoin="round" d="M -8121.356 8002.213 Q -8121.342 8002.387 -8121.375 8001.931 L -8121.383 8001.930 Q -8121.334 8001.772 -8121.537 8002.734 Q -8121.740 8003.696 -8122.057 8004.338 Q -8122.374 8004.980 -8122.473 8005.138 "></path>
    <path id="STROKE_de8df7a9-a093-4f8d-881b-fa237af260bd" opacity="1.000" fill="none" stroke="#000000" stroke-width="1.000" stroke-opacity="1.000" stroke-linecap="round" stroke-linejoin="round" d="M -8121.275 8003.808 Q -8121.267 8003.532 -8121.272 8003.575 Q -8121.347 8003.429 -8121.204 8003.244 Q -8121.061 8003.058 -8120.777 8002.903 Q -8120.494 8002.749 -8120.296 8002.709 Q -8120.098 8002.670 -8119.849 8002.775 Q -8119.600 8002.881 -8119.659 8003.279 Q -8119.717 8003.677 -8119.823 8004.078 Q -8119.928 8004.479 -8120.443 8005.049 Q -8120.959 8005.618 -8121.089 8005.728 "></path>
    <path id="STROKE_ae74078d-d1f6-4556-9706-3457c866653d" opacity="1.000" fill="none" stroke="#000000" stroke-width="1.000" stroke-opacity="1.000" stroke-linecap="round" stroke-linejoin="round" d="M -8122.229 8005.367 Q -8122.229 8005.356 -8122.226 8005.328 Q -8122.257 8005.634 -8122.378 8007.430 Q -8122.500 8009.225 -8122.467 8009.285 "></path>
    <path id="STROKE_cb7fba0c-abd6-4ee8-9ea0-7b8285d220e8" opacity="1.000" fill="none" stroke="#000000" stroke-width="1.000" stroke-opacity="1.000" stroke-linecap="round" stroke-linejoin="round" d="M -8122.305 8007.264 Q -8122.323 8007.229 -8122.348 8007.238 Q -8122.372 8007.246 -8122.500 8007.109 Q -8122.627 8006.972 -8122.640 8006.912 Q -8122.652 8006.851 -8122.649 8006.896 Q -8122.647 8006.941 -8122.476 8006.690 Q -8122.305 8006.439 -8121.850 8006.155 Q -8121.395 8005.871 -8120.996 8005.801 Q -8120.598 8005.730 -8120.278 8005.720 Q -8119.958 8005.710 -8119.720 8006.150 Q -8119.482 8006.591 -8119.451 8006.860 Q -8119.419 8007.129 -8119.426 8007.418 Q -8119.433 8007.708 -8119.431 8008.142 Q -8119.430 8008.575 -8119.622 8008.818 Q -8119.814 8009.062 -8119.901 8009.118 "></path>
    <path id="STROKE_ceff7c55-d514-45c8-a831-581746793fad" opacity="1.000" fill="none" stroke="#000000" stroke-width="1.000" stroke-opacity="1.000" stroke-linecap="round" stroke-linejoin="round" d="M -8120.643 8007.636 Q -8120.967 8007.980 -8122.479 8012.976 Q -8122.494 8012.911 -8122.509 8012.846 "></path>
    <path id="STROKE_bdc11cda-a99b-401b-a54e-503f847b92e8" opacity="1.000" fill="none" stroke="#000000" stroke-width="1.000" stroke-opacity="1.000" stroke-linecap="round" stroke-linejoin="round" d="M -8121.582 8010.014 Q -8121.553 8009.979 -8121.397 8009.912 Q -8121.200 8010.354 -8121.271 8010.281 Q -8121.341 8010.208 -8121.177 8010.464 Q -8121.014 8010.720 -8120.643 8011.291 Q -8120.271 8011.861 -8118.206 8011.960 Q -8116.141 8012.060 -8115.819 8012.005 "></path>
    <path id="STROKE_6a53eb6f-a9bb-440f-ba59-c1387d81b0ac" opacity="1.000" fill="none" stroke="#000000" stroke-width="1.000" stroke-opacity="1.000" stroke-linecap="round" stroke-linejoin="round" d="M -8042.643 8084.778 Q -8042.385 8084.715 -8042.463 8084.730 Q -8042.467 8084.643 -8042.003 8084.705 Q -8041.539 8084.767 -8041.021 8086.133 Q -8040.505 8087.500 -8039.877 8088.854 Q -8039.490 8088.883 -8039.618 8088.868 Q -8039.380 8088.923 -8039.179 8087.699 Q -8038.977 8086.476 -8038.850 8085.561 Q -8038.722 8084.645 -8038.512 8084.120 Q -8038.302 8083.596 -8038.139 8083.332 Q -8037.975 8083.068 -8037.941 8083.017 "></path>
    <path id="STROKE_788868f2-6534-4835-8773-005297e5680b" opacity="1.000" fill="none" stroke="#000000" stroke-width="1.000" stroke-opacity="1.000" stroke-linecap="round" stroke-linejoin="round" d="M -8030.527 7908.771 Q -8030.545 7908.946 -8030.482 7908.458 Q -8030.658 7908.082 -8030.268 7910.961 Q -8030.222 7910.965 -8030.184 7910.969 "></path>
    <path id="STROKE_78d249f3-a166-48f8-b7c6-da6bd624696d" opacity="1.000" fill="none" stroke="#000000" stroke-width="1.000" stroke-opacity="1.000" stroke-linecap="round" stroke-linejoin="round" d="M -8031.365 7907.707 Q -8031.420 7907.735 -8031.516 7907.496 Q -8031.188 7907.159 -8029.525 7906.856 Q -8027.864 7906.553 -8027.821 7906.567 "></path>
    <path id="STROKE_9cf9bda6-2901-441a-b0a0-ec8aa0c60b49" opacity="1.000" fill="none" stroke="#000000" stroke-width="1.000" stroke-opacity="1.000" stroke-linecap="round" stroke-linejoin="round" d="M -8030.684 7909.016 Q -8030.811 7909.042 -8030.810 7909.277 Q -8030.657 7909.314 -8030.562 7909.325 Q -8030.467 7909.336 -8030.256 7909.227 Q -8030.045 7909.118 -8029.928 7909.073 Q -8029.811 7909.028 -8029.626 7909.066 Q -8029.441 7909.104 -8029.476 7909.076 Q -8029.510 7909.048 -8029.439 7909.285 Q -8029.369 7909.521 -8029.377 7909.675 Q -8029.386 7909.828 -8029.399 7909.938 Q -8029.413 7910.047 -8029.420 7910.131 Q -8029.428 7910.214 -8029.409 7910.601 Q -8029.391 7910.986 -8030.016 7911.393 Q -8030.519 7911.281 -8028.387 7910.417 Q -8028.402 7910.490 -8028.417 7910.563 "></path>
    <path id="STROKE_da65d585-c760-4982-afeb-75d86ad9b94d" opacity="1.000" fill="none" stroke="#000000" stroke-width="1.000" stroke-opacity="1.000" stroke-linecap="round" stroke-linejoin="round" d="M -8030.961 7913.379 Q -8031.355 7913.273 -8031.031 7912.966 Q -8030.707 7912.659 -8030.544 7912.577 Q -8030.380 7912.494 -8030.203 7912.395 Q -8030.026 7912.294 -8029.499 7912.063 Q -8028.972 7911.833 -8028.625 7911.572 Q -8028.279 7911.312 -8028.194 7911.216 "></path>
    <path id="STROKE_06817e12-16ee-49fd-809d-97780c021a97" opacity="1.000" fill="none" stroke="#000000" stroke-width="1.000" stroke-opacity="1.000" stroke-linecap="round" stroke-linejoin="round" d="M -8028.924 7906.636 Q -8028.899 7906.641 -8028.817 7905.639 Q -8028.840 7905.619 -8028.811 7906.528 Q -8028.782 7907.437 -8028.647 7908.582 Q -8028.514 7909.727 -8028.209 7910.638 Q -8027.904 7911.549 -8027.714 7911.984 Q -8027.523 7912.419 -8027.364 7912.518 Q -8027.206 7912.617 -8027.025 7912.601 Q -8026.845 7912.584 -8026.766 7912.495 Q -8026.686 7912.405 -8026.646 7912.301 Q -8026.608 7912.196 -8026.513 7911.922 Q -8026.417 7911.647 -8026.360 7911.494 "></path>
    <path id="STROKE_479e270e-4ace-4fc1-a2f9-4fbbe8c00fe7" opacity="1.000" fill="none" stroke="#000000" stroke-width="1.000" stroke-opacity="1.000" stroke-linecap="round" stroke-linejoin="round" d="M -8026.612 7908.931 Q -8026.691 7908.908 -8026.764 7908.875 Q -8026.836 7908.842 -8027.404 7910.021 Q -8027.972 7911.202 -8028.412 7911.977 Q -8028.851 7912.752 -8029.168 7913.222 Q -8029.176 7913.221 -8029.188 7913.206 Q -8029.200 7913.190 -8029.224 7913.160 "></path>
    <path id="STROKE_1e92e3bc-299d-4117-9eaa-dfbf88ca2c77" opacity="1.000" fill="none" stroke="#000000" stroke-width="1.000" stroke-opacity="1.000" stroke-linecap="round" stroke-linejoin="round" d="M -8025.580 7903.404 Q -8025.564 7903.157 -8025.882 7903.136 Q -8025.958 7903.266 -8026.052 7903.715 Q -8026.146 7904.164 -8025.947 7904.528 Q -8025.748 7904.893 -8025.645 7904.985 "></path>
    <path id="STROKE_52afedd8-3ddf-4ac1-ab80-a636faa174c8" opacity="1.000" fill="none" stroke="#000000" stroke-width="1.000" stroke-opacity="1.000" stroke-linecap="round" stroke-linejoin="round" d="M -8036.104 8093.969 Q -8036.112 8093.968 -8036.121 8093.967 Q -8035.781 8094.018 -8035.013 8094.065 Q -8034.245 8094.112 -8033.689 8093.858 Q -8033.133 8093.604 -8033.081 8093.543 "></path>
    <path id="STROKE_c5f883ac-9d87-4b11-bf28-8fce3a9bbd82" opacity="1.000" fill="none" stroke="#000000" stroke-width="1.000" stroke-opacity="1.000" stroke-linecap="round" stroke-linejoin="round" d="M -8035.526 8091.497 Q -8035.498 8091.500 -8035.550 8091.503 Q -8035.601 8091.506 -8035.814 8091.593 Q -8036.027 8091.681 -8036.022 8091.715 Q -8036.018 8091.749 -8036.082 8091.886 Q -8036.146 8092.022 -8036.193 8092.074 Q -8036.240 8092.126 -8037.542 8097.403 Q -8037.676 8097.406 -8037.382 8097.438 Q -8037.088 8097.471 -8036.644 8097.206 Q -8036.200 8096.941 -8035.778 8096.627 Q -8035.357 8096.313 -8035.004 8096.140 Q -8034.651 8095.967 -8034.455 8095.940 Q -8034.259 8095.914 -8034.098 8095.957 Q -8033.936 8096.000 -8033.843 8096.129 Q -8033.751 8096.259 -8033.712 8096.318 Q -8033.672 8096.378 -8033.554 8096.812 Q -8033.435 8097.246 -8033.424 8097.924 Q -8033.414 8098.602 -8033.641 8099.081 Q -8033.867 8099.561 -8034.313 8099.813 Q -8034.760 8100.066 -8035.380 8100.153 Q -8036.000 8100.240 -8036.125 8100.258 "></path>
    <path id="STROKE_399ca687-ad85-4db8-83dd-856a34a24f95" opacity="1.000" fill="none" stroke="#000000" stroke-width="1.000" stroke-opacity="1.000" stroke-linecap="round" stroke-linejoin="round" d="M -8039.585 8099.404 Q -8039.661 8099.396 -8040.169 8099.242 Q -8039.879 8099.282 -8038.674 8098.976 Q -8037.470 8098.669 -8037.279 8098.603 "></path>
    <path id="STROKE_40f97017-9d0d-4a0b-90c6-e51434fac0ca" opacity="1.000" fill="none" stroke="#000000" stroke-width="1.000" stroke-opacity="1.000" stroke-linecap="round" stroke-linejoin="round" d="M -8039.146 8099.276 Q -8039.146 8099.285 -8039.147 8099.294 Q -8039.156 8099.293 -8039.182 8099.291 Q -8039.263 8099.497 -8035.279 8098.333 Q -8035.281 8098.353 -8035.310 8098.415 Q -8035.338 8098.477 -8035.390 8098.529 "></path>
    <path id="STROKE_0bf73331-5dff-472e-843a-4ec4f4c6a25a" opacity="1.000" fill="none" stroke="#000000" stroke-width="1.000" stroke-opacity="1.000" stroke-linecap="round" stroke-linejoin="round" d="M -8008.875 7953.982 Q -8008.846 7953.946 -8008.740 7953.723 Q -8008.784 7953.786 -8007.850 7953.496 Q -8006.915 7953.206 -8005.687 7952.907 Q -8004.458 7952.609 -8004.401 7952.599 "></path>
    <path id="STROKE_8b8e0bb1-4673-4e14-9854-1b28fbc1e0d3" opacity="1.000" fill="none" stroke="#000000" stroke-width="1.000" stroke-opacity="1.000" stroke-linecap="round" stroke-linejoin="round" d="M -8006.426 7953.464 Q -8006.438 7953.463 -8006.643 7953.483 Q -8006.606 7953.070 -8006.794 7955.257 Q -8006.983 7957.444 -8006.979 7957.554 "></path>
    <path id="STROKE_efc07974-8a04-486a-ae95-18ea1cdb16e6" opacity="1.000" fill="none" stroke="#000000" stroke-width="1.000" stroke-opacity="1.000" stroke-linecap="round" stroke-linejoin="round" d="M -8005.950 7956.438 Q -8005.946 7956.370 -8005.948 7956.474 Q -8005.950 7956.577 -8006.023 7955.857 Q -8005.621 7955.689 -8005.666 7955.721 Q -8005.594 7955.688 -8005.553 7955.653 "></path>
    <path id="STROKE_3b9c8ac2-6642-48e4-9c60-837cfc6916e6" opacity="1.000" fill="none" stroke="#000000" stroke-width="1.000" stroke-opacity="1.000" stroke-linecap="round" stroke-linejoin="round" d="M -8007.639 7955.190 Q -8007.669 7955.187 -8008.054 7955.208 Q -8007.992 7955.523 -8008.388 7956.925 Q -8008.784 7958.326 -8008.897 7958.480 "></path>
    <path id="STROKE_7d5a6e5e-4fe4-47cf-8ed8-983e2b007a93" opacity="1.000" fill="none" stroke="#000000" stroke-width="1.000" stroke-opacity="1.000" stroke-linecap="round" stroke-linejoin="round" d="M -8009.776 7959.746 Q -8009.759 7959.747 -8009.742 7959.749 Q -8009.685 7959.205 -8009.697 7959.381 Q -8009.626 7959.066 -8006.194 7958.140 Q -8002.763 7957.213 -8002.565 7957.121 "></path>
    <path id="STROKE_3ef7d9e6-823d-4d91-b9dc-eb8a9c69f1c7" opacity="1.000" fill="none" stroke="#000000" stroke-width="1.000" stroke-opacity="1.000" stroke-linecap="round" stroke-linejoin="round" d="M -8006.139 7956.725 Q -8006.217 7956.715 -8006.552 7956.714 Q -8006.517 7956.642 -8006.030 7956.236 Q -8005.544 7955.831 -8004.969 7955.697 Q -8004.395 7955.563 -8004.285 7955.547 "></path>
    <path id="STROKE_78629273-2f74-4d4a-abb3-ff4c5f8f836f" opacity="1.000" fill="none" stroke="#000000" stroke-width="1.000" stroke-opacity="1.000" stroke-linecap="round" stroke-linejoin="round" d="M -7997.592 7957.868 Q -7997.618 7957.865 -7997.701 7957.832 Q -7997.727 7957.839 -7997.011 7958.475 Q -7996.294 7959.110 -7996.175 7959.176 "></path>
    <path id="STROKE_bea6bb34-e407-4b53-b656-d6d2c08aa7d2" opacity="1.000" fill="none" stroke="#000000" stroke-width="1.000" stroke-opacity="1.000" stroke-linecap="round" stroke-linejoin="round" d="M -7993.084 7954.266 Q -7992.888 7953.758 -7991.023 7953.467 Q -7989.159 7953.176 -7989.076 7953.170 "></path>
    <path id="STROKE_26dde1ce-5b61-4107-9b7d-87d5c0c1cdab" opacity="1.000" fill="none" stroke="#000000" stroke-width="1.000" stroke-opacity="1.000" stroke-linecap="round" stroke-linejoin="round" d="M -7992.419 7955.397 Q -7992.347 7955.374 -7992.495 7955.576 Q -7992.644 7955.778 -7992.879 7956.079 Q -7993.114 7956.380 -7993.097 7956.404 Q -7993.079 7956.428 -7993.084 7956.582 Q -7993.089 7956.735 -7993.097 7956.815 "></path>
    <path id="STROKE_17a7988b-0a3f-47b3-8a4f-ce29a256d3c6" opacity="1.000" fill="none" stroke="#000000" stroke-width="1.000" stroke-opacity="1.000" stroke-linecap="round" stroke-linejoin="round" d="M -7991.940 7955.821 Q -7991.729 7955.525 -7991.750 7955.579 Q -7991.438 7955.028 -7990.910 7954.898 Q -7990.905 7954.733 -7990.869 7955.361 Q -7990.833 7955.989 -7992.418 7956.934 Q -7992.417 7956.867 -7991.895 7956.524 Q -7991.372 7956.182 -7990.223 7956.222 Q -7990.154 7956.419 -7990.110 7956.559 "></path>
    <path id="STROKE_b87f5c37-9084-41cf-885e-8ca2ef43828a" opacity="1.000" fill="none" stroke="#000000" stroke-width="1.000" stroke-opacity="1.000" stroke-linecap="round" stroke-linejoin="round" d="M -7992.283 7958.806 Q -7992.292 7958.920 -7993.089 7958.953 Q -7993.308 7959.136 -7991.785 7958.074 Q -7990.263 7957.013 -7990.140 7956.885 "></path>
    <path id="STROKE_7963194a-d2c9-4b97-a7be-f5eefde14521" opacity="1.000" fill="none" stroke="#000000" stroke-width="1.000" stroke-opacity="1.000" stroke-linecap="round" stroke-linejoin="round" d="M -7989.714 7950.562 L -7989.701 7950.563 Q -7989.702 7950.896 -7989.746 7952.254 Q -7989.790 7953.612 -7989.518 7954.584 Q -7989.246 7955.556 -7988.949 7956.066 Q -7988.653 7956.576 -7988.299 7956.829 Q -7987.945 7957.081 -7987.706 7957.015 Q -7987.466 7956.949 -7987.347 7956.863 "></path>
    <path id="STROKE_38d76b4a-a932-4eb2-9d3f-3d6377a6816f" opacity="1.000" fill="none" stroke="#000000" stroke-width="1.000" stroke-opacity="1.000" stroke-linecap="round" stroke-linejoin="round" d="M -7986.376 7954.864 Q -7986.674 7954.746 -7989.174 7958.618 Q -7989.183 7958.575 -7989.192 7958.532 "></path>
    <path id="STROKE_98c1ef80-9d32-4272-b805-31ea5c3258c3" opacity="1.000" fill="none" stroke="#000000" stroke-width="1.000" stroke-opacity="1.000" stroke-linecap="round" stroke-linejoin="round" d="M -7987.383 7950.796 Q -7987.528 7950.783 -7987.682 7950.770 Q -7987.969 7950.687 -7987.306 7950.816 Q -7986.643 7950.946 -7986.500 7951.043 "></path>
    <path id="STROKE_5c305b90-a881-4bfd-a914-fcc91e40a589" opacity="1.000" fill="none" stroke="#000000" stroke-width="1.000" stroke-opacity="1.000" stroke-linecap="round" stroke-linejoin="round" d="M -7988.308 7955.957 Q -7988.463 7956.351 -7988.190 7956.835 Q -7987.917 7957.319 -7987.625 7957.475 Q -7987.333 7957.630 -7987.117 7957.678 Q -7986.901 7957.726 -7986.667 7957.646 Q -7986.433 7957.567 -7986.283 7957.346 Q -7986.133 7957.124 -7986.070 7956.895 Q -7986.007 7956.666 -7985.959 7956.573 "></path>
    <path id="STROKE_52262d00-e3f3-4d89-b66d-d2ffd22b8d5b" opacity="1.000" fill="none" stroke="#000000" stroke-width="1.000" stroke-opacity="1.000" stroke-linecap="round" stroke-linejoin="round" d="M -8016.467 8045.634 Q -8016.498 8045.715 -8015.343 8045.267 Q -8014.188 8044.819 -8013.436 8044.997 Q -8012.684 8045.174 -8012.607 8045.236 "></path>
    <path id="STROKE_8506cdf7-92c8-44bb-b645-aa37d0304b8d" opacity="1.000" fill="none" stroke="#000000" stroke-width="1.000" stroke-opacity="1.000" stroke-linecap="round" stroke-linejoin="round" d="M -8012.844 8045.189 Q -8012.713 8045.167 -8013.612 8045.201 Q -8013.780 8045.598 -8013.959 8047.294 Q -8014.138 8048.990 -8013.897 8050.172 Q -8013.656 8051.354 -8013.567 8051.459 "></path>
    <path id="STROKE_d3290642-12a4-4b1e-a1a0-e726babd2ad1" opacity="1.000" fill="none" stroke="#000000" stroke-width="1.000" stroke-opacity="1.000" stroke-linecap="round" stroke-linejoin="round" d="M -8013.661 8049.423 Q -8013.635 8049.426 -8013.960 8049.396 Q -8013.940 8049.290 -8013.804 8049.184 Q -8013.667 8049.078 -8013.644 8049.083 Q -8013.621 8049.088 -8013.431 8048.938 Q -8013.242 8048.787 -8012.619 8048.733 Q -8011.997 8048.681 -8011.962 8048.723 "></path>
    <path id="STROKE_85634944-d4b1-47a6-bb9c-d5431b59cb58" opacity="1.000" fill="none" stroke="#000000" stroke-width="1.000" stroke-opacity="1.000" stroke-linecap="round" stroke-linejoin="round" d="M -8014.585 8047.804 Q -8015.152 8047.711 -8015.208 8049.805 Q -8015.264 8051.899 -8015.270 8052.102 "></path>
    <path id="STROKE_2e88d2fc-91e9-40c5-b56f-c036913e1573" opacity="1.000" fill="none" stroke="#000000" stroke-width="1.000" stroke-opacity="1.000" stroke-linecap="round" stroke-linejoin="round" d="M -8016.388 8053.346 L -8016.390 8053.361 Q -8016.572 8053.379 -8016.727 8053.373 Q -8016.804 8053.304 -8014.776 8052.386 Q -8012.748 8051.469 -8010.599 8051.145 Q -8008.449 8050.821 -8008.250 8050.758 "></path>
    <path id="STROKE_afd677cc-51bd-4992-8307-5349ab7f3e29" opacity="1.000" fill="none" stroke="#000000" stroke-width="1.000" stroke-opacity="1.000" stroke-linecap="round" stroke-linejoin="round" d="M -8004.703 8050.880 Q -8004.626 8051.222 -8004.636 8051.145 Q -8004.837 8051.081 -8004.348 8051.758 Q -8003.859 8052.435 -8003.732 8052.556 "></path>
    <path id="STROKE_89695b2f-2ceb-4a52-bc70-3408bcfecdd0" opacity="1.000" fill="none" stroke="#000000" stroke-width="1.000" stroke-opacity="1.000" stroke-linecap="round" stroke-linejoin="round" d="M -7999.304 8044.917 Q -7999.303 8044.904 -7999.290 8044.750 Q -7998.971 8044.767 -7997.786 8044.633 Q -7996.601 8044.499 -7996.470 8044.427 "></path>
    <path id="STROKE_dbca8ad6-522f-464f-b6d7-003c00662e30" opacity="1.000" fill="none" stroke="#000000" stroke-width="1.000" stroke-opacity="1.000" stroke-linecap="round" stroke-linejoin="round" d="M -7999.167 8042.514 Q -7999.166 8042.488 -7999.160 8042.431 Q -7999.035 8042.491 -8000.463 8048.733 Q -8000.817 8049.079 -7999.737 8048.550 Q -7998.657 8048.021 -7998.079 8047.619 Q -7997.500 8047.218 -7997.138 8047.221 Q -7996.776 8047.225 -7996.579 8047.293 Q -7996.382 8047.361 -7996.238 8047.821 Q -7996.094 8048.281 -7996.116 8048.770 Q -7996.139 8049.258 -7996.144 8049.536 Q -7996.149 8049.814 -7996.214 8050.561 Q -7996.278 8051.308 -7996.528 8051.844 Q -7996.778 8052.381 -7996.928 8052.565 Q -7997.078 8052.749 -7997.537 8052.801 Q -7997.996 8052.854 -7998.429 8052.853 Q -7998.861 8052.851 -7999.110 8052.884 "></path>
    <path id="STROKE_4fa7ceb0-abdb-4720-a0b5-c3715aec7c6c" opacity="1.000" fill="none" stroke="#000000" stroke-width="1.000" stroke-opacity="1.000" stroke-linecap="round" stroke-linejoin="round" d="M -8000.536 8051.388 Q -8000.417 8051.259 -8000.398 8051.220 Q -8000.380 8051.181 -8000.366 8051.161 Q -8000.352 8051.141 -8000.116 8051.007 Q -7999.880 8050.873 -7999.604 8050.771 Q -7999.330 8050.668 -7999.076 8050.568 Q -7998.823 8050.469 -7997.729 8050.074 Q -7996.636 8049.679 -7996.322 8049.542 "></path>
    <path id="STROKE_eb87d177-64a9-40bf-9366-309cc6523774" opacity="1.000" fill="none" stroke="#000000" stroke-width="1.000" stroke-opacity="1.000" stroke-linecap="round" stroke-linejoin="round" d="M -8093.236 8037.694 Q -8093.257 8037.569 -8093.595 8037.472 Q -8093.610 8037.441 -8094.254 8038.995 Q -8094.898 8040.548 -8095.041 8040.742 "></path>
    <path id="STROKE_3961bd34-2ec7-4526-ab58-b3c61dbb2818" opacity="1.000" fill="none" stroke="#000000" stroke-width="1.000" stroke-opacity="1.000" stroke-linecap="round" stroke-linejoin="round" d="M -8094.380 8040.388 Q -8094.513 8040.371 -8094.113 8039.863 Q -8093.712 8039.356 -8093.059 8039.088 Q -8092.405 8038.819 -8090.979 8038.799 Q -8090.854 8038.801 -8091.038 8039.267 Q -8091.222 8039.731 -8091.607 8040.127 Q -8091.993 8040.523 -8092.214 8040.723 "></path>
    <path id="STROKE_872356b2-1fe8-4e3f-82aa-8229d2e23ee3" opacity="1.000" fill="none" stroke="#000000" stroke-width="1.000" stroke-opacity="1.000" stroke-linecap="round" stroke-linejoin="round" d="M -8094.757 8041.232 Q -8094.795 8041.560 -8094.822 8041.530 Q -8095.122 8041.875 -8095.050 8041.811 Q -8095.274 8041.809 -8095.321 8043.037 Q -8095.368 8044.265 -8095.338 8044.364 "></path>
    <path id="STROKE_442aa410-8cdf-415e-b8be-f583f27aebc3" opacity="1.000" fill="none" stroke="#000000" stroke-width="1.000" stroke-opacity="1.000" stroke-linecap="round" stroke-linejoin="round" d="M -8094.698 8042.116 Q -8094.699 8042.129 -8094.842 8042.188 Q -8094.612 8042.243 -8093.764 8041.707 Q -8092.916 8041.171 -8092.386 8040.961 Q -8091.856 8040.752 -8091.352 8040.907 Q -8090.848 8041.062 -8090.688 8041.861 Q -8090.529 8042.661 -8090.557 8043.239 Q -8090.584 8043.817 -8090.710 8043.985 Q -8090.836 8044.152 -8091.011 8044.237 Q -8091.186 8044.321 -8091.320 8044.419 "></path>
    <path id="STROKE_a2d4d61e-7f28-4485-b1ba-191e44d0fad7" opacity="1.000" fill="none" stroke="#000000" stroke-width="1.000" stroke-opacity="1.000" stroke-linecap="round" stroke-linejoin="round" d="M -8092.139 8042.590 Q -8092.453 8042.566 -8092.359 8042.567 Q -8092.265 8042.567 -8092.317 8042.562 Q -8092.369 8042.556 -8092.365 8042.552 Q -8092.362 8042.547 -8092.604 8042.557 Q -8092.846 8042.567 -8093.142 8042.803 Q -8093.437 8043.039 -8093.423 8043.048 Q -8093.410 8043.057 -8093.695 8043.832 Q -8093.980 8044.607 -8094.593 8046.597 Q -8095.206 8048.586 -8095.283 8048.676 "></path>
    <path id="STROKE_2a6afbb4-bd04-402d-8773-80dfd38a023d" opacity="1.000" fill="none" stroke="#000000" stroke-width="1.000" stroke-opacity="1.000" stroke-linecap="round" stroke-linejoin="round" d="M -8092.947 8045.178 Q -8092.840 8045.293 -8092.995 8045.664 Q -8093.150 8046.035 -8093.094 8046.391 Q -8093.038 8046.747 -8092.859 8046.857 Q -8092.681 8046.967 -8090.977 8047.129 Q -8089.271 8047.291 -8089.077 8047.279 "></path>
    <path id="STROKE_84e70fe2-33d2-4a1b-be7e-4bc6c52c1d18" opacity="1.000" fill="none" stroke="#000000" stroke-width="1.000" stroke-opacity="1.000" stroke-linecap="round" stroke-linejoin="round" d="M -8085.781 8045.875 Q -8085.780 8045.862 -8085.764 8045.818 Q -8086.107 8045.875 -8084.780 8045.930 Q -8083.453 8045.985 -8083.294 8045.903 "></path>
    <path id="STROKE_2c245b66-4d36-4da4-8d95-aecf0a80aa04" opacity="1.000" fill="none" stroke="#000000" stroke-width="1.000" stroke-opacity="1.000" stroke-linecap="round" stroke-linejoin="round" d="M -8079.362 8041.701 Q -8079.375 8041.700 -8079.388 8041.698 Q -8079.989 8041.484 -8077.656 8040.826 Q -8075.323 8040.168 -8075.229 8040.177 "></path>
    <path id="STROKE_1b486b3e-634f-4dea-88cd-077a2510ca7c" opacity="1.000" fill="none" stroke="#000000" stroke-width="1.000" stroke-opacity="1.000" stroke-linecap="round" stroke-linejoin="round" d="M -8078.443 8039.697 Q -8078.733 8039.543 -8079.317 8041.091 Q -8079.902 8042.640 -8079.459 8044.476 Q -8079.773 8044.538 -8079.144 8044.522 Q -8078.515 8044.507 -8077.788 8044.134 Q -8077.061 8043.761 -8076.595 8043.798 Q -8076.129 8043.834 -8075.975 8043.822 Q -8075.820 8043.810 -8075.529 8044.011 Q -8075.238 8044.211 -8075.084 8045.026 Q -8074.930 8045.841 -8075.013 8046.418 Q -8075.096 8046.996 -8075.196 8047.187 Q -8075.295 8047.376 -8075.380 8047.720 Q -8075.464 8048.062 -8076.826 8048.828 Q -8078.188 8049.593 -8078.456 8049.705 "></path>
    <path id="STROKE_00a17778-135a-4682-b249-6950a4addb83" opacity="1.000" fill="none" stroke="#000000" stroke-width="1.000" stroke-opacity="1.000" stroke-linecap="round" stroke-linejoin="round" d="M -8080.137 8048.270 Q -8080.624 8047.730 -8078.430 8046.968 Q -8076.236 8046.206 -8076.150 8046.159 "></path>
    <path id="STROKE_c595f32d-fe89-4724-a022-b2856d627c48" opacity="1.000" fill="none" stroke="#000000" stroke-width="1.000" stroke-opacity="1.000" stroke-linecap="round" stroke-linejoin="round" d="M -8084.615 8046.030 Q -8084.805 8045.967 -8084.926 8045.841 Q -8084.741 8045.459 -8083.633 8046.511 Q -8082.525 8047.563 -8082.458 8047.540 "></path>
    <path id="STROKE_0867a7e5-ad9f-48ec-b1c0-9b050e621470" opacity="1.000" fill="none" stroke="#000000" stroke-width="1.000" stroke-opacity="1.000" stroke-linecap="round" stroke-linejoin="round" d="M -8096.060 7950.602 Q -8096.015 7950.441 -8095.980 7950.002 Q -8095.993 7950.000 -8096.032 7949.997 Q -8096.068 7950.086 -8096.506 7951.682 Q -8096.944 7953.277 -8097.054 7953.445 "></path>
    <path id="STROKE_870720c4-25db-47b3-b8bc-68786c547eb7" opacity="1.000" fill="none" stroke="#000000" stroke-width="1.000" stroke-opacity="1.000" stroke-linecap="round" stroke-linejoin="round" d="M -8097.248 7953.208 Q -8097.046 7952.999 -8097.083 7953.045 Q -8096.701 7952.638 -8096.758 7952.731 Q -8096.839 7952.304 -8094.624 7952.276 Q -8094.516 7952.740 -8094.596 7953.276 Q -8094.676 7953.812 -8095.149 7954.476 Q -8095.623 7955.139 -8096.134 7955.416 Q -8096.646 7955.692 -8097.209 7955.650 Q -8097.773 7955.609 -8098.152 7955.188 Q -8098.441 7955.874 -8098.623 7958.626 Q -8098.545 7958.672 -8098.485 7958.698 Q -8098.425 7958.724 -8098.346 7958.760 "></path>
    <path id="STROKE_90faed44-c32a-4fbe-97f4-fa3d7abff947" opacity="1.000" fill="none" stroke="#000000" stroke-width="1.000" stroke-opacity="1.000" stroke-linecap="round" stroke-linejoin="round" d="M -8097.626 7956.190 Q -8097.596 7956.064 -8097.581 7955.948 Q -8097.567 7955.833 -8097.557 7955.854 Q -8097.334 7955.715 -8096.451 7955.568 Q -8095.567 7955.421 -8095.051 7955.499 Q -8094.535 7955.576 -8094.301 7955.687 Q -8094.066 7955.796 -8093.933 7956.620 Q -8093.799 7957.444 -8094.323 7958.162 Q -8094.846 7958.879 -8095.008 7959.000 "></path>
    <path id="STROKE_a089e41b-feae-4ae7-a426-f0b8e0dbceac" opacity="1.000" fill="none" stroke="#000000" stroke-width="1.000" stroke-opacity="1.000" stroke-linecap="round" stroke-linejoin="round" d="M -8096.264 7957.435 Q -8096.523 7957.845 -8098.991 7961.938 Q -8098.912 7961.822 -8098.833 7961.707 "></path>
    <path id="STROKE_1cb3da25-5719-4b24-9663-17b863f6dc69" opacity="1.000" fill="none" stroke="#000000" stroke-width="1.000" stroke-opacity="1.000" stroke-linecap="round" stroke-linejoin="round" d="M -8097.414 7959.612 Q -8097.505 7959.619 -8097.123 7959.580 Q -8096.976 7960.182 -8097.012 7960.032 Q -8096.782 7960.397 -8096.651 7960.680 Q -8096.521 7960.963 -8095.899 7961.221 Q -8095.277 7961.479 -8094.627 7961.506 Q -8093.977 7961.534 -8093.607 7961.335 Q -8093.239 7961.137 -8093.023 7960.991 "></path>
    <path id="STROKE_a949227c-8b44-40ba-b204-dd8fd06a01b9" opacity="1.000" fill="none" stroke="#000000" stroke-width="1.000" stroke-opacity="1.000" stroke-linecap="round" stroke-linejoin="round" d="M -8087.271 7959.470 Q -8087.272 7959.486 -8087.359 7959.494 Q -8087.836 7959.396 -8086.927 7960.835 Q -8086.018 7962.274 -8085.895 7962.395 "></path>
    <path id="STROKE_8725709c-596b-4803-8072-824752041c43" opacity="1.000" fill="none" stroke="#000000" stroke-width="1.000" stroke-opacity="1.000" stroke-linecap="round" stroke-linejoin="round" d="M -8083.629 7955.139 Q -8083.629 7955.142 -8083.734 7954.987 Q -8083.839 7954.833 -8083.800 7954.829 Q -8083.761 7954.825 -8083.791 7954.846 Q -8083.820 7954.866 -8083.735 7954.698 Q -8083.650 7954.530 -8082.604 7954.021 Q -8081.558 7953.513 -8080.724 7953.524 Q -8079.890 7953.535 -8079.792 7953.556 "></path>
    <path id="STROKE_53ceaadf-8dbf-450a-9d3d-3be426274925" opacity="1.000" fill="none" stroke="#000000" stroke-width="1.000" stroke-opacity="1.000" stroke-linecap="round" stroke-linejoin="round" d="M -8083.176 7956.819 Q -8083.811 7956.528 -8084.913 7959.105 Q -8084.424 7959.394 -8084.133 7958.700 Q -8083.841 7958.006 -8083.694 7957.557 Q -8083.548 7957.107 -8083.314 7956.822 Q -8083.081 7956.537 -8083.098 7956.568 Q -8083.114 7956.600 -8083.061 7956.554 Q -8083.007 7956.508 -8082.686 7956.408 Q -8082.365 7956.309 -8082.207 7956.379 Q -8082.048 7956.450 -8082.032 7956.526 Q -8082.016 7956.604 -8081.958 7956.654 Q -8081.899 7956.705 -8082.229 7957.576 Q -8082.559 7958.448 -8083.698 7959.297 Q -8083.701 7959.057 -8082.780 7958.746 Q -8081.859 7958.435 -8081.760 7958.431 "></path>
    <path id="STROKE_feb6ed0f-95e2-4e27-b5d0-1abbe4f14a5d" opacity="1.000" fill="none" stroke="#000000" stroke-width="1.000" stroke-opacity="1.000" stroke-linecap="round" stroke-linejoin="round" d="M -8083.099 7960.500 Q -8083.045 7960.620 -8084.173 7960.954 Q -8084.061 7961.091 -8082.843 7959.896 Q -8081.625 7958.701 -8081.502 7958.531 "></path>
    <path id="STROKE_9047eda2-fff6-49bb-afac-857e880e08f7" opacity="1.000" fill="none" stroke="#000000" stroke-width="1.000" stroke-opacity="1.000" stroke-linecap="round" stroke-linejoin="round" d="M -8081.496 7952.087 Q -8081.675 7952.289 -8081.439 7954.652 Q -8081.204 7957.017 -8081.002 7958.468 Q -8080.800 7959.920 -8080.594 7960.661 Q -8080.388 7961.402 -8080.031 7961.690 Q -8079.674 7961.979 -8079.335 7961.807 Q -8078.996 7961.634 -8078.797 7961.433 "></path>
    <path id="STROKE_273005f5-c4f8-4ca2-b9de-ac7b1552ed6b" opacity="1.000" fill="none" stroke="#000000" stroke-width="1.000" stroke-opacity="1.000" stroke-linecap="round" stroke-linejoin="round" d="M -8077.943 7956.685 Q -8078.201 7956.806 -8079.607 7958.369 Q -8081.013 7959.933 -8081.735 7962.543 Q -8081.601 7962.584 -8081.477 7962.595 "></path>
    <path id="STROKE_9e15d5d6-8e2a-42eb-b05f-21f71f6ee7f4" opacity="1.000" fill="none" stroke="#000000" stroke-width="1.000" stroke-opacity="1.000" stroke-linecap="round" stroke-linejoin="round" d="M -8080.179 7951.714 Q -8080.178 7951.701 -8080.151 7951.539 Q -8079.839 7951.493 -8079.530 7951.447 Q -8079.221 7951.402 -8079.051 7951.324 "></path>
  </g>
</svg>