<?xml version="1.0" encoding="UTF-8" standalone="yes"?>
<svg xmlns="http://www.w3.org/2000/svg" xmlns:xlink="http://www.w3.org/1999/xlink" width="77.173mm" height="10.167mm" version="1.1" viewBox="-8094.627 8718.926 401.056 52.838">
  <!--
	Exported with Concepts: Smarter Sketching
	Version: 1059 on iOS 15.6
	https://concepts.app/
	-->
  <title>类型、逻辑、运算、信息</title>
  <desc>Drawing exported from Concepts: Smarter Sketching</desc>
  <defs></defs>
  <g id="主体" opacity="1.000">
    <path id="STROKE_86e9573d-987d-4a33-84a6-655a12e08af3" opacity="1.000" fill="none" stroke="#000000" stroke-width="1.000" stroke-opacity="1.000" stroke-linecap="round" stroke-linejoin="round" d="M -8086.345 8738.994 Q -8086.307 8738.807 -8086.158 8738.105 Q -8085.320 8737.920 -8089.617 8747.274 Q -8089.511 8746.615 -8089.158 8745.961 Q -8088.805 8745.308 -8088.678 8745.059 Q -8088.551 8744.809 -8088.595 8744.828 Q -8088.638 8744.847 -8088.035 8744.401 Q -8087.150 8744.136 -8086.999 8755.858 Q -8086.999 8755.812 -8087.046 8755.641 Q -8087.093 8755.468 -8087.186 8755.170 "></path>
    <path id="STROKE_4ac4cd69-ed28-474f-9108-c9e519555b78" opacity="1.000" fill="none" stroke="#000000" stroke-width="1.000" stroke-opacity="1.000" stroke-linecap="round" stroke-linejoin="round" d="M -8085.503 8741.131 Q -8085.333 8741.020 -8085.492 8741.085 Q -8085.651 8741.150 -8085.204 8740.834 Q -8084.756 8740.518 -8083.303 8740.699 Q -8081.850 8740.880 -8081.702 8740.979 "></path>
    <path id="STROKE_f43693ec-e07e-4eb6-90d9-a29cf50778c2" opacity="1.000" fill="none" stroke="#000000" stroke-width="1.000" stroke-opacity="1.000" stroke-linecap="round" stroke-linejoin="round" d="M -8084.522 8744.752 Q -8084.537 8744.792 -8085.067 8744.775 Q -8085.061 8743.926 -8085.021 8744.104 Q -8084.788 8743.804 -8084.310 8743.596 Q -8083.832 8743.387 -8082.739 8743.283 Q -8081.647 8743.180 -8081.402 8743.859 Q -8081.157 8744.538 -8081.171 8744.758 Q -8081.185 8744.977 -8081.258 8745.166 Q -8081.330 8745.355 -8081.617 8745.607 Q -8081.904 8745.860 -8082.248 8746.113 Q -8082.592 8746.365 -8082.707 8746.406 Q -8082.821 8746.448 -8082.926 8746.566 Q -8083.031 8746.685 -8084.615 8746.936 Q -8083.476 8746.057 -8083.790 8746.258 Q -8084.104 8746.460 -8083.699 8746.244 Q -8083.295 8746.029 -8081.807 8746.148 Q -8080.319 8746.269 -8080.939 8746.239 Q -8081.559 8746.210 -8081.250 8746.363 Q -8080.628 8747.109 -8084.475 8749.961 Q -8083.982 8750.367 -8082.634 8749.697 Q -8081.286 8749.027 -8080.727 8748.104 Q -8080.167 8747.181 -8080.019 8746.936 "></path>
    <path id="STROKE_613f2d30-ea4f-49b5-afd9-0968788d187d" opacity="1.000" fill="none" stroke="#000000" stroke-width="1.000" stroke-opacity="1.000" stroke-linecap="round" stroke-linejoin="round" d="M -8080.362 8745.395 Q -8081.111 8745.169 -8081.201 8745.278 Q -8081.292 8745.388 -8081.250 8745.486 Q -8081.209 8745.586 -8081.241 8745.490 Q -8081.273 8745.395 -8081.373 8745.916 Q -8081.472 8746.438 -8081.523 8747.020 Q -8081.575 8747.602 -8081.597 8747.793 Q -8081.619 8747.984 -8081.608 8748.057 Q -8081.598 8748.129 -8081.618 8748.449 Q -8081.638 8748.770 -8081.664 8748.865 Q -8081.691 8748.961 -8081.713 8749.581 Q -8081.735 8750.201 -8084.864 8753.032 Q -8084.914 8752.370 -8083.319 8752.219 Q -8081.725 8752.068 -8081.608 8752.191 "></path>
    <path id="STROKE_acf28c09-034a-4f9c-9448-bf5faa57934b" opacity="1.000" fill="none" stroke="#000000" stroke-width="1.000" stroke-opacity="1.000" stroke-linecap="round" stroke-linejoin="round" d="M -8087.498 8756.898 Q -8087.429 8757.079 -8090.021 8757.844 Q -8090.772 8758.879 -8084.628 8756.028 Q -8078.484 8753.178 -8078.336 8753.032 "></path>
    <path id="STROKE_242264cc-9e45-43e0-a778-8242be98ae77" opacity="1.000" fill="none" stroke="#000000" stroke-width="1.000" stroke-opacity="1.000" stroke-linecap="round" stroke-linejoin="round" d="M -8083.525 8753.873 Q -8083.525 8753.873 -8083.631 8754.342 Q -8083.736 8754.812 -8083.704 8754.819 Q -8083.952 8755.736 -8083.431 8764.046 Q -8083.502 8764.255 -8087.887 8761.885 Q -8087.848 8760.864 -8087.810 8761.091 Q -8087.360 8760.444 -8086.602 8759.705 Q -8085.843 8758.966 -8084.544 8758.220 Q -8083.245 8757.474 -8079.318 8757.693 Q -8075.392 8757.914 -8075.174 8757.891 "></path>
    <path id="STROKE_67bd1c46-db03-44ef-ba52-661ea37424e0" opacity="1.000" fill="none" stroke="#000000" stroke-width="1.000" stroke-opacity="1.000" stroke-linecap="round" stroke-linejoin="round" d="M -8069.222 8737.604 Q -8069.008 8737.604 -8068.833 8737.604 Q -8068.005 8738.818 -8071.808 8745.876 Q -8075.610 8752.934 -8075.657 8753.032 "></path>
    <path id="STROKE_d51cc8a2-a01c-4ec6-8459-aeffbec98ec4" opacity="1.000" fill="none" stroke="#000000" stroke-width="1.000" stroke-opacity="1.000" stroke-linecap="round" stroke-linejoin="round" d="M -8070.266 8744.903 Q -8070.194 8744.801 -8069.906 8744.510 Q -8069.617 8744.218 -8068.187 8744.219 Q -8066.757 8744.219 -8065.976 8744.733 Q -8065.194 8745.248 -8065.125 8745.394 "></path>
    <path id="STROKE_fa91f7b9-8e77-4f63-b012-2567da97610d" opacity="1.000" fill="none" stroke="#000000" stroke-width="1.000" stroke-opacity="1.000" stroke-linecap="round" stroke-linejoin="round" d="M -8073.787 8752.881 Q -8074.262 8753.048 -8074.519 8752.985 Q -8075.083 8751.372 -8070.832 8750.167 Q -8066.581 8748.962 -8066.355 8748.863 "></path>
    <path id="STROKE_05f6dd2a-eaf0-477e-b61e-22ff598b0f4c" opacity="1.000" fill="none" stroke="#000000" stroke-width="1.000" stroke-opacity="1.000" stroke-linecap="round" stroke-linejoin="round" d="M -8072.042 8756.104 Q -8072.445 8757.078 -8073.538 8758.931 Q -8073.388 8759.076 -8072.394 8757.328 Q -8071.400 8755.580 -8069.721 8754.118 Q -8068.042 8752.656 -8066.967 8752.124 Q -8065.892 8751.592 -8064.556 8751.742 Q -8064.070 8752.284 -8065.087 8754.023 Q -8066.104 8755.764 -8072.447 8759.129 Q -8071.677 8759.127 -8071.676 8759.105 Q -8070.974 8758.965 -8068.949 8757.870 Q -8066.924 8756.775 -8066.604 8756.501 "></path>
    <path id="STROKE_bf96fcd4-aa5e-4462-bc09-3798225a1045" opacity="1.000" fill="none" stroke="#000000" stroke-width="1.000" stroke-opacity="1.000" stroke-linecap="round" stroke-linejoin="round" d="M -8052.691 8745.838 Q -8052.691 8745.838 -8052.703 8745.838 Q -8052.715 8745.838 -8052.738 8745.838 Q -8052.724 8746.303 -8052.773 8750.500 Q -8052.824 8754.696 -8052.847 8754.971 "></path>
    <path id="STROKE_580c572d-eb1c-49f8-bc28-6fcce853e50f" opacity="1.000" fill="none" stroke="#000000" stroke-width="1.000" stroke-opacity="1.000" stroke-linecap="round" stroke-linejoin="round" d="M -8052.940 8746.830 Q -8052.976 8746.486 -8052.965 8746.397 Q -8052.955 8746.309 -8052.787 8745.842 Q -8052.619 8745.376 -8052.664 8745.301 Q -8052.708 8745.225 -8052.028 8744.672 Q -8051.348 8744.119 -8050.787 8743.916 Q -8050.227 8743.714 -8049.387 8743.574 Q -8048.547 8743.435 -8048.020 8744.074 Q -8047.492 8744.713 -8047.457 8745.845 Q -8047.421 8746.977 -8047.412 8748.004 Q -8047.403 8749.030 -8048.466 8750.959 Q -8049.528 8752.887 -8049.825 8753.184 "></path>
    <path id="STROKE_911f9d30-1738-4bba-826d-166a42d428d2" opacity="1.000" fill="none" stroke="#000000" stroke-width="1.000" stroke-opacity="1.000" stroke-linecap="round" stroke-linejoin="round" d="M -8052.800 8750.755 Q -8052.511 8749.646 -8051.981 8748.891 Q -8051.451 8748.134 -8051.036 8747.871 Q -8050.621 8747.607 -8050.405 8747.558 Q -8050.190 8747.508 -8050.004 8747.531 Q -8049.281 8747.128 -8050.868 8752.483 Q -8050.433 8752.232 -8049.560 8751.154 Q -8048.687 8750.077 -8048.344 8749.656 "></path>
    <path id="STROKE_df27cb52-80e9-4caa-9afb-c1f31bc3fc73" opacity="1.000" fill="none" stroke="#000000" stroke-width="1.000" stroke-opacity="1.000" stroke-linecap="round" stroke-linejoin="round" d="M -8044.574 8747.625 Q -8044.849 8747.348 -8045.553 8749.259 Q -8046.257 8751.170 -8046.303 8751.292 "></path>
    <path id="STROKE_62cd19ac-cbf3-4bd2-97e3-a7eeeb025ef3" opacity="1.000" fill="none" stroke="#000000" stroke-width="1.000" stroke-opacity="1.000" stroke-linecap="round" stroke-linejoin="round" d="M -8045.072 8748.770 Q -8045.277 8748.884 -8044.794 8747.605 Q -8044.311 8746.328 -8043.073 8745.463 Q -8041.835 8744.598 -8039.308 8744.477 Q -8038.552 8745.712 -8041.068 8748.410 Q -8043.585 8751.109 -8048.890 8753.184 Q -8048.762 8753.560 -8044.580 8752.066 Q -8040.398 8750.574 -8040.274 8750.451 "></path>
    <path id="STROKE_b7b35beb-5ec1-4b1c-82d6-41a92ee136f0" opacity="1.000" fill="none" stroke="#000000" stroke-width="1.000" stroke-opacity="1.000" stroke-linecap="round" stroke-linejoin="round" d="M -8041.801 8740.337 Q -8041.801 8740.284 -8041.801 8740.138 Q -8040.704 8740.403 -8043.223 8749.545 Q -8045.742 8758.686 -8045.773 8758.731 "></path>
    <path id="STROKE_6b2b6b5d-6efc-4074-952e-5ae53a866f05" opacity="1.000" fill="none" stroke="#000000" stroke-width="1.000" stroke-opacity="1.000" stroke-linecap="round" stroke-linejoin="round" d="M -8043.047 8753.230 Q -8042.996 8753.227 -8042.795 8753.652 Q -8042.595 8754.077 -8042.230 8754.432 Q -8041.865 8754.787 -8041.542 8754.959 Q -8041.218 8755.131 -8041.052 8755.268 Q -8040.886 8755.405 -8039.166 8755.973 Q -8037.446 8756.540 -8034.206 8755.902 Q -8030.965 8755.264 -8030.567 8755.064 "></path>
    <path id="STROKE_d8265333-957f-4511-9d4a-b225dceed972" opacity="1.000" fill="none" stroke="#000000" stroke-width="1.000" stroke-opacity="1.000" stroke-linecap="round" stroke-linejoin="round" d="M -8020.674 8735.922 Q -8020.549 8735.846 -8020.175 8735.326 Q -8020.260 8735.204 -8022.052 8738.303 Q -8023.844 8741.400 -8027.451 8746.142 Q -8028.233 8745.759 -8025.231 8742.812 Q -8024.309 8742.236 -8024.834 8754.025 Q -8024.834 8753.926 -8024.783 8753.506 Q -8024.732 8753.085 -8024.631 8752.740 "></path>
    <path id="STROKE_3c1afa58-2d5a-4b6d-83a7-a0a7468f80cd" opacity="1.000" fill="none" stroke="#000000" stroke-width="1.000" stroke-opacity="1.000" stroke-linecap="round" stroke-linejoin="round" d="M -8024.133 8746.387 Q -8024.165 8746.279 -8024.070 8746.358 Q -8023.976 8746.438 -8024.467 8746.052 Q -8024.959 8745.666 -8024.877 8745.277 Q -8024.796 8744.889 -8024.823 8744.731 Q -8024.850 8744.574 -8024.139 8743.824 Q -8023.429 8743.073 -8023.098 8742.836 Q -8022.767 8742.599 -8022.274 8742.246 Q -8021.782 8741.895 -8021.391 8741.744 Q -8020.999 8741.593 -8019.902 8741.481 Q -8019.251 8742.127 -8019.606 8758.463 Q -8020.100 8758.486 -8020.387 8757.855 Q -8020.674 8757.225 -8020.923 8756.852 "></path>
    <path id="STROKE_3b5fa605-3438-4573-833f-4c35b8146a5f" opacity="1.000" fill="none" stroke="#000000" stroke-width="1.000" stroke-opacity="1.000" stroke-linecap="round" stroke-linejoin="round" d="M -8023.743 8749.260 Q -8024.042 8748.863 -8024.223 8748.232 Q -8024.404 8747.602 -8023.858 8746.639 Q -8023.313 8745.676 -8022.949 8745.512 Q -8022.586 8745.349 -8021.608 8745.242 Q -8021.120 8744.909 -8021.933 8747.107 Q -8022.746 8749.306 -8026.314 8752.039 Q -8026.116 8751.436 -8021.149 8747.928 Q -8020.344 8748.223 -8027.794 8756.011 Q -8027.168 8755.908 -8025.283 8753.852 Q -8023.397 8751.795 -8019.334 8749.412 Q -8019.672 8749.612 -8022.039 8752.800 Q -8024.405 8755.987 -8027.311 8761.862 Q -8027.105 8761.575 -8026.612 8760.811 Q -8026.119 8760.046 -8025.769 8759.526 "></path>
    <path id="STROKE_5d61d6ab-389f-4e25-9eef-034f0c570fda" opacity="1.000" fill="none" stroke="#000000" stroke-width="1.000" stroke-opacity="1.000" stroke-linecap="round" stroke-linejoin="round" d="M -8020.222 8750.696 Q -8019.673 8750.424 -8019.731 8750.475 Q -8019.889 8750.581 -8011.917 8746.211 Q -8011.917 8746.165 -8012.015 8746.039 Q -8012.112 8745.914 -8012.307 8745.791 "></path>
    <path id="STROKE_60b39268-010e-4602-a9cd-9cde557e749f" opacity="1.000" fill="none" stroke="#000000" stroke-width="1.000" stroke-opacity="1.000" stroke-linecap="round" stroke-linejoin="round" d="M -8014.037 8743.910 Q -8014.040 8743.912 -8014.212 8743.607 Q -8014.384 8743.302 -8014.389 8743.301 Q -8014.394 8743.299 -8014.402 8743.291 Q -8014.411 8743.282 -8014.441 8743.116 Q -8014.229 8743.339 -8014.057 8746.604 Q -8013.883 8749.868 -8013.925 8752.024 Q -8013.966 8754.181 -8014.102 8755.050 Q -8014.236 8755.919 -8014.647 8756.375 Q -8015.059 8756.830 -8015.553 8756.593 Q -8016.046 8756.355 -8016.218 8756.162 "></path>
    <path id="STROKE_a55530a9-2e14-45d9-a3cd-514bf8c173d2" opacity="1.000" fill="none" stroke="#000000" stroke-width="1.000" stroke-opacity="1.000" stroke-linecap="round" stroke-linejoin="round" d="M -8016.467 8754.772 Q -8016.440 8754.980 -8016.490 8753.896 Q -8015.277 8753.355 -8013.991 8752.686 Q -8012.705 8752.016 -8012.307 8751.748 "></path>
    <path id="STROKE_d9e8ba4a-ff2d-418a-a6de-6b74d4c4421a" opacity="1.000" fill="none" stroke="#000000" stroke-width="1.000" stroke-opacity="1.000" stroke-linecap="round" stroke-linejoin="round" d="M -8001.962 8750.451 Q -8001.962 8750.451 -8001.979 8750.854 Q -8001.998 8751.258 -8001.938 8751.100 Q -8001.498 8751.756 -8001.518 8751.695 Q -8001.269 8751.939 -8001.101 8752.101 Q -8000.932 8752.262 -8000.805 8752.387 Q -8000.677 8752.513 -8000.528 8752.682 "></path>
    <path id="STROKE_928e3f2f-25d8-4ff6-9f33-d7ea8e8a42b0" opacity="1.000" fill="none" stroke="#000000" stroke-width="1.000" stroke-opacity="1.000" stroke-linecap="round" stroke-linejoin="round" d="M -8000.980 8755.111 Q -8000.606 8754.357 -8002.118 8757.173 Q -8002.156 8757.388 -8001.132 8757.230 Q -8000.108 8757.073 -7999.843 8756.898 "></path>
    <path id="STROKE_5e30d261-d769-440d-b564-aefe8e8a61c3" opacity="1.000" fill="none" stroke="#000000" stroke-width="1.000" stroke-opacity="1.000" stroke-linecap="round" stroke-linejoin="round" d="M -7940.436 8741.423 Q -7940.362 8741.498 -7940.293 8740.925 Q -7940.223 8740.352 -7940.597 8739.952 Q -7940.971 8739.553 -7941.372 8739.236 Q -7941.773 8738.919 -7941.965 8738.836 Q -7942.157 8738.753 -7942.228 8738.703 Q -7942.299 8738.652 -7942.254 8738.773 Q -7942.208 8738.894 -7942.954 8738.473 Q -7943.700 8738.051 -7945.227 8738.856 Q -7946.753 8739.662 -7947.881 8741.307 Q -7949.009 8742.951 -7949.365 8744.298 Q -7949.722 8745.645 -7949.675 8746.299 Q -7949.627 8746.952 -7949.603 8747.160 Q -7949.578 8747.367 -7949.265 8748.158 Q -7948.951 8748.949 -7946.088 8749.642 Q -7943.225 8750.334 -7941.311 8750.512 Q -7939.396 8750.690 -7938.402 8751.098 Q -7937.408 8751.504 -7936.869 8751.936 Q -7936.331 8752.366 -7936.017 8753.329 Q -7935.702 8754.292 -7937.818 8756.461 Q -7939.934 8758.629 -7942.026 8759.908 Q -7944.119 8761.188 -7945.995 8762.040 Q -7947.871 8762.893 -7952.993 8762.779 Q -7953.116 8762.365 -7953.066 8762.137 Q -7953.017 8761.908 -7952.962 8761.559 "></path>
    <path id="STROKE_8da6191a-454a-4f22-a4da-11cbd7531d72" opacity="1.000" fill="none" stroke="#000000" stroke-width="1.000" stroke-opacity="1.000" stroke-linecap="round" stroke-linejoin="round" d="M -7946.776 8754.422 Q -7947.145 8754.422 -7947.478 8754.247 Q -7947.231 8753.340 -7942.139 8751.972 Q -7937.047 8750.604 -7936.525 8750.404 "></path>
    <path id="STROKE_96d655b8-5b36-470b-b027-fe5c669edb10" opacity="1.000" fill="none" stroke="#000000" stroke-width="1.000" stroke-opacity="1.000" stroke-linecap="round" stroke-linejoin="round" d="M -7920.602 8751.946 Q -7920.602 8751.946 -7920.257 8751.774 Q -7919.913 8751.603 -7915.824 8751.029 Q -7911.736 8750.457 -7911.487 8750.357 "></path>
    <path id="STROKE_8ec0a187-d977-449f-bde3-d837381696b0" opacity="1.000" fill="none" stroke="#000000" stroke-width="1.000" stroke-opacity="1.000" stroke-linecap="round" stroke-linejoin="round" d="M -7919.106 8754.772 Q -7919.344 8754.811 -7920.602 8754.866 Q -7919.903 8755.135 -7915.559 8754.229 Q -7911.214 8753.324 -7910.739 8753.126 "></path>
    <path id="STROKE_75f2083e-b608-4b5b-bab9-461193c26433" opacity="1.000" fill="none" stroke="#000000" stroke-width="1.000" stroke-opacity="1.000" stroke-linecap="round" stroke-linejoin="round" d="M -7893.118 8734.976 Q -7892.733 8735.054 -7894.053 8734.729 Q -7895.373 8734.404 -7896.309 8734.803 Q -7897.245 8735.201 -7897.595 8735.693 Q -7897.944 8736.186 -7897.956 8736.307 Q -7897.967 8736.427 -7898.111 8736.740 Q -7898.256 8737.054 -7897.644 8739.213 Q -7897.031 8741.373 -7896.727 8743.423 Q -7896.422 8745.473 -7896.409 8746.357 Q -7896.396 8747.243 -7896.662 8748.013 Q -7896.929 8748.782 -7897.335 8749.327 Q -7897.742 8749.872 -7899.708 8750.206 Q -7899.250 8750.164 -7899.540 8750.197 Q -7899.830 8750.231 -7898.533 8749.686 Q -7897.235 8749.141 -7896.239 8748.986 Q -7895.243 8748.832 -7894.781 8748.863 Q -7894.319 8748.895 -7894.113 8749.166 Q -7893.907 8749.438 -7893.964 8749.515 Q -7894.021 8749.592 -7893.663 8749.945 Q -7893.305 8750.298 -7893.406 8753.628 Q -7893.507 8756.958 -7894.066 8759.193 Q -7894.626 8761.428 -7894.812 8762.893 Q -7894.996 8764.356 -7894.685 8765.158 Q -7894.374 8765.959 -7894.122 8766.152 Q -7893.871 8766.346 -7893.527 8766.754 Q -7893.183 8767.163 -7891.074 8767.117 Q -7888.966 8767.071 -7888.366 8766.826 "></path>
    <path id="STROKE_d38c4273-933b-4b5e-9e19-5ba54489aafb" opacity="1.000" fill="none" stroke="#000000" stroke-width="1.000" stroke-opacity="1.000" stroke-linecap="round" stroke-linejoin="round" d="M -7870.449 8740.372 Q -7870.449 8740.372 -7870.135 8740.789 Q -7869.820 8741.205 -7869.025 8742.537 Q -7868.231 8743.869 -7866.885 8746.496 Q -7865.539 8749.123 -7864.651 8750.656 Q -7863.764 8752.188 -7863.087 8752.707 Q -7862.410 8753.225 -7862.285 8753.324 "></path>
    <path id="STROKE_4c7a4731-73ee-4f62-922b-4cad665b8a24" opacity="1.000" fill="none" stroke="#000000" stroke-width="1.000" stroke-opacity="1.000" stroke-linecap="round" stroke-linejoin="round" d="M -7860.789 8736.412 Q -7860.789 8736.360 -7860.789 8736.261 Q -7861.026 8736.351 -7861.881 8737.469 Q -7862.736 8738.587 -7865.022 8744.414 Q -7867.309 8750.240 -7870.885 8757.085 Q -7870.715 8756.912 -7870.434 8756.566 Q -7870.153 8756.221 -7869.857 8755.848 "></path>
    <path id="STROKE_1fc85b57-936a-4517-b5ae-7e236a65ad92" opacity="1.000" fill="none" stroke="#000000" stroke-width="1.000" stroke-opacity="1.000" stroke-linecap="round" stroke-linejoin="round" d="M -7852.672 8748.209 Q -7852.641 8747.961 -7852.968 8751.545 Q -7853.295 8755.129 -7853.420 8755.252 "></path>
    <path id="STROKE_e372f4bb-e820-47a1-a7d5-becd56596351" opacity="1.000" fill="none" stroke="#000000" stroke-width="1.000" stroke-opacity="1.000" stroke-linecap="round" stroke-linejoin="round" d="M -7826.450 8739.286 Q -7825.760 8738.956 -7825.897 8739.087 Q -7824.965 8739.522 -7825.056 8739.636 Q -7823.647 8740.799 -7820.780 8746.020 Q -7817.912 8751.240 -7817.741 8751.386 "></path>
    <path id="STROKE_aeb652b4-617e-4378-a9d4-1773eed7786a" opacity="1.000" fill="none" stroke="#000000" stroke-width="1.000" stroke-opacity="1.000" stroke-linecap="round" stroke-linejoin="round" d="M -7816.354 8737.850 Q -7817.261 8738.328 -7818.475 8739.383 Q -7819.689 8740.438 -7822.053 8746.717 Q -7824.417 8752.997 -7824.519 8753.126 "></path>
    <path id="STROKE_913dedab-2c0e-4759-b0b5-fb25b9a0e075" opacity="1.000" fill="none" stroke="#000000" stroke-width="1.000" stroke-opacity="1.000" stroke-linecap="round" stroke-linejoin="round" d="M -7815.061 8746.971 Q -7815.176 8746.854 -7814.707 8746.413 Q -7814.237 8745.973 -7813.731 8745.833 Q -7813.225 8745.693 -7812.842 8746.201 Q -7812.459 8746.710 -7812.398 8747.256 Q -7812.338 8747.801 -7812.318 8748.527 Q -7812.298 8749.254 -7812.408 8749.693 Q -7812.518 8750.133 -7813.096 8751.127 Q -7813.673 8752.120 -7813.896 8752.688 Q -7814.118 8753.254 -7814.142 8753.349 Q -7814.165 8753.443 -7814.140 8753.385 Q -7814.116 8753.326 -7814.001 8753.652 Q -7813.887 8753.978 -7813.000 8754.161 Q -7812.112 8754.345 -7811.531 8754.352 Q -7810.949 8754.359 -7809.714 8753.553 Q -7808.479 8752.746 -7808.081 8752.425 "></path>
    <path id="STROKE_a6491486-372d-4beb-a4e1-602b8c50c2a5" opacity="1.000" fill="none" stroke="#000000" stroke-width="1.000" stroke-opacity="1.000" stroke-linecap="round" stroke-linejoin="round" d="M -7773.882 8743.654 Q -7774.083 8743.361 -7774.334 8743.198 Q -7774.398 8743.583 -7774.237 8744.336 Q -7774.077 8745.090 -7773.882 8745.289 "></path>
    <path id="STROKE_2679833c-0b5a-46be-8d2b-43358a7f937d" opacity="1.000" fill="none" stroke="#000000" stroke-width="1.000" stroke-opacity="1.000" stroke-linecap="round" stroke-linejoin="round" d="M -7767.292 8744.343 Q -7767.488 8744.247 -7768.445 8744.494 Q -7768.266 8744.472 -7768.086 8744.448 "></path>
    <path id="STROKE_c64dc6cb-5ead-4125-ae56-f6c52c73e9b6" opacity="1.000" fill="none" stroke="#000000" stroke-width="1.000" stroke-opacity="1.000" stroke-linecap="round" stroke-linejoin="round" d="M -7760.490 8744.238 L -7761.714 8744.793 Q -7761.714 8744.892 -7761.687 8744.965 Q -7761.660 8745.038 -7761.605 8745.138 "></path>
    <path id="STROKE_2562109a-8d34-420e-a4b6-2377370751e8" opacity="1.000" fill="none" stroke="#000000" stroke-width="1.000" stroke-opacity="1.000" stroke-linecap="round" stroke-linejoin="round" d="M -7747.396 8732.488 Q -7747.396 8732.441 -7747.396 8732.289 Q -7746.371 8732.381 -7744.062 8736.998 Q -7741.753 8741.616 -7740.748 8744.676 Q -7739.743 8747.736 -7738.896 8748.705 Q -7738.048 8749.675 -7737.845 8749.750 "></path>
    <path id="STROKE_0478cb95-0909-406c-917c-b97f06df25ab" opacity="1.000" fill="none" stroke="#000000" stroke-width="1.000" stroke-opacity="1.000" stroke-linecap="round" stroke-linejoin="round" d="M -7734.184 8730.854 Q -7734.161 8730.807 -7734.137 8730.701 Q -7734.520 8730.496 -7736.848 8734.658 Q -7739.176 8738.821 -7740.452 8741.537 Q -7741.728 8744.252 -7742.149 8744.981 "></path>
    <path id="STROKE_deb8a045-c879-4227-a960-1dfd287d726c" opacity="1.000" fill="none" stroke="#000000" stroke-width="1.000" stroke-opacity="1.000" stroke-linecap="round" stroke-linejoin="round" d="M -7732.906 8746.574 Q -7732.827 8746.362 -7732.704 8746.130 Q -7732.680 8746.130 -7732.657 8746.130 Q -7732.502 8746.717 -7734.184 8752.483 Q -7734.260 8752.447 -7733.678 8751.408 Q -7733.095 8750.370 -7731.909 8748.688 Q -7730.724 8747.006 -7728.816 8746.083 Q -7728.365 8746.605 -7729.432 8752.576 Q -7729.434 8752.783 -7728.447 8750.916 Q -7727.460 8749.049 -7725.085 8747.123 Q -7724.613 8747.358 -7725.130 8750.686 Q -7725.646 8754.014 -7725.724 8754.259 "></path>
    <path id="STROKE_17435601-3252-4e6b-bd61-cd458e397a75" opacity="1.000" fill="none" stroke="#000000" stroke-width="1.000" stroke-opacity="1.000" stroke-linecap="round" stroke-linejoin="round" d="M -7708.648 8724.896 Q -7708.593 8724.184 -7708.477 8724.330 Q -7708.136 8723.829 -7707.221 8723.721 Q -7706.307 8723.611 -7706.097 8723.563 Q -7705.887 8723.516 -7704.903 8724.090 Q -7703.919 8724.664 -7703.403 8727.680 Q -7702.886 8730.695 -7704.316 8738.689 Q -7704.272 8738.952 -7702.453 8738.738 Q -7700.634 8738.525 -7698.209 8736.856 Q -7698.625 8736.641 -7699.702 8737.353 Q -7700.780 8738.064 -7701.484 8739.061 Q -7702.189 8740.058 -7702.417 8741.064 Q -7702.646 8742.070 -7702.481 8744.801 Q -7702.317 8747.531 -7702.067 8749.475 Q -7701.818 8751.417 -7702.506 8753.550 Q -7703.193 8755.683 -7704.091 8756.956 Q -7704.988 8758.229 -7706.392 8759.391 Q -7707.796 8760.553 -7710.041 8760.357 Q -7712.286 8760.162 -7712.761 8760.063 "></path>
    <circle id="STROKE_a632d4c6-d4dd-4451-9b0f-e411ae803b72" opacity="1.000" fill="#000000" stroke="#000000" stroke-width="0.1" stroke-opacity="1.000" fill-opacity="1.000" cx="-7741.442" cy="8741.072" r="0.500"></circle>
    <path id="STROKE_6bc6468b-cf58-4b11-89ae-a60c3eb8fcb9" opacity="1.000" fill="none" stroke="#000000" stroke-width="1.000" stroke-opacity="1.000" stroke-linecap="round" stroke-linejoin="round" d="M -7741.302 8741.026 Q -7741.109 8740.776 -7741.146 8740.723 Q -7741.184 8740.854 -7741.131 8740.801 Q -7741.078 8740.749 -7742.471 8743.623 Q -7743.863 8746.496 -7744.628 8748.180 Q -7745.393 8749.863 -7747.083 8752.928 Q -7747.012 8752.752 -7746.942 8752.576 "></path>
    <path id="STROKE_e01923da-b589-4196-a536-882be9e2479e" opacity="1.000" fill="none" stroke="#000000" stroke-width="1.000" stroke-opacity="1.000" stroke-linecap="round" stroke-linejoin="round" d="M -7843.352 8742.244 Q -7843.337 8742.242 -7843.312 8742.189 Q -7843.287 8742.137 -7843.290 8742.153 Q -7843.292 8742.170 -7843.580 8742.405 Q -7843.867 8742.641 -7843.935 8743.282 Q -7844.003 8743.924 -7844.041 8745.371 Q -7844.079 8746.818 -7843.692 8748.648 Q -7843.305 8750.479 -7842.771 8751.758 Q -7842.237 8753.037 -7841.759 8753.653 Q -7841.280 8754.270 -7840.749 8754.555 Q -7840.217 8754.840 -7839.656 8754.747 Q -7839.096 8754.654 -7838.836 8753.861 Q -7838.576 8753.068 -7838.346 8752.244 Q -7838.116 8751.420 -7838.393 8741.068 Q -7838.271 8741.053 -7838.166 8741.088 Q -7838.061 8741.123 -7837.923 8741.193 "></path>
    <path id="STROKE_202e9347-f927-4a4c-99bd-533711d90729" opacity="1.000" fill="none" stroke="#000000" stroke-width="1.000" stroke-opacity="1.000" stroke-linecap="round" stroke-linejoin="round" d="M -7800.031 8741.117 Q -7800.270 8740.908 -7800.903 8740.857 Q -7800.917 8740.775 -7801.084 8742.813 Q -7801.251 8744.852 -7800.808 8746.585 Q -7800.364 8748.318 -7799.879 8749.288 Q -7799.395 8750.258 -7798.752 8750.876 Q -7798.110 8751.494 -7797.677 8751.548 Q -7797.244 8751.602 -7796.832 8751.150 Q -7796.420 8750.699 -7796.248 8750.268 Q -7796.075 8749.836 -7796.011 8749.522 Q -7795.946 8749.209 -7795.777 8749.084 Q -7795.607 8748.959 -7795.643 8744.512 Q -7795.678 8740.064 -7795.783 8739.820 "></path>
    <path id="STROKE_10efdb39-d32c-4ab9-90b4-d93b16fcd124" opacity="1.000" fill="none" stroke="#000000" stroke-width="1.000" stroke-opacity="1.000" stroke-linecap="round" stroke-linejoin="round" d="M -7753.058 8738.975 Q -7753.667 8739.400 -7753.478 8739.328 Q -7753.688 8739.111 -7753.944 8741.593 Q -7754.200 8744.074 -7754.119 8745.584 Q -7754.037 8747.094 -7753.619 8748.403 Q -7753.201 8749.713 -7752.928 8750.169 Q -7752.655 8750.625 -7752.270 8750.986 Q -7751.884 8751.348 -7751.587 8751.457 Q -7751.291 8751.566 -7751.132 8751.485 Q -7750.974 8751.404 -7750.841 8751.267 Q -7750.709 8751.129 -7750.630 8750.959 Q -7750.552 8750.789 -7750.408 8750.509 Q -7750.265 8750.229 -7750.227 8750.066 Q -7750.188 8749.904 -7749.851 8749.210 Q -7749.513 8748.516 -7749.192 8746.503 Q -7748.872 8744.490 -7749.793 8740.838 Q -7749.749 8740.627 -7749.887 8741.136 Q -7750.024 8741.645 -7750.146 8741.854 "></path>
  </g>
</svg>