<?xml version="1.0" encoding="UTF-8" standalone="yes"?>
<svg xmlns="http://www.w3.org/2000/svg" xmlns:xlink="http://www.w3.org/1999/xlink" width="49.971mm" height="35.804mm" version="1.1" viewBox="-8163.178 8142.843 259.689 186.070">
  <!--
	Exported with Concepts: Smarter Sketching
	Version: 1059 on iOS 15.6
	https://concepts.app/
	-->
  <title>类型、逻辑、运算、信息</title>
  <desc>Drawing exported from Concepts: Smarter Sketching</desc>
  <defs></defs>
  <g id="图解" opacity="1.000">
    <path id="STROKE_172059cf-c809-40fe-ad42-5fa7e26ab61e" opacity="1.000" fill="none" stroke="#000000" stroke-width="1.000" stroke-opacity="1.000" stroke-linecap="round" stroke-linejoin="round" d="M -8122.201 8157.037 Q -8122.749 8157.025 -8123.432 8157.036 Q -8124.115 8157.046 -8124.758 8157.178 Q -8125.400 8157.311 -8126.868 8158.070 Q -8128.335 8158.831 -8129.626 8159.785 Q -8130.917 8160.740 -8132.979 8162.725 Q -8135.041 8164.710 -8137.033 8166.807 Q -8139.025 8168.904 -8140.981 8171.289 Q -8142.937 8173.674 -8143.818 8174.963 Q -8144.701 8176.253 -8145.860 8178.078 Q -8147.019 8179.903 -8148.647 8182.987 Q -8150.276 8186.071 -8151.743 8189.211 Q -8153.209 8192.352 -8154.486 8195.959 Q -8155.764 8199.566 -8156.312 8202.194 Q -8156.861 8204.822 -8157.077 8206.187 Q -8157.293 8207.551 -8157.409 8208.377 Q -8157.525 8209.203 -8157.646 8210.384 Q -8157.767 8211.564 -8158.243 8214.777 Q -8158.720 8217.991 -8159.194 8224.342 Q -8159.668 8230.692 -8159.801 8234.246 Q -8159.935 8237.800 -8159.919 8240.900 Q -8159.903 8244.002 -8159.749 8246.123 Q -8159.595 8248.244 -8158.876 8251.326 Q -8158.157 8254.407 -8157.212 8256.658 Q -8156.267 8258.910 -8154.924 8261.512 Q -8153.582 8264.113 -8151.229 8269.021 Q -8148.878 8273.928 -8147.435 8276.599 Q -8145.991 8279.270 -8145.225 8280.566 Q -8144.458 8281.862 -8143.218 8283.800 Q -8141.977 8285.737 -8137.494 8289.141 Q -8133.012 8292.544 -8130.188 8294.449 Q -8127.365 8296.354 -8126.130 8297.309 Q -8124.896 8298.264 -8124.014 8298.898 Q -8123.131 8299.533 -8122.175 8300.163 Q -8121.219 8300.793 -8120.387 8301.291 Q -8119.556 8301.790 -8117.900 8302.705 Q -8116.244 8303.621 -8113.276 8304.762 Q -8110.308 8305.902 -8105.481 8306.981 Q -8100.655 8308.061 -8096.994 8308.545 Q -8093.333 8309.030 -8090.817 8308.988 Q -8088.302 8308.945 -8086.928 8309.014 Q -8085.553 8309.082 -8081.172 8308.163 Q -8076.790 8307.244 -8073.115 8306.402 Q -8069.440 8305.560 -8065.311 8304.350 Q -8061.180 8303.141 -8058.827 8302.177 Q -8056.473 8301.213 -8055.350 8300.766 Q -8054.227 8300.318 -8051.249 8298.480 Q -8048.271 8296.642 -8045.695 8294.764 Q -8043.119 8292.885 -8041.890 8292.031 Q -8040.660 8291.177 -8037.989 8289.244 Q -8035.318 8287.311 -8033.187 8285.160 Q -8031.056 8283.010 -8030.118 8281.896 Q -8029.180 8280.782 -8028.483 8280.031 Q -8027.787 8279.281 -8026.253 8276.881 Q -8024.720 8274.480 -8023.075 8271.107 Q -8021.430 8267.734 -8017.946 8259.184 "></path>
    <path id="STROKE_bbc5eca8-b632-42de-a86b-e145b774e395" opacity="1.000" fill="none" stroke="#000000" stroke-width="1.000" stroke-opacity="1.000" stroke-linecap="round" stroke-linejoin="round" d="M -8013.792 8244.586 Q -8013.727 8244.156 -8013.699 8238.639 Q -8013.672 8233.120 -8013.477 8228.776 Q -8013.282 8224.433 -8013.100 8222.100 Q -8012.917 8219.767 -8012.803 8218.438 Q -8012.689 8217.107 -8013.163 8214.313 Q -8013.636 8211.520 -8014.250 8209.668 Q -8014.863 8207.817 -8016.037 8203.322 Q -8017.211 8198.826 -8017.695 8196.427 Q -8018.179 8194.027 -8019.067 8190.402 Q -8019.955 8186.777 -8020.399 8184.845 Q -8020.843 8182.913 -8021.741 8180.028 Q -8022.639 8177.144 -8026.047 8172.265 Q -8029.454 8167.386 -8031.221 8164.892 Q -8032.988 8162.397 -8034.794 8160.502 Q -8036.600 8158.606 -8037.517 8157.741 Q -8038.434 8156.875 -8040.273 8155.372 Q -8042.113 8153.869 -8046.397 8152.663 Q -8050.682 8151.456 -8053.538 8150.824 Q -8056.395 8150.191 -8057.685 8149.818 Q -8058.975 8149.445 -8059.822 8149.221 Q -8060.670 8148.998 -8061.220 8148.845 Q -8061.770 8148.693 -8062.049 8148.639 Q -8062.329 8148.585 -8064.969 8147.690 Q -8067.609 8146.796 -8073.061 8146.411 Q -8078.512 8146.026 -8082.006 8146.106 Q -8085.499 8146.187 -8088.242 8146.166 Q -8090.984 8146.145 -8094.040 8146.702 Q -8097.096 8147.260 -8100.660 8148.219 Q -8104.224 8149.177 -8106.021 8149.668 Q -8107.819 8150.159 -8109.405 8150.866 Q -8110.991 8151.573 -8112.079 8152.148 Q -8113.167 8152.724 -8115.918 8153.922 Q -8118.668 8155.121 -8121.940 8156.515 Q -8125.212 8157.908 -8127.205 8158.815 Q -8129.199 8159.723 -8130.153 8160.506 Q -8131.107 8161.289 -8131.490 8161.653 "></path>
    <path id="STROKE_91425c24-7edf-4162-9294-f27de2ba34cc" opacity="1.000" fill="none" stroke="#000000" stroke-width="1.000" stroke-opacity="1.000" stroke-linecap="round" stroke-linejoin="round" d="M -7994.875 8162.090 Q -7994.836 8161.871 -7996.453 8161.562 Q -7998.070 8161.252 -7999.912 8161.892 Q -8001.754 8162.531 -8005.011 8163.826 Q -8008.267 8165.120 -8011.385 8166.311 Q -8014.502 8167.502 -8016.669 8168.656 Q -8018.835 8169.810 -8019.856 8170.481 Q -8020.877 8171.153 -8022.932 8172.432 Q -8024.985 8173.711 -8027.941 8176.160 Q -8030.896 8178.609 -8032.838 8180.271 Q -8034.780 8181.934 -8036.342 8183.068 Q -8037.903 8184.202 -8040.221 8186.625 Q -8042.539 8189.048 -8044.885 8192.342 Q -8047.230 8195.635 -8049.469 8199.818 Q -8051.708 8204.002 -8052.812 8206.104 Q -8053.916 8208.205 -8055.505 8212.109 Q -8057.094 8216.013 -8058.180 8219.969 Q -8059.266 8223.926 -8059.838 8227.029 Q -8060.410 8230.133 -8060.819 8234.051 Q -8061.228 8237.968 -8061.403 8240.016 Q -8061.579 8242.063 -8061.763 8244.891 Q -8061.948 8247.717 -8062.059 8251.236 Q -8062.169 8254.757 -8062.170 8257.073 Q -8062.171 8259.390 -8062.199 8261.734 Q -8062.228 8264.078 -8061.533 8267.098 Q -8060.839 8270.117 -8060.410 8271.732 Q -8059.981 8273.349 -8058.616 8276.986 Q -8057.251 8280.624 -8054.884 8284.340 Q -8052.518 8288.057 -8051.178 8289.860 Q -8049.838 8291.664 -8048.447 8293.264 Q -8047.056 8294.863 -8046.328 8295.625 Q -8045.599 8296.388 -8044.505 8297.477 Q -8043.412 8298.564 -8041.955 8299.797 Q -8040.498 8301.029 -8037.385 8303.249 Q -8034.271 8305.469 -8032.351 8306.643 Q -8030.429 8307.816 -8029.387 8308.339 Q -8028.344 8308.861 -8027.756 8309.191 Q -8027.168 8309.521 -8024.054 8310.666 Q -8020.940 8311.810 -8018.694 8312.576 Q -8016.449 8313.343 -8012.411 8314.000 Q -8008.373 8314.658 -8003.539 8314.643 Q -7998.705 8314.627 -7994.622 8314.741 Q -7990.539 8314.855 -7986.219 8314.484 Q -7981.899 8314.113 -7979.401 8313.713 Q -7976.903 8313.312 -7973.278 8312.160 Q -7969.654 8311.010 -7967.711 8310.285 Q -7965.769 8309.561 -7963.910 8308.770 Q -7962.050 8307.979 -7958.059 8306.084 Q -7954.066 8304.189 -7949.921 8301.613 Q -7945.776 8299.037 -7942.972 8297.246 Q -7940.167 8295.456 -7937.817 8293.732 Q -7935.469 8292.009 -7934.509 8291.304 Q -7933.549 8290.599 -7931.793 8289.193 Q -7930.038 8287.787 -7927.022 8284.638 Q -7924.007 8281.488 -7921.336 8278.359 Q -7918.666 8275.230 -7917.278 8273.384 Q -7915.891 8271.537 -7915.055 8270.033 Q -7914.219 8268.529 -7913.607 8267.525 Q -7912.995 8266.521 -7911.947 8263.984 Q -7910.898 8261.447 -7910.349 8258.797 Q -7909.800 8256.146 -7909.509 8252.355 Q -7909.219 8248.564 -7909.008 8246.666 Q -7908.796 8244.769 -7908.020 8240.682 Q -7907.244 8236.596 -7906.909 8232.041 Q -7906.575 8227.485 -7906.941 8220.623 Q -7907.307 8213.762 -7907.457 8210.383 Q -7907.607 8207.005 -7907.546 8205.188 Q -7907.485 8203.369 -7908.842 8200.405 Q -7910.198 8197.441 -7911.600 8195.564 Q -7913.001 8193.688 -7914.656 8191.336 Q -7916.312 8188.984 -7917.683 8186.682 Q -7919.054 8184.380 -7920.230 8182.707 Q -7921.407 8181.034 -7924.583 8179.562 Q -7927.760 8178.092 -7930.285 8176.688 Q -7932.811 8175.283 -7934.085 8174.406 Q -7935.360 8173.528 -7936.201 8172.885 Q -7937.042 8172.241 -7938.094 8171.546 Q -7939.146 8170.851 -7939.643 8170.583 Q -7940.139 8170.314 -7941.262 8169.708 Q -7942.385 8169.101 -7946.634 8168.312 Q -7950.882 8167.521 -7954.959 8166.602 Q -7959.035 8165.681 -7965.339 8164.348 Q -7971.644 8163.015 -7975.017 8162.348 Q -7978.390 8161.681 -7980.226 8161.434 Q -7982.061 8161.187 -7984.593 8161.210 Q -7987.124 8161.232 -7991.161 8161.565 Q -7995.199 8161.898 -7997.782 8161.957 Q -8000.366 8162.015 -8001.697 8162.427 Q -8003.028 8162.839 -8003.445 8163.041 "></path>
    <path id="STROKE_d1f91ffa-68ab-42c8-9171-780c6b63ad91" opacity="1.000" fill="none" stroke="#000000" stroke-width="1.000" stroke-opacity="1.000" stroke-linecap="round" stroke-linejoin="round" d="M -8127.502 8166.021 Q -8127.679 8165.693 -8127.663 8165.747 Q -8127.686 8165.713 -8127.720 8165.653 Q -8127.737 8165.653 -8127.754 8165.653 Q -8127.716 8166.278 -8127.819 8169.728 Q -8127.922 8173.177 -8127.154 8176.731 Q -8126.977 8176.787 -8126.851 8176.821 "></path>
    <path id="STROKE_b187b661-5cbe-47bd-a838-f25a8a8e571e" opacity="1.000" fill="none" stroke="#000000" stroke-width="1.000" stroke-opacity="1.000" stroke-linecap="round" stroke-linejoin="round" d="M -8128.874 8165.910 Q -8128.938 8165.969 -8129.070 8165.788 Q -8129.202 8165.608 -8129.418 8165.303 Q -8129.635 8164.999 -8129.601 8164.935 Q -8129.566 8164.871 -8129.387 8164.454 Q -8129.208 8164.037 -8127.597 8162.741 Q -8125.985 8161.444 -8124.752 8160.545 Q -8123.519 8159.646 -8122.011 8159.543 Q -8120.502 8159.439 -8119.706 8159.599 Q -8118.909 8159.758 -8117.840 8160.741 Q -8116.771 8161.724 -8115.999 8163.529 Q -8115.227 8165.335 -8114.965 8167.103 Q -8114.703 8168.869 -8114.548 8169.862 Q -8114.394 8170.855 -8114.951 8171.913 Q -8115.509 8172.971 -8116.417 8173.215 Q -8117.324 8173.459 -8118.732 8173.710 Q -8120.141 8173.960 -8123.610 8173.974 Q -8127.080 8173.986 -8127.137 8173.986 "></path>
    <path id="STROKE_0152647e-ff58-4fe9-b5f6-a4e909331730" opacity="1.000" fill="none" stroke="#000000" stroke-width="1.000" stroke-opacity="1.000" stroke-linecap="round" stroke-linejoin="round" d="M -8142.378 8196.102 Q -8142.378 8195.956 -8142.510 8195.553 L -8142.527 8195.553 Q -8142.527 8195.536 -8142.527 8195.519 Q -8142.944 8195.142 -8142.307 8197.694 Q -8141.670 8200.247 -8141.544 8200.393 "></path>
    <path id="STROKE_ff847d38-49cb-4e37-ade2-b08a7206b83a" opacity="1.000" fill="none" stroke="#000000" stroke-width="1.000" stroke-opacity="1.000" stroke-linecap="round" stroke-linejoin="round" d="M -8141.510 8193.806 Q -8141.497 8193.923 -8141.604 8193.689 Q -8141.710 8193.455 -8142.006 8193.094 Q -8142.302 8192.732 -8142.035 8192.244 Q -8141.768 8191.756 -8141.292 8191.195 Q -8140.815 8190.634 -8139.836 8189.686 Q -8138.856 8188.738 -8137.697 8188.197 Q -8136.539 8187.657 -8135.664 8187.695 Q -8134.790 8187.734 -8134.057 8188.011 Q -8133.323 8188.288 -8132.517 8189.859 Q -8131.711 8191.431 -8131.527 8193.010 Q -8131.344 8194.590 -8131.333 8195.561 Q -8131.323 8196.530 -8131.594 8196.910 Q -8131.865 8197.291 -8132.447 8197.694 Q -8133.029 8198.098 -8134.668 8198.717 Q -8136.308 8199.335 -8137.312 8199.217 Q -8138.317 8199.099 -8138.425 8198.971 "></path>
    <path id="STROKE_6acafa1c-59cf-407d-8eae-642172f98226" opacity="1.000" fill="none" stroke="#000000" stroke-width="1.000" stroke-opacity="1.000" stroke-linecap="round" stroke-linejoin="round" d="M -8114.615 8190.466 Q -8114.490 8190.142 -8115.197 8189.189 Q -8115.135 8188.936 -8115.252 8192.096 Q -8115.369 8195.255 -8114.963 8197.485 Q -8114.558 8199.716 -8114.432 8199.990 "></path>
    <path id="STROKE_1c500d0c-eff5-4409-a6b0-e639cf881c6f" opacity="1.000" fill="none" stroke="#000000" stroke-width="1.000" stroke-opacity="1.000" stroke-linecap="round" stroke-linejoin="round" d="M -8117.597 8191.990 Q -8117.377 8192.153 -8117.937 8191.698 Q -8118.497 8191.243 -8118.518 8190.501 Q -8118.538 8189.758 -8117.487 8188.373 Q -8116.437 8186.987 -8115.510 8186.105 Q -8114.583 8185.223 -8113.910 8184.965 Q -8113.237 8184.707 -8112.392 8184.657 Q -8111.547 8184.608 -8110.394 8185.539 Q -8109.241 8186.470 -8108.147 8188.532 Q -8107.053 8190.595 -8106.674 8192.038 Q -8106.295 8193.481 -8106.018 8195.443 Q -8105.741 8197.405 -8107.735 8198.045 Q -8109.729 8198.685 -8110.822 8198.719 Q -8111.916 8198.752 -8112.603 8198.804 Q -8113.291 8198.855 -8113.861 8198.114 Q -8114.432 8197.373 -8114.580 8197.043 "></path>
    <path id="STROKE_695eb84d-a0f7-4877-ac19-c7fa98f3e69f" opacity="1.000" fill="none" stroke="#000000" stroke-width="1.000" stroke-opacity="1.000" stroke-linecap="round" stroke-linejoin="round" d="M -8089.239 8166.672 Q -8089.501 8166.236 -8089.601 8166.154 Q -8089.701 8166.073 -8089.718 8166.073 L -8089.718 8166.056 Q -8089.735 8165.699 -8089.280 8168.205 Q -8088.825 8170.711 -8088.483 8172.366 Q -8088.142 8174.021 -8088.050 8174.167 "></path>
    <path id="STROKE_0a92de44-2c70-4cdd-86ea-9a6a358a44db" opacity="1.000" fill="none" stroke="#000000" stroke-width="1.000" stroke-opacity="1.000" stroke-linecap="round" stroke-linejoin="round" d="M -8087.936 8168.351 Q -8087.785 8168.185 -8088.044 8167.002 Q -8088.303 8165.819 -8088.074 8164.867 Q -8087.846 8163.916 -8087.015 8163.130 Q -8086.184 8162.344 -8085.306 8161.954 Q -8084.427 8161.563 -8083.807 8161.646 Q -8083.187 8161.729 -8082.399 8162.086 Q -8081.612 8162.442 -8081.031 8163.316 Q -8080.451 8164.191 -8080.214 8165.710 Q -8079.976 8167.229 -8080.021 8168.302 Q -8080.067 8169.375 -8080.349 8169.953 Q -8080.631 8170.531 -8080.971 8170.911 Q -8081.310 8171.291 -8082.906 8171.876 Q -8084.503 8172.462 -8087.210 8172.205 Q -8087.394 8171.769 -8087.502 8171.477 "></path>
    <path id="STROKE_86e48850-b0e2-4810-8e66-5cbd3a01846a" opacity="1.000" fill="none" stroke="#000000" stroke-width="1.000" stroke-opacity="1.000" stroke-linecap="round" stroke-linejoin="round" d="M -8065.977 8161.037 Q -8065.977 8161.020 -8065.977 8160.968 Q -8066.241 8160.989 -8065.837 8167.051 Q -8065.434 8173.113 -8065.394 8173.259 "></path>
    <path id="STROKE_63a01c96-123a-448c-b153-687d959b2c0d" opacity="1.000" fill="none" stroke="#000000" stroke-width="1.000" stroke-opacity="1.000" stroke-linecap="round" stroke-linejoin="round" d="M -8066.273 8164.968 Q -8066.268 8164.698 -8066.602 8163.702 Q -8066.936 8162.705 -8066.187 8161.544 Q -8065.438 8160.384 -8064.593 8159.628 Q -8063.749 8158.873 -8062.983 8158.674 Q -8062.217 8158.475 -8061.437 8158.501 Q -8060.655 8158.528 -8060.158 8159.152 Q -8059.662 8159.776 -8059.468 8161.130 Q -8059.274 8162.484 -8059.374 8163.635 Q -8059.473 8164.787 -8060.120 8166.272 Q -8060.768 8167.758 -8061.718 8168.631 Q -8062.667 8169.504 -8063.405 8169.637 Q -8064.143 8169.769 -8064.377 8169.841 "></path>
    <path id="STROKE_7550d469-3f04-4fa2-b2a4-9b9fa9f1f24a" opacity="1.000" fill="none" stroke="#000000" stroke-width="1.000" stroke-opacity="1.000" stroke-linecap="round" stroke-linejoin="round" d="M -8038.578 8195.082 Q -8038.244 8194.927 -8037.881 8207.630 Q -8038.030 8207.720 -8038.178 8207.775 "></path>
    <path id="STROKE_f66ff83a-d456-44a4-86d8-494c615d57d2" opacity="1.000" fill="none" stroke="#000000" stroke-width="1.000" stroke-opacity="1.000" stroke-linecap="round" stroke-linejoin="round" d="M -8039.012 8199.373 Q -8038.821 8198.846 -8038.961 8198.016 Q -8039.102 8197.186 -8039.076 8196.507 Q -8039.050 8195.828 -8038.165 8194.862 Q -8037.280 8193.896 -8036.317 8193.303 Q -8035.355 8192.708 -8034.112 8192.400 Q -8032.869 8192.093 -8031.783 8192.905 Q -8030.698 8193.718 -8030.259 8195.559 Q -8029.820 8197.400 -8029.784 8198.350 Q -8029.747 8199.299 -8029.777 8200.416 Q -8029.808 8201.533 -8030.486 8202.609 Q -8031.164 8203.686 -8031.759 8204.125 Q -8032.354 8204.564 -8033.700 8204.671 Q -8035.045 8204.777 -8035.812 8204.476 Q -8036.579 8204.174 -8036.796 8204.066 "></path>
    <path id="STROKE_5080efa2-0044-4fcf-aa77-c06ad21c638f" opacity="1.000" fill="none" stroke="#000000" stroke-width="1.000" stroke-opacity="1.000" stroke-linecap="round" stroke-linejoin="round" d="M -8041.297 8216.862 Q -8041.379 8217.315 -8041.389 8217.270 Q -8041.469 8218.016 -8041.463 8217.925 Q -8041.529 8218.053 -8041.504 8220.059 Q -8041.479 8222.064 -8041.323 8223.811 Q -8041.166 8225.556 -8041.149 8225.701 "></path>
    <path id="STROKE_b8d7fdbc-f0c0-438f-8afb-41d0c76c58c4" opacity="1.000" fill="none" stroke="#000000" stroke-width="1.000" stroke-opacity="1.000" stroke-linecap="round" stroke-linejoin="round" d="M -8040.429 8216.905 Q -8040.366 8216.652 -8040.334 8216.000 Q -8040.303 8215.347 -8039.954 8215.002 Q -8039.605 8214.656 -8038.995 8214.213 Q -8038.385 8213.771 -8037.388 8213.567 Q -8036.391 8213.364 -8035.735 8213.383 Q -8035.079 8213.400 -8034.250 8213.705 Q -8033.421 8214.009 -8032.871 8215.168 Q -8032.321 8216.326 -8032.234 8217.355 Q -8032.146 8218.385 -8032.206 8219.666 Q -8032.265 8220.947 -8032.826 8221.691 Q -8033.388 8222.436 -8033.941 8223.008 Q -8034.496 8223.581 -8036.643 8223.605 Q -8038.790 8223.629 -8039.115 8223.629 "></path>
    <path id="STROKE_3706feb1-1c4b-4451-ace7-b1337409a3a0" opacity="1.000" fill="none" stroke="#000000" stroke-width="1.000" stroke-opacity="1.000" stroke-linecap="round" stroke-linejoin="round" d="M -8046.416 8239.457 Q -8047.564 8239.549 -8047.379 8243.792 Q -8047.193 8248.035 -8047.102 8248.253 "></path>
    <path id="STROKE_4551a42e-44e5-4c7b-b85e-1b124b255fa8" opacity="1.000" fill="none" stroke="#000000" stroke-width="1.000" stroke-opacity="1.000" stroke-linecap="round" stroke-linejoin="round" d="M -8047.936 8240.219 Q -8047.906 8240.219 -8048.667 8240.219 Q -8048.876 8240.368 -8047.372 8239.347 Q -8045.867 8238.325 -8044.844 8237.717 Q -8043.821 8237.109 -8043.170 8237.005 Q -8042.520 8236.900 -8041.855 8236.881 Q -8041.191 8236.862 -8040.249 8237.953 Q -8039.306 8239.044 -8038.879 8240.846 Q -8038.452 8242.647 -8038.347 8243.861 Q -8038.242 8245.074 -8038.501 8245.749 Q -8038.761 8246.424 -8039.081 8246.576 Q -8039.402 8246.728 -8039.784 8246.955 Q -8040.167 8247.182 -8040.850 8247.339 Q -8041.533 8247.496 -8042.102 8247.584 Q -8042.671 8247.671 -8043.318 8247.614 Q -8043.965 8247.558 -8044.466 8247.490 Q -8044.968 8247.422 -8045.101 8246.565 Q -8045.233 8245.709 -8045.182 8245.452 "></path>
    <path id="STROKE_b74ca4e5-723e-43dc-b5c7-9c5cf5d98d54" opacity="1.000" fill="none" stroke="#000000" stroke-width="1.000" stroke-opacity="1.000" stroke-linecap="round" stroke-linejoin="round" d="M -8031.277 8235.560 Q -8031.277 8235.543 -8031.277 8235.491 Q -8030.920 8235.275 -8030.421 8241.275 "></path>
    <path id="STROKE_7f4842f9-c2f5-4017-8748-76c23aba9bd4" opacity="1.000" fill="none" stroke="#000000" stroke-width="1.000" stroke-opacity="1.000" stroke-linecap="round" stroke-linejoin="round" d="M -8030.592 8237.375 Q -8030.652 8236.784 -8030.717 8236.854 Q -8030.813 8236.123 -8030.774 8236.254 Q -8030.875 8235.997 -8030.000 8235.087 Q -8029.125 8234.177 -8028.302 8233.840 Q -8027.479 8233.503 -8027.027 8233.437 Q -8026.576 8233.370 -8025.763 8233.562 Q -8024.949 8233.754 -8024.690 8236.352 Q -8024.432 8238.948 -8024.423 8240.062 "></path>
    <path id="STROKE_3d95bb7e-cc7d-4367-9636-193dafba3354" opacity="1.000" fill="none" stroke="#000000" stroke-width="1.000" stroke-opacity="1.000" stroke-linecap="round" stroke-linejoin="round" d="M -8047.901 8258.077 Q -8047.901 8257.561 -8047.901 8257.691 Q -8047.918 8257.675 -8047.936 8257.675 Q -8047.673 8257.706 -8046.084 8266.291 Q -8046.216 8266.094 -8046.347 8265.896 "></path>
    <path id="STROKE_7c8e70b7-2ff7-4e3d-988d-d13e9ee8f3c0" opacity="1.000" fill="none" stroke="#000000" stroke-width="1.000" stroke-opacity="1.000" stroke-linecap="round" stroke-linejoin="round" d="M -8047.250 8257.854 Q -8047.199 8257.808 -8048.484 8257.752 Q -8048.273 8258.054 -8046.170 8257.027 Q -8044.066 8256.000 -8042.740 8255.504 Q -8041.413 8255.009 -8040.384 8254.880 Q -8039.354 8254.751 -8038.872 8254.857 Q -8038.389 8254.963 -8038.053 8254.933 Q -8037.717 8254.902 -8035.762 8264.060 Q -8035.932 8264.199 -8035.942 8264.289 Q -8035.952 8264.380 -8036.888 8264.610 Q -8037.823 8264.841 -8038.442 8264.924 Q -8039.061 8265.008 -8040.179 8264.957 Q -8041.297 8264.906 -8044.256 8265.108 Q -8047.216 8265.311 -8047.467 8265.383 "></path>
    <path id="STROKE_6ee1138e-2dec-434d-80ad-1918ae2faef5" opacity="1.000" fill="none" stroke="#000000" stroke-width="1.000" stroke-opacity="1.000" stroke-linecap="round" stroke-linejoin="round" d="M -7994.875 8185.404 Q -7994.858 8185.353 -7994.841 8185.224 Q -7994.864 8185.077 -7994.823 8188.983 Q -7994.782 8192.891 -7995.059 8200.829 Q -7994.812 8200.781 -7985.004 8197.935 Q -7985.004 8197.942 -7984.787 8198.140 Q -7984.847 8197.729 -7984.944 8195.646 Q -7985.041 8193.563 -7985.028 8191.756 Q -7985.016 8189.949 -7985.032 8188.934 Q -7985.048 8187.919 -7985.384 8187.270 Q -7985.720 8186.620 -7986.102 8186.460 Q -7986.483 8186.300 -7986.922 8186.188 Q -7987.360 8186.077 -7987.334 8186.099 Q -7987.309 8186.120 -7987.422 8186.092 Q -7987.535 8186.063 -7989.275 8185.791 Q -7991.016 8185.519 -7996.178 8188.842 Q -7996.127 8189.005 -7996.075 8189.112 "></path>
    <path id="STROKE_413b7d5b-6d91-4e9d-a1e9-307166e5c4d5" opacity="1.000" fill="none" stroke="#000000" stroke-width="1.000" stroke-opacity="1.000" stroke-linecap="round" stroke-linejoin="round" d="M -7962.279 8181.146 Q -7962.296 8181.147 -7962.359 8181.147 Q -7962.438 8181.331 -7962.337 8183.135 Q -7962.236 8184.939 -7962.557 8187.119 Q -7962.878 8189.298 -7963.410 8191.408 Q -7963.748 8191.427 -7963.713 8188.967 Q -7963.679 8186.506 -7963.624 8184.863 Q -7963.569 8183.219 -7963.730 8181.918 Q -7963.747 8181.918 -7963.764 8181.918 Q -7963.565 8181.596 -7962.274 8181.015 Q -7960.984 8180.433 -7960.202 8180.204 Q -7959.421 8179.976 -7958.703 8180.172 Q -7957.985 8180.368 -7957.880 8180.548 Q -7957.775 8180.728 -7957.674 8180.707 Q -7957.573 8180.687 -7956.798 8182.013 Q -7956.023 8183.339 -7955.980 8185.178 Q -7955.938 8187.017 -7955.912 8187.911 Q -7955.887 8188.806 -7956.231 8189.591 Q -7956.577 8190.377 -7956.772 8190.720 Q -7956.968 8191.062 -7957.241 8191.227 Q -7957.515 8191.392 -7957.502 8191.379 Q -7957.489 8191.367 -7957.589 8191.403 Q -7957.689 8191.439 -7957.953 8191.468 Q -7958.216 8191.496 -7958.648 8191.529 Q -7959.080 8191.562 -7959.293 8191.541 Q -7959.506 8191.520 -7959.605 8191.576 Q -7959.705 8191.632 -7960.953 8191.436 Q -7962.202 8191.239 -7963.513 8190.791 Q -7963.513 8190.774 -7963.496 8190.710 Q -7963.479 8190.646 -7963.444 8190.534 "></path>
    <path id="STROKE_20572a03-8cbc-4b3e-b0f0-733ecebb183a" opacity="1.000" fill="none" stroke="#000000" stroke-width="1.000" stroke-opacity="1.000" stroke-linecap="round" stroke-linejoin="round" d="M -7984.936 8217.813 Q -7984.936 8217.796 -7984.953 8217.736 Q -7984.970 8217.736 -7985.004 8217.736 Q -7984.991 8217.686 -7985.015 8221.914 Q -7985.038 8226.143 -7985.073 8226.216 "></path>
    <path id="STROKE_222fcc53-2c28-4710-878d-8eab219ff70e" opacity="1.000" fill="none" stroke="#000000" stroke-width="1.000" stroke-opacity="1.000" stroke-linecap="round" stroke-linejoin="round" d="M -7985.689 8220.212 Q -7985.880 8219.732 -7985.868 8219.794 Q -7985.856 8219.855 -7985.863 8219.542 Q -7985.870 8219.229 -7985.904 8219.102 Q -7985.938 8218.976 -7984.920 8218.020 Q -7983.902 8217.062 -7982.689 8216.591 Q -7981.477 8216.119 -7980.601 8215.925 Q -7979.724 8215.730 -7978.749 8216.261 Q -7977.773 8216.791 -7977.439 8219.457 Q -7977.104 8222.122 -7977.162 8223.467 Q -7977.219 8224.812 -7977.169 8225.453 Q -7977.119 8226.094 -7977.547 8226.537 Q -7977.975 8226.979 -7978.339 8227.027 Q -7978.703 8227.074 -7979.424 8227.180 Q -7980.144 8227.286 -7981.370 8227.254 Q -7982.596 8227.222 -7983.383 8226.826 Q -7984.170 8226.430 -7984.387 8226.284 "></path>
    <path id="STROKE_1a0246c1-dc81-413d-b2c1-1d1539400ffa" opacity="1.000" fill="none" stroke="#000000" stroke-width="1.000" stroke-opacity="1.000" stroke-linecap="round" stroke-linejoin="round" d="M -7998.726 8243.603 Q -7998.743 8243.603 -7999.143 8243.727 Q -7999.053 8243.947 -7999.343 8253.350 Q -7999.320 8253.311 -7999.297 8253.272 "></path>
    <path id="STROKE_7f99546e-c548-4d2d-80a2-1311d5b4c55b" opacity="1.000" fill="none" stroke="#000000" stroke-width="1.000" stroke-opacity="1.000" stroke-linecap="round" stroke-linejoin="round" d="M -8000.394 8243.166 Q -8000.853 8242.887 -8000.862 8242.978 Q -8000.937 8242.978 -8001.045 8242.978 Q -8000.829 8243.127 -7999.595 8242.492 Q -7998.361 8241.858 -7997.070 8241.536 Q -7995.778 8241.214 -7994.760 8241.238 Q -7993.742 8241.263 -7992.979 8242.157 Q -7992.215 8243.052 -7991.871 8244.973 Q -7991.526 8246.895 -7991.660 8248.449 Q -7991.794 8250.003 -7992.087 8250.706 Q -7992.380 8251.409 -7992.694 8251.945 Q -7993.009 8252.481 -7993.975 8252.750 Q -7994.939 8253.020 -7995.750 8252.102 Q -7996.561 8251.183 -7996.761 8250.874 "></path>
    <path id="STROKE_adf465c5-24cb-487d-bfb6-10d9f8b27d72" opacity="1.000" fill="none" stroke="#000000" stroke-width="1.000" stroke-opacity="1.000" stroke-linecap="round" stroke-linejoin="round" d="M -8078.464 8218.943 Q -8078.464 8218.930 -8078.464 8217.154 Q -8077.746 8217.098 -8077.379 8221.102 Q -8077.013 8225.106 -8077.048 8225.162 "></path>
    <path id="STROKE_f1cb6c16-696e-4f93-a063-ca81ce778187" opacity="1.000" fill="none" stroke="#000000" stroke-width="1.000" stroke-opacity="1.000" stroke-linecap="round" stroke-linejoin="round" d="M -8078.064 8221.702 Q -8078.284 8221.288 -8078.562 8220.932 Q -8078.841 8220.574 -8078.938 8219.674 Q -8079.034 8218.773 -8078.465 8218.064 Q -8077.896 8217.355 -8076.878 8216.790 Q -8075.860 8216.225 -8074.873 8216.086 Q -8073.886 8215.948 -8073.331 8215.947 Q -8072.777 8215.945 -8072.118 8216.625 Q -8071.459 8217.305 -8070.996 8218.365 Q -8070.533 8219.425 -8070.391 8220.794 Q -8070.249 8222.163 -8070.269 8223.184 Q -8070.288 8224.203 -8070.348 8224.579 Q -8070.408 8224.955 -8071.958 8225.199 Q -8073.507 8225.442 -8074.887 8225.415 Q -8076.266 8225.388 -8076.931 8225.010 Q -8077.596 8224.631 -8077.779 8224.434 "></path>
    <path id="STROKE_4999ac11-9ce7-45c9-85cd-1b7f6b7b4174" opacity="1.000" fill="none" stroke="#000000" stroke-width="1.000" stroke-opacity="1.000" stroke-linecap="round" stroke-linejoin="round" d="M -8073.997 8188.496 Q -8073.997 8187.875 -8073.997 8187.990 Q -8073.997 8187.935 -8073.997 8187.913 Q -8074.023 8187.924 -8073.842 8191.768 Q -8073.661 8195.610 -8073.849 8197.699 Q -8074.037 8199.788 -8074.180 8199.879 "></path>
    <path id="STROKE_2f023b30-e40a-44de-9009-1a57da5dbe18" opacity="1.000" fill="none" stroke="#000000" stroke-width="1.000" stroke-opacity="1.000" stroke-linecap="round" stroke-linejoin="round" d="M -8074.580 8193.446 Q -8074.437 8193.443 -8074.544 8192.303 Q -8074.652 8191.162 -8074.185 8189.869 Q -8073.718 8188.576 -8072.933 8187.886 Q -8072.148 8187.196 -8071.305 8187.123 Q -8070.461 8187.050 -8069.954 8187.129 Q -8069.447 8187.208 -8068.819 8187.917 Q -8068.191 8188.626 -8067.947 8189.562 Q -8067.703 8190.499 -8067.814 8191.387 Q -8067.925 8192.274 -8068.325 8193.075 Q -8068.724 8193.876 -8069.435 8194.615 Q -8070.145 8195.355 -8070.974 8195.848 Q -8071.802 8196.339 -8072.637 8196.438 Q -8073.472 8196.538 -8073.631 8196.538 "></path>
    <path id="STROKE_ee258a31-d2cc-4737-b966-32e96542eede" opacity="1.000" fill="none" stroke="#000000" stroke-width="1.000" stroke-opacity="1.000" stroke-linecap="round" stroke-linejoin="round" d="M -8081.264 8239.816 Q -8081.264 8239.782 -8081.384 8239.525 L -8081.401 8239.525 Q -8081.596 8239.149 -8080.935 8241.998 Q -8080.273 8244.848 -8079.994 8247.233 Q -8079.715 8249.619 -8079.664 8249.709 "></path>
    <path id="STROKE_d5a25a04-d350-4cdd-b1a4-26876f22e31f" opacity="1.000" fill="none" stroke="#000000" stroke-width="1.000" stroke-opacity="1.000" stroke-linecap="round" stroke-linejoin="round" d="M -8081.115 8239.020 Q -8081.402 8238.705 -8082.132 8238.378 Q -8082.158 8238.252 -8080.555 8237.781 Q -8078.952 8237.312 -8077.517 8237.513 Q -8076.081 8237.714 -8075.159 8238.363 Q -8074.238 8239.012 -8073.613 8240.227 Q -8072.989 8241.441 -8072.983 8242.661 Q -8072.977 8243.881 -8073.157 8244.444 Q -8073.338 8245.008 -8073.804 8245.807 Q -8074.271 8246.605 -8074.967 8247.417 Q -8075.663 8248.229 -8076.433 8248.709 Q -8077.202 8249.188 -8077.670 8249.344 Q -8078.138 8249.500 -8078.433 8249.450 Q -8078.727 8249.400 -8078.833 8249.109 Q -8078.938 8248.818 -8079.013 8248.544 "></path>
    <path id="STROKE_0526767b-04f0-4093-b3eb-0b14d124dd20" opacity="1.000" fill="none" stroke="#000000" stroke-width="1.000" stroke-opacity="1.000" stroke-linecap="round" stroke-linejoin="round" d="M -8083.686 8268.440 Q -8083.686 8268.295 -8083.731 8267.936 Q -8083.480 8267.966 -8081.949 8281.117 Q -8081.892 8281.134 -8081.835 8281.134 "></path>
    <path id="STROKE_43493ae3-f1d3-44d4-9416-2dd1403733ce" opacity="1.000" fill="none" stroke="#000000" stroke-width="1.000" stroke-opacity="1.000" stroke-linecap="round" stroke-linejoin="round" d="M -8084.303 8271.857 Q -8084.087 8271.191 -8084.161 8271.356 Q -8084.234 8271.521 -8084.070 8271.326 Q -8083.906 8271.132 -8083.472 8270.973 Q -8083.038 8270.814 -8082.320 8270.668 Q -8081.602 8270.521 -8080.499 8270.678 Q -8079.396 8270.833 -8078.313 8271.558 Q -8077.230 8272.282 -8076.203 8273.373 Q -8075.177 8274.463 -8074.845 8275.559 Q -8074.512 8276.654 -8075.021 8277.893 Q -8075.531 8279.131 -8076.995 8279.909 Q -8078.459 8280.688 -8079.444 8281.097 Q -8080.429 8281.506 -8080.909 8281.211 Q -8081.389 8280.915 -8081.515 8280.629 "></path>
    <path id="STROKE_c0a4d110-02fa-4d8b-9673-76c6f6add192" opacity="1.000" fill="none" stroke="#000000" stroke-width="1.000" stroke-opacity="1.000" stroke-linecap="round" stroke-linejoin="round" d="M -8001.377 8257.237 Q -8001.864 8256.856 -8001.959 8260.791 Q -8002.054 8264.725 -8001.792 8267.527 Q -8001.531 8270.329 -8001.548 8270.548 "></path>
    <path id="STROKE_05c4e7d8-1eb8-4085-8059-a2b4e3254676" opacity="1.000" fill="none" stroke="#000000" stroke-width="1.000" stroke-opacity="1.000" stroke-linecap="round" stroke-linejoin="round" d="M -8002.245 8261.674 Q -8002.441 8261.389 -8002.479 8261.438 Q -8002.633 8260.975 -8001.394 8260.113 Q -8000.155 8259.252 -7998.905 8258.896 Q -7997.655 8258.541 -7996.782 8258.432 Q -7995.910 8258.321 -7995.230 8258.835 Q -7994.551 8259.349 -7994.361 8260.586 Q -7994.172 8261.823 -7994.250 8263.174 Q -7994.329 8264.525 -7994.988 8265.795 Q -7995.648 8267.064 -7996.360 8268.082 Q -7997.073 8269.099 -7997.582 8269.488 Q -7998.090 8269.877 -7998.516 8269.965 Q -7998.942 8270.053 -7999.231 8269.703 Q -7999.520 8269.353 -7999.663 8269.135 "></path>
    <path id="STROKE_21f9d857-ce46-4959-978d-b5e1339d326f" opacity="1.000" fill="none" stroke="#000000" stroke-width="1.000" stroke-opacity="1.000" stroke-linecap="round" stroke-linejoin="round" d="M -8017.201 8277.828 Q -8017.178 8277.828 -8017.155 8277.828 Q -8017.312 8277.449 -8017.938 8288.046 Q -8018.046 8288.062 -8018.138 8288.080 "></path>
    <path id="STROKE_79d1e981-2217-4599-aee5-291f08f3e3c1" opacity="1.000" fill="none" stroke="#000000" stroke-width="1.000" stroke-opacity="1.000" stroke-linecap="round" stroke-linejoin="round" d="M -8018.138 8279.857 Q -8017.910 8279.480 -8017.921 8279.532 Q -8017.451 8279.287 -8017.423 8279.298 Q -8017.395 8279.309 -8017.375 8279.311 Q -8017.355 8279.312 -8017.435 8279.316 Q -8017.515 8279.320 -8017.064 8279.272 Q -8016.613 8279.225 -8015.533 8279.167 Q -8014.453 8279.109 -8013.521 8279.124 Q -8012.589 8279.139 -8011.787 8279.811 Q -8010.984 8280.483 -8010.808 8281.024 Q -8010.630 8281.565 -8010.468 8282.295 Q -8010.306 8283.024 -8010.689 8284.281 Q -8011.073 8285.537 -8012.005 8286.572 Q -8012.938 8287.608 -8014.442 8287.733 Q -8014.728 8287.245 -8014.904 8286.847 "></path>
    <path id="STROKE_01f431d6-cae2-43e9-98c3-05f24d22ebe7" opacity="1.000" fill="none" stroke="#000000" stroke-width="1.000" stroke-opacity="1.000" stroke-linecap="round" stroke-linejoin="round" d="M -8002.896 8214.688 Q -8002.879 8214.666 -8002.862 8214.576 Q -8002.425 8215.256 -8002.372 8221.316 Q -8002.319 8227.376 -8002.428 8227.483 "></path>
    <path id="STROKE_2be5fecd-f0b8-4dc4-8576-4dd526424002" opacity="1.000" fill="none" stroke="#000000" stroke-width="1.000" stroke-opacity="1.000" stroke-linecap="round" stroke-linejoin="round" d="M -8003.696 8219.235 Q -8003.565 8219.148 -8003.692 8217.740 Q -8003.820 8216.333 -8003.128 8215.605 Q -8002.436 8214.877 -8001.806 8214.621 Q -8001.175 8214.366 -8000.557 8214.253 Q -7999.938 8214.140 -7998.959 8214.773 Q -7997.980 8215.408 -7997.376 8216.918 Q -7996.771 8218.429 -7996.598 8219.621 Q -7996.425 8220.812 -7996.522 8221.793 Q -7996.619 8222.774 -7997.225 8223.559 Q -7997.831 8224.344 -7998.825 8224.928 Q -7999.818 8225.511 -8002.045 8225.561 Q -8002.092 8225.500 -8002.111 8225.238 Q -8002.131 8224.978 -8002.165 8224.726 "></path>
    <path id="STROKE_142fcd8a-164d-4316-816d-b372db60add1" opacity="1.000" fill="none" stroke="#000000" stroke-width="1.000" stroke-opacity="1.000" stroke-linecap="round" stroke-linejoin="round" d="M -7972.481 8233.599 Q -7973.280 8233.391 -7973.099 8233.543 Q -7973.576 8234.746 -7973.296 8238.109 Q -7973.016 8241.474 -7972.558 8243.398 Q -7972.099 8245.324 -7972.047 8245.452 "></path>
    <path id="STROKE_92f92dad-6e60-4ef7-b21d-4be817e68f5f" opacity="1.000" fill="none" stroke="#000000" stroke-width="1.000" stroke-opacity="1.000" stroke-linecap="round" stroke-linejoin="round" d="M -7972.550 8234.652 Q -7972.650 8234.224 -7972.887 8233.952 Q -7973.123 8233.681 -7972.873 8232.986 Q -7972.623 8232.292 -7971.829 8231.684 Q -7971.035 8231.074 -7970.031 8230.816 Q -7969.026 8230.558 -7968.030 8231.088 Q -7967.034 8231.617 -7966.359 8232.891 Q -7965.684 8234.164 -7965.557 8235.778 Q -7965.431 8237.393 -7965.391 8238.371 Q -7965.351 8239.351 -7965.911 8240.672 Q -7966.472 8241.993 -7967.122 8242.799 Q -7967.773 8243.605 -7968.822 8243.945 Q -7969.871 8244.284 -7970.485 8244.160 Q -7971.099 8244.035 -7971.248 8243.851 "></path>
    <path id="STROKE_c59fd320-25aa-4ae7-b89c-75edd12a3938" opacity="1.000" fill="none" stroke="#000000" stroke-width="1.000" stroke-opacity="1.000" stroke-linecap="round" stroke-linejoin="round" d="M -8138.862 8210.098 Q -8138.880 8210.098 -8139.074 8210.080 Q -8139.100 8209.430 -8138.977 8209.594 Q -8139.141 8209.425 -8137.149 8209.149 Q -8136.634 8209.761 -8136.528 8211.051 Q -8136.422 8212.340 -8136.047 8213.256 Q -8135.672 8214.173 -8135.422 8214.323 Q -8135.171 8214.474 -8134.762 8214.496 Q -8134.353 8214.518 -8134.184 8214.258 Q -8134.015 8213.999 -8133.802 8213.484 Q -8133.589 8212.971 -8133.474 8212.721 "></path>
    <path id="STROKE_ec5cd230-6029-484b-a772-4964c58165ca" opacity="1.000" fill="none" stroke="#000000" stroke-width="1.000" stroke-opacity="1.000" stroke-linecap="round" stroke-linejoin="round" d="M -8134.007 8207.855 Q -8134.616 8208.013 -8134.491 8207.974 Q -8134.694 8208.037 -8134.951 8208.192 Q -8135.208 8208.348 -8135.187 8208.379 Q -8135.165 8208.410 -8135.200 8208.410 Q -8135.236 8208.409 -8135.268 8208.512 Q -8135.300 8208.614 -8136.105 8210.977 Q -8136.911 8213.339 -8138.668 8215.880 Q -8138.593 8215.327 -8138.485 8215.180 Q -8138.378 8215.031 -8138.245 8214.800 "></path>
    <path id="STROKE_9656834d-4998-4385-8f2a-0e17d5e13904" opacity="1.000" fill="none" stroke="#000000" stroke-width="1.000" stroke-opacity="1.000" stroke-linecap="round" stroke-linejoin="round" d="M -8131.391 8211.868 Q -8131.391 8211.868 -8131.391 8211.859 Q -8131.391 8211.850 -8131.391 8211.795 Q -8131.399 8211.466 -8131.381 8212.571 Q -8131.363 8213.677 -8131.458 8215.571 L -8131.476 8215.571 Q -8131.476 8216.231 -8131.476 8216.012 Q -8131.476 8216.053 -8131.476 8216.070 Q -8131.503 8216.219 -8131.468 8215.836 Q -8131.434 8215.453 -8131.391 8215.299 "></path>
    <path id="STROKE_17371b65-eac8-4b9e-a7df-0cf05f59e186" opacity="1.000" fill="none" stroke="#000000" stroke-width="1.000" stroke-opacity="1.000" stroke-linecap="round" stroke-linejoin="round" d="M -8126.439 8214.527 Q -8126.439 8214.527 -8126.418 8214.527 Q -8126.396 8214.527 -8126.106 8214.545 Q -8125.434 8214.271 -8127.589 8217.995 Q -8127.571 8217.841 -8127.553 8217.686 "></path>
    <path id="STROKE_3c04f544-9017-4611-9fe8-a0d6ac4625d6" opacity="1.000" fill="none" stroke="#000000" stroke-width="1.000" stroke-opacity="1.000" stroke-linecap="round" stroke-linejoin="round" d="M -8123.352 8212.059 Q -8123.248 8211.639 -8121.705 8211.174 Q -8121.208 8211.284 -8121.862 8216.279 Q -8121.882 8216.351 -8121.631 8216.332 Q -8121.380 8216.313 -8120.773 8215.471 Q -8120.167 8214.627 -8119.973 8214.337 "></path>
    <path id="STROKE_ef4f1edf-033f-49c2-ac63-e8c8260f16ff" opacity="1.000" fill="none" stroke="#000000" stroke-width="1.000" stroke-opacity="1.000" stroke-linecap="round" stroke-linejoin="round" d="M -8121.547 8208.056 Q -8121.547 8208.033 -8121.547 8207.919 Q -8121.589 8207.901 -8121.777 8207.919 Q -8121.774 8208.552 -8121.759 8208.419 Q -8121.626 8208.573 -8121.511 8208.673 "></path>
    <path id="STROKE_f41e13fe-2efd-4796-bcc6-4af3b660dbd1" opacity="1.000" fill="none" stroke="#000000" stroke-width="1.000" stroke-opacity="1.000" stroke-linecap="round" stroke-linejoin="round" d="M -7953.301 8235.268 Q -7953.301 8235.268 -7953.379 8235.185 Q -7953.458 8235.102 -7952.924 8235.015 Q -7952.390 8234.928 -7952.060 8234.979 Q -7951.729 8235.028 -7951.550 8235.193 Q -7951.370 8235.358 -7951.290 8235.527 Q -7951.210 8235.697 -7951.052 8236.057 Q -7950.894 8236.415 -7950.824 8237.668 Q -7950.754 8238.922 -7949.845 8240.542 Q -7950.008 8240.736 -7949.472 8240.457 Q -7948.937 8240.179 -7948.797 8240.006 "></path>
    <path id="STROKE_81327fdc-f552-4469-ad93-47602ffb2eb5" opacity="1.000" fill="none" stroke="#000000" stroke-width="1.000" stroke-opacity="1.000" stroke-linecap="round" stroke-linejoin="round" d="M -7948.301 8233.453 Q -7948.737 8233.630 -7948.603 8233.435 Q -7948.467 8233.239 -7949.041 8234.070 Q -7949.614 8234.901 -7953.229 8241.204 Q -7953.229 8241.163 -7953.220 8241.047 Q -7953.210 8240.932 -7953.192 8240.741 "></path>
    <path id="STROKE_14a66b75-db88-44f6-bea3-f0e074816695" opacity="1.000" fill="none" stroke="#000000" stroke-width="1.000" stroke-opacity="1.000" stroke-linecap="round" stroke-linejoin="round" d="M -7945.298 8237.964 Q -7945.143 8237.930 -7945.189 8237.922 Q -7945.236 8237.913 -7945.226 8237.885 Q -7945.216 8237.857 -7943.936 8237.828 Q -7943.649 8237.973 -7943.980 8239.256 Q -7944.311 8240.538 -7944.839 8241.131 Q -7945.368 8241.724 -7945.879 8242.238 Q -7945.787 8242.316 -7944.878 8241.994 Q -7943.968 8241.671 -7943.604 8241.579 Q -7943.240 8241.487 -7943.252 8241.494 Q -7943.264 8241.502 -7943.124 8241.480 Q -7942.985 8241.458 -7942.488 8241.358 Q -7941.992 8241.259 -7941.835 8241.204 "></path>
    <path id="STROKE_b4c54253-88b6-4c1f-9680-9184444bf8e8" opacity="1.000" fill="none" stroke="#000000" stroke-width="1.000" stroke-opacity="1.000" stroke-linecap="round" stroke-linejoin="round" d="M -7939.534 8240.777 Q -7939.080 8240.348 -7939.129 8240.428 Q -7938.733 8240.245 -7938.723 8240.278 Q -7938.650 8240.278 -7938.511 8240.278 Q -7938.417 8240.227 -7938.473 8240.959 Q -7938.529 8241.692 -7939.416 8242.777 Q -7940.303 8243.863 -7940.455 8244.018 "></path>
    <path id="STROKE_0d7562c2-22a3-4f1a-9b95-98279dfd2b06" opacity="1.000" fill="none" stroke="#000000" stroke-width="1.000" stroke-opacity="1.000" stroke-linecap="round" stroke-linejoin="round" d="M -7935.417 8238.427 Q -7935.139 8238.189 -7935.143 8238.174 Q -7935.147 8238.158 -7935.135 8238.150 Q -7935.123 8238.142 -7935.189 8238.219 Q -7935.255 8238.297 -7934.764 8237.691 Q -7934.653 8237.603 -7935.103 8241.622 Q -7934.510 8241.541 -7934.594 8241.413 Q -7934.347 8241.005 -7934.268 8240.871 Q -7934.188 8240.736 -7934.037 8240.505 "></path>
    <path id="STROKE_738eb68b-0120-49a4-86fc-4f403a4c5034" opacity="1.000" fill="none" stroke="#000000" stroke-width="1.000" stroke-opacity="1.000" stroke-linecap="round" stroke-linejoin="round" d="M -7933.492 8233.534 Q -7934.030 8233.534 -7934.060 8233.534 Q -7934.088 8233.534 -7934.110 8233.537 Q -7934.133 8233.540 -7934.165 8233.553 Q -7934.197 8233.564 -7934.168 8233.518 Q -7934.140 8233.471 -7934.383 8233.691 Q -7934.626 8233.912 -7934.651 8233.979 Q -7934.676 8234.045 -7934.606 8234.052 Q -7934.606 8234.184 -7934.503 8234.357 Q -7934.400 8234.532 -7934.267 8234.569 "></path>
    <path id="STROKE_f68595b5-b67c-411d-b7e1-5afbdd070e06" opacity="1.000" fill="none" stroke="#000000" stroke-width="1.000" stroke-opacity="1.000" stroke-linecap="round" stroke-linejoin="round" d="M -8030.008 8243.474 Q -8030.014 8243.477 -8030.328 8243.528 Q -8030.642 8243.580 -8030.540 8243.562 Q -8030.438 8243.544 -8030.541 8243.555 Q -8029.764 8242.948 -8029.766 8242.980 Q -8029.767 8243.012 -8029.555 8242.869 Q -8029.343 8242.727 -8029.040 8242.617 Q -8028.737 8242.509 -8027.988 8242.220 Q -8027.239 8241.931 -8024.928 8241.980 Q -8022.616 8242.030 -8022.464 8242.085 "></path>
    <path id="STROKE_5f36aec0-7559-42bc-8cf7-f169eb985bfe" opacity="1.000" fill="none" stroke="#000000" stroke-width="1.000" stroke-opacity="1.000" stroke-linecap="round" stroke-linejoin="round" d="M -8014.303 8242.548 Q -8014.304 8241.880 -8014.303 8242.107 Q -8014.542 8242.189 -8013.904 8241.931 Q -8013.713 8241.638 -8014.147 8244.827 Q -8014.581 8248.017 -8014.897 8249.942 Q -8015.214 8251.868 -8015.584 8253.213 Q -8015.954 8254.559 -8017.568 8256.621 Q -8019.182 8258.684 -8019.997 8259.811 Q -8020.812 8260.938 -8020.927 8261.055 "></path>
    <path id="STROKE_2fb2b15b-0446-4f39-b23a-898e979850ad" opacity="1.000" fill="none" stroke="#000000" stroke-width="1.000" stroke-opacity="1.000" stroke-linecap="round" stroke-linejoin="round" d="M -8041.075 8271.303 Q -8042.381 8271.168 -8045.119 8277.512 Q -8045.251 8277.744 -8044.810 8277.251 Q -8044.368 8276.758 -8044.199 8276.504 "></path>
    <path id="STROKE_c96a7b58-c47d-4bc1-aa7a-caf54f8ef4f1" opacity="1.000" fill="none" stroke="#000000" stroke-width="1.000" stroke-opacity="1.000" stroke-linecap="round" stroke-linejoin="round" d="M -8043.121 8274.389 Q -8043.049 8274.076 -8042.347 8273.654 Q -8042.201 8273.210 -8041.726 8275.391 Q -8041.250 8277.570 -8041.196 8277.666 "></path>
    <path id="STROKE_b2e75536-8697-45d0-b8e7-e511e9f6c51f" opacity="1.000" fill="none" stroke="#000000" stroke-width="1.000" stroke-opacity="1.000" stroke-linecap="round" stroke-linejoin="round" d="M -8041.692 8273.309 Q -8041.652 8273.231 -8041.679 8273.252 Q -8041.706 8273.273 -8041.847 8273.479 Q -8041.987 8273.683 -8042.135 8273.957 Q -8042.283 8274.230 -8042.328 8274.361 Q -8042.373 8274.492 -8042.469 8274.971 Q -8042.565 8275.448 -8042.996 8278.982 Q -8043.426 8282.518 -8044.787 8287.410 Q -8046.147 8292.304 -8047.220 8296.031 Q -8048.292 8299.760 -8049.042 8307.075 Q -8049.061 8307.075 -8049.169 8307.094 Q -8049.278 8307.111 -8049.394 8307.111 "></path>
    <path id="STROKE_f980015b-9b17-4fba-8216-7d50d2dd444f" opacity="1.000" fill="none" stroke="#000000" stroke-width="1.000" stroke-opacity="1.000" stroke-linecap="round" stroke-linejoin="round" d="M -8062.616 8318.711 Q -8062.616 8318.711 -8062.616 8318.702 Q -8062.616 8318.693 -8062.598 8318.248 Q -8062.669 8318.094 -8061.814 8318.387 Q -8060.959 8318.681 -8060.175 8320.164 Q -8059.391 8321.646 -8058.943 8322.410 Q -8058.496 8323.175 -8058.268 8323.469 Q -8058.040 8323.763 -8057.918 8323.822 Q -8057.797 8323.883 -8057.795 8323.871 Q -8057.794 8323.860 -8057.399 8323.883 Q -8057.005 8323.906 -8056.854 8323.633 Q -8056.701 8323.358 -8056.586 8323.150 "></path>
    <path id="STROKE_f4549fdb-bbc4-47fb-8f85-eae7bbc5221c" opacity="1.000" fill="none" stroke="#000000" stroke-width="1.000" stroke-opacity="1.000" stroke-linecap="round" stroke-linejoin="round" d="M -8056.925 8316.515 Q -8057.153 8316.478 -8057.503 8316.379 Q -8057.854 8316.280 -8058.057 8316.363 Q -8058.261 8316.445 -8058.933 8318.047 Q -8059.605 8319.648 -8061.235 8324.185 Q -8061.314 8324.185 -8061.393 8324.185 "></path>
    <path id="STROKE_10f84e97-b0dd-43b4-9d20-14ec33477ca0" opacity="1.000" fill="none" stroke="#000000" stroke-width="1.000" stroke-opacity="1.000" stroke-linecap="round" stroke-linejoin="round" d="M -8055.000 8320.835 Q -8055.000 8320.835 -8054.903 8320.780 Q -8054.806 8320.726 -8053.547 8320.490 Q -8053.049 8321.059 -8054.431 8323.150 Q -8054.315 8323.121 -8052.681 8323.050 Q -8052.572 8323.504 -8052.614 8323.490 Q -8052.717 8324.175 -8052.832 8324.089 Q -8052.708 8323.949 -8053.124 8324.371 Q -8053.540 8324.793 -8054.076 8325.082 Q -8054.612 8325.372 -8054.854 8325.339 Q -8055.097 8325.306 -8055.193 8325.265 "></path>
    <path id="STROKE_0e4d7b04-3846-4503-8f64-3f82a03248be" opacity="1.000" fill="none" stroke="#000000" stroke-width="1.000" stroke-opacity="1.000" stroke-linecap="round" stroke-linejoin="round" d="M -8050.386 8322.950 Q -8050.386 8322.950 -8050.386 8323.388 Q -8050.386 8323.825 -8050.386 8323.572 Q -8050.517 8324.300 -8050.507 8324.130 Q -8050.754 8324.706 -8050.780 8324.750 Q -8050.807 8324.793 -8050.809 8324.791 Q -8050.810 8324.789 -8050.786 8324.790 Q -8050.761 8324.791 -8051.073 8325.185 Q -8051.385 8325.578 -8051.464 8325.655 "></path>
    <path id="STROKE_ec945caf-f138-43f8-9047-b179346db1d7" opacity="1.000" fill="none" stroke="#000000" stroke-width="1.000" stroke-opacity="1.000" stroke-linecap="round" stroke-linejoin="round" d="M -8048.885 8321.798 Q -8048.278 8321.935 -8048.449 8321.879 Q -8047.763 8321.589 -8047.946 8321.643 Q -8047.251 8321.261 -8047.504 8321.394 Q -8047.450 8321.371 -8047.347 8321.371 Q -8047.269 8321.622 -8047.504 8325.537 Q -8047.499 8325.937 -8046.933 8325.148 Q -8046.366 8324.361 -8046.233 8324.148 "></path>
    <path id="STROKE_aabebde8-285a-43c1-8811-1e5d529e6afa" opacity="1.000" fill="none" stroke="#000000" stroke-width="1.000" stroke-opacity="1.000" stroke-linecap="round" stroke-linejoin="round" d="M -8046.306 8318.058 Q -8046.954 8318.229 -8046.851 8318.253 Q -8047.198 8318.603 -8047.117 8318.521 Q -8047.176 8318.898 -8047.153 8318.812 Q -8047.153 8318.870 -8047.135 8318.965 Q -8047.117 8319.061 -8047.081 8319.138 "></path>
  </g>
</svg>