<?xml version="1.0" encoding="UTF-8" standalone="yes"?>
<svg xmlns="http://www.w3.org/2000/svg" xmlns:xlink="http://www.w3.org/1999/xlink" width="61.743mm" height="23.752mm" version="1.1" viewBox="-7934.219 8865.477 320.869 123.435">
  <!--
	Exported with Concepts: Smarter Sketching
	Version: 1059 on iOS 15.6
	https://concepts.app/
	-->
  <title>类型、逻辑、运算、信息</title>
  <desc>Drawing exported from Concepts: Smarter Sketching</desc>
  <defs></defs>
  <g id="主体" opacity="1.000">
    <path id="STROKE_0831e28f-03e1-4e31-b97c-e621866dab0a" opacity="1.000" fill="none" stroke="#000000" stroke-width="1.000" stroke-opacity="1.000" stroke-linecap="round" stroke-linejoin="round" d="M -7708.150 8878.301 Q -7695.692 8876.806 -7695.295 8876.730 "></path>
    <path id="STROKE_8cef8945-77b4-45c5-ad62-88ad9d15a7ca" opacity="1.000" fill="none" stroke="#000000" stroke-width="1.000" stroke-opacity="1.000" stroke-linecap="round" stroke-linejoin="round" d="M -7706.092 8882.138 Q -7707.143 8882.475 -7706.972 8882.383 Q -7707.175 8882.383 -7707.323 8882.383 Q -7706.798 8882.008 -7704.441 8881.518 Q -7702.084 8881.027 -7697.377 8880.502 Q -7692.670 8879.977 -7692.272 8879.802 "></path>
    <path id="STROKE_4dab75f6-7475-4541-ba99-6c8de68e357c" opacity="1.000" fill="none" stroke="#000000" stroke-width="1.000" stroke-opacity="1.000" stroke-linecap="round" stroke-linejoin="round" d="M -7682.083 8869.396 Q -7682.083 8869.396 -7681.794 8869.849 Q -7681.505 8870.302 -7675.399 8883.621 Q -7675.274 8883.621 -7675.161 8883.636 Q -7675.048 8883.650 -7674.900 8883.680 "></path>
    <path id="STROKE_a7845c57-b81a-4c7a-8140-c6f693c95622" opacity="1.000" fill="none" stroke="#000000" stroke-width="1.000" stroke-opacity="1.000" stroke-linecap="round" stroke-linejoin="round" d="M -7672.672 8871.322 Q -7672.672 8870.671 -7672.704 8869.337 Q -7673.144 8868.852 -7676.386 8873.979 Q -7679.627 8879.105 -7684.950 8886.646 Q -7684.149 8886.678 -7684.008 8886.479 Q -7683.867 8886.278 -7683.516 8885.957 "></path>
    <path id="STROKE_155916e6-adb1-4f52-8384-6ab669b815e1" opacity="1.000" fill="none" stroke="#000000" stroke-width="1.000" stroke-opacity="1.000" stroke-linecap="round" stroke-linejoin="round" d="M -7668.528 8879.265 Q -7667.186 8880.098 -7668.103 8885.384 Q -7669.019 8890.670 -7669.213 8890.921 "></path>
    <path id="STROKE_8d2b2a83-1582-41b4-8791-a996d9d7a563" opacity="1.000" fill="none" stroke="#000000" stroke-width="1.000" stroke-opacity="1.000" stroke-linecap="round" stroke-linejoin="round" d="M -7838.182 8921.521 Q -7838.174 8921.052 -7838.213 8921.071 Q -7838.244 8920.995 -7838.189 8920.797 Q -7837.104 8920.678 -7837.348 8920.727 Q -7837.190 8920.732 -7836.424 8920.660 Q -7835.657 8920.587 -7835.128 8921.448 Q -7834.598 8922.310 -7834.474 8922.561 "></path>
    <path id="STROKE_4ec790cf-c985-4642-9643-011e673445f1" opacity="1.000" fill="none" stroke="#000000" stroke-width="1.000" stroke-opacity="1.000" stroke-linecap="round" stroke-linejoin="round" d="M -7834.972 8929.357 Q -7835.074 8929.381 -7835.907 8929.650 Q -7835.884 8929.673 -7835.650 8929.787 Q -7835.416 8929.900 -7835.222 8930.000 "></path>
    <path id="STROKE_3ee93f1a-cc97-4620-8d16-111f09f8593e" opacity="1.000" fill="none" stroke="#000000" stroke-width="1.000" stroke-opacity="1.000" stroke-linecap="round" stroke-linejoin="round" d="M -7832.947 8934.018 Q -7832.964 8934.210 -7832.901 8934.193 Q -7832.838 8934.178 -7833.455 8934.659 Q -7834.071 8935.141 -7835.813 8936.646 Q -7835.510 8936.828 -7835.054 8936.824 Q -7834.598 8936.821 -7834.271 8936.844 "></path>
    <path id="STROKE_c01c95db-b3f5-4b47-bd53-f4bdaa091b5e" opacity="1.000" fill="none" stroke="#000000" stroke-width="1.000" stroke-opacity="1.000" stroke-linecap="round" stroke-linejoin="round" d="M -7930.359 8882.885 Q -7930.359 8883.080 -7930.359 8882.242 Q -7929.740 8882.039 -7929.760 8882.067 Q -7928.661 8881.818 -7928.895 8881.869 Q -7927.569 8881.535 -7926.335 8882.078 Q -7925.101 8882.620 -7924.397 8883.828 Q -7923.694 8885.037 -7922.757 8887.498 Q -7921.820 8889.959 -7921.500 8891.158 Q -7921.181 8892.357 -7920.842 8892.976 Q -7920.502 8893.594 -7920.101 8893.834 Q -7919.698 8894.073 -7919.475 8894.062 Q -7919.252 8894.053 -7919.025 8893.826 Q -7918.799 8893.601 -7918.627 8893.350 "></path>
    <path id="STROKE_3c122033-b5c2-4cac-929e-da1f6768eced" opacity="1.000" fill="none" stroke="#000000" stroke-width="1.000" stroke-opacity="1.000" stroke-linecap="round" stroke-linejoin="round" d="M -7918.035 8879.311 Q -7918.234 8879.134 -7919.243 8879.733 Q -7920.251 8880.333 -7920.736 8880.822 Q -7921.221 8881.312 -7921.359 8881.626 Q -7921.497 8881.939 -7921.694 8882.342 Q -7921.892 8882.744 -7922.175 8883.393 Q -7922.458 8884.041 -7922.688 8884.555 Q -7922.917 8885.069 -7923.646 8887.521 Q -7924.376 8889.975 -7926.414 8892.854 Q -7928.451 8895.732 -7928.521 8895.779 "></path>
    <path id="STROKE_26b3f5d4-8212-4245-b779-51c6727e9a25" opacity="1.000" fill="none" stroke="#000000" stroke-width="1.000" stroke-opacity="1.000" stroke-linecap="round" stroke-linejoin="round" d="M -7911.103 8888.689 Q -7911.102 8888.689 -7911.099 8888.915 Q -7911.096 8889.141 -7911.115 8888.697 Q -7911.135 8888.255 -7911.691 8892.502 Q -7912.248 8896.748 -7912.349 8896.818 "></path>
    <path id="STROKE_38b802e7-d2b1-403d-827c-069be24631d7" opacity="1.000" fill="none" stroke="#000000" stroke-width="1.000" stroke-opacity="1.000" stroke-linecap="round" stroke-linejoin="round" d="M -7906.101 8893.549 Q -7905.169 8893.697 -7906.130 8896.452 Q -7907.090 8899.207 -7907.191 8899.307 "></path>
    <path id="STROKE_ea4c0181-3574-4ad9-aca4-fd169fffebda" opacity="1.000" fill="none" stroke="#000000" stroke-width="1.000" stroke-opacity="1.000" stroke-linecap="round" stroke-linejoin="round" d="M -7899.573 8890.523 Q -7899.549 8890.523 -7899.370 8890.477 Q -7899.370 8890.453 -7899.370 8890.430 Q -7899.218 8890.386 -7899.333 8894.250 Q -7899.448 8898.115 -7899.370 8898.162 "></path>
    <path id="STROKE_a75d0d0a-0c6a-4e29-88eb-d2dea8d16065" opacity="1.000" fill="none" stroke="#000000" stroke-width="1.000" stroke-opacity="1.000" stroke-linecap="round" stroke-linejoin="round" d="M -7859.531 8880.607 Q -7859.531 8880.607 -7859.019 8880.440 Q -7858.506 8880.273 -7858.792 8880.409 Q -7857.943 8879.778 -7856.657 8883.705 Q -7855.370 8887.633 -7854.945 8889.571 Q -7854.521 8891.510 -7854.315 8892.164 Q -7854.111 8892.818 -7854.000 8893.080 Q -7853.888 8893.342 -7853.382 8893.662 Q -7852.876 8893.982 -7852.912 8893.910 Q -7852.948 8893.838 -7852.913 8893.965 Q -7852.878 8894.091 -7852.230 8893.682 Q -7851.582 8893.273 -7851.124 8892.654 Q -7850.666 8892.036 -7850.417 8891.715 "></path>
    <path id="STROKE_7a2b4062-5566-4f1e-b107-7fe3b09201d0" opacity="1.000" fill="none" stroke="#000000" stroke-width="1.000" stroke-opacity="1.000" stroke-linecap="round" stroke-linejoin="round" d="M -7849.887 8880.456 Q -7849.624 8880.549 -7849.946 8880.478 Q -7850.268 8880.406 -7851.180 8880.361 Q -7852.091 8880.316 -7853.434 8883.705 Q -7854.776 8887.094 -7856.169 8890.369 Q -7857.562 8893.644 -7859.625 8897.367 Q -7859.430 8897.345 -7859.235 8897.321 "></path>
    <path id="STROKE_e12d3d23-c4b7-4ff5-ae6f-27c963976428" opacity="1.000" fill="none" stroke="#000000" stroke-width="1.000" stroke-opacity="1.000" stroke-linecap="round" stroke-linejoin="round" d="M -7844.824 8888.397 Q -7845.604 8888.670 -7845.697 8893.331 Q -7845.790 8897.992 -7845.665 8898.068 "></path>
    <path id="STROKE_070d5f96-d142-4bdb-8ac9-e8ef46b6c30b" opacity="1.000" fill="none" stroke="#000000" stroke-width="1.000" stroke-opacity="1.000" stroke-linecap="round" stroke-linejoin="round" d="M -7840.430 8894.051 Q -7840.132 8894.171 -7840.255 8894.014 Q -7840.377 8893.856 -7839.998 8894.422 Q -7839.618 8894.988 -7839.773 8896.035 Q -7839.929 8897.081 -7840.596 8898.007 Q -7841.264 8898.933 -7841.412 8899.107 "></path>
    <path id="STROKE_655a965b-5e8d-4563-a4fc-125886b3e131" opacity="1.000" fill="none" stroke="#000000" stroke-width="1.000" stroke-opacity="1.000" stroke-linecap="round" stroke-linejoin="round" d="M -7833.403 8891.364 Q -7833.723 8891.405 -7833.029 8890.708 Q -7832.335 8890.011 -7831.594 8889.711 Q -7830.852 8889.411 -7830.154 8889.275 Q -7829.456 8889.140 -7829.270 8890.430 Q -7829.083 8891.721 -7830.302 8894.139 Q -7831.521 8896.557 -7833.403 8898.664 Q -7832.090 8898.568 -7832.359 8898.535 Q -7832.874 8898.188 -7829.746 8897.842 Q -7826.618 8897.496 -7826.423 8897.473 "></path>
    <circle id="STROKE_c1a1dace-61b8-4358-9705-4d849acae923" opacity="1.000" fill="#000000" stroke="#000000" stroke-width="0.1" stroke-opacity="1.000" fill-opacity="1.000" cx="-7803.053" cy="8890.325" r="0.500"></circle>
    <path id="STROKE_e454a4c8-b1ad-4b14-a68a-5bea204aceca" opacity="1.000" fill="none" stroke="#000000" stroke-width="1.000" stroke-opacity="1.000" stroke-linecap="round" stroke-linejoin="round" d="M -7796.073 8890.827 Q -7796.021 8890.836 -7798.363 8891.119 Q -7798.363 8891.143 -7798.363 8891.166 Q -7798.720 8891.215 -7798.164 8891.155 Q -7797.607 8891.096 -7797.210 8891.025 "></path>
    <path id="STROKE_20dfb236-cbf0-4a57-951d-b200772b10c7" opacity="1.000" fill="none" stroke="#000000" stroke-width="1.000" stroke-opacity="1.000" stroke-linecap="round" stroke-linejoin="round" d="M -7789.841 8890.325 Q -7789.876 8890.172 -7792.957 8890.745 L -7792.957 8890.798 Q -7792.674 8890.887 -7792.372 8890.893 Q -7792.069 8890.897 -7791.772 8890.921 "></path>
    <path id="STROKE_f4c0cfaa-bcae-4610-9fca-0ba856819650" opacity="1.000" fill="none" stroke="#000000" stroke-width="1.000" stroke-opacity="1.000" stroke-linecap="round" stroke-linejoin="round" d="M -7802.508 8889.776 Q -7802.618 8889.192 -7803.761 8889.681 Q -7804.904 8890.169 -7805.493 8892.357 "></path>
    <path id="STROKE_6968f674-9067-46b8-98a4-691e438b6a9b" opacity="1.000" fill="none" stroke="#000000" stroke-width="1.000" stroke-opacity="1.000" stroke-linecap="round" stroke-linejoin="round" d="M -7805.480 8892.631 Q -7805.312 8892.736 -7805.094 8892.812 "></path>
    <path id="STROKE_a9ce5b5d-a772-4567-8d20-5f807cc2744b" opacity="1.000" fill="none" stroke="#000000" stroke-width="1.000" stroke-opacity="1.000" stroke-linecap="round" stroke-linejoin="round" d="M -7760.644 8878.424 Q -7760.676 8877.757 -7760.589 8877.927 Q -7760.580 8877.623 -7759.884 8877.625 Q -7759.189 8877.627 -7758.344 8877.455 Q -7757.500 8877.283 -7757.189 8879.172 Q -7756.879 8881.061 -7756.620 8882.923 Q -7756.360 8884.785 -7755.738 8886.291 Q -7755.116 8887.798 -7753.995 8887.770 Q -7752.875 8887.740 -7752.279 8886.863 Q -7751.685 8885.986 -7751.482 8885.711 "></path>
    <path id="STROKE_74830d4e-28ef-44a5-b6a0-9e43217d427c" opacity="1.000" fill="none" stroke="#000000" stroke-width="1.000" stroke-opacity="1.000" stroke-linecap="round" stroke-linejoin="round" d="M -7750.983 8877.337 Q -7750.744 8877.158 -7751.539 8877.098 Q -7752.333 8877.036 -7752.792 8877.197 Q -7753.251 8877.357 -7753.429 8877.665 Q -7753.607 8877.973 -7753.816 8878.269 Q -7754.024 8878.564 -7755.890 8882.412 Q -7757.755 8886.259 -7759.706 8888.395 Q -7761.656 8890.529 -7761.828 8890.629 "></path>
    <path id="STROKE_0705cf04-4fb7-4546-b2cb-fca9a8264c77" opacity="1.000" fill="none" stroke="#000000" stroke-width="1.000" stroke-opacity="1.000" stroke-linecap="round" stroke-linejoin="round" d="M -7745.250 8882.838 Q -7745.337 8883.870 -7745.320 8883.703 Q -7745.525 8884.333 -7746.341 8891.867 Q -7746.216 8891.744 -7746.091 8891.621 "></path>
    <path id="STROKE_a04f0735-8cc3-46c8-b7cb-0fc99af73f5a" opacity="1.000" fill="none" stroke="#000000" stroke-width="1.000" stroke-opacity="1.000" stroke-linecap="round" stroke-linejoin="round" d="M -7740.935 8888.445 Q -7740.911 8888.444 -7740.521 8888.397 Q -7740.516 8888.283 -7740.236 8889.740 "></path>
    <path id="STROKE_85fb4296-6ccb-4f7f-862a-898ece21385f" opacity="1.000" fill="none" stroke="#000000" stroke-width="1.000" stroke-opacity="1.000" stroke-linecap="round" stroke-linejoin="round" d="M -7740.453 8890.934 Q -7741.329 8892.752 -7741.965 8893.387 Q -7742.602 8894.021 -7742.819 8894.145 "></path>
    <path id="STROKE_af59575e-4647-423b-90e5-f57a4d9de0c6" opacity="1.000" fill="none" stroke="#000000" stroke-width="1.000" stroke-opacity="1.000" stroke-linecap="round" stroke-linejoin="round" d="M -7738.566 8890.231 Q -7739.597 8890.560 -7739.306 8890.500 Q -7739.287 8890.523 -7739.661 8890.387 Q -7740.036 8890.251 -7740.009 8890.188 Q -7739.982 8890.123 -7740.024 8890.106 Q -7740.066 8890.090 -7740.122 8889.777 Q -7740.178 8889.466 -7740.159 8889.476 Q -7740.140 8889.485 -7740.153 8889.369 Q -7740.167 8889.252 -7740.024 8889.104 Q -7739.881 8888.956 -7739.797 8888.293 Q -7739.265 8889.123 -7739.431 8888.889 Q -7739.245 8889.807 -7739.314 8889.606 Q -7739.761 8890.271 -7739.758 8890.156 Q -7740.042 8890.397 -7740.402 8890.831 Q -7740.763 8891.265 -7740.888 8891.364 "></path>
    <path id="STROKE_eed7bba1-0d0f-4347-ab28-3ad1896c5955" opacity="1.000" fill="none" stroke="#000000" stroke-width="1.000" stroke-opacity="1.000" stroke-linecap="round" stroke-linejoin="round" d="M -7921.447 8971.065 Q -7921.433 8971.061 -7921.471 8971.019 Q -7921.509 8970.977 -7921.312 8970.486 Q -7921.116 8969.996 -7920.970 8970.004 Q -7920.823 8970.013 -7920.528 8969.844 Q -7920.234 8969.676 -7920.071 8969.617 Q -7919.908 8969.559 -7919.217 8969.493 Q -7918.525 8969.428 -7918.355 8969.410 Q -7918.185 8969.393 -7917.352 8969.695 Q -7916.518 8969.998 -7915.776 8972.233 Q -7915.034 8974.469 -7914.801 8975.842 Q -7914.567 8977.215 -7914.002 8978.037 Q -7913.437 8978.859 -7912.771 8979.128 Q -7912.104 8979.396 -7911.573 8979.323 Q -7911.042 8979.250 -7910.590 8979.049 Q -7910.139 8978.848 -7909.814 8978.457 Q -7909.490 8978.067 -7909.217 8977.770 "></path>
    <path id="STROKE_862c1989-ac87-42af-90bc-8ec9099fda92" opacity="1.000" fill="none" stroke="#000000" stroke-width="1.000" stroke-opacity="1.000" stroke-linecap="round" stroke-linejoin="round" d="M -7911.149 8965.214 Q -7910.921 8964.936 -7911.559 8964.922 Q -7912.196 8964.908 -7913.039 8967.441 Q -7913.882 8969.976 -7914.455 8971.809 Q -7915.027 8973.643 -7918.238 8983.177 Q -7918.308 8983.002 -7918.378 8982.826 "></path>
    <path id="STROKE_ff4d9d2a-ffb0-4073-b388-21463fdba9c3" opacity="1.000" fill="none" stroke="#000000" stroke-width="1.000" stroke-opacity="1.000" stroke-linecap="round" stroke-linejoin="round" d="M -7905.852 8976.823 Q -7906.084 8976.058 -7906.007 8976.257 Q -7906.025 8976.294 -7906.054 8975.340 Q -7906.032 8975.328 -7906.350 8980.689 Q -7906.195 8980.195 -7902.813 8973.600 L -7902.759 8973.600 Q -7902.173 8973.064 -7903.624 8982.230 Q -7904.358 8982.910 -7898.755 8974.348 Q -7898.333 8974.835 -7898.618 8977.766 Q -7898.903 8980.695 -7898.980 8980.795 "></path>
    <path id="STROKE_7c96356a-5772-4257-b57b-4041f8a9505e" opacity="1.000" fill="none" stroke="#000000" stroke-width="1.000" stroke-opacity="1.000" stroke-linecap="round" stroke-linejoin="round" d="M -7732.677 8887.803 Q -7732.677 8887.285 -7732.677 8886.810 Q -7732.315 8887.056 -7733.518 8893.396 Q -7733.579 8893.561 -7732.537 8891.032 Q -7731.496 8888.504 -7728.494 8886.155 Q -7728.032 8887.332 -7729.039 8893.479 Q -7729.081 8893.616 -7728.316 8893.557 Q -7727.551 8893.496 -7727.333 8893.396 "></path>
    <path id="STROKE_302da9a2-35a9-4881-bb29-232455a69df3" opacity="1.000" fill="none" stroke="#000000" stroke-width="1.000" stroke-opacity="1.000" stroke-linecap="round" stroke-linejoin="round" d="M -7722.082 8888.491 Q -7721.985 8888.621 -7722.525 8889.816 Q -7723.065 8891.012 -7723.072 8892.021 Q -7723.079 8893.029 -7723.126 8893.198 "></path>
    <path id="STROKE_0ad54f2c-5927-42bd-9363-1028fa445985" opacity="1.000" fill="none" stroke="#000000" stroke-width="1.000" stroke-opacity="1.000" stroke-linecap="round" stroke-linejoin="round" d="M -7891.113 8978.762 Q -7891.113 8978.762 -7891.113 8978.601 Q -7891.113 8978.439 -7891.035 8978.260 Q -7891.301 8978.279 -7890.544 8978.236 Q -7889.963 8977.434 -7890.744 8980.478 Q -7891.525 8983.521 -7891.502 8983.574 "></path>
    <path id="STROKE_40b4391b-6cc3-4e5a-8e7a-ab15e59bab43" opacity="1.000" fill="none" stroke="#000000" stroke-width="1.000" stroke-opacity="1.000" stroke-linecap="round" stroke-linejoin="round" d="M -7881.500 8973.156 Q -7881.430 8973.104 -7881.110 8972.853 Q -7881.070 8972.246 -7881.335 8976.827 Q -7881.601 8981.408 -7881.702 8981.530 "></path>
    <path id="STROKE_854a4a7f-9669-4971-8100-41597992f1ee" opacity="1.000" fill="none" stroke="#000000" stroke-width="1.000" stroke-opacity="1.000" stroke-linecap="round" stroke-linejoin="round" d="M -7839.386 8973.249 Q -7839.397 8973.494 -7839.339 8972.631 Q -7839.177 8972.288 -7838.486 8972.252 Q -7837.796 8972.217 -7837.066 8972.043 Q -7836.336 8971.869 -7835.514 8972.808 Q -7834.692 8973.746 -7834.230 8975.025 Q -7833.768 8976.304 -7833.438 8978.062 Q -7833.107 8979.820 -7832.582 8981.036 Q -7832.057 8982.252 -7831.847 8982.293 Q -7831.637 8982.334 -7831.123 8982.462 Q -7830.610 8982.590 -7830.160 8982.247 Q -7829.711 8981.904 -7829.493 8981.682 "></path>
    <path id="STROKE_3e88822b-e0e1-4d08-9f1b-f318e81d71cd" opacity="1.000" fill="none" stroke="#000000" stroke-width="1.000" stroke-opacity="1.000" stroke-linecap="round" stroke-linejoin="round" d="M -7828.200 8970.225 Q -7827.934 8970.333 -7828.451 8970.182 Q -7828.969 8970.030 -7829.873 8970.447 Q -7830.777 8970.865 -7831.792 8973.492 Q -7832.807 8976.119 -7833.918 8978.314 Q -7835.028 8980.510 -7835.920 8981.893 Q -7836.811 8983.276 -7837.175 8983.842 Q -7837.539 8984.408 -7837.704 8984.707 Q -7837.781 8984.684 -7837.859 8984.660 "></path>
    <path id="STROKE_33c11396-554e-43f6-b578-cf1735a25b1b" opacity="1.000" fill="none" stroke="#000000" stroke-width="1.000" stroke-opacity="1.000" stroke-linecap="round" stroke-linejoin="round" d="M -7825.769 8976.870 Q -7825.746 8976.823 -7825.722 8976.578 Q -7825.608 8977.100 -7826.610 8982.920 Q -7826.943 8983.179 -7822.435 8976.426 Q -7822.103 8975.699 -7823.104 8983.271 Q -7823.123 8983.264 -7822.039 8981.277 Q -7820.955 8979.290 -7818.719 8977.314 Q -7818.407 8978.025 -7818.602 8979.979 Q -7818.797 8981.934 -7818.898 8982.079 "></path>
    <path id="STROKE_ccf73381-279d-4d0a-ba40-e337eaed7e54" opacity="1.000" fill="none" stroke="#000000" stroke-width="1.000" stroke-opacity="1.000" stroke-linecap="round" stroke-linejoin="round" d="M -7813.896 8980.351 Q -7813.874 8980.321 -7813.850 8980.000 Q -7813.850 8981.000 -7813.850 8980.864 Q -7813.578 8981.902 -7814.567 8983.404 Q -7815.556 8984.905 -7815.735 8985.058 "></path>
    <path id="STROKE_14e6153c-9855-4258-97f3-e9c18307b3b4" opacity="1.000" fill="none" stroke="#000000" stroke-width="1.000" stroke-opacity="1.000" stroke-linecap="round" stroke-linejoin="round" d="M -7809.737 8975.679 Q -7809.791 8975.389 -7809.734 8975.435 Q -7809.679 8975.480 -7809.843 8975.357 Q -7810.007 8975.234 -7807.337 8974.938 Q -7807.142 8974.953 -7807.017 8976.780 Q -7806.892 8978.607 -7811.918 8983.715 Q -7811.620 8983.721 -7809.206 8983.659 Q -7806.792 8983.598 -7806.574 8983.574 "></path>
    <circle id="STROKE_3d8121ec-632d-4d6c-b05b-a279bb1e19ec" opacity="1.000" fill="#000000" stroke="#000000" stroke-width="0.1" stroke-opacity="1.000" fill-opacity="1.000" cx="-7773.855" cy="8973.646" r="0.500"></circle>
    <path id="STROKE_a1ee0f77-92ee-4996-b9d4-ed78ab72425b" opacity="1.000" fill="none" stroke="#000000" stroke-width="1.000" stroke-opacity="1.000" stroke-linecap="round" stroke-linejoin="round" d="M -7767.764 8974.593 Q -7768.736 8974.800 -7768.683 8974.791 Q -7769.077 8974.861 -7769.446 8975.212 Q -7769.481 8975.313 -7769.043 8975.225 Q -7768.605 8975.136 -7768.309 8975.036 "></path>
    <path id="STROKE_96be8e2d-e5a1-4628-9184-2c9754b386ec" opacity="1.000" fill="none" stroke="#000000" stroke-width="1.000" stroke-opacity="1.000" stroke-linecap="round" stroke-linejoin="round" d="M -7762.419 8973.156 Q -7762.368 8973.117 -7762.340 8973.096 Q -7762.313 8973.073 -7762.570 8973.279 Q -7762.827 8973.484 -7763.132 8973.744 Q -7763.437 8974.004 -7763.565 8974.114 Q -7763.695 8974.225 -7763.868 8974.274 Q -7764.042 8974.324 -7764.554 8975.311 Q -7763.917 8975.438 -7763.480 8975.352 Q -7763.043 8975.264 -7762.669 8975.142 "></path>
    <path id="STROKE_6e9e0ddb-df2c-452b-b74e-6f05d4b077f6" opacity="1.000" fill="none" stroke="#000000" stroke-width="1.000" stroke-opacity="1.000" stroke-linecap="round" stroke-linejoin="round" d="M -7757.029 8973.401 Q -7757.159 8973.768 -7758.112 8974.112 Q -7759.064 8974.457 -7759.098 8975.231 Q -7759.132 8976.006 -7759.007 8976.135 "></path>
    <path id="STROKE_641f7c7d-ffb0-44b5-8c50-ce10866ece10" opacity="1.000" fill="none" stroke="#000000" stroke-width="1.000" stroke-opacity="1.000" stroke-linecap="round" stroke-linejoin="round" d="M -7774.058 8974.148 Q -7774.486 8974.361 -7774.479 8974.318 Q -7775.142 8974.453 -7775.151 8974.385 Q -7775.161 8974.317 -7775.260 8974.451 Q -7775.359 8974.586 -7775.449 8975.024 Q -7775.538 8975.463 -7775.444 8975.585 "></path>
    <path id="STROKE_1e74fd34-e7a1-4d10-80dc-a2f1397639b7" opacity="1.000" fill="none" stroke="#000000" stroke-width="1.000" stroke-opacity="1.000" stroke-linecap="round" stroke-linejoin="round" d="M -7724.107 8963.625 Q -7724.107 8963.602 -7724.107 8963.381 Q -7723.388 8963.381 -7723.414 8963.381 Q -7722.353 8963.439 -7722.573 8963.503 Q -7721.577 8963.701 -7720.845 8966.645 Q -7720.113 8969.588 -7719.860 8970.912 Q -7719.607 8972.236 -7719.468 8973.510 Q -7719.329 8974.784 -7718.671 8975.062 Q -7718.013 8975.342 -7717.263 8975.272 Q -7716.512 8975.203 -7716.193 8974.699 Q -7715.874 8974.195 -7715.694 8973.950 "></path>
    <path id="STROKE_034e6de9-ba50-4e42-812a-146887114a89" opacity="1.000" fill="none" stroke="#000000" stroke-width="1.000" stroke-opacity="1.000" stroke-linecap="round" stroke-linejoin="round" d="M -7716.349 8963.777 Q -7716.608 8963.549 -7717.161 8963.409 Q -7717.714 8963.270 -7718.484 8964.165 Q -7719.254 8965.061 -7720.354 8967.115 Q -7721.453 8969.170 -7722.246 8971.421 Q -7723.038 8973.672 -7723.904 8975.676 Q -7724.770 8977.681 -7726.881 8978.762 Q -7727.083 8978.587 -7727.239 8978.412 "></path>
    <path id="STROKE_5bc63cff-e92a-40ab-ac22-9ad94618c767" opacity="1.000" fill="none" stroke="#000000" stroke-width="1.000" stroke-opacity="1.000" stroke-linecap="round" stroke-linejoin="round" d="M -7715.009 8973.600 Q -7715.253 8973.208 -7713.716 8971.918 Q -7713.412 8972.265 -7715.102 8979.206 Q -7715.091 8978.943 -7713.924 8976.617 Q -7712.756 8974.291 -7710.600 8972.607 Q -7710.173 8971.597 -7710.600 8978.459 Q -7710.350 8977.442 -7710.239 8977.296 Q -7710.129 8977.149 -7710.109 8977.150 Q -7710.090 8977.152 -7710.092 8976.938 Q -7710.093 8976.723 -7707.460 8973.203 Q -7707.469 8972.880 -7707.277 8975.236 Q -7707.086 8977.594 -7706.938 8977.770 "></path>
    <path id="STROKE_0d023c74-ce15-4b49-b611-ccf33b986e8d" opacity="1.000" fill="none" stroke="#000000" stroke-width="1.000" stroke-opacity="1.000" stroke-linecap="round" stroke-linejoin="round" d="M -7700.114 8977.221 Q -7700.114 8977.221 -7700.103 8977.221 Q -7700.091 8977.221 -7700.067 8977.221 Q -7699.853 8977.705 -7701.502 8980.029 Q -7703.152 8982.354 -7703.323 8982.523 "></path>
    <path id="STROKE_b2d380d7-ba39-4655-9c46-e9cc09e92028" opacity="1.000" fill="none" stroke="#000000" stroke-width="1.000" stroke-opacity="1.000" stroke-linecap="round" stroke-linejoin="round" d="M -7692.339 8972.116 Q -7692.211 8971.441 -7691.997 8970.423 Q -7691.921 8971.494 -7692.056 8972.366 Q -7692.191 8973.238 -7692.474 8974.962 Q -7692.756 8976.686 -7692.729 8977.968 Q -7692.786 8977.387 -7691.897 8974.885 Q -7691.009 8972.384 -7689.985 8970.709 Q -7688.962 8969.035 -7687.416 8968.438 Q -7686.672 8967.667 -7687.813 8977.641 Q -7687.036 8978.162 -7685.664 8977.134 Q -7684.292 8976.105 -7684.020 8975.830 "></path>
    <path id="STROKE_c33873d8-a20e-4fb6-b303-cd0db23c6f49" opacity="1.000" fill="none" stroke="#000000" stroke-width="1.000" stroke-opacity="1.000" stroke-linecap="round" stroke-linejoin="round" d="M -7681.496 8974.043 Q -7681.664 8974.236 -7681.129 8972.806 Q -7680.523 8972.451 -7681.604 8977.068 Q -7681.552 8976.952 -7681.630 8977.057 Q -7681.707 8977.160 -7681.581 8976.885 Q -7681.455 8976.609 -7681.195 8976.188 Q -7680.936 8975.768 -7680.664 8975.198 Q -7680.392 8974.629 -7679.151 8973.109 Q -7678.889 8972.920 -7679.922 8979.650 Q -7680.475 8979.971 -7675.583 8974.593 Q -7675.478 8973.983 -7675.653 8978.412 Q -7675.560 8978.389 -7675.466 8978.365 "></path>
    <path id="STROKE_25ddeb56-fb0d-49a8-b905-dfe328e76698" opacity="1.000" fill="none" stroke="#000000" stroke-width="1.000" stroke-opacity="1.000" stroke-linecap="round" stroke-linejoin="round" d="M -7681.542 8974.885 Q -7681.542 8974.885 -7681.759 8975.061 Q -7681.976 8975.236 -7681.947 8974.148 Q -7681.971 8974.148 -7681.994 8974.148 Q -7682.229 8975.039 -7682.173 8974.844 Q -7682.346 8975.768 -7682.313 8975.632 Q -7682.399 8976.798 -7682.394 8976.441 Q -7682.388 8976.085 -7682.446 8978.260 Q -7682.415 8978.260 -7682.278 8978.210 Q -7682.142 8978.160 -7681.994 8978.062 "></path>
    <path id="STROKE_ceebcc49-de97-46ea-b397-54dfdeab526a" opacity="1.000" fill="none" stroke="#000000" stroke-width="1.000" stroke-opacity="1.000" stroke-linecap="round" stroke-linejoin="round" d="M -7662.051 8970.773 Q -7662.163 8970.773 -7662.986 8970.773 Q -7662.329 8970.663 -7659.731 8969.821 Q -7657.134 8968.979 -7655.188 8969.059 Q -7653.241 8969.139 -7653.046 8969.290 "></path>
    <path id="STROKE_0547a46c-f1c7-421f-bb9b-8c193d12f09b" opacity="1.000" fill="none" stroke="#000000" stroke-width="1.000" stroke-opacity="1.000" stroke-linecap="round" stroke-linejoin="round" d="M -7662.098 8974.043 Q -7662.154 8974.091 -7662.986 8974.090 Q -7662.320 8973.473 -7659.313 8972.760 Q -7656.308 8972.048 -7653.968 8971.734 Q -7651.628 8971.422 -7651.301 8971.322 "></path>
    <path id="STROKE_82f77170-23c4-4e82-93da-7bb0c98e641f" opacity="1.000" fill="none" stroke="#000000" stroke-width="1.000" stroke-opacity="1.000" stroke-linecap="round" stroke-linejoin="round" d="M -7641.859 8961.348 Q -7641.859 8961.324 -7641.859 8960.998 Q -7641.518 8960.805 -7640.512 8962.000 Q -7639.507 8963.196 -7638.641 8964.255 Q -7637.775 8965.313 -7635.936 8968.409 Q -7634.097 8971.505 -7632.542 8974.838 Q -7632.573 8974.791 -7632.604 8974.744 "></path>
    <path id="STROKE_5bacd6c9-1c1b-449f-a994-74a9513e9e83" opacity="1.000" fill="none" stroke="#000000" stroke-width="1.000" stroke-opacity="1.000" stroke-linecap="round" stroke-linejoin="round" d="M -7630.719 8961.348 Q -7630.719 8961.348 -7631.033 8960.986 Q -7631.347 8960.624 -7635.399 8968.078 Q -7639.452 8975.533 -7639.429 8975.585 "></path>
    <path id="STROKE_04a397c6-50d2-4f9e-b5c1-14dba25162cc" opacity="1.000" fill="none" stroke="#000000" stroke-width="1.000" stroke-opacity="1.000" stroke-linecap="round" stroke-linejoin="round" d="M -7624.581 8970.025 Q -7624.581 8970.002 -7624.581 8969.734 Q -7625.197 8969.312 -7626.419 8977.419 Q -7626.072 8977.117 -7624.874 8974.811 Q -7623.675 8972.504 -7621.558 8971.322 Q -7620.797 8970.582 -7622.602 8977.221 Q -7622.774 8977.266 -7621.243 8975.480 Q -7619.711 8973.696 -7617.406 8972.654 Q -7617.091 8973.020 -7617.260 8976.148 Q -7617.429 8979.276 -7617.398 8979.451 "></path>
    <path id="STROKE_2179626d-b882-464e-a234-5aa100a9dfc9" opacity="1.000" fill="none" stroke="#000000" stroke-width="1.000" stroke-opacity="1.000" stroke-linecap="round" stroke-linejoin="round" d="M -7882.512 8881.199 Q -7882.377 8881.227 -7882.787 8881.175 Q -7883.197 8881.123 -7883.374 8881.483 Q -7883.551 8881.844 -7883.562 8882.061 Q -7883.573 8882.277 -7883.562 8882.269 Q -7883.552 8882.260 -7883.652 8883.584 Q -7883.753 8884.908 -7882.940 8887.210 Q -7882.128 8889.512 -7881.391 8890.797 Q -7880.654 8892.082 -7880.277 8892.571 Q -7879.900 8893.061 -7879.274 8893.385 Q -7878.648 8893.709 -7878.119 8893.603 Q -7877.589 8893.496 -7877.058 8893.074 Q -7876.527 8892.652 -7875.948 8890.600 Q -7875.368 8888.547 -7875.142 8886.191 Q -7874.916 8883.836 -7874.733 8882.677 Q -7874.551 8881.518 -7874.446 8881.307 "></path>
    <path id="STROKE_c1b5f616-0951-41a4-8e13-4d5bd93a42a6" opacity="1.000" fill="none" stroke="#000000" stroke-width="1.000" stroke-opacity="1.000" stroke-linecap="round" stroke-linejoin="round" d="M -7819.483 8880.105 Q -7819.484 8880.107 -7819.642 8880.042 Q -7819.799 8879.977 -7819.942 8882.357 Q -7820.085 8884.738 -7819.625 8887.228 Q -7819.165 8889.717 -7818.804 8890.833 Q -7818.443 8891.949 -7818.126 8892.784 Q -7817.809 8893.619 -7817.302 8894.040 Q -7816.795 8894.461 -7816.499 8894.513 Q -7816.203 8894.564 -7815.932 8894.481 Q -7815.660 8894.398 -7815.350 8894.036 Q -7815.040 8893.674 -7814.884 8893.394 Q -7814.728 8893.113 -7814.616 8892.750 Q -7814.504 8892.387 -7814.228 8892.397 Q -7813.952 8892.408 -7813.736 8887.498 Q -7813.521 8882.588 -7813.449 8882.465 "></path>
    <path id="STROKE_828126c2-1ec2-448a-88bc-c3942cd3a0d6" opacity="1.000" fill="none" stroke="#000000" stroke-width="1.000" stroke-opacity="1.000" stroke-linecap="round" stroke-linejoin="round" d="M -7776.153 8880.883 Q -7776.336 8881.008 -7776.269 8880.921 Q -7776.201 8880.834 -7776.251 8880.873 Q -7776.302 8880.912 -7776.431 8881.107 Q -7776.561 8881.303 -7776.680 8881.522 Q -7776.799 8881.742 -7776.774 8881.808 Q -7776.749 8881.873 -7776.811 8881.955 Q -7776.872 8882.037 -7776.996 8883.953 Q -7777.119 8885.869 -7776.831 8887.742 Q -7776.542 8889.615 -7776.028 8890.918 Q -7775.514 8892.221 -7774.944 8892.861 Q -7774.375 8893.502 -7773.635 8893.607 Q -7772.896 8893.713 -7772.310 8893.760 Q -7771.724 8893.807 -7771.084 8893.091 Q -7770.444 8892.375 -7770.252 8891.921 Q -7770.060 8891.467 -7769.782 8890.123 Q -7769.504 8888.779 -7769.418 8887.477 Q -7769.333 8886.174 -7769.345 8885.187 Q -7769.357 8884.199 -7769.095 8882.894 Q -7768.832 8881.588 -7768.728 8881.447 "></path>
    <path id="STROKE_5a182506-bb3e-4fbf-85aa-c2398c6abdc6" opacity="1.000" fill="none" stroke="#000000" stroke-width="1.000" stroke-opacity="1.000" stroke-linecap="round" stroke-linejoin="round" d="M -7864.902 8966.844 Q -7865.008 8966.811 -7865.304 8966.827 Q -7865.600 8966.844 -7865.766 8968.663 Q -7865.933 8970.482 -7865.452 8972.754 Q -7864.971 8975.025 -7864.500 8976.438 Q -7864.029 8977.852 -7863.546 8978.708 Q -7863.062 8979.564 -7862.205 8979.892 Q -7861.348 8980.219 -7860.435 8978.650 Q -7859.522 8977.082 -7859.153 8975.690 Q -7858.783 8974.299 -7858.491 8973.021 Q -7858.199 8971.742 -7858.025 8969.853 Q -7857.851 8967.963 -7857.896 8964.627 Q -7857.896 8964.719 -7857.869 8965.148 Q -7857.842 8965.578 -7857.786 8965.826 "></path>
    <path id="STROKE_4bd31e10-65ba-4420-9972-7dfc1c6d0a96" opacity="1.000" fill="none" stroke="#000000" stroke-width="1.000" stroke-opacity="1.000" stroke-linecap="round" stroke-linejoin="round" d="M -7796.446 8968.779 Q -7797.066 8969.260 -7796.883 8969.180 Q -7797.130 8969.510 -7797.283 8971.312 Q -7797.436 8973.113 -7796.910 8974.943 Q -7796.385 8976.773 -7795.848 8977.960 Q -7795.312 8979.146 -7794.940 8979.678 Q -7794.569 8980.209 -7794.043 8980.532 Q -7793.518 8980.855 -7793.351 8980.824 Q -7793.184 8980.793 -7793.172 8980.816 Q -7793.160 8980.840 -7792.851 8980.706 Q -7792.541 8980.572 -7792.365 8980.400 Q -7792.188 8980.229 -7792.065 8980.024 Q -7791.942 8979.820 -7791.699 8979.265 Q -7791.455 8978.709 -7791.261 8978.557 Q -7791.066 8978.404 -7790.591 8975.982 Q -7790.115 8973.561 -7790.587 8967.936 Q -7790.616 8968.232 -7790.577 8968.549 Q -7790.537 8968.865 -7790.488 8969.061 "></path>
    <path id="STROKE_e1a639a0-b03e-445b-aa48-2a19c3d7872f" opacity="1.000" fill="none" stroke="#000000" stroke-width="1.000" stroke-opacity="1.000" stroke-linecap="round" stroke-linejoin="round" d="M -7743.868 8965.230 Q -7744.457 8965.240 -7744.255 8965.246 Q -7744.403 8965.035 -7744.703 8966.890 Q -7745.002 8968.744 -7744.641 8970.466 Q -7744.279 8972.188 -7743.914 8973.023 Q -7743.549 8973.859 -7743.235 8974.413 Q -7742.921 8974.967 -7742.590 8975.238 Q -7742.260 8975.510 -7741.873 8975.627 Q -7741.486 8975.744 -7741.042 8975.740 Q -7740.599 8975.736 -7740.616 8975.731 Q -7740.633 8975.727 -7740.102 8975.142 Q -7739.570 8974.557 -7738.993 8972.915 Q -7738.416 8971.273 -7738.263 8969.687 Q -7738.110 8968.100 -7738.097 8967.071 Q -7738.083 8966.043 -7738.186 8965.565 Q -7738.289 8965.088 -7738.398 8964.906 Q -7738.507 8964.725 -7738.499 8964.740 Q -7738.490 8964.756 -7738.488 8964.751 Q -7738.486 8964.746 -7738.925 8964.139 Q -7738.908 8964.139 -7738.817 8964.279 Q -7738.727 8964.420 -7738.639 8964.561 "></path>
  </g>
</svg>