<?xml version="1.0" encoding="UTF-8" standalone="yes"?>
<svg xmlns="http://www.w3.org/2000/svg" xmlns:xlink="http://www.w3.org/1999/xlink" width="34.986mm" height="35.820mm" version="1.1" viewBox="-7899.096 7822.423 181.815 186.151">
  <!--
	Exported with Concepts: Smarter Sketching
	Version: 1059 on iOS 15.6
	https://concepts.app/
	-->
  <title>类型、逻辑、运算、信息</title>
  <desc>Drawing exported from Concepts: Smarter Sketching</desc>
  <defs></defs>
  <g id="图解" opacity="1.000">
    <path id="STROKE_571d9ba8-6f70-497c-a11e-b327661722fb" opacity="1.000" fill="none" stroke="#00b347" stroke-width="1.000" stroke-opacity="1.000" stroke-linecap="round" stroke-linejoin="round" d="M -7876.662 7876.756 Q -7876.593 7876.768 -7877.589 7876.604 Q -7877.741 7876.521 -7877.625 7877.741 Q -7877.508 7878.961 -7877.464 7879.205 "></path>
    <path id="STROKE_eb9f101a-1efa-4c6c-8479-d5a2617dbc84" opacity="1.000" fill="none" stroke="#00b347" stroke-width="1.000" stroke-opacity="1.000" stroke-linecap="round" stroke-linejoin="round" d="M -7877.222 7884.840 Q -7877.099 7885.082 -7877.473 7886.087 Q -7877.847 7887.093 -7878.384 7887.989 Q -7878.920 7888.886 -7878.894 7890.035 Q -7878.868 7891.185 -7878.587 7892.480 Q -7878.307 7893.776 -7878.207 7894.092 "></path>
    <path id="STROKE_dc820204-44b2-442b-a869-ddd218b772f9" opacity="1.000" fill="none" stroke="#00b347" stroke-width="1.000" stroke-opacity="1.000" stroke-linecap="round" stroke-linejoin="round" d="M -7877.966 7895.639 Q -7877.504 7896.113 -7878.303 7898.340 Q -7879.102 7900.566 -7879.340 7902.269 Q -7879.578 7903.972 -7879.547 7904.296 "></path>
    <path id="STROKE_56c07cc8-562d-41a8-9513-2f42899109bd" opacity="1.000" fill="none" stroke="#00b347" stroke-width="1.000" stroke-opacity="1.000" stroke-linecap="round" stroke-linejoin="round" d="M -7878.347 7909.354 Q -7878.236 7909.698 -7879.103 7911.446 Q -7879.970 7913.194 -7879.771 7915.357 Q -7879.573 7917.521 -7879.213 7918.973 Q -7878.854 7920.424 -7879.262 7923.248 Q -7879.669 7926.072 -7879.686 7926.456 "></path>
    <path id="STROKE_3df20a1b-7e1f-4955-b21c-00afcd7f84bd" opacity="1.000" fill="none" stroke="#00b347" stroke-width="1.000" stroke-opacity="1.000" stroke-linecap="round" stroke-linejoin="round" d="M -7880.015 7928.075 Q -7879.908 7928.365 -7880.627 7929.876 Q -7881.346 7931.387 -7881.925 7932.949 Q -7882.503 7934.512 -7882.290 7936.747 Q -7882.076 7938.981 -7881.994 7939.279 "></path>
    <path id="STROKE_ca2372ca-af19-4736-a105-5eb617dfeeb7" opacity="1.000" fill="none" stroke="#00b347" stroke-width="1.000" stroke-opacity="1.000" stroke-linecap="round" stroke-linejoin="round" d="M -7881.196 7946.212 Q -7880.969 7945.801 -7881.961 7949.070 Q -7881.813 7949.166 -7881.689 7949.228 Q -7881.565 7949.289 -7881.440 7949.360 "></path>
    <path id="STROKE_388a18c6-483e-4b3e-9b55-25125d3e604c" opacity="1.000" fill="none" stroke="#00b347" stroke-width="1.000" stroke-opacity="1.000" stroke-linecap="round" stroke-linejoin="round" d="M -7877.659 7950.116 Q -7877.718 7950.104 -7877.425 7950.190 Q -7877.132 7950.277 -7877.156 7950.273 Q -7877.181 7950.269 -7877.206 7950.260 Q -7877.230 7950.251 -7875.750 7950.379 Q -7874.271 7950.507 -7871.637 7950.190 Q -7869.003 7949.875 -7868.424 7949.717 "></path>
    <path id="STROKE_7df80717-6d50-4af6-9aae-d729e627a93c" opacity="1.000" fill="none" stroke="#00b347" stroke-width="1.000" stroke-opacity="1.000" stroke-linecap="round" stroke-linejoin="round" d="M -7855.600 7948.614 Q -7855.259 7948.528 -7856.879 7948.837 Q -7856.798 7948.939 -7854.246 7948.326 Q -7851.694 7947.713 -7851.221 7947.590 "></path>
    <path id="STROKE_310ea65b-aac9-4c71-9313-a84697ebf522" opacity="1.000" fill="none" stroke="#00b347" stroke-width="1.000" stroke-opacity="1.000" stroke-linecap="round" stroke-linejoin="round" d="M -7839.410 7946.951 Q -7839.366 7946.974 -7839.284 7947.019 L -7839.287 7947.034 Q -7839.341 7947.045 -7839.760 7947.028 Q -7839.786 7946.884 -7838.423 7945.854 Q -7837.060 7944.824 -7836.828 7944.629 "></path>
    <path id="STROKE_fc120d3c-f5f8-4f8a-8f51-dcd380e10973" opacity="1.000" fill="none" stroke="#00b347" stroke-width="1.000" stroke-opacity="1.000" stroke-linecap="round" stroke-linejoin="round" d="M -7830.337 7944.016 Q -7830.443 7944.047 -7830.397 7944.042 Q -7830.351 7944.038 -7830.268 7944.028 Q -7830.184 7944.018 -7829.747 7943.884 Q -7829.985 7943.741 -7828.695 7943.409 Q -7827.404 7943.078 -7827.186 7942.964 "></path>
    <path id="STROKE_35df60c2-68d4-4a4d-82ab-8aa3eea388ce" opacity="1.000" fill="none" stroke="#00b347" stroke-width="1.000" stroke-opacity="1.000" stroke-linecap="round" stroke-linejoin="round" d="M -7822.181 7942.042 Q -7822.259 7942.517 -7822.253 7942.484 Q -7822.440 7942.909 -7822.446 7942.925 Q -7822.453 7942.941 -7822.478 7942.917 Q -7822.516 7942.958 -7822.542 7943.024 Q -7822.270 7943.651 -7821.225 7942.190 Q -7820.181 7940.730 -7819.932 7940.337 "></path>
    <path id="STROKE_fbd10fc3-f396-4e24-b6e2-375e1d3ca838" opacity="1.000" fill="none" stroke="#00b347" stroke-width="1.000" stroke-opacity="1.000" stroke-linecap="round" stroke-linejoin="round" d="M -7820.522 7924.591 Q -7820.452 7924.444 -7821.154 7923.822 Q -7821.856 7923.201 -7822.298 7922.472 Q -7822.739 7921.743 -7822.295 7919.990 Q -7821.852 7918.237 -7821.688 7917.660 "></path>
    <path id="STROKE_b3af90ec-2ca2-477e-b2ac-8db339caf5cb" opacity="1.000" fill="none" stroke="#00b347" stroke-width="1.000" stroke-opacity="1.000" stroke-linecap="round" stroke-linejoin="round" d="M -7820.567 7908.027 Q -7820.949 7907.851 -7821.443 7907.359 Q -7821.937 7906.867 -7822.398 7906.343 Q -7822.860 7905.818 -7822.283 7904.525 Q -7821.706 7903.232 -7821.505 7902.910 "></path>
    <path id="STROKE_d3acc4ed-6846-49b6-a4a6-5a3ffae05b30" opacity="1.000" fill="none" stroke="#00b347" stroke-width="1.000" stroke-opacity="1.000" stroke-linecap="round" stroke-linejoin="round" d="M -7818.923 7895.529 Q -7819.027 7895.488 -7820.851 7894.258 Q -7820.914 7894.182 -7820.487 7893.338 Q -7820.061 7892.494 -7819.885 7892.223 "></path>
    <path id="STROKE_61771d37-82d2-4652-9f0b-458a668ff226" opacity="1.000" fill="none" stroke="#00b347" stroke-width="1.000" stroke-opacity="1.000" stroke-linecap="round" stroke-linejoin="round" d="M -7819.025 7887.440 Q -7818.945 7887.378 -7819.530 7887.037 Q -7820.116 7886.696 -7820.268 7886.074 Q -7820.420 7885.452 -7820.222 7884.854 Q -7820.023 7884.257 -7819.928 7883.969 "></path>
    <path id="STROKE_3f20a5bc-7bec-4477-b6c4-26614ece298c" opacity="1.000" fill="none" stroke="#00b347" stroke-width="1.000" stroke-opacity="1.000" stroke-linecap="round" stroke-linejoin="round" d="M -7818.917 7880.253 Q -7818.822 7880.301 -7821.879 7880.148 Q -7821.842 7879.922 -7821.834 7879.637 Q -7821.827 7879.353 -7821.879 7879.189 "></path>
    <path id="STROKE_519b4157-b417-4915-8713-3aae2d6d9657" opacity="1.000" fill="none" stroke="#00b347" stroke-width="1.000" stroke-opacity="1.000" stroke-linecap="round" stroke-linejoin="round" d="M -7825.696 7878.199 Q -7826.099 7878.095 -7828.074 7877.825 Q -7830.049 7877.555 -7831.768 7877.556 Q -7833.486 7877.556 -7834.516 7877.501 Q -7835.545 7877.445 -7838.053 7876.993 Q -7840.561 7876.541 -7840.896 7876.466 "></path>
    <path id="STROKE_5e9d8a64-641f-4e22-9c0d-435154044410" opacity="1.000" fill="none" stroke="#00b347" stroke-width="1.000" stroke-opacity="1.000" stroke-linecap="round" stroke-linejoin="round" d="M -7851.405 7877.318 Q -7851.908 7877.390 -7853.259 7877.184 Q -7854.611 7876.978 -7855.705 7877.120 Q -7856.800 7877.263 -7857.311 7877.534 Q -7857.822 7877.806 -7857.977 7877.848 "></path>
    <path id="STROKE_9e390d62-111a-42e2-91b4-2a0d58a44a8e" opacity="1.000" fill="none" stroke="#00b347" stroke-width="1.000" stroke-opacity="1.000" stroke-linecap="round" stroke-linejoin="round" d="M -7866.881 7878.862 Q -7867.547 7879.164 -7870.604 7879.043 Q -7873.660 7878.923 -7873.772 7878.904 "></path>
    <path id="STROKE_3cc25fc1-883d-4134-a2c5-e2c8fdd74b93" opacity="1.000" fill="none" stroke="#00b347" stroke-width="1.000" stroke-opacity="1.000" stroke-linecap="round" stroke-linejoin="round" d="M -7877.621 7878.942 Q -7877.714 7878.917 -7880.561 7878.609 Q -7880.585 7878.656 -7880.582 7878.781 Q -7880.578 7878.906 -7880.551 7879.029 "></path>
    <path id="STROKE_737eb66a-64c3-4e1a-acb6-7d2fed86b7cd" opacity="1.000" fill="none" stroke="#00b347" stroke-width="1.000" stroke-opacity="1.000" stroke-linecap="round" stroke-linejoin="round" d="M -7860.025 7977.511 Q -7860.021 7977.491 -7860.079 7977.265 Q -7859.417 7977.901 -7859.666 7980.741 Q -7859.914 7983.582 -7860.171 7985.295 Q -7860.429 7987.008 -7860.360 7987.106 "></path>
    <path id="STROKE_4683fce2-c9b2-4334-aa75-f56cc2cb7414" opacity="1.000" fill="none" stroke="#00b347" stroke-width="1.000" stroke-opacity="1.000" stroke-linecap="round" stroke-linejoin="round" d="M -7858.828 7989.568 Q -7858.760 7989.822 -7859.241 7990.396 Q -7859.722 7990.971 -7859.894 7991.519 Q -7860.064 7992.066 -7859.988 7992.536 Q -7859.913 7993.005 -7859.694 7993.303 Q -7859.476 7993.601 -7859.326 7993.811 "></path>
    <path id="STROKE_b478466e-d734-4ea6-b081-84b3f808692a" opacity="1.000" fill="none" stroke="#00b347" stroke-width="1.000" stroke-opacity="1.000" stroke-linecap="round" stroke-linejoin="round" d="M -7857.919 7997.293 Q -7858.093 7997.841 -7858.161 7997.806 Q -7858.647 7998.177 -7858.935 7998.704 Q -7859.222 7999.232 -7859.307 7999.453 Q -7859.391 7999.674 -7859.067 8000.249 Q -7858.744 8000.825 -7858.465 8001.349 Q -7858.187 8001.874 -7858.152 8002.106 Q -7858.118 8002.339 -7858.544 8005.129 Q -7858.521 8005.113 -7858.585 8005.162 Q -7858.649 8005.211 -7858.181 8004.550 Q -7857.950 8004.618 -7857.987 8004.782 Q -7858.025 8004.946 -7858.026 8005.049 "></path>
    <path id="STROKE_6e8a53fe-b8e5-4021-9e0e-b7fce7d5d160" opacity="1.000" fill="none" stroke="#00b347" stroke-width="1.000" stroke-opacity="1.000" stroke-linecap="round" stroke-linejoin="round" d="M -7856.750 8006.063 Q -7856.750 8006.063 -7856.738 8006.020 Q -7856.726 8005.977 -7856.808 8005.866 Q -7856.890 8005.756 -7854.590 8004.894 Q -7852.290 8004.031 -7851.953 8003.901 "></path>
    <path id="STROKE_f9e741ad-73b6-4df8-99cf-437ee4502b2d" opacity="1.000" fill="none" stroke="#00b347" stroke-width="1.000" stroke-opacity="1.000" stroke-linecap="round" stroke-linejoin="round" d="M -7845.968 8004.956 Q -7845.952 8004.958 -7845.937 8004.961 Q -7845.572 8004.759 -7842.560 8003.775 Q -7839.548 8002.792 -7839.214 8002.681 "></path>
    <path id="STROKE_0c1fff36-5380-4e62-be23-2127c82ee4e8" opacity="1.000" fill="none" stroke="#00b347" stroke-width="1.000" stroke-opacity="1.000" stroke-linecap="round" stroke-linejoin="round" d="M -7835.779 8002.978 Q -7835.703 8003.392 -7835.742 8003.331 Q -7835.748 8003.365 -7835.751 8003.384 Q -7835.484 8003.482 -7832.885 8003.093 Q -7830.286 8002.705 -7829.942 8002.627 "></path>
    <path id="STROKE_7bbe1160-8477-466e-abe7-2ed98070a884" opacity="1.000" fill="none" stroke="#00b347" stroke-width="1.000" stroke-opacity="1.000" stroke-linecap="round" stroke-linejoin="round" d="M -7825.915 8003.360 Q -7825.974 8003.264 -7823.589 8002.884 Q -7821.205 8002.505 -7820.941 8002.434 "></path>
    <path id="STROKE_1660fa46-c891-4654-9b5e-fa7dcb8ed97a" opacity="1.000" fill="none" stroke="#00b347" stroke-width="1.000" stroke-opacity="1.000" stroke-linecap="round" stroke-linejoin="round" d="M -7816.288 8003.199 Q -7816.277 8003.232 -7816.283 8003.365 Q -7816.605 8003.519 -7814.064 8003.198 Q -7811.524 8002.877 -7811.241 8002.790 "></path>
    <path id="STROKE_00be1241-51b1-475e-9ce9-cca2d8ca8b18" opacity="1.000" fill="none" stroke="#00b347" stroke-width="1.000" stroke-opacity="1.000" stroke-linecap="round" stroke-linejoin="round" d="M -7806.603 8002.881 Q -7806.804 8002.775 -7806.201 8003.062 L -7806.204 8003.081 Q -7806.535 8003.165 -7804.618 8002.992 Q -7802.701 8002.820 -7801.769 8002.949 Q -7800.836 8003.078 -7800.173 8003.061 Q -7799.511 8003.044 -7798.063 8002.972 Q -7796.615 8002.900 -7795.697 8003.001 Q -7794.779 8003.102 -7793.831 8002.693 Q -7792.883 8002.284 -7792.610 8002.160 "></path>
    <path id="STROKE_f7840f59-5684-4aba-beaa-0cf395633fc1" opacity="1.000" fill="none" stroke="#00b347" stroke-width="1.000" stroke-opacity="1.000" stroke-linecap="round" stroke-linejoin="round" d="M -7788.566 8002.793 Q -7788.409 8003.029 -7788.918 8003.074 Q -7788.964 8002.988 -7787.641 8002.616 Q -7786.318 8002.243 -7785.986 8002.144 "></path>
    <path id="STROKE_be73060f-b0af-43dd-ba55-8ec716a1aff1" opacity="1.000" fill="none" stroke="#00b347" stroke-width="1.000" stroke-opacity="1.000" stroke-linecap="round" stroke-linejoin="round" d="M -7780.341 8001.999 Q -7780.822 8001.920 -7780.699 8001.940 Q -7780.746 8001.933 -7780.761 8001.930 Q -7780.727 8001.961 -7780.389 8001.869 Q -7780.051 8001.776 -7777.913 8001.671 Q -7775.774 8001.566 -7775.448 8001.501 "></path>
    <path id="STROKE_85d909d5-da12-4681-96a9-7ff8279d4062" opacity="1.000" fill="none" stroke="#00b347" stroke-width="1.000" stroke-opacity="1.000" stroke-linecap="round" stroke-linejoin="round" d="M -7772.081 8000.745 Q -7772.296 8000.810 -7772.601 8000.896 Q -7772.262 8000.994 -7771.446 8000.235 Q -7770.630 7999.476 -7770.471 7999.337 "></path>
    <path id="STROKE_3fc7b33a-2b0b-4ac4-9a62-60afaacb2c15" opacity="1.000" fill="none" stroke="#00b347" stroke-width="1.000" stroke-opacity="1.000" stroke-linecap="round" stroke-linejoin="round" d="M -7769.494 7999.095 L -7769.497 7999.110 Q -7769.713 7999.251 -7770.149 7999.083 Q -7770.585 7998.914 -7770.708 7998.604 Q -7770.831 7998.295 -7770.815 7998.346 Q -7770.800 7998.397 -7770.798 7998.127 Q -7770.796 7997.856 -7770.453 7997.194 Q -7770.109 7996.532 -7769.972 7996.302 "></path>
    <path id="STROKE_e4954e83-49e6-4737-99a1-a005d0416761" opacity="1.000" fill="none" stroke="#00b347" stroke-width="1.000" stroke-opacity="1.000" stroke-linecap="round" stroke-linejoin="round" d="M -7769.910 7991.253 Q -7769.964 7991.177 -7770.184 7990.934 Q -7770.404 7990.691 -7770.353 7990.729 Q -7770.301 7990.767 -7770.526 7990.618 Q -7770.751 7990.469 -7771.021 7990.050 Q -7771.290 7989.630 -7771.305 7989.148 Q -7771.321 7988.667 -7771.184 7988.348 Q -7771.047 7988.028 -7770.791 7987.603 Q -7770.535 7987.177 -7770.376 7986.916 "></path>
    <path id="STROKE_34b99c41-5c69-48cf-ab80-043f62f1fe44" opacity="1.000" fill="none" stroke="#00b347" stroke-width="1.000" stroke-opacity="1.000" stroke-linecap="round" stroke-linejoin="round" d="M -7769.103 7983.076 Q -7769.434 7982.811 -7769.864 7982.570 Q -7770.293 7982.330 -7770.569 7981.974 Q -7770.844 7981.617 -7770.828 7981.383 Q -7770.812 7981.148 -7770.589 7980.819 Q -7770.367 7980.489 -7770.186 7980.318 "></path>
    <path id="STROKE_3b5987c4-f64b-441e-aa4b-0b42082280cb" opacity="1.000" fill="none" stroke="#00b347" stroke-width="1.000" stroke-opacity="1.000" stroke-linecap="round" stroke-linejoin="round" d="M -7768.802 7978.368 Q -7768.956 7978.434 -7769.365 7978.244 Q -7769.773 7978.054 -7770.243 7977.788 Q -7770.712 7977.521 -7770.649 7977.558 Q -7770.587 7977.594 -7770.579 7977.603 Q -7770.570 7977.611 -7770.760 7977.470 Q -7770.674 7976.947 -7770.683 7977.001 Q -7770.706 7976.822 -7770.415 7976.220 Q -7770.124 7975.617 -7769.997 7975.457 "></path>
    <path id="STROKE_c97b83c6-662e-4363-9548-43d6c111060b" opacity="1.000" fill="none" stroke="#00b347" stroke-width="1.000" stroke-opacity="1.000" stroke-linecap="round" stroke-linejoin="round" d="M -7769.835 7974.915 Q -7770.402 7974.821 -7770.321 7974.835 Q -7770.768 7974.833 -7772.493 7974.375 Q -7772.462 7974.313 -7772.431 7974.251 "></path>
    <path id="STROKE_475b6f63-16b6-4799-9c66-a5414c271de0" opacity="1.000" fill="none" stroke="#00b347" stroke-width="1.000" stroke-opacity="1.000" stroke-linecap="round" stroke-linejoin="round" d="M -7772.719 7974.338 Q -7772.662 7974.433 -7773.945 7974.157 Q -7775.229 7973.882 -7776.483 7974.116 Q -7777.737 7974.350 -7777.912 7974.423 "></path>
    <path id="STROKE_a6a4a3c0-992c-4fab-aeab-e082e02e1202" opacity="1.000" fill="none" stroke="#00b347" stroke-width="1.000" stroke-opacity="1.000" stroke-linecap="round" stroke-linejoin="round" d="M -7785.544 7974.676 Q -7786.280 7974.980 -7787.672 7974.748 Q -7789.065 7974.515 -7789.093 7974.495 "></path>
    <path id="STROKE_d7be2962-25cf-420f-9d9a-abe5b41e689f" opacity="1.000" fill="none" stroke="#00b347" stroke-width="1.000" stroke-opacity="1.000" stroke-linecap="round" stroke-linejoin="round" d="M -7790.203 7974.715 Q -7790.666 7974.675 -7792.816 7974.745 Q -7794.967 7974.815 -7795.103 7974.809 "></path>
    <path id="STROKE_969bcdd3-5c0f-40e7-9a55-c32a01f59ec5" opacity="1.000" fill="none" stroke="#00b347" stroke-width="1.000" stroke-opacity="1.000" stroke-linecap="round" stroke-linejoin="round" d="M -7799.856 7975.037 Q -7800.349 7975.132 -7803.276 7974.704 Q -7803.273 7974.688 -7803.176 7974.640 Q -7803.078 7974.590 -7802.983 7974.523 "></path>
    <path id="STROKE_1f865bee-cea1-4d00-abad-c0a3313f2346" opacity="1.000" fill="none" stroke="#00b347" stroke-width="1.000" stroke-opacity="1.000" stroke-linecap="round" stroke-linejoin="round" d="M -7804.781 7974.898 Q -7804.532 7975.041 -7806.730 7975.078 Q -7808.928 7975.116 -7809.025 7975.100 "></path>
    <path id="STROKE_7c001245-6cea-4d24-a781-c79241c4b82a" opacity="1.000" fill="none" stroke="#00b347" stroke-width="1.000" stroke-opacity="1.000" stroke-linecap="round" stroke-linejoin="round" d="M -7814.708 7976.115 Q -7815.014 7976.119 -7817.059 7975.939 Q -7819.103 7975.759 -7819.247 7975.803 "></path>
    <path id="STROKE_7d49b751-931b-42be-8753-ec2c3d55ba8d" opacity="1.000" fill="none" stroke="#00b347" stroke-width="1.000" stroke-opacity="1.000" stroke-linecap="round" stroke-linejoin="round" d="M -7823.491 7976.644 Q -7823.917 7976.669 -7825.225 7976.683 Q -7826.531 7976.696 -7826.616 7976.698 "></path>
    <path id="STROKE_c3cc04c6-976b-482f-9839-d7ab2dd3695a" opacity="1.000" fill="none" stroke="#00b347" stroke-width="1.000" stroke-opacity="1.000" stroke-linecap="round" stroke-linejoin="round" d="M -7837.100 7977.657 Q -7836.691 7977.733 -7838.720 7977.423 Q -7838.728 7977.374 -7838.736 7977.264 Q -7838.744 7977.154 -7838.768 7976.980 "></path>
    <path id="STROKE_90fae1db-d786-44a4-9275-9098c2c5b800" opacity="1.000" fill="none" stroke="#00b347" stroke-width="1.000" stroke-opacity="1.000" stroke-linecap="round" stroke-linejoin="round" d="M -7841.707 7977.374 Q -7841.712 7977.531 -7843.498 7977.608 Q -7845.284 7977.685 -7845.305 7977.682 "></path>
    <path id="STROKE_5e8a33f3-625d-4e20-898b-25b11c90c5bd" opacity="1.000" fill="none" stroke="#00b347" stroke-width="1.000" stroke-opacity="1.000" stroke-linecap="round" stroke-linejoin="round" d="M -7849.083 7978.702 Q -7849.358 7978.969 -7850.723 7978.782 Q -7852.087 7978.595 -7852.155 7978.497 "></path>
    <path id="STROKE_ebf6d0c9-e112-41da-9975-6143f6a4ea35" opacity="1.000" fill="none" stroke="#00b347" stroke-width="1.000" stroke-opacity="1.000" stroke-linecap="round" stroke-linejoin="round" d="M -7854.357 7979.279 Q -7854.729 7979.210 -7857.494 7978.826 Q -7857.476 7978.813 -7857.458 7978.801 "></path>
    <path id="STROKE_2626395d-d859-4727-8dc0-180c38c34881" opacity="1.000" fill="none" stroke="#000000" stroke-width="1.000" stroke-opacity="1.000" stroke-linecap="round" stroke-linejoin="round" d="M -7827.449 7961.852 Q -7827.423 7961.906 -7827.541 7961.845 Q -7827.658 7961.784 -7827.136 7961.543 Q -7826.614 7961.302 -7826.099 7961.197 Q -7825.584 7961.092 -7824.988 7960.955 Q -7824.391 7960.818 -7824.052 7960.748 Q -7823.713 7960.679 -7822.931 7960.547 Q -7822.149 7960.415 -7822.025 7960.368 "></path>
    <path id="STROKE_55963db6-04e9-4fb9-87a7-880638335923" opacity="1.000" fill="none" stroke="#000000" stroke-width="1.000" stroke-opacity="1.000" stroke-linecap="round" stroke-linejoin="round" d="M -7826.185 7959.479 Q -7825.938 7959.494 -7826.961 7959.402 Q -7827.136 7959.719 -7827.286 7960.926 Q -7827.437 7962.132 -7827.602 7962.953 Q -7827.767 7963.775 -7827.640 7964.239 Q -7827.512 7964.704 -7827.347 7964.823 Q -7827.182 7964.943 -7826.911 7965.111 Q -7826.640 7965.279 -7825.997 7965.088 Q -7825.354 7964.897 -7824.805 7964.611 Q -7824.255 7964.326 -7823.628 7964.187 Q -7823.002 7964.048 -7822.681 7964.126 Q -7822.359 7964.203 -7822.233 7964.420 Q -7822.107 7964.638 -7822.091 7965.290 Q -7822.074 7965.941 -7822.229 7966.722 Q -7822.382 7967.501 -7822.515 7967.839 Q -7822.647 7968.177 -7822.934 7968.353 Q -7823.220 7968.529 -7823.217 7968.520 Q -7823.213 7968.510 -7823.182 7968.509 Q -7823.151 7968.508 -7823.752 7968.684 Q -7824.353 7968.859 -7824.522 7968.898 "></path>
    <path id="STROKE_ea279f11-5193-4b91-ac0b-934443424d3b" opacity="1.000" fill="none" stroke="#000000" stroke-width="1.000" stroke-opacity="1.000" stroke-linecap="round" stroke-linejoin="round" d="M -7829.328 7968.416 Q -7829.738 7968.453 -7829.748 7968.410 Q -7830.487 7968.336 -7830.300 7968.355 Q -7830.113 7968.375 -7830.480 7968.321 Q -7830.117 7968.501 -7828.777 7968.149 Q -7827.438 7967.798 -7826.532 7967.614 Q -7825.625 7967.431 -7825.177 7967.421 Q -7824.729 7967.412 -7824.451 7967.433 Q -7824.174 7967.455 -7823.828 7967.443 Q -7823.481 7967.432 -7823.276 7967.399 "></path>
    <path id="STROKE_1b5d7772-9687-4b09-92b0-7eba3c8373aa" opacity="1.000" fill="none" stroke="#000000" stroke-width="1.000" stroke-opacity="1.000" stroke-linecap="round" stroke-linejoin="round" d="M -7813.420 7968.278 Q -7813.420 7968.277 -7813.638 7968.422 Q -7813.855 7968.566 -7813.786 7968.553 Q -7813.730 7968.489 -7814.553 7969.690 Q -7815.376 7970.892 -7815.472 7970.962 "></path>
    <path id="STROKE_7d086840-b03c-4ce9-9f09-33244cbb11b2" opacity="1.000" fill="none" stroke="#000000" stroke-width="1.000" stroke-opacity="1.000" stroke-linecap="round" stroke-linejoin="round" d="M -7808.529 7961.514 Q -7808.528 7961.514 -7808.304 7961.219 Q -7808.080 7960.925 -7806.575 7967.398 Q -7806.027 7967.378 -7802.825 7958.964 Q -7802.827 7958.979 -7802.830 7958.995 "></path>
    <path id="STROKE_036fb46e-abe0-452d-b070-27f2b8bff9fc" opacity="1.000" fill="none" stroke="#000000" stroke-width="1.000" stroke-opacity="1.000" stroke-linecap="round" stroke-linejoin="round" d="M -7806.963 7963.579 Q -7806.946 7963.583 -7807.067 7963.767 Q -7807.083 7963.764 -7807.098 7963.762 Q -7807.523 7963.338 -7805.493 7962.817 Q -7803.462 7962.296 -7803.300 7962.239 "></path>
    <path id="STROKE_a8441c5e-0bb2-420b-b330-9b387aa572df" opacity="1.000" fill="none" stroke="#000000" stroke-width="1.000" stroke-opacity="1.000" stroke-linecap="round" stroke-linejoin="round" d="M -7839.101 7869.391 Q -7839.438 7869.525 -7838.297 7868.789 Q -7837.862 7868.577 -7838.940 7870.366 Q -7840.019 7872.155 -7840.024 7872.190 "></path>
    <path id="STROKE_70e0d338-4ec7-4c63-9a16-173dfc004af0" opacity="1.000" fill="none" stroke="#000000" stroke-width="1.000" stroke-opacity="1.000" stroke-linecap="round" stroke-linejoin="round" d="M -7833.081 7864.919 Q -7833.081 7864.919 -7833.049 7864.850 Q -7833.017 7864.781 -7832.699 7864.691 Q -7832.381 7864.602 -7832.015 7864.460 Q -7831.648 7864.318 -7831.178 7864.153 Q -7830.707 7863.987 -7830.579 7863.832 Q -7830.452 7863.677 -7828.104 7863.528 Q -7828.119 7863.282 -7828.256 7865.485 Q -7828.393 7867.688 -7828.873 7871.175 Q -7828.780 7871.221 -7828.703 7871.266 "></path>
    <path id="STROKE_3b034e36-399d-4075-a6be-6b577b2c002d" opacity="1.000" fill="none" stroke="#000000" stroke-width="1.000" stroke-opacity="1.000" stroke-linecap="round" stroke-linejoin="round" d="M -7831.865 7867.897 Q -7831.917 7867.888 -7832.055 7867.834 Q -7832.053 7867.819 -7832.042 7867.753 Q -7832.059 7867.843 -7829.771 7867.360 Q -7827.482 7866.877 -7827.343 7866.833 "></path>
    <path id="STROKE_ad07462b-2d09-4cf2-bf5f-bb0cded75a0c" opacity="1.000" fill="none" stroke="#000000" stroke-width="1.000" stroke-opacity="1.000" stroke-linecap="round" stroke-linejoin="round" d="M -7832.000 7871.528 Q -7832.066 7871.553 -7832.405 7871.564 Q -7832.021 7871.723 -7830.077 7871.107 Q -7828.134 7870.491 -7827.831 7870.375 "></path>
    <path id="STROKE_32c9768a-d925-4868-b40d-006f59dc6ae0" opacity="1.000" fill="none" stroke="#000000" stroke-width="1.000" stroke-opacity="1.000" stroke-linecap="round" stroke-linejoin="round" d="M -7832.528 7887.906 Q -7832.529 7887.906 -7832.688 7887.818 Q -7832.847 7887.730 -7833.522 7894.588 Q -7834.198 7901.446 -7834.910 7909.365 Q -7835.622 7917.285 -7835.931 7921.190 Q -7836.240 7925.095 -7836.427 7926.939 Q -7836.614 7928.784 -7836.811 7930.927 Q -7836.821 7930.989 -7836.759 7930.609 Q -7836.696 7930.229 -7836.653 7929.965 "></path>
    <path id="STROKE_1b437e30-6840-48be-8e77-e8649a83d56d" opacity="1.000" fill="none" stroke="#000000" stroke-width="1.000" stroke-opacity="1.000" stroke-linecap="round" stroke-linejoin="round" d="M -7849.704 7889.489 Q -7849.741 7889.483 -7850.001 7889.334 Q -7849.740 7888.647 -7849.714 7888.805 Q -7849.350 7888.212 -7846.514 7887.891 Q -7843.677 7887.569 -7842.140 7887.449 Q -7840.603 7887.328 -7839.636 7887.205 Q -7838.669 7887.082 -7838.348 7887.031 Q -7838.026 7886.981 -7837.305 7886.868 Q -7836.583 7886.756 -7836.350 7886.714 Q -7836.118 7886.672 -7835.849 7886.632 Q -7835.579 7886.592 -7835.643 7886.604 Q -7835.706 7886.617 -7835.644 7886.622 Q -7835.581 7886.627 -7835.321 7886.641 Q -7835.061 7886.653 -7835.032 7886.668 Q -7835.003 7886.684 -7835.043 7886.666 Q -7835.083 7886.649 -7834.855 7886.710 Q -7834.628 7886.771 -7831.851 7887.319 Q -7831.886 7887.377 -7831.921 7887.434 "></path>
    <path id="STROKE_ac2694d3-451e-4c5a-9c36-83ee9c55cc46" opacity="1.000" fill="none" stroke="#000000" stroke-width="1.000" stroke-opacity="1.000" stroke-linecap="round" stroke-linejoin="round" d="M -7848.547 7907.445 Q -7848.565 7907.442 -7848.786 7907.405 Q -7848.984 7907.606 -7845.607 7907.141 Q -7842.230 7906.675 -7839.863 7906.475 Q -7837.497 7906.274 -7834.583 7906.370 Q -7834.579 7906.351 -7834.594 7906.206 Q -7834.609 7906.061 -7834.674 7905.986 "></path>
    <path id="STROKE_fe1be810-a339-416e-beed-26d678b4c25b" opacity="1.000" fill="none" stroke="#000000" stroke-width="1.000" stroke-opacity="1.000" stroke-linecap="round" stroke-linejoin="round" d="M -7835.875 7922.489 Q -7835.876 7922.489 -7836.159 7922.054 Q -7836.442 7921.619 -7853.237 7922.221 L -7853.241 7922.244 Q -7853.092 7922.444 -7852.638 7922.327 Q -7852.183 7922.210 -7851.895 7922.073 "></path>
    <path id="STROKE_594e53bd-24fc-4db9-86de-f3257204d937" opacity="1.000" fill="none" stroke="#000000" stroke-width="1.000" stroke-opacity="1.000" stroke-linecap="round" stroke-linejoin="round" d="M -7836.664 7927.048 Q -7836.664 7927.048 -7836.748 7927.279 Q -7836.832 7927.510 -7836.837 7927.470 Q -7837.715 7927.397 -7836.909 7937.498 Q -7837.268 7937.431 -7837.183 7937.466 Q -7837.097 7937.501 -7837.358 7937.431 Q -7837.620 7937.361 -7837.995 7937.185 Q -7838.371 7937.008 -7838.521 7936.951 Q -7838.671 7936.893 -7838.830 7936.818 Q -7838.988 7936.743 -7839.437 7936.625 Q -7839.886 7936.507 -7840.127 7936.471 Q -7840.369 7936.435 -7840.516 7936.416 Q -7840.662 7936.397 -7840.728 7936.322 Q -7840.793 7936.247 -7844.035 7936.951 Q -7847.278 7937.655 -7851.211 7938.110 Q -7851.207 7938.087 -7851.198 7937.975 Q -7851.189 7937.862 -7851.176 7937.661 "></path>
    <path id="STROKE_73954509-d4cf-4ebd-85bb-21dcd81ef652" opacity="1.000" fill="none" stroke="#000000" stroke-width="1.000" stroke-opacity="1.000" stroke-linecap="round" stroke-linejoin="round" d="M -7853.682 7886.491 Q -7853.885 7886.301 -7854.337 7886.408 Q -7854.789 7886.515 -7854.849 7886.749 Q -7854.908 7886.983 -7854.933 7887.041 Q -7854.958 7887.100 -7855.130 7887.655 Q -7855.303 7888.210 -7855.473 7889.223 Q -7855.642 7890.236 -7855.544 7890.889 Q -7855.446 7891.542 -7855.162 7892.017 Q -7854.878 7892.491 -7854.559 7892.771 Q -7854.239 7893.049 -7853.775 7893.155 Q -7853.311 7893.261 -7853.347 7893.285 Q -7853.383 7893.310 -7852.729 7893.274 Q -7852.074 7893.239 -7851.217 7892.143 Q -7850.359 7891.046 -7850.035 7890.229 Q -7849.711 7889.413 -7849.573 7888.352 Q -7849.436 7887.291 -7850.623 7886.660 Q -7851.810 7886.030 -7852.921 7886.692 Q -7854.032 7887.354 -7854.489 7888.824 Q -7854.946 7890.293 -7854.983 7890.636 "></path>
    <path id="STROKE_4ec5f828-c414-4d86-9b8d-08fc29eccbdd" opacity="1.000" fill="none" stroke="#000000" stroke-width="1.000" stroke-opacity="1.000" stroke-linecap="round" stroke-linejoin="round" d="M -7855.332 7906.746 Q -7856.116 7907.133 -7856.465 7908.438 Q -7856.814 7909.742 -7856.611 7910.946 Q -7856.407 7912.150 -7855.607 7913.165 Q -7854.808 7914.180 -7853.691 7914.422 Q -7852.575 7914.664 -7851.768 7914.648 Q -7850.959 7914.632 -7850.048 7913.398 Q -7849.136 7912.165 -7848.656 7910.836 Q -7848.176 7909.507 -7848.459 7908.362 Q -7848.743 7907.217 -7849.239 7906.549 Q -7849.736 7905.880 -7850.445 7905.585 Q -7851.154 7905.290 -7851.520 7905.185 Q -7851.885 7905.079 -7853.228 7906.096 Q -7854.571 7907.113 -7855.056 7908.937 Q -7855.540 7910.761 -7855.640 7911.132 "></path>
    <path id="STROKE_20c362a0-9194-4ef5-9a59-ce65ef1e2a77" opacity="1.000" fill="none" stroke="#000000" stroke-width="1.000" stroke-opacity="1.000" stroke-linecap="round" stroke-linejoin="round" d="M -7859.969 7923.710 Q -7859.966 7923.691 -7859.963 7923.672 L -7859.981 7923.669 Q -7859.931 7923.499 -7860.307 7925.322 Q -7860.684 7927.146 -7860.544 7928.136 Q -7860.404 7929.126 -7860.065 7929.770 Q -7859.726 7930.414 -7859.319 7930.469 Q -7858.913 7930.523 -7858.182 7930.633 Q -7857.450 7930.743 -7856.340 7929.389 Q -7855.230 7928.035 -7854.534 7926.185 Q -7853.837 7924.333 -7853.768 7923.105 Q -7853.699 7921.878 -7853.976 7921.169 Q -7854.252 7920.460 -7854.729 7920.240 Q -7855.207 7920.021 -7855.555 7920.213 Q -7855.903 7920.406 -7856.168 7920.613 Q -7856.433 7920.821 -7856.542 7920.935 Q -7856.652 7921.049 -7856.885 7921.187 Q -7857.118 7921.325 -7858.214 7922.829 Q -7859.309 7924.332 -7859.483 7924.526 "></path>
    <path id="STROKE_2e48cfc6-ecb7-4eb0-9175-3099a5038f18" opacity="1.000" fill="none" stroke="#000000" stroke-width="1.000" stroke-opacity="1.000" stroke-linecap="round" stroke-linejoin="round" d="M -7856.326 7936.524 Q -7856.725 7936.428 -7857.226 7937.728 Q -7857.727 7939.028 -7857.866 7940.048 Q -7858.005 7941.068 -7857.850 7941.565 Q -7857.695 7942.063 -7857.083 7942.228 Q -7856.472 7942.393 -7855.573 7942.457 Q -7854.674 7942.521 -7853.507 7941.574 Q -7852.339 7940.627 -7851.883 7939.814 Q -7851.428 7939.002 -7851.341 7938.485 Q -7851.255 7937.968 -7851.464 7937.620 Q -7851.673 7937.273 -7851.854 7937.087 Q -7852.037 7936.900 -7852.445 7936.387 Q -7852.854 7935.873 -7853.545 7935.699 Q -7854.237 7935.526 -7854.750 7935.542 Q -7855.264 7935.559 -7855.444 7935.854 Q -7855.625 7936.150 -7855.694 7936.221 "></path>
    <path id="STROKE_6d26e9a4-7f94-4c1b-be57-e83413ab50e3" opacity="1.000" fill="none" stroke="#000000" stroke-width="1.000" stroke-opacity="1.000" stroke-linecap="round" stroke-linejoin="round" d="M -7856.117 7889.830 Q -7856.499 7889.610 -7856.478 7889.625 Q -7856.709 7889.666 -7856.504 7889.570 Q -7856.300 7889.475 -7857.441 7889.148 Q -7858.583 7888.822 -7860.151 7888.738 Q -7861.720 7888.654 -7874.069 7889.615 L -7874.073 7889.638 Q -7874.048 7889.643 -7873.689 7889.660 Q -7873.330 7889.678 -7873.116 7889.631 "></path>
    <path id="STROKE_28775795-ba97-436c-a895-68b5166d1c63" opacity="1.000" fill="none" stroke="#000000" stroke-width="1.000" stroke-opacity="1.000" stroke-linecap="round" stroke-linejoin="round" d="M -7870.793 7911.895 Q -7870.676 7911.308 -7870.687 7911.520 Q -7869.763 7911.443 -7869.962 7911.475 Q -7870.221 7911.847 -7866.405 7911.207 Q -7862.590 7910.567 -7860.737 7910.065 Q -7858.884 7909.563 -7857.399 7909.530 Q -7855.914 7909.497 -7855.142 7909.750 Q -7854.369 7910.004 -7854.309 7910.033 "></path>
    <path id="STROKE_045c82eb-4779-45fb-824c-abe11621e19f" opacity="1.000" fill="none" stroke="#000000" stroke-width="1.000" stroke-opacity="1.000" stroke-linecap="round" stroke-linejoin="round" d="M -7871.981 7927.373 Q -7871.981 7927.373 -7871.939 7926.999 Q -7871.896 7926.626 -7867.408 7926.260 Q -7862.920 7925.895 -7858.128 7926.148 Q -7857.997 7926.240 -7858.195 7926.945 Q -7858.395 7927.650 -7858.607 7927.925 "></path>
    <path id="STROKE_27e61969-3a88-4c02-88bf-bcb819830264" opacity="1.000" fill="none" stroke="#000000" stroke-width="1.000" stroke-opacity="1.000" stroke-linecap="round" stroke-linejoin="round" d="M -7869.881 7940.301 Q -7869.881 7940.301 -7869.412 7940.055 Q -7868.943 7939.810 -7869.099 7939.940 Q -7867.903 7939.575 -7863.844 7939.242 Q -7859.784 7938.910 -7857.792 7938.613 Q -7855.799 7938.315 -7855.694 7938.187 "></path>
    <path id="STROKE_f2db5062-0d18-43d4-9d2f-9fa20fe4c7a4" opacity="1.000" fill="none" stroke="#000000" stroke-width="1.000" stroke-opacity="1.000" stroke-linecap="round" stroke-linejoin="round" d="M -7870.515 7888.983 Q -7870.496 7888.986 -7870.211 7888.626 Q -7869.993 7888.375 -7869.983 7898.148 Q -7869.975 7907.921 -7870.132 7913.176 Q -7870.289 7918.430 -7870.465 7921.135 Q -7870.641 7923.839 -7870.746 7926.702 Q -7870.852 7929.564 -7870.433 7931.843 Q -7870.015 7934.122 -7869.723 7935.591 Q -7869.430 7937.061 -7869.562 7937.907 Q -7869.692 7938.753 -7869.733 7939.263 Q -7869.773 7939.771 -7869.914 7940.499 Q -7869.971 7940.490 -7870.051 7940.426 Q -7870.130 7940.361 -7870.233 7940.243 "></path>
    <path id="STROKE_36eafba5-2dea-4f5f-b5d8-a2b8df5e49d5" opacity="1.000" fill="none" stroke="#000000" stroke-width="1.000" stroke-opacity="1.000" stroke-linecap="round" stroke-linejoin="round" d="M -7892.863 7918.098 Q -7892.926 7918.088 -7893.266 7918.032 Q -7893.533 7918.423 -7888.252 7918.126 Q -7882.971 7917.829 -7879.662 7917.596 Q -7876.353 7917.362 -7873.989 7917.656 Q -7873.447 7917.117 -7872.697 7917.107 Q -7871.946 7917.098 -7871.284 7916.857 Q -7870.623 7916.616 -7870.164 7916.318 Q -7870.189 7916.225 -7870.468 7916.294 Q -7870.746 7916.363 -7870.882 7916.442 "></path>
    <path id="STROKE_d60d4596-38a4-4b9a-a8db-0b8007750ea8" opacity="1.000" fill="none" stroke="#000000" stroke-width="1.000" stroke-opacity="1.000" stroke-linecap="round" stroke-linejoin="round" d="M -7835.646 7917.635 Q -7835.646 7917.635 -7835.357 7917.747 Q -7835.068 7917.858 -7832.689 7917.397 Q -7830.311 7916.937 -7828.084 7916.981 Q -7825.857 7917.025 -7823.644 7917.287 Q -7821.430 7917.549 -7815.279 7918.265 Q -7809.128 7918.980 -7796.411 7918.942 Q -7796.325 7918.976 -7796.639 7918.839 Q -7796.953 7918.703 -7797.138 7918.571 "></path>
    <path id="STROKE_dfc46065-e1e7-453a-bcbb-7dd91191fca2" opacity="1.000" fill="none" stroke="#000000" stroke-width="1.000" stroke-opacity="1.000" stroke-linecap="round" stroke-linejoin="round" d="M -7796.393 7917.260 Q -7796.666 7917.868 -7796.933 7918.780 Q -7797.200 7919.692 -7796.754 7920.925 Q -7796.308 7922.158 -7795.710 7922.746 Q -7795.113 7923.333 -7794.295 7923.774 Q -7793.477 7924.216 -7792.069 7924.160 Q -7790.662 7924.103 -7789.393 7923.121 Q -7788.123 7922.138 -7787.661 7921.473 Q -7787.198 7920.807 -7786.770 7920.102 Q -7786.341 7919.396 -7786.495 7918.347 Q -7786.650 7917.297 -7787.347 7916.118 Q -7788.043 7914.939 -7788.673 7914.205 Q -7789.303 7913.470 -7790.173 7913.185 Q -7791.043 7912.898 -7792.273 7913.864 Q -7793.503 7914.829 -7794.313 7916.824 Q -7795.124 7918.819 -7795.296 7919.077 "></path>
    <path id="STROKE_621b87bd-d46e-4745-b3f4-c7e20b7f5ac1" opacity="1.000" fill="none" stroke="#000000" stroke-width="1.000" stroke-opacity="1.000" stroke-linecap="round" stroke-linejoin="round" d="M -7786.083 7920.020 Q -7786.102 7920.017 -7786.321 7919.981 Q -7786.303 7920.009 -7785.557 7920.140 Q -7784.810 7920.270 -7784.189 7920.296 Q -7783.569 7920.323 -7780.265 7920.302 Q -7776.960 7920.281 -7771.145 7921.102 Q -7765.330 7921.923 -7756.149 7922.181 Q -7756.225 7922.168 -7756.361 7922.137 Q -7756.498 7922.104 -7756.696 7922.052 "></path>
    <path id="STROKE_47ceb946-0779-426e-a5b1-f2a3ad47bf90" opacity="1.000" fill="none" stroke="#000000" stroke-width="1.000" stroke-opacity="1.000" stroke-linecap="round" stroke-linejoin="round" d="M -7794.536 7918.466 Q -7794.794 7917.562 -7794.758 7917.604 Q -7794.722 7917.647 -7794.726 7917.655 Q -7794.614 7916.978 -7794.598 7916.993 Q -7794.697 7916.854 -7793.492 7916.026 Q -7792.287 7915.198 -7792.030 7915.013 "></path>
    <circle id="STROKE_85e47bb4-cbc1-4e96-87d1-850b043de99c" opacity="1.000" fill="#000000" stroke="#000000" stroke-width="0.1" stroke-opacity="1.000" fill-opacity="1.000" cx="-7888.782" cy="7917.248" r="0.500"></circle>
    <path id="STROKE_a745affe-149e-4527-9d1c-e6a910d3774e" opacity="1.000" fill="none" stroke="#000000" stroke-width="1.000" stroke-opacity="1.000" stroke-linecap="round" stroke-linejoin="round" d="M -7896.331 7920.405 Q -7896.331 7920.405 -7896.382 7920.316 Q -7896.433 7920.227 -7896.420 7920.294 Q -7896.408 7920.361 -7896.488 7920.297 Q -7896.569 7920.232 -7896.558 7919.196 Q -7896.494 7919.237 -7893.890 7919.267 Q -7891.285 7919.297 -7889.403 7918.425 Q -7887.521 7917.553 -7887.340 7917.437 "></path>
    <path id="STROKE_b1b78784-4ac5-4e33-9532-7c6b1e56b93a" opacity="1.000" fill="none" stroke="#000000" stroke-width="1.000" stroke-opacity="1.000" stroke-linecap="round" stroke-linejoin="round" d="M -7887.303 7915.719 Q -7887.265 7915.725 -7887.228 7915.731 Q -7886.574 7916.358 -7882.565 7916.968 Q -7882.046 7916.977 -7883.684 7918.621 Q -7885.322 7920.265 -7887.025 7921.270 Q -7888.729 7922.275 -7888.932 7922.406 "></path>
    <path id="STROKE_07de3453-f03e-46a9-8c70-d22b11a7163d" opacity="1.000" fill="none" stroke="#000000" stroke-width="1.000" stroke-opacity="1.000" stroke-linecap="round" stroke-linejoin="round" d="M -7759.646 7921.286 Q -7761.604 7920.958 -7757.151 7922.186 Q -7757.233 7922.911 -7757.282 7922.862 Q -7757.438 7923.804 -7760.232 7924.948 Q -7763.027 7926.092 -7763.081 7926.146 "></path>
    <path id="STROKE_3ca2e43f-ed02-4802-ad49-68aa34d9fca7" opacity="1.000" fill="none" stroke="#000000" stroke-width="1.000" stroke-opacity="1.000" stroke-linecap="round" stroke-linejoin="round" d="M -7857.562 7867.177 Q -7857.587 7867.173 -7857.649 7867.163 Q -7857.395 7866.848 -7856.522 7866.464 Q -7855.651 7866.080 -7853.283 7865.572 Q -7850.915 7865.064 -7850.896 7865.067 "></path>
    <path id="STROKE_1e793628-0a08-4d29-b9ad-bb948e06b7fe" opacity="1.000" fill="none" stroke="#000000" stroke-width="1.000" stroke-opacity="1.000" stroke-linecap="round" stroke-linejoin="round" d="M -7856.266 7867.468 Q -7857.518 7867.842 -7857.365 7869.810 Q -7857.213 7871.777 -7857.079 7871.945 "></path>
    <path id="STROKE_3c7a06ab-f0ae-420e-97e3-a90121e20645" opacity="1.000" fill="none" stroke="#000000" stroke-width="1.000" stroke-opacity="1.000" stroke-linecap="round" stroke-linejoin="round" d="M -7855.745 7869.568 Q -7855.841 7869.141 -7855.565 7868.807 Q -7855.291 7868.473 -7854.713 7868.283 Q -7854.136 7868.094 -7853.269 7868.498 Q -7853.329 7869.263 -7853.337 7869.146 Q -7853.162 7869.602 -7855.533 7870.794 Q -7855.568 7870.310 -7854.349 7870.096 Q -7853.128 7869.882 -7852.971 7869.908 "></path>
    <path id="STROKE_4bd8ad3a-6c2a-4322-9024-5e273940b2b1" opacity="1.000" fill="none" stroke="#000000" stroke-width="1.000" stroke-opacity="1.000" stroke-linecap="round" stroke-linejoin="round" d="M -7856.337 7873.956 Q -7856.622 7874.043 -7857.353 7874.079 Q -7857.204 7874.479 -7854.417 7872.868 Q -7851.629 7871.257 -7851.348 7871.037 "></path>
    <path id="STROKE_1cf4ba13-3964-4713-81f6-5d57e2e4f4cd" opacity="1.000" fill="none" stroke="#000000" stroke-width="1.000" stroke-opacity="1.000" stroke-linecap="round" stroke-linejoin="round" d="M -7851.450 7863.407 Q -7851.525 7864.315 -7851.553 7866.160 Q -7851.580 7868.004 -7850.782 7869.530 Q -7849.984 7871.056 -7849.095 7871.549 Q -7848.206 7872.042 -7847.812 7871.656 Q -7847.419 7871.271 -7847.235 7871.016 "></path>
    <path id="STROKE_b1c92d31-26d9-4cd6-abae-cd1877b67806" opacity="1.000" fill="none" stroke="#000000" stroke-width="1.000" stroke-opacity="1.000" stroke-linecap="round" stroke-linejoin="round" d="M -7847.524 7868.295 Q -7847.787 7868.394 -7851.349 7873.090 Q -7851.333 7872.991 -7851.286 7872.825 Q -7851.239 7872.658 -7851.162 7872.424 "></path>
    <path id="STROKE_9e476e38-7cae-485b-849b-d683fc5b7ec8" opacity="1.000" fill="none" stroke="#000000" stroke-width="1.000" stroke-opacity="1.000" stroke-linecap="round" stroke-linejoin="round" d="M -7848.223 7862.251 Q -7848.005 7861.672 -7848.049 7861.743 Q -7848.014 7861.646 -7847.923 7861.565 Q -7847.527 7862.080 -7847.637 7861.947 Q -7847.747 7861.815 -7847.496 7862.085 Q -7847.245 7862.354 -7847.067 7862.529 "></path>
    <path id="STROKE_d95e16b2-1e19-42d3-9134-ea46f8ae7053" opacity="1.000" fill="none" stroke="#000000" stroke-width="1.000" stroke-opacity="1.000" stroke-linecap="round" stroke-linejoin="round" d="M -7852.639 7865.923 Q -7852.639 7865.923 -7852.633 7865.853 Q -7852.626 7865.781 -7850.300 7865.088 Q -7847.975 7864.395 -7847.653 7864.283 "></path>
    <path id="STROKE_9f7868f4-0721-441f-a8af-e2ef733cbc2c" opacity="1.000" fill="none" stroke="#000000" stroke-width="1.000" stroke-opacity="1.000" stroke-linecap="round" stroke-linejoin="round" d="M -7796.298 7919.987 Q -7796.221 7920.088 -7796.233 7919.424 Q -7796.245 7918.759 -7795.836 7918.029 Q -7795.427 7917.299 -7795.144 7917.211 Q -7794.860 7917.124 -7794.632 7916.929 Q -7794.403 7916.735 -7794.103 7916.526 Q -7793.802 7916.317 -7793.505 7916.110 Q -7793.208 7915.903 -7792.989 7915.745 Q -7792.771 7915.587 -7792.654 7915.504 Q -7792.538 7915.422 -7792.169 7915.200 Q -7791.800 7914.979 -7791.846 7914.989 Q -7791.892 7915.000 -7791.044 7914.600 Q -7790.197 7914.200 -7790.033 7914.101 "></path>
    <path id="STROKE_48e7e2a1-33e9-4959-bbd7-f49121f295a1" opacity="1.000" fill="none" stroke="#000000" stroke-width="1.000" stroke-opacity="1.000" stroke-linecap="round" stroke-linejoin="round" d="M -7851.947 7889.692 Q -7852.340 7889.796 -7852.292 7889.863 Q -7852.475 7890.072 -7852.513 7890.129 Q -7852.551 7890.187 -7852.513 7890.143 Q -7852.476 7890.100 -7852.744 7890.442 Q -7853.012 7890.785 -7853.117 7891.311 Q -7852.810 7891.310 -7852.169 7890.651 Q -7851.529 7889.994 -7850.020 7887.955 Q -7850.112 7887.920 -7850.457 7888.136 Q -7850.801 7888.351 -7851.984 7889.686 Q -7851.910 7889.819 -7851.828 7889.915 "></path>
    <path id="STROKE_c5a0a5e0-5f7d-4186-a390-853fb5a1b481" opacity="1.000" fill="none" stroke="#000000" stroke-width="1.000" stroke-opacity="1.000" stroke-linecap="round" stroke-linejoin="round" d="M -7851.634 7908.458 Q -7851.479 7908.483 -7852.093 7908.383 Q -7852.209 7908.195 -7852.207 7909.744 Q -7851.797 7910.443 -7850.354 7907.438 Q -7850.832 7907.844 -7850.795 7907.879 Q -7850.910 7907.877 -7851.305 7909.093 Q -7851.088 7909.148 -7850.890 7909.200 "></path>
    <path id="STROKE_996285ea-b4b3-4524-b80a-24a3a76cdd44" opacity="1.000" fill="none" stroke="#000000" stroke-width="1.000" stroke-opacity="1.000" stroke-linecap="round" stroke-linejoin="round" d="M -7855.093 7924.550 Q -7855.579 7924.531 -7855.554 7924.601 Q -7856.125 7924.910 -7856.329 7925.539 Q -7855.520 7924.854 -7855.519 7924.780 Q -7855.517 7924.705 -7855.099 7923.562 Q -7855.757 7924.292 -7855.793 7924.405 Q -7855.829 7924.519 -7855.829 7924.494 Q -7855.828 7924.470 -7856.043 7924.780 Q -7856.259 7925.091 -7856.588 7925.622 Q -7856.650 7925.706 -7855.917 7924.173 Q -7855.879 7924.179 -7855.800 7924.211 Q -7855.722 7924.244 -7855.633 7924.297 "></path>
    <path id="STROKE_209859c8-a041-4e01-8fd9-8a09321e0257" opacity="1.000" fill="none" stroke="#000000" stroke-width="1.000" stroke-opacity="1.000" stroke-linecap="round" stroke-linejoin="round" d="M -7854.838 7939.975 Q -7854.835 7939.956 -7855.028 7939.638 Q -7855.201 7939.562 -7854.756 7939.583 Q -7854.312 7939.603 -7853.969 7939.165 Q -7853.625 7938.727 -7853.562 7938.189 Q -7853.414 7938.179 -7853.926 7938.116 Q -7854.437 7938.052 -7854.340 7938.163 Q -7854.604 7938.376 -7855.054 7939.242 Q -7854.656 7938.797 -7854.673 7938.854 Q -7854.527 7938.713 -7854.407 7938.609 Q -7854.287 7938.506 -7854.122 7938.368 "></path>
    <path id="STROKE_dea0b292-ef3e-4352-b7d3-a29790f01377" opacity="1.000" fill="none" stroke="#000000" stroke-width="1.000" stroke-opacity="1.000" stroke-linecap="round" stroke-linejoin="round" d="M -7789.830 7918.290 Q -7790.373 7918.381 -7790.251 7918.331 Q -7790.128 7918.280 -7790.162 7918.286 Q -7790.196 7918.292 -7790.674 7918.659 Q -7791.151 7919.025 -7791.322 7919.304 Q -7791.493 7919.583 -7791.463 7919.488 Q -7791.432 7919.392 -7791.665 7920.255 Q -7791.695 7920.098 -7791.702 7920.295 Q -7791.708 7920.492 -7791.231 7920.186 Q -7790.754 7919.878 -7790.784 7919.823 Q -7790.815 7919.767 -7790.678 7919.543 Q -7790.542 7919.319 -7790.513 7919.198 Q -7790.483 7919.077 -7790.482 7919.071 Q -7790.482 7919.064 -7790.428 7918.589 Q -7790.965 7918.573 -7791.558 7920.312 Q -7791.001 7920.282 -7790.952 7920.135 Q -7790.903 7919.988 -7790.722 7919.790 "></path>
    <path id="STROKE_030e1a4a-315b-4245-87f3-d8252331dfe2" opacity="1.000" fill="none" stroke="#000000" stroke-width="1.000" stroke-opacity="1.000" stroke-linecap="round" stroke-linejoin="round" d="M -7868.584 7830.687 Q -7868.787 7830.623 -7868.774 7830.239 Q -7868.761 7829.855 -7868.722 7829.861 Q -7868.683 7829.867 -7868.379 7829.733 Q -7868.075 7829.599 -7867.906 7829.546 Q -7867.738 7829.492 -7867.550 7829.448 Q -7867.361 7829.404 -7867.031 7829.337 Q -7866.701 7829.270 -7865.728 7829.000 Q -7864.755 7828.731 -7861.875 7828.738 Q -7861.859 7828.765 -7861.907 7828.859 Q -7861.955 7828.953 -7862.034 7829.042 "></path>
    <path id="STROKE_1db3e5d0-4340-440e-8a03-350dac9c5d12" opacity="1.000" fill="none" stroke="#000000" stroke-width="1.000" stroke-opacity="1.000" stroke-linecap="round" stroke-linejoin="round" d="M -7863.874 7829.775 Q -7863.937 7829.921 -7864.137 7830.267 Q -7864.336 7830.613 -7864.328 7830.632 Q -7864.319 7830.651 -7864.365 7830.727 Q -7864.411 7830.802 -7864.673 7831.583 Q -7864.936 7832.365 -7865.084 7833.969 Q -7865.233 7835.572 -7865.162 7835.647 "></path>
    <path id="STROKE_7d37d81c-2fa6-4991-af52-3f4da1a1aa8a" opacity="1.000" fill="none" stroke="#000000" stroke-width="1.000" stroke-opacity="1.000" stroke-linecap="round" stroke-linejoin="round" d="M -7863.410 7832.932 Q -7863.381 7832.874 -7863.232 7832.632 Q -7862.480 7832.746 -7862.669 7832.705 Q -7862.217 7832.662 -7862.233 7832.651 Q -7862.111 7832.652 -7861.966 7832.637 Q -7862.004 7832.631 -7862.042 7832.625 "></path>
    <path id="STROKE_e117c6a6-4f66-436a-9786-3c9e53d5df7d" opacity="1.000" fill="none" stroke="#000000" stroke-width="1.000" stroke-opacity="1.000" stroke-linecap="round" stroke-linejoin="round" d="M -7865.665 7832.891 Q -7866.015 7832.783 -7866.732 7832.817 Q -7866.621 7832.406 -7867.197 7834.715 Q -7867.772 7837.024 -7867.932 7837.245 "></path>
    <path id="STROKE_2c6283b1-2eda-4118-b35f-2dd6bc88ed03" opacity="1.000" fill="none" stroke="#000000" stroke-width="1.000" stroke-opacity="1.000" stroke-linecap="round" stroke-linejoin="round" d="M -7869.149 7838.362 Q -7869.514 7837.706 -7869.354 7837.878 Q -7868.388 7837.176 -7862.552 7836.108 Q -7856.715 7835.041 -7856.421 7834.905 "></path>
    <path id="STROKE_dc2562e3-caa3-4c47-93c5-78b25b5cf12e" opacity="1.000" fill="none" stroke="#000000" stroke-width="1.000" stroke-opacity="1.000" stroke-linecap="round" stroke-linejoin="round" d="M -7852.092 7829.484 Q -7852.039 7829.146 -7851.886 7829.052 Q -7851.733 7828.959 -7851.788 7829.001 Q -7851.842 7829.042 -7851.655 7828.938 Q -7851.468 7828.832 -7850.779 7828.558 Q -7850.091 7828.283 -7849.620 7828.141 Q -7849.148 7827.999 -7848.911 7827.956 Q -7848.673 7827.914 -7847.916 7827.761 Q -7847.158 7827.608 -7847.003 7827.532 "></path>
    <path id="STROKE_edad8f39-c8c8-45e6-a436-72b5dc68878d" opacity="1.000" fill="none" stroke="#000000" stroke-width="1.000" stroke-opacity="1.000" stroke-linecap="round" stroke-linejoin="round" d="M -7853.018 7831.890 Q -7853.018 7831.890 -7853.020 7831.899 Q -7853.021 7831.909 -7853.024 7831.928 Q -7852.837 7832.382 -7851.039 7830.976 Q -7851.088 7831.877 -7851.091 7831.645 Q -7851.211 7832.383 -7851.213 7832.269 Q -7851.391 7832.491 -7851.537 7832.643 Q -7851.683 7832.794 -7851.740 7832.825 Q -7851.797 7832.856 -7851.660 7832.781 Q -7851.523 7832.706 -7852.176 7833.055 Q -7851.688 7833.091 -7851.473 7832.892 Q -7851.257 7832.692 -7851.152 7832.564 "></path>
    <path id="STROKE_588b48e7-a6e8-4ca6-b497-79eaf24b6c64" opacity="1.000" fill="none" stroke="#000000" stroke-width="1.000" stroke-opacity="1.000" stroke-linecap="round" stroke-linejoin="round" d="M -7852.347 7831.583 Q -7852.452 7831.635 -7852.696 7831.800 Q -7852.940 7831.965 -7852.923 7832.002 Q -7852.905 7832.040 -7852.872 7831.858 Q -7852.839 7831.678 -7853.207 7832.924 Q -7853.322 7833.134 -7852.585 7833.080 Q -7851.848 7833.026 -7851.753 7832.921 "></path>
    <path id="STROKE_67edae21-a09b-4b31-95f1-b07c7caf0b4a" opacity="1.000" fill="none" stroke="#000000" stroke-width="1.000" stroke-opacity="1.000" stroke-linecap="round" stroke-linejoin="round" d="M -7853.864 7835.780 Q -7854.250 7835.944 -7855.220 7836.090 Q -7854.669 7835.846 -7852.241 7834.046 Q -7849.814 7832.247 -7849.592 7832.037 "></path>
    <path id="STROKE_1c3fa6d6-e147-4291-b3bd-6e242233672d" opacity="1.000" fill="none" stroke="#000000" stroke-width="1.000" stroke-opacity="1.000" stroke-linecap="round" stroke-linejoin="round" d="M -7849.356 7826.360 Q -7849.292 7827.231 -7849.355 7827.140 Q -7849.625 7827.514 -7849.293 7829.926 Q -7848.962 7832.338 -7848.355 7834.092 Q -7847.748 7835.845 -7847.296 7836.756 Q -7846.844 7837.667 -7846.501 7838.154 Q -7846.159 7838.642 -7845.875 7838.764 Q -7845.592 7838.887 -7845.466 7838.864 Q -7845.340 7838.841 -7845.230 7838.958 Q -7845.120 7839.074 -7844.516 7838.244 Q -7843.911 7837.413 -7843.699 7836.621 Q -7843.488 7835.829 -7843.423 7835.419 Q -7843.358 7835.010 -7843.212 7834.575 Q -7843.066 7834.141 -7843.586 7833.727 Q -7844.106 7833.312 -7845.143 7833.937 Q -7846.178 7834.562 -7847.301 7835.523 Q -7848.424 7836.484 -7850.049 7837.803 Q -7850.085 7837.868 -7849.930 7837.766 Q -7849.774 7837.664 -7849.587 7837.510 "></path>
    <path id="STROKE_9f50e6cc-f421-483b-b922-e8b092180291" opacity="1.000" fill="none" stroke="#000000" stroke-width="1.000" stroke-opacity="1.000" stroke-linecap="round" stroke-linejoin="round" d="M -7843.794 7825.463 Q -7844.257 7824.945 -7844.217 7825.045 Q -7844.290 7824.989 -7844.563 7824.949 Q -7844.793 7825.602 -7843.861 7826.911 Q -7842.930 7828.221 -7842.720 7828.439 "></path>
    <path id="STROKE_dba8192c-b985-4c7e-a74e-c63925ab304c" opacity="1.000" fill="none" stroke="#000000" stroke-width="1.000" stroke-opacity="1.000" stroke-linecap="round" stroke-linejoin="round" d="M -7883.936 7994.823 Q -7883.951 7994.820 -7884.069 7994.801 Q -7883.849 7995.002 -7881.004 7994.574 Q -7878.159 7994.146 -7876.515 7993.973 Q -7874.871 7993.799 -7873.794 7993.769 Q -7872.717 7993.737 -7870.870 7993.657 Q -7870.866 7993.638 -7870.858 7993.587 Q -7871.147 7993.476 -7871.161 7993.440 Q -7871.176 7993.405 -7871.247 7993.326 "></path>
    <path id="STROKE_0e2eec8c-d571-4d3c-97e9-8b148b490036" opacity="1.000" fill="none" stroke="#000000" stroke-width="1.000" stroke-opacity="1.000" stroke-linecap="round" stroke-linejoin="round" d="M -7872.427 7991.349 Q -7872.851 7991.375 -7872.723 7991.387 Q -7873.305 7991.925 -7871.959 7992.081 Q -7870.614 7992.236 -7869.819 7992.398 Q -7869.024 7992.561 -7868.768 7992.809 Q -7868.510 7993.057 -7868.490 7993.002 Q -7868.471 7992.947 -7868.633 7993.668 Q -7868.796 7994.388 -7873.631 7997.456 Q -7873.543 7997.336 -7873.455 7997.217 "></path>
    <path id="STROKE_797a5f39-879e-45a2-8ab0-b6047d17fab8" opacity="1.000" fill="none" stroke="#000000" stroke-width="1.000" stroke-opacity="1.000" stroke-linecap="round" stroke-linejoin="round" d="M -7871.743 7993.908 Q -7871.690 7993.950 -7872.283 7993.740 Q -7872.278 7993.709 -7872.262 7993.609 Q -7872.099 7993.613 -7869.253 7993.396 Q -7866.406 7993.180 -7864.672 7992.826 Q -7862.938 7992.472 -7861.713 7992.388 Q -7860.489 7992.303 -7859.866 7992.285 Q -7859.243 7992.268 -7858.348 7991.964 Q -7857.453 7991.660 -7856.969 7991.572 Q -7856.485 7991.483 -7856.355 7991.444 Q -7856.226 7991.405 -7855.910 7991.363 Q -7855.593 7991.322 -7855.679 7991.318 Q -7855.764 7991.314 -7855.701 7991.323 Q -7855.639 7991.333 -7855.706 7991.324 Q -7855.773 7991.315 -7855.500 7991.350 Q -7855.227 7991.383 -7855.178 7991.375 "></path>
    <path id="STROKE_e7c3f289-3f95-4907-ab35-b3a97c268059" opacity="1.000" fill="none" stroke="#000000" stroke-width="1.000" stroke-opacity="1.000" stroke-linecap="round" stroke-linejoin="round" d="M -7848.577 7989.644 Q -7848.574 7989.628 -7848.729 7989.484 Q -7848.758 7989.176 -7849.135 7991.533 Q -7848.419 7991.115 -7847.992 7989.542 Q -7847.913 7989.434 -7847.943 7989.470 Q -7847.974 7989.505 -7847.971 7989.496 Q -7847.969 7989.487 -7847.985 7989.509 Q -7848.001 7989.531 -7848.199 7989.873 Q -7848.398 7990.215 -7848.393 7990.213 Q -7848.387 7990.210 -7848.358 7990.169 Q -7848.345 7990.187 -7848.290 7990.204 Q -7848.235 7990.221 -7848.140 7990.252 "></path>
    <path id="STROKE_f472b833-e7a7-40a1-a662-67c19757e72e" opacity="1.000" fill="none" stroke="#000000" stroke-width="1.000" stroke-opacity="1.000" stroke-linecap="round" stroke-linejoin="round" d="M -7849.893 7987.083 Q -7849.931 7986.997 -7850.775 7987.620 Q -7851.620 7988.243 -7851.979 7989.480 Q -7852.339 7990.719 -7852.363 7991.479 Q -7852.388 7992.239 -7852.259 7992.959 Q -7852.130 7993.680 -7851.603 7994.174 Q -7851.076 7994.668 -7850.305 7994.895 Q -7849.533 7995.120 -7848.993 7995.073 Q -7848.454 7995.026 -7848.058 7994.806 Q -7847.662 7994.586 -7846.879 7993.619 Q -7846.095 7992.651 -7845.760 7991.710 Q -7845.424 7990.769 -7845.370 7989.969 Q -7845.315 7989.169 -7845.713 7988.488 Q -7846.111 7987.807 -7846.946 7987.183 Q -7847.781 7986.559 -7848.577 7986.705 Q -7849.373 7986.851 -7850.131 7987.493 Q -7850.889 7988.135 -7851.487 7989.124 Q -7852.086 7990.113 -7852.019 7990.857 Q -7851.952 7991.602 -7851.845 7991.853 "></path>
    <path id="STROKE_00661522-7ca9-4ff6-99af-4f3db962d9d3" opacity="1.000" fill="none" stroke="#000000" stroke-width="1.000" stroke-opacity="1.000" stroke-linecap="round" stroke-linejoin="round" d="M -7852.215 7991.026 Q -7853.112 7990.383 -7855.122 7991.187 Q -7857.131 7991.989 -7857.255 7992.036 "></path>
    <path id="STROKE_0861bd35-3efb-4761-a7e9-b4395cf86fe6" opacity="1.000" fill="none" stroke="#000000" stroke-width="1.000" stroke-opacity="1.000" stroke-linecap="round" stroke-linejoin="round" d="M -7844.379 7991.005 Q -7844.379 7991.004 -7843.880 7990.998 Q -7843.382 7990.991 -7843.454 7990.844 Q -7843.526 7990.697 -7839.583 7990.426 Q -7835.641 7990.155 -7830.765 7989.960 Q -7831.265 7989.878 -7831.236 7989.883 Q -7831.833 7989.785 -7831.759 7989.797 Q -7831.938 7989.767 -7832.057 7989.722 Q -7832.176 7989.677 -7832.316 7989.603 "></path>
    <path id="STROKE_2faf1ae8-3ad7-4ad7-9c40-987b1fe853c9" opacity="1.000" fill="none" stroke="#000000" stroke-width="1.000" stroke-opacity="1.000" stroke-linecap="round" stroke-linejoin="round" d="M -7826.485 7989.156 Q -7826.429 7989.096 -7826.851 7989.248 Q -7827.271 7989.400 -7827.310 7989.691 Q -7826.970 7989.866 -7826.281 7988.685 Q -7826.577 7988.830 -7827.215 7990.141 Q -7827.224 7990.131 -7827.260 7990.187 Q -7827.295 7990.243 -7827.281 7990.223 Q -7827.268 7990.203 -7827.055 7990.039 Q -7826.841 7989.874 -7826.634 7989.554 Q -7826.426 7989.234 -7826.424 7989.166 Q -7826.422 7989.098 -7826.298 7988.884 Q -7826.173 7988.671 -7826.090 7988.551 "></path>
    <path id="STROKE_f9dc5e9f-c19f-4591-8600-52a4c751911a" opacity="1.000" fill="none" stroke="#000000" stroke-width="1.000" stroke-opacity="1.000" stroke-linecap="round" stroke-linejoin="round" d="M -7827.723 7986.507 Q -7827.707 7986.458 -7828.246 7986.268 Q -7828.785 7986.077 -7829.155 7986.030 Q -7829.526 7985.983 -7829.833 7985.936 Q -7830.139 7985.888 -7830.626 7986.261 Q -7831.113 7986.633 -7831.352 7987.527 Q -7831.590 7988.422 -7831.732 7989.392 Q -7831.874 7990.362 -7831.562 7991.393 Q -7831.251 7992.422 -7830.319 7992.872 Q -7829.388 7993.322 -7828.336 7993.669 Q -7827.284 7994.017 -7826.132 7992.737 Q -7824.980 7991.457 -7824.407 7990.646 Q -7823.834 7989.834 -7823.647 7989.471 Q -7823.461 7989.107 -7823.280 7988.379 Q -7823.099 7987.650 -7823.073 7987.035 Q -7823.048 7986.421 -7823.595 7985.684 Q -7824.141 7984.946 -7825.039 7984.407 Q -7825.938 7983.868 -7826.950 7984.181 Q -7827.962 7984.493 -7828.562 7985.092 Q -7829.161 7985.690 -7829.327 7986.647 Q -7829.493 7987.604 -7829.477 7987.828 "></path>
    <path id="STROKE_bf918430-f53e-43ff-b5c9-74e34af4440f" opacity="1.000" fill="none" stroke="#000000" stroke-width="1.000" stroke-opacity="1.000" stroke-linecap="round" stroke-linejoin="round" d="M -7821.695 7990.307 Q -7821.698 7990.326 -7821.665 7990.415 Q -7821.021 7990.442 -7821.155 7990.384 Q -7820.631 7990.031 -7818.917 7989.675 Q -7817.203 7989.319 -7816.215 7989.218 Q -7815.227 7989.117 -7815.028 7989.108 Q -7814.830 7989.099 -7814.242 7989.146 Q -7813.655 7989.193 -7811.274 7989.160 Q -7811.268 7989.125 -7811.231 7988.948 Q -7811.194 7988.771 -7811.160 7988.662 "></path>
    <path id="STROKE_d74db3ff-cb37-4761-bb49-9f0e01104444" opacity="1.000" fill="none" stroke="#000000" stroke-width="1.000" stroke-opacity="1.000" stroke-linecap="round" stroke-linejoin="round" d="M -7805.580 7988.909 Q -7805.814 7989.022 -7806.300 7989.255 Q -7806.057 7989.207 -7805.918 7989.116 Q -7805.780 7989.026 -7805.793 7989.029 Q -7805.807 7989.032 -7805.762 7989.007 Q -7805.717 7988.981 -7805.052 7988.324 Q -7805.181 7988.287 -7805.501 7988.818 Q -7805.425 7988.863 -7805.348 7988.907 "></path>
    <path id="STROKE_a4c14c03-203a-4ddd-b283-1658fa07faef" opacity="1.000" fill="none" stroke="#000000" stroke-width="1.000" stroke-opacity="1.000" stroke-linecap="round" stroke-linejoin="round" d="M -7806.397 7985.751 Q -7806.791 7985.703 -7806.663 7985.727 Q -7806.535 7985.750 -7807.064 7985.728 Q -7807.595 7985.706 -7808.156 7986.517 Q -7808.717 7987.329 -7808.910 7988.337 Q -7809.103 7989.345 -7809.108 7989.902 Q -7809.113 7990.460 -7808.721 7991.069 Q -7808.328 7991.679 -7807.929 7991.861 Q -7807.530 7992.043 -7806.707 7992.236 Q -7805.883 7992.429 -7805.227 7992.116 Q -7804.571 7991.803 -7804.230 7991.450 Q -7803.890 7991.097 -7803.222 7990.485 Q -7802.554 7989.874 -7802.000 7988.638 Q -7801.446 7987.401 -7801.305 7986.556 Q -7801.163 7985.711 -7801.163 7985.129 Q -7801.164 7984.548 -7801.406 7984.047 Q -7801.648 7983.545 -7802.047 7983.369 Q -7802.445 7983.192 -7802.894 7983.221 Q -7803.341 7983.250 -7803.718 7983.388 Q -7804.095 7983.525 -7805.061 7984.611 Q -7806.025 7985.698 -7806.141 7985.793 "></path>
    <path id="STROKE_f4497b38-613c-4424-9cc1-26371e2db813" opacity="1.000" fill="none" stroke="#000000" stroke-width="1.000" stroke-opacity="1.000" stroke-linecap="round" stroke-linejoin="round" d="M -7822.878 7990.783 Q -7823.251 7990.719 -7823.220 7990.747 Q -7823.129 7990.761 -7823.571 7990.772 Q -7822.928 7990.005 -7820.242 7990.123 Q -7817.556 7990.241 -7815.955 7990.059 Q -7814.354 7989.877 -7813.404 7989.549 Q -7812.455 7989.220 -7811.898 7989.021 Q -7811.341 7988.823 -7811.127 7988.784 Q -7810.914 7988.745 -7810.960 7988.751 Q -7811.006 7988.757 -7810.621 7988.604 Q -7810.235 7988.449 -7810.180 7988.441 Q -7810.124 7988.434 -7810.192 7988.438 Q -7810.260 7988.443 -7809.742 7988.421 Q -7809.697 7988.531 -7809.652 7988.642 "></path>
    <path id="STROKE_4b1eaece-008a-4734-a6a7-1fd4f4a2dde3" opacity="1.000" fill="none" stroke="#000000" stroke-width="1.000" stroke-opacity="1.000" stroke-linecap="round" stroke-linejoin="round" d="M -7801.081 7989.206 Q -7801.269 7989.175 -7801.439 7989.147 Q -7801.159 7988.383 -7797.791 7988.097 Q -7794.423 7987.811 -7790.825 7987.846 Q -7790.822 7987.831 -7790.794 7987.753 Q -7790.765 7987.675 -7790.715 7987.564 "></path>
    <path id="STROKE_997f7461-fb10-4beb-814a-46368d8eeb86" opacity="1.000" fill="none" stroke="#000000" stroke-width="1.000" stroke-opacity="1.000" stroke-linecap="round" stroke-linejoin="round" d="M -7782.750 7987.327 Q -7782.681 7987.365 -7783.306 7987.157 Q -7783.238 7986.709 -7783.613 7988.835 Q -7783.230 7988.710 -7782.771 7987.458 Q -7782.836 7987.580 -7782.859 7987.596 Q -7782.882 7987.611 -7783.113 7987.917 Q -7783.345 7988.224 -7783.440 7988.326 "></path>
    <path id="STROKE_bb85c500-4389-4541-9951-8f73086896ef" opacity="1.000" fill="none" stroke="#000000" stroke-width="1.000" stroke-opacity="1.000" stroke-linecap="round" stroke-linejoin="round" d="M -7783.530 7984.390 Q -7783.707 7984.298 -7784.245 7984.304 Q -7784.783 7984.309 -7785.309 7984.639 Q -7785.835 7984.970 -7786.477 7986.615 Q -7787.117 7988.261 -7787.312 7989.351 Q -7787.505 7990.440 -7787.532 7991.072 Q -7787.560 7991.704 -7787.078 7992.508 Q -7786.597 7993.312 -7785.661 7993.785 Q -7784.725 7994.259 -7783.241 7993.540 Q -7781.757 7992.822 -7780.700 7991.766 Q -7779.644 7990.710 -7779.059 7989.915 Q -7778.474 7989.121 -7778.229 7988.175 Q -7777.984 7987.230 -7778.060 7986.500 Q -7778.136 7985.770 -7778.444 7985.065 Q -7778.753 7984.360 -7779.190 7983.678 Q -7779.628 7982.996 -7780.441 7982.572 Q -7781.255 7982.149 -7782.020 7982.121 Q -7782.784 7982.093 -7783.682 7982.729 Q -7784.579 7983.367 -7785.253 7984.321 Q -7785.928 7985.276 -7786.164 7986.089 Q -7786.400 7986.901 -7786.368 7987.500 Q -7786.335 7988.099 -7786.242 7988.269 "></path>
    <path id="STROKE_26c9aa32-d6c3-4a5c-b947-cf05d3d25a32" opacity="1.000" fill="none" stroke="#000000" stroke-width="1.000" stroke-opacity="1.000" stroke-linecap="round" stroke-linejoin="round" d="M -7790.808 7986.910 Q -7790.811 7986.925 -7790.813 7986.940 Q -7789.954 7986.786 -7790.180 7986.801 Q -7790.407 7986.816 -7789.856 7986.814 Q -7789.306 7986.812 -7787.894 7986.952 Q -7786.481 7987.092 -7784.563 7986.382 Q -7784.613 7986.271 -7784.666 7986.176 "></path>
    <path id="STROKE_5e2187b5-feba-4844-b516-4ec04393c66c" opacity="1.000" fill="none" stroke="#000000" stroke-width="1.000" stroke-opacity="1.000" stroke-linecap="round" stroke-linejoin="round" d="M -7777.521 7989.331 Q -7777.521 7989.331 -7777.348 7989.172 Q -7777.174 7989.014 -7777.104 7989.096 Q -7776.625 7988.646 -7771.485 7988.146 Q -7766.345 7987.646 -7763.670 7987.538 Q -7760.995 7987.430 -7759.915 7987.394 Q -7758.834 7987.356 -7758.276 7987.344 Q -7757.719 7987.331 -7757.499 7987.379 Q -7757.280 7987.427 -7757.181 7987.478 Q -7757.082 7987.528 -7755.363 7987.392 Q -7753.644 7987.256 -7752.681 7987.166 Q -7751.719 7987.076 -7751.100 7987.245 Q -7750.480 7987.415 -7750.274 7987.462 Q -7750.069 7987.510 -7749.779 7987.463 Q -7749.489 7987.416 -7749.082 7987.324 Q -7748.675 7987.232 -7748.887 7987.267 Q -7749.099 7987.302 -7748.737 7987.201 Q -7748.376 7987.101 -7748.178 7987.084 Q -7747.979 7987.068 -7747.537 7987.074 Q -7747.095 7987.081 -7746.965 7987.086 Q -7746.835 7987.091 -7746.855 7987.096 Q -7746.876 7987.102 -7746.892 7987.083 Q -7746.906 7987.065 -7746.805 7987.127 Q -7746.704 7987.189 -7746.684 7987.260 "></path>
    <path id="STROKE_5a898e9e-766c-42b2-a2c2-7c2c492273f4" opacity="1.000" fill="none" stroke="#000000" stroke-width="1.000" stroke-opacity="1.000" stroke-linecap="round" stroke-linejoin="round" d="M -7741.886 7985.736 Q -7742.321 7985.767 -7742.271 7985.843 Q -7742.422 7986.000 -7742.608 7986.229 Q -7742.794 7986.458 -7742.721 7986.338 Q -7742.648 7986.218 -7742.753 7986.533 Q -7741.934 7986.893 -7740.902 7985.835 Q -7741.077 7985.295 -7741.929 7987.122 Q -7742.072 7987.178 -7741.738 7987.170 Q -7741.404 7987.161 -7741.281 7987.114 "></path>
    <path id="STROKE_a35dcf26-4845-49d5-9819-ab5ac00d21d4" opacity="1.000" fill="none" stroke="#000000" stroke-width="1.000" stroke-opacity="1.000" stroke-linecap="round" stroke-linejoin="round" d="M -7744.173 7981.975 Q -7744.332 7981.974 -7744.865 7982.307 Q -7745.398 7982.639 -7745.870 7984.261 Q -7746.343 7985.882 -7746.372 7987.060 Q -7746.401 7988.237 -7746.098 7988.967 Q -7745.795 7989.696 -7744.964 7990.323 Q -7744.132 7990.949 -7743.378 7990.851 Q -7742.625 7990.752 -7742.089 7990.367 Q -7741.553 7989.982 -7741.173 7989.654 Q -7740.792 7989.326 -7739.975 7988.508 Q -7739.158 7987.689 -7738.724 7986.410 Q -7738.290 7985.131 -7738.109 7984.204 Q -7737.929 7983.277 -7738.111 7982.408 Q -7738.293 7981.540 -7738.728 7981.031 Q -7739.161 7980.522 -7740.033 7980.474 Q -7740.905 7980.425 -7742.210 7981.235 Q -7743.515 7982.045 -7743.805 7983.394 Q -7744.096 7984.742 -7744.020 7984.888 "></path>
    <path id="STROKE_6c266526-2515-4317-927c-90d2c8578c31" opacity="1.000" fill="none" stroke="#000000" stroke-width="1.000" stroke-opacity="1.000" stroke-linecap="round" stroke-linejoin="round" d="M -7738.552 7985.180 Q -7738.536 7985.135 -7734.113 7984.601 Q -7729.691 7984.065 -7721.858 7984.105 Q -7722.069 7984.016 -7722.417 7984.095 Q -7722.764 7984.173 -7722.941 7984.227 "></path>
    <path id="STROKE_64a18b01-4019-424b-9270-5c249156f7b0" opacity="1.000" fill="none" stroke="#000000" stroke-width="1.000" stroke-opacity="1.000" stroke-linecap="round" stroke-linejoin="round" d="M -7724.025 7982.044 Q -7724.040 7982.042 -7724.189 7982.017 Q -7724.186 7981.998 -7724.162 7981.950 Q -7723.674 7982.025 -7722.621 7982.151 Q -7721.568 7982.277 -7720.968 7982.524 Q -7720.368 7982.772 -7720.063 7983.112 Q -7719.758 7983.453 -7719.761 7983.494 Q -7719.764 7983.535 -7719.736 7983.483 Q -7719.708 7983.431 -7719.901 7983.810 Q -7720.094 7984.189 -7721.490 7984.674 Q -7722.887 7985.158 -7723.660 7985.803 Q -7724.433 7986.447 -7724.533 7986.545 "></path>
    <path id="STROKE_86d032e9-7ea9-4280-87a9-e1e3298cf734" opacity="1.000" fill="none" stroke="#000000" stroke-width="1.000" stroke-opacity="1.000" stroke-linecap="round" stroke-linejoin="round" d="M -7762.437 7985.814 Q -7762.500 7985.819 -7762.767 7985.838 Q -7762.096 7986.495 -7757.074 7987.197 Q -7756.676 7987.671 -7758.315 7988.634 Q -7759.955 7989.597 -7760.959 7990.399 Q -7761.964 7991.202 -7762.035 7991.309 "></path>
    <path id="STROKE_c38a48bf-d9a3-4089-833d-0e7880a84843" opacity="1.000" fill="none" stroke="#000000" stroke-width="1.000" stroke-opacity="1.000" stroke-linecap="round" stroke-linejoin="round" d="M -7816.013 7918.356 Q -7816.518 7918.273 -7816.407 7918.292 Q -7816.458 7918.283 -7816.536 7918.271 Q -7816.552 7918.014 -7814.663 7917.695 Q -7812.774 7917.376 -7810.273 7917.896 Q -7810.037 7917.888 -7810.540 7918.485 Q -7811.043 7919.082 -7811.349 7919.310 Q -7811.655 7919.538 -7811.921 7919.735 Q -7812.187 7919.932 -7813.414 7920.959 Q -7814.641 7921.987 -7814.649 7922.037 "></path>
    <path id="STROKE_93c365a6-7391-4587-912f-5a2d739cf255" opacity="1.000" fill="none" stroke="#000000" stroke-width="1.000" stroke-opacity="1.000" stroke-linecap="round" stroke-linejoin="round" d="M -7814.616 7915.304 Q -7814.956 7915.459 -7814.908 7915.477 Q -7815.235 7915.675 -7815.281 7916.117 Q -7815.117 7916.117 -7810.091 7918.896 Q -7810.143 7918.923 -7810.194 7918.950 "></path>
  </g>
</svg>