<?xml version="1.0" encoding="UTF-8" standalone="yes"?>
<svg xmlns="http://www.w3.org/2000/svg" xmlns:xlink="http://www.w3.org/1999/xlink" width="66.208mm" height="6.430mm" version="1.1" viewBox="-8099.019 8634.764 344.074 33.414">
  <!--
	Exported with Concepts: Smarter Sketching
	Version: 1059 on iOS 15.6
	https://concepts.app/
	-->
  <title>类型、逻辑、运算、信息</title>
  <desc>Drawing exported from Concepts: Smarter Sketching</desc>
  <defs></defs>
  <g id="主体" opacity="1.000">
    <path id="STROKE_fb759a20-4658-4a70-8ca3-74ecbf95160f" opacity="1.000" fill="none" stroke="#000000" stroke-width="1.000" stroke-opacity="1.000" stroke-linecap="round" stroke-linejoin="round" d="M -8093.667 8649.587 Q -8093.667 8649.587 -8093.453 8649.664 Q -8093.239 8649.741 -8089.764 8648.385 Q -8086.289 8647.029 -8085.892 8646.808 "></path>
    <path id="STROKE_f56fd296-c1b2-444e-82f4-0fbac863d9ab" opacity="1.000" fill="none" stroke="#000000" stroke-width="1.000" stroke-opacity="1.000" stroke-linecap="round" stroke-linejoin="round" d="M -8094.602 8653.056 Q -8094.679 8653.056 -8095.006 8653.103 Q -8094.146 8654.037 -8089.303 8651.824 Q -8084.458 8649.610 -8084.256 8649.436 "></path>
    <path id="STROKE_888b627e-d3ad-4289-985f-6d7e7b8b9b9b" opacity="1.000" fill="none" stroke="#000000" stroke-width="1.000" stroke-opacity="1.000" stroke-linecap="round" stroke-linejoin="round" d="M -8088.712 8650.977 Q -8089.324 8649.863 -8094.118 8659.947 Q -8094.145 8659.868 -8093.746 8659.289 Q -8093.347 8658.709 -8093.074 8658.312 "></path>
    <path id="STROKE_208d387b-ab10-448d-9732-c78d7a281509" opacity="1.000" fill="none" stroke="#000000" stroke-width="1.000" stroke-opacity="1.000" stroke-linecap="round" stroke-linejoin="round" d="M -8090.099 8654.247 Q -8089.939 8654.003 -8088.844 8653.161 Q -8088.882 8653.181 -8088.693 8654.771 Q -8088.504 8656.363 -8088.340 8657.227 Q -8088.176 8658.090 -8087.548 8658.860 Q -8086.920 8659.631 -8085.946 8659.736 Q -8084.972 8659.842 -8084.496 8659.812 Q -8084.021 8659.781 -8083.098 8659.652 Q -8082.175 8659.523 -8079.411 8656.530 Q -8079.816 8656.107 -8079.778 8656.449 Q -8079.741 8656.790 -8080.219 8655.357 Q -8080.696 8653.926 -8080.750 8653.604 "></path>
    <path id="STROKE_80125733-7f47-4487-8666-21980863ac54" opacity="1.000" fill="none" stroke="#000000" stroke-width="1.000" stroke-opacity="1.000" stroke-linecap="round" stroke-linejoin="round" d="M -8075.001 8646.363 Q -8074.923 8645.561 -8074.955 8645.838 Q -8073.606 8644.904 -8068.816 8643.980 Q -8067.680 8645.253 -8072.337 8647.402 Q -8072.661 8648.123 -8071.011 8646.537 Q -8069.361 8644.950 -8069.159 8644.682 "></path>
    <path id="STROKE_feb20db7-c7ed-4e7d-bfb9-ffaaed586cb5" opacity="1.000" fill="none" stroke="#000000" stroke-width="1.000" stroke-opacity="1.000" stroke-linecap="round" stroke-linejoin="round" d="M -8069.408 8641.797 Q -8070.645 8642.005 -8070.351 8642.177 Q -8071.345 8643.436 -8071.689 8646.684 Q -8072.033 8649.932 -8072.228 8650.077 "></path>
    <path id="STROKE_23b35877-dc84-46df-a42f-a2826c7bf729" opacity="1.000" fill="none" stroke="#000000" stroke-width="1.000" stroke-opacity="1.000" stroke-linecap="round" stroke-linejoin="round" d="M -8073.864 8650.229 Q -8074.544 8650.317 -8074.534 8650.357 Q -8074.637 8650.373 -8074.955 8650.428 Q -8074.468 8650.254 -8068.201 8646.516 Q -8067.726 8646.449 -8068.703 8648.095 Q -8069.680 8649.740 -8071.114 8651.233 Q -8072.549 8652.727 -8074.456 8653.161 Q -8074.886 8653.622 -8067.725 8649.189 Q -8067.961 8649.547 -8068.873 8650.676 Q -8069.785 8651.804 -8072.680 8654.445 Q -8072.797 8654.303 -8068.130 8651.970 Q -8068.468 8652.566 -8068.497 8660.822 Q -8068.339 8660.969 -8069.494 8660.844 Q -8070.650 8660.719 -8072.352 8659.668 Q -8074.053 8658.617 -8076.591 8658.219 Q -8075.879 8657.317 -8075.749 8657.447 Q -8075.422 8657.250 -8073.018 8656.006 Q -8070.613 8654.762 -8067.591 8654.637 Q -8064.569 8654.513 -8062.428 8655.300 Q -8060.286 8656.087 -8059.966 8656.232 "></path>
    <path id="STROKE_ccc82caf-7c61-45f3-8356-a4fcbbfcb0a1" opacity="1.000" fill="none" stroke="#000000" stroke-width="1.000" stroke-opacity="1.000" stroke-linecap="round" stroke-linejoin="round" d="M -8050.213 8655.041 Q -8050.128 8655.109 -8049.489 8655.499 Q -8048.850 8655.889 -8048.624 8656.034 "></path>
    <path id="STROKE_81e7bfb9-8c33-4d6f-9d73-e5873fcc1bc5" opacity="1.000" fill="none" stroke="#000000" stroke-width="1.000" stroke-opacity="1.000" stroke-linecap="round" stroke-linejoin="round" d="M -8049.621 8659.947 Q -8049.490 8659.924 -8050.712 8660.449 Q -8050.764 8660.504 -8050.115 8660.488 Q -8049.465 8660.473 -8049.123 8660.449 "></path>
    <path id="STROKE_5978a7b8-42a2-4db8-8297-371c9031bb21" opacity="1.000" fill="none" stroke="#000000" stroke-width="1.000" stroke-opacity="1.000" stroke-linecap="round" stroke-linejoin="round" d="M -7999.125 8662.189 Q -7999.125 8662.189 -7998.435 8662.248 Q -7997.743 8662.307 -7998.329 8662.300 Q -7998.914 8662.293 -7990.915 8662.236 Q -7991.043 8661.757 -7991.141 8661.786 Q -7991.670 8661.210 -7991.584 8661.296 Q -7991.717 8661.073 -7992.796 8659.889 Q -7993.875 8658.703 -7994.047 8657.420 Q -7994.220 8656.136 -7994.173 8655.808 Q -7994.126 8655.479 -7993.302 8654.387 Q -7992.477 8653.294 -7990.311 8651.738 Q -7988.146 8650.184 -7986.459 8649.438 Q -7984.772 8648.692 -7983.348 8648.527 Q -7981.923 8648.362 -7981.192 8648.555 Q -7980.461 8648.748 -7979.987 8649.150 Q -7979.513 8649.552 -7979.042 8651.342 Q -7978.572 8653.133 -7978.921 8654.752 Q -7979.270 8656.371 -7979.627 8657.450 Q -7979.985 8658.529 -7984.137 8660.799 Q -7983.049 8661.090 -7983.301 8661.055 Q -7983.553 8661.019 -7981.649 8661.084 Q -7979.746 8661.150 -7977.299 8660.059 Q -7974.852 8658.966 -7974.478 8658.768 "></path>
    <path id="STROKE_1c02e48b-cc1b-4a70-a757-275cadaa3877" opacity="1.000" fill="none" stroke="#000000" stroke-width="1.000" stroke-opacity="1.000" stroke-linecap="round" stroke-linejoin="round" d="M -7959.583 8654.201 Q -7959.295 8653.607 -7953.526 8652.777 Q -7947.757 8651.946 -7947.508 8651.923 "></path>
    <path id="STROKE_c102afd9-c4a2-4b87-aae1-63c5cca84c01" opacity="1.000" fill="none" stroke="#000000" stroke-width="1.000" stroke-opacity="1.000" stroke-linecap="round" stroke-linejoin="round" d="M -7956.124 8657.973 Q -7956.441 8657.971 -7959.037 8658.219 Q -7959.037 8658.241 -7959.037 8658.265 Q -7959.058 8658.702 -7954.816 8657.416 Q -7950.575 8656.131 -7947.721 8655.834 Q -7944.867 8655.538 -7944.594 8655.485 "></path>
    <path id="STROKE_4d89ac19-272a-464c-8b5d-3e8f3821531b" opacity="1.000" fill="none" stroke="#000000" stroke-width="1.000" stroke-opacity="1.000" stroke-linecap="round" stroke-linejoin="round" d="M -7931.616 8639.869 Q -7931.665 8639.914 -7932.596 8639.914 Q -7933.527 8639.913 -7934.222 8640.859 Q -7934.917 8641.807 -7934.905 8643.004 Q -7934.895 8644.201 -7934.539 8645.277 Q -7934.183 8646.353 -7934.123 8646.923 Q -7934.062 8647.493 -7934.327 8648.090 Q -7934.591 8648.686 -7937.412 8649.634 Q -7937.412 8649.657 -7937.412 8649.681 Q -7937.608 8649.794 -7936.516 8649.711 Q -7935.423 8649.628 -7934.284 8649.695 Q -7933.144 8649.763 -7932.954 8651.541 Q -7932.765 8653.318 -7933.074 8655.359 Q -7933.383 8657.400 -7933.856 8659.153 Q -7934.329 8660.906 -7934.326 8661.726 Q -7934.324 8662.545 -7934.367 8663.430 Q -7934.410 8664.314 -7932.148 8664.090 Q -7929.887 8663.865 -7929.435 8663.567 "></path>
    <path id="STROKE_4e849e3a-6409-4299-b429-2dedad86d233" opacity="1.000" fill="none" stroke="#000000" stroke-width="1.000" stroke-opacity="1.000" stroke-linecap="round" stroke-linejoin="round" d="M -7914.836 8648.303 Q -7914.836 8648.303 -7914.768 8647.994 Q -7914.700 8647.686 -7914.383 8647.439 Q -7914.066 8647.194 -7913.700 8647.105 Q -7913.333 8647.018 -7913.072 8647.192 Q -7912.811 8647.367 -7912.547 8647.674 Q -7912.283 8647.980 -7912.309 8648.010 Q -7912.334 8648.039 -7912.041 8648.073 Q -7911.748 8648.107 -7908.510 8654.153 Q -7907.672 8654.167 -7907.721 8654.084 Q -7907.771 8654.002 -7907.622 8653.850 "></path>
    <path id="STROKE_18f36653-0678-4528-a5f4-2b0238a08ba4" opacity="1.000" fill="none" stroke="#000000" stroke-width="1.000" stroke-opacity="1.000" stroke-linecap="round" stroke-linejoin="round" d="M -7908.261 8647.602 Q -7909.007 8647.843 -7909.710 8648.490 Q -7910.414 8649.137 -7913.512 8657.179 Q -7913.512 8657.149 -7913.496 8656.951 Q -7913.480 8656.752 -7913.449 8656.524 "></path>
    <path id="STROKE_0b1d9e91-4e81-415f-bccc-8dc1579fbc00" opacity="1.000" fill="none" stroke="#000000" stroke-width="1.000" stroke-opacity="1.000" stroke-linecap="round" stroke-linejoin="round" d="M -7904.600 8653.453 Q -7904.496 8653.396 -7904.420 8653.254 L -7904.397 8653.254 Q -7904.133 8653.095 -7904.942 8658.813 Q -7904.841 8658.860 -7904.740 8658.907 "></path>
    <path id="STROKE_ad3b57b2-1a36-452a-aefd-bb4142cc808d" opacity="1.000" fill="none" stroke="#000000" stroke-width="1.000" stroke-opacity="1.000" stroke-linecap="round" stroke-linejoin="round" d="M -7879.157 8648.442 Q -7878.980 8648.099 -7878.893 8647.989 Q -7878.806 8647.880 -7878.764 8647.881 Q -7878.723 8647.882 -7878.757 8647.855 Q -7878.791 8647.830 -7878.397 8647.701 Q -7878.003 8647.572 -7877.687 8647.448 Q -7877.370 8647.324 -7876.955 8647.428 Q -7876.540 8647.531 -7876.006 8647.771 Q -7875.473 8648.013 -7873.634 8655.217 Q -7873.323 8655.461 -7872.499 8655.018 Q -7871.675 8654.575 -7871.244 8654.029 Q -7870.814 8653.482 -7870.588 8653.208 "></path>
    <path id="STROKE_4adc06d1-b049-413f-9b57-d998c617305c" opacity="1.000" fill="none" stroke="#000000" stroke-width="1.000" stroke-opacity="1.000" stroke-linecap="round" stroke-linejoin="round" d="M -7870.152 8646.959 Q -7870.779 8646.545 -7872.271 8648.061 Q -7873.764 8649.575 -7876.348 8652.819 Q -7878.931 8656.063 -7878.955 8656.139 "></path>
    <path id="STROKE_c837d330-5cc9-4cbf-b06b-64b7c261e2bf" opacity="1.000" fill="none" stroke="#000000" stroke-width="1.000" stroke-opacity="1.000" stroke-linecap="round" stroke-linejoin="round" d="M -7869.700 8651.572 Q -7869.467 8651.320 -7869.172 8651.332 Q -7868.878 8651.344 -7868.529 8651.600 Q -7868.180 8651.855 -7868.229 8651.891 Q -7868.279 8651.926 -7868.242 8651.923 Q -7868.205 8651.920 -7868.092 8652.853 Q -7867.979 8653.785 -7870.993 8657.669 Q -7870.655 8657.652 -7870.097 8657.704 Q -7869.539 8657.756 -7868.213 8657.304 Q -7866.888 8656.852 -7866.740 8656.723 "></path>
    <path id="STROKE_5b10506c-f333-4ec6-8354-4a58bfd55b3f" opacity="1.000" fill="none" stroke="#000000" stroke-width="1.000" stroke-opacity="1.000" stroke-linecap="round" stroke-linejoin="round" d="M -7839.069 8651.923 Q -7839.069 8652.047 -7839.069 8651.129 Q -7839.051 8652.344 -7839.046 8651.993 Q -7838.880 8652.757 -7838.867 8652.711 Q -7838.754 8652.965 -7838.413 8653.049 Q -7838.072 8653.132 -7837.823 8653.161 "></path>
    <path id="STROKE_70e2e4a3-044b-46fe-abbc-be49081f11f1" opacity="1.000" fill="none" stroke="#000000" stroke-width="1.000" stroke-opacity="1.000" stroke-linecap="round" stroke-linejoin="round" d="M -7832.728 8651.269 Q -7832.354 8651.404 -7834.660 8652.519 Q -7834.890 8652.604 -7834.304 8652.596 Q -7833.717 8652.589 -7833.367 8652.565 "></path>
    <path id="STROKE_eb6f910f-1889-4a05-a73c-67ed1223dc30" opacity="1.000" fill="none" stroke="#000000" stroke-width="1.000" stroke-opacity="1.000" stroke-linecap="round" stroke-linejoin="round" d="M -7823.863 8651.468 Q -7823.904 8651.530 -7826.792 8651.864 Q -7826.769 8651.864 -7826.593 8651.814 Q -7826.418 8651.766 -7826.091 8651.666 "></path>
    <path id="STROKE_9fb0950c-9e2a-4bfa-99f7-2d78c60a63ea" opacity="1.000" fill="none" stroke="#000000" stroke-width="1.000" stroke-opacity="1.000" stroke-linecap="round" stroke-linejoin="round" d="M -7819.656 8650.930 Q -7819.305 8650.907 -7820.360 8651.377 Q -7821.417 8651.847 -7821.495 8651.923 "></path>
    <path id="STROKE_93118e43-9361-4bea-859f-829ebc93bcd5" opacity="1.000" fill="none" stroke="#000000" stroke-width="1.000" stroke-opacity="1.000" stroke-linecap="round" stroke-linejoin="round" d="M -7795.164 8646.912 Q -7794.382 8646.730 -7794.210 8646.691 Q -7794.038 8646.653 -7794.019 8646.714 Q -7793.926 8646.490 -7792.458 8647.008 Q -7790.991 8647.525 -7790.317 8649.527 Q -7789.644 8651.530 -7789.656 8652.739 Q -7789.669 8653.948 -7789.359 8655.039 Q -7789.050 8656.129 -7787.752 8656.266 Q -7786.455 8656.402 -7786.252 8656.326 "></path>
    <path id="STROKE_8c310afe-a14a-43da-a17c-29590aabb4b9" opacity="1.000" fill="none" stroke="#000000" stroke-width="1.000" stroke-opacity="1.000" stroke-linecap="round" stroke-linejoin="round" d="M -7785.660 8646.410 Q -7785.628 8646.341 -7786.215 8646.156 Q -7786.802 8645.971 -7787.335 8646.053 Q -7787.867 8646.135 -7788.035 8646.367 Q -7788.204 8646.600 -7788.236 8646.604 Q -7788.268 8646.607 -7789.600 8648.581 Q -7790.932 8650.555 -7792.060 8651.833 Q -7793.188 8653.111 -7793.846 8653.750 Q -7794.504 8654.389 -7794.514 8654.397 "></path>
    <path id="STROKE_97293ae0-ca75-4f26-bc24-1be129636994" opacity="1.000" fill="none" stroke="#000000" stroke-width="1.000" stroke-opacity="1.000" stroke-linecap="round" stroke-linejoin="round" d="M -7781.453 8650.731 Q -7780.828 8650.002 -7782.887 8655.543 Q -7782.706 8655.293 -7782.387 8654.883 Q -7782.067 8654.472 -7782.114 8654.558 Q -7782.162 8654.644 -7782.007 8654.471 Q -7781.853 8654.297 -7781.153 8653.234 Q -7780.453 8652.172 -7776.880 8650.627 Q -7776.625 8651.186 -7777.963 8655.462 Q -7777.555 8655.559 -7777.288 8655.562 Q -7777.021 8655.566 -7776.748 8655.590 "></path>
    <path id="STROKE_fa3eca9b-e001-4942-a357-3b81c09f36f9" opacity="1.000" fill="none" stroke="#000000" stroke-width="1.000" stroke-opacity="1.000" stroke-linecap="round" stroke-linejoin="round" d="M -7766.402 8639.718 Q -7765.987 8638.541 -7766.083 8638.994 Q -7766.405 8639.009 -7765.362 8638.881 Q -7764.320 8638.754 -7763.450 8639.016 Q -7762.580 8639.277 -7761.982 8640.617 Q -7761.384 8641.956 -7762.056 8648.991 Q -7760.912 8649.170 -7761.230 8649.097 Q -7760.301 8649.086 -7760.474 8649.067 Q -7759.691 8648.761 -7759.033 8648.244 Q -7758.944 8647.961 -7759.728 8648.410 Q -7760.511 8648.859 -7760.940 8649.612 Q -7761.370 8650.365 -7761.471 8651.043 Q -7761.571 8651.720 -7761.608 8652.598 Q -7761.645 8653.476 -7761.635 8654.585 Q -7761.625 8655.694 -7761.377 8657.055 Q -7761.128 8658.416 -7761.348 8659.438 Q -7761.567 8660.458 -7762.170 8660.970 Q -7762.773 8661.481 -7763.118 8661.754 Q -7763.463 8662.025 -7763.833 8662.295 Q -7764.204 8662.564 -7765.740 8662.832 Q -7767.275 8663.101 -7767.696 8663.170 "></path>
    <path id="STROKE_c4f963f4-23ae-412d-99ab-38073bcc810d" opacity="1.000" fill="none" stroke="#000000" stroke-width="1.000" stroke-opacity="1.000" stroke-linecap="round" stroke-linejoin="round" d="M -7891.990 8646.904 Q -7892.337 8646.885 -7892.387 8648.339 Q -7892.437 8649.793 -7892.254 8650.939 Q -7892.072 8652.086 -7891.845 8652.884 Q -7891.617 8653.682 -7891.298 8654.351 Q -7890.979 8655.020 -7890.654 8655.183 Q -7890.328 8655.346 -7889.918 8655.344 Q -7889.509 8655.342 -7889.284 8655.060 Q -7889.060 8654.777 -7888.816 8654.230 Q -7888.572 8653.684 -7888.405 8652.873 Q -7888.237 8652.062 -7888.316 8649.229 Q -7888.396 8646.396 -7888.338 8646.270 "></path>
    <path id="STROKE_59ad96a6-f145-42bd-b866-1a0659c9b38b" opacity="1.000" fill="none" stroke="#000000" stroke-width="1.000" stroke-opacity="1.000" stroke-linecap="round" stroke-linejoin="round" d="M -7856.578 8647.455 Q -7857.010 8647.648 -7856.865 8647.645 Q -7856.984 8647.949 -7857.052 8649.447 Q -7857.119 8650.945 -7856.949 8652.279 Q -7856.779 8653.613 -7856.539 8654.356 Q -7856.299 8655.100 -7855.952 8655.647 Q -7855.605 8656.195 -7855.058 8656.439 Q -7854.510 8656.684 -7854.104 8656.590 Q -7853.697 8656.496 -7853.374 8656.121 Q -7853.050 8655.746 -7852.757 8654.791 Q -7852.465 8653.836 -7852.645 8652.800 Q -7852.824 8651.764 -7853.000 8651.186 Q -7853.176 8650.607 -7853.317 8650.053 Q -7853.459 8649.498 -7853.532 8648.587 Q -7853.605 8647.676 -7853.633 8647.514 "></path>
    <path id="STROKE_9dbdd526-689b-4188-83db-f7ad8caad5fe" opacity="1.000" fill="none" stroke="#000000" stroke-width="1.000" stroke-opacity="1.000" stroke-linecap="round" stroke-linejoin="round" d="M -7806.854 8647.703 Q -7807.166 8647.842 -7807.326 8649.899 Q -7807.486 8651.957 -7807.471 8653.088 Q -7807.456 8654.219 -7807.370 8654.950 Q -7807.284 8655.682 -7807.110 8656.144 Q -7806.937 8656.605 -7806.650 8656.872 Q -7806.363 8657.139 -7806.161 8657.220 Q -7805.958 8657.301 -7805.785 8657.316 Q -7805.612 8657.332 -7805.299 8657.300 Q -7804.985 8657.268 -7804.483 8656.606 Q -7803.981 8655.945 -7803.671 8655.091 Q -7803.361 8654.236 -7803.326 8652.782 Q -7803.291 8651.328 -7803.525 8649.670 Q -7803.759 8648.012 -7804.028 8647.289 Q -7804.298 8646.566 -7804.363 8646.500 "></path>
  </g>
</svg>